<?xml version="1.0" encoding="UTF-8" standalone="no"?>
<!-- Created with Inkscape (http://www.inkscape.org/) -->

<svg
   xmlns:dc="http://purl.org/dc/elements/1.1/"
   xmlns:cc="http://creativecommons.org/ns#"
   xmlns:rdf="http://www.w3.org/1999/02/22-rdf-syntax-ns#"
   xmlns:svg="http://www.w3.org/2000/svg"
   xmlns="http://www.w3.org/2000/svg"
   xmlns:sodipodi="http://sodipodi.sourceforge.net/DTD/sodipodi-0.dtd"
   xmlns:inkscape="http://www.inkscape.org/namespaces/inkscape"
   width="210mm"
   height="297mm"
   viewBox="0 0 744.09448819 1052.3622047"
   id="svg2"
   version="1.1"
   inkscape:version="0.91 r13725"
   sodipodi:docname="10_1.svg">
  <defs
     id="defs4" />
  <sodipodi:namedview
     id="base"
     pagecolor="#ffffff"
     bordercolor="#666666"
     borderopacity="1.0"
     inkscape:pageopacity="0.0"
     inkscape:pageshadow="2"
     inkscape:zoom="1.5982422"
     inkscape:cx="283.64964"
     inkscape:cy="520"
     inkscape:document-units="px"
     inkscape:current-layer="layer1"
     showgrid="false"
     inkscape:window-width="2560"
     inkscape:window-height="1315"
     inkscape:window-x="0"
     inkscape:window-y="1"
     inkscape:window-maximized="1" />
  <metadata
     id="metadata7">
    <rdf:RDF>
      <cc:Work
         rdf:about="">
        <dc:format>image/svg+xml</dc:format>
        <dc:type
           rdf:resource="http://purl.org/dc/dcmitype/StillImage" />
        <dc:title />
      </cc:Work>
    </rdf:RDF>
  </metadata>
  <g
     inkscape:label="Layer 1"
     inkscape:groupmode="layer"
     id="layer1">
    <path
       style="fill:none;fill-rule:evenodd;stroke:#000000;stroke-width:3.13508892px;stroke-linecap:butt;stroke-linejoin:miter;stroke-opacity:1"
       d="M 84.856015,54.490287 C 138.51673,60.173425 159.46555,111.32855 182.9353,156.49278 206.40505,201.65701 192.01574,270.7281 214.32067,317.34279 236.62561,363.95747 293.04539,381.31621 308.4768,429.15316 323.90822,476.99011 327.77703,546.24791 296.70729,584.11844 265.63756,621.98897 195.7592,571.78884 155.47312,595.3353 115.18705,618.88176 101.96878,702.65658 63.278583,721.42944 24.588385,740.2023 -9.6607962,756.83986 -52.45498,735.16053 -95.249164,713.4812 -86.093075,618.88597 -136.80314,586.08002 -187.5132,553.27407 -288.92306,601.72805 -327.07695,568.42575 -365.23083,535.12345 -363.32854,501.28965 -352.57759,458.57695 -341.82663,415.86425 -275.58252,393.70546 -252.53671,344.805 -229.49089,295.90454 -247.51528,218.6571 -225.07451,174.14705 -202.63374,129.637 -184.28398,80.639559 -140.72631,66.25982 -97.168632,51.880081 -2.5881635,124.98841 26.008456,150.60799 54.605075,176.22757 51.106276,159.06195 45.624308,211.41715 40.142339,263.77235 -92.24389,312.11672 -152.49584,301.6501 -212.74778,291.18348 -313.40118,204.41459 -341.37874,251.85562 -369.35629,299.29665 -372.87963,326.60374 -363.72504,349.63677 -354.57044,372.6698 -260.34482,434.86082 -254.49829,480.15439 -248.65175,525.44796 -272.82431,606.34588 -262.83484,651.30683 -252.84536,696.26778 -274.85155,688.92164 -207.23019,724.03272 -139.60882,759.1438 -66.447283,614.43062 3.991175,613.73245 74.429633,613.03427 95.12221,742.03469 143.70358,741.04528 192.28496,740.05587 209.20819,713.82558 222.16701,664.54347 235.12583,615.26136 206.36125,562.17302 206.47432,493.88551 206.5874,425.598 333.34666,357.69599 341.21757,338.82018 349.08848,319.94437 356.12619,310.87626 331.81956,262.47779 307.51293,214.07932 279.05299,295.76531 153.51151,291.84217 27.970038,287.91903 -66.331016,232.10687 -75.994014,209.45559 -85.657013,186.80431 -87.751756,189.41134 -66.186076,156.49278 -44.620396,123.57422 31.1953,48.807149 84.856015,54.490287 Z"
       id="path4201"
       inkscape:connector-curvature="0"
       sodipodi:nodetypes="zzzzzzzzzzzzzzzzzzzzzzzzzzzzzzzz" />
  </g>
</svg>
