<?xml version="1.0" encoding="UTF-8" standalone="no"?>
<!-- Created with Inkscape (http://www.inkscape.org/) -->

<svg
   xmlns:dc="http://purl.org/dc/elements/1.1/"
   xmlns:cc="http://creativecommons.org/ns#"
   xmlns:rdf="http://www.w3.org/1999/02/22-rdf-syntax-ns#"
   xmlns:svg="http://www.w3.org/2000/svg"
   xmlns="http://www.w3.org/2000/svg"
   xmlns:sodipodi="http://sodipodi.sourceforge.net/DTD/sodipodi-0.dtd"
   xmlns:inkscape="http://www.inkscape.org/namespaces/inkscape"
   width="210mm"
   height="297mm"
   viewBox="0 0 744.09448819 1052.3622047"
   id="svg2"
   version="1.1"
   inkscape:version="0.91 r13725"
   sodipodi:docname="10_123.svg">
  <defs
     id="defs4" />
  <sodipodi:namedview
     id="base"
     pagecolor="#ffffff"
     bordercolor="#666666"
     borderopacity="1.0"
     inkscape:pageopacity="0.0"
     inkscape:pageshadow="2"
     inkscape:zoom="0.29257813"
     inkscape:cx="443.35781"
     inkscape:cy="417.46328"
     inkscape:document-units="px"
     inkscape:current-layer="layer1"
     showgrid="false"
     inkscape:window-width="1493"
     inkscape:window-height="1002"
     inkscape:window-x="922"
     inkscape:window-y="20"
     inkscape:window-maximized="0" />
  <metadata
     id="metadata7">
    <rdf:RDF>
      <cc:Work
         rdf:about="">
        <dc:format>image/svg+xml</dc:format>
        <dc:type
           rdf:resource="http://purl.org/dc/dcmitype/StillImage" />
        <dc:title />
      </cc:Work>
    </rdf:RDF>
  </metadata>
  <g
     inkscape:label="Layer 1"
     inkscape:groupmode="layer"
     id="layer1">
    <path
       style="fill:none;fill-rule:evenodd;stroke:#000000;stroke-width:1px;stroke-linecap:butt;stroke-linejoin:miter;stroke-opacity:1"
       d="M  -344.77030654456 , -8.30033099282103 C  -365.021127702529 , -77.4341487642299 -340.822946284689 , -151.908493343494 -283.803849297135 , -195.935792783118 -226.784752309582 , -239.963092222742 -158.56433 , -242.29926 -96.02687 , -217.443 -33.48941 , -192.58674 193.509670850631 , -27.6622539438894 236.474516819401 , 24.1333981450559 279.439362788171 , 75.9290502340012 298.298805057548 , 141.53244296082 274.046225003683 , 209.366010447377 249.793644949818 , 277.199577933934 186.441983531978 , 323.22725417379 114.433967756258 , 325.331103328562 42.4259519805381 , 327.434952483335 -14.1386939977022 , 289.225993778111 -50.1224188675984 , 232.358260317678 -86.1061437374946 , 175.490526857246 -172.81207720745 , -91.3628971586495 -177.126647326133 , -158.520562760799 -181.441217444816 , -225.678228362949 -158.13812 , -289.83779 -98.6458 , -330.46099 -39.15348 , -371.08419 39.15348 , -371.08419 98.6458 , -330.46099 158.13812 , -289.83779 181.441217444816 , -225.678228362949 177.126647326133 , -158.520562760799 172.81207720745 , -91.3628971586496 86.1061437374946 , 175.490526857246 50.1224188675985 , 232.358260317678 14.1386939977023 , 289.225993778111 -42.4259519805381 , 327.434952483335 -114.433967756258 , 325.331103328562 -186.441983531978 , 323.22725417379 -249.793644949818 , 277.199577933934 -274.046225003683 , 209.366010447377 -298.298805057548 , 141.53244296082 -279.439362788171 , 75.9290502340013 -236.474516819401 , 24.1333981450559 -193.509670850631 , -27.6622539438894 33.48941 , -192.58674 96.02687 , -217.443 158.56433 , -242.29926 226.784752309582 , -239.963092222742 283.803849297135 , -195.935792783118 340.822946284689 , -151.908493343494 365.021127702528 , -77.4341487642299 344.77030654456 , -8.3003309928211 324.519485386591 , 60.8334867785877 270.701169341057 , 102.822444350837 205.497158360866 , 119.471904298065 140.293147380675 , 136.121364245293 -140.293147380675 , 136.121364245293 -205.497158360866 , 119.471904298065 -270.701169341057 , 102.822444350837 -324.519485386591 , 60.8334867785878 -344.77030654456 , -8.30033099282103 Z "
       id="path3336"
       inkscape:connector-curvature="0"
       sodipodi:nodetypes="zzzzzzzzzzzzzzzzzzzzz" />
  </g>
</svg>
