<?xml version="1.0" encoding="UTF-8" standalone="no"?>
<!-- Created with Inkscape (http://www.inkscape.org/) -->

<svg
   xmlns:dc="http://purl.org/dc/elements/1.1/"
   xmlns:cc="http://creativecommons.org/ns#"
   xmlns:rdf="http://www.w3.org/1999/02/22-rdf-syntax-ns#"
   xmlns:svg="http://www.w3.org/2000/svg"
   xmlns="http://www.w3.org/2000/svg"
   xmlns:sodipodi="http://sodipodi.sourceforge.net/DTD/sodipodi-0.dtd"
   xmlns:inkscape="http://www.inkscape.org/namespaces/inkscape"
   width="744.09448819"
   height="1052.3622047"
   id="svg2"
   version="1.1"
   inkscape:version="0.91 r13725"
   sodipodi:docname="10_47.svg">
  <defs
     id="defs4" />
  <sodipodi:namedview
     id="base"
     pagecolor="#ffffff"
     bordercolor="#666666"
     borderopacity="1.0"
     inkscape:pageopacity="0.0"
     inkscape:pageshadow="2"
     inkscape:zoom="0.8555921"
     inkscape:cx="45.653739"
     inkscape:cy="562.83275"
     inkscape:document-units="px"
     inkscape:current-layer="layer1"
     showgrid="false"
     inkscape:window-width="2560"
     inkscape:window-height="1315"
     inkscape:window-x="373"
     inkscape:window-y="178"
     inkscape:window-maximized="0" />
  <metadata
     id="metadata7">
    <rdf:RDF>
      <cc:Work
         rdf:about="">
        <dc:format>image/svg+xml</dc:format>
        <dc:type
           rdf:resource="http://purl.org/dc/dcmitype/StillImage" />
        <dc:title />
      </cc:Work>
    </rdf:RDF>
  </metadata>
  <g
     inkscape:label="Layer 1"
     inkscape:groupmode="layer"
     id="layer1">
    <path
       style="fill:none;stroke:#ff0000;stroke-width:12.65252686;stroke-linecap:butt;stroke-linejoin:miter;stroke-miterlimit:4;stroke-dasharray:none;stroke-opacity:1"
       d="M  -217.741358522128 , -70.1809711350099 C  -190.291509274559 , -139.916058085271 -117.854492948325 , -163.171127419218 -60.1013079901624 , -145.659509747691 -2.34812303199983 , -128.147892076164 -0.220546239821715 , -94.309028486428 66.8669675667134 , -59.1682336287885 133.954481373248 , -24.027438771149 64.4478012446246 , -60.4354243977454 141.077476097127 , -20.2963838860797 217.707150949629 , 19.842656625586 238.318838563904 , 0.406691457745069 282.949914098341 , 35.4467334241276 327.580989632779 , 70.4867753905101 338.802729092355 , 126.544443277916 315.719903159304 , 173.242394951118 292.637077226254 , 219.94034662432 259.5044958325 , 229.114244876029 172.7237312411 , 283.851928961749 85.9429666496995 , 338.589613047468 62.7142264132486 , 372.583714655803 2.69897350543239 , 407.747526328603 -57.3162794023838 , 442.911338001404 -140.804966090917 , 484.506864929841 -179.725276208037 , 422.42259461475 -218.645586325157 , 360.338324299659 -141.227987742295 , 286.525999867043 -44.1587627639832 , 299.883230359709 52.9104622143287 , 313.240460852375 91.4019068374346 , 392.385167117576 119.189117097431 , 447.397753670624 146.976327357427 , 502.410340223673 189.266574091838 , 577.116883791429 132.552837393284 , 639.66958762717 75.8391006947294 , 702.22229146291 -4.72920804467326 , 673.885520150347 -38.8241948107328 , 632.790186164196 -72.9191815767923 , 591.694852178046 -69.9859687585363 , 557.066623676088 -77.0342545336873 , 511.90452262325 -84.0825403088383 , 466.742421570413 -126.644653729635 , 308.771240083145 -200.638043684871 , 262.588069241171 -274.631433640107 , 216.404898399197 -292.637077226254 , 219.94034662432 -315.719903159304 , 173.242394951118 -338.802729092355 , 126.544443277916 -327.580989632779 , 70.4867753905101 -282.949914098341 , 35.4467334241276 -238.318838563904 , 0.406691457745069 -217.707150949629 , 19.842656625586 -141.077476097127 , -20.2963838860797 -64.4478012446246 , -60.4354243977454 -133.954481373248 , -24.027438771149 -66.8669675667134 , -59.1682336287885 0.220546239821715 , -94.309028486428 2.34812303199983 , -128.147892076164 60.1013079901624 , -145.659509747691 117.854492948325 , -163.171127419218 190.291509274559 , -139.916058085271 217.741358522128 , -70.1809711350099 245.191207769698 , -0.445884184748365 206.398520198773 , 22.1652757073406 219.819667084281 , 124.962185990964 233.240813969789 , 227.759096274587 274.380987280545 , 237.598788345324 284.799362455232 , 311.548298634578 295.217737629919 , 385.497808923833 270.726292125599 , 443.773446710014 226.405782717917 , 483.517784678346 182.085273310236 , 523.262122646677 72.5024249913747 , 552.197665233207 0 , 552.197665233207 -72.5024249913747 , 552.197665233207 -106.131690066009 , 577.363088315808 -183.027831278722 , 535.857036686419 -259.923972491436 , 494.350985057031 -300.123778644958 , 406.227862289492 -291.623479595619 , 316.894291160245 -283.12318054628 , 227.560720030997 -248.509322515608 , 227.713244994356 -226.920367307498 , 121.99980789741 -205.331412099387 , 16.2863708004643 -245.191207769698 , -0.445884184748366 -217.741358522128 , -70.1809711350099 Z "
       id="path3969"
       inkscape:connector-curvature="0"
       sodipodi:nodetypes="zzzzzzzzzzzzzzzzzzzzzzzzzzzzz" />
  </g>
</svg>
