<?xml version="1.0" encoding="UTF-8" standalone="no"?>
<!-- Created with Inkscape (http://www.inkscape.org/) -->

<svg
   xmlns:dc="http://purl.org/dc/elements/1.1/"
   xmlns:cc="http://creativecommons.org/ns#"
   xmlns:rdf="http://www.w3.org/1999/02/22-rdf-syntax-ns#"
   xmlns:svg="http://www.w3.org/2000/svg"
   xmlns="http://www.w3.org/2000/svg"
   xmlns:sodipodi="http://sodipodi.sourceforge.net/DTD/sodipodi-0.dtd"
   xmlns:inkscape="http://www.inkscape.org/namespaces/inkscape"
   width="210mm"
   height="297mm"
   viewBox="0 0 744.09448819 1052.3622047"
   id="svg2"
   version="1.1"
   inkscape:version="0.91 r13725"
   sodipodi:docname="10_61.svg">
  <defs
     id="defs4" />
  <sodipodi:namedview
     id="base"
     pagecolor="#ffffff"
     bordercolor="#666666"
     borderopacity="1.0"
     inkscape:pageopacity="0.0"
     inkscape:pageshadow="2"
     inkscape:zoom="1.2901558"
     inkscape:cx="-56.954456"
     inkscape:cy="920.43994"
     inkscape:document-units="px"
     inkscape:current-layer="layer1"
     showgrid="false"
     inkscape:window-width="2560"
     inkscape:window-height="1315"
     inkscape:window-x="261"
     inkscape:window-y="107"
     inkscape:window-maximized="0" />
  <metadata
     id="metadata7">
    <rdf:RDF>
      <cc:Work
         rdf:about="">
        <dc:format>image/svg+xml</dc:format>
        <dc:type
           rdf:resource="http://purl.org/dc/dcmitype/StillImage" />
        <dc:title />
      </cc:Work>
    </rdf:RDF>
  </metadata>
  <g
     inkscape:label="Layer 1"
     inkscape:groupmode="layer"
     id="layer1">
    <path
       style="fill:none;fill-rule:evenodd;stroke:#000000;stroke-width:2.80206943px;stroke-linecap:butt;stroke-linejoin:miter;stroke-opacity:1"
       d="M  76.9166702125447 , -283.81709449692 C  156.227589686983 , -301.206818338929 218.605642035397 , -252.570338731354 237.917473336194 , -194.941641240029 257.229304636992 , -137.312943748704 234.780572072617 , -98.8243313368556 209.836051509765 , -36.5955357765624 184.891530946914 , 25.6332597837308 152.836392317698 , 92.2891484530215 76.3803572502171 , 89.1694467609841 -0.0756778172637382 , 86.0497450689468 6.8180172218686 , 37.998802225707 -66.2839741898543 , 17.096731804685 -139.385965601577 , -3.8053386163369 -187.069110869102 , 40.2476925294671 -234.389619778725 , 81.8487871877544 -281.710128688348 , 123.449881846042 -318.618710777927 , 149.995591737518 -325.396330754193 , 206.482929322019 -332.173950730459 , 262.97026690652 -298.181389866477 , 328.380221483735 -222.196615280671 , 343.028668176048 -146.211840694864 , 357.67711486836 -132.205284454015 , 309.957828764893 0 , 309.957828764893 132.205284454015 , 309.957828764893 146.211840694864 , 357.67711486836 222.196615280671 , 343.028668176048 298.181389866477 , 328.380221483735 332.173950730459 , 262.97026690652 325.396330754193 , 206.482929322019 318.618710777927 , 149.995591737519 281.710128688348 , 123.449881846042 234.389619778725 , 81.8487871877544 187.069110869102 , 40.2476925294671 139.385965601577 , -3.8053386163369 66.2839741898543 , 17.096731804685 -6.81801722186862 , 37.998802225707 0.0756778172637466 , 86.0497450689468 -76.3803572502171 , 89.1694467609841 -152.836392317698 , 92.2891484530215 -184.891530946914 , 25.6332597837308 -209.836051509765 , -36.5955357765624 -234.780572072617 , -98.8243313368556 -257.229304636992 , -137.312943748704 -237.917473336194 , -194.941641240029 -218.605642035397 , -252.570338731354 -156.227589686983 , -301.206818338929 -76.9166702125447 , -283.81709449692 2.39424926189375 , -266.427370654911 -5.01841981150292 , -221.796513862843 107.720561117278 , -159.925055570924 220.459542046059 , -98.053597279005 251.222385702672 , -108.589162449059 290.464493046196 , -68.8449163886992 329.70660038972 , -29.1006703283393 339.653567992173 , 23.3246714621226 320.630188183176 , 74.2539738231605 301.60680837418 , 125.183276184198 269.00356223924 , 132.34356632602 201.252233853743 , 225.970719901399 133.500905468245 , 319.597873476777 150.43414078793 , 347.896771563377 105.880156801583 , 392.475246626234 61.3261728152349 , 437.053721689092 9.74026035910958 , 437.408969912265 0 , 437.408969912265 -9.74026035910958 , 437.408969912265 -61.3261728152349 , 437.053721689092 -105.880156801583 , 392.475246626234 -150.43414078793 , 347.896771563377 -133.500905468245 , 319.597873476777 -201.252233853743 , 225.970719901399 -269.00356223924 , 132.34356632602 -301.60680837418 , 125.183276184198 -320.630188183176 , 74.2539738231605 -339.653567992173 , 23.3246714621226 -329.70660038972 , -29.1006703283393 -290.464493046196 , -68.8449163886992 -251.222385702672 , -108.589162449059 -220.459542046059 , -98.053597279005 -107.720561117278 , -159.925055570924 5.01841981150292 , -221.796513862843 -2.39424926189375 , -266.427370654911 76.9166702125447 , -283.81709449692 Z "
       id="path3398"
       inkscape:connector-curvature="0"
       sodipodi:nodetypes="zzzzzzzzzzzzzzzzzzzzzzzzzzzzz" />
  </g>
</svg>
