<?xml version="1.0" encoding="UTF-8" standalone="no"?>
<!-- Created with Inkscape (http://www.inkscape.org/) -->

<svg
   xmlns:dc="http://purl.org/dc/elements/1.1/"
   xmlns:cc="http://creativecommons.org/ns#"
   xmlns:rdf="http://www.w3.org/1999/02/22-rdf-syntax-ns#"
   xmlns:svg="http://www.w3.org/2000/svg"
   xmlns="http://www.w3.org/2000/svg"
   xmlns:sodipodi="http://sodipodi.sourceforge.net/DTD/sodipodi-0.dtd"
   xmlns:inkscape="http://www.inkscape.org/namespaces/inkscape"
   width="210mm"
   height="297mm"
   viewBox="0 0 744.09448819 1052.3622047"
   id="svg2"
   version="1.1"
   inkscape:version="0.91 r13725"
   sodipodi:docname="10_75.svg">
  <defs
     id="defs4" />
  <sodipodi:namedview
     id="base"
     pagecolor="#ffffff"
     bordercolor="#666666"
     borderopacity="1.0"
     inkscape:pageopacity="0.0"
     inkscape:pageshadow="2"
     inkscape:zoom="1.5982422"
     inkscape:cx="375"
     inkscape:cy="1146.3576"
     inkscape:document-units="px"
     inkscape:current-layer="layer1"
     showgrid="false"
     inkscape:window-width="2560"
     inkscape:window-height="1315"
     inkscape:window-x="1346"
     inkscape:window-y="174"
     inkscape:window-maximized="0" />
  <metadata
     id="metadata7">
    <rdf:RDF>
      <cc:Work
         rdf:about="">
        <dc:format>image/svg+xml</dc:format>
        <dc:type
           rdf:resource="http://purl.org/dc/dcmitype/StillImage" />
        <dc:title></dc:title>
      </cc:Work>
    </rdf:RDF>
  </metadata>
  <g
     inkscape:label="Layer 1"
     inkscape:groupmode="layer"
     id="layer1">
    <path
       style="fill:none;fill-rule:evenodd;stroke:#000000;stroke-width:2.84115171px;stroke-linecap:butt;stroke-linejoin:miter;stroke-opacity:1"
       d="M 240.00871,-223.02575 C 390.22194,-63.144968 249.9454,55.446522 202.67758,54.291224 155.40973,53.135926 46.944937,8.3934132 46.242376,-25.704072 45.539789,-59.801559 101.99444,-73.388513 202.67758,-75.47892 303.36074,-77.569326 429.23336,47.12925 250.67475,216.05942 72.116149,384.98956 -80.092333,333.31234 -76.417077,224.94779 -72.741818,116.58322 -69.177594,91.360244 -17.753856,89.844659 33.669882,88.329075 92.461863,114.7321 55.130721,233.83615 17.799578,352.94021 -184.03222,324.89118 -280.84944,187.61668 -377.66666,50.342167 -288.83209,-81.507332 -216.85321,-87.922625 -144.87434,-94.337888 -74.184953,-40.253354 -72.861716,-25.704072 -71.538478,-11.154791 -138.63563,59.624237 -232.85228,47.180533 -327.06893,34.736828 -374.83389,-117.12125 -248.85131,-233.6918 -122.86874,-350.26236 41.630192,-205.99469 94.239515,-148.3635 146.84883,-90.732297 131.85518,-62.478206 131.57065,-16.8157 131.28614,28.846808 119.7925,82.380243 92.461863,114.7321 65.131233,147.08395 33.113244,170.49476 -12.420844,166.2846 -57.954931,162.07443 -116.70043,110.04121 -138.63563,72.067942 -160.57082,34.094671 -159.30215,9.0533561 -151.07934,-32.814766 -142.85653,-74.682887 -142.32041,-118.23538 -78.194727,-164.36255 -14.069053,-210.48973 89.795471,-382.90655 240.00871,-223.02575 Z"
       id="path3401"
       inkscape:connector-curvature="0"
       sodipodi:nodetypes="zzzzzzzzzzzzzzzzzzzzz" />
  </g>
</svg>
