<?xml version="1.0" encoding="UTF-8" standalone="no"?>
<!-- Created with Inkscape (http://www.inkscape.org/) -->

<svg
   xmlns:dc="http://purl.org/dc/elements/1.1/"
   xmlns:cc="http://creativecommons.org/ns#"
   xmlns:rdf="http://www.w3.org/1999/02/22-rdf-syntax-ns#"
   xmlns:svg="http://www.w3.org/2000/svg"
   xmlns="http://www.w3.org/2000/svg"
   xmlns:sodipodi="http://sodipodi.sourceforge.net/DTD/sodipodi-0.dtd"
   xmlns:inkscape="http://www.inkscape.org/namespaces/inkscape"
   width="744.09448819"
   height="1052.3622047"
   id="svg2"
   version="1.1"
   inkscape:version="0.91 r13725"
   sodipodi:docname="11_9.svg">
  <defs
     id="defs4" />
  <sodipodi:namedview
     id="base"
     pagecolor="#ffffff"
     bordercolor="#666666"
     borderopacity="1.0"
     inkscape:pageopacity="0.0"
     inkscape:pageshadow="2"
     inkscape:zoom="0.66347305"
     inkscape:cx="117.76159"
     inkscape:cy="1034.2857"
     inkscape:document-units="px"
     inkscape:current-layer="layer1"
     showgrid="false"
     inkscape:window-width="1666"
     inkscape:window-height="1254"
     inkscape:window-x="728"
     inkscape:window-y="46"
     inkscape:window-maximized="0" />
  <metadata
     id="metadata7">
    <rdf:RDF>
      <cc:Work
         rdf:about="">
        <dc:format>image/svg+xml</dc:format>
        <dc:type
           rdf:resource="http://purl.org/dc/dcmitype/StillImage" />
        <dc:title />
      </cc:Work>
    </rdf:RDF>
  </metadata>
  <g
     inkscape:label="Layer 1"
     inkscape:groupmode="layer"
     id="layer1">
    <path
       style="fill:none;stroke:#000000;stroke-width:3.89826655;stroke-linecap:butt;stroke-linejoin:miter;stroke-miterlimit:4;stroke-dasharray:none;stroke-opacity:1"
       d="M -254.0074,10.523267 C -306.13104,-50.616463 -284.22285,-131.22912 -254.0074,-171.28664 -223.79195,-211.34416 -169.36293,-174.18469 -139.35251,-204.04519 -109.34209,-233.90569 -141.49549,-320.22084 -101.68019,-333.44142 -61.864891,-346.662 -52.707707,-285.06152 -8.3183474,-263.01056 36.071013,-240.9596 118.42223,-243.81601 165.30193,-213.87274 212.18163,-183.92947 256.76944,-170.50629 265.21548,-97.579923 273.66152,-24.653559 194.38731,99.944384 174.92014,127.6166 155.45297,155.28881 125.50487,195.80185 62.149442,201.53264 -1.2059863,207.26344 -30.239461,165.21509 -41.076883,130.09195 -51.914305,94.968811 -58.575021,3.7846107 0.38860659,-1.3240219 59.352234,-6.4326545 121.9736,4.2100577 151.74288,27.666124 181.51216,51.12219 243.25473,117.14004 257.02585,167.76427 270.79697,218.3885 237.0831,258.13927 183.31913,282.4191 129.55516,306.69893 50.39196,259.1293 29.353979,216.9021 8.3159976,174.6749 8.9148976,147.10325 30.400761,124.4515 51.886624,101.79975 80.398302,107.72707 99.193703,129.36528 117.9891,151.0035 119.52309,180.22274 83.166043,232.5767 46.808996,284.93065 -74.971981,391.83155 -126.24909,338.10865 -177.5262,284.38575 -160.15669,258.33249 -157.3697,177.59181 -154.58271,96.851128 -149.92394,78.928046 -158.27403,-38.782773 -166.62412,-156.49359 -217.92541,-183.86134 -206.50752,-249.90714 -195.08963,-315.95294 -113.32071,-234.77882 -70.559571,-254.82092 -27.798432,-274.86302 -61.622341,-396.94378 27.716054,-364.56204 117.05445,-332.1803 132.79052,-21.749767 42.4574,58.023147 -47.875723,137.79606 -201.88376,71.662997 -254.0074,10.523267 Z"
       id="path2987"
       inkscape:connector-curvature="0"
       sodipodi:nodetypes="zzzzzzzzzzzzzzzzzzzzzzzzzz" />
  </g>
</svg>
