<?xml version="1.0" encoding="UTF-8" standalone="no"?>
<!-- Created with Inkscape (http://www.inkscape.org/) -->

<svg
   xmlns:dc="http://purl.org/dc/elements/1.1/"
   xmlns:cc="http://creativecommons.org/ns#"
   xmlns:rdf="http://www.w3.org/1999/02/22-rdf-syntax-ns#"
   xmlns:svg="http://www.w3.org/2000/svg"
   xmlns="http://www.w3.org/2000/svg"
   xmlns:sodipodi="http://sodipodi.sourceforge.net/DTD/sodipodi-0.dtd"
   xmlns:inkscape="http://www.inkscape.org/namespaces/inkscape"
   width="210mm"
   height="297mm"
   viewBox="0 0 210 297"
   version="1.1"
   id="svg8"
   inkscape:version="0.92.2 5c3e80d, 2017-08-06"
   sodipodi:docname="12a1202.svg">
  <defs
     id="defs2" />
  <sodipodi:namedview
     id="base"
     pagecolor="#ffffff"
     bordercolor="#666666"
     borderopacity="1.0"
     inkscape:pageopacity="0.0"
     inkscape:pageshadow="2"
     inkscape:zoom="0.79160156"
     inkscape:cx="882.51143"
     inkscape:cy="499.32835"
     inkscape:document-units="mm"
     inkscape:current-layer="layer1"
     showgrid="false"
     inkscape:window-width="2560"
     inkscape:window-height="1315"
     inkscape:window-x="685"
     inkscape:window-y="0"
     inkscape:window-maximized="0" />
  <metadata
     id="metadata5">
    <rdf:RDF>
      <cc:Work
         rdf:about="">
        <dc:format>image/svg+xml</dc:format>
        <dc:type
           rdf:resource="http://purl.org/dc/dcmitype/StillImage" />
        <dc:title></dc:title>
      </cc:Work>
    </rdf:RDF>
  </metadata>
  <g
     inkscape:label="Layer 1"
     inkscape:groupmode="layer"
     id="layer1">
    <path
       style="fill:none;fill-rule:evenodd;stroke:#f40000;stroke-width:4.01124668px;stroke-linecap:butt;stroke-linejoin:miter;stroke-opacity:1"
       d="M 74.583051,-217.40378 C 123.21569,-231.03595 198.46689,-247.29698 245.60289,-220.57082 292.73889,-193.84466 318.54336,-134.84606 322.24514,-86.921968 325.94692,-38.997872 315.15237,28.307116 274.10621,38.492592 233.06004,48.678068 220.69628,-46.73426 184.16244,-40.049856 147.6286,-33.365452 161.10746,29.022236 135.39011,51.160733 109.67276,73.29923 67.721291,100.18723 41.012484,84.731295 14.303677,69.275364 27.421755,30.373729 25.81072,1.1215871 24.199685,-28.130555 7.4471705,-72.126883 32.144787,-89.455591 56.842403,-106.7843 90.983394,-85.761617 118.92154,-64.752725 146.85969,-43.743833 144.63474,30.182619 182.26221,36.592373 219.88968,43.002127 216.66237,-49.067542 267.77215,-31.815568 318.88193,-14.563594 350.54579,117.94845 319.71151,175.94188 288.87723,233.93531 199.23011,235.29727 150.59188,237.38234 101.95365,239.46741 75.205569,224.70879 42.279298,208.24565 9.353027,191.78251 -16.102046,167.14042 -47.325988,132.63923 -78.549931,98.138043 -109.35877,67.792485 -90.102733,41.026218 -70.846698,14.259951 -50.24103,29.157843 0.47444578,21.390608 51.189921,13.623373 71.455588,23.204971 81.628927,43.208703 91.802266,63.212435 80.413377,96.900617 56.847655,125.26933 33.281933,153.63804 -29.208837,211.183 -82.501855,229.78146 -135.79487,248.37992 -196.76046,264.73567 -244.65401,238.64917 -292.54756,212.56267 -320.8597,144.73771 -326.36348,95.499208 -331.86726,46.260706 -327.8419,-17.618445 -287.72568,-31.182161 -247.60946,-44.745877 -237.93981,39.759407 -188.91419,39.759407 -139.88857,39.759407 -140.70472,-28.174757 -122.11956,-60.609881 -103.5344,-93.045005 -91.207248,-96.154545 -59.065798,-88.188778 -26.924348,-80.223011 -31.510525,-24.810006 -30.562488,1.7549948 -29.61445,28.319996 -23.463499,51.70024 -45.764256,65.09568 -68.065013,78.49112 -106.87878,60.361415 -133.80781,42.293033 -160.73684,24.224651 -160.56714,-38.078794 -195.88168,-40.683265 -231.19622,-43.287735 -231.25895,44.509724 -273.15731,35.958964 -315.05567,27.408204 -337.7909,-46.568568 -328.89712,-100.85691 -320.00334,-155.14525 -264.24929,-220.31114 -209.81664,-238.93961 -155.38399,-257.56808 -92.295127,-223.37802 -50.198099,-206.63587 -8.1010706,-189.89372 20.902836,-181.81569 42.279298,-148.99584 63.65576,-116.17599 99.982062,-61.67192 79.016897,-37.516232 58.051732,-13.360543 17.187923,-21.794156 -5.859623,-24.214687 -28.907169,-26.635218 -61.718561,-11.742477 -77.434601,-39.416451 -93.150641,-67.090425 -65.78819,-118.67468 -39.430186,-150.89606 -13.072181,-183.11744 25.950415,-203.77161 74.583051,-217.40378 Z"
       id="path882"
       inkscape:connector-curvature="0"
       sodipodi:nodetypes="zzzzzzzzzzzzzzzzzzzzzzzzzzzzzzzzzzzzzzzzz" />
  </g>
</svg>
