<?xml version="1.0" encoding="UTF-8" standalone="no"?>
<!-- Created with Inkscape (http://www.inkscape.org/) -->

<svg
   xmlns:dc="http://purl.org/dc/elements/1.1/"
   xmlns:cc="http://creativecommons.org/ns#"
   xmlns:rdf="http://www.w3.org/1999/02/22-rdf-syntax-ns#"
   xmlns:svg="http://www.w3.org/2000/svg"
   xmlns="http://www.w3.org/2000/svg"
   xmlns:sodipodi="http://sodipodi.sourceforge.net/DTD/sodipodi-0.dtd"
   xmlns:inkscape="http://www.inkscape.org/namespaces/inkscape"
   width="210mm"
   height="297mm"
   viewBox="0 0 210 297"
   version="1.1"
   id="svg8"
   inkscape:version="0.92.2 5c3e80d, 2017-08-06"
   sodipodi:docname="12a1202.svg">
  <defs
     id="defs2" />
  <sodipodi:namedview
     id="base"
     pagecolor="#ffffff"
     bordercolor="#666666"
     borderopacity="1.0"
     inkscape:pageopacity="0.0"
     inkscape:pageshadow="2"
     inkscape:zoom="0.79160156"
     inkscape:cx="882.51143"
     inkscape:cy="499.32835"
     inkscape:document-units="mm"
     inkscape:current-layer="layer1"
     showgrid="false"
     inkscape:window-width="2560"
     inkscape:window-height="1315"
     inkscape:window-x="685"
     inkscape:window-y="0"
     inkscape:window-maximized="0" />
  <metadata
     id="metadata5">
    <rdf:RDF>
      <cc:Work
         rdf:about="">
        <dc:format>image/svg+xml</dc:format>
        <dc:type
           rdf:resource="http://purl.org/dc/dcmitype/StillImage" />
        <dc:title></dc:title>
      </cc:Work>
    </rdf:RDF>
  </metadata>
  <g
     inkscape:label="Layer 1"
     inkscape:groupmode="layer"
     id="layer1">
    <path
       style="fill:none;fill-rule:evenodd;stroke:#f40000;stroke-width:4.01124668px;stroke-linecap:butt;stroke-linejoin:miter;stroke-opacity:1"
       d="M  83.9975344602589 , -265.322107702176 C  152.516089490477 , -273.408894744613 223.593397164938 , -246.088589697606 244.015195072015 , -238.069996659202 264.436992979091 , -230.051403620798 376.401872883487 , -184.973467115934 415.918479933696 , -105.655500088318 455.435086983905 , -26.3375330607031 404.127205071163 , 22.4863758479944 360.907816285601 , 19.2138440853938 317.688427500039 , 15.9413123227932 318.65870762742 , -19.8274322539101 266.281233900337 , -20.9122473574746 213.903760173254 , -21.9970624610392 197.037734394074 , 31.6889538355277 154.997181290823 , 69.8550800839466 112.956628187572 , 108.021206332366 73.1422283296825 , 101.163865952965 52.0950304453069 , 79.5768018526521 31.0478325609313 , 57.9897377523397 35.2072930461854 , 35.0017335909381 35.2303571353604 , -0.647690955180842 35.2534212245354 , -36.2971155012998 31.0478325609313 , -57.9897377523397 52.0950304453069 , -79.5768018526521 73.1422283296825 , -101.163865952965 112.956628187572 , -108.021206332366 154.997181290823 , -69.8550800839466 197.037734394074 , -31.6889538355277 213.903760173254 , 21.9970624610392 266.281233900337 , 20.9122473574746 318.65870762742 , 19.8274322539101 317.688427500039 , -15.9413123227932 360.907816285601 , -19.2138440853938 404.127205071163 , -22.4863758479944 455.435086983905 , 26.3375330607031 415.918479933696 , 105.655500088318 376.401872883487 , 184.973467115934 264.436992979091 , 230.051403620798 244.015195072015 , 238.069996659202 223.593397164938 , 246.088589697606 152.516089490477 , 273.408894744613 83.9975344602589 , 265.322107702176 15.4789794300409 , 257.235320659739 7.66873606422297 , 234.40473292447 -51.8420657049057 , 179.070246760874 -111.352867474034 , 123.735760597277 -99.5624936226433 , 75.8497945589416 -77.991231919452 , 54.1808055761695 -56.4199702162608 , 32.5118165933973 -34.0691531021283 , 36.3952852198712 0 , 36.3952852198712 34.0691531021283 , 36.3952852198712 56.4199702162608 , 32.5118165933973 77.991231919452 , 54.1808055761695 99.5624936226433 , 75.8497945589416 111.352867474034 , 123.735760597277 51.8420657049057 , 179.070246760874 -7.66873606422297 , 234.40473292447 -15.4789794300409 , 257.235320659739 -83.9975344602589 , 265.322107702176 -152.516089490477 , 273.408894744613 -223.593397164938 , 246.088589697606 -244.015195072015 , 238.069996659202 -264.436992979091 , 230.051403620798 -376.401872883487 , 184.973467115934 -415.918479933696 , 105.655500088318 -455.435086983905 , 26.3375330607031 -404.127205071163 , -22.4863758479944 -360.907816285601 , -19.2138440853938 -317.688427500039 , -15.9413123227932 -318.65870762742 , 19.8274322539101 -266.281233900337 , 20.9122473574746 -213.903760173254 , 21.9970624610392 -197.037734394074 , -31.6889538355277 -154.997181290823 , -69.8550800839466 -112.956628187572 , -108.021206332366 -73.1422283296825 , -101.163865952965 -52.0950304453069 , -79.5768018526521 -31.0478325609313 , -57.9897377523397 -35.2534212245354 , -36.2971155012998 -35.2303571353604 , -0.647690955180842 -35.2072930461854 , 35.0017335909381 -31.0478325609313 , 57.9897377523397 -52.0950304453069 , 79.5768018526521 -73.1422283296825 , 101.163865952965 -112.956628187572 , 108.021206332366 -154.997181290823 , 69.8550800839466 -197.037734394074 , 31.6889538355277 -213.903760173254 , -21.9970624610392 -266.281233900337 , -20.9122473574746 -318.65870762742 , -19.8274322539101 -317.688427500039 , 15.9413123227932 -360.907816285601 , 19.2138440853938 -404.127205071163 , 22.4863758479944 -455.435086983905 , -26.3375330607031 -415.918479933696 , -105.655500088318 -376.401872883487 , -184.973467115934 -264.436992979091 , -230.051403620798 -244.015195072015 , -238.069996659202 -223.593397164938 , -246.088589697606 -152.516089490477 , -273.408894744613 -83.9975344602589 , -265.322107702176 -15.4789794300409 , -257.235320659739 -7.66873606422297 , -234.40473292447 51.8420657049057 , -179.070246760874 111.352867474034 , -123.735760597277 99.5624936226433 , -75.8497945589416 77.991231919452 , -54.1808055761695 56.4199702162608 , -32.5118165933973 34.0691531021283 , -36.3952852198712 0 , -36.3952852198712 -34.0691531021283 , -36.3952852198712 -56.4199702162608 , -32.5118165933973 -77.991231919452 , -54.1808055761695 -99.5624936226433 , -75.8497945589416 -111.352867474034 , -123.735760597277 -51.8420657049057 , -179.070246760874 7.66873606422297 , -234.40473292447 15.4789794300409 , -257.235320659739 83.9975344602589 , -265.322107702176 Z "
       id="path882"
       inkscape:connector-curvature="0"
       sodipodi:nodetypes="zzzzzzzzzzzzzzzzzzzzzzzzzzzzzzzzzzzzzzzzz" />
  </g>
</svg>
