<?xml version="1.0" encoding="UTF-8" standalone="no"?>
<!-- Created with Inkscape (http://www.inkscape.org/) -->

<svg
   xmlns:dc="http://purl.org/dc/elements/1.1/"
   xmlns:cc="http://creativecommons.org/ns#"
   xmlns:rdf="http://www.w3.org/1999/02/22-rdf-syntax-ns#"
   xmlns:svg="http://www.w3.org/2000/svg"
   xmlns="http://www.w3.org/2000/svg"
   xmlns:sodipodi="http://sodipodi.sourceforge.net/DTD/sodipodi-0.dtd"
   xmlns:inkscape="http://www.inkscape.org/namespaces/inkscape"
   width="210mm"
   height="297mm"
   viewBox="0 0 210 297"
   version="1.1"
   id="svg8"
   inkscape:version="0.92.2 5c3e80d, 2017-08-06"
   sodipodi:docname="12a1202.svg">
  <defs
     id="defs2" />
  <sodipodi:namedview
     id="base"
     pagecolor="#ffffff"
     bordercolor="#666666"
     borderopacity="1.0"
     inkscape:pageopacity="0.0"
     inkscape:pageshadow="2"
     inkscape:zoom="0.79160156"
     inkscape:cx="882.51143"
     inkscape:cy="499.32835"
     inkscape:document-units="mm"
     inkscape:current-layer="layer1"
     showgrid="false"
     inkscape:window-width="2560"
     inkscape:window-height="1315"
     inkscape:window-x="685"
     inkscape:window-y="0"
     inkscape:window-maximized="0" />
  <metadata
     id="metadata5">
    <rdf:RDF>
      <cc:Work
         rdf:about="">
        <dc:format>image/svg+xml</dc:format>
        <dc:type
           rdf:resource="http://purl.org/dc/dcmitype/StillImage" />
        <dc:title></dc:title>
      </cc:Work>
    </rdf:RDF>
  </metadata>
  <g
     inkscape:label="Layer 1"
     inkscape:groupmode="layer"
     id="layer1">
    <path
       style="fill:none;fill-rule:evenodd;stroke:#f40000;stroke-width:4.01124668px;stroke-linecap:butt;stroke-linejoin:miter;stroke-opacity:1"
       d="M  47.2076551119217 , -245.563740120355 C  83.7555945931228 , -256.678636642377 144.309057419216 , -252.903888839574 207.699318448062 , -236.732108805589 271.089579476908 , -220.560328771604 357.36797369822 , -202.620703989367 377.738199748164 , -110.651940929159 398.108425798108 , -18.6831778689512 344.00982636335 , 24.5108130694727 308.372765028834 , 20.2466913602603 272.735703694318 , 15.9825696510479 269.839416336205 , -24.5784322595042 213.411257449442 , -16.5313319538208 156.983098562679 , -8.48423164813739 165.902410072579 , 38.1745862940218 130.782336921783 , 78.415687433001 95.662263770987 , 118.65678857198 56.9690936884069 , 101.489534528655 41.3473860824463 , 81.7778989177261 25.7256784764857 , 62.0662633067972 29.9069517389754 , 42.1269272158786 28.6505419219896 , 3.75324836139951 27.3941321050038 , -34.6204304930796 25.7256784764857 , -62.0662633067972 41.3473860824463 , -81.7778989177261 56.9690936884069 , -101.489534528655 95.662263770987 , -118.65678857198 130.782336921783 , -78.415687433001 165.902410072579 , -38.1745862940218 156.983098562679 , 8.48423164813739 213.411257449442 , 16.5313319538208 269.839416336205 , 24.5784322595042 272.735703694318 , -15.9825696510479 308.372765028834 , -20.2466913602603 344.00982636335 , -24.5108130694727 398.108425798108 , 18.6831778689512 377.738199748164 , 110.651940929159 357.36797369822 , 202.620703989367 271.089579476908 , 220.560328771604 207.699318448062 , 236.732108805589 144.309057419216 , 252.903888839574 83.7555945931228 , 256.678636642377 47.2076551119217 , 245.563740120355 10.6597156307206 , 234.448843598333 6.1321305441696 , 223.421302506163 -48.4316929600307 , 172.322117528696 -102.995516464231 , 121.222932551229 -86.2129849345095 , 76.1689604014344 -66.1778664780698 , 57.8012445818319 -46.1427480216301 , 39.4335287622294 -32.0694760697933 , 42.026002003348 0 , 42.026002003348 32.0694760697933 , 42.026002003348 46.1427480216301 , 39.4335287622294 66.1778664780698 , 57.8012445818319 86.2129849345095 , 76.1689604014344 102.995516464231 , 121.222932551229 48.4316929600307 , 172.322117528696 -6.1321305441696 , 223.421302506163 -10.6597156307206 , 234.448843598333 -47.2076551119217 , 245.563740120355 -83.7555945931228 , 256.678636642377 -144.309057419216 , 252.903888839574 -207.699318448062 , 236.732108805589 -271.089579476908 , 220.560328771604 -357.36797369822 , 202.620703989367 -377.738199748164 , 110.651940929159 -398.108425798108 , 18.6831778689512 -344.00982636335 , -24.5108130694727 -308.372765028834 , -20.2466913602603 -272.735703694318 , -15.9825696510479 -269.839416336205 , 24.5784322595042 -213.411257449442 , 16.5313319538208 -156.983098562679 , 8.48423164813739 -165.902410072579 , -38.1745862940218 -130.782336921783 , -78.415687433001 -95.662263770987 , -118.65678857198 -56.9690936884069 , -101.489534528655 -41.3473860824463 , -81.7778989177261 -25.7256784764857 , -62.0662633067972 -27.3941321050038 , -34.6204304930796 -28.6505419219896 , 3.75324836139951 -29.9069517389754 , 42.1269272158786 -25.7256784764857 , 62.0662633067972 -41.3473860824463 , 81.7778989177261 -56.9690936884069 , 101.489534528655 -95.662263770987 , 118.65678857198 -130.782336921783 , 78.415687433001 -165.902410072579 , 38.1745862940218 -156.983098562679 , -8.48423164813739 -213.411257449442 , -16.5313319538208 -269.839416336205 , -24.5784322595042 -272.735703694318 , 15.9825696510479 -308.372765028834 , 20.2466913602603 -344.00982636335 , 24.5108130694727 -398.108425798108 , -18.6831778689512 -377.738199748164 , -110.651940929159 -357.36797369822 , -202.620703989367 -271.089579476908 , -220.560328771604 -207.699318448062 , -236.732108805589 -144.309057419216 , -252.903888839574 -83.7555945931228 , -256.678636642377 -47.2076551119217 , -245.563740120355 -10.6597156307206 , -234.448843598333 -6.1321305441696 , -223.421302506163 48.4316929600307 , -172.322117528696 102.995516464231 , -121.222932551229 86.2129849345095 , -76.1689604014344 66.1778664780698 , -57.8012445818319 46.1427480216301 , -39.4335287622294 32.0694760697933 , -42.026002003348 0 , -42.026002003348 -32.0694760697933 , -42.026002003348 -46.1427480216301 , -39.4335287622294 -66.1778664780698 , -57.8012445818319 -86.2129849345095 , -76.1689604014344 -102.995516464231 , -121.222932551229 -48.4316929600307 , -172.322117528696 6.1321305441696 , -223.421302506163 10.6597156307206 , -234.448843598333 47.2076551119217 , -245.563740120355 Z "
       id="path882"
       inkscape:connector-curvature="0"
       sodipodi:nodetypes="zzzzzzzzzzzzzzzzzzzzzzzzzzzzzzzzzzzzzzzzz" />
  </g>
</svg>
