<?xml version="1.0" encoding="UTF-8" standalone="no"?>
<!-- Created with Inkscape (http://www.inkscape.org/) -->

<svg
   xmlns:dc="http://purl.org/dc/elements/1.1/"
   xmlns:cc="http://creativecommons.org/ns#"
   xmlns:rdf="http://www.w3.org/1999/02/22-rdf-syntax-ns#"
   xmlns:svg="http://www.w3.org/2000/svg"
   xmlns="http://www.w3.org/2000/svg"
   xmlns:sodipodi="http://sodipodi.sourceforge.net/DTD/sodipodi-0.dtd"
   xmlns:inkscape="http://www.inkscape.org/namespaces/inkscape"
   width="210mm"
   height="297mm"
   viewBox="0 0 210 297"
   version="1.1"
   id="svg8"
   inkscape:version="0.92.2 5c3e80d, 2017-08-06"
   sodipodi:docname="12a1202.svg">
  <defs
     id="defs2" />
  <sodipodi:namedview
     id="base"
     pagecolor="#ffffff"
     bordercolor="#666666"
     borderopacity="1.0"
     inkscape:pageopacity="0.0"
     inkscape:pageshadow="2"
     inkscape:zoom="0.79160156"
     inkscape:cx="882.51143"
     inkscape:cy="499.32835"
     inkscape:document-units="mm"
     inkscape:current-layer="layer1"
     showgrid="false"
     inkscape:window-width="2560"
     inkscape:window-height="1315"
     inkscape:window-x="685"
     inkscape:window-y="0"
     inkscape:window-maximized="0" />
  <metadata
     id="metadata5">
    <rdf:RDF>
      <cc:Work
         rdf:about="">
        <dc:format>image/svg+xml</dc:format>
        <dc:type
           rdf:resource="http://purl.org/dc/dcmitype/StillImage" />
        <dc:title></dc:title>
      </cc:Work>
    </rdf:RDF>
  </metadata>
  <g
     inkscape:label="Layer 1"
     inkscape:groupmode="layer"
     id="layer1">
    <path
       style="fill:none;fill-rule:evenodd;stroke:#f40000;stroke-width:4.01124668px;stroke-linecap:butt;stroke-linejoin:miter;stroke-opacity:1"
       d="M  83.6373900925972 , -265.293815614598 C  152.828754140989 , -273.476138243705 224.723624561161 , -245.833255584197 244.556477518761 , -237.971215402684 264.389330476361 , -230.10917522117 377.811435760323 , -184.167956461896 416.469958543661 , -105.165844536948 455.128481326999 , -26.1637326119992 403.935609196914 , 22.5683817114849 360.755495758648 , 19.2340838427692 317.575382320381 , 15.8997859740535 318.43187775248 , -19.7799755839754 266.257440117751 , -20.9081522949734 214.083002483022 , -22.0363290059714 197.035823372849 , 31.3692901174784 154.945887410884 , 69.6474703032869 112.855951448918 , 107.925650489095 72.8781648875139 , 101.105894779405 51.8894128068189 , 79.4485105042014 30.9006607261239 , 57.7911262289982 35.1935995528166 , 35.6660817588913 35.2008885838021 , 0.125167074119796 35.2081776147877 , -35.4157476106517 30.9006607261239 , -57.7911262289982 51.8894128068189 , -79.4485105042014 72.8781648875139 , -101.105894779405 112.855951448918 , -107.925650489095 154.945887410884 , -69.6474703032869 197.035823372849 , -31.3692901174784 214.083002483022 , 22.0363290059714 266.257440117751 , 20.9081522949734 318.43187775248 , 19.7799755839754 317.575382320381 , -15.8997859740535 360.755495758648 , -19.2340838427692 403.935609196914 , -22.5683817114849 455.128481326999 , 26.1637326119992 416.469958543661 , 105.165844536948 377.811435760323 , 184.167956461896 264.389330476361 , 230.10917522117 244.556477518761 , 237.971215402684 224.723624561161 , 245.833255584197 152.828754140989 , 273.476138243705 83.6373900925972 , 265.293815614598 14.4460260442056 , 257.111492985492 7.70493669274849 , 234.654488939514 -51.9075897185251 , 179.427759392709 -111.520116129799 , 124.201029845904 -99.7359334094714 , 76.0559785137121 -78.0884694298758 , 54.3273136558338 -56.4410054502802 , 32.5986487979555 -34.0763967034595 , 36.391951915683 0 , 36.391951915683 34.0763967034595 , 36.391951915683 56.4410054502802 , 32.5986487979555 78.0884694298758 , 54.3273136558338 99.7359334094714 , 76.0559785137121 111.520116129799 , 124.201029845904 51.9075897185251 , 179.427759392709 -7.70493669274849 , 234.654488939514 -14.4460260442056 , 257.111492985492 -83.6373900925972 , 265.293815614598 -152.828754140989 , 273.476138243705 -224.723624561161 , 245.833255584197 -244.556477518761 , 237.971215402684 -264.389330476361 , 230.10917522117 -377.811435760323 , 184.167956461896 -416.469958543661 , 105.165844536948 -455.128481326999 , 26.1637326119992 -403.935609196914 , -22.5683817114849 -360.755495758648 , -19.2340838427692 -317.575382320381 , -15.8997859740535 -318.43187775248 , 19.7799755839754 -266.257440117751 , 20.9081522949734 -214.083002483022 , 22.0363290059714 -197.035823372849 , -31.3692901174784 -154.945887410884 , -69.6474703032869 -112.855951448918 , -107.925650489095 -72.8781648875139 , -101.105894779405 -51.8894128068189 , -79.4485105042014 -30.9006607261239 , -57.7911262289982 -35.2081776147877 , -35.4157476106517 -35.2008885838021 , 0.125167074119796 -35.1935995528166 , 35.6660817588913 -30.9006607261239 , 57.7911262289982 -51.8894128068189 , 79.4485105042014 -72.8781648875139 , 101.105894779405 -112.855951448918 , 107.925650489095 -154.945887410884 , 69.6474703032869 -197.035823372849 , 31.3692901174784 -214.083002483022 , -22.0363290059714 -266.257440117751 , -20.9081522949734 -318.43187775248 , -19.7799755839754 -317.575382320381 , 15.8997859740535 -360.755495758648 , 19.2340838427692 -403.935609196914 , 22.5683817114849 -455.128481326999 , -26.1637326119991 -416.469958543661 , -105.165844536948 -377.811435760323 , -184.167956461896 -264.389330476361 , -230.10917522117 -244.556477518761 , -237.971215402684 -224.723624561161 , -245.833255584197 -152.828754140989 , -273.476138243705 -83.6373900925972 , -265.293815614598 -14.4460260442056 , -257.111492985492 -7.70493669274849 , -234.654488939514 51.9075897185251 , -179.427759392709 111.520116129799 , -124.201029845904 99.7359334094714 , -76.0559785137121 78.0884694298758 , -54.3273136558338 56.4410054502802 , -32.5986487979555 34.0763967034595 , -36.391951915683 0 , -36.391951915683 -34.0763967034595 , -36.391951915683 -56.4410054502802 , -32.5986487979555 -78.0884694298758 , -54.3273136558338 -99.7359334094714 , -76.0559785137121 -111.520116129799 , -124.201029845904 -51.9075897185251 , -179.427759392709 7.70493669274849 , -234.654488939514 14.4460260442056 , -257.111492985492 83.6373900925972 , -265.293815614598 Z "
       id="path882"
       inkscape:connector-curvature="0"
       sodipodi:nodetypes="zzzzzzzzzzzzzzzzzzzzzzzzzzzzzzzzzzzzzzzzz" />
  </g>
</svg>
