<?xml version="1.0" encoding="UTF-8" standalone="no"?>
<!-- Created with Inkscape (http://www.inkscape.org/) -->

<svg
   xmlns:dc="http://purl.org/dc/elements/1.1/"
   xmlns:cc="http://creativecommons.org/ns#"
   xmlns:rdf="http://www.w3.org/1999/02/22-rdf-syntax-ns#"
   xmlns:svg="http://www.w3.org/2000/svg"
   xmlns="http://www.w3.org/2000/svg"
   xmlns:sodipodi="http://sodipodi.sourceforge.net/DTD/sodipodi-0.dtd"
   xmlns:inkscape="http://www.inkscape.org/namespaces/inkscape"
   width="210mm"
   height="297mm"
   viewBox="0 0 744.09448819 1052.3622047"
   id="svg2"
   version="1.1"
   inkscape:version="0.91 r13725"
   sodipodi:docname="12n838.svg">
  <defs
     id="defs4" />
  <sodipodi:namedview
     id="base"
     pagecolor="#ffffff"
     bordercolor="#666666"
     borderopacity="1.0"
     inkscape:pageopacity="0.0"
     inkscape:pageshadow="2"
     inkscape:zoom="0.85814488"
     inkscape:cx="-108.00716"
     inkscape:cy="817.15103"
     inkscape:document-units="px"
     inkscape:current-layer="layer1"
     showgrid="false"
     inkscape:window-width="1301"
     inkscape:window-height="744"
     inkscape:window-x="65"
     inkscape:window-y="24"
     inkscape:window-maximized="1" />
  <metadata
     id="metadata7">
    <rdf:RDF>
      <cc:Work
         rdf:about="">
        <dc:format>image/svg+xml</dc:format>
        <dc:type
           rdf:resource="http://purl.org/dc/dcmitype/StillImage" />
        <dc:title />
      </cc:Work>
    </rdf:RDF>
  </metadata>
  <g
     inkscape:label="Layer 1"
     inkscape:groupmode="layer"
     id="layer1">
    <path
       style="fill:none;fill-rule:evenodd;stroke:#000000;stroke-width:1px;stroke-linecap:butt;stroke-linejoin:miter;stroke-opacity:1"
       d="M  0 , -70.4193561253081 C  11.7178172791399 , -70.4193561253081 61.0635034790823 , -69.1364090739702 99.2535567755507 , -25.5119463376017 137.443610072019 , 18.1125163987669 132.118448354965 , 65.3685305859809 130.383481772971 , 124.896709429443 128.648515190976 , 184.424888272905 124.974782245669 , 205.008821914266 116.422845600075 , 234.027165423413 107.870908954481 , 263.045508932561 89.5489321709909 , 309.747484556395 46.3042602719338 , 356.137020167133 3.05958837287675 , 402.526555777871 -26.9356449231894 , 416.406279743071 -29.5902780733905 , 468.242744906877 -32.2449112235915 , 520.079210070683 3.71736337796308 , 553.660013626488 54.6195557151868 , 581.959366913208 105.521748052411 , 610.258720199927 145.172923320034 , 630.703113358711 196.226916935748 , 613.095020661938 247.280910551461 , 595.486927965166 265.000913846706 , 552.74625943794 268.513004052679 , 543.854872133424 272.025094258652 , 534.963484828909 285.630542319577 , 498.311055176667 268.255542116441 , 453.286710233913 250.880541913305 , 408.26236529116 222.126614467964 , 392.367764913733 157.98350769854 , 349.477498953043 93.8404009291152 , 306.587232992353 89.7880585735275 , 307.438222568809 42.3491619422799 , 276.06962370226 -5.08973468896765 , 244.701024835711 -20.4802254638888 , 220.483861382331 -26.9686604797048 , 197.455339299162 -33.4570954955208 , 174.426817215993 -29.7464064920145 , 156.017530758295 -27.0128794944233 , 146.430524556524 -24.2793524968321 , 136.843518354753 -9.03163737793952 , 87.55917103087 61.3566150292492 , 67.1486691732144 131.744867436438 , 46.7381673155589 179.10280267082 , 50.0659508716383 221.336065805506 , 89.4843003257057 263.569328940192 , 128.902649779773 290.795769929741 , 200.950120376433 269.134389600181 , 291.718253345061 247.473009270622 , 382.48638631369 209.74224268718 , 388.61610994457 160.080156768169 , 495.305897173286 110.418070849157 , 601.995684402001 111.521873091613 , 628.767551286832 77.5351708855996 , 659.059513774772 43.5484686795859 , 689.351476262713 7.5529410929737 , 689.651684098971 0 , 689.651684098971 -7.5529410929737 , 689.651684098971 -43.5484686795859 , 689.351476262713 -77.5351708855996 , 659.059513774772 -111.521873091613 , 628.767551286832 -110.418070849157 , 601.995684402001 -160.080156768169 , 495.305897173286 -209.74224268718 , 388.61610994457 -247.473009270622 , 382.48638631369 -269.134389600181 , 291.718253345061 -290.795769929741 , 200.950120376433 -263.569328940192 , 128.902649779773 -221.336065805506 , 89.4843003257057 -179.10280267082 , 50.0659508716383 -131.744867436438 , 46.7381673155589 -61.3566150292492 , 67.1486691732144 9.03163737793952 , 87.55917103087 24.2793524968321 , 136.843518354753 27.0128794944233 , 146.430524556524 29.7464064920145 , 156.017530758295 33.4570954955208 , 174.426817215993 26.9686604797048 , 197.455339299162 20.4802254638888 , 220.483861382331 5.08973468896765 , 244.701024835711 -42.3491619422799 , 276.06962370226 -89.7880585735275 , 307.438222568809 -93.8404009291152 , 306.587232992353 -157.98350769854 , 349.477498953043 -222.126614467964 , 392.367764913733 -250.880541913305 , 408.26236529116 -268.255542116441 , 453.286710233913 -285.630542319577 , 498.311055176667 -272.025094258652 , 534.963484828909 -268.513004052679 , 543.854872133424 -265.000913846706 , 552.74625943794 -247.280910551461 , 595.486927965166 -196.226916935748 , 613.095020661938 -145.172923320034 , 630.703113358711 -105.521748052411 , 610.258720199927 -54.6195557151868 , 581.959366913208 -3.71736337796308 , 553.660013626488 32.2449112235915 , 520.079210070683 29.5902780733905 , 468.242744906877 26.9356449231894 , 416.406279743071 -3.05958837287674 , 402.526555777871 -46.3042602719338 , 356.137020167133 -89.5489321709909 , 309.747484556395 -107.870908954481 , 263.045508932561 -116.422845600075 , 234.027165423413 -124.974782245669 , 205.008821914266 -128.648515190976 , 184.424888272905 -130.383481772971 , 124.896709429443 -132.118448354965 , 65.3685305859809 -137.443610072019 , 18.1125163987669 -99.2535567755507 , -25.5119463376017 -61.0635034790823 , -69.1364090739702 -11.7178172791399 , -70.4193561253081 0 , -70.4193561253081 Z "
       id="path4201"
       inkscape:connector-curvature="0"
       sodipodi:nodetypes="zzzzzzzzzzzzzzzzzzzzzzzzzzzzzzzzzzzzzzz" />
  </g>
</svg>
