<?xml version="1.0" encoding="UTF-8" standalone="no"?>
<!-- Created with Inkscape (http://www.inkscape.org/) -->

<svg
   xmlns:dc="http://purl.org/dc/elements/1.1/"
   xmlns:cc="http://creativecommons.org/ns#"
   xmlns:rdf="http://www.w3.org/1999/02/22-rdf-syntax-ns#"
   xmlns:svg="http://www.w3.org/2000/svg"
   xmlns="http://www.w3.org/2000/svg"
   xmlns:sodipodi="http://sodipodi.sourceforge.net/DTD/sodipodi-0.dtd"
   xmlns:inkscape="http://www.inkscape.org/namespaces/inkscape"
   width="210mm"
   height="297mm"
   viewBox="0 0 744.09448819 1052.3622047"
   id="svg2"
   version="1.1"
   inkscape:version="0.91 r13725"
   sodipodi:docname="12n838.svg">
  <defs
     id="defs4" />
  <sodipodi:namedview
     id="base"
     pagecolor="#ffffff"
     bordercolor="#666666"
     borderopacity="1.0"
     inkscape:pageopacity="0.0"
     inkscape:pageshadow="2"
     inkscape:zoom="0.85814488"
     inkscape:cx="-61.394985"
     inkscape:cy="723.92668"
     inkscape:document-units="px"
     inkscape:current-layer="layer1"
     showgrid="false"
     inkscape:window-width="479"
     inkscape:window-height="373"
     inkscape:window-x="639"
     inkscape:window-y="308"
     inkscape:window-maximized="0" />
  <metadata
     id="metadata7">
    <rdf:RDF>
      <cc:Work
         rdf:about="">
        <dc:format>image/svg+xml</dc:format>
        <dc:type
           rdf:resource="http://purl.org/dc/dcmitype/StillImage" />
        <dc:title />
      </cc:Work>
    </rdf:RDF>
  </metadata>
  <g
     inkscape:label="Layer 1"
     inkscape:groupmode="layer"
     id="layer1">
    <path
       style="fill:none;fill-rule:evenodd;stroke:#000000;stroke-width:1px;stroke-linecap:butt;stroke-linejoin:miter;stroke-opacity:1"
       d="M 0,-6.2936507 C 33.430913,-6.2936507 82.287576,11.637554 98.673855,37.153388 115.06013,62.669221 119.07621,101.54545 123.00631,141.02953 126.93641,180.51362 128.83105,198.33949 124.88874,236.75726 120.94642,275.17502 85.529759,335.87716 55.990799,356.48086 26.451839,377.08455 -15.276142,398.34194 -24.409387,443.95242 -33.542631,489.56289 1.1491963,527.32352 47.370411,546.53176 93.591626,565.73999 143.08023,584.7416 183.26675,570.07593 223.45328,555.41025 239.58225,533.90818 247.986,517.14423 256.38975,500.38028 263.13856,474.09303 248.64951,443.9651 234.16046,413.83717 193.66532,381.62075 141.43553,351.23642 89.205751,320.8521 91.227404,314.01698 48.257656,293.07323 5.2879076,272.12947 -19.985074,239.43946 -27.720687,218.52489 -35.456299,197.61032 -35.107859,176.76148 -24.542695,153.99686 -13.97753,131.23223 11.113569,102.88429 56.593224,93.729509 102.07288,84.574729 156.59177,64.345258 200.33241,115.919 244.07305,167.49275 258.44141,209.25621 252.05324,270.69774 245.66507,332.13927 188.40735,393.54489 159.61057,446.99142 130.81379,500.43794 126.56158,586.77878 94.56482,627.56279 62.568064,668.34681 26.12444,675.10649 0,675.10649 -26.12444,675.10649 -62.568064,668.34681 -94.56482,627.56279 -126.56158,586.77878 -130.81379,500.43794 -159.61057,446.99142 -188.40735,393.54489 -245.66507,332.13927 -252.05324,270.69774 -258.44141,209.25621 -244.07305,167.49275 -200.33241,115.919 -156.59177,64.345258 -102.07288,84.574729 -56.593224,93.729509 -11.113569,102.88429 13.97753,131.23223 24.542695,153.99686 35.107859,176.76148 35.456299,197.61032 27.720687,218.52489 19.985074,239.43946 -5.2879076,272.12947 -48.257656,293.07323 -91.227404,314.01698 -89.205751,320.8521 -141.43553,351.23642 -193.66532,381.62075 -234.16046,413.83717 -248.64951,443.9651 -263.13856,474.09303 -256.38975,500.38028 -247.986,517.14423 -239.58225,533.90818 -223.45328,555.41025 -183.26675,570.07593 -143.08023,584.7416 -93.591626,565.73999 -47.370411,546.53176 -1.1491963,527.32352 33.542631,489.56289 24.409387,443.95242 15.276142,398.34194 -26.451839,377.08455 -55.990799,356.48086 -85.529759,335.87716 -120.93451,275.29105 -124.88874,236.75726 -128.84296,198.22346 -126.89164,179.46083 -122.90219,139.99154 -118.91275,100.52225 -115.01378,62.597036 -98.673855,37.153388 -82.333934,11.70974 -33.430913,-6.2936507 0,-6.2936507 Z"
       id="path4201"
       inkscape:connector-curvature="0"
       sodipodi:nodetypes="zzzzzzzzzzzzzzzzzzzzzzzzzzzzzzzzzzzzzzz" />
  </g>
</svg>
