<?xml version="1.0" encoding="UTF-8" standalone="no"?>
<!-- Created with Inkscape (http://www.inkscape.org/) -->

<svg
   xmlns:dc="http://purl.org/dc/elements/1.1/"
   xmlns:cc="http://creativecommons.org/ns#"
   xmlns:rdf="http://www.w3.org/1999/02/22-rdf-syntax-ns#"
   xmlns:svg="http://www.w3.org/2000/svg"
   xmlns="http://www.w3.org/2000/svg"
   xmlns:sodipodi="http://sodipodi.sourceforge.net/DTD/sodipodi-0.dtd"
   xmlns:inkscape="http://www.inkscape.org/namespaces/inkscape"
   width="210mm"
   height="297mm"
   viewBox="0 0 744.09448819 1052.3622047"
   id="svg2"
   version="1.1"
   inkscape:version="0.91 r13725"
   sodipodi:docname="12n838.svg">
  <defs
     id="defs4" />
  <sodipodi:namedview
     id="base"
     pagecolor="#ffffff"
     bordercolor="#666666"
     borderopacity="1.0"
     inkscape:pageopacity="0.0"
     inkscape:pageshadow="2"
     inkscape:zoom="0.85814488"
     inkscape:cx="-108.00716"
     inkscape:cy="817.15103"
     inkscape:document-units="px"
     inkscape:current-layer="layer1"
     showgrid="false"
     inkscape:window-width="1301"
     inkscape:window-height="744"
     inkscape:window-x="65"
     inkscape:window-y="24"
     inkscape:window-maximized="1" />
  <metadata
     id="metadata7">
    <rdf:RDF>
      <cc:Work
         rdf:about="">
        <dc:format>image/svg+xml</dc:format>
        <dc:type
           rdf:resource="http://purl.org/dc/dcmitype/StillImage" />
        <dc:title />
      </cc:Work>
    </rdf:RDF>
  </metadata>
  <g
     inkscape:label="Layer 1"
     inkscape:groupmode="layer"
     id="layer1">
    <path
       style="fill:none;fill-rule:evenodd;stroke:#000000;stroke-width:1px;stroke-linecap:butt;stroke-linejoin:miter;stroke-opacity:1"
       d="M 0,-71.25159 C 11.267241,-71.25159 58.249856,-70.080223 95.580477,-28.837241 132.9111,12.405741 143.38162,87.358125 138.17293,153.70302 132.96424,220.04792 125.04796,200.34354 114.46793,229.72542 103.8879,259.1073 76.454713,319.67479 42.558175,355.99754 8.6616373,392.32029 -27.587778,413.64428 -30.251729,465.27013 -32.91568,516.89598 2.5277359,551.651 54.883309,580.50991 107.23888,609.36882 147.68105,628.63288 198.21332,610.16418 248.74559,591.69548 265.86127,549.61025 269.30467,540.74621 272.74807,531.88217 286.27127,494.95881 268.72297,449.94256 251.17467,404.92631 221.88114,388.65817 156.96235,345.97921 92.043564,303.30025 90.528476,305.2407 42.698634,274.07038 -5.1312084,242.90006 -20.382591,218.35068 -26.730251,196.05589 -33.077911,173.7611 -29.785861,155.71482 -26.861931,145.40258 -23.938001,135.09034 -8.7864064,87.096089 59.856288,66.724126 128.49898,46.352162 176.97452,49.276084 219.83779,88.888012 262.70106,128.49994 289.65021,201.04616 268.00503,290.73821 246.35984,380.43026 208.55682,386.4826 159.75856,493.95705 110.9603,601.4315 112.94122,627.74791 78.771906,658.80463 44.602594,689.86135 7.4892612,690.14213 0,690.14213 -7.4892612,690.14213 -44.602594,689.86135 -78.771906,658.80463 -112.94122,627.74791 -110.9603,601.4315 -159.75856,493.95705 -208.55682,386.4826 -246.35984,380.43026 -268.00503,290.73821 -289.65021,201.04616 -262.70106,128.49994 -219.83779,88.888012 -176.97452,49.276084 -128.49898,46.352162 -59.856288,66.724126 8.7864064,87.096089 23.938001,135.09034 26.861931,145.40258 29.785861,155.71482 33.077911,173.7611 26.730251,196.05589 20.382591,218.35068 5.1312084,242.90006 -42.698634,274.07038 -90.528476,305.2407 -92.043564,303.30025 -156.96235,345.97921 -221.88114,388.65817 -251.17467,404.92631 -268.72297,449.94256 -286.27127,494.95881 -272.74807,531.88217 -269.30467,540.74621 -265.86127,549.61025 -248.74559,591.69548 -198.21332,610.16418 -147.68105,628.63288 -107.23888,609.36882 -54.883309,580.50991 -2.5277359,551.651 32.91568,516.89598 30.251729,465.27013 27.587778,413.64428 -9.0387642,391.91617 -42.558175,355.99754 -76.077586,320.07891 -103.78693,260.88366 -113.2489,234.37645 -122.71087,207.86923 -131.71756,202.43948 -137.00762,158.36424 -142.29768,114.289 -132.9111,12.405741 -95.580477,-28.837241 -58.249856,-70.080223 -11.267241,-71.25159 0,-71.25159 Z"
       id="path4201"
       inkscape:connector-curvature="0"
       sodipodi:nodetypes="zzzzzzzzzzzzzzzzzzzzzzzzzzzzzzzzzzzzzzz" />
  </g>
</svg>
