<?xml version="1.0" encoding="UTF-8" standalone="no"?>
<!-- Created with Inkscape (http://www.inkscape.org/) -->

<svg
   xmlns:dc="http://purl.org/dc/elements/1.1/"
   xmlns:cc="http://creativecommons.org/ns#"
   xmlns:rdf="http://www.w3.org/1999/02/22-rdf-syntax-ns#"
   xmlns:svg="http://www.w3.org/2000/svg"
   xmlns="http://www.w3.org/2000/svg"
   xmlns:sodipodi="http://sodipodi.sourceforge.net/DTD/sodipodi-0.dtd"
   xmlns:inkscape="http://www.inkscape.org/namespaces/inkscape"
   width="210mm"
   height="297mm"
   viewBox="0 0 744.09448819 1052.3622047"
   id="svg2"
   version="1.1"
   inkscape:version="0.91 r13725"
   sodipodi:docname="12n838.svg">
  <defs
     id="defs4" />
  <sodipodi:namedview
     id="base"
     pagecolor="#ffffff"
     bordercolor="#666666"
     borderopacity="1.0"
     inkscape:pageopacity="0.0"
     inkscape:pageshadow="2"
     inkscape:zoom="0.85814488"
     inkscape:cx="-61.394985"
     inkscape:cy="677.3145"
     inkscape:document-units="px"
     inkscape:current-layer="layer1"
     showgrid="false"
     inkscape:window-width="1301"
     inkscape:window-height="744"
     inkscape:window-x="65"
     inkscape:window-y="24"
     inkscape:window-maximized="1" />
  <metadata
     id="metadata7">
    <rdf:RDF>
      <cc:Work
         rdf:about="">
        <dc:format>image/svg+xml</dc:format>
        <dc:type
           rdf:resource="http://purl.org/dc/dcmitype/StillImage" />
        <dc:title></dc:title>
      </cc:Work>
    </rdf:RDF>
  </metadata>
  <g
     inkscape:label="Layer 1"
     inkscape:groupmode="layer"
     id="layer1">
    <path
       style="fill:none;fill-rule:evenodd;stroke:#000000;stroke-width:1px;stroke-linecap:butt;stroke-linejoin:miter;stroke-opacity:1"
       d="M  0 , -71.3352225033975 C  11.2264152942127 , -71.3352225033975 58.9941653190679 , -70.2032597520368 96.4661184392256 , -28.2220790462555 133.938071559383 , 13.7591016595258 133.949559043301 , 55.6693750277363 125.533074467466 , 161.191979318122 117.116589891631 , 266.714583608507 81.9687983195197 , 313.942995788423 42.5678326807547 , 356.016284385735 3.16686704198976 , 398.089572983046 -27.748282866933 , 413.980938305744 -30.0428896750937 , 465.569239552206 -32.3374964832545 , 517.157540798668 2.99130806131262 , 551.262182568726 55.3662891778683 , 580.068874078866 107.741270294424 , 608.875565589006 148.322480036929 , 627.925967377935 198.590391774223 , 609.566526355343 248.858303511517 , 591.207085332751 265.945522076514 , 549.404522728977 269.348257928517 , 540.712838257069 272.75099378052 , 532.021153785161 286.402952708903 , 495.197382849491 268.920667478736 , 450.159729535938 251.438382248568 , 405.122076222385 221.824587229181 , 388.578729106512 157.030970352207 , 345.935984193982 92.2373534752338 , 303.293239281452 91.1109974542755 , 305.441374388208 42.7548701971861 , 273.911616961285 -5.6012570599032 , 242.381859534362 -20.3947775201153 , 217.928667988446 -26.6842238546324 , 195.770331254115 -32.9736701891494 , 173.611994519784 -29.7504092801356 , 155.628199059633 -26.8454579944684 , 145.339289689226 -23.9405067088011 , 135.05038031882 -8.83421860592065 , 86.7882740362937 60.1362652294225 , 66.6421137300941 129.106749064766 , 46.4959534238945 177.504058354665 , 49.4579306234952 220.412831144861 , 89.1354894348296 263.321603935057 , 128.813048246164 290.112738875656 , 201.635290322472 268.038903816015 , 291.307581691747 245.965068756373 , 380.979873061022 209.060210523933 , 385.889910353864 160.236442797917 , 493.529329949392 111.412675071902 , 601.168749544921 113.373506045151 , 627.837164910269 79.0189999593084 , 658.970261620141 44.6644938734658 , 690.103358330014 7.64246342921712 , 690.420220223879 0 , 690.420220223879 -7.64246342921712 , 690.420220223879 -44.6644938734658 , 690.103358330014 -79.0189999593084 , 658.970261620141 -113.373506045151 , 627.837164910269 -111.412675071902 , 601.168749544921 -160.236442797917 , 493.529329949392 -209.060210523933 , 385.889910353864 -245.965068756373 , 380.979873061022 -268.038903816015 , 291.307581691747 -290.112738875656 , 201.635290322472 -263.321603935057 , 128.813048246164 -220.412831144861 , 89.1354894348296 -177.504058354665 , 49.4579306234952 -129.106749064766 , 46.4959534238946 -60.1362652294225 , 66.6421137300941 8.83421860592065 , 86.7882740362937 23.9405067088011 , 135.05038031882 26.8454579944684 , 145.339289689226 29.7504092801356 , 155.628199059633 32.9736701891494 , 173.611994519784 26.6842238546324 , 195.770331254115 20.3947775201153 , 217.928667988446 5.6012570599032 , 242.381859534362 -42.7548701971861 , 273.911616961285 -91.1109974542755 , 305.441374388208 -92.2373534752338 , 303.293239281452 -157.030970352207 , 345.935984193982 -221.824587229181 , 388.578729106512 -251.438382248568 , 405.122076222385 -268.920667478736 , 450.159729535938 -286.402952708903 , 495.197382849491 -272.75099378052 , 532.021153785161 -269.348257928517 , 540.712838257069 -265.945522076514 , 549.404522728977 -248.858303511517 , 591.207085332751 -198.590391774223 , 609.566526355343 -148.322480036929 , 627.925967377935 -107.741270294424 , 608.875565589006 -55.3662891778683 , 580.068874078866 -2.99130806131262 , 551.262182568726 32.3374964832545 , 517.157540798668 30.0428896750937 , 465.569239552206 27.748282866933 , 413.980938305744 -3.16686704198975 , 398.089572983046 -42.5678326807547 , 356.016284385735 -81.9687983195197 , 313.942995788423 -117.116589891631 , 266.714583608507 -125.533074467466 , 161.191979318122 -133.949559043301 , 55.6693750277363 -133.938071559383 , 13.7591016595258 -96.4661184392256 , -28.2220790462555 -58.9941653190679 , -70.2032597520368 -11.2264152942127 , -71.3352225033975 0 , -71.3352225033975 Z "
       id="path4201"
       inkscape:connector-curvature="0"
       sodipodi:nodetypes="zzzzzzzzzzzzzzzzzzzzzzzzzzzzzzzzzzzzz" />
  </g>
</svg>
