<?xml version="1.0" encoding="UTF-8" standalone="no"?>
<!-- Created with Inkscape (http://www.inkscape.org/) -->

<svg
   xmlns:dc="http://purl.org/dc/elements/1.1/"
   xmlns:cc="http://creativecommons.org/ns#"
   xmlns:rdf="http://www.w3.org/1999/02/22-rdf-syntax-ns#"
   xmlns:svg="http://www.w3.org/2000/svg"
   xmlns="http://www.w3.org/2000/svg"
   xmlns:sodipodi="http://sodipodi.sourceforge.net/DTD/sodipodi-0.dtd"
   xmlns:inkscape="http://www.inkscape.org/namespaces/inkscape"
   width="210mm"
   height="297mm"
   viewBox="0 0 744.09448819 1052.3622047"
   id="svg2"
   version="1.1"
   inkscape:version="0.91 r13725"
   sodipodi:docname="12n838.svg">
  <defs
     id="defs4" />
  <sodipodi:namedview
     id="base"
     pagecolor="#ffffff"
     bordercolor="#666666"
     borderopacity="1.0"
     inkscape:pageopacity="0.0"
     inkscape:pageshadow="2"
     inkscape:zoom="0.85814488"
     inkscape:cx="-61.394985"
     inkscape:cy="723.92668"
     inkscape:document-units="px"
     inkscape:current-layer="layer1"
     showgrid="false"
     inkscape:window-width="479"
     inkscape:window-height="373"
     inkscape:window-x="639"
     inkscape:window-y="308"
     inkscape:window-maximized="0" />
  <metadata
     id="metadata7">
    <rdf:RDF>
      <cc:Work
         rdf:about="">
        <dc:format>image/svg+xml</dc:format>
        <dc:type
           rdf:resource="http://purl.org/dc/dcmitype/StillImage" />
        <dc:title />
      </cc:Work>
    </rdf:RDF>
  </metadata>
  <g
     inkscape:label="Layer 1"
     inkscape:groupmode="layer"
     id="layer1">
    <path
       style="fill:none;fill-rule:evenodd;stroke:#000000;stroke-width:1px;stroke-linecap:butt;stroke-linejoin:miter;stroke-opacity:1"
       d="M  0 , -74.1938754946695 C  10.2670369855968 , -74.1938754946695 59.9420570887335 , -73.3549320180778 98.2328207532748 , -29.9445064436629 136.523584417816 , 13.4659191307519 131.420446922132 , 62.0093264720009 129.944961618794 , 118.291470309357 128.469476315456 , 174.573614146713 126.169570374844 , 193.349880483641 117.119410974598 , 225.999147398345 108.069251574351 , 258.64841431305 89.2091052881039 , 305.333032114969 45.8403996647125 , 351.512463997498 2.47169404132104 , 397.691895880028 -27.6141188200721 , 411.798983445186 -30.1669989336416 , 463.829819230297 -32.7198790472111 , 515.860655015408 3.32621408168133 , 549.096317040887 54.7679213653611 , 577.923677813207 106.209628649041 , 606.751038585526 145.954005960005 , 626.847242262584 196.977322741222 , 608.696327707084 248.00063952244 , 590.545413151585 265.258660992584 , 547.530720627092 268.77438465723 , 538.28352938496 272.290108321877 , 529.036338142828 285.242586678084 , 492.511282638362 267.731313385616 , 447.9175760522 250.220040093148 , 403.323869466037 221.124994359005 , 387.149484245247 157.876821640555 , 344.796813811048 94.6286489221053 , 302.444143376849 89.3010164226215 , 302.397622965568 42.2181752707563 , 271.244444410682 -4.86466588110883 , 240.091265855796 -20.2280787486482 , 216.063179741577 -26.751728373473 , 193.294177912024 -33.2753779982978 , 170.525176082472 -29.7947521981466 , 152.230306829787 -26.9301806593718 , 142.161982405317 -24.0656091205969 , 132.093657980847 -8.90636069736581 , 83.8607782334887 60.1947937410984 , 63.1686900109946 129.295948179563 , 42.4766017885005 179.218954349061 , 44.0752285874497 223.435039786744 , 86.2735262708098 267.651125224426 , 128.47182395417 291.545350511639 , 203.061606567748 268.313773898401 , 291.851537983128 245.082197285163 , 380.641469398508 208.770876596961 , 384.706491081367 159.157509802194 , 493.105244223292 109.544143007427 , 601.503997365216 110.823351499002 , 625.713508452598 77.109510362602 , 655.503514211526 43.3956692262025 , 685.293519970453 7.22707463165723 , 685.538695854855 0 , 685.538695854855 -7.22707463165723 , 685.538695854855 -43.3956692262025 , 685.293519970453 -77.109510362602 , 655.503514211526 -110.823351499002 , 625.713508452598 -109.544143007427 , 601.503997365216 -159.157509802194 , 493.105244223292 -208.770876596961 , 384.706491081367 -245.082197285163 , 380.641469398508 -268.313773898401 , 291.851537983128 -291.545350511639 , 203.061606567748 -267.651125224426 , 128.47182395417 -223.435039786744 , 86.2735262708098 -179.218954349061 , 44.0752285874497 -129.295948179563 , 42.4766017885005 -60.1947937410984 , 63.1686900109946 8.90636069736581 , 83.8607782334887 24.0656091205969 , 132.093657980847 26.9301806593718 , 142.161982405317 29.7947521981466 , 152.230306829787 33.2753779982978 , 170.525176082472 26.751728373473 , 193.294177912024 20.2280787486482 , 216.063179741577 4.86466588110883 , 240.091265855796 -42.2181752707563 , 271.244444410682 -89.3010164226215 , 302.397622965568 -94.6286489221053 , 302.444143376849 -157.876821640555 , 344.796813811048 -221.124994359005 , 387.149484245247 -250.220040093148 , 403.323869466037 -267.731313385616 , 447.9175760522 -285.242586678084 , 492.511282638362 -272.290108321877 , 529.036338142828 -268.77438465723 , 538.28352938496 -265.258660992584 , 547.530720627092 -248.00063952244 , 590.545413151585 -196.977322741222 , 608.696327707084 -145.954005960005 , 626.847242262584 -106.209628649041 , 606.751038585526 -54.7679213653611 , 577.923677813207 -3.32621408168133 , 549.096317040887 31.6024901337738 , 515.407131353706 29.4479824749846 , 463.86825583563 27.2934748161954 , 412.329380317553 -2.47169404132105 , 397.691895880028 -45.8403996647125 , 351.512463997498 -89.2091052881039 , 305.333032114969 -108.069251574351 , 258.64841431305 -117.119410974598 , 225.999147398345 -126.169570374844 , 193.349880483641 -128.469476315456 , 174.573614146713 -129.944961618794 , 118.291470309357 -131.420446922132 , 62.0093264720009 -136.523584417816 , 13.4659191307519 -98.2328207532748 , -29.9445064436629 -59.9420570887335 , -73.3549320180778 -10.2670369855968 , -74.1938754946695 0 , -74.1938754946695 Z "
       id="path4201"
       inkscape:connector-curvature="0"
       sodipodi:nodetypes="zzzzzzzzzzzzzzzzzzzzzzzzzzzzzzzzzzzzzzz" />
  </g>
</svg>
