<?xml version="1.0" encoding="UTF-8" standalone="no"?>
<!-- Created with Inkscape (http://www.inkscape.org/) -->

<svg
   xmlns:dc="http://purl.org/dc/elements/1.1/"
   xmlns:cc="http://creativecommons.org/ns#"
   xmlns:rdf="http://www.w3.org/1999/02/22-rdf-syntax-ns#"
   xmlns:svg="http://www.w3.org/2000/svg"
   xmlns="http://www.w3.org/2000/svg"
   xmlns:sodipodi="http://sodipodi.sourceforge.net/DTD/sodipodi-0.dtd"
   xmlns:inkscape="http://www.inkscape.org/namespaces/inkscape"
   width="210mm"
   height="297mm"
   viewBox="0 0 744.09448819 1052.3622047"
   id="svg2"
   version="1.1"
   inkscape:version="0.91 r13725"
   sodipodi:docname="12n838.svg">
  <defs
     id="defs4" />
  <sodipodi:namedview
     id="base"
     pagecolor="#ffffff"
     bordercolor="#666666"
     borderopacity="1.0"
     inkscape:pageopacity="0.0"
     inkscape:pageshadow="2"
     inkscape:zoom="0.85814488"
     inkscape:cx="-61.394985"
     inkscape:cy="677.3145"
     inkscape:document-units="px"
     inkscape:current-layer="layer1"
     showgrid="false"
     inkscape:window-width="1301"
     inkscape:window-height="744"
     inkscape:window-x="65"
     inkscape:window-y="24"
     inkscape:window-maximized="1" />
  <metadata
     id="metadata7">
    <rdf:RDF>
      <cc:Work
         rdf:about="">
        <dc:format>image/svg+xml</dc:format>
        <dc:type
           rdf:resource="http://purl.org/dc/dcmitype/StillImage" />
        <dc:title></dc:title>
      </cc:Work>
    </rdf:RDF>
  </metadata>
  <g
     inkscape:label="Layer 1"
     inkscape:groupmode="layer"
     id="layer1">
    <path
       style="fill:none;fill-rule:evenodd;stroke:#000000;stroke-width:1px;stroke-linecap:butt;stroke-linejoin:miter;stroke-opacity:1"
       d="M  0 , -71.2515904470557 C  11.2672411522983 , -71.2515904470557 58.2498586347146 , -70.0802232515939 95.5804772006139 , -28.8372412371513 132.911095766513 , 12.4057407772912 133.702738674399 , 54.3613991458483 125.354577208068 , 160.694849209136 117.006415741737 , 267.028299272423 81.2498718457421 , 314.536408586494 42.5581752335916 , 355.997537793787 3.86647862144103 , 397.45866700108 -27.5877783041527 , 413.644279942806 -30.2517293121373 , 465.270125482351 -32.9156803201219 , 516.895971021897 2.52773378898601 , 551.651011624125 54.8833086122364 , 580.509914529555 107.238883435487 , 609.368817434984 147.68104896775 , 628.632876571638 198.213317356454 , 610.164177372798 248.745585745158 , 591.695478173957 265.861283312906 , 549.61025339351 269.304674226164 , 540.746212880282 272.748065139422 , 531.882172367053 286.271267112673 , 494.958798566936 268.722973979171 , 449.942555171695 251.17468084567 , 404.926311776455 221.881142037146 , 388.658172974479 156.962354847563 , 345.979213909069 92.0435676579807 , 303.300254843659 90.5284765520088 , 305.240691540067 42.6986344397641 , 274.070375187625 -5.13120767248046 , 242.900058835184 -20.3825906232638 , 218.350669386774 -26.7302510278793 , 196.055886417082 -33.0779114324948 , 173.761103447389 -29.7858606195444 , 155.714818802204 -26.8619306729259 , 145.402579959947 -23.9380007263074 , 135.09034111769 -8.78640875434522 , 87.0960893546993 59.8562880117816 , 66.7241257094239 128.498984777908 , 46.3521620641486 176.97451691677 , 49.2760839593058 219.837785704149 , 88.8880122283893 262.701054491527 , 128.499940497473 289.650215202829 , 201.046155628743 268.005030783285 , 290.738206018962 246.359846363742 , 380.43025640918 208.556819649008 , 386.482605989087 159.758563992788 , 493.957051531225 110.960308336568 , 601.431497073364 112.941215691718 , 627.747915478293 78.7719061317758 , 658.804634365718 44.6025965718337 , 689.861353253143 7.48926120422391 , 690.142126827544 0 , 690.142126827544 -7.48926120422391 , 690.142126827544 -44.6025965718337 , 689.861353253143 -78.7719061317758 , 658.804634365718 -112.941215691718 , 627.747915478293 -110.960308336568 , 601.431497073364 -159.758563992788 , 493.957051531225 -208.556819649008 , 386.482605989087 -246.359846363742 , 380.43025640918 -268.005030783285 , 290.738206018962 -289.650215202829 , 201.046155628743 -262.701054491527 , 128.499940497473 -219.837785704149 , 88.8880122283893 -176.97451691677 , 49.2760839593058 -128.498984777908 , 46.3521620641486 -59.8562880117816 , 66.7241257094239 8.78640875434522 , 87.0960893546993 23.9380007263074 , 135.09034111769 26.8619306729259 , 145.402579959947 29.7858606195444 , 155.714818802204 33.0779114324948 , 173.761103447389 26.7302510278793 , 196.055886417082 20.3825906232638 , 218.350669386774 5.13120767248045 , 242.900058835184 -42.6986344397641 , 274.070375187625 -90.5284765520088 , 305.240691540067 -92.0435676579807 , 303.300254843659 -156.962354847563 , 345.979213909069 -221.881142037146 , 388.658172974479 -251.17468084567 , 404.926311776455 -268.722973979171 , 449.942555171695 -286.271267112673 , 494.958798566936 -272.748065139422 , 531.882172367053 -269.304674226164 , 540.746212880282 -265.861283312906 , 549.61025339351 -248.745585745158 , 591.695478173957 -198.213317356454 , 610.164177372798 -147.68104896775 , 628.632876571638 -107.238883435487 , 609.368817434984 -54.8833086122364 , 580.509914529555 -2.52773378898601 , 551.651011624125 32.9156803201219 , 516.895971021897 30.2517293121373 , 465.270125482351 27.5877783041527 , 413.644279942806 -3.86647862144104 , 397.45866700108 -42.5581752335916 , 355.997537793787 -81.2498718457421 , 314.536408586494 -117.006415741737 , 267.028299272423 -125.354577208068 , 160.694849209136 -133.702738674399 , 54.3613991458483 -132.911095766513 , 12.4057407772912 -95.5804772006139 , -28.8372412371513 -58.2498586347146 , -70.0802232515939 -11.2672411522983 , -71.2515904470557 0 , -71.2515904470557 Z "
       id="path4201"
       inkscape:connector-curvature="0"
       sodipodi:nodetypes="zzzzzzzzzzzzzzzzzzzzzzzzzzzzzzzzzzzzz" />
  </g>
</svg>
