<?xml version="1.0" encoding="UTF-8" standalone="no"?>
<!-- Created with Inkscape (http://www.inkscape.org/) -->

<svg
   xmlns:dc="http://purl.org/dc/elements/1.1/"
   xmlns:cc="http://creativecommons.org/ns#"
   xmlns:rdf="http://www.w3.org/1999/02/22-rdf-syntax-ns#"
   xmlns:svg="http://www.w3.org/2000/svg"
   xmlns="http://www.w3.org/2000/svg"
   xmlns:sodipodi="http://sodipodi.sourceforge.net/DTD/sodipodi-0.dtd"
   xmlns:inkscape="http://www.inkscape.org/namespaces/inkscape"
   width="210mm"
   height="297mm"
   viewBox="0 0 744.09448819 1052.3622047"
   id="svg2"
   version="1.1"
   inkscape:version="0.91 r13725"
   sodipodi:docname="12n838.svg">
  <defs
     id="defs4" />
  <sodipodi:namedview
     id="base"
     pagecolor="#ffffff"
     bordercolor="#666666"
     borderopacity="1.0"
     inkscape:pageopacity="0.0"
     inkscape:pageshadow="2"
     inkscape:zoom="0.85814488"
     inkscape:cx="-108.00716"
     inkscape:cy="817.15103"
     inkscape:document-units="px"
     inkscape:current-layer="layer1"
     showgrid="false"
     inkscape:window-width="1301"
     inkscape:window-height="744"
     inkscape:window-x="65"
     inkscape:window-y="24"
     inkscape:window-maximized="1" />
  <metadata
     id="metadata7">
    <rdf:RDF>
      <cc:Work
         rdf:about="">
        <dc:format>image/svg+xml</dc:format>
        <dc:type
           rdf:resource="http://purl.org/dc/dcmitype/StillImage" />
        <dc:title />
      </cc:Work>
    </rdf:RDF>
  </metadata>
  <g
     inkscape:label="Layer 1"
     inkscape:groupmode="layer"
     id="layer1">
    <path
       style="fill:none;fill-rule:evenodd;stroke:#000000;stroke-width:1px;stroke-linecap:butt;stroke-linejoin:miter;stroke-opacity:1"
       d="M  0 , -70.4536127053451 C  11.8691883045867 , -70.4536127053451 61.0915282467519 , -69.0520521603472 99.2644282723532 , -25.521444355821 137.437328297955 , 18.0091634487053 132.137538797688 , 64.7962084843571 130.353039298285 , 123.331729117311 128.568539798881 , 181.867249750265 125.336028959138 , 202.398687454828 116.548038007752 , 232.872941970756 107.760047056366 , 263.347196486685 89.3002022734032 , 309.817800468307 46.2506208787132 , 356.150276997529 3.2010394840233 , 402.482753526751 -26.9327932017017 , 416.481579927195 -29.5499128601487 , 468.26209231131 -32.1670325185957 , 520.042604695425 3.58539327641127 , 553.471399327453 54.6259963026381 , 581.876506030174 105.666599328865 , 610.281612732896 145.31311669655 , 630.605448752954 196.325336507612 , 613.052818077252 247.337556318674 , 595.50018740155 265.005789056825 , 552.765208460805 268.509783320585 , 543.867681969569 272.013777584344 , 534.970155478333 285.643309196367 , 498.287537898904 268.271322904181 , 453.267178720048 250.899336611996 , 408.246819541192 221.910137473478 , 392.177922209915 157.991385900226 , 349.437433329901 94.0726343269737 , 306.696944449887 89.874065827934 , 307.40867482754 42.414566052487 , 276.067429971013 -5.04493372295993 , 244.726185114485 -20.4696183610125 , 220.537074980645 -26.9717465205751 , 197.47911862403 -33.4738746801377 , 174.421162267414 -29.7188478436524 , 155.940214519644 -26.9970680176148 , 146.415861863906 -24.2752881915772 , 136.891509208168 -9.00193205204675 , 87.5358136751689 61.2985187898779 , 67.190970036788 131.598969631803 , 46.8461263984071 179.367853226747 , 50.3725271516446 221.440889516037 , 89.5560698104312 263.513925805327 , 128.739612469218 291.236000447907 , 201.183783073085 269.021538923823 , 292.579160523813 246.807077399739 , 383.97453797454 209.952349721819 , 388.384744525473 160.164262818765 , 495.446787413739 110.37617591571 , 602.508830302006 111.7427682942 , 628.723361894497 77.6676989802467 , 659.061767095651 43.5926296662936 , 689.400172296806 7.23367528959929 , 689.621229821122 0 , 689.621229821122 -7.23367528959929 , 689.621229821122 -43.5926296662936 , 689.400172296806 -77.6676989802467 , 659.061767095651 -111.7427682942 , 628.723361894497 -110.37617591571 , 602.508830302006 -160.164262818765 , 495.446787413739 -209.952349721819 , 388.384744525473 -246.807077399739 , 383.97453797454 -269.021538923823 , 292.579160523813 -291.236000447907 , 201.183783073085 -263.513925805327 , 128.739612469218 -221.440889516037 , 89.5560698104312 -179.367853226747 , 50.3725271516446 -131.598969631803 , 46.8461263984071 -61.2985187898779 , 67.190970036788 9.00193205204675 , 87.5358136751689 24.2752881915772 , 136.891509208168 26.9970680176148 , 146.415861863906 29.7188478436524 , 155.940214519644 33.4738746801377 , 174.421162267414 26.9717465205751 , 197.47911862403 20.4696183610125 , 220.537074980645 5.04493372295993 , 244.726185114485 -42.414566052487 , 276.067429971013 -89.874065827934 , 307.40867482754 -94.0726343269737 , 306.696944449887 -157.991385900226 , 349.437433329901 -221.910137473478 , 392.177922209915 -250.899336611996 , 408.246819541192 -268.271322904181 , 453.267178720048 -285.643309196367 , 498.287537898904 -272.013777584344 , 534.970155478333 -268.509783320585 , 543.867681969569 -265.005789056825 , 552.765208460805 -247.337556318674 , 595.50018740155 -196.325336507612 , 613.052818077252 -145.31311669655 , 630.605448752954 -105.666599328865 , 610.281612732896 -54.6259963026381 , 581.876506030174 -3.58539327641127 , 553.471399327453 32.1670325185957 , 520.042604695425 29.5499128601487 , 468.26209231131 26.9327932017017 , 416.481579927195 -3.20103948402331 , 402.482753526751 -46.2506208787132 , 356.150276997529 -89.3002022734032 , 309.817800468307 -107.760047056366 , 263.347196486685 -116.548038007752 , 232.872941970756 -125.336028959138 , 202.398687454828 -128.568539798881 , 181.867249750265 -130.353039298285 , 123.331729117311 -132.137538797688 , 64.7962084843571 -137.437328297955 , 18.0091634487053 -99.2644282723532 , -25.521444355821 -61.0915282467519 , -69.0520521603472 -11.8691883045867 , -70.4536127053451 0 , -70.4536127053451 Z "
       id="path4201"
       inkscape:connector-curvature="0"
       sodipodi:nodetypes="zzzzzzzzzzzzzzzzzzzzzzzzzzzzzzzzzzzzzzz" />
  </g>
</svg>
