<?xml version="1.0" encoding="UTF-8" standalone="no"?>
<!-- Created with Inkscape (http://www.inkscape.org/) -->

<svg
   xmlns:dc="http://purl.org/dc/elements/1.1/"
   xmlns:cc="http://creativecommons.org/ns#"
   xmlns:rdf="http://www.w3.org/1999/02/22-rdf-syntax-ns#"
   xmlns:svg="http://www.w3.org/2000/svg"
   xmlns="http://www.w3.org/2000/svg"
   xmlns:sodipodi="http://sodipodi.sourceforge.net/DTD/sodipodi-0.dtd"
   xmlns:inkscape="http://www.inkscape.org/namespaces/inkscape"
   width="210mm"
   height="297mm"
   viewBox="0 0 744.09448819 1052.3622047"
   id="svg2"
   version="1.1"
   inkscape:version="0.91 r13725"
   sodipodi:docname="12n838.svg">
  <defs
     id="defs4" />
  <sodipodi:namedview
     id="base"
     pagecolor="#ffffff"
     bordercolor="#666666"
     borderopacity="1.0"
     inkscape:pageopacity="0.0"
     inkscape:pageshadow="2"
     inkscape:zoom="0.85814488"
     inkscape:cx="-61.394985"
     inkscape:cy="677.3145"
     inkscape:document-units="px"
     inkscape:current-layer="layer1"
     showgrid="false"
     inkscape:window-width="1301"
     inkscape:window-height="744"
     inkscape:window-x="65"
     inkscape:window-y="24"
     inkscape:window-maximized="1" />
  <metadata
     id="metadata7">
    <rdf:RDF>
      <cc:Work
         rdf:about="">
        <dc:format>image/svg+xml</dc:format>
        <dc:type
           rdf:resource="http://purl.org/dc/dcmitype/StillImage" />
        <dc:title></dc:title>
      </cc:Work>
    </rdf:RDF>
  </metadata>
  <g
     inkscape:label="Layer 1"
     inkscape:groupmode="layer"
     id="layer1">
    <path
       style="fill:none;fill-rule:evenodd;stroke:#000000;stroke-width:1px;stroke-linecap:butt;stroke-linejoin:miter;stroke-opacity:1"
       d="M  0 , -6.29365074791053 C  33.4309125377101 , -6.29365074791053 77.5171221507658 , 4.20925888125561 98.6738548977917 , 37.1533877445534 119.830587644818 , 70.0975166078511 130.322800542275 , 183.802415665268 124.888735834331 , 236.757255289163 119.454671126386 , 289.712094913057 85.5297588500844 , 335.877164886398 55.9907989021342 , 356.480857506706 26.4518389541841 , 377.084550127014 -15.2761423892969 , 398.341944189522 -24.4093868411227 , 443.952418759123 -33.5426312929485 , 489.562893328725 1.14919628409631 , 527.323521000198 47.3704111158499 , 546.531757099156 93.5916259476036 , 565.739993198113 143.080228879933 , 584.741604723118 183.266754409082 , 570.075926070916 223.453279938231 , 555.410247418714 239.582245669426 , 533.908184889254 247.985997908857 , 517.14423371873 256.389750148287 , 500.380282548207 263.138557526362 , 474.093031669311 248.64950753614 , 443.9651014994 234.160457545918 , 413.837171329489 193.665318612294 , 381.620748832245 141.435534686418 , 351.236421923044 89.2057507605417 , 320.852095013842 91.2274037518314 , 314.016978726478 48.2576556573198 , 293.073226591888 5.28790756280813 , 272.129474457299 -19.9850737482883 , 239.439460714176 -27.7206865385203 , 218.52488849411 -35.4562993287524 , 197.610316274044 -35.1078591410112 , 176.761482296945 -24.5426946253587 , 153.996858266684 -13.9775301097062 , 131.232234236423 11.1135692289346 , 102.884288979367 56.5932239221361 , 93.7295089724237 102.072878615338 , 84.5747289654807 156.591768052775 , 64.3452578668228 200.332407182683 , 115.919002171923 244.073046312591 , 167.492746477023 258.441411481781 , 209.25621049703 252.053239869355 , 270.697741912148 245.665068256929 , 332.139273327266 188.407353671469 , 393.544891468339 159.610572325495 , 446.991417301716 130.813790979521 , 500.437943135093 126.561576622909 , 586.778776124053 94.5648202426126 , 627.562793747585 62.5680638623166 , 668.346811371117 26.1244404458612 , 675.106489428398 0 , 675.106489428398 -26.1244404458612 , 675.106489428398 -62.5680638623166 , 668.346811371117 -94.5648202426126 , 627.562793747585 -126.561576622909 , 586.778776124053 -130.813790979521 , 500.437943135093 -159.610572325495 , 446.991417301716 -188.407353671469 , 393.544891468339 -245.665068256929 , 332.139273327266 -252.053239869355 , 270.697741912148 -258.441411481781 , 209.25621049703 -244.073046312591 , 167.492746477023 -200.332407182683 , 115.919002171923 -156.591768052775 , 64.3452578668228 -102.072878615338 , 84.5747289654807 -56.5932239221361 , 93.7295089724237 -11.1135692289346 , 102.884288979367 13.9775301097062 , 131.232234236423 24.5426946253587 , 153.996858266684 35.1078591410112 , 176.761482296945 35.4562993287524 , 197.610316274044 27.7206865385203 , 218.52488849411 19.9850737482883 , 239.439460714176 -5.28790756280813 , 272.129474457299 -48.2576556573198 , 293.073226591888 -91.2274037518314 , 314.016978726478 -89.2057507605417 , 320.852095013842 -141.435534686418 , 351.236421923044 -193.665318612294 , 381.620748832245 -234.160457545918 , 413.837171329489 -248.64950753614 , 443.9651014994 -263.138557526362 , 474.093031669311 -256.389750148287 , 500.380282548207 -247.985997908857 , 517.14423371873 -239.582245669426 , 533.908184889254 -223.453279938231 , 555.410247418714 -183.266754409082 , 570.075926070916 -143.080228879933 , 584.741604723118 -93.5916259476036 , 565.739993198113 -47.3704111158499 , 546.531757099156 -1.14919628409631 , 527.323521000198 33.5426312929485 , 489.562893328725 24.4093868411227 , 443.952418759123 15.2761423892969 , 398.341944189522 -26.4518389541841 , 377.084550127014 -55.9907989021342 , 356.480857506706 -85.5297588500844 , 335.877164886398 -119.454671126386 , 289.712094913057 -124.888735834331 , 236.757255289163 -130.322800542275 , 183.802415665268 -119.830587644818 , 70.0975166078511 -98.6738548977917 , 37.1533877445534 -77.5171221507658 , 4.20925888125561 -33.4309125377101 , -6.29365074791053 0 , -6.29365074791053 Z "
       id="path4201"
       inkscape:connector-curvature="0"
       sodipodi:nodetypes="zzzzzzzzzzzzzzzzzzzzzzzzzzzzzzzzzzzzz" />
  </g>
</svg>
