<?xml version="1.0" encoding="UTF-8" standalone="no"?>
<svg
   xmlns:dc="http://purl.org/dc/elements/1.1/"
   xmlns:cc="http://creativecommons.org/ns#"
   xmlns:rdf="http://www.w3.org/1999/02/22-rdf-syntax-ns#"
   xmlns:svg="http://www.w3.org/2000/svg"
   xmlns="http://www.w3.org/2000/svg"
   xmlns:sodipodi="http://sodipodi.sourceforge.net/DTD/sodipodi-0.dtd"
   xmlns:inkscape="http://www.inkscape.org/namespaces/inkscape"
   width="618"
   height="600"
   viewBox="0 0 618 600"
   id="svg2"
   version="1.1"
   inkscape:version="0.91 r13725"
   sodipodi:docname="20-crossings-ornamental-knot.svg">
  <metadata
     id="metadata28">
    <rdf:RDF>
      <cc:Work
         rdf:about="">
        <dc:format>image/svg+xml</dc:format>
        <dc:type
           rdf:resource="http://purl.org/dc/dcmitype/StillImage" />
        <dc:title>20 crossings ornamental knot (five-fold symmetry)</dc:title>
      </cc:Work>
    </rdf:RDF>
  </metadata>
  <defs
     id="defs26" />
  <sodipodi:namedview
     pagecolor="#ffffff"
     bordercolor="#666666"
     borderopacity="1"
     objecttolerance="10"
     gridtolerance="10"
     guidetolerance="10"
     inkscape:pageopacity="0"
     inkscape:pageshadow="2"
     inkscape:window-width="2084"
     inkscape:window-height="1049"
     id="namedview24"
     showgrid="false"
     inkscape:zoom="1.5554835"
     inkscape:cx="12.334673"
     inkscape:cy="582.23899"
     inkscape:window-x="349"
     inkscape:window-y="61"
     inkscape:window-maximized="0"
     inkscape:current-layer="svg2" />
  <title
     id="title4">20 crossings ornamental knot (five-fold symmetry)</title>
  <path
     style="fill:none;stroke:#000000;stroke-width:2;stroke-linejoin:round;stroke-miterlimit:4;stroke-dasharray:none"
     inkscape:connector-curvature="0"
     d="M -209.54366,-68.014267 C -244.36676,-56.699577 -272.97766,-25.941127 -272.97766,19.294553 -272.97766,64.530233 -199.08523,105.31057 -181.17566,111.09655 -163.26609,116.88253 -136.17499,111.09655 -104.11077,111.09655 -72.04655,111.09655 -15.482732,109.16789 11.209661,111.09655 37.902054,113.02521 176.6968,127.6722 176.6968,176.63261 176.6968,225.59302 122.88206,300.59558 73.921915,300.59558 24.961768,300.59558 -14.728085,241.07695 -14.728085,211.94558 -14.728085,182.81421 -8.7765751,176.01213 10.156545,165.93119 29.089665,155.85025 105.52171,195.57806 140.34506,206.89272 175.16841,218.20738 216.39396,210.14125 242.98306,173.54456 269.57216,136.94787 229.60674,65.600888 220.10181,53.029746 210.59688,40.458604 191.1907,22.862681 155.6712,-2.2495321 120.1517,-27.361746 73.977049,-59.884265 58.415203,-71.190547 42.853357,-82.496829 -55.021535,-177.322 -26.243535,-216.93131 2.5344649,-256.54062 74.667711,-281.37276 114.27706,-252.595 153.88641,-223.81724 156.14765,-131.1485 148.01365,-121.06403 139.87965,-110.97956 133.55946,-107.81458 114.27606,-109.15635 94.992661,-110.49812 40.387284,-191.54949 18.865564,-221.17153 -2.6561561,-250.79357 -40.749751,-268.4993 -83.771865,-254.52067 -126.79398,-240.54204 -145.01824,-164.19023 -142.7124,-138.84326 -140.40656,-113.49629 -131.97576,-107.01156 -118.25594,-67.154597 -104.53612,-27.297635 -84.85929,29.415213 -78.842871,47.931373 -72.826452,66.447533 -54.52012,211.52467 -101.08388,226.65378 -147.64764,241.78289 -214.99514,212.44911 -230.12425,165.8852 -245.25336,119.32129 -218.89059,58.687583 -191.1855,49.685523 -163.48041,40.683463 -157.04235,36.081458 -141.31879,53.693203 -125.59523,71.304948 -134.46499,159.9294 -134.46499,196.54431 -134.46499,233.15922 -114.05361,269.87411 -71.031835,283.85274 -28.010061,297.83137 38.826668,242.8208 44.645365,224.91232 50.464062,207.00384 58.839255,179.59583 70.044509,143.32629 81.249763,107.05675 91.454167,73.710133 97.18233,56.080853 102.91049,38.451573 174.94591,-107.34621 221.50931,-92.216807 268.07271,-77.0874 309.60746,-16.801867 294.47786,29.761653 279.34826,76.325173 208.5519,102.74276 180.8468,93.740693 153.1417,84.738629 153.75892,79.815935 147.14444,68.307973 140.52996,56.800011 213.58699,-21.646917 235.10896,-51.269267 256.63093,-80.891617 261.69801,-122.59224 235.10896,-159.18844 208.51991,-195.78464 124.7358,-186.92125 106.87996,-179.49815 89.024119,-172.07505 76.763222,-157.29047 43.297787,-132.43491 9.832352,-107.57935 -33.458497,-75.324232 -49.026744,-64.013117 -64.594991,-52.702002 -195.64367,23.862653 -224.42143,-15.746807 -253.19919,-55.356267 -249.55485,-139.68839 -209.94554,-168.46615 -170.33623,-197.24391 -99.389567,-167.28498 -86.119215,-148.85381 -72.848862,-130.42264 -74.397245,-129.46406 -78.663865,-113.8673 -82.930485,-98.270538 -174.72056,-79.328957 -209.54366,-68.014267 Z"
     id="Main"
     sodipodi:nodetypes="zzzzzzzzzzzzzzzzzzzzzzzzzzzzzzzzzzzzzzzzzzzzzz" />
</svg>
