<?xml version="1.0" encoding="UTF-8" standalone="no"?>
<!-- Created with Inkscape (http://www.inkscape.org/) -->

<svg
   xmlns:dc="http://purl.org/dc/elements/1.1/"
   xmlns:cc="http://creativecommons.org/ns#"
   xmlns:rdf="http://www.w3.org/1999/02/22-rdf-syntax-ns#"
   xmlns:svg="http://www.w3.org/2000/svg"
   xmlns="http://www.w3.org/2000/svg"
   xmlns:sodipodi="http://sodipodi.sourceforge.net/DTD/sodipodi-0.dtd"
   xmlns:inkscape="http://www.inkscape.org/namespaces/inkscape"
   width="744.09448819"
   height="1052.3622047"
   id="svg2"
   version="1.1"
   inkscape:version="0.91 r13725"
   sodipodi:docname="3_1.svg">
  <defs
     id="defs4" />
  <sodipodi:namedview
     id="base"
     pagecolor="#ffffff"
     bordercolor="#666666"
     borderopacity="1.0"
     inkscape:pageopacity="0.0"
     inkscape:pageshadow="2"
     inkscape:zoom="0.60095796"
     inkscape:cx="-104.76981"
     inkscape:cy="1086.1933"
     inkscape:document-units="px"
     inkscape:current-layer="layer1"
     showgrid="false"
     inkscape:window-width="2560"
     inkscape:window-height="1315"
     inkscape:window-x="81"
     inkscape:window-y="24"
     inkscape:window-maximized="0" />
  <metadata
     id="metadata7">
    <rdf:RDF>
      <cc:Work
         rdf:about="">
        <dc:format>image/svg+xml</dc:format>
        <dc:type
           rdf:resource="http://purl.org/dc/dcmitype/StillImage" />
        <dc:title />
      </cc:Work>
    </rdf:RDF>
  </metadata>
  <g
     inkscape:label="Layer 1"
     inkscape:groupmode="layer"
     id="layer1">
    <path
       style="fill:none;stroke:#000000;stroke-width:2.19853067px;stroke-linecap:butt;stroke-linejoin:miter;stroke-opacity:1"
       d="M  -229.650069974247 , 419.006820350461 C  -400.435730387374 , 425.848340705067 -474.348832944611 , 303.381760246721 -487.129780417708 , 281.244509854447 -499.910727890805 , 259.107259462174 -569.013346403726 , 133.863344745909 -477.695585769566 , -10.6206155966579 -386.377825135405 , -155.104575939225 -202.290279555869 , -170.277906059839 -128.534671269654 , -176.909835662609 -54.779062983439 , -183.541765265379 -11.3601216275497 , -183.536200908681 0 , -183.536200908681 11.3601216275497 , -183.536200908681 54.8085682558242 , -183.541982381179 128.323903249392 , -176.956479759967 201.83923824296 , -170.370977138755 386.377825135405 , -155.104575939225 477.695585769566 , -10.6206155966582 569.013346403726 , 133.863344745909 499.910727890805 , 259.107259462173 487.129780417708 , 281.244509854447 474.348832944611 , 303.38176024672 400.435730387374 , 425.848340705067 229.650069974248 , 419.006820350461 58.8644095611213 , 412.165299995855 -46.3198525731061 , 260.327474063958 -88.9410762283225 , 199.769208417907 -131.562299883539 , 139.210942771856 -153.266951687227 , 101.60625437388 -158.947012501002 , 91.7681004543406 -164.627073314777 , 81.9299465348015 -186.356303530969 , 44.3053787359925 -217.410758461094 , -22.6535202467663 -248.46521339122 , -89.6124192295251 -327.513415574284 , -257.06072405663 -248.045515795318 , -408.386204753803 -168.577616016352 , -559.711685450976 -25.5618949461944 , -562.489019708894 0 , -562.489019708894 25.5618949461944 , -562.489019708894 168.577616016352 , -559.711685450976 248.045515795318 , -408.386204753803 327.513415574284 , -257.06072405663 248.610132128975 , -90.049568004119 217.475747497977 , -22.8593727552978 186.341362866978 , 44.3308224935235 164.627073314777 , 81.9299465348014 158.947012501002 , 91.7681004543405 153.266951687227 , 101.60625437388 131.547735275145 , 139.236603645187 89.0868552117023 , 199.610000006733 46.6259751482598 , 259.98339636828 -58.864409561121 , 412.165299995855 -229.650069974247 , 419.006820350461 Z "
       id="path3008"
       inkscape:connector-curvature="0"
       sodipodi:nodetypes="zzzzzzzzzzzzzzzzzzz" />
  </g>
</svg>
