<?xml version="1.0" encoding="UTF-8" standalone="no"?>
<!-- Created with Inkscape (http://www.inkscape.org/) -->

<svg
   xmlns:dc="http://purl.org/dc/elements/1.1/"
   xmlns:cc="http://creativecommons.org/ns#"
   xmlns:rdf="http://www.w3.org/1999/02/22-rdf-syntax-ns#"
   xmlns:svg="http://www.w3.org/2000/svg"
   xmlns="http://www.w3.org/2000/svg"
   xmlns:sodipodi="http://sodipodi.sourceforge.net/DTD/sodipodi-0.dtd"
   xmlns:inkscape="http://www.inkscape.org/namespaces/inkscape"
   width="744.09448819"
   height="1052.3622047"
   id="svg2"
   version="1.1"
   inkscape:version="0.91 r13725"
   sodipodi:docname="3_1_not_symmetric.svg">
  <defs
     id="defs4" />
  <sodipodi:namedview
     id="base"
     pagecolor="#ffffff"
     bordercolor="#666666"
     borderopacity="1.0"
     inkscape:pageopacity="0.0"
     inkscape:pageshadow="2"
     inkscape:zoom="0.60095796"
     inkscape:cx="-104.76981"
     inkscape:cy="1086.1933"
     inkscape:document-units="px"
     inkscape:current-layer="layer1"
     showgrid="false"
     inkscape:window-width="2560"
     inkscape:window-height="1315"
     inkscape:window-x="81"
     inkscape:window-y="24"
     inkscape:window-maximized="0" />
  <metadata
     id="metadata7">
    <rdf:RDF>
      <cc:Work
         rdf:about="">
        <dc:format>image/svg+xml</dc:format>
        <dc:type
           rdf:resource="http://purl.org/dc/dcmitype/StillImage" />
        <dc:title />
      </cc:Work>
    </rdf:RDF>
  </metadata>
  <g
     inkscape:label="Layer 1"
     inkscape:groupmode="layer"
     id="layer1">
    <path
       style="fill:none;stroke:#000000;stroke-width:2.19853067px;stroke-linecap:butt;stroke-linejoin:miter;stroke-opacity:1"
       d="M -307.04082,438.86996 C -444.56291,432.61969 -467.01264,447.02876 -517.27489,401.47811 -567.53715,355.92745 -588.44495,274.70448 -529.15665,153.3097 -469.86834,31.914926 -265.54859,-224.76075 5.8289194,-224.51708 277.20643,-224.27341 496.99707,87.099269 500.04129,198.54862 503.08551,309.99797 513.89388,356.10224 475.2177,397.64978 436.54151,439.19732 394.42404,446.50957 276.1582,444.89393 157.89237,443.27829 -90.332905,255.38989 -198.34049,119.19432 -306.34807,-17.001242 -307.25505,-222.67787 -229.86367,-387.00459 -152.47229,-551.33131 -82.55425,-577.21831 -3.4916159,-572.3711 75.571018,-567.52389 116.7345,-544.71512 184.16876,-415.02842 251.60302,-285.34171 318.4879,-65.748469 252.34168,96.345802 186.19547,258.44007 -169.51873,445.12023 -307.04082,438.86996 Z"
       id="path3008"
       inkscape:connector-curvature="0"
       sodipodi:nodetypes="zzzzzzzzzzzzz" />
  </g>
</svg>
