<?xml version="1.0" encoding="UTF-8" standalone="no"?>
<!-- Created with Inkscape (http://www.inkscape.org/) -->

<svg
   width="210mm"
   height="297mm"
   viewBox="0 0 744.09448819 1052.3622047"
   id="svg2"
   version="1.1"
   inkscape:version="1.3.1 (9b9bdc1480, 2023-11-25, custom)"
   sodipodi:docname="4_1.svg"
   xmlns:inkscape="http://www.inkscape.org/namespaces/inkscape"
   xmlns:sodipodi="http://sodipodi.sourceforge.net/DTD/sodipodi-0.dtd"
   xmlns="http://www.w3.org/2000/svg"
   xmlns:svg="http://www.w3.org/2000/svg"
   xmlns:rdf="http://www.w3.org/1999/02/22-rdf-syntax-ns#"
   xmlns:cc="http://creativecommons.org/ns#"
   xmlns:dc="http://purl.org/dc/elements/1.1/">
  <defs
     id="defs4" />
  <sodipodi:namedview
     id="base"
     pagecolor="#ffffff"
     bordercolor="#666666"
     borderopacity="1.0"
     inkscape:pageopacity="0.0"
     inkscape:pageshadow="2"
     inkscape:zoom="0.9122779"
     inkscape:cx="-184.15441"
     inkscape:cy="61.932883"
     inkscape:document-units="px"
     inkscape:current-layer="layer1"
     showgrid="false"
     inkscape:window-width="1452"
     inkscape:window-height="991"
     inkscape:window-x="472"
     inkscape:window-y="89"
     inkscape:window-maximized="0"
     inkscape:showpageshadow="2"
     inkscape:pagecheckerboard="0"
     inkscape:deskcolor="#d1d1d1" />
  <metadata
     id="metadata7">
    <rdf:RDF>
      <cc:Work
         rdf:about="">
        <dc:format>image/svg+xml</dc:format>
        <dc:type
           rdf:resource="http://purl.org/dc/dcmitype/StillImage" />
      </cc:Work>
    </rdf:RDF>
  </metadata>
  <g
     inkscape:label="Layer 1"
     inkscape:groupmode="layer"
     id="layer1">
    <path
       style="fill:none;stroke:#000000;stroke-width:1.31593px;stroke-linecap:butt;stroke-linejoin:miter;stroke-opacity:1"
       d="M  0 , -154.530128876875 C  -127.393355267575 , -154.530128876875 -302.611405743283 , -101.888705835162 -397.592624956207 , 79.1619743343321 -492.573844169132 , 260.212654503826 -430.617046348353 , 488.679334227185 -250.60337281883 , 553.504223833542 -70.5896992893063 , 618.3291134399 74.5481918758402 , 476.183841467615 72.6903082758443 , 328.581917039472 70.8324246758484 , 180.979992611328 -21.1023765977048 , 129.171180011135 -103.885814629743 , 18.5866247439902 -186.66925266178 , -91.9979305231548 -227.767555098471 , -203.066299918047 -202.476242811652 , -310.089173344566 -177.184930524833 , -417.112046771085 -91.0873767335856 , -481.129453530607 0 , -481.129453530607 91.0873767335856 , -481.129453530607 177.184930524833 , -417.112046771085 202.476242811652 , -310.089173344566 227.767555098471 , -203.066299918047 186.66925266178 , -91.9979305231548 103.885814629743 , 18.5866247439902 21.1023765977048 , 129.171180011135 -70.8324246758484 , 180.979992611328 -72.6903082758443 , 328.581917039472 -74.5481918758402 , 476.183841467615 70.5896992893063 , 618.3291134399 250.60337281883 , 553.504223833542 430.617046348353 , 488.679334227185 492.573844169132 , 260.212654503826 397.592624956207 , 79.1619743343321 302.611405743283 , -101.888705835162 127.393355267575 , -154.530128876875 0 , -154.530128876875 Z "
       id="path4136"
       inkscape:connector-curvature="0"
       sodipodi:nodetypes="zzzzzzzzzzzzz" />
  </g>
</svg>
