<?xml version="1.0" encoding="UTF-8" standalone="no"?>
<!-- Created with Inkscape (http://www.inkscape.org/) -->

<svg
   width="210mm"
   height="297mm"
   viewBox="0 0 744.09448819 1052.3622047"
   id="svg2"
   version="1.1"
   inkscape:version="1.2.2 (b0a8486541, 2022-12-01)"
   sodipodi:docname="4_1.svg"
   xmlns:inkscape="http://www.inkscape.org/namespaces/inkscape"
   xmlns:sodipodi="http://sodipodi.sourceforge.net/DTD/sodipodi-0.dtd"
   xmlns="http://www.w3.org/2000/svg"
   xmlns:svg="http://www.w3.org/2000/svg"
   xmlns:rdf="http://www.w3.org/1999/02/22-rdf-syntax-ns#"
   xmlns:cc="http://creativecommons.org/ns#"
   xmlns:dc="http://purl.org/dc/elements/1.1/">
  <defs
     id="defs4" />
  <sodipodi:namedview
     id="base"
     pagecolor="#ffffff"
     bordercolor="#666666"
     borderopacity="1.0"
     inkscape:pageopacity="0.0"
     inkscape:pageshadow="2"
     inkscape:zoom="0.9122779"
     inkscape:cx="-183.60633"
     inkscape:cy="-200.59677"
     inkscape:document-units="px"
     inkscape:current-layer="layer1"
     showgrid="false"
     inkscape:window-width="1452"
     inkscape:window-height="991"
     inkscape:window-x="26"
     inkscape:window-y="23"
     inkscape:window-maximized="0"
     inkscape:showpageshadow="2"
     inkscape:pagecheckerboard="0"
     inkscape:deskcolor="#d1d1d1" />
  <metadata
     id="metadata7">
    <rdf:RDF>
      <cc:Work
         rdf:about="">
        <dc:format>image/svg+xml</dc:format>
        <dc:type
           rdf:resource="http://purl.org/dc/dcmitype/StillImage" />
      </cc:Work>
    </rdf:RDF>
  </metadata>
  <g
     inkscape:label="Layer 1"
     inkscape:groupmode="layer"
     id="layer1">
    <path
       style="fill:none;stroke:#000000;stroke-width:1.31593px;stroke-linecap:butt;stroke-linejoin:miter;stroke-opacity:1"
       d="M -13.577482,-68.574855 C -145.79402,-70.080635 -280.21664,-50.315451 -303.77041,91.218037 -327.32418,232.75152 -326.6178,430.67979 -214.00956,438.74551 -101.40128,446.81122 54.103199,349.70514 70.363889,252.54298 86.624583,155.38083 -63.332528,98.030358 -104.86191,45.851696 -146.3913,-6.3269643 -232.2464,-170.30001 -181.94863,-272.86003 -131.65086,-375.42006 -80.910197,-400.28676 -14.179173,-401.66221 52.551848,-403.03764 109.71639,-343.96954 151.61587,-240.3772 193.51537,-136.78486 94.424185,-19.257916 58.388488,36.417828 22.35279,92.09357 -130.70532,154.59056 -119.86414,269.06555 -109.02297,383.54055 31.520837,452.71117 122.82792,441.37784 214.135,430.0445 223.68173,196.81172 202.0825,85.976235 180.48326,-24.859245 118.63906,-67.069075 -13.577482,-68.574855 Z"
       id="path4136"
       inkscape:connector-curvature="0"
       sodipodi:nodetypes="zzzzzzzzzzzzz" />
  </g>
</svg>
