<?xml version="1.0" encoding="UTF-8" standalone="no"?>
<!-- Created with Inkscape (http://www.inkscape.org/) -->

<svg
   xmlns:dc="http://purl.org/dc/elements/1.1/"
   xmlns:cc="http://creativecommons.org/ns#"
   xmlns:rdf="http://www.w3.org/1999/02/22-rdf-syntax-ns#"
   xmlns:svg="http://www.w3.org/2000/svg"
   xmlns="http://www.w3.org/2000/svg"
   xmlns:sodipodi="http://sodipodi.sourceforge.net/DTD/sodipodi-0.dtd"
   xmlns:inkscape="http://www.inkscape.org/namespaces/inkscape"
   width="744.09448819"
   height="1052.3622047"
   id="svg2"
   version="1.1"
   inkscape:version="0.91 r13725"
   sodipodi:docname="4_1.svg">
  <defs
     id="defs4" />
  <sodipodi:namedview
     id="base"
     pagecolor="#ffffff"
     bordercolor="#666666"
     borderopacity="1.0"
     inkscape:pageopacity="0.0"
     inkscape:pageshadow="2"
     inkscape:zoom="0.98994949"
     inkscape:cx="5.2101112"
     inkscape:cy="1153.3628"
     inkscape:document-units="px"
     inkscape:current-layer="layer1"
     showgrid="false"
     inkscape:window-width="1855"
     inkscape:window-height="1056"
     inkscape:window-x="65"
     inkscape:window-y="24"
     inkscape:window-maximized="1" />
  <metadata
     id="metadata7">
    <rdf:RDF>
      <cc:Work
         rdf:about="">
        <dc:format>image/svg+xml</dc:format>
        <dc:type
           rdf:resource="http://purl.org/dc/dcmitype/StillImage" />
        <dc:title />
      </cc:Work>
    </rdf:RDF>
  </metadata>
  <g
     inkscape:label="Layer 1"
     inkscape:groupmode="layer"
     id="layer1">
    <path
       style="fill:none;stroke:#000000;stroke-width:5;stroke-linecap:butt;stroke-linejoin:miter;stroke-miterlimit:4;stroke-dasharray:none;stroke-opacity:1"
       d="M  64.7244158658445 , 241.98640036461 C  30.3912254192467 , 156.039852793996 -18.6244360817146 , 138.843168877294 -97.3372040054673 , 42.5744045582065 -176.04997192922 , -53.694359760881 -240.690755857761 , -187.7596902795 -186.811298039558 , -316.002580467413 -132.931840221354 , -444.245470655327 -19.0719832635993 , -446.530186642797 0 , -446.530186642797 19.0719832635993 , -446.530186642797 132.931840221354 , -444.245470655327 186.811298039558 , -316.002580467413 240.690755857761 , -187.7596902795 176.04997192922 , -53.694359760881 97.3372040054673 , 42.5744045582065 18.6244360817147 , 138.843168877294 -30.3912254192467 , 156.039852793996 -64.7244158658445 , 241.98640036461 -99.0576063124423 , 327.932947935224 -76.1693432138769 , 400.601597657645 -69.9295408893311 , 419.145115956057 -63.6897385647852 , 437.688634254469 -2.35242515384283 , 615.254311316529 188.960666172866 , 597.188998833357 380.273757499575 , 579.123686350185 500.415708504301 , 353.111631206968 406.996592094635 , 135.867778212019 313.577475684969 , -81.3760747829302 110.930812372104 , -127.721007583912 0 , -127.721007583912 -110.930812372104 , -127.721007583912 -313.577475684969 , -81.3760747829302 -406.996592094635 , 135.867778212019 -500.415708504301 , 353.111631206968 -380.273757499575 , 579.123686350185 -188.960666172866 , 597.188998833357 2.35242515384283 , 615.254311316529 63.6897385647852 , 437.688634254469 69.9295408893311 , 419.145115956057 76.1693432138769 , 400.601597657645 99.0576063124423 , 327.932947935224 64.7244158658445 , 241.98640036461 Z "
       id="path2985"
       inkscape:connector-curvature="0"
       sodipodi:nodetypes="zzzzzzzzzzzzzzz" />
  </g>
</svg>
