<?xml version="1.0" encoding="UTF-8" standalone="no"?>
<!-- Created with Inkscape (http://www.inkscape.org/) -->

<svg
   xmlns:dc="http://purl.org/dc/elements/1.1/"
   xmlns:cc="http://creativecommons.org/ns#"
   xmlns:rdf="http://www.w3.org/1999/02/22-rdf-syntax-ns#"
   xmlns:svg="http://www.w3.org/2000/svg"
   xmlns="http://www.w3.org/2000/svg"
   xmlns:sodipodi="http://sodipodi.sourceforge.net/DTD/sodipodi-0.dtd"
   xmlns:inkscape="http://www.inkscape.org/namespaces/inkscape"
   width="793.70081"
   height="1122.5197"
   viewBox="0 0 210 297"
   version="1.1"
   id="svg8"
   inkscape:version="0.92.2 5c3e80d, 2017-08-06"
   sodipodi:docname="4_1a.svg">
  <defs
     id="defs2" />
  <sodipodi:namedview
     id="base"
     pagecolor="#ffffff"
     bordercolor="#666666"
     borderopacity="1.0"
     inkscape:pageopacity="0.0"
     inkscape:pageshadow="2"
     inkscape:zoom="0.27987342"
     inkscape:cx="185.2455"
     inkscape:cy="810.37163"
     inkscape:document-units="mm"
     inkscape:current-layer="layer1"
     showgrid="false"
     inkscape:window-width="2560"
     inkscape:window-height="1315"
     inkscape:window-x="0"
     inkscape:window-y="1"
     inkscape:window-maximized="1"
     inkscape:pagecheckerboard="false"
     units="px" />
  <metadata
     id="metadata5">
    <rdf:RDF>
      <cc:Work
         rdf:about="">
        <dc:format>image/svg+xml</dc:format>
        <dc:type
           rdf:resource="http://purl.org/dc/dcmitype/StillImage" />
        <dc:title></dc:title>
      </cc:Work>
    </rdf:RDF>
  </metadata>
  <g
     inkscape:label="Layer 1"
     inkscape:groupmode="layer"
     id="layer1">
    <path
       style="fill:none;fill-rule:evenodd;stroke:#000000;stroke-width:2.32168245px;stroke-linecap:butt;stroke-linejoin:miter;stroke-opacity:1"
       d="M  0 , -407.700098887832 C  15.9062741966889 , -407.700098887832 93.6288777586453 , -406.544653161706 154.634241225907 , -337.271424248451 215.639604693169 , -267.998195335195 215.20566511068 , -175.655363645456 190.393577597041 , -102.325181603995 165.581490083402 , -28.9949995625349 123.766582062249 , 10.7840496067733 66.9798904337493 , 67.652470671302 10.19319880525 , 124.520891735831 -29.3947104020237 , 166.231207568468 -103.257237222581 , 190.799495578963 -177.119764043139 , 215.367783589458 -268.286916655489 , 214.676909032588 -336.523144917664 , 153.976614141794 -404.759373179838 , 93.2763192510005 -405.969572057948 , 15.9947169260055 -405.969572057948 , 0 -405.969572057948 , -15.9947169260055 -404.759373179838 , -93.2763192510005 -336.523144917664 , -153.976614141794 -268.286916655489 , -214.676909032588 -177.119764043139 , -215.367783589458 -103.257237222581 , -190.799495578963 -29.3947104020237 , -166.231207568468 10.19319880525 , -124.520891735831 66.9798904337493 , -67.652470671302 123.766582062249 , -10.7840496067733 165.581490083402 , 28.9949995625349 190.393577597041 , 102.325181603995 215.20566511068 , 175.655363645456 215.639604693169 , 267.998195335195 154.634241225907 , 337.271424248451 93.6288777586453 , 406.544653161706 15.9698443394329 , 407.728692389362 0 , 407.728692389362 -15.9698443394329 , 407.728692389362 -93.6288777586453 , 406.544653161706 -154.634241225907 , 337.271424248451 -215.639604693169 , 267.998195335195 -215.20566511068 , 175.655363645456 -190.393577597041 , 102.325181603995 -165.581490083402 , 28.9949995625349 -123.766582062249 , -10.7840496067733 -66.9798904337493 , -67.652470671302 -10.19319880525 , -124.520891735831 29.3947104020237 , -166.231207568468 103.257237222581 , -190.799495578963 177.119764043139 , -215.367783589458 268.286916655489 , -214.676909032588 336.523144917664 , -153.976614141794 404.759373179838 , -93.2763192510005 405.969572057948 , -15.9947169260055 405.969572057948 , 0 405.969572057948 , 15.9947169260055 404.759373179838 , 93.2763192510005 336.523144917664 , 153.976614141794 268.286916655489 , 214.676909032588 177.119764043139 , 215.367783589458 103.257237222581 , 190.799495578963 29.3947104020237 , 166.231207568468 -10.19319880525 , 124.520891735831 -66.9798904337493 , 67.652470671302 -123.766582062249 , 10.7840496067733 -165.581490083402 , -28.9949995625349 -190.393577597041 , -102.325181603995 -215.20566511068 , -175.655363645456 -215.639604693169 , -267.998195335195 -154.634241225907 , -337.271424248451 -93.6288777586453 , -406.544653161706 -15.9062741966889 , -407.700098887832 0 , -407.700098887832 Z "
       id="path880"
       inkscape:connector-curvature="0"
       sodipodi:nodetypes="zzzzzzzzzzzzzzzzzzzzzzzzz" />
  </g>
</svg>
