<?xml version="1.0" encoding="UTF-8" standalone="no"?>
<!-- Created with Inkscape (http://www.inkscape.org/) -->

<svg
   xmlns:dc="http://purl.org/dc/elements/1.1/"
   xmlns:cc="http://creativecommons.org/ns#"
   xmlns:rdf="http://www.w3.org/1999/02/22-rdf-syntax-ns#"
   xmlns:svg="http://www.w3.org/2000/svg"
   xmlns="http://www.w3.org/2000/svg"
   xmlns:sodipodi="http://sodipodi.sourceforge.net/DTD/sodipodi-0.dtd"
   xmlns:inkscape="http://www.inkscape.org/namespaces/inkscape"
   width="793.70081"
   height="1122.5197"
   viewBox="0 0 210 297"
   version="1.1"
   id="svg8"
   inkscape:version="0.92.2 5c3e80d, 2017-08-06"
   sodipodi:docname="4_1a.svg">
  <defs
     id="defs2" />
  <sodipodi:namedview
     id="base"
     pagecolor="#ffffff"
     bordercolor="#666666"
     borderopacity="1.0"
     inkscape:pageopacity="0.0"
     inkscape:pageshadow="2"
     inkscape:zoom="0.27987342"
     inkscape:cx="185.2455"
     inkscape:cy="810.37163"
     inkscape:document-units="mm"
     inkscape:current-layer="layer1"
     showgrid="false"
     inkscape:window-width="2560"
     inkscape:window-height="1315"
     inkscape:window-x="0"
     inkscape:window-y="1"
     inkscape:window-maximized="1"
     inkscape:pagecheckerboard="false"
     units="px" />
  <metadata
     id="metadata5">
    <rdf:RDF>
      <cc:Work
         rdf:about="">
        <dc:format>image/svg+xml</dc:format>
        <dc:type
           rdf:resource="http://purl.org/dc/dcmitype/StillImage" />
        <dc:title></dc:title>
      </cc:Work>
    </rdf:RDF>
  </metadata>
  <g
     inkscape:label="Layer 1"
     inkscape:groupmode="layer"
     id="layer1">
    <path
       style="fill:none;fill-rule:evenodd;stroke:#000000;stroke-width:2.32168245px;stroke-linecap:butt;stroke-linejoin:miter;stroke-opacity:1"
       d="M  0 , -407.553207909282 C  15.93797521578 , -407.553207909282 93.3915426712904 , -406.372782270848 154.299761927354 , -337.369750266579 215.207981183417 , -268.366718262311 215.10663432976 , -176.001614224103 190.419670195021 , -102.587238920107 165.732706060282 , -29.1728636161118 124.609505654325 , 9.97002513580951 67.2729469563266 , 67.3794999494336 9.93638825832855 , 124.788974763058 -29.3212161123212 , 166.022574724388 -102.733694069468 , 190.593713135909 -176.146172026614 , 215.16485154743 -268.037414788684 , 214.907264424371 -336.59936356733 , 154.080475111984 -405.161312345975 , 93.2536857995959 -406.391410734382 , 16.1218052059129 -406.391410734382 , 0 -406.391410734382 , -16.1218052059129 -405.161312345975 , -93.2536857995959 -336.59936356733 , -154.080475111984 -268.037414788684 , -214.907264424371 -176.146172026614 , -215.16485154743 -102.733694069468 , -190.593713135909 -29.3212161123212 , -166.022574724388 9.93638825832855 , -124.788974763058 67.2729469563266 , -67.3794999494336 124.609505654325 , -9.97002513580951 165.732706060282 , 29.1728636161118 190.419670195021 , 102.587238920107 215.10663432976 , 176.001614224103 215.207981183417 , 268.366718262311 154.299761927354 , 337.369750266579 93.3915426712904 , 406.372782270848 16.1708459400488 , 407.609774856487 0 , 407.609774856487 -16.1708459400488 , 407.609774856487 -93.3915426712904 , 406.372782270848 -154.299761927354 , 337.369750266579 -215.207981183417 , 268.366718262311 -215.10663432976 , 176.001614224103 -190.419670195021 , 102.587238920107 -165.732706060282 , 29.1728636161118 -124.609505654325 , -9.97002513580951 -67.2729469563266 , -67.3794999494336 -9.93638825832855 , -124.788974763058 29.3212161123212 , -166.022574724388 102.733694069468 , -190.593713135909 176.146172026614 , -215.16485154743 268.037414788684 , -214.907264424371 336.59936356733 , -154.080475111984 405.161312345975 , -93.2536857995959 406.391410734382 , -16.1218052059129 406.391410734382 , 0 406.391410734382 , 16.1218052059129 405.161312345975 , 93.2536857995959 336.59936356733 , 154.080475111984 268.037414788684 , 214.907264424371 176.146172026614 , 215.16485154743 102.733694069468 , 190.593713135909 29.3212161123212 , 166.022574724388 -9.93638825832855 , 124.788974763058 -67.2729469563266 , 67.3794999494336 -124.609505654325 , 9.97002513580951 -165.732706060282 , -29.1728636161118 -190.419670195021 , -102.587238920107 -215.10663432976 , -176.001614224103 -215.207981183417 , -268.366718262311 -154.299761927354 , -337.369750266579 -93.3915426712904 , -406.372782270848 -15.93797521578 , -407.553207909282 0 , -407.553207909282 Z "
       id="path880"
       inkscape:connector-curvature="0"
       sodipodi:nodetypes="zzzzzzzzzzzzzzzzzzzzzzzzz" />
  </g>
</svg>
