<?xml version="1.0" encoding="UTF-8" standalone="no"?>
<!-- Created with Inkscape (http://www.inkscape.org/) -->

<svg
   xmlns:dc="http://purl.org/dc/elements/1.1/"
   xmlns:cc="http://creativecommons.org/ns#"
   xmlns:rdf="http://www.w3.org/1999/02/22-rdf-syntax-ns#"
   xmlns:svg="http://www.w3.org/2000/svg"
   xmlns="http://www.w3.org/2000/svg"
   xmlns:sodipodi="http://sodipodi.sourceforge.net/DTD/sodipodi-0.dtd"
   xmlns:inkscape="http://www.inkscape.org/namespaces/inkscape"
   width="744.09448819"
   height="1052.3622047"
   id="svg2"
   version="1.1"
   inkscape:version="0.91 r13725"
   sodipodi:docname="5_1.svg">
  <defs
     id="defs4" />
  <sodipodi:namedview
     id="base"
     pagecolor="#ffffff"
     bordercolor="#666666"
     borderopacity="1.0"
     inkscape:pageopacity="0.0"
     inkscape:pageshadow="2"
     inkscape:zoom="1.7900907"
     inkscape:cx="-4.2876693"
     inkscape:cy="900.82972"
     inkscape:document-units="px"
     inkscape:current-layer="layer1"
     showgrid="false"
     inkscape:window-width="2560"
     inkscape:window-height="1315"
     inkscape:window-x="381"
     inkscape:window-y="98"
     inkscape:window-maximized="0" />
  <metadata
     id="metadata7">
    <rdf:RDF>
      <cc:Work
         rdf:about="">
        <dc:format>image/svg+xml</dc:format>
        <dc:type
           rdf:resource="http://purl.org/dc/dcmitype/StillImage" />
        <dc:title />
      </cc:Work>
    </rdf:RDF>
  </metadata>
  <g
     inkscape:label="Layer 1"
     inkscape:groupmode="layer"
     id="layer1">
    <path
       style="fill:none;stroke:#000000;stroke-width:1px;stroke-linecap:butt;stroke-linejoin:miter;stroke-opacity:1"
       d="M  -443.376569248561 , -144.061780197031 C  -437.271852073054 , -162.8501677472 -409.443071498134 , -239.886924069522 -314.089077608086 , -270.513462947332 -218.735083718039 , -301.140001825142 -187.493695098278 , -259.258376021303 0 , -259.258376021303 187.493695098278 , -259.258376021303 218.735083718038 , -301.140001825142 314.089077608086 , -270.513462947332 409.443071498134 , -239.886924069522 437.271852073054 , -162.8501677472 443.376569248561 , -144.061780197031 449.481286424068 , -125.273392646861 472.248399256936 , -46.5920007793597 413.107225599502 , 34.2330610074302 353.966051942067 , 115.05812279422 304.07383563128 , 99.538403258695 152.388249958618 , 209.744432135284 0.702664285956757 , 319.950461011873 0.0452519542269556 , 372.196635531065 -95.0995774654853 , 403.466916455788 -190.244406885198 , 434.737197380512 -258.039432553749 , 388.770499135453 -274.021789610932 , 377.158637035643 -290.004146668115 , 365.546774935833 -354.67088963232 , 315.274364934388 -354.332454410078 , 215.123206698361 -353.994019187837 , 114.972048462335 -304.508106042682 , 98.201856362841 -246.569367919159 , -80.1152441246329 -188.630629795637 , -258.432344612107 -218.808302918035 , -301.086804962478 -160.214728953177 , -382.309721214248 -101.62115498832 , -463.532637466018 -19.7552797633516 , -466.193713677224 0 , -466.193713677224 19.7552797633516 , -466.193713677224 101.62115498832 , -463.532637466018 160.214728953177 , -382.309721214248 218.808302918035 , -301.086804962478 188.630629795636 , -258.432344612107 246.569367919159 , -80.1152441246329 304.508106042682 , 98.2018563628409 353.994019187836 , 114.972048462335 354.332454410078 , 215.123206698361 354.67088963232 , 315.274364934388 290.004146668115 , 365.546774935833 274.021789610932 , 377.158637035643 258.039432553749 , 388.770499135453 190.244406885198 , 434.737197380512 95.0995774654854 , 403.466916455788 -0.0452519542268419 , 372.196635531065 -0.7026642859567 , 319.950461011873 -152.388249958618 , 209.744432135284 -304.07383563128 , 99.538403258695 -353.966051942067 , 115.05812279422 -413.107225599502 , 34.2330610074303 -472.248399256936 , -46.5920007793596 -449.481286424068 , -125.273392646861 -443.376569248561 , -144.061780197031 Z "
       id="path2985"
       inkscape:connector-curvature="0"
       sodipodi:nodetypes="zzzzzzzzzzzzzzzzzzzzz" />
  </g>
</svg>
