<?xml version="1.0" encoding="UTF-8" standalone="no"?>
<!-- Created with Inkscape (http://www.inkscape.org/) -->

<svg
   xmlns:dc="http://purl.org/dc/elements/1.1/"
   xmlns:cc="http://creativecommons.org/ns#"
   xmlns:rdf="http://www.w3.org/1999/02/22-rdf-syntax-ns#"
   xmlns:svg="http://www.w3.org/2000/svg"
   xmlns="http://www.w3.org/2000/svg"
   xmlns:sodipodi="http://sodipodi.sourceforge.net/DTD/sodipodi-0.dtd"
   xmlns:inkscape="http://www.inkscape.org/namespaces/inkscape"
   width="744.09448819"
   height="1052.3622047"
   id="svg2"
   version="1.1"
   inkscape:version="0.91 r13725"
   sodipodi:docname="5_2.svg">
  <defs
     id="defs4" />
  <sodipodi:namedview
     id="base"
     pagecolor="#ffffff"
     bordercolor="#666666"
     borderopacity="1.0"
     inkscape:pageopacity="0.0"
     inkscape:pageshadow="2"
     inkscape:zoom="0.35"
     inkscape:cx="-103.57143"
     inkscape:cy="975.26596"
     inkscape:document-units="px"
     inkscape:current-layer="layer1"
     showgrid="false"
     inkscape:window-width="2560"
     inkscape:window-height="1315"
     inkscape:window-x="0"
     inkscape:window-y="1"
     inkscape:window-maximized="1" />
  <metadata
     id="metadata7">
    <rdf:RDF>
      <cc:Work
         rdf:about="">
        <dc:format>image/svg+xml</dc:format>
        <dc:type
           rdf:resource="http://purl.org/dc/dcmitype/StillImage" />
        <dc:title />
      </cc:Work>
    </rdf:RDF>
  </metadata>
  <g
     inkscape:label="Layer 1"
     inkscape:groupmode="layer"
     id="layer1">
    <path
       style="fill:none;stroke:#000000;stroke-width:3.14248824;stroke-linecap:butt;stroke-linejoin:miter;stroke-miterlimit:4;stroke-dasharray:none;stroke-opacity:1"
       d="M  57.683464748473 , 168.340064817646 C  71.2038749817695 , 45.9899837499195 -14.774451018104 , 7.34948313204929 -79.7985070176365 , -67.6984667803917 -144.822563017169 , -142.746416692833 -180.197209746721 , -230.295734214163 -161.830077857321 , -316.663146188818 -143.46294596792 , -403.030558163472 -74.9374447855533 , -457.293174005055 0 , -457.293174005055 74.9374447855533 , -457.293174005055 143.46294596792 , -403.030558163472 161.830077857321 , -316.663146188818 180.197209746721 , -230.295734214163 144.822563017169 , -142.746416692833 79.7985070176365 , -67.6984667803917 14.774451018104 , 7.3494831320493 -71.2038749817695 , 45.9899837499195 -57.683464748473 , 168.340064817646 -44.1630545151766 , 290.690145885372 41.1707263700013 , 273.648214011146 56.6669493117814 , 399.798237465969 72.1631722535615 , 525.948260920791 -55.5634908531233 , 660.474720954924 -216.322681775814 , 593.060589071887 -377.081872698504 , 525.646457188849 -395.150603687241 , 336.68934127018 -397.67674291066 , 306.661062926724 -400.202882134079 , 276.632784583268 -409.847209704396 , 135.800752508131 -316.489007585532 , -7.54168239845019 -223.130805466669 , -150.884117305031 -96.8986079280165 , -193.893378771868 0 , -193.893378771868 96.8986079280165 , -193.893378771868 223.130805466669 , -150.884117305031 316.489007585532 , -7.54168239845019 409.847209704396 , 135.800752508131 400.202882134079 , 276.632784583268 397.67674291066 , 306.661062926724 395.150603687241 , 336.68934127018 377.081872698504 , 525.646457188849 216.322681775814 , 593.060589071887 55.5634908531233 , 660.474720954924 -72.1631722535615 , 525.948260920791 -56.6669493117814 , 399.798237465969 -41.1707263700013 , 273.648214011146 44.1630545151766 , 290.690145885372 57.683464748473 , 168.340064817646 Z "
       id="path2985"
       inkscape:connector-curvature="0"
       sodipodi:nodetypes="zzzzzzzzzzzzzzzzz" />
  </g>
</svg>
