<?xml version="1.0" encoding="UTF-8" standalone="no"?>
<!-- Created with Inkscape (http://www.inkscape.org/) -->

<svg
   xmlns:dc="http://purl.org/dc/elements/1.1/"
   xmlns:cc="http://creativecommons.org/ns#"
   xmlns:rdf="http://www.w3.org/1999/02/22-rdf-syntax-ns#"
   xmlns:svg="http://www.w3.org/2000/svg"
   xmlns="http://www.w3.org/2000/svg"
   xmlns:sodipodi="http://sodipodi.sourceforge.net/DTD/sodipodi-0.dtd"
   xmlns:inkscape="http://www.inkscape.org/namespaces/inkscape"
   width="744.09448819"
   height="1052.3622047"
   id="svg2"
   version="1.1"
   inkscape:version="0.91 r13725"
   sodipodi:docname="6_1.svg">
  <defs
     id="defs4" />
  <sodipodi:namedview
     id="base"
     pagecolor="#ffffff"
     bordercolor="#666666"
     borderopacity="1.0"
     inkscape:pageopacity="0.0"
     inkscape:pageshadow="2"
     inkscape:zoom="0.7991211"
     inkscape:cx="-273.04991"
     inkscape:cy="1222.9868"
     inkscape:document-units="px"
     inkscape:current-layer="layer1"
     showgrid="false"
     inkscape:window-width="1215"
     inkscape:window-height="776"
     inkscape:window-x="65"
     inkscape:window-y="24"
     inkscape:window-maximized="1" />
  <metadata
     id="metadata7">
    <rdf:RDF>
      <cc:Work
         rdf:about="">
        <dc:format>image/svg+xml</dc:format>
        <dc:type
           rdf:resource="http://purl.org/dc/dcmitype/StillImage" />
        <dc:title />
      </cc:Work>
    </rdf:RDF>
  </metadata>
  <g
     inkscape:label="Layer 1"
     inkscape:groupmode="layer"
     id="layer1">
    <path
       style="fill:none;stroke:#000000;stroke-width:1.45581996px;stroke-linecap:butt;stroke-linejoin:miter;stroke-opacity:1"
       d="M  -50.1655401112422 , 279.804332237079 C  -45.7681995645463 , 293.241011415479 -3.230582978396 , 419.116898516683 129.332936081194 , 406.071384894931 261.896455140784 , 393.025871273178 333.929460730017 , 247.303455944502 306.456998607532 , 100.217153456662 278.984536485046 , -46.8691490311781 220.798448820163 , -62.7790562844973 182.105917759564 , -213.90820847178 143.413386698966 , -365.037360659063 175.040810813689 , -406.774384356036 129.188388835692 , -480.068052503533 83.3359668576954 , -553.361720651029 13.1931683311074 , -554.560388443841 0 , -554.560388443841 -13.1931683311074 , -554.560388443841 -83.3359668576954 , -553.361720651029 -129.188388835692 , -480.068052503533 -175.040810813689 , -406.774384356036 -143.413386698966 , -365.037360659063 -182.105917759564 , -213.90820847178 -220.798448820163 , -62.7790562844973 -278.984536485046 , -46.8691490311781 -306.456998607532 , 100.217153456662 -333.929460730017 , 247.303455944502 -261.896455140784 , 393.025871273178 -129.332936081194 , 406.071384894931 3.230582978396 , 419.116898516683 45.7681995645463 , 293.241011415479 50.1655401112422 , 279.804332237079 54.5628806579381 , 266.36765305868 67.0117562484438 , 224.210009120667 51.8611638223543 , 171.533591816616 36.7105713962647 , 118.857174512565 -0.645671219481803 , 69.5704950491232 -108.705582940668 , 6.02898211665025 -216.765494661853 , -57.5125308158227 -281.60570547447 , -68.5880257239061 -323.728339856688 , -144.901882966732 -365.850974238905 , -221.215740209557 -342.102091843003 , -313.812616980283 -268.042208945971 , -358.933504613111 -193.98232604894 , -404.054392245938 -145.188531008416 , -375.771211616083 0 , -375.771211616083 145.188531008416 , -375.771211616083 193.98232604894 , -404.054392245938 268.042208945971 , -358.933504613111 342.102091843003 , -313.812616980283 365.850974238905 , -221.215740209557 323.728339856688 , -144.901882966732 281.60570547447 , -68.5880257239061 216.765494661853 , -57.5125308158227 108.705582940668 , 6.02898211665025 0.645671219481784 , 69.5704950491232 -36.7105713962647 , 118.857174512565 -51.8611638223543 , 171.533591816616 -67.0117562484438 , 224.210009120667 -54.5628806579381 , 266.36765305868 -50.1655401112422 , 279.804332237079 Z "
       id="path2985"
       inkscape:connector-curvature="0"
       sodipodi:nodetypes="zzzzzzzzzzzzzzzzzzzsz" />
  </g>
</svg>
