<?xml version="1.0" encoding="UTF-8" standalone="no"?>
<!-- Created with Inkscape (http://www.inkscape.org/) -->

<svg
   xmlns:dc="http://purl.org/dc/elements/1.1/"
   xmlns:cc="http://creativecommons.org/ns#"
   xmlns:rdf="http://www.w3.org/1999/02/22-rdf-syntax-ns#"
   xmlns:svg="http://www.w3.org/2000/svg"
   xmlns="http://www.w3.org/2000/svg"
   xmlns:sodipodi="http://sodipodi.sourceforge.net/DTD/sodipodi-0.dtd"
   xmlns:inkscape="http://www.inkscape.org/namespaces/inkscape"
   width="210mm"
   height="297mm"
   viewBox="0 0 744.09448819 1052.3622047"
   id="svg2"
   version="1.1"
   inkscape:version="0.91 r13725"
   sodipodi:docname="6_2.svg">
  <defs
     id="defs4" />
  <sodipodi:namedview
     id="base"
     pagecolor="#ffffff"
     bordercolor="#666666"
     borderopacity="1.0"
     inkscape:pageopacity="0.0"
     inkscape:pageshadow="2"
     inkscape:zoom="0.9122779"
     inkscape:cx="101.92985"
     inkscape:cy="995.52242"
     inkscape:document-units="px"
     inkscape:current-layer="layer1"
     showgrid="false"
     inkscape:window-width="2560"
     inkscape:window-height="1315"
     inkscape:window-x="0"
     inkscape:window-y="1"
     inkscape:window-maximized="1" />
  <metadata
     id="metadata7">
    <rdf:RDF>
      <cc:Work
         rdf:about="">
        <dc:format>image/svg+xml</dc:format>
        <dc:type
           rdf:resource="http://purl.org/dc/dcmitype/StillImage" />
        <dc:title />
      </cc:Work>
    </rdf:RDF>
  </metadata>
  <g
     inkscape:label="Layer 1"
     inkscape:groupmode="layer"
     id="layer1">
    <path
       style="fill:none;stroke:#000000;stroke-width:1.31592739px;stroke-linecap:butt;stroke-linejoin:miter;stroke-opacity:1"
       d="M  -314.073180332516 , -259.753432485949 C  -338.324742886128 , -365.272346281974 -263.74596273331 , -465.710564986743 -152.480284406402 , -466.72301290459 -41.2146060794946 , -467.735460822437 16.1109635722146 , -384.985291474566 113.277123510193 , -263.430276121978 210.443283448171 , -141.875260769391 297.059545529288 , -73.1853755323835 273.592451697739 , 68.3625112345639 250.125357866191 , 209.910398001511 120.199623181864 , 272.345301372802 0 , 272.345301372802 -120.199623181864 , 272.345301372802 -250.125357866191 , 209.910398001511 -273.592451697739 , 68.3625112345639 -297.059545529288 , -73.1853755323835 -210.443283448171 , -141.875260769391 -113.277123510193 , -263.430276121978 -16.1109635722146 , -384.985291474566 41.2146060794946 , -467.735460822437 152.480284406402 , -466.72301290459 263.74596273331 , -465.710564986743 338.324742886128 , -365.272346281974 314.073180332516 , -259.753432485949 289.821617778904 , -154.234518689924 208.99993966423 , -125.562959205124 114.008017750414 , -52.3740613067915 19.0160958365981 , 20.8148365915415 -37.8230226171361 , 83.7557228395645 -79.3843538763925 , 135.908942188553 -120.945685135649 , 188.062161537541 -225.601104383306 , 324.810197141757 -158.80181226332 , 461.229026004297 -92.0025201433332 , 597.647854866838 92.0025201433332 , 597.647854866838 158.80181226332 , 461.229026004297 225.601104383306 , 324.810197141757 120.945685135649 , 188.062161537541 79.3843538763925 , 135.908942188553 37.8230226171361 , 83.7557228395644 -19.0160958365981 , 20.8148365915415 -114.008017750414 , -52.3740613067915 -208.99993966423 , -125.562959205124 -289.821617778904 , -154.234518689924 -314.073180332516 , -259.753432485949 Z "
       id="path4136"
       inkscape:connector-curvature="0"
       sodipodi:nodetypes="zzzzzzzzzzzzzzzz" />
  </g>
</svg>
