<?xml version="1.0" encoding="UTF-8" standalone="no"?>
<!-- Created with Inkscape (http://www.inkscape.org/) -->

<svg
   xmlns:dc="http://purl.org/dc/elements/1.1/"
   xmlns:cc="http://creativecommons.org/ns#"
   xmlns:rdf="http://www.w3.org/1999/02/22-rdf-syntax-ns#"
   xmlns:svg="http://www.w3.org/2000/svg"
   xmlns="http://www.w3.org/2000/svg"
   xmlns:sodipodi="http://sodipodi.sourceforge.net/DTD/sodipodi-0.dtd"
   xmlns:inkscape="http://www.inkscape.org/namespaces/inkscape"
   width="210mm"
   height="297mm"
   viewBox="0 0 744.09448819 1052.3622047"
   id="svg3588"
   version="1.1"
   inkscape:version="0.91 r13725"
   sodipodi:docname="6_3.svg">
  <defs
     id="defs3590" />
  <sodipodi:namedview
     id="base"
     pagecolor="#ffffff"
     bordercolor="#666666"
     borderopacity="1.0"
     inkscape:pageopacity="0.0"
     inkscape:pageshadow="2"
     inkscape:zoom="0.7413043"
     inkscape:cx="-160.86091"
     inkscape:cy="1021.5807"
     inkscape:document-units="cm"
     inkscape:current-layer="layer1"
     showgrid="false"
     inkscape:window-width="1600"
     inkscape:window-height="835"
     inkscape:window-x="0"
     inkscape:window-y="0"
     inkscape:window-maximized="1" />
  <metadata
     id="metadata3593">
    <rdf:RDF>
      <cc:Work
         rdf:about="">
        <dc:format>image/svg+xml</dc:format>
        <dc:type
           rdf:resource="http://purl.org/dc/dcmitype/StillImage" />
        <dc:title />
      </cc:Work>
    </rdf:RDF>
  </metadata>
  <g
     inkscape:label="Layer 1"
     inkscape:groupmode="layer"
     id="layer1">
    <path
       style="fill:none;stroke:#000000;stroke-width:1.8396765px;stroke-linecap:butt;stroke-linejoin:miter;stroke-opacity:1"
       d="M  292.689867337282 , -93.3679654993751 C  361.243863342952 , 35.1117799963809 366.71134497475 , 120.778740082102 332.973800862871 , 193.579121603964 299.236256750992 , 266.379503125827 227.205866261305 , 315.99564415135 142.591648616178 , 316.183177952928 57.9774309710511 , 316.370711754506 -20.1597413691264 , 267.190139819122 -70.4714431641102 , 169.502596357489 -120.783144959094 , 71.8150528958554 -88.8018265672192 , 30.5456316493932 -170.119886866759 , -45.3394650728965 -251.437947166299 , -121.224561795186 -417.678883093436 , -119.214720611882 -479.342631842819 , 21.5015995118451 -541.006380592203 , 162.217919635572 -437.359391592051 , 267.012441403312 -422.817283437664 , 281.390470690017 -408.275175283276 , 295.768499976723 -323.941575763172 , 376.982014127906 -185.478116118923 , 360.171708505028 -47.0146564746738 , 343.36140288215 29.0818960812664 , 244.41634005056 64.1058856860782 , 156.380684659296 99.12987529089 , 68.345029268032 82.4907787837165 , 17.3973307965692 119.110357664017 , -97.0374521420807 155.729936544318 , -211.472235080731 246.782594217216 , -308.661534896809 365.912152157298 , -298.969945195871 485.04171009738 , -289.278355494932 554.649350751177 , -167.779026132171 500.493138509057 , -60.4169831118261 446.336926266936 , 46.9450599085187 324.812939326248 , 58.8246948400765 210.064037301388 , 60.4301438925569 95.3151352765281 , 62.0355929450374 103.523213062465 , 49.7441454353688 0 , 49.7441454353688 -103.523213062465 , 49.7441454353688 -140.793851545221 , 95.1398221747775 -234.68054330686 , 47.3449517641765 -328.567235068499 , -0.44991864642455 -368.751833348963 , -129.795894883422 -300.881898470198 , -230.242073570927 -233.011963591434 , -330.688252258432 -107.342932371347 , -353.518613716848 0.972171934929999 , -328.088712574792 109.287276241207 , -302.658811432737 224.135871331613 , -221.847710995131 292.689867337282 , -93.3679654993751 Z "
       id="path3596"
       inkscape:connector-curvature="0"
       sodipodi:nodetypes="zzzzzzzzzzzzzzzzzz" />
  </g>
</svg>
