<?xml version="1.0" encoding="UTF-8" standalone="no"?>
<!-- Created with Inkscape (http://www.inkscape.org/) -->

<svg
   xmlns:dc="http://purl.org/dc/elements/1.1/"
   xmlns:cc="http://creativecommons.org/ns#"
   xmlns:rdf="http://www.w3.org/1999/02/22-rdf-syntax-ns#"
   xmlns:svg="http://www.w3.org/2000/svg"
   xmlns="http://www.w3.org/2000/svg"
   xmlns:sodipodi="http://sodipodi.sourceforge.net/DTD/sodipodi-0.dtd"
   xmlns:inkscape="http://www.inkscape.org/namespaces/inkscape"
   width="744.09448819"
   height="1052.3622047"
   id="svg2"
   version="1.1"
   inkscape:version="0.91 r13725"
   sodipodi:docname="7_1.svg">
  <defs
     id="defs4" />
  <sodipodi:namedview
     id="base"
     pagecolor="#ffffff"
     bordercolor="#666666"
     borderopacity="1.0"
     inkscape:pageopacity="0.0"
     inkscape:pageshadow="2"
     inkscape:zoom="1.221285"
     inkscape:cx="-31.243391"
     inkscape:cy="1150.183"
     inkscape:document-units="px"
     inkscape:current-layer="layer1"
     showgrid="false"
     inkscape:window-width="1938"
     inkscape:window-height="1134"
     inkscape:window-x="308"
     inkscape:window-y="447"
     inkscape:window-maximized="0" />
  <metadata
     id="metadata7">
    <rdf:RDF>
      <cc:Work
         rdf:about="">
        <dc:format>image/svg+xml</dc:format>
        <dc:type
           rdf:resource="http://purl.org/dc/dcmitype/StillImage" />
        <dc:title />
      </cc:Work>
    </rdf:RDF>
  </metadata>
  <g
     inkscape:label="Layer 1"
     inkscape:groupmode="layer"
     id="layer1">
    <path
       style="fill:none;stroke:#000000;stroke-width:2.71814513px;stroke-linecap:butt;stroke-linejoin:miter;stroke-opacity:1"
       d="M  241.223837397628 , -328.648417451161 C  324.301041410773 , -316.060398437206 380.299874989471 , -245.840082174144 374.085869057767 , -162.04469936806 367.871863126062 , -78.2493165619759 317.209124035556 , -73.0717696291414 285.65000838778 , 65.1977503740024 254.090892740004 , 203.467270377146 297.489990000538 , 230.11381764626 266.731161877274 , 308.307004957054 235.97233375401 , 386.500192267848 155.051674678519 , 425.469527815781 74.7399634724401 , 400.765093143262 -5.571747733639 , 376.060658470743 0.654037264113782 , 325.516027444727 -127.126213302156 , 263.980301987145 -254.906463868425 , 202.444576529563 -290.542134219631 , 238.826153227318 -359.930371909995 , 191.438892074525 -429.31860960036 , 144.051630921733 -449.304361911381 , 56.4883287751043 -407.348282009263 , -16.3125462785963 -365.392202107145 , -89.1134213322968 -317.500198001262 , -71.7964912603583 -229.073520959129 , -182.680037062501 -140.646843916997 , -293.563582864644 -168.186575880112 , -336.401454984933 -106.547076843963 , -393.505327077025 -44.9075778078135 , -450.609199169116 44.9075778078135 , -450.609199169116 106.547076843963 , -393.505327077025 168.186575880112 , -336.401454984933 140.646843916997 , -293.563582864644 229.073520959129 , -182.680037062501 317.500198001262 , -71.7964912603584 365.392202107145 , -89.113421332297 407.348282009263 , -16.3125462785964 449.304361911381 , 56.4883287751042 429.31860960036 , 144.051630921733 359.930371909995 , 191.438892074525 290.542134219631 , 238.826153227318 254.906463868425 , 202.444576529563 127.126213302156 , 263.980301987145 -0.654037264113697 , 325.516027444727 5.57174773363909 , 376.060658470743 -74.73996347244 , 400.765093143262 -155.051674678519 , 425.469527815781 -235.97233375401 , 386.500192267848 -266.731161877274 , 308.307004957054 -297.489990000538 , 230.11381764626 -254.090892740004 , 203.467270377146 -285.65000838778 , 65.1977503740025 -317.209124035556 , -73.0717696291413 -367.871863126062 , -78.2493165619758 -374.085869057767 , -162.04469936806 -380.299874989471 , -245.840082174144 -324.301041410773 , -316.060398437206 -241.223837397628 , -328.648417451161 -158.146633384483 , -341.236436465115 -141.825378343826 , -292.996030597292 0 , -292.996030597292 141.825378343826 , -292.996030597292 158.146633384482 , -341.236436465115 241.223837397628 , -328.648417451161 Z "
       id="path2990"
       inkscape:connector-curvature="0"
       sodipodi:nodetypes="zzzzzzzzzzzzzzzzzzzzzz" />
  </g>
</svg>
