<?xml version="1.0" encoding="UTF-8" standalone="no"?>
<!-- Created with Inkscape (http://www.inkscape.org/) -->

<svg
   xmlns:dc="http://purl.org/dc/elements/1.1/"
   xmlns:cc="http://creativecommons.org/ns#"
   xmlns:rdf="http://www.w3.org/1999/02/22-rdf-syntax-ns#"
   xmlns:svg="http://www.w3.org/2000/svg"
   xmlns="http://www.w3.org/2000/svg"
   xmlns:sodipodi="http://sodipodi.sourceforge.net/DTD/sodipodi-0.dtd"
   xmlns:inkscape="http://www.inkscape.org/namespaces/inkscape"
   width="210mm"
   height="297mm"
   viewBox="0 0 744.09448819 1052.3622047"
   id="svg4747"
   version="1.1"
   inkscape:version="0.91 r13725"
   sodipodi:docname="7_2.svg">
  <defs
     id="defs4749" />
  <sodipodi:namedview
     id="base"
     pagecolor="#ffffff"
     bordercolor="#666666"
     borderopacity="1.0"
     inkscape:pageopacity="0.0"
     inkscape:pageshadow="2"
     inkscape:zoom="1.0472857"
     inkscape:cx="103.18313"
     inkscape:cy="1060.2426"
     inkscape:document-units="px"
     inkscape:current-layer="layer1"
     showgrid="true"
     inkscape:window-width="1855"
     inkscape:window-height="1056"
     inkscape:window-x="65"
     inkscape:window-y="24"
     inkscape:window-maximized="1">
    <inkscape:grid
       type="xygrid"
       id="grid5297"
       enabled="false" />
  </sodipodi:namedview>
  <metadata
     id="metadata4752">
    <rdf:RDF>
      <cc:Work
         rdf:about="">
        <dc:format>image/svg+xml</dc:format>
        <dc:type
           rdf:resource="http://purl.org/dc/dcmitype/StillImage" />
        <dc:title />
      </cc:Work>
    </rdf:RDF>
  </metadata>
  <g
     inkscape:label="Layer 1"
     inkscape:groupmode="layer"
     id="layer1">
    <path
       style="fill:none;stroke:#000000;stroke-width:1.83504736px;stroke-linecap:butt;stroke-linejoin:miter;stroke-opacity:1"
       d="M  261.869156752163 , -282.463171937133 C  255.134239192302 , -358.716809544011 202.988244385163 , -391.469384828891 193.525369771723 , -397.288743221942 184.062495158283 , -403.108101614994 134.879928838895 , -432.528636225722 67.860659163282 , -409.445467729263 0.841389487669147 , -386.362299232805 -0.0470756254998946 , -347.326209019884 -114.897842791461 , -270.106146500224 -229.748609957421 , -192.886083980564 -272.963022509178 , -213.596156999089 -324.923482876785 , -150.027807075524 -376.883943244393 , -86.4594571519592 -368.579965351597 , -3.0669875797611 -318.4080712384 , 50.6277498330516 -268.236177125203 , 104.322487245864 -217.07322032381 , 99.502552208477 -113.270824973501 , 146.21813536487 -9.4684296231913 , 192.933718521262 49.3804171622436 , 249.423991758348 45.6774728481281 , 333.740551590321 41.9745285340125 , 418.057111422294 -29.8882421899812 , 489.466830906549 -117.847973457776 , 476.716692777773 -205.80770472557 , 463.966554648997 -273.810874323077 , 378.419775753469 -275.110813304986 , 253.230049629174 -276.410752286896 , 128.040323504879 -215.302475507085 , 89.5717682545522 -219.478723307698 , -49.3287676912967 -223.65497110831 , -188.229303637146 -268.604074312024 , -206.209534330255 -261.869156752163 , -282.463171937133 -255.134239192302 , -358.716809544011 -202.988244385163 , -391.469384828891 -193.525369771723 , -397.288743221942 -184.062495158283 , -403.108101614994 -134.879928838895 , -432.528636225722 -67.860659163282 , -409.445467729263 -0.841389487669147 , -386.362299232805 0.0470756254999003 , -347.326209019884 114.897842791461 , -270.106146500224 229.748609957421 , -192.886083980564 272.963022509178 , -213.596156999089 324.923482876785 , -150.027807075524 376.883943244393 , -86.4594571519592 368.579965351597 , -3.0669875797611 318.4080712384 , 50.6277498330516 268.236177125203 , 104.322487245864 217.07322032381 , 99.502552208477 113.270824973501 , 146.21813536487 9.4684296231913 , 192.933718521262 -49.3804171622436 , 249.423991758348 -45.6774728481281 , 333.740551590321 -41.9745285340125 , 418.057111422294 29.8882421899812 , 489.466830906549 117.847973457776 , 476.716692777773 205.80770472557 , 463.966554648997 273.810874323077 , 378.419775753469 275.110813304986 , 253.230049629174 276.410752286896 , 128.040323504879 215.302475507085 , 89.5717682545522 219.478723307698 , -49.3287676912967 223.65497110831 , -188.229303637146 268.604074312024 , -206.209534330255 261.869156752163 , -282.463171937133 Z "
       id="path5295"
       inkscape:connector-curvature="0"
       sodipodi:nodetypes="zzzzzzzzzzzzzzzzzzzzzzz" />
  </g>
</svg>
