<?xml version="1.0" encoding="UTF-8" standalone="no"?>
<!-- Created with Inkscape (http://www.inkscape.org/) -->

<svg
   xmlns:dc="http://purl.org/dc/elements/1.1/"
   xmlns:cc="http://creativecommons.org/ns#"
   xmlns:rdf="http://www.w3.org/1999/02/22-rdf-syntax-ns#"
   xmlns:svg="http://www.w3.org/2000/svg"
   xmlns="http://www.w3.org/2000/svg"
   xmlns:sodipodi="http://sodipodi.sourceforge.net/DTD/sodipodi-0.dtd"
   xmlns:inkscape="http://www.inkscape.org/namespaces/inkscape"
   width="744.09448819"
   height="1052.3622047"
   id="svg2"
   version="1.1"
   inkscape:version="0.91 r13725"
   sodipodi:docname="7_3.svg">
  <defs
     id="defs4" />
  <sodipodi:namedview
     id="base"
     pagecolor="#ffffff"
     bordercolor="#666666"
     borderopacity="1.0"
     inkscape:pageopacity="0.0"
     inkscape:pageshadow="2"
     inkscape:zoom="0.52948768"
     inkscape:cx="-188.83057"
     inkscape:cy="1342.7727"
     inkscape:document-units="px"
     inkscape:current-layer="layer1"
     showgrid="false"
     inkscape:window-width="479"
     inkscape:window-height="405"
     inkscape:window-x="595"
     inkscape:window-y="428"
     inkscape:window-maximized="0" />
  <metadata
     id="metadata7">
    <rdf:RDF>
      <cc:Work
         rdf:about="">
        <dc:format>image/svg+xml</dc:format>
        <dc:type
           rdf:resource="http://purl.org/dc/dcmitype/StillImage" />
        <dc:title />
      </cc:Work>
    </rdf:RDF>
  </metadata>
  <g
     inkscape:label="Layer 1"
     inkscape:groupmode="layer"
     id="layer1">
    <path
       style="fill:none;stroke:#000000;stroke-width:1.52864242px;stroke-linecap:butt;stroke-linejoin:miter;stroke-opacity:1"
       d="M  -128.772905486351 , 572.293608360521 C  -2.45869103234577 , 599.859131546083 61.3130636374816 , 477.358563239944 40.8238586022698 , 404.43354833233 20.3346535670581 , 331.508533424717 -17.1311956776691 , 331.553086961697 -37.3114089798816 , 277.042597654282 -57.4916222820942 , 222.532108346867 -44.3763203178768 , 183.253983839403 -38.951177058207 , 168.884687588701 -33.5260337985371 , 154.515391337999 -12.4215106943253 , 101.318352885434 86.5833324884585 , 48.7222397534296 185.588175671242 , -3.87387337857453 230.442555960381 , -12.2529099653 267.578939539585 , -65.5312844089802 304.71532311879 , -118.80965885266 291.643575551554 , -169.580130298031 288.346603194531 , -181.171763519977 285.049630837509 , -192.763396741923 269.655718080407 , -242.336929726096 210.230077731419 , -267.996894690754 150.804437382432 , -293.656859655413 119.718060924607 , -272.641933928699 0 , -272.641933928699 -119.718060924607 , -272.641933928699 -150.804437382432 , -293.656859655413 -210.230077731419 , -267.996894690754 -269.655718080407 , -242.336929726096 -285.049630837509 , -192.763396741923 -288.346603194531 , -181.171763519977 -291.643575551554 , -169.580130298031 -304.71532311879 , -118.80965885266 -267.578939539585 , -65.5312844089802 -230.442555960381 , -12.2529099653 -185.588175671242 , -3.87387337857453 -86.5833324884585 , 48.7222397534296 12.4215106943253 , 101.318352885434 33.5260337985371 , 154.515391337999 38.951177058207 , 168.884687588701 44.3763203178768 , 183.253983839403 57.4916222820942 , 222.532108346867 37.3114089798816 , 277.042597654282 17.1311956776691 , 331.553086961697 -20.3346535670581 , 331.508533424717 -40.8238586022698 , 404.43354833233 -61.3130636374816 , 477.358563239944 2.45869103234577 , 599.859131546083 128.772905486351 , 572.293608360521 255.087119940356 , 544.728085174959 283.604852874604 , 401.68681687431 287.89335179612 , 378.71079644355 292.181850717635 , 355.734776012789 305.068147415652 , 280.406366727535 272.894458972495 , 156.50018166984 240.720770529338 , 32.5939966121439 183.638141928894 , -11.145517574885 150.983619858996 , -138.897628361999 118.329097789098 , -266.649739149113 141.0508610753 , -299.72154685535 103.42621729942 , -356.852049770757 65.8015735235397 , -413.982552686165 10.862059849403 , -414.975017931768 0 , -414.975017931768 -10.862059849403 , -414.975017931768 -65.8015735235397 , -413.982552686165 -103.42621729942 , -356.852049770757 -141.0508610753 , -299.72154685535 -118.329097789098 , -266.649739149113 -150.983619858996 , -138.897628361999 -183.638141928894 , -11.145517574885 -240.720770529338 , 32.5939966121439 -272.894458972495 , 156.50018166984 -305.068147415652 , 280.406366727535 -292.181850717635 , 355.734776012789 -287.89335179612 , 378.71079644355 -283.604852874604 , 401.68681687431 -255.087119940356 , 544.728085174959 -128.772905486351 , 572.293608360521 Z "
       id="path2985"
       inkscape:connector-curvature="0"
       sodipodi:nodetypes="zzzzzzzzzzzzzzzzzzzzzzzzzzz" />
  </g>
</svg>
