<?xml version="1.0" encoding="UTF-8" standalone="no"?>
<!-- Created with Inkscape (http://www.inkscape.org/) -->

<svg
   xmlns:dc="http://purl.org/dc/elements/1.1/"
   xmlns:cc="http://creativecommons.org/ns#"
   xmlns:rdf="http://www.w3.org/1999/02/22-rdf-syntax-ns#"
   xmlns:svg="http://www.w3.org/2000/svg"
   xmlns="http://www.w3.org/2000/svg"
   xmlns:sodipodi="http://sodipodi.sourceforge.net/DTD/sodipodi-0.dtd"
   xmlns:inkscape="http://www.inkscape.org/namespaces/inkscape"
   width="210mm"
   height="297mm"
   viewBox="0 0 744.09448819 1052.3622047"
   id="svg2"
   version="1.1"
   inkscape:version="0.91 r13725"
   sodipodi:docname="7_4.svg">
  <defs
     id="defs4" />
  <sodipodi:namedview
     id="base"
     pagecolor="#ffffff"
     bordercolor="#666666"
     borderopacity="1.0"
     inkscape:pageopacity="0.0"
     inkscape:pageshadow="2"
     inkscape:zoom="1.1301279"
     inkscape:cx="124.284"
     inkscape:cy="1049.6217"
     inkscape:document-units="px"
     inkscape:current-layer="layer1"
     showgrid="false"
     inkscape:window-width="2560"
     inkscape:window-height="1315"
     inkscape:window-x="0"
     inkscape:window-y="1"
     inkscape:window-maximized="1" />
  <metadata
     id="metadata7">
    <rdf:RDF>
      <cc:Work
         rdf:about="">
        <dc:format>image/svg+xml</dc:format>
        <dc:type
           rdf:resource="http://purl.org/dc/dcmitype/StillImage" />
        <dc:title />
      </cc:Work>
    </rdf:RDF>
  </metadata>
  <g
     inkscape:label="Layer 1"
     inkscape:groupmode="layer"
     id="layer1">
    <path
       style="fill:none;stroke:#000000;stroke-width:1px;stroke-linecap:butt;stroke-linejoin:miter;stroke-opacity:1"
       d="M  244.479398563143 , 0 C  244.479398563143 , 117.625624209467 181.317604466553 , 162.897037418209 105.984462420352 , 260.926724919297 30.6513203741519 , 358.956412420385 -16.37907881448 , 435.098305391264 -104.462616273794 , 448.971368044177 -192.546153733108 , 462.844430697091 -281.937308302684 , 395.313139803017 -271.453224101218 , 289.98578862427 -260.969139899752 , 184.658437445523 -181.5667768673 , 154.96915368829 -92.230635862095 , 82.9155876661365 -2.89449485689008 , 10.8620216439829 2.89449485689006 , -10.8620216439829 92.230635862095 , -82.9155876661365 181.5667768673 , -154.96915368829 260.969139899752 , -184.658437445523 271.453224101218 , -289.98578862427 281.937308302684 , -395.313139803017 192.546153733108 , -462.844430697091 104.462616273794 , -448.971368044177 16.37907881448 , -435.098305391264 -30.6513203741519 , -358.956412420385 -105.984462420352 , -260.926724919297 -181.317604466553 , -162.897037418209 -244.479398563143 , -117.625624209467 -244.479398563143 , 0 -244.479398563143 , 117.625624209467 -181.317604466553 , 162.897037418209 -105.984462420352 , 260.926724919297 -30.6513203741519 , 358.956412420385 16.37907881448 , 435.098305391264 104.462616273794 , 448.971368044177 192.546153733108 , 462.844430697091 281.937308302684 , 395.313139803017 271.453224101218 , 289.98578862427 260.969139899752 , 184.658437445523 181.5667768673 , 154.96915368829 92.230635862095 , 82.9155876661365 2.89449485689008 , 10.8620216439829 -2.89449485689007 , -10.8620216439829 -92.230635862095 , -82.9155876661365 -181.5667768673 , -154.96915368829 -260.969139899752 , -184.658437445523 -271.453224101218 , -289.98578862427 -281.937308302684 , -395.313139803017 -192.546153733108 , -462.844430697091 -104.462616273794 , -448.971368044177 -16.37907881448 , -435.098305391264 30.6513203741519 , -358.956412420385 105.984462420352 , -260.926724919297 181.317604466553 , -162.897037418209 244.479398563143 , -117.625624209467 244.479398563143 , 0 Z "
       id="path4136"
       inkscape:connector-curvature="0"
       sodipodi:nodetypes="zzzzzzzzzzzzzzzzzzz" />
  </g>
</svg>
