<?xml version="1.0" encoding="UTF-8" standalone="no"?>
<!-- Created with Inkscape (http://www.inkscape.org/) -->

<svg
   xmlns:dc="http://purl.org/dc/elements/1.1/"
   xmlns:cc="http://creativecommons.org/ns#"
   xmlns:rdf="http://www.w3.org/1999/02/22-rdf-syntax-ns#"
   xmlns:svg="http://www.w3.org/2000/svg"
   xmlns="http://www.w3.org/2000/svg"
   xmlns:sodipodi="http://sodipodi.sourceforge.net/DTD/sodipodi-0.dtd"
   xmlns:inkscape="http://www.inkscape.org/namespaces/inkscape"
   width="210mm"
   height="297mm"
   viewBox="0 0 744.09448819 1052.3622047"
   id="svg2"
   version="1.1"
   inkscape:version="0.91 r13725"
   sodipodi:docname="7_4.svg">
  <defs
     id="defs4" />
  <sodipodi:namedview
     id="base"
     pagecolor="#ffffff"
     bordercolor="#666666"
     borderopacity="1.0"
     inkscape:pageopacity="0.0"
     inkscape:pageshadow="2"
     inkscape:zoom="1.1301279"
     inkscape:cx="124.284"
     inkscape:cy="1049.6217"
     inkscape:document-units="px"
     inkscape:current-layer="layer1"
     showgrid="false"
     inkscape:window-width="2560"
     inkscape:window-height="1315"
     inkscape:window-x="0"
     inkscape:window-y="1"
     inkscape:window-maximized="1" />
  <metadata
     id="metadata7">
    <rdf:RDF>
      <cc:Work
         rdf:about="">
        <dc:format>image/svg+xml</dc:format>
        <dc:type
           rdf:resource="http://purl.org/dc/dcmitype/StillImage" />
        <dc:title />
      </cc:Work>
    </rdf:RDF>
  </metadata>
  <g
     inkscape:label="Layer 1"
     inkscape:groupmode="layer"
     id="layer1">
    <path
       style="fill:none;stroke:#000000;stroke-width:1px;stroke-linecap:butt;stroke-linejoin:miter;stroke-opacity:1"
       d="M  240.691436192265 , 0 C  240.691436192265 , 106.270694514574 191.342660193195 , 170.927920578633 104.913215751526 , 286.489719768126 18.4837713098574 , 402.051518957619 -45.332257542952 , 457.62111906855 -131.065200710991 , 451.158121456183 -216.79814387903 , 444.695123843816 -279.626623941886 , 369.240739290678 -266.628201199231 , 279.074827298923 -253.629778456576 , 188.908915307168 -186.766657683402 , 148.549998015982 -93.3637423104262 , 76.7705117460031 0.0391730625492528 , 4.99102547602402 -0.0391730625492386 , -4.99102547602401 93.3637423104262 , -76.7705117460031 186.766657683402 , -148.549998015982 253.629778456576 , -188.908915307168 266.628201199231 , -279.074827298923 279.626623941886 , -369.240739290678 216.79814387903 , -444.695123843816 131.065200710991 , -451.158121456183 45.332257542952 , -457.62111906855 -18.4837713098574 , -402.051518957619 -104.913215751526 , -286.489719768126 -191.342660193195 , -170.927920578633 -240.691436192265 , -106.270694514574 -240.691436192265 , 0 -240.691436192265 , 106.270694514574 -191.342660193195 , 170.927920578633 -104.913215751526 , 286.489719768126 -18.4837713098574 , 402.051518957619 45.332257542952 , 457.62111906855 131.065200710991 , 451.158121456183 216.79814387903 , 444.695123843816 279.626623941886 , 369.240739290678 266.628201199231 , 279.074827298923 253.629778456576 , 188.908915307168 186.766657683402 , 148.549998015982 93.3637423104262 , 76.7705117460031 -0.0391730625492528 , 4.99102547602402 0.0391730625492323 , -4.991025476024 -93.3637423104262 , -76.7705117460031 -186.766657683402 , -148.549998015982 -253.629778456576 , -188.908915307168 -266.628201199231 , -279.074827298923 -279.626623941886 , -369.240739290678 -216.79814387903 , -444.695123843816 -131.065200710991 , -451.158121456183 -45.332257542952 , -457.62111906855 18.4837713098574 , -402.051518957619 104.913215751526 , -286.489719768126 191.342660193195 , -170.927920578633 240.691436192265 , -106.270694514574 240.691436192265 , 0 Z "
       id="path4136"
       inkscape:connector-curvature="0"
       sodipodi:nodetypes="zzzzzzzzzzzzzzzzzzz" />
  </g>
</svg>
