<?xml version="1.0" encoding="UTF-8" standalone="no"?>
<!-- Created with Inkscape (http://www.inkscape.org/) -->

<svg
   xmlns:dc="http://purl.org/dc/elements/1.1/"
   xmlns:cc="http://creativecommons.org/ns#"
   xmlns:rdf="http://www.w3.org/1999/02/22-rdf-syntax-ns#"
   xmlns:svg="http://www.w3.org/2000/svg"
   xmlns="http://www.w3.org/2000/svg"
   xmlns:sodipodi="http://sodipodi.sourceforge.net/DTD/sodipodi-0.dtd"
   xmlns:inkscape="http://www.inkscape.org/namespaces/inkscape"
   width="210mm"
   height="297mm"
   viewBox="0 0 744.09448819 1052.3622047"
   id="svg2"
   version="1.1"
   inkscape:version="0.91 r13725"
   sodipodi:docname="7_4_experimental.svg">
  <defs
     id="defs4" />
  <sodipodi:namedview
     id="base"
     pagecolor="#ffffff"
     bordercolor="#666666"
     borderopacity="1.0"
     inkscape:pageopacity="0.0"
     inkscape:pageshadow="2"
     inkscape:zoom="1.2901558"
     inkscape:cx="95.992843"
     inkscape:cy="1049.6217"
     inkscape:document-units="px"
     inkscape:current-layer="layer1"
     showgrid="false"
     inkscape:window-width="2560"
     inkscape:window-height="1315"
     inkscape:window-x="896"
     inkscape:window-y="97"
     inkscape:window-maximized="0" />
  <metadata
     id="metadata7">
    <rdf:RDF>
      <cc:Work
         rdf:about="">
        <dc:format>image/svg+xml</dc:format>
        <dc:type
           rdf:resource="http://purl.org/dc/dcmitype/StillImage" />
        <dc:title />
      </cc:Work>
    </rdf:RDF>
  </metadata>
  <g
     inkscape:label="Layer 1"
     inkscape:groupmode="layer"
     id="layer1">
    <path
       style="fill:none;stroke:#000000;stroke-width:1px;stroke-linecap:butt;stroke-linejoin:miter;stroke-opacity:1"
       d="M -5.3535984,-233.2883 C 73.645669,-237.15158 167.93546,-144.15692 228.75321,-78.840079 289.57096,-13.523237 347.39636,63.313407 369.50484,114.23712 391.61333,165.16083 409.05988,279.88815 304.16463,277.58589 199.26938,275.28364 -183.40745,-231.23275 -289.4822,-230.3414 -395.55695,-229.45006 -366.2171,-128.25636 -341.643,-79.341949 -317.0689,-30.427542 -233.97244,71.513785 -189.4531,130.62829 -144.93376,189.74279 -90.155284,279.2155 -5.3535956,277.8983 79.448093,276.58111 193.0998,151.41386 238.52793,94.627147 283.95606,37.840434 345.50347,-74.972636 364.63161,-106.55664 383.75975,-138.14064 394.76245,-226.58237 318.09391,-229.30713 241.42536,-232.0319 -156.97891,273.12532 -279.96308,277.52019 -402.94724,281.91507 -350.55544,161.36027 -324.66929,107.46066 -298.78314,53.561048 -266.06959,-37.689227 -232.43129,-79.649225 -198.79299,-121.60923 -84.352866,-229.42502 -5.3535984,-233.2883 Z"
       id="path4136"
       inkscape:connector-curvature="0"
       sodipodi:nodetypes="zzzzzzzzzzzzzzz" />
  </g>
</svg>
