<?xml version="1.0" encoding="UTF-8" standalone="no"?>
<!-- Created with Inkscape (http://www.inkscape.org/) -->

<svg
   xmlns:dc="http://purl.org/dc/elements/1.1/"
   xmlns:cc="http://creativecommons.org/ns#"
   xmlns:rdf="http://www.w3.org/1999/02/22-rdf-syntax-ns#"
   xmlns:svg="http://www.w3.org/2000/svg"
   xmlns="http://www.w3.org/2000/svg"
   xmlns:sodipodi="http://sodipodi.sourceforge.net/DTD/sodipodi-0.dtd"
   xmlns:inkscape="http://www.inkscape.org/namespaces/inkscape"
   width="744.09448819"
   height="1052.3622047"
   id="svg2"
   version="1.1"
   inkscape:version="0.48.4 r9939"
   sodipodi:docname="7_5.svg">
  <defs
     id="defs4" />
  <sodipodi:namedview
     id="base"
     pagecolor="#ffffff"
     bordercolor="#666666"
     borderopacity="1.0"
     inkscape:pageopacity="0.0"
     inkscape:pageshadow="2"
     inkscape:zoom="0.5294877"
     inkscape:cx="339.98249"
     inkscape:cy="1002.8215"
     inkscape:document-units="px"
     inkscape:current-layer="layer1"
     showgrid="false"
     inkscape:window-width="1545"
     inkscape:window-height="817"
     inkscape:window-x="49"
     inkscape:window-y="0"
     inkscape:window-maximized="0" />
  <metadata
     id="metadata7">
    <rdf:RDF>
      <cc:Work
         rdf:about="">
        <dc:format>image/svg+xml</dc:format>
        <dc:type
           rdf:resource="http://purl.org/dc/dcmitype/StillImage" />
        <dc:title />
      </cc:Work>
    </rdf:RDF>
  </metadata>
  <g
     inkscape:label="Layer 1"
     inkscape:groupmode="layer"
     id="layer1">
    <path
       style="fill:none;stroke:#000000;stroke-width:1.49531233px;stroke-linecap:butt;stroke-linejoin:miter;stroke-opacity:1"
       d="M  -237.640373886506 , -123.812540205056 C  -206.827900877296 , -197.170327258051 -173.644681235171 , -224.668316167417 -93.4536948820439 , -329.14338837006 -13.2627085289172 , -433.618460572703 36.4961972923905 , -500.981342155572 126.946694267986 , -497.411430433621 217.397191243582 , -493.841518711669 273.477034242217 , -408.017536304532 247.698171441922 , -324.278876297744 221.919308641627 , -240.540216290956 150.614654525787 , -208.19064343362 79.3003922480651 , -154.780315698391 7.98612997034286 , -101.369987963163 -61.1558083510739 , -49.4477503758973 -52.2254155927614 , 43.3270616810525 -43.2950228344489 , 136.101873738002 11.8737440688761 , 156.870367361877 62.7846695251462 , 219.54631912375 113.695594981416 , 282.222270885624 174.553152157526 , 381.042001716448 121.216699664085 , 480.735407184919 67.880247170644 , 580.42881265339 -67.880247170644 , 580.42881265339 -121.216699664085 , 480.735407184919 -174.553152157526 , 381.042001716448 -113.695594981416 , 282.222270885624 -62.7846695251462 , 219.54631912375 -11.8737440688761 , 156.870367361877 43.2950228344489 , 136.101873738002 52.2254155927614 , 43.3270616810525 61.1558083510739 , -49.4477503758973 -7.98612997034286 , -101.369987963163 -79.3003922480651 , -154.780315698391 -150.614654525787 , -208.19064343362 -221.919308641627 , -240.540216290956 -247.698171441922 , -324.278876297744 -273.477034242217 , -408.017536304532 -217.397191243582 , -493.841518711669 -126.946694267986 , -497.411430433621 -36.4961972923905 , -500.981342155572 13.2627085289172 , -433.618460572703 93.4536948820439 , -329.14338837006 173.644681235171 , -224.668316167417 206.827900877296 , -197.170327258051 237.640373886506 , -123.812540205056 268.452846895716 , -50.4547531520611 288.999215713497 , 60.6022560914037 240.586397123995 , 171.818688465084 192.173578534492 , 283.035120838764 95.5291189623822 , 330.460311684692 0 , 330.460311684692 -95.5291189623822 , 330.460311684692 -192.173578534492 , 283.035120838764 -240.586397123995 , 171.818688465084 -288.999215713497 , 60.6022560914037 -268.452846895716 , -50.4547531520611 -237.640373886506 , -123.812540205056 Z "
       id="path2985"
       inkscape:connector-curvature="0"
       sodipodi:nodetypes="zzzzzzzzzzzzzzzzzzzz" />
  </g>
</svg>
