<?xml version="1.0" encoding="UTF-8" standalone="no"?>
<!-- Created with Inkscape (http://www.inkscape.org/) -->

<svg
   xmlns:dc="http://purl.org/dc/elements/1.1/"
   xmlns:cc="http://creativecommons.org/ns#"
   xmlns:rdf="http://www.w3.org/1999/02/22-rdf-syntax-ns#"
   xmlns:svg="http://www.w3.org/2000/svg"
   xmlns="http://www.w3.org/2000/svg"
   xmlns:sodipodi="http://sodipodi.sourceforge.net/DTD/sodipodi-0.dtd"
   xmlns:inkscape="http://www.inkscape.org/namespaces/inkscape"
   width="744.09448819"
   height="1052.3622047"
   id="svg3078"
   version="1.1"
   inkscape:version="0.92.2 5c3e80d, 2017-08-06"
   sodipodi:docname="7_6.svg">
  <defs
     id="defs3080" />
  <sodipodi:namedview
     id="base"
     pagecolor="#ffffff"
     bordercolor="#666666"
     borderopacity="1.0"
     inkscape:pageopacity="0.0"
     inkscape:pageshadow="2"
     inkscape:zoom="0.79160156"
     inkscape:cx="31.620428"
     inkscape:cy="996.05306"
     inkscape:document-units="px"
     inkscape:current-layer="layer1"
     showgrid="false"
     inkscape:window-width="2560"
     inkscape:window-height="1315"
     inkscape:window-x="0"
     inkscape:window-y="1"
     inkscape:window-maximized="1" />
  <metadata
     id="metadata3083">
    <rdf:RDF>
      <cc:Work
         rdf:about="">
        <dc:format>image/svg+xml</dc:format>
        <dc:type
           rdf:resource="http://purl.org/dc/dcmitype/StillImage" />
        <dc:title />
      </cc:Work>
    </rdf:RDF>
  </metadata>
  <g
     inkscape:label="Layer 1"
     inkscape:groupmode="layer"
     id="layer1">
    <path
       style="fill:none;stroke:#000000;stroke-width:2.07035899px;stroke-linecap:butt;stroke-linejoin:miter;stroke-opacity:1"
       d="M  -98.8196266331301 , -339.818978420163 C  -298.511683607107 , -306.598620568076 -299.845214212797 , -121.060635452808 -236.363194770377 , -36.3533998091935 -172.881175327956 , 48.3538358344214 -81.5044874112005 , 43.8224152538253 0 , 43.8224152538253 81.5044874112005 , 43.8224152538253 95.5726155776489 , 42.6871939043962 188.142154017497 , 37.1764898594699 280.711692457346 , 31.6657858145436 364.420668944228 , 36.405919213897 425.681371817692 , -37.5793169929303 486.942074691157 , -111.564553199758 471.594511822278 , -236.11309568021 360.226193717372 , -276.089417998923 248.857875612466 , -316.065740317635 141.121792979145 , -233.067054699064 106.928503954874 , -127.088774738252 72.7352149306037 , -21.1104947774396 87.1447852330059 , 77.9591905876754 96.0908620136561 , 162.509183148727 105.036938794306 , 247.059175709778 126.300840252299 , 321.124865369467 71.2741725796564 , 393.032434939966 16.2475049070135 , 464.940004510465 -94.1269244468447 , 473.778421291675 -154.717091729761 , 392.410814689989 -215.307259012677 , 311.043208088304 -179.690784224194 , 217.990313569043 -153.923432400215 , 139.587383612153 -128.156080576236 , 61.1844536552621 -85.9041780619583 , -28.4399548845514 -157.286812838845 , -116.800271721685 -228.669447615731 , -205.160588558818 -443.640932450001 , -212.764744874141 -433.311227086639 , 15.8619553312011 -422.981521723278 , 244.488655536543 -106.34532577947 , 256.506513460394 -8.20849555927588 , 259.556332544225 89.9283346609185 , 262.606151628055 182.252203067589 , 273.120676664705 253.981721165594 , 189.091164304665 325.7112392636 , 105.061651944626 301.636305958168 , 2.94720896212083 262.93365862826 , -94.6453586415061 224.231011298352 , -192.237926245133 100.872430340847 , -373.039336272249 -98.8196266331301 , -339.818978420163 Z "
       id="path3086"
       inkscape:connector-curvature="0"
       sodipodi:nodetypes="zzzzzzzzzzzzzzzzz" />
    <path
       sodipodi:nodetypes="zzzzzzzzzzzzzzzzz"
       inkscape:connector-curvature="0"
       id="path1405"
       d="M 646.50483,-569.73262 C 446.81277,-536.51227 445.47924,-350.97428 508.96126,-266.26704 572.44328,-181.55981 663.81997,-186.09123 745.32445,-186.09123 826.82894,-186.09123 840.89707,-187.22645 933.46661,-192.73715 1026.0361,-198.24786 1109.7451,-193.50773 1171.0058,-267.49296 1232.2665,-341.4782 1216.919,-466.02674 1105.5506,-506.00306 994.18233,-545.97939 886.44625,-462.9807 852.25296,-357.00242 818.05967,-251.02414 832.46924,-151.95445 841.41531,-67.404462 850.36139,17.145531 871.62529,91.211221 816.59863,163.11879 761.57196,235.02636 651.19753,243.86478 590.60736,162.49717 530.01719,81.129563 565.63367,-11.923331 591.40102,-90.326261 617.16837,-168.72919 659.42027,-258.3536 588.03764,-346.71392 516.65501,-435.07423 301.68352,-442.67839 312.01323,-214.05169 322.34293,14.575011 638.97913,26.592869 737.11596,29.642688 835.25279,32.692507 927.57666,43.207032 999.30617,-40.82248 1071.0357,-124.85199 1046.9608,-226.96644 1008.2581,-324.559 969.55546,-422.15157 846.19688,-602.95298 646.50483,-569.73262 Z"
       style="fill:none;stroke:#000000;stroke-width:2.07035899px;stroke-linecap:butt;stroke-linejoin:miter;stroke-opacity:1" />
  </g>
</svg>
