<?xml version="1.0" encoding="UTF-8" standalone="no"?>
<!-- Created with Inkscape (http://www.inkscape.org/) -->

<svg
   xmlns:dc="http://purl.org/dc/elements/1.1/"
   xmlns:cc="http://creativecommons.org/ns#"
   xmlns:rdf="http://www.w3.org/1999/02/22-rdf-syntax-ns#"
   xmlns:svg="http://www.w3.org/2000/svg"
   xmlns="http://www.w3.org/2000/svg"
   xmlns:sodipodi="http://sodipodi.sourceforge.net/DTD/sodipodi-0.dtd"
   xmlns:inkscape="http://www.inkscape.org/namespaces/inkscape"
   width="744.09448819"
   height="1052.3622047"
   id="svg3078"
   version="1.1"
   inkscape:version="0.48.4 r9939"
   sodipodi:docname="7_6.svg">
  <defs
     id="defs3080" />
  <sodipodi:namedview
     id="base"
     pagecolor="#ffffff"
     bordercolor="#666666"
     borderopacity="1.0"
     inkscape:pageopacity="0.0"
     inkscape:pageshadow="2"
     inkscape:zoom="0.98994949"
     inkscape:cx="375"
     inkscape:cy="894.99212"
     inkscape:document-units="px"
     inkscape:current-layer="layer1"
     showgrid="false"
     inkscape:window-width="1600"
     inkscape:window-height="824"
     inkscape:window-x="-3"
     inkscape:window-y="-3"
     inkscape:window-maximized="1" />
  <metadata
     id="metadata3083">
    <rdf:RDF>
      <cc:Work
         rdf:about="">
        <dc:format>image/svg+xml</dc:format>
        <dc:type
           rdf:resource="http://purl.org/dc/dcmitype/StillImage" />
        <dc:title />
      </cc:Work>
    </rdf:RDF>
  </metadata>
  <g
     inkscape:label="Layer 1"
     inkscape:groupmode="layer"
     id="layer1">
    <path
       style="fill:none;stroke:#000000;stroke-width:2.07035899px;stroke-linecap:butt;stroke-linejoin:miter;stroke-opacity:1"
       d="M  -98.8196266331301 , -339.818978420163 C  -298.511683607107 , -306.598620568076 -299.845214212797 , -121.060635452808 -236.363194770377 , -36.3533998091935 -172.881175327956 , 48.3538358344214 -81.5044874112005 , 43.8224152538253 0 , 43.8224152538253 81.5044874112005 , 43.8224152538253 95.5726155776489 , 42.6871939043962 188.142154017497 , 37.1764898594699 280.711692457346 , 31.6657858145436 364.420668944228 , 36.405919213897 425.681371817692 , -37.5793169929303 486.942074691157 , -111.564553199758 471.594511822278 , -236.11309568021 360.226193717372 , -276.089417998923 248.857875612466 , -316.065740317635 141.121792979145 , -233.067054699064 106.928503954874 , -127.088774738252 72.7352149306037 , -21.1104947774396 87.1447852330059 , 77.9591905876754 96.0908620136561 , 162.509183148727 105.036938794306 , 247.059175709778 126.300840252299 , 321.124865369467 71.2741725796564 , 393.032434939966 16.2475049070135 , 464.940004510465 -94.1269244468447 , 473.778421291675 -154.717091729761 , 392.410814689989 -215.307259012677 , 311.043208088304 -179.690784224194 , 217.990313569043 -153.923432400215 , 139.587383612153 -128.156080576236 , 61.1844536552621 -85.9041780619583 , -28.4399548845514 -157.286812838845 , -116.800271721685 -228.669447615731 , -205.160588558818 -443.640932450001 , -212.764744874141 -433.311227086639 , 15.8619553312011 -422.981521723278 , 244.488655536543 -106.34532577947 , 256.506513460394 -8.20849555927588 , 259.556332544225 89.9283346609185 , 262.606151628055 182.252203067589 , 273.120676664705 253.981721165594 , 189.091164304665 325.7112392636 , 105.061651944626 301.636305958168 , 2.94720896212083 262.93365862826 , -94.6453586415061 224.231011298352 , -192.237926245133 100.872430340847 , -373.039336272249 -98.8196266331301 , -339.818978420163 Z "
       id="path3086"
       inkscape:connector-curvature="0"
       sodipodi:nodetypes="zzzzzzzzzzzzzzzzz" />
  </g>
</svg>
