<?xml version="1.0" encoding="UTF-8" standalone="no"?>
<!-- Created with Inkscape (http://www.inkscape.org/) -->

<svg
   xmlns:dc="http://purl.org/dc/elements/1.1/"
   xmlns:cc="http://creativecommons.org/ns#"
   xmlns:rdf="http://www.w3.org/1999/02/22-rdf-syntax-ns#"
   xmlns:svg="http://www.w3.org/2000/svg"
   xmlns="http://www.w3.org/2000/svg"
   xmlns:sodipodi="http://sodipodi.sourceforge.net/DTD/sodipodi-0.dtd"
   xmlns:inkscape="http://www.inkscape.org/namespaces/inkscape"
   width="744.09448819"
   height="1052.3622047"
   id="svg2"
   version="1.1"
   inkscape:version="0.91 r13725"
   sodipodi:docname="7_7.svg">
  <defs
     id="defs4" />
  <sodipodi:namedview
     id="base"
     pagecolor="#ffffff"
     bordercolor="#666666"
     borderopacity="1.0"
     inkscape:pageopacity="0.0"
     inkscape:pageshadow="2"
     inkscape:zoom="0.28622754"
     inkscape:cx="373.87288"
     inkscape:cy="520"
     inkscape:document-units="px"
     inkscape:current-layer="layer1"
     showgrid="false"
     inkscape:window-width="1402"
     inkscape:window-height="1181"
     inkscape:window-x="1626"
     inkscape:window-y="205"
     inkscape:window-maximized="0" />
  <metadata
     id="metadata7">
    <rdf:RDF>
      <cc:Work
         rdf:about="">
        <dc:format>image/svg+xml</dc:format>
        <dc:type
           rdf:resource="http://purl.org/dc/dcmitype/StillImage" />
        <dc:title />
      </cc:Work>
    </rdf:RDF>
  </metadata>
  <g
     inkscape:label="Layer 1"
     inkscape:groupmode="layer"
     id="layer1">
    <path
       style="fill:none;stroke:#000000;stroke-width:0.63924879px;stroke-linecap:butt;stroke-linejoin:miter;stroke-opacity:1"
       d="M  0 , -281.615834040243 C  93.8804049359088 , -281.615834040243 181.169021923268 , -234.661867151549 258.115447117024 , -138.206917928295 335.061872310781 , -41.7519687050403 357.675384569029 , 61.5817093721638 321.698445420942 , 146.485204325111 285.721506272855 , 231.388699278057 205.273403751477 , 276.731938915343 123.138848362336 , 269.626676165099 41.0042929731943 , 262.521413414855 -27.8995661985551 , 202.950980620931 -62.0107001769696 , 112.923846300425 -96.1218341553841 , 22.8967119799193 -70.8030008636107 , -0.603830131872372 -95.2913808211841 , -110.591202774475 -119.779760778757 , -220.578575417077 -184.785066404081 , -338.339766270595 -306.334294033473 , -348.997262987328 -427.883521662864 , -359.65475970406 -518.663067249912 , -241.143707678876 -464.932676218362 , -122.479573553147 -411.202285186813 , -3.81543942741772 -259.611201824662 , 4.61614339333711 -218.619885039458 , 6.06057218550514 -177.628568254255 , 7.50500097767316 177.628568254255 , 7.50500097767316 218.619885039458 , 6.06057218550514 259.611201824662 , 4.61614339333711 411.202285186813 , -3.81543942741772 464.932676218362 , -122.479573553147 518.663067249912 , -241.143707678876 427.883521662864 , -359.65475970406 306.334294033473 , -348.997262987328 184.785066404081 , -338.339766270595 119.779760778757 , -220.578575417077 95.2913808211841 , -110.591202774475 70.8030008636107 , -0.603830131872371 96.1218341553841 , 22.8967119799193 62.0107001769696 , 112.923846300425 27.8995661985551 , 202.950980620931 -41.0042929731943 , 262.521413414855 -123.138848362336 , 269.626676165099 -205.273403751477 , 276.731938915343 -285.721506272855 , 231.388699278057 -321.698445420942 , 146.485204325111 -357.675384569029 , 61.5817093721638 -335.061872310781 , -41.7519687050403 -258.115447117024 , -138.206917928295 -181.169021923268 , -234.661867151549 -93.8804049359088 , -281.615834040243 0 , -281.615834040243 Z "
       id="path2987"
       inkscape:connector-curvature="0"
       sodipodi:nodetypes="zzzzzzzzzzzzzzzzzz" />
  </g>
</svg>
