<?xml version="1.0" encoding="UTF-8" standalone="no"?>
<!-- Created with Inkscape (http://www.inkscape.org/) -->

<svg
   xmlns:dc="http://purl.org/dc/elements/1.1/"
   xmlns:cc="http://creativecommons.org/ns#"
   xmlns:rdf="http://www.w3.org/1999/02/22-rdf-syntax-ns#"
   xmlns:svg="http://www.w3.org/2000/svg"
   xmlns="http://www.w3.org/2000/svg"
   xmlns:sodipodi="http://sodipodi.sourceforge.net/DTD/sodipodi-0.dtd"
   xmlns:inkscape="http://www.inkscape.org/namespaces/inkscape"
   width="744.09448819"
   height="1052.3622047"
   id="svg2"
   version="1.1"
   inkscape:version="0.91 r13725"
   sodipodi:docname="7_7a.svg">
  <defs
     id="defs4" />
  <sodipodi:namedview
     id="base"
     pagecolor="#ffffff"
     bordercolor="#666666"
     borderopacity="1.0"
     inkscape:pageopacity="0.0"
     inkscape:pageshadow="2"
     inkscape:zoom="2.7103322"
     inkscape:cx="39.42535"
     inkscape:cy="1016.759"
     inkscape:document-units="px"
     inkscape:current-layer="layer1"
     showgrid="false"
     inkscape:window-width="1855"
     inkscape:window-height="1056"
     inkscape:window-x="65"
     inkscape:window-y="24"
     inkscape:window-maximized="1" />
  <metadata
     id="metadata7">
    <rdf:RDF>
      <cc:Work
         rdf:about="">
        <dc:format>image/svg+xml</dc:format>
        <dc:type
           rdf:resource="http://purl.org/dc/dcmitype/StillImage" />
        <dc:title />
      </cc:Work>
    </rdf:RDF>
  </metadata>
  <g
     inkscape:label="Layer 1"
     inkscape:groupmode="layer"
     id="layer1">
    <path
       style="fill:none;fill-rule:evenodd;stroke:#000000;stroke-width:11.20385933;stroke-linecap:butt;stroke-linejoin:miter;stroke-miterlimit:4;stroke-dasharray:none;stroke-opacity:1"
       d="M  -146.158588256556 , -13.9003916953299 C  -136.958690833354 , -16.9354467683572 -103.710954560763 , -27.0060089504738 -62.1786268097486 , -14.3482465050099 -20.6462990587344 , -1.69048405954604 -2.22103112483745 , 20.2744922829754 63.6507291023932 , 91.3472784967096 129.522489329624 , 162.420064710444 157.106295528484 , 204.451320959571 152.242785976528 , 275.157540393232 147.379276424571 , 345.863759826892 95.5351029706981 , 450.288626520749 0 , 450.288626520749 -95.5351029706981 , 450.288626520749 -147.379276424571 , 345.863759826892 -152.242785976528 , 275.157540393232 -157.106295528484 , 204.451320959571 -129.522489329624 , 162.420064710444 -63.6507291023932 , 91.3472784967096 2.22103112483745 , 20.2744922829754 20.6462990587344 , -1.69048405954604 62.1786268097486 , -14.3482465050099 103.710954560763 , -27.0060089504738 136.958690833354 , -16.9354467683572 146.158588256556 , -13.9003916953299 155.358485679758 , -10.8653366223027 189.268271648027 , 1.02519704446996 217.90628907793 , 39.7817359931362 246.544306507833 , 78.5382749418024 253.883324517912 , 133.38620541304 266.2105590775 , 200.262909496148 278.537793637088 , 267.139613579256 274.460197464719 , 296.658607918656 273.359088717589 , 304.64790097218 272.257979970458 , 312.637194025703 260.596111636731 , 397.307323214783 184.119538370378 , 416.241086665617 107.642965104026 , 435.174850116451 67.5806060030311 , 357.82031296329 62.4074970128426 , 347.435215486885 57.234388022654 , 337.05011801048 33.2650764902728 , 287.46049831196 64.2505252208512 , 227.278104408453 95.2359739514295 , 167.095710504945 259.651518198056 , 80.1489714913344 344.010359388975 , 122.031763707209 428.369200579895 , 163.914555923084 427.00010024775 , 257.612090675514 419.823957763515 , 297.672238715166 412.64781527928 , 337.732386754817 383.177443518125 , 423.315496312906 271.025382461908 , 492.931818907153 158.873321405691 , 562.548141501401 54.5416676715505 , 567.435212079018 0 , 567.435212079018 -54.5416676715505 , 567.435212079018 -158.873321405691 , 562.548141501401 -271.025382461908 , 492.931818907153 -383.177443518125 , 423.315496312906 -412.64781527928 , 337.732386754817 -419.823957763515 , 297.672238715166 -427.00010024775 , 257.612090675514 -428.369200579895 , 163.914555923084 -344.010359388975 , 122.031763707209 -259.651518198056 , 80.1489714913344 -95.2359739514295 , 167.095710504945 -64.2505252208512 , 227.278104408453 -33.2650764902728 , 287.46049831196 -57.234388022654 , 337.05011801048 -62.4074970128426 , 347.435215486885 -67.5806060030311 , 357.82031296329 -107.642965104026 , 435.174850116451 -184.119538370378 , 416.241086665617 -260.596111636731 , 397.307323214783 -272.257979970458 , 312.637194025703 -273.359088717589 , 304.64790097218 -274.460197464719 , 296.658607918656 -278.537793637088 , 267.139613579256 -266.2105590775 , 200.262909496148 -253.883324517912 , 133.38620541304 -246.544306507833 , 78.5382749418024 -217.90628907793 , 39.7817359931362 -189.268271648027 , 1.02519704446996 -155.358485679758 , -10.8653366223027 -146.158588256556 , -13.9003916953299 Z "
       id="path4134"
       inkscape:connector-curvature="0"
       sodipodi:nodetypes="zzzzzzzzzzzzzzzzzzzzzzzzzzzzz" />
  </g>
</svg>
