<?xml version="1.0" encoding="UTF-8" standalone="no"?>
<!-- Created with Inkscape (http://www.inkscape.org/) -->

<svg
   xmlns:dc="http://purl.org/dc/elements/1.1/"
   xmlns:cc="http://creativecommons.org/ns#"
   xmlns:rdf="http://www.w3.org/1999/02/22-rdf-syntax-ns#"
   xmlns:svg="http://www.w3.org/2000/svg"
   xmlns="http://www.w3.org/2000/svg"
   xmlns:sodipodi="http://sodipodi.sourceforge.net/DTD/sodipodi-0.dtd"
   xmlns:inkscape="http://www.inkscape.org/namespaces/inkscape"
   width="210mm"
   height="297mm"
   viewBox="0 0 744.09448819 1052.3622047"
   id="svg2"
   version="1.1"
   inkscape:version="0.91 r13725"
   sodipodi:docname="8_1.svg">
  <defs
     id="defs4" />
  <sodipodi:namedview
     id="base"
     pagecolor="#ffffff"
     bordercolor="#666666"
     borderopacity="1.0"
     inkscape:pageopacity="0.0"
     inkscape:pageshadow="2"
     inkscape:zoom="1.0293612"
     inkscape:cx="157.34459"
     inkscape:cy="806.3508"
     inkscape:document-units="px"
     inkscape:current-layer="layer1"
     showgrid="false"
     inkscape:window-width="2560"
     inkscape:window-height="1315"
     inkscape:window-x="0"
     inkscape:window-y="1"
     inkscape:window-maximized="1" />
  <metadata
     id="metadata7">
    <rdf:RDF>
      <cc:Work
         rdf:about="">
        <dc:format>image/svg+xml</dc:format>
        <dc:type
           rdf:resource="http://purl.org/dc/dcmitype/StillImage" />
        <dc:title />
      </cc:Work>
    </rdf:RDF>
  </metadata>
  <g
     inkscape:label="Layer 1"
     inkscape:groupmode="layer"
     id="layer1">
    <path
       style="fill:none;stroke:#000000;stroke-width:11.16508865px;stroke-linecap:butt;stroke-linejoin:miter;stroke-opacity:1"
       d="M  101.491446076978 , -275.107328064396 C  182.149166646413 , -264.308561416189 238.148917694655 , -186.986612402402 251.940237019441 , -80.5835050657477 265.731556344226 , 25.8196022709061 231.086981484711 , 75.7560457100989 253.679794457234 , 196.146354473915 276.272607429758 , 316.536663237731 315.766440939422 , 346.64126504446 313.164304762204 , 413.14381913517 310.562168584986 , 479.64637322588 271.076287293301 , 527.603591761064 215.558899901549 , 547.872225181117 160.041512509797 , 568.140858601171 124.030680463425 , 547.809636061233 0 , 547.809636061233 -124.030680463425 , 547.809636061233 -160.041512509797 , 568.140858601171 -215.558899901549 , 547.872225181117 -271.076287293301 , 527.603591761064 -310.562168584986 , 479.64637322588 -313.164304762204 , 413.14381913517 -315.766440939422 , 346.64126504446 -276.272607429758 , 316.536663237731 -253.679794457234 , 196.146354473915 -231.086981484711 , 75.7560457100989 -265.731556344226 , 25.8196022709061 -251.940237019441 , -80.5835050657477 -238.148917694655 , -186.986612402402 -182.149166646413 , -264.308561416189 -101.491446076978 , -275.107328064396 -20.8337255075423 , -285.906094712602 44.15754186918 , -219.242299494738 42.0976513230181 , -141.103674458757 40.0377607768562 , -62.9650494227754 -21.3170859266651 , -5.64627567639295 -115.375597518784 , 28.9802947617043 -209.434109110903 , 63.6068651998016 -264.221700801643 , 65.7371094975522 -308.06976251731 , 106.344940364331 -351.917824232978 , 146.952771231109 -368.24615957534 , 207.805817978068 -344.19672386828 , 271.643079730779 -320.147288161221 , 335.480341483489 -280.803037869435 , 343.149457512311 -210.025221995624 , 442.360942940119 -139.247406121814 , 541.572428367927 -141.855157369621 , 574.342694589671 -98.1747384440259 , 611.842749804202 -54.4943195184314 , 649.342805018732 -10.5027880903394 , 649.859697573739 0 , 649.859697573739 10.5027880903394 , 649.859697573739 54.4943195184314 , 649.342805018732 98.1747384440259 , 611.842749804202 141.855157369621 , 574.342694589671 139.247406121814 , 541.572428367927 210.025221995624 , 442.360942940119 280.803037869435 , 343.149457512311 320.147288161221 , 335.480341483489 344.19672386828 , 271.643079730779 368.24615957534 , 207.805817978068 351.917824232978 , 146.952771231109 308.06976251731 , 106.344940364331 264.221700801643 , 65.7371094975522 209.434109110903 , 63.6068651998016 115.375597518784 , 28.9802947617043 21.3170859266651 , -5.64627567639295 -40.0377607768562 , -62.9650494227754 -42.0976513230181 , -141.103674458757 -44.15754186918 , -219.242299494738 20.8337255075423 , -285.906094712602 101.491446076978 , -275.107328064396 Z "
       id="path4252"
       inkscape:connector-curvature="0"
       sodipodi:nodetypes="zzzzzzzzzzzzzzzzzzzzzzzzz" />
  </g>
</svg>
