<?xml version="1.0" encoding="UTF-8" standalone="no"?>
<!-- Created with Inkscape (http://www.inkscape.org/) -->

<svg
   xmlns:dc="http://purl.org/dc/elements/1.1/"
   xmlns:cc="http://creativecommons.org/ns#"
   xmlns:rdf="http://www.w3.org/1999/02/22-rdf-syntax-ns#"
   xmlns:svg="http://www.w3.org/2000/svg"
   xmlns="http://www.w3.org/2000/svg"
   xmlns:sodipodi="http://sodipodi.sourceforge.net/DTD/sodipodi-0.dtd"
   xmlns:inkscape="http://www.inkscape.org/namespaces/inkscape"
   width="210mm"
   height="297mm"
   viewBox="0 0 744.09448819 1052.3622047"
   id="svg2"
   version="1.1"
   inkscape:version="0.91 r13725"
   sodipodi:docname="8_1.svg">
  <defs
     id="defs4" />
  <sodipodi:namedview
     id="base"
     pagecolor="#ffffff"
     bordercolor="#666666"
     borderopacity="1.0"
     inkscape:pageopacity="0.0"
     inkscape:pageshadow="2"
     inkscape:zoom="1.0293612"
     inkscape:cx="157.34459"
     inkscape:cy="806.3508"
     inkscape:document-units="px"
     inkscape:current-layer="layer1"
     showgrid="false"
     inkscape:window-width="2560"
     inkscape:window-height="1315"
     inkscape:window-x="0"
     inkscape:window-y="1"
     inkscape:window-maximized="1" />
  <metadata
     id="metadata7">
    <rdf:RDF>
      <cc:Work
         rdf:about="">
        <dc:format>image/svg+xml</dc:format>
        <dc:type
           rdf:resource="http://purl.org/dc/dcmitype/StillImage" />
        <dc:title />
      </cc:Work>
    </rdf:RDF>
  </metadata>
  <g
     inkscape:label="Layer 1"
     inkscape:groupmode="layer"
     id="layer1">
    <path
       style="fill:none;stroke:#000000;stroke-width:11.16508865px;stroke-linecap:butt;stroke-linejoin:miter;stroke-opacity:1"
       d="M  99.7204417647353 , -255.819937409317 C  170.908802641603 , -248.483690835083 234.022010593903 , -186.959662567669 249.30108319229 , -78.2464570537272 264.580155790676 , 30.4667484602148 211.10022899828 , 77.4021647681992 234.590568868772 , 201.303269867865 258.080908739264 , 325.204374967531 309.330277306941 , 331.841381479912 317.193482455772 , 405.316265482632 325.056687604603 , 478.791149485353 278.393475523732 , 538.331294871597 210.126005222395 , 551.859126700124 141.858534921057 , 565.386958528651 123.954751760172 , 527.26949168801 0 , 527.26949168801 -123.954751760172 , 527.26949168801 -141.858534921057 , 565.386958528651 -210.126005222395 , 551.859126700124 -278.393475523732 , 538.331294871597 -325.056687604603 , 478.791149485353 -317.193482455772 , 405.316265482632 -309.330277306941 , 331.841381479912 -258.080908739264 , 325.204374967531 -234.590568868772 , 201.303269867865 -211.10022899828 , 77.4021647681992 -264.580155790676 , 30.4667484602148 -249.30108319229 , -78.2464570537272 -234.022010593903 , -186.959662567669 -170.908802641603 , -248.483690835083 -99.7204417647353 , -255.819937409317 -28.5320808878679 , -263.156183983551 35.9510991776498 , -206.690986271302 39.5944638443704 , -129.976064625675 43.2378285110911 , -53.2611429800476 -15.1974277242157 , 1.48655499559273 -114.037083025292 , 35.1202497454903 -212.876738326368 , 68.7539444953879 -255.796070123261 , 57.4724096489941 -306.848612489492 , 98.1241496324914 -357.901154855724 , 138.775889615989 -377.879361822756 , 209.740780565338 -343.108031709755 , 275.618564534481 -308.336701596753 , 341.496348503624 -264.296311433658 , 329.23596746118 -195.264710944157 , 426.115468048502 -126.233110454656 , 522.994968635824 -145.670385996531 , 559.859615862731 -103.333065438307 , 608.729924425921 -60.9957448800836 , 657.600232989111 -9.70539510539622 , 658.010297251937 0 , 658.010297251937 9.70539510539622 , 658.010297251937 60.9957448800836 , 657.600232989111 103.333065438307 , 608.729924425921 145.670385996531 , 559.859615862731 126.233110454656 , 522.994968635824 195.264710944157 , 426.115468048502 264.296311433658 , 329.23596746118 308.336701596753 , 341.496348503624 343.108031709755 , 275.618564534481 377.879361822756 , 209.740780565338 357.901154855724 , 138.775889615989 306.848612489492 , 98.1241496324914 255.796070123261 , 57.4724096489941 212.876738326368 , 68.7539444953879 114.037083025292 , 35.1202497454903 15.1974277242157 , 1.48655499559273 -43.2378285110911 , -53.2611429800476 -39.5944638443704 , -129.976064625675 -35.9510991776498 , -206.690986271302 28.5320808878679 , -263.156183983551 99.7204417647353 , -255.819937409317 Z "
       id="path4252"
       inkscape:connector-curvature="0"
       sodipodi:nodetypes="zzzzzzzzzzzzzzzzzzzzzzzzz" />
  </g>
</svg>
