<?xml version="1.0" encoding="UTF-8" standalone="no"?>
<!-- Created with Inkscape (http://www.inkscape.org/) -->

<svg
   xmlns:dc="http://purl.org/dc/elements/1.1/"
   xmlns:cc="http://creativecommons.org/ns#"
   xmlns:rdf="http://www.w3.org/1999/02/22-rdf-syntax-ns#"
   xmlns:svg="http://www.w3.org/2000/svg"
   xmlns="http://www.w3.org/2000/svg"
   xmlns:sodipodi="http://sodipodi.sourceforge.net/DTD/sodipodi-0.dtd"
   xmlns:inkscape="http://www.inkscape.org/namespaces/inkscape"
   width="210mm"
   height="297mm"
   viewBox="0 0 744.09448819 1052.3622047"
   id="svg9624"
   version="1.1"
   inkscape:version="0.91 r13725"
   sodipodi:docname="8_10.svg">
  <defs
     id="defs9626" />
  <sodipodi:namedview
     id="base"
     pagecolor="#ffffff"
     bordercolor="#666666"
     borderopacity="1.0"
     inkscape:pageopacity="0.0"
     inkscape:pageshadow="2"
     inkscape:zoom="0.85391069"
     inkscape:cx="280.3317"
     inkscape:cy="955.7375"
     inkscape:document-units="px"
     inkscape:current-layer="layer1"
     showgrid="false"
     inkscape:window-width="2560"
     inkscape:window-height="1315"
     inkscape:window-x="1331"
     inkscape:window-y="61"
     inkscape:window-maximized="0" />
  <metadata
     id="metadata9629">
    <rdf:RDF>
      <cc:Work
         rdf:about="">
        <dc:format>image/svg+xml</dc:format>
        <dc:type
           rdf:resource="http://purl.org/dc/dcmitype/StillImage" />
        <dc:title />
      </cc:Work>
    </rdf:RDF>
  </metadata>
  <g
     inkscape:label="Layer 1"
     inkscape:groupmode="layer"
     id="layer1">
    <path
       style="fill:none;fill-rule:evenodd;stroke:#000000;stroke-width:8.95030308px;stroke-linecap:butt;stroke-linejoin:miter;stroke-opacity:1"
       d="M  0 , -314.248488516816 C  -22.3209887632755 , -314.248488516816 -125.233182975612 , -312.467122221157 -203.352002646103 , -228.267543208025 -281.470822316595 , -144.067964194894 -276.425742940021 , -58.9792777568264 -250.67759332938 , 88.6139348957131 -224.92944371874 , 236.207147548253 -181.970547551091 , 275.040897893065 -158.449135983909 , 292.698808644602 -134.927724416727 , 310.356719396139 -97.3233657880581 , 329.366070554235 -41.9706673230053 , 326.506767215397 13.3820311420476 , 323.647463876559 43.2835886723676 , 301.30538702039 175.492551181246 , 247.559798139954 307.701513690124 , 193.814209259518 359.220789730359 , 178.914437123008 391.342260642147 , 119.043667177256 423.463731553934 , 59.1728972315026 407.481842585336 , -8.05743810659448 360.459967255362 , -48.0492330412706 313.438091925388 , -88.0410279759467 258.885884929479 , -86.074661271326 193.889971780443 , -84.5440128685277 128.894058631407 , -83.0133644657293 94.351567913593 , -77.3380354607645 0 , -77.3380354607645 -94.351567913593 , -77.3380354607645 -135.802132673705 , -81.0369875877984 -193.40035654684 , -76.9653835452289 -250.998580419974 , -72.8937795026595 -324.36133015856 , -67.3643168531094 -370.825858857888 , -5.31556787480433 -417.290387557216 , 56.7331811035008 -408.271895556614 , 147.773928829248 -339.605128854767 , 197.006085421332 -270.938362152919 , 246.238242013416 -189.380179216652 , 220.500336222557 -133.956893676032 , 203.661963345005 -78.5336081354132 , 186.823590467453 20.378368926539 , 151.710428674779 81.6576852891646 , 53.984950082896 142.93700165179 , -43.7405285089871 117.84240537946 , -125.680830157813 84.2769606425004 , -162.917771337876 50.7115159055406 , -200.15471251794 10.3278666821196 , -201.20910234157 0 , -201.20910234157 -10.3278666821196 , -201.20910234157 -45.8707558500568 , -199.928142841917 -77.5478408447046 , -168.981539756906 -109.224925839352 , -138.034936671895 -136.524506142324 , -77.596336097904 -104.378899851177 , 34.5018037164278 -72.2332935600305 , 146.59994353076 33.1332468790603 , 358.229015137183 139.808022061475 , 379.775981531274 246.482797243889 , 401.322947925365 300.206955331257 , 324.901747476357 314.370445619719 , 272.063685921645 328.533935908182 , 219.225624366933 315.76328952799 , 186.808724686007 290.562643952467 , 55.6405607376293 265.361998376944 , -75.5276032107482 276.453563684742 , -142.785814383112 197.629548096873 , -227.264386440746 118.805532509004 , -311.742958498381 22.3209887632755 , -314.248488516816 0 , -314.248488516816 Z "
       id="path10192"
       inkscape:connector-curvature="0"
       sodipodi:nodetypes="zzzzzzzzzzzzzzzzzzzzzzzz" />
  </g>
</svg>
