<?xml version="1.0" encoding="UTF-8" standalone="no"?>
<!-- Created with Inkscape (http://www.inkscape.org/) -->

<svg
   xmlns:dc="http://purl.org/dc/elements/1.1/"
   xmlns:cc="http://creativecommons.org/ns#"
   xmlns:rdf="http://www.w3.org/1999/02/22-rdf-syntax-ns#"
   xmlns:svg="http://www.w3.org/2000/svg"
   xmlns="http://www.w3.org/2000/svg"
   xmlns:sodipodi="http://sodipodi.sourceforge.net/DTD/sodipodi-0.dtd"
   xmlns:inkscape="http://www.inkscape.org/namespaces/inkscape"
   width="210mm"
   height="297mm"
   viewBox="0 0 744.09448819 1052.3622047"
   id="svg9624"
   version="1.1"
   inkscape:version="0.91 r13725"
   sodipodi:docname="8_10.svg">
  <defs
     id="defs9626" />
  <sodipodi:namedview
     id="base"
     pagecolor="#ffffff"
     bordercolor="#666666"
     borderopacity="1.0"
     inkscape:pageopacity="0.0"
     inkscape:pageshadow="2"
     inkscape:zoom="0.85391069"
     inkscape:cx="280.3317"
     inkscape:cy="955.7375"
     inkscape:document-units="px"
     inkscape:current-layer="layer1"
     showgrid="false"
     inkscape:window-width="2560"
     inkscape:window-height="1315"
     inkscape:window-x="1331"
     inkscape:window-y="61"
     inkscape:window-maximized="0" />
  <metadata
     id="metadata9629">
    <rdf:RDF>
      <cc:Work
         rdf:about="">
        <dc:format>image/svg+xml</dc:format>
        <dc:type
           rdf:resource="http://purl.org/dc/dcmitype/StillImage" />
        <dc:title />
      </cc:Work>
    </rdf:RDF>
  </metadata>
  <g
     inkscape:label="Layer 1"
     inkscape:groupmode="layer"
     id="layer1">
    <path
       style="fill:none;fill-rule:evenodd;stroke:#000000;stroke-width:8.95030308px;stroke-linecap:butt;stroke-linejoin:miter;stroke-opacity:1"
       d="M  0 , -310.685756578711 C  -23.3008331902696 , -310.685756578711 -130.318111302691 , -308.004112215301 -204.349653829664 , -217.348834456093 -278.381196356636 , -126.693556696884 -253.38793485594 , -57.863425681006 -234.618112317388 , 81.3652638944684 -215.848289778836 , 220.593953469943 -208.698254461411 , 256.891057395068 -174.656164394654 , 293.576236218137 -140.614074327896 , 330.261415041207 -87.4963246698277 , 351.36191355217 -24.1573871796521 , 335.791962274441 39.1815503105234 , 320.222010996711 47.2537837952234 , 285.013724862999 171.244779042795 , 229.040940430034 295.235774290367 , 173.068155997069 352.443588962807 , 183.205767928421 397.471637429614 , 114.486641976693 442.499685896422 , 45.7675160249651 414.980322132699 , -32.9156966011373 358.063573578748 , -68.3928286335184 301.146825024798 , -103.869960665899 248.137309791797 , -87.998905455546 187.631301172791 , -78.7614402944873 127.125292553785 , -69.5239751334286 77.7835011345224 , -62.1565522058581 0 , -62.1565522058581 -77.7835011345224 , -62.1565522058581 -120.448249918087 , -65.6590527758998 -180.96996511985 , -66.217834703304 -241.491680321613 , -66.7766166307081 -315.560946795298 , -73.4236265828024 -370.729332535092 , -10.5908295483692 -425.897718274887 , 52.2419674860639 -417.356563992509 , 150.531704187738 -344.509153346454 , 200.349156285171 -271.661742700398 , 250.166608382605 -197.313129638275 , 218.783680321435 -130.323611898685 , 197.327132674148 -63.334094159095 , 175.870585026861 24.66304364748 , 146.430745393425 81.8670461454414 , 57.6920647652232 139.071048643403 , -31.0466158629787 113.732602229604 , -111.797655978975 81.1741902949081 , -148.283549002373 48.6157783602124 , -184.76944202577 9.65234664258622 , -185.787231796755 0 , -185.787231796755 -9.65234664258622 , -185.787231796755 -46.8227724837174 , -184.584584325656 -77.2374129040666 , -149.981759853452 -107.652053324416 , -115.378935381248 -122.300655004422 , -56.3503190186218 -92.6781465506314 , 36.6290056320735 -63.0556380968411 , 129.608330282769 38.1026936638381 , 355.893705033214 140.171016773578 , 385.169961070236 242.239339883317 , 414.446217107257 311.426947507345 , 339.213337727696 322.825290998933 , 267.151072483294 334.22363449052 , 195.088807238891 303.090455955775 , 173.185757462675 275.212429715486 , 45.0570671053064 247.334403475198 , -83.0716232520628 271.839515072043 , -135.737441446711 196.821792657014 , -221.848517125992 121.804070241984 , -307.959592805274 23.3008331902696 , -310.685756578711 0 , -310.685756578711 Z "
       id="path10192"
       inkscape:connector-curvature="0"
       sodipodi:nodetypes="zzzzzzzzzzzzzzzzzzzzzzzz" />
  </g>
</svg>
