<?xml version="1.0" encoding="UTF-8" standalone="no"?>
<!-- Created with Inkscape (http://www.inkscape.org/) -->

<svg
   xmlns:dc="http://purl.org/dc/elements/1.1/"
   xmlns:cc="http://creativecommons.org/ns#"
   xmlns:rdf="http://www.w3.org/1999/02/22-rdf-syntax-ns#"
   xmlns:svg="http://www.w3.org/2000/svg"
   xmlns="http://www.w3.org/2000/svg"
   xmlns:sodipodi="http://sodipodi.sourceforge.net/DTD/sodipodi-0.dtd"
   xmlns:inkscape="http://www.inkscape.org/namespaces/inkscape"
   width="210mm"
   height="297mm"
   viewBox="0 0 744.09448819 1052.3622047"
   id="svg10213"
   version="1.1"
   inkscape:version="0.91 r13725"
   sodipodi:docname="8_11.svg">
  <defs
     id="defs10215" />
  <sodipodi:namedview
     id="base"
     pagecolor="#ffffff"
     bordercolor="#666666"
     borderopacity="1.0"
     inkscape:pageopacity="0.0"
     inkscape:pageshadow="2"
     inkscape:zoom="0.77812724"
     inkscape:cx="313.34332"
     inkscape:cy="782.97113"
     inkscape:document-units="px"
     inkscape:current-layer="layer1"
     showgrid="false"
     inkscape:window-width="1855"
     inkscape:window-height="1028"
     inkscape:window-x="461"
     inkscape:window-y="176"
     inkscape:window-maximized="0" />
  <metadata
     id="metadata10218">
    <rdf:RDF>
      <cc:Work
         rdf:about="">
        <dc:format>image/svg+xml</dc:format>
        <dc:type
           rdf:resource="http://purl.org/dc/dcmitype/StillImage" />
        <dc:title />
      </cc:Work>
    </rdf:RDF>
  </metadata>
  <g
     inkscape:label="Layer 1"
     inkscape:groupmode="layer"
     id="layer1">
    <path
       style="fill:none;fill-rule:evenodd;stroke:#000000;stroke-width:9.94700909px;stroke-linecap:butt;stroke-linejoin:miter;stroke-opacity:1"
       d="M  197.474711324112 , -94.9709350804308 C  292.425736005596 , -41.3941279589868 317.378146175097 , 80.689951791871 314.694333742223 , 167.578382328421 312.010521309348 , 254.46681286497 285.345894209727 , 357.624853946541 217.896546588709 , 461.113180272915 150.447198967692 , 564.601506599289 122.149419557402 , 591.345993230046 83.4898063706079 , 610.225762242333 44.830193183814 , 629.10553125462 9.99344972846448 , 629.589276734269 0 , 629.589276734269 -9.99344972846448 , 629.589276734269 -45.0610196932982 , 628.892342469032 -83.3266282032178 , 605.553543586448 -121.592236713137 , 582.214744703864 -145.666855245804 , 551.315276552748 -199.733896767199 , 444.235948939738 -253.800938288594 , 337.156621326728 -284.104299674573 , 291.649180072264 -296.135076970122 , 200.531528325696 -308.165854265671 , 109.413876579129 -296.336839480678 , -85.4623116967935 -137.34862457271 , -151.693628187337 21.6395903352594 , -217.92494467788 102.858902553412 , -72.8497961724271 62.7883428373683 , 14.5122319215269 22.7177831213244 , 101.874260015481 -30.1217153811571 , 64.7185658017321 -81.2929047043997 , 143.83351083622 -132.464094027642 , 222.948455870709 -76.6376540751621 , 298.901257737673 -41.0813940343667 , 347.575390289957 -5.52513399357117 , 396.24952284224 27.2966692914724 , 437.482305864759 80.6742031790853 , 492.462726989097 134.051737066698 , 547.443148113434 186.817708220738 , 607.367387975736 268.137119078745 , 598.210615856008 349.456529936752 , 589.05384373628 402.173542199977 , 510.024087276761 375.142244802776 , 429.944689737154 348.110947405574 , 349.865292197547 253.486381731414 , 304.977509044331 156.509533030822 , 335.325555651486 59.5326843302304 , 365.673602258641 0.302511957893915 , 430.283992734616 -65.245585910284 , 484.21015301632 -130.793683778462 , 538.136313298023 -185.620528349983 , 586.846829801392 -259.41704260008 , 568.78037972211 -333.213556850176 , 550.713929642828 -366.100416510277 , 473.263678310628 -334.545962501197 , 407.836699602575 -302.991508492117 , 342.409720894522 -233.655168701632 , 322.689202512904 -167.949212990069 , 300.639754228434 -102.243257278507 , 278.590305943964 -23.3070848804678 , 259.032307592196 -2.13597199919809 , 175.041174433787 19.0351408820716 , 91.0500412753789 -34.2759912538084 , 80.4993866373926 -16.0375457037291 , -5.37855549570952 2.20089984635024 , -91.2564976288116 102.523686642628 , -148.547742201875 197.474711324112 , -94.9709350804308 Z "
       id="path10781"
       inkscape:connector-curvature="0"
       sodipodi:nodetypes="zzzzzzzzzzzzzzzzzzzzzzz" />
  </g>
</svg>
