<?xml version="1.0" encoding="UTF-8" standalone="no"?>
<!-- Created with Inkscape (http://www.inkscape.org/) -->

<svg
   xmlns:dc="http://purl.org/dc/elements/1.1/"
   xmlns:cc="http://creativecommons.org/ns#"
   xmlns:rdf="http://www.w3.org/1999/02/22-rdf-syntax-ns#"
   xmlns:svg="http://www.w3.org/2000/svg"
   xmlns="http://www.w3.org/2000/svg"
   xmlns:sodipodi="http://sodipodi.sourceforge.net/DTD/sodipodi-0.dtd"
   xmlns:inkscape="http://www.inkscape.org/namespaces/inkscape"
   width="210mm"
   height="297mm"
   viewBox="0 0 744.09448819 1052.3622047"
   id="svg10213"
   version="1.1"
   inkscape:version="0.91 r13725"
   sodipodi:docname="8_11.svg">
  <defs
     id="defs10215" />
  <sodipodi:namedview
     id="base"
     pagecolor="#ffffff"
     bordercolor="#666666"
     borderopacity="1.0"
     inkscape:pageopacity="0.0"
     inkscape:pageshadow="2"
     inkscape:zoom="0.77812724"
     inkscape:cx="313.34332"
     inkscape:cy="782.97113"
     inkscape:document-units="px"
     inkscape:current-layer="layer1"
     showgrid="false"
     inkscape:window-width="1855"
     inkscape:window-height="1028"
     inkscape:window-x="461"
     inkscape:window-y="176"
     inkscape:window-maximized="0" />
  <metadata
     id="metadata10218">
    <rdf:RDF>
      <cc:Work
         rdf:about="">
        <dc:format>image/svg+xml</dc:format>
        <dc:type
           rdf:resource="http://purl.org/dc/dcmitype/StillImage" />
        <dc:title />
      </cc:Work>
    </rdf:RDF>
  </metadata>
  <g
     inkscape:label="Layer 1"
     inkscape:groupmode="layer"
     id="layer1">
    <path
       style="fill:none;fill-rule:evenodd;stroke:#000000;stroke-width:9.94700909px;stroke-linecap:butt;stroke-linejoin:miter;stroke-opacity:1"
       d="M  201.666915274243 , -86.9090306898423 C  295.11694161137 , -36.2549630377534 327.88693343975 , 76.668458681357 327.607717293652 , 166.948727262424 327.328501147554 , 257.228995843491 299.048597911315 , 364.053325595269 230.777265271964 , 466.103381137304 162.505932632612 , 568.153436679339 117.199195958967 , 596.211376431343 80.0939640792356 , 610.514215900675 42.9887321995046 , 624.817055370007 9.18542034842718 , 625.151688385447 0 , 625.151688385447 -9.18542034842718 , 625.151688385447 -41.8032033414036 , 624.6847819549 -79.2332091540486 , 605.828266515387 -116.663214966694 , 586.971751075874 -153.369407270634 , 554.80308823017 -210.617910454318 , 448.717688776057 -267.866413638001 , 342.632289321945 -297.868582824696 , 289.73404701789 -307.642342304114 , 195.424621074239 -317.416101783532 , 101.115195130589 -292.425034740783 , -98.9829522524916 -135.58622793628 , -155.930293790707 21.2525788682232 , -212.877635328922 102.759422132808 , -82.1463794184648 60.1443651085087 , 3.1036443069358 17.5293080842093 , 88.3536680323364 -44.6682772869192 , 82.3406328852474 -83.8829144797266 , 154.214838324707 -123.097551672534 , 226.089043764167 -80.9273753677019 , 298.747890683891 -50.001664668577 , 346.786497236803 -19.0759539694522 , 394.825103789716 23.2497453231353 , 446.272210186388 78.7439181567139 , 497.117538558895 134.238090990293 , 547.962866931402 193.341611872412 , 604.174549763771 276.075909471479 , 595.773069821783 358.810207070546 , 587.371589879796 417.027077301645 , 509.051948372324 388.465770690066 , 427.087453351471 359.904464078487 , 345.122958330617 258.069356026876 , 305.780162300025 156.959095475977 , 344.071564827263 55.8488349250782 , 382.362967354501 0.585127918751391 , 444.680292600643 -67.3083242528457 , 497.537114142812 -135.201776424443 , 550.39393568498 -192.980798392722 , 587.569088089948 -260.635093717114 , 568.547579410238 -328.289389041506 , 549.526070730528 -362.357419323625 , 478.289086261346 -334.89630717739 , 412.628562150813 -307.435195031155 , 346.96803804028 -237.197546340387 , 319.71964698662 -172.709489013095 , 291.431231131634 -108.221431685802 , 263.142815276648 -49.7474722325888 , 241.536108863785 -26.060759195656 , 170.656762210642 -2.3740461587232 , 99.7774155574994 -32.5583828186078 , 67.0899232582476 -6.49678202576497 , -13.3191836400903 19.5648187670779 , -93.7282905384282 108.216888937116 , -137.563098341931 201.666915274243 , -86.9090306898423 Z "
       id="path10781"
       inkscape:connector-curvature="0"
       sodipodi:nodetypes="zzzzzzzzzzzzzzzzzzzzzzz" />
  </g>
</svg>
