<?xml version="1.0" encoding="UTF-8" standalone="no"?>
<!-- Created with Inkscape (http://www.inkscape.org/) -->

<svg
   width="210mm"
   height="297mm"
   viewBox="0 0 744.09448819 1052.3622047"
   id="svg10213"
   version="1.1"
   inkscape:version="1.1 (ce6663b3b7, 2021-05-25)"
   sodipodi:docname="8_11.svg"
   xmlns:inkscape="http://www.inkscape.org/namespaces/inkscape"
   xmlns:sodipodi="http://sodipodi.sourceforge.net/DTD/sodipodi-0.dtd"
   xmlns="http://www.w3.org/2000/svg"
   xmlns:svg="http://www.w3.org/2000/svg"
   xmlns:rdf="http://www.w3.org/1999/02/22-rdf-syntax-ns#"
   xmlns:cc="http://creativecommons.org/ns#"
   xmlns:dc="http://purl.org/dc/elements/1.1/">
  <defs
     id="defs10215" />
  <sodipodi:namedview
     id="base"
     pagecolor="#ffffff"
     bordercolor="#666666"
     borderopacity="1.0"
     inkscape:pageopacity="0.0"
     inkscape:pageshadow="2"
     inkscape:zoom="0.77812724"
     inkscape:cx="22.489895"
     inkscape:cy="595.66094"
     inkscape:document-units="px"
     inkscape:current-layer="layer1"
     showgrid="false"
     inkscape:window-width="1294"
     inkscape:window-height="704"
     inkscape:window-x="72"
     inkscape:window-y="27"
     inkscape:window-maximized="1"
     inkscape:pagecheckerboard="0" />
  <metadata
     id="metadata10218">
    <rdf:RDF>
      <cc:Work
         rdf:about="">
        <dc:format>image/svg+xml</dc:format>
        <dc:type
           rdf:resource="http://purl.org/dc/dcmitype/StillImage" />
      </cc:Work>
    </rdf:RDF>
  </metadata>
  <g
     inkscape:label="Layer 1"
     inkscape:groupmode="layer"
     id="layer1">
    <path
       style="fill:none;fill-rule:evenodd;stroke:#000000;stroke-width:9.94700909px;stroke-linecap:butt;stroke-linejoin:miter;stroke-opacity:1"
       d="M  192.619522949808 , -78.4136352327798 C  283.719371485055 , -24.0246673501379 303.617549646079 , 90.2070798773484 300.275042185489 , 170.529241971632 296.932534724899 , 250.851404065916 269.957168918963 , 354.398810455957 208.133503304346 , 457.132021001334 146.30983768973 , 559.86523154671 121.21976770663 , 588.485071333711 83.0088442595346 , 609.198502446759 44.7979208124397 , 629.911933559807 10.40843137096 , 630.51222048569 0 , 630.51222048569 -10.40843137096 , 630.51222048569 -46.5516696078973 , 629.776958963437 -85.6636822282309 , 605.85995228963 -124.775694848564 , 581.942945615823 -147.892647329521 , 550.925170182231 -203.647267338553 , 441.972966778703 -259.401887347586 , 333.020763375175 -291.743538853354 , 295.851938163858 -303.051246814035 , 181.133148753321 -314.358954774717 , 66.4143593427834 -269.942233664608 , -137.850498731155 -108.431674294169 , -176.412492845518 53.0788850762702 , -214.974486959881 110.544745465389 , -61.3950672398268 58.9107425568968 , 21.0419254003668 7.27673964840436 , 103.47891804056 -42.3659232219964 , 55.2244468947665 -99.7600324727605 , 136.900223123178 -157.154141723524 , 218.57599935159 -90.8992134924281 , 303.466247681088 -51.0368470147186 , 352.830191218159 -11.1744805370092 , 402.19413475523 16.689658866048 , 435.944402038672 75.2562185075937 , 491.673617699099 133.822778149139 , 547.402833359526 180.718446991107 , 598.902605813838 256.96653881577 , 590.665234258191 333.214630640434 , 582.427862702544 387.153407642445 , 509.83039522012 363.653708956704 , 429.482445310438 340.154010270964 , 349.134495400757 245.800088204763 , 299.167638063701 146.071414855571 , 331.888762676861 46.3427415063793 , 364.609887290021 -4.84386508306529 , 430.087899776532 -71.0142842364594 , 486.248932497177 -137.184703389854 , 542.409965217822 -188.388632571575 , 589.423920063127 -263.172718441824 , 572.707402216383 -337.956804312072 , 555.99088436964 -373.286805595694 , 478.216589448765 -342.16825945046 , 410.957351876484 -311.049713305225 , 343.698114304202 -240.658846385889 , 323.490776296773 -180.697430340422 , 302.429643401215 -120.736014294955 , 281.368510505657 -36.361373282167 , 258.162171660828 -14.7646301476549 , 171.637379430352 6.83211298685718 , 85.1125871998756 -43.9422171328621 , 74.41037699496 -21.5869799321683 , -1.67977301020172 0.768257268525531 , -77.7699230153634 101.519674414561 , -132.802603115422 192.619522949808 , -78.4136352327798 Z "
       id="path10781"
       inkscape:connector-curvature="0"
       sodipodi:nodetypes="zzzzzzzzzzzzzzzzzzzzzzz" />
  </g>
</svg>
