<?xml version="1.0" encoding="UTF-8" standalone="no"?>
<!-- Created with Inkscape (http://www.inkscape.org/) -->

<svg
   xmlns:dc="http://purl.org/dc/elements/1.1/"
   xmlns:cc="http://creativecommons.org/ns#"
   xmlns:rdf="http://www.w3.org/1999/02/22-rdf-syntax-ns#"
   xmlns:svg="http://www.w3.org/2000/svg"
   xmlns="http://www.w3.org/2000/svg"
   xmlns:sodipodi="http://sodipodi.sourceforge.net/DTD/sodipodi-0.dtd"
   xmlns:inkscape="http://www.inkscape.org/namespaces/inkscape"
   width="210mm"
   height="297mm"
   viewBox="0 0 744.09448819 1052.3622047"
   id="svg10802"
   version="1.1"
   inkscape:version="0.91 r13725"
   sodipodi:docname="8_12.svg">
  <defs
     id="defs10804" />
  <sodipodi:namedview
     id="base"
     pagecolor="#ffffff"
     bordercolor="#666666"
     borderopacity="1.0"
     inkscape:pageopacity="0.0"
     inkscape:pageshadow="2"
     inkscape:zoom="0.64789727"
     inkscape:cx="118.13283"
     inkscape:cy="804.35374"
     inkscape:document-units="px"
     inkscape:current-layer="layer1"
     showgrid="false"
     inkscape:window-width="2560"
     inkscape:window-height="1315"
     inkscape:window-x="103"
     inkscape:window-y="0"
     inkscape:window-maximized="0" />
  <metadata
     id="metadata10807">
    <rdf:RDF>
      <cc:Work
         rdf:about="">
        <dc:format>image/svg+xml</dc:format>
        <dc:type
           rdf:resource="http://purl.org/dc/dcmitype/StillImage" />
        <dc:title />
      </cc:Work>
    </rdf:RDF>
  </metadata>
  <g
     inkscape:label="Layer 1"
     inkscape:groupmode="layer"
     id="layer1">
    <path
       style="fill:none;fill-rule:evenodd;stroke:#000000;stroke-width:9.93261814px;stroke-linecap:butt;stroke-linejoin:miter;stroke-opacity:1"
       d="M  -130.148613505109 , 15.2365518734298 C  -77.9721970391132 , -36.9144126927476 0.655087117017956 , -75.7470737279551 103.907622361611 , -76.0406037796023 207.160157606204 , -76.3341338312495 299.834300186237 , -34.1225086251529 356.955118576347 , 44.8658448815055 414.075936966457 , 123.854198388164 429.619339372374 , 209.488687532673 405.579658140926 , 290.183002530659 381.539976909478 , 370.877317528645 327.032282241333 , 435.580483806891 253.781105092213 , 476.165877073363 180.529927943092 , 516.751270339834 117.021739109661 , 519.511906878397 0 , 519.511906878397 -117.021739109661 , 519.511906878397 -202.241040142351 , 513.794792257114 -282.38327773736 , 449.971528060241 -362.525515332369 , 386.148263863367 -405.405731426282 , 267.505526714294 -337.920782095385 , 178.940308950104 -270.435832764488 , 90.3750911859143 -148.916877291426 , 112.632132909871 -107.699683166099 , 197.652157811791 -66.4824890407723 , 282.672182713711 -102.079521322952 , 351.368008609143 -118.518416696756 , 427.974002020304 -134.957312070559 , 504.579995431465 -137.069265123395 , 564.559087031388 -98.9419596760636 , 612.839288249822 -60.8146542287321 , 661.119489468256 -11.0663057194323 , 660.18897043038 1.50939612623569 , 659.42314257073 14.0850979719037 , 658.65731471108 63.4917786603563 , 653.482323860118 95.0040666166619 , 601.589493807611 126.516354572968 , 549.696663755105 121.46365683201 , 495.693153050547 120.856454809361 , 434.528295528296 120.249252786712 , 373.363438006046 112.584180712287 , 317.784755958124 154.371141603992 , 259.129269086903 196.158102495697 , 200.473782215683 251.241833953608 , 193.007264367767 316.013913416297 , 174.631572841819 380.785992878987 , 156.255881315871 468.60746896893 , 137.811659357927 511.959508026711 , 58.6706501490438 555.311547084491 , -20.4703590598396 503.743735036493 , -118.440591227551 408.080983523809 , -117.443236655851 312.418232011125 , -116.445882084152 252.859465584242 , -27.2996868410641 240.979834464596 , 70.3321672956865 229.100203344951 , 167.964021432437 259.423608744076 , 216.220759787411 219.933351080605 , 290.218499095592 180.443093417134 , 364.216238403773 96.438783518338 , 375.0136092789 5.77472019312232 , 361.526490659022 -84.8893431320933 , 348.039372039144 -157.962665646488 , 318.559064902403 -188.725349705399 , 234.88795891951 -219.488033764309 , 151.216852936618 -182.325029971106 , 67.3875164396072 -130.148613505109 , 15.2365518734298 Z "
       id="path11361"
       inkscape:connector-curvature="0"
       sodipodi:nodetypes="zzzzzzzzzzzzzzzzzzzzzzz" />
  </g>
</svg>
