<?xml version="1.0" encoding="UTF-8" standalone="no"?>
<!-- Created with Inkscape (http://www.inkscape.org/) -->

<svg
   xmlns:dc="http://purl.org/dc/elements/1.1/"
   xmlns:cc="http://creativecommons.org/ns#"
   xmlns:rdf="http://www.w3.org/1999/02/22-rdf-syntax-ns#"
   xmlns:svg="http://www.w3.org/2000/svg"
   xmlns="http://www.w3.org/2000/svg"
   xmlns:sodipodi="http://sodipodi.sourceforge.net/DTD/sodipodi-0.dtd"
   xmlns:inkscape="http://www.inkscape.org/namespaces/inkscape"
   width="210mm"
   height="297mm"
   viewBox="0 0 744.09448819 1052.3622047"
   id="svg10802"
   version="1.1"
   inkscape:version="0.91 r13725"
   sodipodi:docname="8_12.svg">
  <defs
     id="defs10804" />
  <sodipodi:namedview
     id="base"
     pagecolor="#ffffff"
     bordercolor="#666666"
     borderopacity="1.0"
     inkscape:pageopacity="0.0"
     inkscape:pageshadow="2"
     inkscape:zoom="0.64789727"
     inkscape:cx="118.13283"
     inkscape:cy="804.35374"
     inkscape:document-units="px"
     inkscape:current-layer="layer1"
     showgrid="false"
     inkscape:window-width="2560"
     inkscape:window-height="1315"
     inkscape:window-x="103"
     inkscape:window-y="0"
     inkscape:window-maximized="0" />
  <metadata
     id="metadata10807">
    <rdf:RDF>
      <cc:Work
         rdf:about="">
        <dc:format>image/svg+xml</dc:format>
        <dc:type
           rdf:resource="http://purl.org/dc/dcmitype/StillImage" />
        <dc:title />
      </cc:Work>
    </rdf:RDF>
  </metadata>
  <g
     inkscape:label="Layer 1"
     inkscape:groupmode="layer"
     id="layer1">
    <path
       style="fill:none;fill-rule:evenodd;stroke:#000000;stroke-width:9.93261814px;stroke-linecap:butt;stroke-linejoin:miter;stroke-opacity:1"
       d="M  -142.202995491691 , 25.760319727541 C  -90.1445057373942 , -40.5721728148264 0.592525927770554 , -88.3933718475439 114.666120886046 , -83.9713995871076 228.739715844322 , -79.5494273266714 313.089987699821 , -22.8128922253143 361.407703840853 , 56.2492614341701 409.725419981885 , 135.311415093655 421.939716564467 , 216.442086081426 394.824945872176 , 295.184175946517 367.710175179885 , 373.926265811607 311.304591417589 , 432.58590982355 245.787805308515 , 468.039165395435 180.271019199442 , 503.49242096732 119.558772134282 , 508.603269918212 0 , 508.603269918212 -119.558772134282 , 508.603269918212 -183.5883744216 , 501.945883785724 -248.573765185449 , 457.491643777001 -313.559155949298 , 413.037403768278 -382.808376959273 , 310.628983938743 -330.406737685011 , 204.381090869268 -278.005098410748 , 98.1331977997924 -145.445193461556 , 105.456461976515 -94.1250805718933 , 190.865696549131 -42.8049676822305 , 276.274931121747 -86.5681501421276 , 343.945735740328 -108.428773781352 , 420.36131239177 -130.289397420577 , 496.776889043212 -138.600840465727 , 551.350784642142 -111.356211825655 , 604.425571987797 -84.1115831855829 , 657.500359333452 -37.6234091890858 , 674.098900191071 -4.2437338708219 , 674.601511933057 29.135941447442 , 675.104123675043 80.2585750673745 , 659.727405311939 106.47614893843 , 600.92602043046 132.693722809485 , 542.12463554898 118.449137426076 , 485.997888416773 108.738781248837 , 422.544736415763 99.0284250715979 , 359.091584414754 79.6735076161936 , 288.222263575395 133.24331703105 , 224.851174965381 186.813126445907 , 161.480086355366 244.9559248985 , 173.716063486025 312.636798406866 , 168.508409134103 380.317671915231 , 163.300754782181 470.363839367827 , 157.513074189001 521.02867850892 , 81.4381826793185 571.693517650013 , 5.36329116963563 526.943214743864 , -97.8864741943095 428.125787354303 , -105.635328883206 329.308359964741 , -113.384183572102 259.524900388163 , -29.3490975821525 240.941779819812 , 63.7951453052742 222.358659251461 , 156.939388192701 260.35287151482 , 195.929494037114 213.240194861736 , 276.738441868658 166.127518208651 , 357.547389700202 74.9949241403697 , 351.417802338575 2.55144377426295 , 342.643319713188 -69.8920365918438 , 333.868837087801 -129.160177009401 , 325.308600515756 -167.980667661433 , 255.391947874168 -206.801158313465 , 185.475295232581 -194.261485245988 , 92.0928122699083 -142.202995491691 , 25.760319727541 Z "
       id="path11361"
       inkscape:connector-curvature="0"
       sodipodi:nodetypes="zzzzzzzzzzzzzzzzzzzzzzz" />
  </g>
</svg>
