<?xml version="1.0" encoding="UTF-8" standalone="no"?>
<!-- Created with Inkscape (http://www.inkscape.org/) -->

<svg
   xmlns:dc="http://purl.org/dc/elements/1.1/"
   xmlns:cc="http://creativecommons.org/ns#"
   xmlns:rdf="http://www.w3.org/1999/02/22-rdf-syntax-ns#"
   xmlns:svg="http://www.w3.org/2000/svg"
   xmlns="http://www.w3.org/2000/svg"
   xmlns:sodipodi="http://sodipodi.sourceforge.net/DTD/sodipodi-0.dtd"
   xmlns:inkscape="http://www.inkscape.org/namespaces/inkscape"
   width="210mm"
   height="297mm"
   viewBox="0 0 744.09448819 1052.3622047"
   id="svg11416"
   version="1.1"
   inkscape:version="0.91 r13725"
   sodipodi:docname="8_13.svg">
  <defs
     id="defs11418" />
  <sodipodi:namedview
     id="base"
     pagecolor="#ffffff"
     bordercolor="#666666"
     borderopacity="1.0"
     inkscape:pageopacity="0.0"
     inkscape:pageshadow="2"
     inkscape:zoom="2.3950175"
     inkscape:cx="-243.89098"
     inkscape:cy="794.74276"
     inkscape:document-units="px"
     inkscape:current-layer="layer1"
     showgrid="false"
     showguides="false"
     inkscape:window-width="2560"
     inkscape:window-height="1315"
     inkscape:window-x="449"
     inkscape:window-y="215"
     inkscape:window-maximized="0" />
  <metadata
     id="metadata11421">
    <rdf:RDF>
      <cc:Work
         rdf:about="">
        <dc:format>image/svg+xml</dc:format>
        <dc:type
           rdf:resource="http://purl.org/dc/dcmitype/StillImage" />
        <dc:title />
      </cc:Work>
    </rdf:RDF>
  </metadata>
  <g
     inkscape:label="Layer 1"
     inkscape:groupmode="layer"
     id="layer1">
    <path
       style="fill:none;fill-rule:evenodd;stroke:#000000;stroke-width:11.28058147px;stroke-linecap:butt;stroke-linejoin:miter;stroke-opacity:1"
       d="M  101.09509326389 , 47.8219952813086 C  106.045919867523 , 56.3688328075046 121.373199356083 , 84.2972200444316 115.851741459713 , 127.277770063091 110.330283563342 , 170.25832008175 78.1053388658146 , 229.420682752175 -26.09417766917 , 265.045740006344 -130.293694204155 , 300.670797260513 -150.40608722798 , 279.503031033754 -236.304139949629 , 315.006074555665 -322.202192671277 , 350.509118077577 -353.675477128429 , 419.426883673556 -362.839014831454 , 462.817866720046 -372.002552534479 , 506.208849766536 -369.941889326735 , 563.292104348155 -330.581346792709 , 618.689861580784 -291.220804258684 , 674.087618813413 -254.008571903436 , 680.086101784053 -141.339397193978 , 747.473254645583 -28.6702224845201 , 814.860407507113 3.27752007593048 , 845.190829664615 63.7601198387146 , 845.280739346161 124.242719601499 , 845.370649027707 159.196870399776 , 812.894139424484 170.241707331739 , 801.513627322718 181.286544263702 , 790.133115220952 223.645792956727 , 743.183010432648 203.926483128607 , 667.367801281899 184.207173300486 , 591.552592131151 128.301562763701 , 547.41737251115 -5.07972457039656 , 505.250555115213 -138.461011904494 , 463.083737719275 -154.32598270911 , 459.934981642189 -235.413072442001 , 424.788063748937 -316.500162174891 , 389.641145855684 -363.616836810096 , 333.702432164011 -382.234160989627 , 295.946019416543 -400.851485169157 , 258.189606669074 -408.581921030234 , 215.134795815126 -398.024052904233 , 172.698673675851 -387.466184778231 , 130.262551536576 -346.28640439735 , 53.3304793901259 -247.55020860069 , 35.280142406602 -148.81401280403 , 17.2298054230781 -86.5897171739295 , 62.8387249392438 -11.3763980993165 , 127.958908826366 63.8369209752965 , 193.079092713489 121.64653996693 , 252.55236554369 146.794040200309 , 297.110974850265 171.941540433689 , 341.66958415684 177.541843926494 , 378.330673919115 179.19789356418 , 396.222259205167 180.853943201867 , 414.11384449122 182.522126735745 , 446.957009034591 165.013836465963 , 494.793524299277 147.505546196181 , 542.630039563963 113.82787987519 , 579.789796153609 46.4161858684928 , 694.93473971889 -20.995508138204 , 810.079683284171 -30.3854121351747 , 860.051320437903 -95.7460940510088 , 892.809208836322 -161.106775966843 , 925.56709723474 -212.926747425489 , 897.723073526738 -223.820207525523 , 891.492780586382 -234.713667625557 , 885.262487646027 -281.947327918736 , 856.823497730129 -287.660647400111 , 784.73166114453 -293.373966881487 , 712.639824558931 -244.663073361866 , 665.705295408495 -203.732545860413 , 571.719306273247 -162.802018358961 , 477.733317138 -149.001368273068 , 453.166808711131 -137.633070506266 , 381.708666445962 -126.264772739464 , 310.250524180793 -149.833636417578 , 263.727516383492 -137.477137137294 , 168.342612081823 -125.120637857009 , 72.957707780155 -70.0667945632799 , -5.64923132636882 0 , -5.64923132636882 70.0667945632799 , -5.64923132636882 96.1442666602567 , 39.2751577551126 101.09509326389 , 47.8219952813086 Z "
       id="path11975"
       inkscape:connector-curvature="0"
       sodipodi:nodetypes="zzzzzzzzzzzzzzzzzzzzzzzzzzzz" />
  </g>
</svg>
