<?xml version="1.0" encoding="UTF-8" standalone="no"?>
<!-- Created with Inkscape (http://www.inkscape.org/) -->

<svg
   xmlns:dc="http://purl.org/dc/elements/1.1/"
   xmlns:cc="http://creativecommons.org/ns#"
   xmlns:rdf="http://www.w3.org/1999/02/22-rdf-syntax-ns#"
   xmlns:svg="http://www.w3.org/2000/svg"
   xmlns="http://www.w3.org/2000/svg"
   xmlns:sodipodi="http://sodipodi.sourceforge.net/DTD/sodipodi-0.dtd"
   xmlns:inkscape="http://www.inkscape.org/namespaces/inkscape"
   width="210mm"
   height="297mm"
   viewBox="0 0 744.09448819 1052.3622047"
   id="svg11416"
   version="1.1"
   inkscape:version="0.91 r13725"
   sodipodi:docname="8_13.svg">
  <defs
     id="defs11418" />
  <sodipodi:namedview
     id="base"
     pagecolor="#ffffff"
     bordercolor="#666666"
     borderopacity="1.0"
     inkscape:pageopacity="0.0"
     inkscape:pageshadow="2"
     inkscape:zoom="2.3950175"
     inkscape:cx="-243.89098"
     inkscape:cy="794.74276"
     inkscape:document-units="px"
     inkscape:current-layer="layer1"
     showgrid="false"
     showguides="false"
     inkscape:window-width="2560"
     inkscape:window-height="1315"
     inkscape:window-x="449"
     inkscape:window-y="215"
     inkscape:window-maximized="0" />
  <metadata
     id="metadata11421">
    <rdf:RDF>
      <cc:Work
         rdf:about="">
        <dc:format>image/svg+xml</dc:format>
        <dc:type
           rdf:resource="http://purl.org/dc/dcmitype/StillImage" />
        <dc:title />
      </cc:Work>
    </rdf:RDF>
  </metadata>
  <g
     inkscape:label="Layer 1"
     inkscape:groupmode="layer"
     id="layer1">
    <path
       style="fill:none;fill-rule:evenodd;stroke:#000000;stroke-width:11.28058147px;stroke-linecap:butt;stroke-linejoin:miter;stroke-opacity:1"
       d="M  133.81784712914 , 30.1675874760339 C  136.343297216803 , 39.0450410660294 145.680929035165 , 74.2500029308857 130.141154752841 , 117.392293886604 114.601380470517 , 160.534584842323 75.1487865288835 , 210.505734818287 -22.0587341910199 , 249.796495802974 -119.266254910923 , 289.08725678766 -155.619105848522 , 280.483508792916 -232.785086118104 , 322.17791123084 -309.951066387687 , 363.872313668765 -343.695340980305 , 420.474993006028 -354.70687081562 , 469.796111331432 -365.718400650934 , 519.117229656835 -358.778958852221 , 570.890257433595 -329.235524355404 , 620.122618354704 -299.692089858588 , 669.354979275812 -262.31221345956 , 694.304669118542 -146.180327654968 , 766.888217043442 -30.0484418503756 , 839.471764968343 19.0711403501034 , 859.198605427775 77.0536726587733 , 848.311723665262 135.036204967443 , 837.424841902749 161.31631462748 , 798.491847822247 168.254190519975 , 787.385419750354 175.192066412469 , 776.278991678461 201.721529083053 , 730.582236046684 179.528585278616 , 669.370977485545 157.335641474179 , 608.159718924405 105.265271255347 , 572.47198367473 -9.07651067198338 , 530.669605007054 -123.418292599313 , 488.867226339377 -177.643424792334 , 475.831579974335 -240.095786948771 , 434.86395946792 -302.548149105207 , 393.896338961506 -344.27704085942 , 343.69315650517 -359.404910793815 , 282.596653493552 -374.532780728209 , 221.500150481934 -357.970517931996 , 176.431712139771 -351.948596371398 , 161.526706114101 -345.9266748108 , 146.62170008843 -320.657952812287 , 88.4641984240836 -250.689907034205 , 59.1643956323443 -180.721861256123 , 29.8645928406051 -95.7257491704379 , 45.731936188499 -10.3890992988026 , 111.82333324483 74.9475505728326 , 177.914730301161 108.665151090941 , 252.711730971264 122.596355574327 , 296.36887864056 136.527560057714 , 340.026026309857 139.035397445346 , 378.07113496909 139.665661676934 , 388.680453592055 140.295925908521 , 399.28977221502 142.369878301804 , 436.3815019511 133.082217284284 , 486.165470346354 123.794556266765 , 535.949438741607 106.530352470251 , 580.13023824224 45.9105569903654 , 710.197022092773 -14.7092384895207 , 840.263805943305 -51.864327970152 , 881.896059051009 -105.825232700568 , 899.074413772395 -159.786137430984 , 916.252768493782 -200.118319813127 , 894.906245896513 -210.815991689852 , 888.811886141205 -221.513663566578 , 882.717526385897 -265.869354501382 , 855.833416876997 -276.380393728808 , 791.873944162449 -286.891432956234 , 727.914471447902 -258.159184497573 , 683.140329353564 -217.494795996914 , 596.874952446181 -176.830407496255 , 510.609575538798 -153.219031509659 , 462.543309979974 -144.64129616105 , 381.158291861202 -136.063560812441 , 299.773273742431 -151.574066548152 , 280.025717385438 -152.491402767848 , 169.873090757587 -153.408738987544 , 59.7204641297372 -106.542455910086 , -65.5303506120673 0 , -65.5303506120673 106.542455910086 , -65.5303506120673 131.292397041477 , 21.2901338860384 133.81784712914 , 30.1675874760339 Z "
       id="path11975"
       inkscape:connector-curvature="0"
       sodipodi:nodetypes="zzzzzzzzzzzzzzzzzzzzzzzzzzzz" />
  </g>
</svg>
