<?xml version="1.0" encoding="UTF-8" standalone="no"?>
<!-- Created with Inkscape (http://www.inkscape.org/) -->

<svg
   xmlns:dc="http://purl.org/dc/elements/1.1/"
   xmlns:cc="http://creativecommons.org/ns#"
   xmlns:rdf="http://www.w3.org/1999/02/22-rdf-syntax-ns#"
   xmlns:svg="http://www.w3.org/2000/svg"
   xmlns="http://www.w3.org/2000/svg"
   xmlns:sodipodi="http://sodipodi.sourceforge.net/DTD/sodipodi-0.dtd"
   xmlns:inkscape="http://www.inkscape.org/namespaces/inkscape"
   width="210mm"
   height="297mm"
   viewBox="0 0 744.09448819 1052.3622047"
   id="svg12005"
   version="1.1"
   inkscape:version="0.91 r13725"
   sodipodi:docname="8_14.svg">
  <defs
     id="defs12007" />
  <sodipodi:namedview
     id="base"
     pagecolor="#ffffff"
     bordercolor="#666666"
     borderopacity="1.0"
     inkscape:pageopacity="0.0"
     inkscape:pageshadow="2"
     inkscape:zoom="0.93361998"
     inkscape:cx="-372.02405"
     inkscape:cy="576.5285"
     inkscape:document-units="px"
     inkscape:current-layer="layer1"
     showgrid="false"
     inkscape:window-width="2560"
     inkscape:window-height="1315"
     inkscape:window-x="273"
     inkscape:window-y="53"
     inkscape:window-maximized="0" />
  <metadata
     id="metadata12010">
    <rdf:RDF>
      <cc:Work
         rdf:about="">
        <dc:format>image/svg+xml</dc:format>
        <dc:type
           rdf:resource="http://purl.org/dc/dcmitype/StillImage" />
        <dc:title />
      </cc:Work>
    </rdf:RDF>
  </metadata>
  <g
     inkscape:label="Layer 1"
     inkscape:groupmode="layer"
     id="layer1">
    <path
       style="fill:none;fill-rule:evenodd;stroke:#000000;stroke-width:9.59008503px;stroke-linecap:butt;stroke-linejoin:miter;stroke-opacity:1"
       d="M -344.27761,507.93111 C -341.07755,448.97219 -318.77395,404.56014 -284.5426,369.39471 -250.31125,334.22928 -181.74518,298.88305 -137.13064,291.69597 -92.51609,284.50888 -72.329888,279.53567 -30.940232,299.19072 10.449425,318.84576 33.991158,352.36965 110.72545,396.99418 187.45974,441.6187 207.02966,438.40105 287.63404,479.39996 368.23842,520.39887 413.68962,536.11589 443.43875,591.9059 473.18788,647.69591 455.31899,695.19279 451.28407,705.36131 447.24915,715.52983 422.06147,776.76669 343.95183,785.20797 265.84219,793.64925 208.77147,740.69532 150.01496,688.43355 91.25845,636.17178 -1.9566719,616.5167 -47.430759,616.75255 -92.904846,616.9884 -115.17626,644.84284 -116.4623,685.19132 -117.74834,725.53979 -82.456136,781.76967 -50.924178,814.04447 -19.39222,846.31927 17.302046,859.29981 40.163307,859.44332 63.024568,859.58683 100.85545,866.33028 156.67507,832.20336 212.49469,798.07644 234.48716,754.18257 303.27552,639.05918 372.06388,523.93579 398.64527,491.26227 401.01012,427.48436 403.37497,363.70645 373.70743,323.22941 366.73772,313.98583 359.76801,304.74225 338.06209,277.62194 298.85092,261.26613 259.63975,244.91032 200.72172,237.86078 118.91424,283.77417 37.106755,329.68756 0.9473439,384.03037 -45.980133,392.78232 -92.90761,401.53427 -131.62223,395.5675 -159.03256,380.58316 -186.44288,365.59882 -235.52625,280.62797 -190.43633,185.21364 -145.34641,89.799307 -23.349523,75.194135 0,73.627845 23.349523,72.061555 84.039074,74.609431 144.8724,134.7877 205.70573,194.96597 213.61513,279.04572 208.39796,340.83829 203.18079,402.63086 182.24837,448.71335 149.15856,519.19521 116.06875,589.67707 70.578064,647.6666 1.0067195,700.1647 -68.564625,752.6628 -139.24438,777.74507 -233.38792,729.05204 -327.53146,680.35901 -347.47767,566.89004 -344.27761,507.93111 Z"
       id="path12564"
       inkscape:connector-curvature="0"
       sodipodi:nodetypes="zzzzzzzzzzzzzzzzzzzzzzzzzzzzzz" />
  </g>
</svg>
