<?xml version="1.0" encoding="UTF-8" standalone="no"?>
<!-- Created with Inkscape (http://www.inkscape.org/) -->

<svg
   xmlns:dc="http://purl.org/dc/elements/1.1/"
   xmlns:cc="http://creativecommons.org/ns#"
   xmlns:rdf="http://www.w3.org/1999/02/22-rdf-syntax-ns#"
   xmlns:svg="http://www.w3.org/2000/svg"
   xmlns="http://www.w3.org/2000/svg"
   xmlns:sodipodi="http://sodipodi.sourceforge.net/DTD/sodipodi-0.dtd"
   xmlns:inkscape="http://www.inkscape.org/namespaces/inkscape"
   width="210mm"
   height="297mm"
   viewBox="0 0 744.09448819 1052.3622047"
   id="svg12005"
   version="1.1"
   inkscape:version="0.91 r13725"
   sodipodi:docname="8_14.svg">
  <defs
     id="defs12007" />
  <sodipodi:namedview
     id="base"
     pagecolor="#ffffff"
     bordercolor="#666666"
     borderopacity="1.0"
     inkscape:pageopacity="0.0"
     inkscape:pageshadow="2"
     inkscape:zoom="0.93361998"
     inkscape:cx="-372.02405"
     inkscape:cy="576.5285"
     inkscape:document-units="px"
     inkscape:current-layer="layer1"
     showgrid="false"
     inkscape:window-width="2560"
     inkscape:window-height="1315"
     inkscape:window-x="273"
     inkscape:window-y="53"
     inkscape:window-maximized="0" />
  <metadata
     id="metadata12010">
    <rdf:RDF>
      <cc:Work
         rdf:about="">
        <dc:format>image/svg+xml</dc:format>
        <dc:type
           rdf:resource="http://purl.org/dc/dcmitype/StillImage" />
        <dc:title />
      </cc:Work>
    </rdf:RDF>
  </metadata>
  <g
     inkscape:label="Layer 1"
     inkscape:groupmode="layer"
     id="layer1">
    <path
       style="fill:none;fill-rule:evenodd;stroke:#000000;stroke-width:9.59008503px;stroke-linecap:butt;stroke-linejoin:miter;stroke-opacity:1"
       d="M  -323.619309513102 , 535.075096801555 C  -325.771875622688 , 521.067127453488 -337.866780107504 , 442.559725212397 -284.737177550809 , 369.684291045472 -231.607574994114 , 296.808856878547 -153.017329156474 , 285.493598458894 -135.113345187401 , 283.339395442671 -117.209361218327 , 281.185192426447 -78.9158707967203 , 278.280880996289 -25.5441098957332 , 298.348160457335 27.8276510052539 , 318.415439918382 42.7512656746075 , 342.421862463373 115.09742305624 , 384.441406936951 187.443580437872 , 426.460951410528 214.663043361106 , 428.291972971494 296.024722981648 , 469.787279228866 377.38640260219 , 511.282585486238 422.892068664044 , 545.370574751013 438.759317629263 , 598.788783311991 454.626566594483 , 652.20699187297 431.200516122703 , 690.060301309972 425.563328896366 , 698.739743262336 419.926141670029 , 707.4191852147 394.645795234549 , 744.682610226871 338.315258556019 , 753.949562214825 281.984721877489 , 763.216514202778 233.15872669704 , 737.662264497706 168.193450393619 , 696.753399900261 103.228174090198 , 655.844535302817 64.6604604293914 , 625.425739542888 11.9268055180933 , 617.54431558079 -40.8068493932049 , 609.662891618692 -85.1460072127575 , 627.144435126251 -114.893411903333 , 658.284614783842 -144.640816593908 , 689.424794441433 -180.664321521953 , 768.328146086349 -118.938758572104 , 841.224928174229 -57.213195622256 , 914.121710262108 34.9659423315069 , 899.335814365249 46.2201613270904 , 897.555753222991 57.4743803226739 , 895.775692080733 110.653188411856 , 886.970683517988 169.292361582087 , 840.612310105747 227.931534752319 , 794.253936693505 253.541416067958 , 744.189135893459 315.111474864658 , 632.394006686653 376.681533661358 , 520.598877479848 392.432535141951 , 477.10770108438 389.546460977754 , 427.12269591816 386.660386813556 , 377.137690751939 364.445016790403 , 344.335007936695 358.73921991757 , 336.107331766275 353.033423044738 , 327.879655595854 331.378357108272 , 297.683392898364 291.772478090122 , 278.964047523017 252.166599071972 , 260.24470214767 194.558609177312 , 254.164391292108 120.560732389612 , 289.153185992822 46.5628556019118 , 324.141980693536 37.6292988726673 , 352.622982295324 -25.6515881023694 , 374.508945195773 -88.932475077406 , 396.394908096222 -133.649680087393 , 376.640092313669 -152.707233912137 , 365.187689721289 -171.764787736882 , 353.735287128909 -253.757893209997 , 295.156924145504 -205.35117297198 , 185.116166426739 -156.944452733963 , 75.0754087079745 -18.8383365531777 , 74.8645068243403 0 , 74.8645068243403 18.8383365531777 , 74.8645068243403 80.193958387641 , 77.2166275206925 143.031577255497 , 138.25677930495 205.869196123354 , 199.296931089207 215.401505147812 , 292.077041462972 213.244676274436 , 344.927172732492 211.087847401061 , 397.777304002011 196.692365174364 , 458.027496904934 147.596051129993 , 548.782268232238 98.4997370856218 , 639.537039559542 64.9241985082929 , 686.135378471813 -5.56526525198009 , 714.356460053524 -76.054729012253 , 742.577541635234 -171.953418115596 , 735.957323397047 -240.882699150559 , 678.485879233569 -309.811980185522 , 621.014435070091 -321.466743403516 , 549.083066149622 -323.619309513102 , 535.075096801555 Z "
       id="path12564"
       inkscape:connector-curvature="0"
       sodipodi:nodetypes="zzzzzzzzzzzzzzzzzzzzzzzzzzzzzz" />
  </g>
</svg>
