<?xml version="1.0" encoding="UTF-8" standalone="no"?>
<!-- Created with Inkscape (http://www.inkscape.org/) -->

<svg
   xmlns:dc="http://purl.org/dc/elements/1.1/"
   xmlns:cc="http://creativecommons.org/ns#"
   xmlns:rdf="http://www.w3.org/1999/02/22-rdf-syntax-ns#"
   xmlns:svg="http://www.w3.org/2000/svg"
   xmlns="http://www.w3.org/2000/svg"
   xmlns:sodipodi="http://sodipodi.sourceforge.net/DTD/sodipodi-0.dtd"
   xmlns:inkscape="http://www.inkscape.org/namespaces/inkscape"
   width="210mm"
   height="297mm"
   viewBox="0 0 744.09448819 1052.3622047"
   id="svg12594"
   version="1.1"
   inkscape:version="0.91 r13725"
   sodipodi:docname="8_15.svg">
  <defs
     id="defs12596" />
  <sodipodi:namedview
     id="base"
     pagecolor="#ffffff"
     bordercolor="#666666"
     borderopacity="1.0"
     inkscape:pageopacity="0.0"
     inkscape:pageshadow="2"
     inkscape:zoom="0.83990968"
     inkscape:cx="-25.970645"
     inkscape:cy="837.28957"
     inkscape:document-units="px"
     inkscape:current-layer="layer1"
     showgrid="false"
     inkscape:window-width="698"
     inkscape:window-height="373"
     inkscape:window-x="526"
     inkscape:window-y="367"
     inkscape:window-maximized="0" />
  <metadata
     id="metadata12599">
    <rdf:RDF>
      <cc:Work
         rdf:about="">
        <dc:format>image/svg+xml</dc:format>
        <dc:type
           rdf:resource="http://purl.org/dc/dcmitype/StillImage" />
        <dc:title />
      </cc:Work>
    </rdf:RDF>
  </metadata>
  <g
     inkscape:label="Layer 1"
     inkscape:groupmode="layer"
     id="layer1">
    <path
       style="fill:none;fill-rule:evenodd;stroke:#000000;stroke-width:12.54376698px;stroke-linecap:butt;stroke-linejoin:miter;stroke-opacity:1"
       d="M  325.613157449416 , 110.781111610677 C  346.475964666872 , 210.775621670632 319.376136375479 , 309.735875628048 265.957348349544 , 387.989960813304 212.538560323609 , 466.24404599856 129.335351900246 , 548.223804614895 0 , 548.223804614895 -129.335351900246 , 548.223804614895 -212.538560323609 , 466.24404599856 -265.957348349544 , 387.989960813304 -319.376136375479 , 309.735875628048 -346.475964666872 , 210.775621670632 -325.613157449416 , 110.781111610677 -304.750350231961 , 10.7866015507229 -231.635630479975 , -84.7838643381604 -123.167374920535 , -92.9549816442591 -14.6991193610957 , -101.126098950358 53.4208399644407 , -10.1703268917066 44.0026103939571 , 71.7010249346448 34.5843808234736 , 153.572376760996 -8.88866788191513 , 158.22478735589 -51.9490066400259 , 226.353078460191 -95.0093453981367 , 294.481369564492 -87.4262072710279 , 319.847930253947 -126.341325897994 , 396.689211087496 -165.25644452496 , 473.530491921044 -218.343833153297 , 550.314879524735 -310.292108855426 , 551.125882549685 -402.240384557555 , 551.936885574635 -463.785222254862 , 464.960965903232 -432.449700567512 , 378.823807011441 -401.114178880163 , 292.686648119649 -302.853689617462 , 257.366351287782 -204.235778990953 , 271.385525801335 -105.617868364444 , 285.404700314888 -80.6818350001094 , 316.089236843907 0 , 316.089236843907 80.6818350001094 , 316.089236843907 105.617868364444 , 285.404700314888 204.235778990953 , 271.385525801335 302.853689617462 , 257.366351287782 401.114178880163 , 292.686648119649 432.449700567512 , 378.823807011441 463.785222254862 , 464.960965903232 402.240384557555 , 551.936885574635 310.292108855426 , 551.125882549685 218.343833153297 , 550.314879524735 165.25644452496 , 473.530491921044 126.341325897994 , 396.689211087496 87.4262072710279 , 319.847930253947 95.0093453981367 , 294.481369564492 51.9490066400259 , 226.353078460191 8.88866788191513 , 158.22478735589 -34.5843808234736 , 153.572376760996 -44.0026103939571 , 71.7010249346448 -53.4208399644407 , -10.1703268917066 14.6991193610957 , -101.126098950358 123.167374920535 , -92.9549816442591 231.635630479975 , -84.7838643381604 304.750350231961 , 10.7866015507229 325.613157449416 , 110.781111610677 Z "
       id="path13153"
       inkscape:connector-curvature="0"
       sodipodi:nodetypes="zzzzzzzzzzzzzzzzzzzzz" />
  </g>
</svg>
