<?xml version="1.0" encoding="UTF-8" standalone="no"?>
<!-- Created with Inkscape (http://www.inkscape.org/) -->

<svg
   xmlns:dc="http://purl.org/dc/elements/1.1/"
   xmlns:cc="http://creativecommons.org/ns#"
   xmlns:rdf="http://www.w3.org/1999/02/22-rdf-syntax-ns#"
   xmlns:svg="http://www.w3.org/2000/svg"
   xmlns="http://www.w3.org/2000/svg"
   xmlns:sodipodi="http://sodipodi.sourceforge.net/DTD/sodipodi-0.dtd"
   xmlns:inkscape="http://www.inkscape.org/namespaces/inkscape"
   width="210mm"
   height="297mm"
   viewBox="0 0 744.09448819 1052.3622047"
   id="svg12594"
   version="1.1"
   inkscape:version="0.91 r13725"
   sodipodi:docname="8_15.svg">
  <defs
     id="defs12596" />
  <sodipodi:namedview
     id="base"
     pagecolor="#ffffff"
     bordercolor="#666666"
     borderopacity="1.0"
     inkscape:pageopacity="0.0"
     inkscape:pageshadow="2"
     inkscape:zoom="0.83990968"
     inkscape:cx="-25.970645"
     inkscape:cy="837.28957"
     inkscape:document-units="px"
     inkscape:current-layer="layer1"
     showgrid="false"
     inkscape:window-width="698"
     inkscape:window-height="373"
     inkscape:window-x="526"
     inkscape:window-y="367"
     inkscape:window-maximized="0" />
  <metadata
     id="metadata12599">
    <rdf:RDF>
      <cc:Work
         rdf:about="">
        <dc:format>image/svg+xml</dc:format>
        <dc:type
           rdf:resource="http://purl.org/dc/dcmitype/StillImage" />
        <dc:title />
      </cc:Work>
    </rdf:RDF>
  </metadata>
  <g
     inkscape:label="Layer 1"
     inkscape:groupmode="layer"
     id="layer1">
    <path
       style="fill:none;fill-rule:evenodd;stroke:#000000;stroke-width:12.54376698px;stroke-linecap:butt;stroke-linejoin:miter;stroke-opacity:1"
       d="M  331.620142407521 , 108.648890999314 C  356.133597915457 , 217.038201708243 322.594565038626 , 321.073334330588 268.955934128842 , 395.414049896086 215.317303219057 , 469.754765461585 128.028560606546 , 544.988583983882 0 , 544.988583983882 -128.028560606546 , 544.988583983882 -215.317303219057 , 469.754765461585 -268.955934128842 , 395.414049896086 -322.594565038626 , 321.073334330588 -356.133597915457 , 217.038201708243 -331.620142407521 , 108.648890999314 -307.106686899585 , 0.259580290384463 -227.569332386844 , -84.2483206502852 -127.987632868844 , -91.7694007455186 -28.4059333508433 , -99.290480840752 39.482073120504 , -27.6430918586215 38.2359453769984 , 51.5968673322101 36.9898176334928 , 130.836826523042 -6.96058617347632 , 160.271276065726 -45.8914623168407 , 228.436571491174 -84.8223384602051 , 296.601866916621 -85.2771730814661 , 325.30101255735 -123.12110112887 , 399.373985750586 -160.965029176273 , 473.446958943822 -218.642196842693 , 553.569771542571 -311.698219531352 , 554.257334586373 -404.754242220012 , 554.944897630175 -464.124094424254 , 468.008643814869 -433.11015213985 , 384.093366747808 -402.096209855446 , 300.178089680747 -306.128125812295 , 265.967843887338 -206.39745794956 , 276.441137226518 -106.666790086825 , 286.914430565697 -74.8247975419732 , 309.28753458405 0 , 309.28753458405 74.8247975419732 , 309.28753458405 106.666790086825 , 286.914430565697 206.39745794956 , 276.441137226518 306.128125812295 , 265.967843887338 402.096209855446 , 300.178089680747 433.11015213985 , 384.093366747808 464.124094424254 , 468.008643814869 404.754242220012 , 554.944897630175 311.698219531352 , 554.257334586373 218.642196842693 , 553.569771542571 160.965029176273 , 473.446958943822 123.12110112887 , 399.373985750586 85.2771730814661 , 325.30101255735 84.8223384602051 , 296.601866916621 45.8914623168407 , 228.436571491174 6.96058617347633 , 160.271276065726 -36.9898176334928 , 130.836826523042 -38.2359453769984 , 51.5968673322101 -39.482073120504 , -27.6430918586215 28.4059333508433 , -99.290480840752 127.987632868844 , -91.7694007455186 227.569332386844 , -84.2483206502852 307.106686899585 , 0.259580290384463 331.620142407521 , 108.648890999314 Z "
       id="path13153"
       inkscape:connector-curvature="0"
       sodipodi:nodetypes="zzzzzzzzzzzzzzzzzzzzz" />
  </g>
</svg>
