<?xml version="1.0" encoding="UTF-8" standalone="no"?>
<!-- Created with Inkscape (http://www.inkscape.org/) -->

<svg
   xmlns:dc="http://purl.org/dc/elements/1.1/"
   xmlns:cc="http://creativecommons.org/ns#"
   xmlns:rdf="http://www.w3.org/1999/02/22-rdf-syntax-ns#"
   xmlns:svg="http://www.w3.org/2000/svg"
   xmlns="http://www.w3.org/2000/svg"
   xmlns:sodipodi="http://sodipodi.sourceforge.net/DTD/sodipodi-0.dtd"
   xmlns:inkscape="http://www.inkscape.org/namespaces/inkscape"
   width="210mm"
   height="297mm"
   viewBox="0 0 744.09448819 1052.3622047"
   id="svg12594"
   version="1.1"
   inkscape:version="0.91 r13725"
   sodipodi:docname="8_15.svg">
  <defs
     id="defs12596" />
  <sodipodi:namedview
     id="base"
     pagecolor="#ffffff"
     bordercolor="#666666"
     borderopacity="1.0"
     inkscape:pageopacity="0.0"
     inkscape:pageshadow="2"
     inkscape:zoom="0.83990968"
     inkscape:cx="-25.970645"
     inkscape:cy="837.28957"
     inkscape:document-units="px"
     inkscape:current-layer="layer1"
     showgrid="false"
     inkscape:window-width="698"
     inkscape:window-height="373"
     inkscape:window-x="526"
     inkscape:window-y="367"
     inkscape:window-maximized="0" />
  <metadata
     id="metadata12599">
    <rdf:RDF>
      <cc:Work
         rdf:about="">
        <dc:format>image/svg+xml</dc:format>
        <dc:type
           rdf:resource="http://purl.org/dc/dcmitype/StillImage" />
        <dc:title />
      </cc:Work>
    </rdf:RDF>
  </metadata>
  <g
     inkscape:label="Layer 1"
     inkscape:groupmode="layer"
     id="layer1">
    <path
       style="fill:none;fill-rule:evenodd;stroke:#000000;stroke-width:12.54376698px;stroke-linecap:butt;stroke-linejoin:miter;stroke-opacity:1"
       d="M  331.483125462629 , 109.049231476579 C  355.863483923926 , 217.468936289547 322.432054786259 , 321.139821868594 268.553428226757 , 395.486090371068 214.674801667255 , 469.832358873542 127.275300848367 , 544.414732437274 0 , 544.414732437274 -127.275300848367 , 544.414732437274 -214.674801667255 , 469.832358873542 -268.553428226757 , 395.486090371068 -322.432054786259 , 321.139821868594 -355.863483923926 , 217.468936289547 -331.483125462629 , 109.049231476579 -307.102767001332 , 0.629526663610989 -227.739510963471 , -84.0062779895516 -128.01906409439 , -91.6130107634031 -28.298617225309 , -99.2197435372546 39.4030633250581 , -27.5530416114868 38.2226608765431 , 51.4858591753746 37.0422584280281 , 130.524759962236 -6.79515169580027 , 159.970979058272 -45.7434537534915 , 228.229320946634 -84.6917558111827 , 296.487662834996 -85.0324381941729 , 324.827280826117 -122.704793187938 , 398.890633709354 -160.377148181703 , 472.953986592591 -217.675966677777 , 553.577706838794 -310.912523413525 , 554.781962757061 -404.149080149273 , 555.986218675328 -464.318728688283 , 469.012908316748 -433.257024378296 , 384.580932292966 -402.195320068309 , 300.148956269184 -305.723297795558 , 266.082974729582 -206.284049517613 , 276.4086453437 -106.844801239668 , 286.734315957818 -74.5641976057317 , 309.120835846763 0 , 309.120835846763 74.5641976057317 , 309.120835846763 106.844801239668 , 286.734315957818 206.284049517613 , 276.4086453437 305.723297795558 , 266.082974729582 402.195320068309 , 300.148956269184 433.257024378296 , 384.580932292966 464.318728688283 , 469.012908316748 404.149080149273 , 555.986218675328 310.912523413525 , 554.781962757061 217.675966677777 , 553.577706838794 160.377148181703 , 472.953986592591 122.704793187938 , 398.890633709354 85.0324381941729 , 324.827280826117 84.6917558111827 , 296.487662834996 45.7434537534915 , 228.229320946634 6.79515169580027 , 159.970979058272 -37.0422584280281 , 130.524759962236 -38.2226608765431 , 51.4858591753746 -39.4030633250581 , -27.5530416114868 28.298617225309 , -99.2197435372546 128.01906409439 , -91.6130107634031 227.739510963471 , -84.0062779895516 307.102767001332 , 0.629526663610989 331.483125462629 , 109.049231476579 Z "
       id="path13153"
       inkscape:connector-curvature="0"
       sodipodi:nodetypes="zzzzzzzzzzzzzzzzzzzzz" />
  </g>
</svg>
