<?xml version="1.0" encoding="UTF-8" standalone="no"?>
<!-- Created with Inkscape (http://www.inkscape.org/) -->

<svg
   xmlns:dc="http://purl.org/dc/elements/1.1/"
   xmlns:cc="http://creativecommons.org/ns#"
   xmlns:rdf="http://www.w3.org/1999/02/22-rdf-syntax-ns#"
   xmlns:svg="http://www.w3.org/2000/svg"
   xmlns="http://www.w3.org/2000/svg"
   xmlns:sodipodi="http://sodipodi.sourceforge.net/DTD/sodipodi-0.dtd"
   xmlns:inkscape="http://www.inkscape.org/namespaces/inkscape"
   width="210mm"
   height="297mm"
   viewBox="0 0 744.09448819 1052.3622047"
   id="svg13183"
   version="1.1"
   inkscape:version="0.91 r13725"
   sodipodi:docname="8_16.svg">
  <defs
     id="defs13185" />
  <sodipodi:namedview
     id="base"
     pagecolor="#ffffff"
     bordercolor="#666666"
     borderopacity="1.0"
     inkscape:pageopacity="0.0"
     inkscape:pageshadow="2"
     inkscape:zoom="1.4420126"
     inkscape:cx="-63.248121"
     inkscape:cy="466.88167"
     inkscape:document-units="px"
     inkscape:current-layer="layer1"
     showgrid="false"
     inkscape:window-width="2560"
     inkscape:window-height="1315"
     inkscape:window-x="0"
     inkscape:window-y="1"
     inkscape:window-maximized="1" />
  <metadata
     id="metadata13188">
    <rdf:RDF>
      <cc:Work
         rdf:about="">
        <dc:format>image/svg+xml</dc:format>
        <dc:type
           rdf:resource="http://purl.org/dc/dcmitype/StillImage" />
        <dc:title />
      </cc:Work>
    </rdf:RDF>
  </metadata>
  <g
     inkscape:label="Layer 1"
     inkscape:groupmode="layer"
     id="layer1">
    <path
       style="fill:none;fill-rule:evenodd;stroke:#000000;stroke-width:10.2963438px;stroke-linecap:butt;stroke-linejoin:miter;stroke-opacity:1"
       d="M  233.361831788823 , 272.144390101917 C  244.871889626625 , 281.237290894955 290.490083006342 , 318.819381705368 304.792393324886 , 392.779036628643 319.094703643431 , 466.738691551917 298.176470741329 , 523.59786690184 234.983558575644 , 661.650063594433 171.790646409959 , 799.702260287027 146.277809524804 , 840.111564776574 100.521495041733 , 869.955729493407 54.765180558663 , 899.79989421024 11.1664542046037 , 900.399545168962 0 , 900.399545168962 -11.1664542046037 , 900.399545168962 -54.765180558663 , 899.79989421024 -100.521495041733 , 869.955729493407 -146.277809524804 , 840.111564776574 -171.790646409959 , 799.702260287027 -234.983558575644 , 661.650063594433 -298.176470741329 , 523.59786690184 -319.094703643431 , 466.738691551917 -304.792393324886 , 392.779036628643 -290.490083006342 , 318.819381705368 -244.871889626625 , 281.237290894955 -233.361831788823 , 272.144390101917 -221.851773951022 , 263.05148930888 -175.594244936305 , 228.134220176393 -107.63946995356 , 234.337937910639 -39.684694970815 , 240.541655644884 18.3076083270368 , 287.166763711178 57.9574730642302 , 370.556238578936 97.6073378014236 , 453.945713446695 84.2273815000443 , 533.421241656536 58.9739935233015 , 590.590750772483 33.7206055465587 , 647.760259888429 -2.66698150282553 , 685.429073665559 -79.1915836837993 , 743.271758201065 -155.716185864773 , 801.114442736572 -208.243230318443 , 841.953350777591 -285.925287138496 , 831.68523407283 -363.607343958548 , 821.417117368069 -395.515605367501 , 765.51279162803 -402.168540469578 , 753.166288278742 -408.821475571655 , 740.819784929454 -441.247464335416 , 677.391877117029 -398.399205289957 , 602.823009882405 -355.550946244498 , 528.254142647782 -274.034455566066 , 511.347931996592 -196.642732777183 , 499.07666240154 -119.2510099883 , 486.805392806489 -37.2668484527966 , 487.246635800024 0 , 487.246635800024 37.2668484527966 , 487.246635800024 119.2510099883 , 486.805392806489 196.642732777183 , 499.07666240154 274.034455566066 , 511.347931996592 355.550946244498 , 528.254142647782 398.399205289957 , 602.823009882405 441.247464335416 , 677.391877117029 408.821475571655 , 740.819784929454 402.168540469578 , 753.166288278742 395.515605367501 , 765.51279162803 363.607343958548 , 821.417117368069 285.925287138496 , 831.68523407283 208.243230318443 , 841.953350777591 155.716185864773 , 801.114442736572 79.1915836837993 , 743.271758201065 2.66698150282554 , 685.429073665559 -33.7206055465587 , 647.760259888429 -58.9739935233015 , 590.590750772483 -84.2273815000443 , 533.421241656536 -97.6073378014236 , 453.945713446695 -57.9574730642302 , 370.556238578936 -18.3076083270368 , 287.166763711178 39.684694970815 , 240.541655644884 107.63946995356 , 234.337937910639 175.594244936305 , 228.134220176393 221.851773951022 , 263.05148930888 233.361831788823 , 272.144390101917 Z "
       id="path13742"
       inkscape:connector-curvature="0"
       sodipodi:nodetypes="zzzzzzzzzzzzzzzzzzzzzzzzzzz" />
  </g>
</svg>
