<?xml version="1.0" encoding="UTF-8" standalone="no"?>
<!-- Created with Inkscape (http://www.inkscape.org/) -->

<svg
   xmlns:dc="http://purl.org/dc/elements/1.1/"
   xmlns:cc="http://creativecommons.org/ns#"
   xmlns:rdf="http://www.w3.org/1999/02/22-rdf-syntax-ns#"
   xmlns:svg="http://www.w3.org/2000/svg"
   xmlns="http://www.w3.org/2000/svg"
   xmlns:sodipodi="http://sodipodi.sourceforge.net/DTD/sodipodi-0.dtd"
   xmlns:inkscape="http://www.inkscape.org/namespaces/inkscape"
   width="210mm"
   height="297mm"
   viewBox="0 0 744.09448819 1052.3622047"
   id="svg13183"
   version="1.1"
   inkscape:version="0.91 r13725"
   sodipodi:docname="8_16.svg">
  <defs
     id="defs13185" />
  <sodipodi:namedview
     id="base"
     pagecolor="#ffffff"
     bordercolor="#666666"
     borderopacity="1.0"
     inkscape:pageopacity="0.0"
     inkscape:pageshadow="2"
     inkscape:zoom="1.4420126"
     inkscape:cx="-63.248121"
     inkscape:cy="466.88167"
     inkscape:document-units="px"
     inkscape:current-layer="layer1"
     showgrid="false"
     inkscape:window-width="2560"
     inkscape:window-height="1315"
     inkscape:window-x="0"
     inkscape:window-y="1"
     inkscape:window-maximized="1" />
  <metadata
     id="metadata13188">
    <rdf:RDF>
      <cc:Work
         rdf:about="">
        <dc:format>image/svg+xml</dc:format>
        <dc:type
           rdf:resource="http://purl.org/dc/dcmitype/StillImage" />
        <dc:title />
      </cc:Work>
    </rdf:RDF>
  </metadata>
  <g
     inkscape:label="Layer 1"
     inkscape:groupmode="layer"
     id="layer1">
    <path
       style="fill:none;fill-rule:evenodd;stroke:#000000;stroke-width:10.2963438px;stroke-linecap:butt;stroke-linejoin:miter;stroke-opacity:1"
       d="M  236.63298140004 , 280.489713047053 C  247.99410418266 , 289.881030734742 287.71475593343 , 324.31388496009 305.069272433924 , 389.36710180889 322.423788934417 , 454.42031865769 314.765842762832 , 523.709203024389 246.360343583281 , 670.052713743169 177.95484440373 , 816.396224461949 131.080269757095 , 853.857931193975 89.8123425723669 , 874.619871570915 48.5444153876388 , 895.381811947854 11.810610302569 , 896.180993410605 0 , 896.180993410605 -11.810610302569 , 896.180993410605 -48.5444153876388 , 895.381811947854 -89.8123425723669 , 874.619871570915 -131.080269757095 , 853.857931193975 -177.954844403729 , 816.396224461949 -246.360343583281 , 670.052713743169 -314.765842762832 , 523.709203024389 -322.423788934417 , 454.42031865769 -305.069272433924 , 389.36710180889 -287.71475593343 , 324.31388496009 -247.99410418266 , 289.881030734742 -236.63298140004 , 280.489713047053 -225.271858617421 , 271.098395359363 -180.028278076215 , 235.285691158858 -112.433768190577 , 237.609377558285 -44.8392583049389 , 239.933063957712 20.6043914300722 , 282.109622430597 61.3348292503665 , 366.367281050854 102.065267070661 , 450.624939671112 85.8691769229419 , 533.349374680298 61.5228341844371 , 589.539515912913 37.1764914459322 , 645.729657145528 -2.76024169138343 , 694.919345537134 -78.9182398749109 , 751.707884249811 -155.076238058438 , 808.496422962489 -217.338128420932 , 841.74912038126 -289.386174555022 , 827.632047113557 -361.434220689112 , 813.514973845854 -390.823192390041 , 761.494809060911 -397.314204833093 , 749.31176021215 -403.805217276144 , 737.12871136339 -433.377548012034 , 678.614898762482 -397.438784137216 , 607.357949033476 -361.500020262398 , 536.100999304471 -287.072248400268 , 509.643610504196 -203.892127241171 , 492.608224932739 -120.712006082073 , 475.572839361282 -38.5989109793591 , 475.821159118015 0 , 475.821159118015 38.5989109793591 , 475.821159118015 120.712006082073 , 475.572839361282 203.892127241171 , 492.608224932739 287.072248400268 , 509.643610504196 361.500020262398 , 536.100999304471 397.438784137216 , 607.357949033476 433.377548012034 , 678.614898762482 403.805217276144 , 737.12871136339 397.314204833093 , 749.31176021215 390.823192390041 , 761.494809060911 361.434220689112 , 813.514973845854 289.386174555022 , 827.632047113557 217.338128420932 , 841.74912038126 155.076238058438 , 808.496422962489 78.9182398749109 , 751.707884249811 2.76024169138341 , 694.919345537134 -37.1764914459322 , 645.729657145528 -61.5228341844371 , 589.539515912913 -85.8691769229419 , 533.349374680298 -102.065267070661 , 450.624939671112 -61.3348292503665 , 366.367281050854 -20.6043914300722 , 282.109622430597 44.8392583049389 , 239.933063957712 112.433768190577 , 237.609377558285 180.028278076215 , 235.285691158858 225.271858617421 , 271.098395359363 236.63298140004 , 280.489713047053 Z "
       id="path13742"
       inkscape:connector-curvature="0"
       sodipodi:nodetypes="zzzzzzzzzzzzzzzzzzzzzzzzzzz" />
  </g>
</svg>
