<?xml version="1.0" encoding="UTF-8" standalone="no"?>
<!-- Created with Inkscape (http://www.inkscape.org/) -->

<svg
   xmlns:dc="http://purl.org/dc/elements/1.1/"
   xmlns:cc="http://creativecommons.org/ns#"
   xmlns:rdf="http://www.w3.org/1999/02/22-rdf-syntax-ns#"
   xmlns:svg="http://www.w3.org/2000/svg"
   xmlns="http://www.w3.org/2000/svg"
   xmlns:sodipodi="http://sodipodi.sourceforge.net/DTD/sodipodi-0.dtd"
   xmlns:inkscape="http://www.inkscape.org/namespaces/inkscape"
   width="210mm"
   height="297mm"
   viewBox="0 0 744.09448819 1052.3622047"
   id="svg4142"
   version="1.1"
   inkscape:version="0.91 r13725"
   sodipodi:docname="8_17.svg">
  <defs
     id="defs4144" />
  <sodipodi:namedview
     id="base"
     pagecolor="#ffffff"
     bordercolor="#666666"
     borderopacity="1.0"
     inkscape:pageopacity="0.0"
     inkscape:pageshadow="2"
     inkscape:zoom="0.65924641"
     inkscape:cx="157.69599"
     inkscape:cy="929.40623"
     inkscape:document-units="px"
     inkscape:current-layer="layer1"
     showgrid="false"
     inkscape:window-width="1215"
     inkscape:window-height="716"
     inkscape:window-x="151"
     inkscape:window-y="24"
     inkscape:window-maximized="0" />
  <metadata
     id="metadata4147">
    <rdf:RDF>
      <cc:Work
         rdf:about="">
        <dc:format>image/svg+xml</dc:format>
        <dc:type
           rdf:resource="http://purl.org/dc/dcmitype/StillImage" />
        <dc:title />
      </cc:Work>
    </rdf:RDF>
  </metadata>
  <g
     inkscape:label="Layer 1"
     inkscape:groupmode="layer"
     id="layer1">
    <path
       style="fill:none;stroke:#000000;stroke-width:9.72444248px;stroke-linecap:butt;stroke-linejoin:miter;stroke-opacity:1"
       d="M  -183.169736638993 , -281.307815750741 C  -99.5071462957153 , -286.365828450241 -33.0379835443473 , -232.151398628717 13.990000405326 , -184.285280728477 61.0179843549994 , -136.419162828238 88.2606862860583 , -88.5807456090295 111.013819790331 , 16.2013047809902 133.766953294604 , 120.98335517101 104.245285549872 , 180.787025390766 73.574698910413 , 209.256947092396 42.9041122709538 , 237.726868794026 9.73971613375297 , 238.92393922528 0 , 238.92393922528 -9.73971613375297 , 238.92393922528 -54.8672524025671 , 237.861810336466 -86.8888404002653 , 193.21425020253 -118.910428397964 , 148.566690068595 -110.726887091198 , 107.262056684676 -109.756967550602 , 30.1603762753327 -108.787048010006 , -46.9413041340105 -126.571170950387 , -64.4480328679719 -103.217125434608 , -151.495193026624 -79.8630799188296 , -238.542353185277 -36.9617869129905 , -302.102656402199 35.0112230900785 , -319.888543547879 106.984233093147 , -337.674430693559 178.109975612054 , -306.188672944412 220.620970740236 , -247.405690876604 263.131965868418 , -188.622708808797 262.866038536895 , -127.231433079385 262.649468643469 , -25.939523495632 262.432898750042 , 75.3523860881207 262.590826736325 , 1.23895246464887 262.452648184195 , 65.5668098156971 262.314469632064 , 129.894667166745 270.081181164303 , 254.781989397152 150.07610666187 , 335.895447952442 30.0710321594379 , 417.008906507731 -92.3910770982039 , 384.505315293635 -134.592537610948 , 369.181337704021 -176.793998123692 , 353.857360114407 -263.72383790345 , 310.88378637191 -295.138968325772 , 212.626010098127 -326.554098748094 , 114.368233824343 -273.798793575848 , 34.17360815201 -205.158469814105 , -9.29010555406654 -136.518146052362 , -52.753819260143 -110.402386452533 , -34.7827805450661 -16.1236856895509 , -58.4042145582879 78.1550150734316 , -82.0256485715098 83.5900992550719 , -97.7407265691757 167.041833994393 , -119.707983324431 250.493568733714 , -141.675240079686 312.190239124404 , -149.305024350981 370.520504612194 , -114.921088038985 428.850770099983 , -80.5371517269887 447.109129204988 , -25.8063233811961 446.948466522374 , 15.000131448231 446.787803839761 , 55.806586277658 427.41570916569 , 113.110180594431 366.038676985538 , 145.135921566176 304.661644805385 , 177.16166253792 249.613319278751 , 161.26065100138 185.238091383287 , 148.59218891171 120.862863487823 , 135.923726822041 101.585377154428 , 127.590618040565 -0.730822176557289 , 115.058067063649 -103.047021507543 , 102.525516086734 -126.112349861888 , 117.714000284669 -197.133132471933 , 97.1358587618349 -268.153915081977 , 76.5577172390006 -329.286975609295 , 37.6275135805756 -353.501240604004 , -33.4213939685808 -377.715505598713 , -104.470301517737 -353.262678883846 , -163.037424009115 -333.631238721944 , -193.573095827547 -313.999798560041 , -224.108767645979 -266.832326982271 , -276.24980305124 -183.169736638993 , -281.307815750741 Z "
       id="path4710"
       inkscape:connector-curvature="0"
       sodipodi:nodetypes="zzzzzzzzzzzzzzzzzzzzzzzzzzz" />
  </g>
</svg>
