<?xml version="1.0" encoding="UTF-8" standalone="no"?>
<!-- Created with Inkscape (http://www.inkscape.org/) -->

<svg
   xmlns:dc="http://purl.org/dc/elements/1.1/"
   xmlns:cc="http://creativecommons.org/ns#"
   xmlns:rdf="http://www.w3.org/1999/02/22-rdf-syntax-ns#"
   xmlns:svg="http://www.w3.org/2000/svg"
   xmlns="http://www.w3.org/2000/svg"
   xmlns:sodipodi="http://sodipodi.sourceforge.net/DTD/sodipodi-0.dtd"
   xmlns:inkscape="http://www.inkscape.org/namespaces/inkscape"
   width="210mm"
   height="297mm"
   viewBox="0 0 744.09448819 1052.3622047"
   id="svg4142"
   version="1.1"
   inkscape:version="0.91 r13725"
   sodipodi:docname="8_17.svg">
  <defs
     id="defs4144" />
  <sodipodi:namedview
     id="base"
     pagecolor="#ffffff"
     bordercolor="#666666"
     borderopacity="1.0"
     inkscape:pageopacity="0.0"
     inkscape:pageshadow="2"
     inkscape:zoom="0.65924641"
     inkscape:cx="157.69599"
     inkscape:cy="929.40623"
     inkscape:document-units="px"
     inkscape:current-layer="layer1"
     showgrid="false"
     inkscape:window-width="1215"
     inkscape:window-height="716"
     inkscape:window-x="151"
     inkscape:window-y="24"
     inkscape:window-maximized="0" />
  <metadata
     id="metadata4147">
    <rdf:RDF>
      <cc:Work
         rdf:about="">
        <dc:format>image/svg+xml</dc:format>
        <dc:type
           rdf:resource="http://purl.org/dc/dcmitype/StillImage" />
        <dc:title />
      </cc:Work>
    </rdf:RDF>
  </metadata>
  <g
     inkscape:label="Layer 1"
     inkscape:groupmode="layer"
     id="layer1">
    <path
       style="fill:none;stroke:#000000;stroke-width:9.72444248px;stroke-linecap:butt;stroke-linejoin:miter;stroke-opacity:1"
       d="M  -183.427217402673 , -278.832199073673 C  -100.045374410869 , -281.886583254354 -31.2820434442542 , -232.878996644621 14.2128689114638 , -186.867455990958 59.7077812671817 , -140.855915337295 89.3736109308407 , -88.0425712513523 113.508291422546 , 15.3523705472163 137.642971914252 , 118.747312345785 104.727617179044 , 182.114881961132 73.6603529140002 , 209.178878595997 42.5930886489561 , 236.242875230863 11.2507134281793 , 237.927002402914 0 , 237.927002402914 -11.2507134281793 , 237.927002402914 -51.9233559292732 , 237.042932294967 -85.4306018275076 , 193.602887217593 -118.937847725742 , 150.162842140219 -116.720841007322 , 105.780669577431 -115.256084426726 , 33.2144754863055 -113.791327846131 , -39.3517186048196 -125.29331251284 , -65.581293592461 -106.824264334725 , -151.342253812194 -88.3552161566113 , -237.103214031927 -35.9986828794341 , -301.090967491429 35.8208914891071 , -318.634976315919 107.640465857648 , -336.178985140409 178.062338782114 , -305.392910221786 217.11622390337 , -246.395664979965 256.170109024627 , -187.398419738143 259.61777610913 , -126.732632198319 261.936216313083 , -26.5001227148146 264.254656517035 , 73.7323867686895 262.593203728629 , 1.58988748513321 264.015507272853 , 63.5800407470792 265.437810817078 , 125.570194009025 267.203325800712 , 253.425335676435 148.616414409553 , 335.237349547871 30.0295030183941 , 417.049363419306 -92.6163712672209 , 384.714085207168 -134.546147667942 , 369.591726216371 -176.475924068663 , 354.469367225574 -264.116821526868 , 310.788118028654 -293.04522000273 , 212.680257136097 -321.973618478592 , 114.57239624354 -272.396689168878 , 33.7851739359586 -206.528784389129 , -7.45431483332394 -140.66087960938 , -48.6938036026065 -110.860537065396 , -38.9804062289669 -17.5186408342513 , -64.5527506477942 75.8232553968935 , -90.1250950666215 84.0179521140243 , -99.621237535996 164.418638068347 , -122.49789443659 244.81932402267 , -145.374551337184 312.581298454268 , -147.665646106657 369.897814560729 , -113.437681428702 427.21433066719 , -79.2097167507467 447.619102284374 , -25.9695221749556 447.26489782234 , 15.4963277350558 446.910693360306 , 56.9621776450672 425.597498509658 , 111.464800388433 366.066572373981 , 142.03185326145 306.535646238304 , 172.598906134467 248.37455961093 , 162.545522157996 185.010573835551 , 152.300566005955 121.646588060171 , 142.055609853915 100.541985857299 , 131.555326474203 -1.01137833118867 , 120.087048806144 -102.564742519676 , 108.618771138084 -127.158220264239 , 118.841218143518 -196.743292661178 , 99.4984118158711 -266.328365058117 , 80.1556054882243 -328.546448797395 , 36.6258236187562 -352.454358198373 , -34.1474024192172 -376.362267599351 , -104.920628457191 -353.199580145561 , -163.289914162696 -333.957256852493 , -193.69868865698 -314.714933559426 , -224.107463151264 -266.809060394477 , -275.777814892992 -183.427217402673 , -278.832199073673 Z "
       id="path4710"
       inkscape:connector-curvature="0"
       sodipodi:nodetypes="zzzzzzzzzzzzzzzzzzzzzzzzzzz" />
  </g>
</svg>
