<?xml version="1.0" encoding="UTF-8" standalone="no"?>
<!-- Created with Inkscape (http://www.inkscape.org/) -->

<svg
   version="1.1"
   id="svg40"
   width="672"
   height="672"
   viewBox="0 0 672 672"
   sodipodi:docname="8_18_circles.svg"
   inkscape:version="1.2.2 (b0a8486, 2022-12-01)"
   xmlns:inkscape="http://www.inkscape.org/namespaces/inkscape"
   xmlns:sodipodi="http://sodipodi.sourceforge.net/DTD/sodipodi-0.dtd"
   xmlns="http://www.w3.org/2000/svg"
   xmlns:svg="http://www.w3.org/2000/svg">
  <defs
     id="defs44">
    <clipPath
       clipPathUnits="userSpaceOnUse"
       id="clipPath455">
      <g
         id="g459">
        <path
           d="M 80.64,73.44 H 452.16 V 444.96 H 80.64 Z"
           id="path457" />
      </g>
    </clipPath>
    <clipPath
       clipPathUnits="userSpaceOnUse"
       id="clipPath461">
      <g
         id="g465">
        <path
           d="M 80.64,73.44 H 452.16 V 444.96 H 80.64 Z"
           id="path463" />
      </g>
    </clipPath>
    <clipPath
       clipPathUnits="userSpaceOnUse"
       id="clipPath467">
      <g
         id="g471">
        <path
           d="M 80.64,73.44 H 452.16 V 444.96 H 80.64 Z"
           id="path469" />
      </g>
    </clipPath>
    <clipPath
       clipPathUnits="userSpaceOnUse"
       id="clipPath473">
      <g
         id="g477">
        <path
           d="M 80.64,73.44 H 452.16 V 444.96 H 80.64 Z"
           id="path475" />
      </g>
    </clipPath>
    <clipPath
       clipPathUnits="userSpaceOnUse"
       id="clipPath479">
      <g
         id="g483">
        <path
           d="M 80.64,73.44 H 452.16 V 444.96 H 80.64 Z"
           id="path481" />
      </g>
    </clipPath>
    <clipPath
       clipPathUnits="userSpaceOnUse"
       id="clipPath485">
      <g
         id="g489">
        <path
           d="M 80.64,73.44 H 452.16 V 444.96 H 80.64 Z"
           id="path487" />
      </g>
    </clipPath>
    <clipPath
       clipPathUnits="userSpaceOnUse"
       id="clipPath491">
      <g
         id="g495">
        <path
           d="M 80.64,73.44 H 452.16 V 444.96 H 80.64 Z"
           id="path493" />
      </g>
    </clipPath>
    <clipPath
       clipPathUnits="userSpaceOnUse"
       id="clipPath497">
      <g
         id="g501">
        <path
           d="M 80.64,73.44 H 452.16 V 444.96 H 80.64 Z"
           id="path499" />
      </g>
    </clipPath>
    <clipPath
       clipPathUnits="userSpaceOnUse"
       id="clipPath503">
      <g
         id="g507">
        <path
           d="M 80.64,73.44 H 452.16 V 444.96 H 80.64 Z"
           id="path505" />
      </g>
    </clipPath>
    <clipPath
       clipPathUnits="userSpaceOnUse"
       id="clipPath509">
      <g
         id="g513">
        <path
           d="M 80.64,73.44 H 452.16 V 444.96 H 80.64 Z"
           id="path511" />
      </g>
    </clipPath>
    <clipPath
       clipPathUnits="userSpaceOnUse"
       id="clipPath515">
      <g
         id="g519">
        <path
           d="M 80.64,73.44 H 452.16 V 444.96 H 80.64 Z"
           id="path517" />
      </g>
    </clipPath>
    <clipPath
       clipPathUnits="userSpaceOnUse"
       id="clipPath521">
      <g
         id="g525">
        <path
           d="M 80.64,73.44 H 452.16 V 444.96 H 80.64 Z"
           id="path523" />
      </g>
    </clipPath>
    <clipPath
       clipPathUnits="userSpaceOnUse"
       id="clipPath527">
      <g
         id="g531">
        <path
           d="M 80.64,73.44 H 452.16 V 444.96 H 80.64 Z"
           id="path529" />
      </g>
    </clipPath>
    <clipPath
       clipPathUnits="userSpaceOnUse"
       id="clipPath533">
      <g
         id="g537">
        <path
           d="M 80.64,73.44 H 452.16 V 444.96 H 80.64 Z"
           id="path535" />
      </g>
    </clipPath>
    <clipPath
       clipPathUnits="userSpaceOnUse"
       id="clipPath539">
      <g
         id="g543">
        <path
           d="M 80.64,73.44 H 452.16 V 444.96 H 80.64 Z"
           id="path541" />
      </g>
    </clipPath>
    <clipPath
       clipPathUnits="userSpaceOnUse"
       id="clipPath545">
      <g
         id="g549">
        <path
           d="M 80.64,73.44 H 452.16 V 444.96 H 80.64 Z"
           id="path547" />
      </g>
    </clipPath>
  </defs>
  <sodipodi:namedview
     id="namedview42"
     pagecolor="#ffffff"
     bordercolor="#000000"
     borderopacity="0.25"
     inkscape:showpageshadow="2"
     inkscape:pageopacity="0.0"
     inkscape:pagecheckerboard="0"
     inkscape:deskcolor="#d1d1d1"
     showgrid="false"
     inkscape:zoom="1.5884911"
     inkscape:cx="222.22347"
     inkscape:cy="358.51633"
     inkscape:window-width="2057"
     inkscape:window-height="1277"
     inkscape:window-x="0"
     inkscape:window-y="25"
     inkscape:window-maximized="0"
     inkscape:current-layer="g48">
    <inkscape:page
       x="0"
       y="0"
       id="page46"
       width="672"
       height="672" />
  </sodipodi:namedview>
  <g
     id="g48"
     inkscape:groupmode="layer"
     inkscape:label="Page 1"
     transform="matrix(1.3333333,0,0,-1.3333333,0,672)">
    <g
       id="g50" />
    <g
       id="g52" />
    <path
       d="m 309.4,216.2 h -86"
       style="fill:none;stroke:#000000;stroke-width:8.25;stroke-linecap:round;stroke-linejoin:round;stroke-miterlimit:10;stroke-dasharray:none;stroke-opacity:1"
       id="path66"
       clip-path="url(#clipPath533)"
       transform="rotate(-90,255.60001,262.8)" />
    <path
       d="m 266.4,406.01 -2.37,2.29 -2.43,2.22 -2.51,2.14 -2.57,2.05 -2.64,1.98 -2.7,1.89 -2.76,1.8 -2.81,1.71 -2.86,1.63 -2.92,1.53 -2.96,1.44 -3.01,1.35 -3.05,1.24 -3.09,1.15 -3.12,1.06 -3.15,0.95 -3.18,0.85 -3.21,0.75 -3.23,0.65 -3.25,0.55 -3.26,0.44 -3.28,0.34 -3.28,0.24 -3.3,0.13 -3.29,0.02 -3.29,-0.07 -3.29,-0.19 -3.28,-0.28 -3.27,-0.4 -3.26,-0.49 -3.24,-0.6 -3.22,-0.7 -3.19,-0.8 -3.17,-0.9 -3.14,-1.01 -3.1,-1.1 -3.07,-1.2 -3.03,-1.3 -2.99,-1.39 -2.94,-1.48 -2.89,-1.58 -2.84,-1.67 -2.78,-1.76 -2.73,-1.85 -2.67,-1.93 -2.6,-2.01 -2.54,-2.1 -2.48,-2.18 -2.4,-2.25 -2.33,-2.33 -2.25,-2.4 -2.18,-2.48 -2.1,-2.54 -2.01,-2.6 -1.93,-2.67 -1.85,-2.73 -1.76,-2.78 -1.67,-2.84 -1.58,-2.89 -1.48,-2.94 -1.39,-2.99 -1.3,-3.03 -1.2,-3.07 -1.1,-3.1 -1.01,-3.14 -0.9,-3.17 -0.8,-3.19 -0.7,-3.22 -0.6,-3.24 -0.49,-3.26 -0.4,-3.27 -0.28,-3.28 -0.19,-3.29 -0.07,-3.29 0.02,-3.29 0.13,-3.3 0.24,-3.28 0.34,-3.28 0.44,-3.26 0.55,-3.25 0.65,-3.23 0.75,-3.21 0.85,-3.18 0.95,-3.15 1.06,-3.12 1.15,-3.09 1.24,-3.05 1.35,-3.01 1.44,-2.96 1.53,-2.92 1.63,-2.86 1.71,-2.81 1.8,-2.76 1.89,-2.7 1.98,-2.64 2.05,-2.57 2.14,-2.51 2.22,-2.43 2.29,-2.37"
       style="fill:none;stroke:#000000;stroke-width:8.25;stroke-linecap:round;stroke-linejoin:round;stroke-miterlimit:10;stroke-dasharray:none;stroke-opacity:1"
       id="path90"
       clip-path="url(#clipPath461)"
       transform="rotate(-90,255.60001,262.8)" />
    <path
       d="m 223.4,216.2 h -1.16 l -1.17,0.02 -1.16,0.02 -1.17,0.03 -1.16,0.05 -1.17,0.05 -1.16,0.06 -1.16,0.07 -1.16,0.07 -1.16,0.09 -1.17,0.1 -1.16,0.1 -1.15,0.12 -1.16,0.12 -1.16,0.14 -1.16,0.14 -1.15,0.15 -1.15,0.16 -1.16,0.17 -1.15,0.18 -1.15,0.19 -1.14,0.2 -1.15,0.21 -1.14,0.21 -1.15,0.23 -1.14,0.23 -1.14,0.25 -1.13,0.25 -1.14,0.26 -1.13,0.27 -1.13,0.28 -1.13,0.29 -1.13,0.29 -1.12,0.31 -1.12,0.31 -1.12,0.33 -1.12,0.33 -1.11,0.34 -1.11,0.35 -1.11,0.36 -1.11,0.37 -1.1,0.37 -1.1,0.39 -1.09,0.39 -1.1,0.41 -1.08,0.41 -1.09,0.42 -1.08,0.43 -1.08,0.43 -1.08,0.45 -1.07,0.45 -1.07,0.47 -1.07,0.47 -1.06,0.48 -1.06,0.49 -1.05,0.49 -1.05,0.51 -1.04,0.51 -1.05,0.52 -1.03,0.53 -1.04,0.54 -1.02,0.54 -1.03,0.56 -1.02,0.56 -1.01,0.57 -1.02,0.58 -1,0.59 -1,0.59 -1,0.6 -0.99,0.61 -0.99,0.62 -0.98,0.63 -0.98,0.63 -0.97,0.64 -0.97,0.65 -0.96,0.66 -0.96,0.66 -0.95,0.67 -0.94,0.68 -0.95,0.69 -0.93,0.69 -0.93,0.7 -0.92,0.71 -0.92,0.72 -0.92,0.72 -0.9,0.73 -0.9,0.74 -0.9,0.75 -0.89,0.75 -0.88,0.76 -0.88,0.76 -0.87,0.78 -0.86,0.78 -0.86,0.78 -0.86,0.8 -0.84,0.8 -0.84,0.81 -0.83,0.81 -0.83,0.82"
       style="fill:none;stroke:#000000;stroke-width:8.25;stroke-linecap:round;stroke-linejoin:round;stroke-miterlimit:10;stroke-dasharray:none;stroke-opacity:1"
       id="path76"
       clip-path="url(#clipPath503)"
       transform="rotate(-90,255.60001,262.8)" />
    <rect
       style="fill:#ffffff;fill-opacity:1;stroke-width:0.75"
       id="rect2264"
       width="16.685492"
       height="16.685492"
       x="-112.25545"
       y="-468.63727"
       transform="matrix(0.70710678,-0.70710678,-0.70710678,-0.70710678,0,0)" />
    <path
       d="m 309.4,302.2 v -86"
       style="fill:none;stroke:#000000;stroke-width:8.25;stroke-linecap:round;stroke-linejoin:round;stroke-miterlimit:10;stroke-dasharray:none;stroke-opacity:1"
       id="path64"
       clip-path="url(#clipPath539)"
       transform="rotate(-90,255.60001,262.8)" />
    <path
       d="m 309.4,302.2 v 1.16 l -0.02,1.17 -0.02,1.16 -0.03,1.17 -0.05,1.16 -0.05,1.17 -0.06,1.16 -0.07,1.16 -0.07,1.16 -0.09,1.16 -0.1,1.17 -0.1,1.16 -0.12,1.15 -0.12,1.16 -0.14,1.16 -0.14,1.16 -0.15,1.15 -0.16,1.15 -0.17,1.16 -0.18,1.15 -0.19,1.15 -0.2,1.14 -0.21,1.15 -0.21,1.14 -0.23,1.15 -0.23,1.14 -0.25,1.14 -0.25,1.13 -0.26,1.14 -0.27,1.13 -0.28,1.13 -0.29,1.13 -0.29,1.13 -0.31,1.12 -0.31,1.12 -0.33,1.12 -0.33,1.12 -0.34,1.11 -0.35,1.11 -0.36,1.11 -0.37,1.11 -0.37,1.1 -0.39,1.1 -0.39,1.09 -0.41,1.1 -0.41,1.08 -0.42,1.09 -0.43,1.08 -0.43,1.08 -0.45,1.08 -0.45,1.07 -0.47,1.07 -0.47,1.07 -0.48,1.06 -0.49,1.06 -0.49,1.05 -0.51,1.05 -0.51,1.04 -0.52,1.05 -0.53,1.03 -0.54,1.04 -0.54,1.02 -0.56,1.03 -0.56,1.02 -0.57,1.01 -0.58,1.02 -0.59,1 -0.59,1 -0.6,1 -0.61,0.99 -0.62,0.99 -0.63,0.98 -0.63,0.98 -0.64,0.97 -0.65,0.97 -0.66,0.96 -0.66,0.96 -0.67,0.95 -0.68,0.94 -0.69,0.95 -0.69,0.93 -0.7,0.93 -0.71,0.92 -0.72,0.92 -0.72,0.92 -0.73,0.9 -0.74,0.9 -0.75,0.9 -0.75,0.89 -0.76,0.88 -0.76,0.88 -0.78,0.87 -0.78,0.86 -0.78,0.86 -0.8,0.86 -0.8,0.84 -0.81,0.84 -0.81,0.83 -0.82,0.83"
       style="fill:none;stroke:#000000;stroke-width:8.25;stroke-linecap:round;stroke-linejoin:round;stroke-miterlimit:10;stroke-dasharray:none;stroke-opacity:1"
       id="path78"
       clip-path="url(#clipPath497)"
       transform="rotate(-90,255.60001,262.8)" />
    <path
       d="m 309.4,216.2 v -1.16 l -0.02,-1.17 -0.02,-1.16 -0.03,-1.17 -0.05,-1.16 -0.05,-1.17 -0.06,-1.16 -0.07,-1.16 -0.07,-1.16 -0.09,-1.16 -0.1,-1.17 -0.1,-1.16 -0.12,-1.15 -0.12,-1.16 -0.14,-1.16 -0.14,-1.16 -0.15,-1.15 -0.16,-1.15 -0.17,-1.16 -0.18,-1.15 -0.19,-1.15 -0.2,-1.14 -0.21,-1.15 -0.21,-1.14 -0.23,-1.15 -0.23,-1.14 -0.25,-1.14 -0.25,-1.13 -0.26,-1.14 -0.27,-1.13 -0.28,-1.13 -0.29,-1.13 -0.29,-1.13 -0.31,-1.12 -0.31,-1.12 -0.33,-1.12 -0.33,-1.12 -0.34,-1.11 -0.35,-1.11 -0.36,-1.11 -0.37,-1.11 -0.37,-1.1 -0.39,-1.1 -0.39,-1.09 -0.41,-1.1 -0.41,-1.08 -0.42,-1.09 -0.43,-1.08 -0.43,-1.08 -0.45,-1.08 -0.45,-1.07 -0.47,-1.07 -0.47,-1.07 -0.48,-1.06 -0.49,-1.06 -0.49,-1.05 -0.51,-1.05 -0.51,-1.04 -0.52,-1.05 -0.53,-1.03 -0.54,-1.04 -0.54,-1.02 -0.56,-1.03 -0.56,-1.02 -0.57,-1.01 -0.58,-1.02 -0.59,-1 -0.59,-1 -0.6,-1 -0.61,-0.99 -0.62,-0.99 -0.63,-0.98 -0.63,-0.98 -0.64,-0.97 -0.65,-0.97 -0.66,-0.96 -0.66,-0.96 -0.67,-0.95 -0.68,-0.94 -0.69,-0.95 -0.69,-0.93 -0.7,-0.93 -0.71,-0.92 -0.72,-0.92 -0.72,-0.92 -0.73,-0.9 -0.74,-0.9 -0.75,-0.9 -0.75,-0.89 -0.76,-0.88 -0.76,-0.88 -0.78,-0.87 -0.78,-0.86 -0.78,-0.86 -0.8,-0.86 -0.8,-0.84 -0.81,-0.84 -0.81,-0.83 -0.82,-0.83"
       style="fill:none;stroke:#000000;stroke-width:8.25;stroke-linecap:round;stroke-linejoin:round;stroke-miterlimit:10;stroke-dasharray:none;stroke-opacity:1"
       id="path80"
       clip-path="url(#clipPath491)"
       transform="rotate(-90,255.60001,262.8)" />
    <path
       d="m 119.59,259.2 -2.29,-2.37 -2.22,-2.43 -2.14,-2.51 -2.05,-2.57 -1.98,-2.64 -1.89,-2.7 -1.8,-2.76 -1.71,-2.81 -1.63,-2.86 -1.53,-2.92 -1.44,-2.96 -1.35,-3.01 -1.24,-3.05 -1.15,-3.09 -1.06,-3.12 -0.95,-3.15 -0.85,-3.18 -0.75,-3.21 -0.65,-3.23 -0.55,-3.25 -0.44,-3.26 -0.34,-3.28 -0.24,-3.28 -0.13,-3.3 -0.02,-3.29 0.07,-3.29 0.19,-3.29 0.28,-3.28 0.4,-3.27 0.49,-3.26 0.6,-3.24 0.7,-3.22 0.8,-3.19 0.9,-3.17 1.01,-3.14 1.1,-3.1 1.2,-3.07 1.3,-3.03 1.39,-2.99 1.48,-2.94 1.58,-2.89 1.67,-2.84 1.76,-2.78 1.85,-2.73 1.93,-2.67 2.01,-2.6 2.1,-2.54 2.18,-2.48 2.25,-2.4 2.33,-2.33 2.4,-2.25 2.48,-2.18 2.54,-2.1 2.6,-2.01 2.67,-1.93 2.73,-1.85 2.78,-1.76 2.84,-1.67 2.89,-1.58 2.94,-1.48 2.99,-1.39 3.03,-1.3 3.07,-1.2 3.1,-1.1 3.14,-1.01 3.17,-0.9 3.19,-0.8 3.22,-0.7 3.24,-0.6 3.26,-0.49 3.27,-0.4 3.28,-0.28 3.29,-0.19 3.29,-0.07 3.29,0.02 3.3,0.13 3.28,0.24 3.28,0.34 3.26,0.44 3.25,0.55 3.23,0.65 3.21,0.75 3.18,0.85 3.15,0.95 3.12,1.06 3.09,1.15 3.05,1.24 3.01,1.35 2.96,1.44 2.92,1.53 2.86,1.63 2.81,1.71 2.76,1.8 2.7,1.89 2.64,1.98 2.57,2.05 2.51,2.14 2.43,2.22 2.37,2.29"
       style="fill:none;stroke:#000000;stroke-width:8.25;stroke-linecap:round;stroke-linejoin:round;stroke-miterlimit:10;stroke-dasharray:none;stroke-opacity:1"
       id="path92"
       clip-path="url(#clipPath455)"
       transform="rotate(-90,255.60001,262.8)" />
    <rect
       style="fill:#ffffff;fill-opacity:1;stroke-width:0.75"
       id="rect1162"
       width="16.685492"
       height="16.685492"
       x="-217.34276"
       y="-303.34277"
       transform="matrix(0,-1,-1,0,0,0)" />
    <path
       d="m 223.4,302.2 h 86"
       style="fill:none;stroke:#000000;stroke-width:8.25;stroke-linecap:round;stroke-linejoin:round;stroke-miterlimit:10;stroke-dasharray:none;stroke-opacity:1"
       id="path62"
       clip-path="url(#clipPath545)"
       transform="rotate(-90,255.60001,262.8)" />
    <path
       d="m 223.4,302.2 h -1.16 l -1.17,-0.02 -1.16,-0.02 -1.17,-0.03 -1.16,-0.05 -1.17,-0.05 -1.16,-0.06 -1.16,-0.07 -1.16,-0.07 -1.16,-0.09 -1.17,-0.1 -1.16,-0.1 -1.15,-0.12 -1.16,-0.12 -1.16,-0.14 -1.16,-0.14 -1.15,-0.15 -1.15,-0.16 -1.16,-0.17 -1.15,-0.18 -1.15,-0.19 -1.14,-0.2 -1.15,-0.21 -1.14,-0.21 -1.15,-0.23 -1.14,-0.23 -1.14,-0.25 -1.13,-0.25 -1.14,-0.26 -1.13,-0.27 -1.13,-0.28 -1.13,-0.29 -1.13,-0.29 -1.12,-0.31 -1.12,-0.31 -1.12,-0.33 -1.12,-0.33 -1.11,-0.34 -1.11,-0.35 -1.11,-0.36 -1.11,-0.37 -1.1,-0.37 -1.1,-0.39 -1.09,-0.39 -1.1,-0.41 -1.08,-0.41 -1.09,-0.42 -1.08,-0.43 -1.08,-0.43 -1.08,-0.45 -1.07,-0.45 -1.07,-0.47 -1.07,-0.47 -1.06,-0.48 -1.06,-0.49 -1.05,-0.49 -1.05,-0.51 -1.04,-0.51 -1.05,-0.52 -1.03,-0.53 -1.04,-0.54 -1.02,-0.54 -1.03,-0.56 -1.02,-0.56 -1.01,-0.57 -1.02,-0.58 -1,-0.59 -1,-0.59 -1,-0.6 -0.99,-0.61 -0.99,-0.62 -0.98,-0.63 -0.98,-0.63 -0.97,-0.64 -0.97,-0.65 -0.96,-0.66 -0.96,-0.66 -0.95,-0.67 -0.94,-0.68 -0.95,-0.69 -0.93,-0.69 -0.93,-0.7 -0.92,-0.71 -0.92,-0.72 -0.92,-0.72 -0.9,-0.73 -0.9,-0.74 -0.9,-0.75 -0.89,-0.75 -0.88,-0.76 -0.88,-0.76 -0.87,-0.78 -0.86,-0.78 -0.86,-0.78 -0.86,-0.8 -0.84,-0.8 -0.84,-0.81 -0.83,-0.81 -0.83,-0.82"
       style="fill:none;stroke:#000000;stroke-width:8.25;stroke-linecap:round;stroke-linejoin:round;stroke-miterlimit:10;stroke-dasharray:none;stroke-opacity:1"
       id="path72"
       clip-path="url(#clipPath515)"
       transform="rotate(-90,255.60001,262.8)" />
    <rect
       style="fill:#ffffff;fill-opacity:1;stroke-width:0.75"
       id="rect1164"
       width="16.685492"
       height="16.685492"
       x="-303.34277"
       y="-303.34277"
       transform="matrix(0,-1,-1,0,0,0)" />
    <path
       d="m 223.4,216.2 v 86"
       style="fill:none;stroke:#000000;stroke-width:8.25;stroke-linecap:round;stroke-linejoin:round;stroke-miterlimit:10;stroke-dasharray:none;stroke-opacity:1"
       id="path68"
       clip-path="url(#clipPath527)"
       transform="rotate(-90,255.60001,262.8)" />
    <path
       d="m 266.4,406.01 -0.82,-0.83 -0.81,-0.83 -0.81,-0.84 -0.8,-0.84 -0.8,-0.86 -0.78,-0.86 -0.78,-0.86 -0.78,-0.87 -0.76,-0.88 -0.76,-0.88 -0.75,-0.89 -0.75,-0.9 -0.74,-0.9 -0.73,-0.9 -0.72,-0.92 -0.72,-0.92 -0.71,-0.92 -0.7,-0.93 -0.69,-0.93 -0.69,-0.95 -0.68,-0.94 -0.67,-0.95 -0.66,-0.96 -0.66,-0.96 -0.65,-0.97 -0.64,-0.97 -0.63,-0.98 -0.63,-0.98 -0.62,-0.99 -0.61,-0.99 -0.6,-1 -0.59,-1 -0.59,-1 -0.58,-1.02 -0.57,-1.01 -0.56,-1.02 -0.56,-1.03 -0.54,-1.02 -0.54,-1.04 -0.53,-1.03 -0.52,-1.05 -0.51,-1.04 -0.51,-1.05 -0.49,-1.05 -0.49,-1.06 -0.48,-1.06 -0.47,-1.07 -0.47,-1.07 -0.45,-1.07 -0.45,-1.08 -0.43,-1.08 -0.43,-1.08 -0.42,-1.09 -0.41,-1.08 -0.41,-1.1 -0.39,-1.09 -0.39,-1.1 -0.37,-1.1 -0.37,-1.11 -0.36,-1.11 -0.35,-1.11 -0.34,-1.11 -0.33,-1.12 -0.33,-1.12 -0.31,-1.12 -0.31,-1.12 -0.29,-1.13 -0.29,-1.13 -0.28,-1.13 -0.27,-1.13 -0.26,-1.14 -0.25,-1.13 -0.25,-1.14 -0.23,-1.14 -0.23,-1.15 -0.21,-1.14 -0.21,-1.15 -0.2,-1.14 -0.19,-1.15 -0.18,-1.15 -0.17,-1.16 -0.16,-1.15 -0.15,-1.15 -0.14,-1.16 -0.14,-1.16 -0.12,-1.16 -0.12,-1.15 -0.1,-1.16 -0.1,-1.17 -0.09,-1.16 -0.07,-1.16 -0.07,-1.16 -0.06,-1.16 -0.05,-1.17 -0.05,-1.16 -0.03,-1.17 -0.02,-1.16 -0.02,-1.17 v -1.16"
       style="fill:none;stroke:#000000;stroke-width:8.25;stroke-linecap:round;stroke-linejoin:round;stroke-miterlimit:10;stroke-dasharray:none;stroke-opacity:1"
       id="path82"
       clip-path="url(#clipPath485)"
       transform="rotate(-90,255.60001,262.8)" />
    <rect
       style="fill:#ffffff;fill-opacity:1;stroke-width:0.75"
       id="rect2266"
       width="16.685492"
       height="16.685492"
       x="-112.38535"
       y="-260.68198"
       transform="matrix(0.70710678,-0.70710678,-0.70710678,-0.70710678,0,0)" />
    <path
       d="m 266.4,112.39 -0.82,0.83 -0.81,0.83 -0.81,0.84 -0.8,0.84 -0.8,0.86 -0.78,0.86 -0.78,0.86 -0.78,0.87 -0.76,0.88 -0.76,0.88 -0.75,0.89 -0.75,0.9 -0.74,0.9 -0.73,0.9 -0.72,0.92 -0.72,0.92 -0.71,0.92 -0.7,0.93 -0.69,0.93 -0.69,0.95 -0.68,0.94 -0.67,0.95 -0.66,0.96 -0.66,0.96 -0.65,0.97 -0.64,0.97 -0.63,0.98 -0.63,0.98 -0.62,0.99 -0.61,0.99 -0.6,1 -0.59,1 -0.59,1 -0.58,1.02 -0.57,1.01 -0.56,1.02 -0.56,1.03 -0.54,1.02 -0.54,1.04 -0.53,1.03 -0.52,1.05 -0.51,1.04 -0.51,1.05 -0.49,1.05 -0.49,1.06 -0.48,1.06 -0.47,1.07 -0.47,1.07 -0.45,1.07 -0.45,1.08 -0.43,1.08 -0.43,1.08 -0.42,1.09 -0.41,1.08 -0.41,1.1 -0.39,1.09 -0.39,1.1 -0.37,1.1 -0.37,1.11 -0.36,1.11 -0.35,1.11 -0.34,1.11 -0.33,1.12 -0.33,1.12 -0.31,1.12 -0.31,1.12 -0.29,1.13 -0.29,1.13 -0.28,1.13 -0.27,1.13 -0.26,1.14 -0.25,1.13 -0.25,1.14 -0.23,1.14 -0.23,1.15 -0.21,1.14 -0.21,1.15 -0.2,1.14 -0.19,1.15 -0.18,1.15 -0.17,1.16 -0.16,1.15 -0.15,1.15 -0.14,1.16 -0.14,1.16 -0.12,1.16 -0.12,1.15 -0.1,1.16 -0.1,1.17 -0.09,1.16 -0.07,1.16 -0.07,1.16 -0.06,1.16 -0.05,1.17 -0.05,1.16 -0.03,1.17 -0.02,1.16 -0.02,1.17 v 1.16"
       style="fill:none;stroke:#000000;stroke-width:8.25;stroke-linecap:round;stroke-linejoin:round;stroke-miterlimit:10;stroke-dasharray:none;stroke-opacity:1"
       id="path84"
       clip-path="url(#clipPath479)"
       transform="rotate(-90,255.60001,262.8)" />
    <path
       d="m 266.4,112.39 2.37,-2.29 2.43,-2.22 2.51,-2.14 2.57,-2.05 2.64,-1.98 2.7,-1.89 2.76,-1.8 2.81,-1.71 2.86,-1.63 2.92,-1.53 2.96,-1.44 3.01,-1.35 3.05,-1.24 3.09,-1.15 3.12,-1.06 3.15,-0.95 3.18,-0.85 3.21,-0.75 3.23,-0.65 3.25,-0.55 3.26,-0.44 3.28,-0.34 3.28,-0.24 3.3,-0.13 3.29,-0.02 3.29,0.07 3.29,0.19 3.28,0.28 3.27,0.4 3.26,0.49 3.24,0.6 3.22,0.7 3.19,0.8 3.17,0.9 3.14,1.01 3.1,1.1 3.07,1.2 3.03,1.3 2.99,1.39 2.94,1.48 2.89,1.58 2.84,1.67 2.78,1.76 2.73,1.85 2.67,1.93 2.6,2.01 2.54,2.1 2.48,2.18 2.4,2.25 2.33,2.33 2.25,2.4 2.18,2.48 2.1,2.54 2.01,2.6 1.93,2.67 1.85,2.73 1.76,2.78 1.67,2.84 1.58,2.89 1.48,2.94 1.39,2.99 1.3,3.03 1.2,3.07 1.1,3.1 1.01,3.14 0.9,3.17 0.8,3.19 0.7,3.22 0.6,3.24 0.49,3.26 0.4,3.27 0.28,3.28 0.19,3.29 0.07,3.29 -0.02,3.29 -0.13,3.3 -0.24,3.28 -0.34,3.28 -0.44,3.26 -0.55,3.25 -0.65,3.23 -0.75,3.21 -0.85,3.18 -0.95,3.15 -1.06,3.12 -1.15,3.09 -1.24,3.05 -1.35,3.01 -1.44,2.96 -1.53,2.92 -1.63,2.86 -1.71,2.81 -1.8,2.76 -1.89,2.7 -1.98,2.64 -2.05,2.57 -2.14,2.51 -2.22,2.43 -2.29,2.37"
       style="fill:none;stroke:#000000;stroke-width:8.25;stroke-linecap:round;stroke-linejoin:round;stroke-miterlimit:10;stroke-dasharray:none;stroke-opacity:1"
       id="path88"
       clip-path="url(#clipPath467)"
       transform="rotate(-90,255.60001,262.8)" />
    <path
       d="M 309.4,216.2 H 272.81095"
       style="fill:none;stroke:#000000;stroke-width:8.25;stroke-linecap:round;stroke-linejoin:round;stroke-miterlimit:10;stroke-dasharray:none;stroke-opacity:1"
       id="path11506"
       clip-path="url(#clipPath533)"
       transform="rotate(-90,255.60001,262.8)"
       sodipodi:nodetypes="cc" />
    <path
       d="m 309.4,216.2 h 1.16 l 1.17,0.02 1.16,0.02 1.17,0.03 1.16,0.05 1.17,0.05 1.16,0.06 1.16,0.07 1.16,0.07 1.16,0.09 1.17,0.1 1.16,0.1 1.15,0.12 1.16,0.12 1.16,0.14 1.16,0.14 1.15,0.15 1.15,0.16 1.16,0.17 1.15,0.18 1.15,0.19 1.14,0.2 1.15,0.21 1.14,0.21 1.15,0.23 1.14,0.23 1.14,0.25 1.13,0.25 1.14,0.26 1.13,0.27 1.13,0.28 1.13,0.29 1.13,0.29 1.12,0.31 1.12,0.31 1.12,0.33 1.12,0.33 1.11,0.34 1.11,0.35 1.11,0.36 1.11,0.37 1.1,0.37 1.1,0.39 1.09,0.39 1.1,0.41 1.08,0.41 1.09,0.42 1.08,0.43 1.08,0.43 1.08,0.45 1.07,0.45 1.07,0.47 1.07,0.47 1.06,0.48 1.06,0.49 1.05,0.49 1.05,0.51 1.04,0.51 1.05,0.52 1.03,0.53 1.04,0.54 1.02,0.54 1.03,0.56 1.02,0.56 1.01,0.57 1.02,0.58 1,0.59 1,0.59 1,0.6 0.99,0.61 0.99,0.62 0.98,0.63 0.98,0.63 0.97,0.64 0.97,0.65 0.96,0.66 0.96,0.66 0.95,0.67 0.94,0.68 0.95,0.69 0.93,0.69 0.93,0.7 0.92,0.71 0.92,0.72 0.92,0.72 0.9,0.73 0.9,0.74 0.9,0.75 0.89,0.75 0.88,0.76 0.88,0.76 0.87,0.78 0.86,0.78 0.86,0.78 0.86,0.8 0.84,0.8 0.84,0.81 0.83,0.81 0.83,0.82"
       style="fill:none;stroke:#000000;stroke-width:8.25;stroke-linecap:round;stroke-linejoin:round;stroke-miterlimit:10;stroke-dasharray:none;stroke-opacity:1"
       id="path74"
       clip-path="url(#clipPath509)"
       transform="rotate(-90,255.60001,262.8)" />
    <path
       d="m 309.4,302.2 h 1.16 l 1.17,-0.02 1.16,-0.02 1.17,-0.03 1.16,-0.05 1.17,-0.05 1.16,-0.06 1.16,-0.07 1.16,-0.07 1.16,-0.09 1.17,-0.1 1.16,-0.1 1.15,-0.12 1.16,-0.12 1.16,-0.14 1.16,-0.14 1.15,-0.15 1.15,-0.16 1.16,-0.17 1.15,-0.18 1.15,-0.19 1.14,-0.2 1.15,-0.21 1.14,-0.21 1.15,-0.23 1.14,-0.23 1.14,-0.25 1.13,-0.25 1.14,-0.26 1.13,-0.27 1.13,-0.28 1.13,-0.29 1.13,-0.29 1.12,-0.31 1.12,-0.31 1.12,-0.33 1.12,-0.33 1.11,-0.34 1.11,-0.35 1.11,-0.36 1.11,-0.37 1.1,-0.37 1.1,-0.39 1.09,-0.39 1.1,-0.41 1.08,-0.41 1.09,-0.42 1.08,-0.43 1.08,-0.43 1.08,-0.45 1.07,-0.45 1.07,-0.47 1.07,-0.47 1.06,-0.48 1.06,-0.49 1.05,-0.49 1.05,-0.51 1.04,-0.51 1.05,-0.52 1.03,-0.53 1.04,-0.54 1.02,-0.54 1.03,-0.56 1.02,-0.56 1.01,-0.57 1.02,-0.58 1,-0.59 1,-0.59 1,-0.6 0.99,-0.61 0.99,-0.62 0.98,-0.63 0.98,-0.63 0.97,-0.64 0.97,-0.65 0.96,-0.66 0.96,-0.66 0.95,-0.67 0.94,-0.68 0.95,-0.69 0.93,-0.69 0.93,-0.7 0.92,-0.71 0.92,-0.72 0.92,-0.72 0.9,-0.73 0.9,-0.74 0.9,-0.75 0.89,-0.75 0.88,-0.76 0.88,-0.76 0.87,-0.78 0.86,-0.78 0.86,-0.78 0.86,-0.8 0.84,-0.8 0.84,-0.81 0.83,-0.81 0.83,-0.82"
       style="fill:none;stroke:#000000;stroke-width:8.25;stroke-linecap:round;stroke-linejoin:round;stroke-miterlimit:10;stroke-dasharray:none;stroke-opacity:1"
       id="path70"
       clip-path="url(#clipPath521)"
       transform="rotate(-90,255.60001,262.8)" />
    <rect
       style="fill:#ffffff;fill-opacity:1;stroke-width:0.75"
       id="rect2272"
       width="16.685492"
       height="16.685492"
       x="95.822456"
       y="-260.55936"
       transform="matrix(0.70710678,-0.70710678,-0.70710678,-0.70710678,0,0)" />
    <path
       d="m 346.27,220.91 1.13,0.29 1.12,0.31 1.12,0.31 1.12,0.33 1.12,0.33 1.11,0.34 1.11,0.35 1.11,0.36 1.11,0.37 1.1,0.37 1.1,0.39 1.09,0.39 1.1,0.41 1.08,0.41 1.09,0.42 1.08,0.43 1.08,0.43 1.08,0.45 1.07,0.45 1.07,0.47 1.07,0.47 1.06,0.48 1.06,0.49 1.05,0.49 1.05,0.51 1.04,0.51 1.05,0.52 1.03,0.53 1.04,0.54 1.02,0.54 1.03,0.56 1.02,0.56 1.01,0.57 1.02,0.58 1,0.59 1,0.59 1,0.6 0.99,0.61 0.99,0.62 0.98,0.63 0.98,0.63 0.97,0.64 0.97,0.65 0.96,0.66 0.96,0.66 0.95,0.67 0.94,0.68 0.95,0.69 0.93,0.69 0.93,0.7 0.92,0.71 0.92,0.72 0.92,0.72 0.9,0.73 0.9,0.74 0.9,0.75 0.89,0.75 0.88,0.76 0.88,0.76 0.87,0.78 0.86,0.78 0.86,0.78 0.86,0.8 0.84,0.8 0.84,0.81 0.83,0.81 0.83,0.82"
       style="fill:none;stroke:#000000;stroke-width:8.25;stroke-linecap:round;stroke-linejoin:round;stroke-miterlimit:10;stroke-dasharray:none;stroke-opacity:1"
       id="path2274"
       clip-path="url(#clipPath509)"
       sodipodi:nodetypes="cccccccccccccccccccccccccccccccccccccccccccccccccccccccccccccccccccc"
       transform="rotate(-90,255.60001,262.8)" />
    <path
       d="m 413.21,259.2 2.29,2.37 2.22,2.43 2.14,2.51 2.05,2.57 1.98,2.64 1.89,2.7 1.8,2.76 1.71,2.81 1.63,2.86 1.53,2.92 1.44,2.96 1.35,3.01 1.24,3.05 1.15,3.09 1.06,3.12 0.95,3.15 0.85,3.18 0.75,3.21 0.65,3.23 0.55,3.25 0.44,3.26 0.34,3.28 0.24,3.28 0.13,3.3 0.02,3.29 -0.07,3.29 -0.19,3.29 -0.28,3.28 -0.4,3.27 -0.49,3.26 -0.6,3.24 -0.7,3.22 -0.8,3.19 -0.9,3.17 -1.01,3.14 -1.1,3.1 -1.2,3.07 -1.3,3.03 -1.39,2.99 -1.48,2.94 -1.58,2.89 -1.67,2.84 -1.76,2.78 -1.85,2.73 -1.93,2.67 -2.01,2.6 -2.1,2.54 -2.18,2.48 -2.25,2.4 -2.33,2.33 -2.4,2.25 -2.48,2.18 -2.54,2.1 -2.6,2.01 -2.67,1.93 -2.73,1.85 -2.78,1.76 -2.84,1.67 -2.89,1.58 -2.94,1.48 -2.99,1.39 -3.03,1.3 -3.07,1.2 -3.1,1.1 -3.14,1.01 -3.17,0.9 -3.19,0.8 -3.22,0.7 -3.24,0.6 -3.26,0.49 -3.27,0.4 -3.28,0.28 -3.29,0.19 -3.29,0.07 -3.29,-0.02 -3.3,-0.13 -3.28,-0.24 -3.28,-0.34 -3.26,-0.44 -3.25,-0.55 -3.23,-0.65 -3.21,-0.75 -3.18,-0.85 -3.15,-0.95 -3.12,-1.06 -3.09,-1.15 -3.05,-1.24 -3.01,-1.35 -2.96,-1.44 -2.92,-1.53 -2.86,-1.63 -2.81,-1.71 -2.76,-1.8 -2.7,-1.89 -2.64,-1.98 -2.57,-2.05 -2.51,-2.14 -2.43,-2.22 -2.37,-2.29"
       style="fill:none;stroke:#000000;stroke-width:8.25;stroke-linecap:round;stroke-linejoin:round;stroke-miterlimit:10;stroke-dasharray:none;stroke-opacity:1"
       id="path86"
       clip-path="url(#clipPath473)"
       transform="rotate(-90,255.60001,262.8)" />
    <rect
       style="fill:#ffffff;fill-opacity:1;stroke-width:0.75"
       id="rect2270"
       width="16.685492"
       height="16.685492"
       x="94.465668"
       y="-467.53299"
       transform="matrix(0.70710678,-0.70710678,-0.70710678,-0.70710678,0,0)" />
    <path
       d="m 289.14,376.61 -0.59,1 -0.6,1 -0.61,0.99 -0.62,0.99 -0.63,0.98 -0.63,0.98 -0.64,0.97 -0.65,0.97 -0.66,0.96 -0.66,0.96 -0.67,0.95 -0.68,0.94 -0.69,0.95 -0.69,0.93 -0.7,0.93 -0.71,0.92 -0.72,0.92 -0.72,0.92 -0.73,0.9 -0.74,0.9 -0.75,0.9 -0.75,0.89 -0.76,0.88 -0.76,0.88 -0.78,0.87 -0.78,0.86 -0.78,0.86 -0.8,0.86 -0.8,0.84 -0.81,0.84 -0.81,0.83 -0.82,0.83"
       style="fill:none;stroke:#000000;stroke-width:8.25;stroke-linecap:round;stroke-linejoin:round;stroke-miterlimit:10;stroke-dasharray:none;stroke-opacity:1"
       id="path3166"
       clip-path="url(#clipPath497)"
       sodipodi:nodetypes="ccccccccccccccccccccccccccccccccc"
       transform="rotate(-90,255.60001,262.8)" />
    <path
       d="m 266.4,406.01 -2.37,2.29 -2.43,2.22 -2.51,2.14 -2.57,2.05 -2.64,1.98 -2.7,1.89 -2.76,1.8 -2.81,1.71 -2.86,1.63 -2.92,1.53 -2.96,1.44 -3.01,1.35 -3.05,1.24 -3.09,1.15 -3.12,1.06 -3.15,0.95 -3.18,0.85 -3.21,0.75"
       style="fill:none;stroke:#000000;stroke-width:8.25;stroke-linecap:round;stroke-linejoin:round;stroke-miterlimit:10;stroke-dasharray:none;stroke-opacity:1"
       id="path3168"
       clip-path="url(#clipPath461)"
       sodipodi:nodetypes="ccccccccccccccccccc"
       transform="rotate(-90,255.60001,262.8)" />
    <rect
       style="fill:#ffffff;fill-opacity:1;stroke-width:0.75"
       id="rect603"
       width="16.685492"
       height="16.685492"
       x="-303.34277"
       y="-217.34274"
       transform="matrix(0,-1,-1,0,0,0)" />
    <path
       d="m 223.4,216.2 h -1.16 l -1.17,0.02 -1.16,0.02 -1.17,0.03 -1.16,0.05 -1.17,0.05 -1.16,0.06 -1.16,0.07 -1.16,0.07 -1.16,0.09 -1.17,0.1 -1.16,0.1 -1.15,0.12 -1.16,0.12 -1.16,0.14 -1.16,0.14 -1.15,0.15 -1.15,0.16 -1.16,0.17 -1.15,0.18 -1.15,0.19 -1.14,0.2 -1.15,0.21"
       style="fill:none;stroke:#000000;stroke-width:8.25;stroke-linecap:round;stroke-linejoin:round;stroke-miterlimit:10;stroke-dasharray:none;stroke-opacity:1"
       id="path12456"
       clip-path="url(#clipPath503)"
       transform="rotate(-90,255.60001,262.8)"
       sodipodi:nodetypes="cccccccccccccccccccccccc" />
    <path
       d="M 250.38173,216.2 H 223.4"
       style="fill:none;stroke:#000000;stroke-width:8.25;stroke-linecap:round;stroke-linejoin:round;stroke-miterlimit:10;stroke-dasharray:none;stroke-opacity:1"
       id="path13190"
       clip-path="url(#clipPath533)"
       transform="rotate(-90,255.60001,262.8)"
       sodipodi:nodetypes="cc" />
    <rect
       style="fill:#ffffff;fill-opacity:1;stroke-width:0.75"
       id="rect2268"
       width="16.685492"
       height="16.685492"
       x="-217.34276"
       y="-216.961"
       transform="matrix(0,-1,-1,0,0,0)" />
    <path
       d="M 309.4,244.12602 V 216.2"
       style="fill:none;stroke:#000000;stroke-width:8.25;stroke-linecap:round;stroke-linejoin:round;stroke-miterlimit:10;stroke-dasharray:none;stroke-opacity:1"
       id="path13192"
       clip-path="url(#clipPath539)"
       transform="rotate(-90,255.60001,262.8)"
       sodipodi:nodetypes="cc" />
    <path
       d="m 309.4,216.2 v -1.16 l -0.02,-1.17 -0.02,-1.16 -0.03,-1.17 -0.05,-1.16 -0.05,-1.17 -0.06,-1.16 -0.07,-1.16 -0.07,-1.16 -0.09,-1.16 -0.1,-1.17 -0.1,-1.16 -0.12,-1.15 -0.12,-1.16 -0.14,-1.16 -0.14,-1.16 -0.15,-1.15 -0.16,-1.15 -0.17,-1.16 -0.18,-1.15 -0.19,-1.15 -0.2,-1.14 -0.21,-1.15 -0.21,-1.14 -0.23,-1.15 -0.23,-1.14"
       style="fill:none;stroke:#000000;stroke-width:8.25;stroke-linecap:round;stroke-linejoin:round;stroke-miterlimit:10;stroke-dasharray:none;stroke-opacity:1"
       id="path13194"
       clip-path="url(#clipPath491)"
       transform="rotate(-90,255.60001,262.8)"
       sodipodi:nodetypes="ccccccccccccccccccccccccccc" />
  </g>
</svg>
