<?xml version="1.0" encoding="UTF-8" standalone="no"?>
<!-- Created with Inkscape (http://www.inkscape.org/) -->

<svg
   xmlns:dc="http://purl.org/dc/elements/1.1/"
   xmlns:cc="http://creativecommons.org/ns#"
   xmlns:rdf="http://www.w3.org/1999/02/22-rdf-syntax-ns#"
   xmlns:svg="http://www.w3.org/2000/svg"
   xmlns="http://www.w3.org/2000/svg"
   xmlns:sodipodi="http://sodipodi.sourceforge.net/DTD/sodipodi-0.dtd"
   xmlns:inkscape="http://www.inkscape.org/namespaces/inkscape"
   width="744.09448819"
   height="1052.3622047"
   id="svg2983"
   version="1.1"
   inkscape:version="0.91 r13725"
   sodipodi:docname="8_18.svg">
  <defs
     id="defs2985" />
  <sodipodi:namedview
     id="base"
     pagecolor="#ffffff"
     bordercolor="#666666"
     borderopacity="1.0"
     inkscape:pageopacity="0.0"
     inkscape:pageshadow="2"
     inkscape:zoom="0.54780315"
     inkscape:cx="-119.15176"
     inkscape:cy="1056.6896"
     inkscape:document-units="px"
     inkscape:current-layer="layer1"
     showgrid="false"
     inkscape:window-width="1592"
     inkscape:window-height="831"
     inkscape:window-x="0"
     inkscape:window-y="0"
     inkscape:window-maximized="0" />
  <metadata
     id="metadata2988">
    <rdf:RDF>
      <cc:Work
         rdf:about="">
        <dc:format>image/svg+xml</dc:format>
        <dc:type
           rdf:resource="http://purl.org/dc/dcmitype/StillImage" />
        <dc:title />
      </cc:Work>
    </rdf:RDF>
  </metadata>
  <g
     inkscape:label="Layer 1"
     inkscape:groupmode="layer"
     id="layer1">
    <path
       style="fill:none;stroke:#000000;stroke-width:1px;stroke-linecap:butt;stroke-linejoin:miter;stroke-opacity:1"
       d="M  336.942318477948 , -154.228659692936 C  268.156931057644 , -215.06614508347 176.071151575625 , -215.131290872453 102.684514197037 , -190.532310634086 29.2978768184495 , -165.933330395719 -9.86487865064467 , -124.826042853211 -67.3472545444764 , -67.3433118529314 -124.829630438308 , -9.86058085265181 -165.933330395719 , 29.2978768184496 -190.532310634086 , 102.684514197037 -215.131290872452 , 176.071151575625 -215.06614508347 , 268.156931057644 -154.228659692936 , 336.942318477948 -93.3911743024028 , 405.727705898251 -16.2743734510497 , 406.995942525448 0 , 406.995942525448 16.2743734510498 , 406.995942525448 93.3911743024028 , 405.727705898251 154.228659692936 , 336.942318477948 215.06614508347 , 268.156931057644 215.131290872453 , 176.071151575625 190.532310634086 , 102.684514197037 165.933330395719 , 29.2978768184495 124.826042853211 , -9.86487865064467 67.3433118529314 , -67.3472545444764 9.86058085265181 , -124.829630438308 -29.2978768184496 , -165.933330395719 -102.684514197037 , -190.532310634086 -176.071151575625 , -215.131290872453 -268.156931057644 , -215.06614508347 -336.942318477948 , -154.228659692936 -405.727705898251 , -93.3911743024028 -406.995942525448 , -16.2743734510497 -406.995942525448 , 0 -406.995942525448 , 16.2743734510498 -405.727705898251 , 93.3911743024029 -336.942318477948 , 154.228659692936 -268.156931057644 , 215.06614508347 -176.071151575625 , 215.131290872453 -102.684514197037 , 190.532310634086 -29.2978768184495 , 165.933330395719 9.86487865064469 , 124.826042853211 67.3472545444764 , 67.3433118529314 124.829630438308 , 9.86058085265179 165.933330395719 , -29.2978768184496 190.532310634086 , -102.684514197037 215.131290872453 , -176.071151575625 215.06614508347 , -268.156931057644 154.228659692936 , -336.942318477948 93.3911743024028 , -405.727705898251 16.2743734510498 , -406.995942525448 0 , -406.995942525448 -16.2743734510498 , -406.995942525448 -93.3911743024028 , -405.727705898251 -154.228659692936 , -336.942318477948 -215.06614508347 , -268.156931057644 -215.131290872453 , -176.071151575625 -190.532310634086 , -102.684514197037 -165.933330395719 , -29.2978768184495 -124.826042853211 , 9.86487865064469 -67.3433118529314 , 67.3472545444764 -9.86058085265179 , 124.829630438308 29.2978768184496 , 165.933330395719 102.684514197037 , 190.532310634086 176.071151575625 , 215.131290872453 268.156931057644 , 215.06614508347 336.942318477948 , 154.228659692936 405.727705898251 , 93.3911743024028 406.995942525448 , 16.2743734510497 406.995942525448 , 0 406.995942525448 , -16.2743734510498 405.727705898251 , -93.3911743024028 336.942318477948 , -154.228659692936 Z "
       id="path2991"
       inkscape:connector-curvature="0"
       sodipodi:nodetypes="zzzzzzzzzzzzzzzzzzzzzzzzz" />
  </g>
</svg>
