<?xml version="1.0" encoding="UTF-8" standalone="no"?>
<!-- Created with Inkscape (http://www.inkscape.org/) -->

<svg
   xmlns:dc="http://purl.org/dc/elements/1.1/"
   xmlns:cc="http://creativecommons.org/ns#"
   xmlns:rdf="http://www.w3.org/1999/02/22-rdf-syntax-ns#"
   xmlns:svg="http://www.w3.org/2000/svg"
   xmlns="http://www.w3.org/2000/svg"
   xmlns:sodipodi="http://sodipodi.sourceforge.net/DTD/sodipodi-0.dtd"
   xmlns:inkscape="http://www.inkscape.org/namespaces/inkscape"
   width="744.09448819"
   height="1052.3622047"
   id="svg2983"
   version="1.1"
   inkscape:version="0.91 r13725"
   sodipodi:docname="8_18.svg">
  <defs
     id="defs2985" />
  <sodipodi:namedview
     id="base"
     pagecolor="#ffffff"
     bordercolor="#666666"
     borderopacity="1.0"
     inkscape:pageopacity="0.0"
     inkscape:pageshadow="2"
     inkscape:zoom="0.54780315"
     inkscape:cx="-119.15176"
     inkscape:cy="1056.6896"
     inkscape:document-units="px"
     inkscape:current-layer="layer1"
     showgrid="false"
     inkscape:window-width="1592"
     inkscape:window-height="831"
     inkscape:window-x="0"
     inkscape:window-y="0"
     inkscape:window-maximized="0" />
  <metadata
     id="metadata2988">
    <rdf:RDF>
      <cc:Work
         rdf:about="">
        <dc:format>image/svg+xml</dc:format>
        <dc:type
           rdf:resource="http://purl.org/dc/dcmitype/StillImage" />
        <dc:title />
      </cc:Work>
    </rdf:RDF>
  </metadata>
  <g
     inkscape:label="Layer 1"
     inkscape:groupmode="layer"
     id="layer1">
    <path
       style="fill:none;stroke:#000000;stroke-width:1px;stroke-linecap:butt;stroke-linejoin:miter;stroke-opacity:1"
       d="M  339.176597804365 , -156.369795792332 C  267.856248585203 , -217.16583261415 172.561483617148 , -213.223373918661 97.4339139956685 , -183.587363184231 22.3063443741887 , -153.951352449802 -1.34693782920608 , -117.102662385038 -59.2620747194971 , -59.1752295521131 -117.177211609788 , -1.24779671918846 -153.951352449802 , 22.3063443741888 -183.587363184231 , 97.4339139956686 -213.223373918661 , 172.561483617148 -217.16583261415 , 267.856248585203 -156.369795792332 , 339.176597804365 -95.5737589705133 , 410.496947023526 -16.2927871961562 , 411.760992970058 0 , 411.760992970058 16.2927871961563 , 411.760992970058 95.5737589705133 , 410.496947023526 156.369795792332 , 339.176597804365 217.16583261415 , 267.856248585203 213.223373918661 , 172.561483617148 183.587363184231 , 97.4339139956685 153.951352449802 , 22.3063443741887 117.102662385038 , -1.34693782920609 59.1752295521131 , -59.2620747194971 1.24779671918846 , -117.177211609788 -22.3063443741887 , -153.951352449802 -97.4339139956685 , -183.587363184231 -172.561483617148 , -213.223373918661 -267.856248585203 , -217.16583261415 -339.176597804365 , -156.369795792332 -410.496947023526 , -95.5737589705132 -411.760992970058 , -16.2927871961562 -411.760992970058 , 0 -411.760992970058 , 16.2927871961563 -410.496947023526 , 95.5737589705134 -339.176597804365 , 156.369795792332 -267.856248585203 , 217.16583261415 -172.561483617148 , 213.223373918661 -97.4339139956685 , 183.587363184231 -22.3063443741887 , 153.951352449802 1.3469378292061 , 117.102662385038 59.2620747194971 , 59.1752295521131 117.177211609788 , 1.24779671918844 153.951352449802 , -22.3063443741887 183.587363184231 , -97.4339139956686 213.223373918661 , -172.561483617148 217.16583261415 , -267.856248585203 156.369795792332 , -339.176597804365 95.5737589705133 , -410.496947023526 16.2927871961563 , -411.760992970058 0 , -411.760992970058 -16.2927871961563 , -411.760992970058 -95.5737589705133 , -410.496947023526 -156.369795792332 , -339.176597804365 -217.16583261415 , -267.856248585203 -213.223373918661 , -172.561483617148 -183.587363184231 , -97.4339139956685 -153.951352449802 , -22.3063443741887 -117.102662385038 , 1.34693782920611 -59.1752295521131 , 59.2620747194971 -1.24779671918844 , 117.177211609788 22.3063443741888 , 153.951352449802 97.4339139956686 , 183.587363184231 172.561483617148 , 213.223373918661 267.856248585203 , 217.16583261415 339.176597804365 , 156.369795792332 410.496947023526 , 95.5737589705133 411.760992970058 , 16.2927871961562 411.760992970058 , 0 411.760992970058 , -16.2927871961563 410.496947023526 , -95.5737589705133 339.176597804365 , -156.369795792332 Z "
       id="path2991"
       inkscape:connector-curvature="0"
       sodipodi:nodetypes="zzzzzzzzzzzzzzzzzzzzzzzzz" />
  </g>
</svg>
