<?xml version="1.0" encoding="UTF-8" standalone="no"?>
<!-- Created with Inkscape (http://www.inkscape.org/) -->

<svg
   xmlns:dc="http://purl.org/dc/elements/1.1/"
   xmlns:cc="http://creativecommons.org/ns#"
   xmlns:rdf="http://www.w3.org/1999/02/22-rdf-syntax-ns#"
   xmlns:svg="http://www.w3.org/2000/svg"
   xmlns="http://www.w3.org/2000/svg"
   xmlns:sodipodi="http://sodipodi.sourceforge.net/DTD/sodipodi-0.dtd"
   xmlns:inkscape="http://www.inkscape.org/namespaces/inkscape"
   width="210mm"
   height="297mm"
   viewBox="0 0 744.09448819 1052.3622047"
   id="svg2"
   version="1.1"
   inkscape:version="0.91 r13725"
   sodipodi:docname="8_19.svg">
  <defs
     id="defs4" />
  <sodipodi:namedview
     id="base"
     pagecolor="#ffffff"
     bordercolor="#666666"
     borderopacity="1.0"
     inkscape:pageopacity="0.0"
     inkscape:pageshadow="2"
     inkscape:zoom="1.1974499"
     inkscape:cx="25.262168"
     inkscape:cy="899.09944"
     inkscape:document-units="px"
     inkscape:current-layer="layer1"
     showgrid="false"
     inkscape:window-width="2560"
     inkscape:window-height="1315"
     inkscape:window-x="0"
     inkscape:window-y="1"
     inkscape:window-maximized="1" />
  <metadata
     id="metadata7">
    <rdf:RDF>
      <cc:Work
         rdf:about="">
        <dc:format>image/svg+xml</dc:format>
        <dc:type
           rdf:resource="http://purl.org/dc/dcmitype/StillImage" />
        <dc:title />
      </cc:Work>
    </rdf:RDF>
  </metadata>
  <g
     inkscape:label="Layer 1"
     inkscape:groupmode="layer"
     id="layer1">
    <path
       style="fill:none;stroke:#000000;stroke-width:2.01427126px;stroke-linecap:butt;stroke-linejoin:miter;stroke-opacity:1"
       d="M  204.323638602155 , 135.793730575002 C  128.411566600606 , 118.699784064535 58.8157386250376 , 118.081244189117 0 , 118.081244189117 -58.8157386250376 , 118.081244189117 -128.411566600606 , 118.699784064535 -204.323638602155 , 135.793730575002 -280.235710603704 , 152.887677085469 -370.91107711265 , 182.675249351735 -401.863519052808 , 272.26750192502 -432.815960992966 , 361.859754498305 -380.276894755106 , 452.037293206561 -292.110207672619 , 473.934695412154 -203.943520590132 , 495.832097617747 -135.003727622329 , 444.068429698609 -74.1017407775627 , 395.753075551318 -13.1997539327959 , 347.437721404027 34.357345468067 , 299.262952714309 62.6441961001171 , 233.785309777423 90.9310467321672 , 168.307666840537 101.100653182021 , 86.0662727066542 62.2086610838451 , 6.05229125029796 23.3166689856688 , -73.9616902060583 -44.948734322007 , -127.07509008394 -127.401326474568 , -123.291951667506 -209.85391862713 , -119.508813251073 -278.23875114861 , -62.4995914687602 -304.351465828051 , 18.0411489672885 -330.464180507492 , 98.5818894033372 -311.118727523249 , 179.222995420999 -242.478961031868 , 310.720194180955 -173.839194540487 , 442.217392940912 -112.514188281304 , 522.825326007621 0 , 522.825326007621 112.514188281304 , 522.825326007621 173.839194540487 , 442.217392940912 242.478961031868 , 310.720194180955 311.118727523249 , 179.222995420999 330.464180507492 , 98.5818894033372 304.351465828051 , 18.0411489672885 278.23875114861 , -62.4995914687602 209.85391862713 , -119.508813251073 127.401326474568 , -123.291951667506 44.948734322007 , -127.07509008394 -23.3166689856688 , -73.9616902060583 -62.2086610838451 , 6.05229125029796 -101.100653182021 , 86.0662727066542 -90.9310467321672 , 168.307666840537 -62.6441961001171 , 233.785309777423 -34.357345468067 , 299.262952714309 13.1997539327959 , 347.437721404027 74.1017407775627 , 395.753075551318 135.003727622329 , 444.068429698609 203.943520590132 , 495.832097617747 292.110207672619 , 473.934695412154 380.276894755106 , 452.037293206561 432.815960992966 , 361.859754498305 401.863519052808 , 272.26750192502 370.91107711265 , 182.675249351735 280.235710603704 , 152.887677085469 204.323638602155 , 135.793730575002 Z "
       id="path4138"
       inkscape:connector-curvature="0"
       sodipodi:nodetypes="zzzzzzzzzzzzzzzzzzzzz" />
  </g>
</svg>
