<?xml version="1.0" encoding="UTF-8" standalone="no"?>
<!-- Created with Inkscape (http://www.inkscape.org/) -->

<svg
   xmlns:dc="http://purl.org/dc/elements/1.1/"
   xmlns:cc="http://creativecommons.org/ns#"
   xmlns:rdf="http://www.w3.org/1999/02/22-rdf-syntax-ns#"
   xmlns:svg="http://www.w3.org/2000/svg"
   xmlns="http://www.w3.org/2000/svg"
   xmlns:sodipodi="http://sodipodi.sourceforge.net/DTD/sodipodi-0.dtd"
   xmlns:inkscape="http://www.inkscape.org/namespaces/inkscape"
   width="210mm"
   height="297mm"
   viewBox="0 0 744.09448819 1052.3622047"
   id="svg2"
   version="1.1"
   inkscape:version="0.48.4 r9939"
   sodipodi:docname="8_19_alternative.svg">
  <defs
     id="defs4" />
  <sodipodi:namedview
     id="base"
     pagecolor="#ffffff"
     bordercolor="#666666"
     borderopacity="1.0"
     inkscape:pageopacity="0.0"
     inkscape:pageshadow="2"
     inkscape:zoom="0.7416992"
     inkscape:cx="93.170878"
     inkscape:cy="910.90965"
     inkscape:document-units="px"
     inkscape:current-layer="layer1"
     showgrid="false"
     inkscape:window-width="1594"
     inkscape:window-height="817"
     inkscape:window-x="0"
     inkscape:window-y="0"
     inkscape:window-maximized="0" />
  <metadata
     id="metadata7">
    <rdf:RDF>
      <cc:Work
         rdf:about="">
        <dc:format>image/svg+xml</dc:format>
        <dc:type
           rdf:resource="http://purl.org/dc/dcmitype/StillImage" />
        <dc:title></dc:title>
      </cc:Work>
    </rdf:RDF>
  </metadata>
  <g
     inkscape:label="Layer 1"
     inkscape:groupmode="layer"
     id="layer1">
    <path
       style="fill:none;stroke:#000000;stroke-width:2.01427126px;stroke-linecap:butt;stroke-linejoin:miter;stroke-opacity:1"
       d="M  206.40556735351 , 212.130485413623 C  105.886268147453 , 223.435605126823 74.4696303106248 , 245.780893512212 0 , 245.780893512212 -74.4696303106248 , 245.780893512212 -105.886268147453 , 223.435605126823 -206.40556735351 , 212.130485413623 -306.924866559568 , 200.825365700422 -404.872407151527 , 235.286980713512 -435.560385078022 , 320.577010413597 -466.248363004517 , 405.867040113682 -404.364846874265 , 491.72629385975 -311.622517511582 , 489.970411384817 -218.880188148899 , 488.214528909884 -161.730223392039 , 408.588286211562 -123.529053518782 , 334.802579926255 -85.3278836455244 , 261.016873640948 -84.8226844555999 , 232.922453379171 -45.7551706303886 , 164.989711232417 -6.68765680517721 , 97.0569690856634 37.0227976954049 , 67.4636024678383 38.1978305736246 , -11.2965430158591 39.3728634518444 , -90.0566884995565 -28.319175220651 , -162.46466471742 -129.274836732289 , -154.015420689105 -230.230498243926 , -145.566176660789 -307.946171344232 , -58.9698367114018 -331.589576816631 , 46.8432573282464 -355.23298228903 , 152.656351367895 -323.958500235223 , 254.975797572516 -269.97602942392 , 330.140155115155 -215.993558612617 , 405.304512657795 -128.225304988675 , 480.577988104238 0 , 480.577988104238 128.225304988675 , 480.577988104238 215.993558612617 , 405.304512657795 269.97602942392 , 330.140155115155 323.958500235223 , 254.975797572516 355.23298228903 , 152.656351367895 331.589576816631 , 46.8432573282464 307.946171344232 , -58.9698367114019 230.230498243926 , -145.566176660789 129.274836732289 , -154.015420689105 28.319175220651 , -162.46466471742 -39.3728634518444 , -90.0566884995565 -38.1978305736246 , -11.2965430158591 -37.0227976954049 , 67.4636024678383 6.68765680517721 , 97.0569690856634 45.7551706303886 , 164.989711232417 84.8226844555999 , 232.922453379171 85.3278836455244 , 261.016873640948 123.529053518782 , 334.802579926255 161.730223392039 , 408.588286211562 218.880188148899 , 488.214528909884 311.622517511582 , 489.970411384817 404.364846874265 , 491.72629385975 466.248363004517 , 405.867040113682 435.560385078022 , 320.577010413597 404.872407151527 , 235.286980713512 306.924866559568 , 200.825365700422 206.40556735351 , 212.130485413623 Z "
       id="path4138"
       inkscape:connector-curvature="0"
       sodipodi:nodetypes="zzzzzzzzzzzzzzzzzzzzz" />
  </g>
</svg>
