<?xml version="1.0" encoding="UTF-8" standalone="no"?>
<!-- Created with Inkscape (http://www.inkscape.org/) -->

<svg
   xmlns:dc="http://purl.org/dc/elements/1.1/"
   xmlns:cc="http://creativecommons.org/ns#"
   xmlns:rdf="http://www.w3.org/1999/02/22-rdf-syntax-ns#"
   xmlns:svg="http://www.w3.org/2000/svg"
   xmlns="http://www.w3.org/2000/svg"
   xmlns:sodipodi="http://sodipodi.sourceforge.net/DTD/sodipodi-0.dtd"
   xmlns:inkscape="http://www.inkscape.org/namespaces/inkscape"
   width="210mm"
   height="297mm"
   viewBox="0 0 744.09448819 1052.3622047"
   id="svg2"
   version="1.1"
   inkscape:version="0.91 r13725"
   sodipodi:docname="8_19.svg">
  <defs
     id="defs4" />
  <sodipodi:namedview
     id="base"
     pagecolor="#ffffff"
     bordercolor="#666666"
     borderopacity="1.0"
     inkscape:pageopacity="0.0"
     inkscape:pageshadow="2"
     inkscape:zoom="1.1974499"
     inkscape:cx="25.262168"
     inkscape:cy="899.09944"
     inkscape:document-units="px"
     inkscape:current-layer="layer1"
     showgrid="false"
     inkscape:window-width="2560"
     inkscape:window-height="1315"
     inkscape:window-x="0"
     inkscape:window-y="1"
     inkscape:window-maximized="1" />
  <metadata
     id="metadata7">
    <rdf:RDF>
      <cc:Work
         rdf:about="">
        <dc:format>image/svg+xml</dc:format>
        <dc:type
           rdf:resource="http://purl.org/dc/dcmitype/StillImage" />
        <dc:title />
      </cc:Work>
    </rdf:RDF>
  </metadata>
  <g
     inkscape:label="Layer 1"
     inkscape:groupmode="layer"
     id="layer1">
    <path
       style="fill:none;stroke:#000000;stroke-width:2.01427126px;stroke-linecap:butt;stroke-linejoin:miter;stroke-opacity:1"
       d="M  193.802335354217 , 140.478247280242 C  119.524590899801 , 127.645495831334 63.154098844941 , 128.001751848931 0 , 128.001751848931 -63.154098844941 , 128.001751848931 -119.524590899801 , 127.645495831334 -193.802335354217 , 140.478247280242 -268.080079808633 , 153.31099872915 -367.535521865202 , 173.020259310495 -405.71284418097 , 268.441740054073 -443.890166496738 , 363.863220797651 -384.512252588095 , 461.063631667641 -291.678336578029 , 478.325529775506 -198.844420567963 , 495.587427883371 -140.724962434461 , 437.883970917956 -74.358806991505 , 382.948152605973 -7.99265154854933 , 328.01233429399 31.5842274682967 , 293.276533869318 58.6883680104197 , 233.263483895202 85.7925085525427 , 173.250433921086 97.536336038307 , 93.9907760540508 59.1802083013719 , 11.0875042959304 20.8240805644368 , -71.8157674621901 -41.7232111509306 , -128.803634763313 -123.364402437839 , -128.398658852975 -205.005593724748 , -127.993682942638 -278.632753453573 , -70.9123252391364 -301.991742882794 , 18.1714472773123 -325.350732312016 , 107.255219793761 -291.670327589118 , 177.574214182505 -228.87143575465 , 303.792382779042 -166.072543920182 , 430.010551375579 -122.39740261273 , 527.050844852639 0 , 527.050844852639 122.39740261273 , 527.050844852639 166.072543920182 , 430.010551375579 228.87143575465 , 303.792382779042 291.670327589118 , 177.574214182505 325.350732312016 , 107.255219793761 301.991742882794 , 18.1714472773123 278.632753453573 , -70.9123252391364 205.005593724748 , -127.993682942638 123.364402437839 , -128.398658852975 41.7232111509306 , -128.803634763313 -20.8240805644368 , -71.8157674621901 -59.1802083013719 , 11.0875042959304 -97.536336038307 , 93.9907760540508 -85.7925085525427 , 173.250433921086 -58.6883680104197 , 233.263483895202 -31.5842274682967 , 293.276533869318 7.99265154854933 , 328.01233429399 74.358806991505 , 382.948152605973 140.724962434461 , 437.883970917956 198.844420567963 , 495.587427883371 291.678336578029 , 478.325529775506 384.512252588095 , 461.063631667641 443.890166496738 , 363.863220797651 405.71284418097 , 268.441740054073 367.535521865202 , 173.020259310495 268.080079808633 , 153.31099872915 193.802335354217 , 140.478247280242 Z "
       id="path4138"
       inkscape:connector-curvature="0"
       sodipodi:nodetypes="zzzzzzzzzzzzzzzzzzzzz" />
  </g>
</svg>
