<?xml version="1.0" encoding="UTF-8" standalone="no"?>
<!-- Created with Inkscape (http://www.inkscape.org/) -->

<svg
   xmlns:dc="http://purl.org/dc/elements/1.1/"
   xmlns:cc="http://creativecommons.org/ns#"
   xmlns:rdf="http://www.w3.org/1999/02/22-rdf-syntax-ns#"
   xmlns:svg="http://www.w3.org/2000/svg"
   xmlns="http://www.w3.org/2000/svg"
   xmlns:sodipodi="http://sodipodi.sourceforge.net/DTD/sodipodi-0.dtd"
   xmlns:inkscape="http://www.inkscape.org/namespaces/inkscape"
   width="210mm"
   height="297mm"
   viewBox="0 0 744.09448819 1052.3622047"
   id="svg2"
   version="1.1"
   inkscape:version="0.48.4 r9939"
   sodipodi:docname="8_19a.svg">
  <defs
     id="defs4" />
  <sodipodi:namedview
     id="base"
     pagecolor="#ffffff"
     bordercolor="#666666"
     borderopacity="1.0"
     inkscape:pageopacity="0.0"
     inkscape:pageshadow="2"
     inkscape:zoom="0.7416992"
     inkscape:cx="93.170878"
     inkscape:cy="910.90965"
     inkscape:document-units="px"
     inkscape:current-layer="layer1"
     showgrid="false"
     inkscape:window-width="1594"
     inkscape:window-height="817"
     inkscape:window-x="0"
     inkscape:window-y="0"
     inkscape:window-maximized="0" />
  <metadata
     id="metadata7">
    <rdf:RDF>
      <cc:Work
         rdf:about="">
        <dc:format>image/svg+xml</dc:format>
        <dc:type
           rdf:resource="http://purl.org/dc/dcmitype/StillImage" />
        <dc:title></dc:title>
      </cc:Work>
    </rdf:RDF>
  </metadata>
  <g
     inkscape:label="Layer 1"
     inkscape:groupmode="layer"
     id="layer1">
    <path
       style="fill:none;stroke:#000000;stroke-width:2.01427126px;stroke-linecap:butt;stroke-linejoin:miter;stroke-opacity:1"
       d="M  191.699007130832 , 208.645706381325 C  142.269194294222 , 244.10402239693 65.6173164266697 , 310.085293454939 0 , 310.085293454939 -65.6173164266697 , 310.085293454939 -142.269194294222 , 244.10402239693 -191.699007130832 , 208.645706381325 -241.128819967442 , 173.18739036572 -375.709742228843 , 85.3733587687652 -440.570194047923 , 204.54141423905 -505.430645867003 , 323.709469709335 -418.588174889034 , 437.923193736594 -319.61020639476 , 439.650476391527 -220.632237900486 , 441.37775904646 -203.918426415358 , 394.651821255409 -155.962866289186 , 332.310002475172 -108.007306163013 , 269.968183694935 -131.632839161585 , 293.561941083428 -67.8003665498748 , 211.202908954841 -3.96789393816496 , 128.843876826254 20.8944814787934 , 151.027634266368 38.8495705508188 , 44.7966038508969 56.8046596228441 , -61.4344265645742 -5.05866980488963 , -119.351311967116 -75.6588352995705 , -133.194607762096 -146.259000794251 , -147.037903557077 -273.207374437876 , -113.400436824961 -333.088225058327 , 20.6485723541828 -392.969075678778 , 154.697581533327 -320.849711338346 , 262.89468293056 -278.746379190438 , 313.53700869143 -236.643047042529 , 364.179334452299 -143.621524361929 , 460.093135331626 0 , 460.093135331626 143.621524361929 , 460.093135331626 236.643047042529 , 364.179334452299 278.746379190438 , 313.53700869143 320.849711338346 , 262.89468293056 392.969075678778 , 154.697581533327 333.088225058327 , 20.6485723541828 273.207374437876 , -113.400436824961 146.259000794251 , -147.037903557077 75.6588352995705 , -133.194607762096 5.05866980488963 , -119.351311967116 -56.8046596228441 , -61.4344265645742 -38.8495705508188 , 44.7966038508969 -20.8944814787934 , 151.027634266368 3.96789393816496 , 128.843876826254 67.8003665498748 , 211.202908954841 131.632839161585 , 293.561941083428 108.007306163013 , 269.968183694935 155.962866289186 , 332.310002475172 203.918426415358 , 394.651821255409 220.632237900486 , 441.37775904646 319.61020639476 , 439.650476391527 418.588174889034 , 437.923193736594 505.430645867003 , 323.709469709335 440.570194047923 , 204.54141423905 375.709742228843 , 85.3733587687652 241.128819967442 , 173.18739036572 191.699007130832 , 208.645706381325 Z "
       id="path4138"
       inkscape:connector-curvature="0"
       sodipodi:nodetypes="zzzzzzzzzzzzzzzzzzzzz" />
  </g>
</svg>
