<?xml version="1.0" encoding="UTF-8" standalone="no"?>
<!-- Created with Inkscape (http://www.inkscape.org/) -->

<svg
   xmlns:dc="http://purl.org/dc/elements/1.1/"
   xmlns:cc="http://creativecommons.org/ns#"
   xmlns:rdf="http://www.w3.org/1999/02/22-rdf-syntax-ns#"
   xmlns:svg="http://www.w3.org/2000/svg"
   xmlns="http://www.w3.org/2000/svg"
   xmlns:sodipodi="http://sodipodi.sourceforge.net/DTD/sodipodi-0.dtd"
   xmlns:inkscape="http://www.inkscape.org/namespaces/inkscape"
   width="210mm"
   height="297mm"
   viewBox="0 0 744.09448819 1052.3622047"
   id="svg2"
   version="1.1"
   inkscape:version="0.48.4 r9939"
   sodipodi:docname="8_19_alternative.svg">
  <defs
     id="defs4" />
  <sodipodi:namedview
     id="base"
     pagecolor="#ffffff"
     bordercolor="#666666"
     borderopacity="1.0"
     inkscape:pageopacity="0.0"
     inkscape:pageshadow="2"
     inkscape:zoom="0.7416992"
     inkscape:cx="93.170878"
     inkscape:cy="910.90965"
     inkscape:document-units="px"
     inkscape:current-layer="layer1"
     showgrid="false"
     inkscape:window-width="1594"
     inkscape:window-height="817"
     inkscape:window-x="0"
     inkscape:window-y="0"
     inkscape:window-maximized="0" />
  <metadata
     id="metadata7">
    <rdf:RDF>
      <cc:Work
         rdf:about="">
        <dc:format>image/svg+xml</dc:format>
        <dc:type
           rdf:resource="http://purl.org/dc/dcmitype/StillImage" />
        <dc:title></dc:title>
      </cc:Work>
    </rdf:RDF>
  </metadata>
  <g
     inkscape:label="Layer 1"
     inkscape:groupmode="layer"
     id="layer1">
    <path
       style="fill:none;stroke:#000000;stroke-width:2.01427126px;stroke-linecap:butt;stroke-linejoin:miter;stroke-opacity:1"
       d="M 203.91537,130.84719 C 106.72374,173.22899 81.800485,357.65399 0,357.65399 -81.800485,357.65399 -113.46502,185.36329 -203.91537,130.84719 -294.36571,76.331086 -397.24764,65.68206 -431.24377,145.30266 -465.23989,224.92326 -421.23581,461.50508 -326.87343,466.85033 -232.51105,472.19558 -188.2436,421.54313 -128.81225,353.86494 -69.380892,286.18675 -80.703804,311.16745 -36.705966,241.77061 7.2918715,172.37377 34.857781,111.42201 44.208131,28.67408 53.558481,-54.073848 -12.271737,-132.51346 -100.31756,-138.09598 -188.36338,-143.67849 -278.11529,-82.987967 -315.24033,35.7796 -352.36536,154.54717 -315.9879,269.68399 -265.52685,346.08602 -215.0658,422.48805 -134.07651,507.38762 0,507.38762 134.07651,507.38762 215.0658,422.48805 265.52685,346.08602 315.9879,269.68399 352.36536,154.54717 315.24033,35.7796 278.11529,-82.987967 188.36338,-143.67849 100.31756,-138.09598 12.271737,-132.51346 -53.558481,-54.073848 -44.208131,28.67408 -34.857781,111.42201 -1.8988495,165.63249 38.054222,239.0741 78.007293,312.5157 68.032637,287.53501 128.81225,353.86494 189.59186,420.19487 221.725,472.19558 316.08738,466.85033 410.44977,461.50508 465.23989,224.92326 431.24377,145.30266 397.24764,65.68206 301.10699,88.465386 203.91537,130.84719 z"
       id="path4138"
       inkscape:connector-curvature="0"
       sodipodi:nodetypes="zzzzzzzzzzzzzzzzzzzzz" />
  </g>
</svg>
