<?xml version="1.0" encoding="UTF-8" standalone="no"?>
<!-- Created with Inkscape (http://www.inkscape.org/) -->

<svg
   xmlns:dc="http://purl.org/dc/elements/1.1/"
   xmlns:cc="http://creativecommons.org/ns#"
   xmlns:rdf="http://www.w3.org/1999/02/22-rdf-syntax-ns#"
   xmlns:svg="http://www.w3.org/2000/svg"
   xmlns="http://www.w3.org/2000/svg"
   xmlns:sodipodi="http://sodipodi.sourceforge.net/DTD/sodipodi-0.dtd"
   xmlns:inkscape="http://www.inkscape.org/namespaces/inkscape"
   width="210mm"
   height="297mm"
   viewBox="0 0 744.09448819 1052.3622047"
   id="svg2"
   version="1.1"
   inkscape:version="0.91 r13725"
   sodipodi:docname="8_2.svg">
  <defs
     id="defs4" />
  <sodipodi:namedview
     id="base"
     pagecolor="#ffffff"
     bordercolor="#666666"
     borderopacity="1.0"
     inkscape:pageopacity="0.0"
     inkscape:pageshadow="2"
     inkscape:zoom="0.8038181"
     inkscape:cx="-147.40141"
     inkscape:cy="760.81256"
     inkscape:document-units="px"
     inkscape:current-layer="layer1"
     showgrid="false"
     inkscape:window-width="2560"
     inkscape:window-height="1315"
     inkscape:window-x="0"
     inkscape:window-y="1"
     inkscape:window-maximized="1" />
  <metadata
     id="metadata7">
    <rdf:RDF>
      <cc:Work
         rdf:about="">
        <dc:format>image/svg+xml</dc:format>
        <dc:type
           rdf:resource="http://purl.org/dc/dcmitype/StillImage" />
        <dc:title />
      </cc:Work>
    </rdf:RDF>
  </metadata>
  <g
     inkscape:label="Layer 1"
     inkscape:groupmode="layer"
     id="layer1">
    <path
       style="fill:none;stroke:#000000;stroke-width:9.99359798px;stroke-linecap:butt;stroke-linejoin:miter;stroke-opacity:1"
       d="M  0 , -416.155837149701 C  37.554078841329 , -416.155837149701 110.433044094656 , -397.06853047145 136.222585838368 , -305.974858253697 162.012127582081 , -214.881186035944 107.677210430765 , -128.113486267475 64.6864701632926 , -75.6283481351202 21.6957298958203 , -23.1432100027658 -27.800657100296 , 27.046061824474 -120.236040340124 , 80.4657261675128 -212.671423579951 , 133.885390510552 -256.171726147675 , 142.78201158234 -291.220839400247 , 196.487635688251 -326.26995265282 , 250.193259794161 -326.848667424498 , 316.07344893096 -291.260861207688 , 370.527900844892 -255.673054990878 , 424.982352758823 -216.645152358685 , 428.631191654221 -111.273004396736 , 498.431595700346 -5.90085643478767 , 568.231999746472 17.5813770484852 , 602.171422444708 79.8258307399683 , 607.371743886851 142.070284431451 , 612.572065328995 200.645120364917 , 577.613839194273 222.778497327136 , 512.301854082244 244.911874289354 , 446.989868970215 215.824207858831 , 412.389543393126 212.189089695308 , 283.287536621225 208.553971531785 , 154.185529849323 238.277789777781 , 123.752775498382 233.977350670397 , 46.3309851750821 229.676911563012 , -31.0908051482183 200.626079605637 , -74.9199965531253 189.065097774977 , -91.1464958680417 177.504115944317 , -107.372995182958 119.797198057223 , -185.342247115739 0 , -185.342247115739 -119.797198057223 , -185.342247115739 -177.504115944317 , -107.372995182958 -189.065097774977 , -91.1464958680417 -200.626079605637 , -74.9199965531253 -229.676911563012 , -31.0908051482183 -233.977350670397 , 46.3309851750821 -238.277789777781 , 123.752775498382 -208.553971531785 , 154.185529849323 -212.189089695308 , 283.287536621225 -215.824207858831 , 412.389543393126 -244.911874289354 , 446.989868970215 -222.778497327136 , 512.301854082244 -200.645120364917 , 577.613839194273 -142.070284431451 , 612.572065328995 -79.8258307399683 , 607.371743886851 -17.5813770484852 , 602.171422444708 5.90085643478767 , 568.231999746472 111.273004396736 , 498.431595700346 216.645152358685 , 428.631191654221 255.673054990878 , 424.982352758823 291.260861207688 , 370.527900844892 326.848667424498 , 316.07344893096 326.26995265282 , 250.193259794161 291.220839400247 , 196.487635688251 256.171726147675 , 142.78201158234 212.671423579951 , 133.885390510552 120.236040340124 , 80.4657261675128 27.800657100296 , 27.046061824474 -21.6957298958203 , -23.1432100027658 -64.6864701632926 , -75.6283481351202 -107.677210430765 , -128.113486267475 -162.012127582081 , -214.881186035944 -136.222585838368 , -305.974858253697 -110.433044094656 , -397.06853047145 -37.554078841329 , -416.155837149701 0 , -416.155837149701 Z "
       id="path5468"
       inkscape:connector-curvature="0"
       sodipodi:nodetypes="zzzzzzzzzzzzzzzzzzzzzzzzz" />
  </g>
</svg>
