<?xml version="1.0" encoding="UTF-8" standalone="no"?>
<!-- Created with Inkscape (http://www.inkscape.org/) -->

<svg
   xmlns:dc="http://purl.org/dc/elements/1.1/"
   xmlns:cc="http://creativecommons.org/ns#"
   xmlns:rdf="http://www.w3.org/1999/02/22-rdf-syntax-ns#"
   xmlns:svg="http://www.w3.org/2000/svg"
   xmlns="http://www.w3.org/2000/svg"
   xmlns:sodipodi="http://sodipodi.sourceforge.net/DTD/sodipodi-0.dtd"
   xmlns:inkscape="http://www.inkscape.org/namespaces/inkscape"
   width="210mm"
   height="297mm"
   viewBox="0 0 744.09448819 1052.3622047"
   id="svg2"
   version="1.1"
   inkscape:version="0.91 r13725"
   sodipodi:docname="8_2.svg">
  <defs
     id="defs4" />
  <sodipodi:namedview
     id="base"
     pagecolor="#ffffff"
     bordercolor="#666666"
     borderopacity="1.0"
     inkscape:pageopacity="0.0"
     inkscape:pageshadow="2"
     inkscape:zoom="0.8038181"
     inkscape:cx="-147.40141"
     inkscape:cy="760.81256"
     inkscape:document-units="px"
     inkscape:current-layer="layer1"
     showgrid="false"
     inkscape:window-width="2560"
     inkscape:window-height="1315"
     inkscape:window-x="0"
     inkscape:window-y="1"
     inkscape:window-maximized="1" />
  <metadata
     id="metadata7">
    <rdf:RDF>
      <cc:Work
         rdf:about="">
        <dc:format>image/svg+xml</dc:format>
        <dc:type
           rdf:resource="http://purl.org/dc/dcmitype/StillImage" />
        <dc:title />
      </cc:Work>
    </rdf:RDF>
  </metadata>
  <g
     inkscape:label="Layer 1"
     inkscape:groupmode="layer"
     id="layer1">
    <path
       style="fill:none;stroke:#000000;stroke-width:9.99359798px;stroke-linecap:butt;stroke-linejoin:miter;stroke-opacity:1"
       d="M  0 , -390.135671986675 C  37.9158907748637 , -390.135671986675 103.93306931826 , -369.986739679604 127.712855421901 , -287.492833845881 151.492641525541 , -204.998928012158 105.138592162383 , -124.774727714382 61.0861433070025 , -68.1039994582495 17.0336944516222 , -11.4332712021172 -27.6263320964067 , 40.8544595604802 -116.861536288629 , 84.8670846738364 -206.096740480851 , 128.879709787193 -248.415233950627 , 117.729691974588 -297.502820654639 , 171.312220709611 -346.590407358652 , 224.894749444634 -351.081440015461 , 305.133895381626 -301.644951522503 , 363.22111405418 -252.208463029545 , 421.308332726734 -214.314140149666 , 401.584608941937 -107.170927266105 , 470.284704580384 -0.0277143825441897 , 538.98480021883 1.54873804416616 , 583.689995272655 74.1408536278819 , 602.289116601426 146.732969211598 , 620.888237930196 221.046577292769 , 579.602010474695 237.976168214149 , 500.660605556683 254.90575913553 , 421.719200638671 206.984061054722 , 399.021770954703 201.386162574672 , 270.042247594665 195.788264094622 , 141.062724234628 233.836697957832 , 118.672301248186 231.521300587977 , 41.9030128795194 229.205903218123 , -34.866275489147 195.169921432981 , -78.6221906941378 182.975246908244 , -93.287131142735 170.780572383506 , -107.952071591332 115.091716144923 , -172.154427824681 0 , -172.154427824681 -115.091716144923 , -172.154427824681 -170.780572383506 , -107.952071591332 -182.975246908244 , -93.287131142735 -195.169921432981 , -78.6221906941378 -229.205903218123 , -34.866275489147 -231.521300587977 , 41.9030128795194 -233.836697957832 , 118.672301248186 -195.788264094622 , 141.062724234628 -201.386162574672 , 270.042247594665 -206.984061054722 , 399.021770954703 -254.90575913553 , 421.719200638671 -237.976168214149 , 500.660605556683 -221.046577292769 , 579.602010474695 -146.732969211598 , 620.888237930196 -74.1408536278819 , 602.289116601426 -1.54873804416616 , 583.689995272655 0.0277143825441897 , 538.98480021883 107.170927266105 , 470.284704580384 214.314140149666 , 401.584608941937 252.208463029545 , 421.308332726734 301.644951522503 , 363.22111405418 351.081440015461 , 305.133895381626 346.590407358652 , 224.894749444634 297.502820654639 , 171.312220709611 248.415233950627 , 117.729691974588 206.096740480851 , 128.879709787193 116.861536288629 , 84.8670846738364 27.6263320964067 , 40.8544595604802 -17.0336944516222 , -11.4332712021172 -61.0861433070025 , -68.1039994582495 -105.138592162383 , -124.774727714382 -151.492641525541 , -204.998928012158 -127.712855421901 , -287.492833845881 -103.93306931826 , -369.986739679604 -37.9158907748637 , -390.135671986675 0 , -390.135671986675 Z "
       id="path5468"
       inkscape:connector-curvature="0"
       sodipodi:nodetypes="zzzzzzzzzzzzzzzzzzzzzzzzz" />
  </g>
</svg>
