<?xml version="1.0" encoding="UTF-8" standalone="no"?>
<!-- Created with Inkscape (http://www.inkscape.org/) -->

<svg
   xmlns:dc="http://purl.org/dc/elements/1.1/"
   xmlns:cc="http://creativecommons.org/ns#"
   xmlns:rdf="http://www.w3.org/1999/02/22-rdf-syntax-ns#"
   xmlns:svg="http://www.w3.org/2000/svg"
   xmlns="http://www.w3.org/2000/svg"
   xmlns:sodipodi="http://sodipodi.sourceforge.net/DTD/sodipodi-0.dtd"
   xmlns:inkscape="http://www.inkscape.org/namespaces/inkscape"
   width="210mm"
   height="297mm"
   viewBox="0 0 744.09448819 1052.3622047"
   id="svg4775"
   version="1.1"
   inkscape:version="0.91 r13725"
   sodipodi:docname="8_20.svg">
  <defs
     id="defs4777" />
  <sodipodi:namedview
     id="base"
     pagecolor="#ffffff"
     bordercolor="#666666"
     borderopacity="1.0"
     inkscape:pageopacity="0.0"
     inkscape:pageshadow="2"
     inkscape:zoom="0.93012493"
     inkscape:cx="49.13946"
     inkscape:cy="907.70863"
     inkscape:document-units="px"
     inkscape:current-layer="layer1"
     showgrid="false"
     inkscape:window-width="1755"
     inkscape:window-height="1274"
     inkscape:window-x="408"
     inkscape:window-y="67"
     inkscape:window-maximized="0" />
  <metadata
     id="metadata4780">
    <rdf:RDF>
      <cc:Work
         rdf:about="">
        <dc:format>image/svg+xml</dc:format>
        <dc:type
           rdf:resource="http://purl.org/dc/dcmitype/StillImage" />
        <dc:title />
      </cc:Work>
    </rdf:RDF>
  </metadata>
  <g
     inkscape:label="Layer 1"
     inkscape:groupmode="layer"
     id="layer1">
    <path
       style="fill:none;stroke:#000000;stroke-width:9.77774429px;stroke-linecap:butt;stroke-linejoin:miter;stroke-opacity:1"
       d="M  235.539186153274 , -177.108866402147 C  334.869267923684 , -152.781236498184 383.659078128639 , -64.5537403653684 377.02358799364 , 18.6065531330037 370.388097858641 , 101.766846631376 308.985375156292 , 159.483058754644 248.262461982014 , 197.368184401955 187.539548807735 , 235.253310049266 112.075319988453 , 254.425355265418 16.6915440881483 , 249.348617594993 -78.6922318121567 , 244.271879924569 -134.277619106335 , 209.60427805557 -158.642257657958 , 163.270477631975 -183.006896209581 , 116.93667720838 -168.096729942089 , 76.3766990045399 -164.931022535626 , 68.1482002659644 -161.765315129162 , 59.919701527389 -146.436843336159 , 21.8865630429978 -99.3133575925454 , 1.78026428335475 -52.1898718489313 , -18.3260344762883 -6.49129491487178 , -8.77694072109365 67.5993193944772 , 9.20753019463399 141.689933703826 , 27.1920011103616 171.419542375375 , 24.6253310115325 242.208279458598 , 68.0608482826879 312.997016541822 , 111.496365553843 357.41504379765 , 171.791881044708 359.194039915543 , 238.610394337437 360.973036033435 , 305.428907630167 325.17423601779 , 364.326869088286 267.378589485854 , 399.009766757487 209.582942953918 , 433.692664426689 133.403367866967 , 439.077905798569 0.185142002329064 , 409.820721166524 -133.033083862309 , 380.563536534478 -202.240926972767 , 358.940184686471 -263.225176722133 , 273.006269229637 -324.209426471499 , 187.072353772803 -323.507662890692 , 92.0503775267018 -314.768251930252 , 36.7070134371057 -306.028840969812 , -18.6363506524905 -283.745686102683 , -71.4229911604315 -247.881202859352 , -114.597725323191 -212.01671961602 , -157.77245948595 -140.485886717998 , -214.653950801657 -43.2966404743944 , -207.383599096472 53.8926057692087 , -200.113247391287 108.430230654042 , -129.92047617802 131.092396802551 , -64.9665550556544 153.754562951061 , -0.0126339332888392 142.828318363826 , 42.9229954906164 143.830528441876 , 137.143195381206 144.832738519927 , 231.363395271796 153.312349244609 , 236.832290256762 154.872278993355 , 327.470059625414 156.4322087421 , 418.107828994066 146.977268683386 , 476.978210426566 104.97266428849 , 522.407099856433 62.9680598935929 , 567.8359892863 13.8959408239437 , 569.675027073816 0 , 569.675027073816 -13.8959408239437 , 569.675027073816 -78.4764974538293 , 568.173768161916 -121.13534558935 , 498.138378496093 -163.794193724871 , 428.102988830269 -138.749837661224 , 351.199630036146 -120.574531713082 , 294.783849085964 -102.39922576494 , 238.368068135782 -86.3697611376746 , 209.413945366156 -52.4421139947805 , 109.120132486358 -18.5144668518864 , 8.82631960656059 -17.3253809193833 , -27.3724266046651 21.0828798781891 , -82.9149367569786 59.4911406757614 , -138.457446909292 136.209104382865 , -201.43649630611 235.539186153274 , -177.108866402147 Z "
       id="path5334"
       inkscape:connector-curvature="0"
       sodipodi:nodetypes="zzzzzzzzzzzzzzzzzzzzzzzzzz" />
  </g>
</svg>
