<?xml version="1.0" encoding="UTF-8" standalone="no"?>
<!-- Created with Inkscape (http://www.inkscape.org/) -->

<svg
   xmlns:dc="http://purl.org/dc/elements/1.1/"
   xmlns:cc="http://creativecommons.org/ns#"
   xmlns:rdf="http://www.w3.org/1999/02/22-rdf-syntax-ns#"
   xmlns:svg="http://www.w3.org/2000/svg"
   xmlns="http://www.w3.org/2000/svg"
   xmlns:sodipodi="http://sodipodi.sourceforge.net/DTD/sodipodi-0.dtd"
   xmlns:inkscape="http://www.inkscape.org/namespaces/inkscape"
   width="210mm"
   height="297mm"
   viewBox="0 0 744.09448819 1052.3622047"
   id="svg4775"
   version="1.1"
   inkscape:version="0.91 r13725"
   sodipodi:docname="8_20.svg">
  <defs
     id="defs4777" />
  <sodipodi:namedview
     id="base"
     pagecolor="#ffffff"
     bordercolor="#666666"
     borderopacity="1.0"
     inkscape:pageopacity="0.0"
     inkscape:pageshadow="2"
     inkscape:zoom="0.93012493"
     inkscape:cx="49.13946"
     inkscape:cy="907.70863"
     inkscape:document-units="px"
     inkscape:current-layer="layer1"
     showgrid="false"
     inkscape:window-width="1755"
     inkscape:window-height="1274"
     inkscape:window-x="408"
     inkscape:window-y="67"
     inkscape:window-maximized="0" />
  <metadata
     id="metadata4780">
    <rdf:RDF>
      <cc:Work
         rdf:about="">
        <dc:format>image/svg+xml</dc:format>
        <dc:type
           rdf:resource="http://purl.org/dc/dcmitype/StillImage" />
        <dc:title />
      </cc:Work>
    </rdf:RDF>
  </metadata>
  <g
     inkscape:label="Layer 1"
     inkscape:groupmode="layer"
     id="layer1">
    <path
       style="fill:none;stroke:#000000;stroke-width:9.77774429px;stroke-linecap:butt;stroke-linejoin:miter;stroke-opacity:1"
       d="M  237.676892942261 , -179.924527579395 C  337.92231879681 , -157.570166575612 388.987358533877 , -64.3092211151487 379.66821383261 , 19.6354742567608 370.349069131343 , 103.58016962867 308.832056893474 , 153.987117550131 242.760645184643 , 194.373746331021 176.689233475811 , 234.760375111912 110.604614102079 , 245.734427425186 18.5452490789306 , 242.888939215034 -73.5141159442183 , 240.043451004882 -132.117339998308 , 208.050566443467 -159.072981447237 , 162.2363769207 -186.028622896167 , 116.422187397934 -172.196852136422 , 76.2128303431296 -168.604378915955 , 66.6270321237693 -165.011905695488 , 57.0412339044091 -148.513245625729 , 16.2860248118539 -96.3184824349319 , -0.139059235164708 -44.1237192441347 , -16.5641432821833 -8.20724711994174 , 1.6513118765355 65.9153969930466 , 22.6765968183817 140.038041106035 , 43.7018817602278 162.578937030446 , 32.2607343688362 239.691275029714 , 75.749120871967 316.803613028982 , 119.237507375098 362.411548243311 , 170.737817491064 365.771684417291 , 237.920426981438 369.131820591271 , 305.103036471812 330.983207225125 , 367.810540843689 266.112678155932 , 400.604489269577 201.242149086739 , 433.398437695465 139.56871050429 , 426.575676809407 1.5346923439399 , 396.993037548308 -136.49932581641 , 367.410398287209 -200.051562187403 , 362.043578155111 -263.448586749547 , 275.642851694268 -326.845611311692 , 189.242125233425 -324.564862253401 , 91.0364334698554 -315.536479518043 , 37.3620644701449 -306.508096782685 , -16.3123045295655 -283.120138087995 , -70.9426751240663 -247.588811174653 , -114.360287648049 -212.05748426131 , -157.777900172031 -140.321620463895 , -218.074447924118 -42.5470706139317 , -212.246686918516 55.2274792360315 , -206.418925912914 110.569520296988 , -134.896267848527 131.614100302056 , -58.1090480959688 152.658680307124 , 18.6781716565897 128.820730454878 , 42.4866642590094 127.275898974758 , 135.047417908632 125.731067494637 , 227.608171558254 139.332148499864 , 236.928668538153 145.993202891397 , 326.971483530334 152.65425728293 , 417.014298522516 148.728501413311 , 475.394187680914 106.585922838457 , 523.79457775595 64.4433442636034 , 572.194967830987 12.8098210320188 , 573.660699219585 0 , 573.660699219585 -12.8098210320188 , 573.660699219585 -84.866111205713 , 572.37033025038 -125.470413987744 , 497.315036714701 -166.074716769774 , 422.259743179022 -133.187791708159 , 353.549861837769 -110.902655165322 , 292.836850780524 -88.617518622484 , 232.123839723279 -77.6154877421651 , 213.218546176316 -41.3926594879994 , 109.005647974524 -5.16983123383362 , 4.79274977273201 -10.9898072629327 , -20.5459858967991 27.8046095463163 , -78.5227831188239 66.5990263555653 , -136.499580340849 137.431467087711 , -202.278888583178 237.676892942261 , -179.924527579395 Z "
       id="path5334"
       inkscape:connector-curvature="0"
       sodipodi:nodetypes="zzzzzzzzzzzzzzzzzzzzzzzzzz" />
  </g>
</svg>
