<?xml version="1.0" encoding="UTF-8" standalone="no"?>
<!-- Created with Inkscape (http://www.inkscape.org/) -->

<svg
   xmlns:dc="http://purl.org/dc/elements/1.1/"
   xmlns:cc="http://creativecommons.org/ns#"
   xmlns:rdf="http://www.w3.org/1999/02/22-rdf-syntax-ns#"
   xmlns:svg="http://www.w3.org/2000/svg"
   xmlns="http://www.w3.org/2000/svg"
   xmlns:sodipodi="http://sodipodi.sourceforge.net/DTD/sodipodi-0.dtd"
   xmlns:inkscape="http://www.inkscape.org/namespaces/inkscape"
   width="210mm"
   height="297mm"
   viewBox="0 0 744.09448819 1052.3622047"
   id="svg5355"
   version="1.1"
   inkscape:version="0.91 r13725"
   sodipodi:docname="8_21.svg">
  <defs
     id="defs5357" />
  <sodipodi:namedview
     id="base"
     pagecolor="#ffffff"
     bordercolor="#666666"
     borderopacity="1.0"
     inkscape:pageopacity="0.0"
     inkscape:pageshadow="2"
     inkscape:zoom="0.47595828"
     inkscape:cx="146.82015"
     inkscape:cy="667.91992"
     inkscape:document-units="px"
     inkscape:current-layer="layer1"
     showgrid="false"
     inkscape:window-width="1215"
     inkscape:window-height="776"
     inkscape:window-x="65"
     inkscape:window-y="24"
     inkscape:window-maximized="1" />
  <metadata
     id="metadata5360">
    <rdf:RDF>
      <cc:Work
         rdf:about="">
        <dc:format>image/svg+xml</dc:format>
        <dc:type
           rdf:resource="http://purl.org/dc/dcmitype/StillImage" />
        <dc:title />
      </cc:Work>
    </rdf:RDF>
  </metadata>
  <g
     inkscape:label="Layer 1"
     inkscape:groupmode="layer"
     id="layer1">
    <path
       style="fill:none;stroke:#000000;stroke-width:10.29625607px;stroke-linecap:butt;stroke-linejoin:miter;stroke-opacity:1"
       d="M  72.3447086050072 , -0.942234556062516 C  209.815019827522 , -34.7610412870572 265.549850800745 , 66.4653237205569 273.940438104656 , 82.1042970807588 282.331025408566 , 97.7432704409607 310.222521482896 , 151.389509750657 303.171607790863 , 306.825526345715 296.12069409883 , 462.261542940773 286.880172265218 , 539.302437129968 203.646899967472 , 613.495160907617 120.413627669727 , 687.687884685265 22.6113466871929 , 689.463800263851 0 , 689.463800263851 -22.6113466871929 , 689.463800263851 -173.786475233819 , 687.744087478146 -254.23421542406 , 552.432140998686 -334.681955614302 , 417.120194519225 -248.783903404332 , 306.14960318427 -182.835990913567 , 261.549215312866 -116.888078422802 , 216.948827441462 -85.4991013949014 , 228.310888620515 1.92622780160308 , 209.365010454561 89.3515569981076 , 190.419132288607 90.6456807580961 , 176.006452386155 189.005658256932 , 162.475971584045 287.365635755767 , 148.945490781935 351.533746791138 , 152.303142725269 403.209680933563 , 194.216944039269 454.885615075988 , 236.130745353268 459.253193127804 , 289.611845485963 459.845218918151 , 305.36104102992 460.437244708498 , 321.110236573876 460.407018290024 , 382.53193042802 401.290418031059 , 429.213875104298 342.173817772094 , 475.895819780577 273.587337640434 , 468.407904059584 211.706382553501 , 461.468718870725 149.825427466567 , 454.529533681867 133.338672388327 , 447.083934309254 17.8187319812746 , 429.043800317959 -97.7012084257779 , 411.003666326665 -124.960151370631 , 417.678211976277 -192.715099249064 , 391.352668414482 -260.470047127498 , 365.027124852686 -306.311289872501 , 326.896201233567 -327.152048732014 , 274.947571367496 -347.992807591526 , 222.998941501425 -336.523441897426 , 178.896606640855 -333.325179452269 , 167.476023867828 -330.126917007111 , 156.055441094801 -300.327582020237 , 49.7952511234741 -161.726219266024 , 39.9535400132883 -23.1248565118109 , 30.1118289031025 114.543360719784 , 183.66302228685 139.117339091117 , 322.474578814969 163.69131746245 , 461.286135343089 108.357483427051 , 514.683527584314 75.7223738102435 , 534.005359466953 43.0872641934358 , 553.327191349592 12.6366723537773 , 550.865614087625 1.58474573255294 , 549.407839526934 -9.46718088867138 , 547.950064966243 -49.4505969548251 , 541.328137385845 -79.2342613215193 , 499.391264671079 -109.017925688213 , 457.454391956312 -110.262964492509 , 408.56082130944 -102.914695349732 , 332.693555312961 -95.5664262069543 , 256.826289316482 -65.1256026175073 , 32.8765721749321 72.3447086050072 , -0.942234556062516 Z "
       id="path5923"
       inkscape:connector-curvature="0"
       sodipodi:nodetypes="zzzzzzzzzzzzzzzzzzzzzzzz" />
  </g>
</svg>
