<?xml version="1.0" encoding="UTF-8" standalone="no"?>
<!-- Created with Inkscape (http://www.inkscape.org/) -->

<svg
   xmlns:dc="http://purl.org/dc/elements/1.1/"
   xmlns:cc="http://creativecommons.org/ns#"
   xmlns:rdf="http://www.w3.org/1999/02/22-rdf-syntax-ns#"
   xmlns:svg="http://www.w3.org/2000/svg"
   xmlns="http://www.w3.org/2000/svg"
   xmlns:sodipodi="http://sodipodi.sourceforge.net/DTD/sodipodi-0.dtd"
   xmlns:inkscape="http://www.inkscape.org/namespaces/inkscape"
   width="210mm"
   height="297mm"
   viewBox="0 0 744.09448819 1052.3622047"
   id="svg5355"
   version="1.1"
   inkscape:version="0.91 r13725"
   sodipodi:docname="8_21.svg">
  <defs
     id="defs5357" />
  <sodipodi:namedview
     id="base"
     pagecolor="#ffffff"
     bordercolor="#666666"
     borderopacity="1.0"
     inkscape:pageopacity="0.0"
     inkscape:pageshadow="2"
     inkscape:zoom="0.47595828"
     inkscape:cx="146.82015"
     inkscape:cy="667.91992"
     inkscape:document-units="px"
     inkscape:current-layer="layer1"
     showgrid="false"
     inkscape:window-width="1215"
     inkscape:window-height="776"
     inkscape:window-x="65"
     inkscape:window-y="24"
     inkscape:window-maximized="1" />
  <metadata
     id="metadata5360">
    <rdf:RDF>
      <cc:Work
         rdf:about="">
        <dc:format>image/svg+xml</dc:format>
        <dc:type
           rdf:resource="http://purl.org/dc/dcmitype/StillImage" />
        <dc:title />
      </cc:Work>
    </rdf:RDF>
  </metadata>
  <g
     inkscape:label="Layer 1"
     inkscape:groupmode="layer"
     id="layer1">
    <path
       style="fill:none;stroke:#000000;stroke-width:10.29625607px;stroke-linecap:butt;stroke-linejoin:miter;stroke-opacity:1"
       d="M  73.0526746927008 , 12.6490579238621 C  214.07177467038 , -22.7426279018753 261.040263351213 , 79.4697585580413 268.11666943584 , 95.3396998449258 275.193075520468 , 111.20964113181 293.85338632957 , 154.900004101544 286.34133609766 , 310.399631144484 278.829285865751 , 465.899258187423 290.004604301294 , 532.32225681401 208.391785378561 , 613.783445481163 126.778966455828 , 695.244634148316 22.1011861788711 , 696.801698028089 0 , 696.801698028089 -22.1011861788711 , 696.801698028089 -187.973011218355 , 695.509746704734 -273.003060691989 , 552.538586969497 -358.033110165622 , 409.567427234261 -254.726646137916 , 295.88714442865 -174.176714058874 , 258.878124781468 -93.6267819798311 , 221.869105134286 -78.3242006784437 , 255.45601932177 7.81226187350639 , 243.106335839996 93.9487244254565 , 230.756652358223 89.0747656573345 , 205.783877226755 185.976883578416 , 180.808563789096 282.879001499498 , 155.833250351438 336.96480986182 , 152.514042559084 389.508096856029 , 182.517648135236 442.051383850237 , 212.521253711388 462.987647527311 , 260.926599085976 467.192398318408 , 299.846308007712 471.397149109505 , 338.766016929447 460.717181382945 , 403.528681348114 395.866605367515 , 445.076749812839 331.016029352085 , 486.624818277563 268.683555132058 , 470.352500701519 204.914736288818 , 458.89903398601 141.145917445578 , 447.4455672705 132.122560021784 , 441.693217253059 18.0851867762224 , 420.600200956681 -95.9521864693388 , 399.507184660302 -110.062534917468 , 415.652798193192 -191.264223934694 , 384.440063540604 -272.465912951921 , 353.227328888016 -315.846748072504 , 316.847564131574 -335.323568183198 , 265.047290139986 -354.800388293891 , 213.247016148398 -340.8983169796 , 169.662912216807 -336.794835290238 , 157.796629264895 -332.691353600876 , 145.930346312982 -297.916049133964 , 45.3585433710361 -149.855850885637 , 45.1034328110851 -1.79565263731064 , 44.8483222511341 120.499071398291 , 212.721530141926 137.008504867023 , 335.239670563304 153.517938335756 , 457.757810984681 111.391533926118 , 509.364659840587 78.3947549459217 , 531.826638596992 45.3979759657256 , 554.288617353397 13.8318545053192 , 551.98025274631 2.39332063188739 , 550.477783978366 -9.04521324154444 , 548.975315210421 -52.0374867150844 , 541.653031583254 -79.207638358615 , 493.686843616571 -106.377790002146 , 445.720655649889 -95.6284725853183 , 401.474995794246 -89.538655853153 , 337.767535224494 -83.4488391209877 , 274.060074654741 -67.9664252849782 , 48.0407437495996 73.0526746927008 , 12.6490579238621 Z "
       id="path5923"
       inkscape:connector-curvature="0"
       sodipodi:nodetypes="zzzzzzzzzzzzzzzzzzzzzzzz" />
  </g>
</svg>
