<?xml version="1.0" encoding="UTF-8" standalone="no"?>
<!-- Created with Inkscape (http://www.inkscape.org/) -->

<svg
   xmlns:dc="http://purl.org/dc/elements/1.1/"
   xmlns:cc="http://creativecommons.org/ns#"
   xmlns:rdf="http://www.w3.org/1999/02/22-rdf-syntax-ns#"
   xmlns:svg="http://www.w3.org/2000/svg"
   xmlns="http://www.w3.org/2000/svg"
   xmlns:sodipodi="http://sodipodi.sourceforge.net/DTD/sodipodi-0.dtd"
   xmlns:inkscape="http://www.inkscape.org/namespaces/inkscape"
   width="210mm"
   height="297mm"
   viewBox="0 0 744.09448819 1052.3622047"
   id="svg5472"
   version="1.1"
   inkscape:version="0.91 r13725"
   sodipodi:docname="8_3.svg">
  <defs
     id="defs5474" />
  <sodipodi:namedview
     id="base"
     pagecolor="#ffffff"
     bordercolor="#666666"
     borderopacity="1.0"
     inkscape:pageopacity="0.0"
     inkscape:pageshadow="2"
     inkscape:zoom="0.4058658"
     inkscape:cx="-5.703683"
     inkscape:cy="979.92953"
     inkscape:document-units="px"
     inkscape:current-layer="layer1"
     showgrid="false"
     inkscape:window-width="1215"
     inkscape:window-height="748"
     inkscape:window-x="108"
     inkscape:window-y="136"
     inkscape:window-maximized="0" />
  <metadata
     id="metadata5477">
    <rdf:RDF>
      <cc:Work
         rdf:about="">
        <dc:format>image/svg+xml</dc:format>
        <dc:type
           rdf:resource="http://purl.org/dc/dcmitype/StillImage" />
      </cc:Work>
    </rdf:RDF>
  </metadata>
  <g
     inkscape:label="Layer 1"
     inkscape:groupmode="layer"
     id="layer1">
    <path
       style="fill:none;stroke:#000000;stroke-width:8.23243332px;stroke-linecap:butt;stroke-linejoin:miter;stroke-opacity:1"
       d="M  149.065183363596 , -438.723884731148 C  251.187799575217 , -387.582447624291 268.382777822809 , -256.997211638609 271.694554289793 , -228.574611560069 275.006330756778 , -200.15201148153 283.841295271908 , -110.035251586673 240.736225313267 , 49.171783144733 197.631155354625 , 208.378817876139 157.151038992217 , 211.874773124969 128.952070698645 , 324.669905568386 100.753102405073 , 437.465038011803 125.931843425524 , 471.255197451436 93.1142106744769 , 525.95103152132 60.2965779234298 , 580.646865591205 8.9707264501409 , 581.299156299838 0 , 581.299156299838 -8.9707264501409 , 581.299156299838 -60.2965779234298 , 580.646865591205 -93.1142106744769 , 525.95103152132 -125.931843425524 , 471.255197451436 -100.753102405073 , 437.465038011803 -128.952070698645 , 324.669905568386 -157.151038992217 , 211.874773124969 -197.631155354625 , 208.378817876139 -240.736225313267 , 49.171783144733 -283.841295271908 , -110.035251586673 -275.006330756778 , -200.15201148153 -271.694554289793 , -228.574611560069 -268.382777822809 , -256.997211638609 -251.187799575217 , -387.582447624291 -149.065183363596 , -438.723884731148 -46.9425671519745 , -489.865321838005 40.3074188893805 , -412.141105931032 36.1204113964765 , -329.509538716352 31.9334039035726 , -246.877971501672 -41.230415003731 , -253.873520227444 -40.7165055930953 , -153.69402648806 -40.2025961824596 , -53.5145327486754 31.2994119832276 , -59.4814144142152 37.3143380811318 , 20.6092116168924 43.329264179036 , 100.699837648 -20.9149573477404 , 142.041982861301 -85.7333847046839 , 178.177415835994 -150.551812061627 , 214.312848810688 -198.846276401298 , 226.287015070994 -229.068070400339 , 278.801965706885 -259.28986439938 , 331.316916342775 -245.812139951639 , 396.896717847833 -194.653606019318 , 432.020342750604 -143.495072086997 , 467.143967653375 -104.84754094709 , 450.478407067449 0 , 450.478407067449 104.84754094709 , 450.478407067449 143.495072086997 , 467.143967653375 194.653606019318 , 432.020342750604 245.812139951639 , 396.896717847833 259.28986439938 , 331.316916342775 229.068070400339 , 278.801965706885 198.846276401298 , 226.287015070994 150.551812061627 , 214.312848810688 85.7333847046839 , 178.177415835994 20.9149573477404 , 142.041982861301 -43.329264179036 , 100.699837648 -37.3143380811318 , 20.6092116168924 -31.2994119832276 , -59.4814144142152 40.2025961824596 , -53.5145327486754 40.7165055930953 , -153.69402648806 41.230415003731 , -253.873520227444 -31.9334039035726 , -246.877971501672 -36.1204113964765 , -329.509538716352 -40.3074188893805 , -412.141105931032 46.9425671519745 , -489.865321838005 149.065183363596 , -438.723884731148 Z "
       id="path6040"
       inkscape:connector-curvature="0"
       sodipodi:nodetypes="zzzzzzzzzzzzzzzzzzzzzzzzz" />
  </g>
</svg>
