<?xml version="1.0" encoding="UTF-8" standalone="no"?>
<!-- Created with Inkscape (http://www.inkscape.org/) -->

<svg
   width="210mm"
   height="297mm"
   viewBox="0 0 744.09448819 1052.3622047"
   id="svg5472"
   version="1.1"
   inkscape:version="1.1 (ce6663b3b7, 2021-05-25)"
   sodipodi:docname="8_3.svg"
   xmlns:inkscape="http://www.inkscape.org/namespaces/inkscape"
   xmlns:sodipodi="http://sodipodi.sourceforge.net/DTD/sodipodi-0.dtd"
   xmlns="http://www.w3.org/2000/svg"
   xmlns:svg="http://www.w3.org/2000/svg"
   xmlns:rdf="http://www.w3.org/1999/02/22-rdf-syntax-ns#"
   xmlns:cc="http://creativecommons.org/ns#"
   xmlns:dc="http://purl.org/dc/elements/1.1/">
  <defs
     id="defs5474" />
  <sodipodi:namedview
     id="base"
     pagecolor="#ffffff"
     bordercolor="#666666"
     borderopacity="1.0"
     inkscape:pageopacity="0.0"
     inkscape:pageshadow="2"
     inkscape:zoom="0.4058658"
     inkscape:cx="-562.99397"
     inkscape:cy="-109.64215"
     inkscape:document-units="px"
     inkscape:current-layer="layer1"
     showgrid="false"
     inkscape:window-width="1294"
     inkscape:window-height="704"
     inkscape:window-x="72"
     inkscape:window-y="27"
     inkscape:window-maximized="1"
     inkscape:pagecheckerboard="0" />
  <metadata
     id="metadata5477">
    <rdf:RDF>
      <cc:Work
         rdf:about="">
        <dc:format>image/svg+xml</dc:format>
        <dc:type
           rdf:resource="http://purl.org/dc/dcmitype/StillImage" />
      </cc:Work>
    </rdf:RDF>
  </metadata>
  <g
     inkscape:label="Layer 1"
     inkscape:groupmode="layer"
     id="layer1">
    <path
       style="fill:none;stroke:#000000;stroke-width:8.23243332px;stroke-linecap:butt;stroke-linejoin:miter;stroke-opacity:1"
       d="M  147.492968524091 , -438.759614468858 C  250.093851453093 , -388.024171178336 266.812937370383 , -254.920442038897 269.794854766613 , -229.232848739554 272.776772162844 , -203.54525544021 282.019915219525 , -114.58155945446 240.411329026946 , 44.2021163463205 198.802742834368 , 202.985792147101 152.29089252557 , 214.456413014704 124.899778843717 , 325.211903489395 97.5086651618633 , 435.967393964086 123.933543298744 , 469.961061895392 91.9942436221725 , 524.839928325054 60.0549439456007 , 579.718794754717 8.65977116916177 , 580.3337488317 0 , 580.3337488317 -8.65977116916177 , 580.3337488317 -60.0549439456007 , 579.718794754717 -91.9942436221725 , 524.839928325054 -123.933543298744 , 469.961061895392 -97.5086651618633 , 435.967393964086 -124.899778843717 , 325.211903489395 -152.29089252557 , 214.456413014704 -198.802742834368 , 202.985792147101 -240.411329026946 , 44.2021163463205 -282.019915219525 , -114.58155945446 -272.776772162844 , -203.54525544021 -269.794854766613 , -229.232848739554 -266.812937370383 , -254.920442038897 -250.093851453093 , -388.024171178336 -147.492968524091 , -438.759614468858 -44.892085595089 , -489.49505775938 41.3614242430718 , -407.819915868213 36.987994143934 , -325.309288075227 32.6145640447961 , -242.798660282241 -45.0530266579733 , -254.363122943388 -44.335919945018 , -151.182405369794 -43.6188132320627 , -48.0016877961994 31.316878179642 , -57.5480558339575 38.7852365481727 , 21.0857377223154 46.2535949167034 , 99.7195312785883 -13.8070716863708 , 142.939012828488 -79.9981247398988 , 179.435300715832 -146.189177793427 , 215.931588603176 -196.091668585641 , 225.846537678148 -227.682824049213 , 279.746786881279 -259.273979512785 , 333.647036084411 -243.782920798877 , 400.452302453169 -191.384945225255 , 434.046621164361 -138.986969651634 , 467.640939875554 -102.099546218181 , 448.718150955967 0 , 448.718150955967 102.099546218181 , 448.718150955967 138.986969651634 , 467.640939875554 191.384945225255 , 434.046621164361 243.782920798877 , 400.452302453169 259.273979512785 , 333.647036084411 227.682824049213 , 279.746786881279 196.091668585641 , 225.846537678148 146.189177793427 , 215.931588603176 79.9981247398988 , 179.435300715832 13.8070716863708 , 142.939012828488 -46.2535949167034 , 99.7195312785883 -38.7852365481727 , 21.0857377223154 -31.316878179642 , -57.5480558339575 43.6188132320627 , -48.0016877961994 44.335919945018 , -151.182405369794 45.0530266579733 , -254.363122943388 -32.6145640447961 , -242.798660282242 -36.987994143934 , -325.309288075227 -41.3614242430718 , -407.819915868213 44.892085595089 , -489.49505775938 147.492968524091 , -438.759614468858 Z "
       id="path6040"
       inkscape:connector-curvature="0"
       sodipodi:nodetypes="zzzzzzzzzzzzzzzzzzzzzzzzz" />
  </g>
</svg>
