<?xml version="1.0" encoding="UTF-8" standalone="no"?>
<!-- Created with Inkscape (http://www.inkscape.org/) -->

<svg
   width="210mm"
   height="297mm"
   viewBox="0 0 744.09448819 1052.3622047"
   id="svg5472"
   version="1.1"
   inkscape:version="1.1 (ce6663b3b7, 2021-05-25)"
   sodipodi:docname="8_3_90_deg_crossing.svg"
   xmlns:inkscape="http://www.inkscape.org/namespaces/inkscape"
   xmlns:sodipodi="http://sodipodi.sourceforge.net/DTD/sodipodi-0.dtd"
   xmlns="http://www.w3.org/2000/svg"
   xmlns:svg="http://www.w3.org/2000/svg"
   xmlns:rdf="http://www.w3.org/1999/02/22-rdf-syntax-ns#"
   xmlns:cc="http://creativecommons.org/ns#"
   xmlns:dc="http://purl.org/dc/elements/1.1/">
  <defs
     id="defs5474" />
  <sodipodi:namedview
     id="base"
     pagecolor="#ffffff"
     bordercolor="#666666"
     borderopacity="1.0"
     inkscape:pageopacity="0.0"
     inkscape:pageshadow="2"
     inkscape:zoom="0.4058658"
     inkscape:cx="-562.99397"
     inkscape:cy="979.38777"
     inkscape:document-units="px"
     inkscape:current-layer="layer1"
     showgrid="false"
     inkscape:window-width="1294"
     inkscape:window-height="704"
     inkscape:window-x="72"
     inkscape:window-y="27"
     inkscape:window-maximized="1"
     inkscape:pagecheckerboard="0" />
  <metadata
     id="metadata5477">
    <rdf:RDF>
      <cc:Work
         rdf:about="">
        <dc:format>image/svg+xml</dc:format>
        <dc:type
           rdf:resource="http://purl.org/dc/dcmitype/StillImage" />
      </cc:Work>
    </rdf:RDF>
  </metadata>
  <g
     inkscape:label="Layer 1"
     inkscape:groupmode="layer"
     id="layer1">
    <path
       style="fill:none;stroke:#000000;stroke-width:8.23243332px;stroke-linecap:butt;stroke-linejoin:miter;stroke-opacity:1"
       d="M  154.118042605412 , -446.161571911674 C  259.911986900728 , -400.282001488973 280.582532932799 , -268.834801723838 284.934569017399 , -234.286795988996 289.286605102 , -199.738790254155 296.352111712305 , -115.683371655976 252.046001027941 , 47.2332593280627 207.739890343577 , 210.149890312101 174.21409653473 , 220.337117933435 145.246606956615 , 336.454235882214 116.279117378499 , 452.571353830993 125.463094833983 , 495.112364187845 89.891494343372 , 540.427010160229 54.3198938527606 , 585.741656132614 8.79713834811996 , 586.272675017866 0 , 586.272675017866 -8.79713834811996 , 586.272675017866 -54.3198938527606 , 585.741656132614 -89.891494343372 , 540.427010160229 -125.463094833983 , 495.112364187845 -116.279117378499 , 452.571353830993 -145.246606956615 , 336.454235882214 -174.21409653473 , 220.337117933435 -207.739890343577 , 210.149890312101 -252.046001027941 , 47.2332593280627 -296.352111712305 , -115.683371655976 -289.286605102 , -199.738790254155 -284.934569017399 , -234.286795988996 -280.582532932799 , -268.834801723838 -259.911986900728 , -400.282001488973 -154.118042605412 , -446.161571911674 -48.3240983100966 , -492.041142334376 35.503555718215 , -419.883704154414 30.089330810124 , -336.949749416194 24.6751059020331 , -254.015794677973 -21.6638704773068 , -236.521497880767 -20.4170039460418 , -161.528499679312 -19.1701374147769 , -86.535501477857 23.3123497304708 , -65.0033314375685 25.3253530553229 , 6.11842711149974 27.3383563801749 , 77.240185660568 -25.9029622271703 , 117.192356770457 -92.9200464266595 , 165.071979110506 -159.937130626149 , 212.951601450556 -207.140302646394 , 235.2746153559 -231.861674365837 , 287.788694905381 -256.583046085279 , 340.302774454861 -243.035374060214 , 398.505545702084 -201.48982751568 , 435.609998126815 -159.944280971146 , 472.714450551546 -111.74613627691 , 476.012991099798 0 , 476.012991099798 111.74613627691 , 476.012991099798 159.944280971146 , 472.714450551546 201.48982751568 , 435.609998126815 243.035374060214 , 398.505545702084 256.583046085279 , 340.302774454861 231.861674365837 , 287.788694905381 207.140302646394 , 235.2746153559 159.937130626149 , 212.951601450556 92.9200464266595 , 165.071979110506 25.9029622271703 , 117.192356770457 -27.3383563801749 , 77.240185660568 -25.3253530553229 , 6.11842711149974 -23.3123497304708 , -65.0033314375685 19.1701374147769 , -86.535501477857 20.4170039460418 , -161.528499679312 21.6638704773068 , -236.521497880767 -24.6751059020331 , -254.015794677973 -30.089330810124 , -336.949749416194 -35.503555718215 , -419.883704154414 48.3240983100966 , -492.041142334376 154.118042605412 , -446.161571911674 Z "
       id="path6040"
       inkscape:connector-curvature="0"
       sodipodi:nodetypes="zzzzzzzzzzzzzzzzzzzzzzzzz" />
  </g>
</svg>
