<?xml version="1.0" encoding="UTF-8" standalone="no"?>
<!-- Created with Inkscape (http://www.inkscape.org/) -->

<svg
   width="210mm"
   height="297mm"
   viewBox="0 0 744.09448819 1052.3622047"
   id="svg5472"
   version="1.1"
   inkscape:version="1.1 (ce6663b3b7, 2021-05-25)"
   sodipodi:docname="8_3.svg"
   xmlns:inkscape="http://www.inkscape.org/namespaces/inkscape"
   xmlns:sodipodi="http://sodipodi.sourceforge.net/DTD/sodipodi-0.dtd"
   xmlns="http://www.w3.org/2000/svg"
   xmlns:svg="http://www.w3.org/2000/svg"
   xmlns:rdf="http://www.w3.org/1999/02/22-rdf-syntax-ns#"
   xmlns:cc="http://creativecommons.org/ns#"
   xmlns:dc="http://purl.org/dc/elements/1.1/">
  <defs
     id="defs5474" />
  <sodipodi:namedview
     id="base"
     pagecolor="#ffffff"
     bordercolor="#666666"
     borderopacity="1.0"
     inkscape:pageopacity="0.0"
     inkscape:pageshadow="2"
     inkscape:zoom="0.4058658"
     inkscape:cx="-562.99397"
     inkscape:cy="-109.64215"
     inkscape:document-units="px"
     inkscape:current-layer="layer1"
     showgrid="false"
     inkscape:window-width="1294"
     inkscape:window-height="704"
     inkscape:window-x="72"
     inkscape:window-y="27"
     inkscape:window-maximized="1"
     inkscape:pagecheckerboard="0" />
  <metadata
     id="metadata5477">
    <rdf:RDF>
      <cc:Work
         rdf:about="">
        <dc:format>image/svg+xml</dc:format>
        <dc:type
           rdf:resource="http://purl.org/dc/dcmitype/StillImage" />
      </cc:Work>
    </rdf:RDF>
  </metadata>
  <g
     inkscape:label="Layer 1"
     inkscape:groupmode="layer"
     id="layer1">
    <path
       style="fill:none;stroke:#000000;stroke-width:8.23243332px;stroke-linecap:butt;stroke-linejoin:miter;stroke-opacity:1"
       d="M  147.492979620953 , -438.759601307756 C  250.093862761889 , -388.024178653656 266.812926105861 , -254.920445748303 269.794846571123 , -229.232853373011 272.776767036384 , -203.54526099772 282.019976457934 , -114.581586842257 240.411350370618 , 44.2021048072697 198.802724283302 , 202.985796456796 152.29086596468 , 214.456373253552 124.899790473272 , 325.211893510374 97.5087149818638 , 435.967413767197 123.933515075756 , 469.961086922951 91.9942415084729 , 524.839943566016 60.0549679411893 , 579.718800209082 8.65978532943595 , 580.333766819626 0 , 580.333766819626 -8.65978532943595 , 580.333766819626 -60.0549679411894 , 579.718800209082 -91.9942415084729 , 524.839943566016 -123.933515075756 , 469.961086922951 -97.5087149818638 , 435.967413767197 -124.899790473272 , 325.211893510374 -152.29086596468 , 214.456373253552 -198.802724283302 , 202.985796456796 -240.411350370618 , 44.2021048072697 -282.019976457934 , -114.581586842257 -272.776767036384 , -203.54526099772 -269.794846571123 , -229.232853373011 -266.812926105861 , -254.920445748303 -250.093862761889 , -388.024178653656 -147.492979620953 , -438.759601307756 -44.892096480017 , -489.495023961855 41.3616996854386 , -407.819993096174 36.9881052653878 , -325.309330926158 32.614510845337 , -242.798668756142 -45.0527324515936 , -254.362967620709 -44.3361635754213 , -151.182532317194 -43.6195946992491 , -48.0020970136802 31.3154649434685 , -57.548356852061 38.7847409850013 , 21.0856477549179 46.2540170265341 , 99.7196523618968 -13.8070899649302 , 142.939030922514 -79.9981409567887 , 179.435295060237 -146.189191948647 , 215.93155919796 -196.091656190945 , 225.846547911696 -227.682796426463 , 279.746782523547 -259.273936661982 , 333.647017135398 -243.782926830575 , 400.452274978865 -191.384928672383 , 434.046590165004 -138.986930514191 , 467.640905351143 -102.09955455771 , 448.718172779068 0 , 448.718172779068 102.09955455771 , 448.718172779068 138.986930514191 , 467.640905351143 191.384928672383 , 434.046590165004 243.782926830575 , 400.452274978865 259.273936661982 , 333.647017135398 227.682796426463 , 279.746782523547 196.091656190945 , 225.846547911696 146.189191948647 , 215.93155919796 79.9981409567887 , 179.435295060237 13.8070899649302 , 142.939030922514 -46.2540170265341 , 99.7196523618968 -38.7847409850013 , 21.0856477549179 -31.3154649434685 , -57.548356852061 43.6195946992491 , -48.0020970136802 44.3361635754213 , -151.182532317194 45.0527324515936 , -254.362967620709 -32.614510845337 , -242.798668756142 -36.9881052653878 , -325.309330926158 -41.3616996854386 , -407.819993096174 44.892096480017 , -489.495023961855 147.492979620953 , -438.759601307756 Z "
       id="path6040"
       inkscape:connector-curvature="0"
       sodipodi:nodetypes="zzzzzzzzzzzzzzzzzzzzzzzzz" />
  </g>
</svg>
