<?xml version="1.0" encoding="UTF-8" standalone="no"?>
<!-- Created with Inkscape (http://www.inkscape.org/) -->

<svg
   xmlns:dc="http://purl.org/dc/elements/1.1/"
   xmlns:cc="http://creativecommons.org/ns#"
   xmlns:rdf="http://www.w3.org/1999/02/22-rdf-syntax-ns#"
   xmlns:svg="http://www.w3.org/2000/svg"
   xmlns="http://www.w3.org/2000/svg"
   xmlns:sodipodi="http://sodipodi.sourceforge.net/DTD/sodipodi-0.dtd"
   xmlns:inkscape="http://www.inkscape.org/namespaces/inkscape"
   width="210mm"
   height="297mm"
   viewBox="0 0 744.09448819 1052.3622047"
   id="svg6080"
   version="1.1"
   inkscape:version="0.91 r13725"
   sodipodi:docname="8_4.svg">
  <defs
     id="defs6082" />
  <sodipodi:namedview
     id="base"
     pagecolor="#ffffff"
     bordercolor="#666666"
     borderopacity="1.0"
     inkscape:pageopacity="0.0"
     inkscape:pageshadow="2"
     inkscape:zoom="0.47160517"
     inkscape:cx="-82.540632"
     inkscape:cy="820.27839"
     inkscape:document-units="px"
     inkscape:current-layer="layer1"
     showgrid="false"
     inkscape:window-width="1215"
     inkscape:window-height="776"
     inkscape:window-x="65"
     inkscape:window-y="24"
     inkscape:window-maximized="1" />
  <metadata
     id="metadata6085">
    <rdf:RDF>
      <cc:Work
         rdf:about="">
        <dc:format>image/svg+xml</dc:format>
        <dc:type
           rdf:resource="http://purl.org/dc/dcmitype/StillImage" />
        <dc:title />
      </cc:Work>
    </rdf:RDF>
  </metadata>
  <g
     inkscape:label="Layer 1"
     inkscape:groupmode="layer"
     id="layer1">
    <path
       style="fill:none;stroke:#ed0000;stroke-width:10.23769665px;stroke-linecap:butt;stroke-linejoin:miter;stroke-opacity:1"
       d="M  192.039759557975 , -30.3389424894393 C  347.822691989797 , 16.1220572671224 474.460827110734 , 233.681540402953 404.672852462348 , 379.735279080927 334.884877813961 , 525.789017758901 231.496706007508 , 456.892739543492 222.95083305923 , 450.983010063664 214.404960110953 , 445.073280583836 181.912626521724 , 420.89594549578 175.032296427088 , 366.093073047462 168.151966332452 , 311.290200599145 184.933177297531 , 281.54712778858 178.989590397714 , 233.252992926081 173.046003497897 , 184.958858063582 149.038106962285 , 154.187672660513 120.19320625574 , 135.198423216486 91.3483055491944 , 116.20917377246 55.6881439540575 , 111.331804774284 0 , 111.331804774284 -55.6881439540575 , 111.331804774284 -87.7481525036229 , 107.489312549074 -123.102870345614 , 128.665838254044 -158.457588187604 , 149.842363959015 -175.049723317677 , 186.075053444962 -173.927905885273 , 223.909719589893 -172.80608845287 , 261.744385734825 -152.830072819163 , 296.653539382033 -142.230623791599 , 335.73106971609 -131.631174764035 , 374.808600050148 -130.421371938363 , 388.260431129678 -133.089960183752 , 419.690226921355 -135.758548429141 , 451.120022713032 -150.21148934139 , 487.221726899568 -154.747485949914 , 527.292482124086 -159.283482558439 , 567.363237348604 -152.088095343634 , 590.913549271559 -147.9041660235 , 603.223649192121 -143.720236703366 , 615.533749112683 -117.448563151428 , 689.317991617967 -20.2995719051072 , 709.44222870559 76.8494193412137 , 729.566465793213 176.805619079275 , 684.71897443513 244.660106952449 , 593.51155393457 312.514594825623 , 502.304133434011 281.035293958708 , 419.011957376616 275.273190344377 , 404.330988288991 269.511086730047 , 389.650019201366 258.330467595596 , 364.236780738518 225.51166609837 , 332.384968339638 192.692864601144 , 300.533155940758 163.662491707943 , 288.957515200632 134.717648516357 , 260.520418934767 105.77280532477 , 232.083322668902 93.5069740940577 , 210.241245389486 79.2600115271595 , 175.082362316473 65.0130489602613 , 139.923479243461 64.2974800698939 , 105.29480283081 44.3233949363263 , 59.8728312879894 24.3493098027587 , 14.4508597451692 -46.0038030584795 , -80.7358078798428 -192.797431734622 , -5.57985729731401 -339.591060410765 , 69.5760932852148 -373.615389585837 , 278.104687425156 -380.246856865276 , 334.496051005121 -386.878324144716 , 390.887414585086 -399.251495946289 , 591.22308322523 -263.817700024344 , 662.954466400471 -128.383904102399 , 734.685849575711 -88.5078784901721 , 628.843792778004 -83.1484448336985 , 606.517052704096 -77.789011177225 , 584.190312630188 -78.1446354088707 , 554.137731672227 -101.429943583315 , 517.723764351501 -124.715251757759 , 481.309797030775 -154.021940377234 , 468.191787530876 -177.991098017163 , 429.948006112231 -201.960255657091 , 391.704224693586 -199.68900714127 , 356.073321862759 -188.178833485886 , 325.822028434339 -176.668659830503 , 295.570735005918 -149.683919701622 , 271.383133687951 -124.753917849903 , 234.421103909304 -99.8239159981841 , 197.459074130657 -96.6041568976052 , 190.616914862841 -83.6895232088751 , 162.750000658126 -70.7748895201451 , 134.883086453411 -63.8297536837022 , 100.003668353313 -43.5964836300602 , 59.6642067191428 -23.3632135764183 , 19.3247450849728 36.2568271261536 , -76.7999422460011 192.039759557975 , -30.3389424894393 Z "
       id="path6639"
       inkscape:connector-curvature="0"
       sodipodi:nodetypes="zzzzzzzzzzzzzzzzzzzzzzzzzzzzzzz" />
  </g>
</svg>
