<?xml version="1.0" encoding="UTF-8" standalone="no"?>
<!-- Created with Inkscape (http://www.inkscape.org/) -->

<svg
   xmlns:dc="http://purl.org/dc/elements/1.1/"
   xmlns:cc="http://creativecommons.org/ns#"
   xmlns:rdf="http://www.w3.org/1999/02/22-rdf-syntax-ns#"
   xmlns:svg="http://www.w3.org/2000/svg"
   xmlns="http://www.w3.org/2000/svg"
   xmlns:sodipodi="http://sodipodi.sourceforge.net/DTD/sodipodi-0.dtd"
   xmlns:inkscape="http://www.inkscape.org/namespaces/inkscape"
   width="210mm"
   height="297mm"
   viewBox="0 0 744.09448819 1052.3622047"
   id="svg6080"
   version="1.1"
   inkscape:version="0.91 r13725"
   sodipodi:docname="8_4.svg">
  <defs
     id="defs6082" />
  <sodipodi:namedview
     id="base"
     pagecolor="#ffffff"
     bordercolor="#666666"
     borderopacity="1.0"
     inkscape:pageopacity="0.0"
     inkscape:pageshadow="2"
     inkscape:zoom="0.47160517"
     inkscape:cx="-82.540632"
     inkscape:cy="820.27839"
     inkscape:document-units="px"
     inkscape:current-layer="layer1"
     showgrid="false"
     inkscape:window-width="1215"
     inkscape:window-height="776"
     inkscape:window-x="65"
     inkscape:window-y="24"
     inkscape:window-maximized="1" />
  <metadata
     id="metadata6085">
    <rdf:RDF>
      <cc:Work
         rdf:about="">
        <dc:format>image/svg+xml</dc:format>
        <dc:type
           rdf:resource="http://purl.org/dc/dcmitype/StillImage" />
        <dc:title />
      </cc:Work>
    </rdf:RDF>
  </metadata>
  <g
     inkscape:label="Layer 1"
     inkscape:groupmode="layer"
     id="layer1">
    <path
       style="fill:none;stroke:#ed0000;stroke-width:10.23769665px;stroke-linecap:butt;stroke-linejoin:miter;stroke-opacity:1"
       d="M  187.871321065611 , -28.9293725476235 C  339.60190550538 , 23.5111758133338 470.454803739079 , 234.810861546049 405.277355801062 , 377.089445505257 340.099907863046 , 519.368029464466 229.091496111787 , 455.11201454817 221.828880017029 , 450.871929053285 214.566263922271 , 446.631843558401 171.435264131254 , 420.860930667721 167.660251582504 , 361.888644351839 163.885239033754 , 302.916358035957 190.637030660717 , 286.587095671185 188.703390448534 , 234.996695546312 186.769750236351 , 183.406295421439 157.369252315519 , 146.550428670945 116.709956082602 , 129.403496200414 76.0506598496851 , 112.256563729883 56.8305176737739 , 123.294745417937 0 , 123.294745417937 -56.8305176737739 , 123.294745417937 -80.1892885155802 , 106.440648725369 -123.848632772942 , 123.92142209452 -167.507977030304 , 141.40219546367 -191.351976410339 , 185.101051593205 -180.32483890703 , 229.812345716321 -169.297701403721 , 274.523639839436 -144.832136451518 , 290.466560005075 -131.496179749209 , 326.436693492353 -118.160223046901 , 362.406826979631 -114.552311630359 , 388.73464477622 -124.662345257744 , 429.086490575255 -134.772378885129 , 469.43833637429 -152.919146383578 , 482.035882355893 -160.142490759885 , 521.784983391157 -167.365835136193 , 561.53408442642 -155.939549407342 , 591.240068331502 -152.082647468645 , 600.726946903458 -148.225745529947 , 610.213825475415 -115.592259618973 , 689.302643854949 -19.821245493828 , 706.356087221199 75.9497686313166 , 723.40953058745 176.003988008625 , 682.035492868219 241.396703099211 , 594.892533245349 306.789418189796 , 507.749573622479 281.900149024761 , 416.414398355677 278.81104801644 , 405.237817568235 275.721947008118 , 394.061236780793 264.834565489099 , 356.244614894261 227.079971303447 , 324.791678907725 189.325377117794 , 293.338742921189 163.851486066954 , 296.116567102671 129.941497479291 , 268.926047931933 96.031508891627 , 241.735528761195 80.8757913898335 , 217.388893001919 66.3471880157708 , 177.625878159959 51.818584641708 , 137.862863317999 58.9383395654346 , 111.056175005361 40.4356662287402 , 63.9027184026111 21.9329928920457 , 16.7492617998614 -46.5858648501374 , -84.5631800865366 -190.947239763076 , -4.16227779091608 -335.308614676014 , 76.2386245047045 -372.390110801048 , 278.634001688505 -378.992485942961 , 334.120027771049 -385.594861084875 , 389.606053853592 -396.538974373017 , 589.338275947334 -265.127717021433 , 659.923323858703 -133.716459669849 , 730.508371770072 -88.8084217328059 , 625.194457751466 -82.3850588292034 , 604.980932735732 -75.9616959256009 , 584.767407719998 -71.6425802255638 , 547.99445617444 -99.8369015177179 , 510.623245014929 -128.031222809872 , 473.252033855417 -154.966502614834 , 475.971951396594 -186.279522641263 , 436.47432275785 -217.592542667692 , 396.976694119105 -214.89848295543 , 351.465036486639 -194.066970775523 , 317.745766067798 -173.235458595615 , 284.026495648958 -148.617620709408 , 278.856908596882 -118.428003715917 , 245.622468127023 -88.2383867224261 , 212.388027657164 -80.8397698414263 , 196.500215527479 -69.6882016811917 , 166.190666357569 -58.5366335209571 , 135.88111718766 -59.8024161123598 , 105.632313922223 -41.9274918454159 , 62.5763045662619 -24.052567578472 , 19.5202952103005 36.1407366258416 , -81.3699209085808 187.871321065611 , -28.9293725476235 Z "
       id="path6639"
       inkscape:connector-curvature="0"
       sodipodi:nodetypes="zzzzzzzzzzzzzzzzzzzzzzzzzzzzzzz" />
  </g>
</svg>
