<?xml version="1.0" encoding="UTF-8" standalone="no"?>
<!-- Created with Inkscape (http://www.inkscape.org/) -->

<svg
   xmlns:dc="http://purl.org/dc/elements/1.1/"
   xmlns:cc="http://creativecommons.org/ns#"
   xmlns:rdf="http://www.w3.org/1999/02/22-rdf-syntax-ns#"
   xmlns:svg="http://www.w3.org/2000/svg"
   xmlns="http://www.w3.org/2000/svg"
   xmlns:sodipodi="http://sodipodi.sourceforge.net/DTD/sodipodi-0.dtd"
   xmlns:inkscape="http://www.inkscape.org/namespaces/inkscape"
   width="210mm"
   height="297mm"
   viewBox="0 0 744.09448819 1052.3622047"
   id="svg2"
   version="1.1"
   inkscape:version="0.91 r13725"
   sodipodi:docname="8_4_alternative.svg">
  <defs
     id="defs4" />
  <sodipodi:namedview
     id="base"
     pagecolor="#ffffff"
     bordercolor="#666666"
     borderopacity="1.0"
     inkscape:pageopacity="0.0"
     inkscape:pageshadow="2"
     inkscape:zoom="0.79912109"
     inkscape:cx="231.0919"
     inkscape:cy="520"
     inkscape:document-units="px"
     inkscape:current-layer="layer1"
     showgrid="false"
     inkscape:window-width="2560"
     inkscape:window-height="1315"
     inkscape:window-x="835"
     inkscape:window-y="0"
     inkscape:window-maximized="0" />
  <metadata
     id="metadata7">
    <rdf:RDF>
      <cc:Work
         rdf:about="">
        <dc:format>image/svg+xml</dc:format>
        <dc:type
           rdf:resource="http://purl.org/dc/dcmitype/StillImage" />
      </cc:Work>
    </rdf:RDF>
  </metadata>
  <g
     inkscape:label="Layer 1"
     inkscape:groupmode="layer"
     id="layer1">
    <path
       style="fill:none;fill-rule:evenodd;stroke:#000000;stroke-width:1.29171181px;stroke-linecap:butt;stroke-linejoin:miter;stroke-opacity:1"
       d="M  0 , -44.1034616480313 C  11.4709825318079 , -44.1034616480313 74.9525333096273 , -43.0883878737462 115.013126803895 , 23.6325729313508 155.073720298163 , 90.3535337364477 125.814293481563 , 132.793791115381 151.010450572648 , 255.417790089418 176.206607663732 , 378.041789063456 207.792328617584 , 395.286845933044 218.983314849903 , 458.832113590429 230.174301082222 , 522.377381247814 218.81332006304 , 563.585835563971 206.970021391108 , 593.506767560708 195.126722719177 , 623.427699557446 178.986520534763 , 650.666935776525 92.0462936617945 , 754.968177908536 5.10606678882567 , 859.269420040547 -28.3627263461696 , 902.565141951479 -96.4467476552128 , 911.838026303201 -164.530768964256 , 921.110910654923 -202.571488268291 , 880.382516713049 -210.749894653242 , 871.129725525066 -218.928301038192 , 861.876934337083 -257.284498427 , 816.226146113923 -235.372533403049 , 745.777710417048 -213.460568379098 , 675.329274720172 -163.135218050413 , 657.186326242561 -78.7454493181448 , 590.335061834475 5.64431941412337 , 523.48379742639 3.85105676145298 , 503.507472321352 93.6336189751907 , 445.307025752738 183.416181188928 , 387.106579184125 230.560911331385 , 389.991370501683 269.517455325825 , 325.124372480212 308.473999320265 , 260.257374458741 290.100115266553 , 183.973211651962 234.96488361692 , 143.251865159005 179.829651967286 , 102.530518666048 132.600403549649 , 116.385996815525 44.7765007482326 , 116.381607096509 -43.0474020531842 , 116.377217377493 43.0474020531842 , 116.377217377493 -44.7765007482326 , 116.381607096509 -132.600403549649 , 116.385996815525 -179.829651967286 , 102.530518666048 -234.96488361692 , 143.251865159005 -290.100115266553 , 183.973211651962 -308.473999320265 , 260.257374458741 -269.517455325825 , 325.124372480212 -230.560911331385 , 389.991370501683 -183.416181188928 , 387.106579184125 -93.6336189751907 , 445.307025752738 -3.85105676145298 , 503.507472321352 -5.64431941412337 , 523.48379742639 78.7454493181448 , 590.335061834475 163.135218050413 , 657.186326242561 213.460568379098 , 675.329274720172 235.372533403049 , 745.777710417048 257.284498427 , 816.226146113923 218.928301038192 , 861.876934337083 210.749894653242 , 871.129725525066 202.571488268291 , 880.382516713049 164.530768964256 , 921.110910654923 96.4467476552128 , 911.838026303201 28.3627263461696 , 902.565141951479 -5.10606678882567 , 859.269420040547 -92.0462936617945 , 754.968177908536 -178.986520534763 , 650.666935776525 -195.126722719177 , 623.427699557446 -206.970021391108 , 593.506767560708 -218.81332006304 , 563.585835563971 -230.174301082222 , 522.377381247814 -218.983314849903 , 458.832113590429 -207.792328617584 , 395.286845933044 -176.206607663732 , 378.041789063456 -151.010450572648 , 255.417790089418 -125.814293481563 , 132.793791115381 -155.073720298163 , 90.3535337364477 -115.013126803895 , 23.6325729313508 -74.9525333096273 , -43.0883878737462 -11.4709825318079 , -44.1034616480313 0 , -44.1034616480313 Z "
       id="path4136"
       inkscape:connector-curvature="0"
       sodipodi:nodetypes="zzzzzzzzzzzzzzzzzzzzzzzzzzzz" />
  </g>
</svg>
