<?xml version="1.0" encoding="UTF-8" standalone="no"?>
<!-- Created with Inkscape (http://www.inkscape.org/) -->

<svg
   xmlns:dc="http://purl.org/dc/elements/1.1/"
   xmlns:cc="http://creativecommons.org/ns#"
   xmlns:rdf="http://www.w3.org/1999/02/22-rdf-syntax-ns#"
   xmlns:svg="http://www.w3.org/2000/svg"
   xmlns="http://www.w3.org/2000/svg"
   xmlns:sodipodi="http://sodipodi.sourceforge.net/DTD/sodipodi-0.dtd"
   xmlns:inkscape="http://www.inkscape.org/namespaces/inkscape"
   width="210mm"
   height="297mm"
   viewBox="0 0 744.09448819 1052.3622047"
   id="svg2"
   version="1.1"
   inkscape:version="0.91 r13725"
   sodipodi:docname="8_4_alternative.svg">
  <defs
     id="defs4" />
  <sodipodi:namedview
     id="base"
     pagecolor="#ffffff"
     bordercolor="#666666"
     borderopacity="1.0"
     inkscape:pageopacity="0.0"
     inkscape:pageshadow="2"
     inkscape:zoom="0.79912109"
     inkscape:cx="231.0919"
     inkscape:cy="520"
     inkscape:document-units="px"
     inkscape:current-layer="layer1"
     showgrid="false"
     inkscape:window-width="2560"
     inkscape:window-height="1315"
     inkscape:window-x="835"
     inkscape:window-y="0"
     inkscape:window-maximized="0" />
  <metadata
     id="metadata7">
    <rdf:RDF>
      <cc:Work
         rdf:about="">
        <dc:format>image/svg+xml</dc:format>
        <dc:type
           rdf:resource="http://purl.org/dc/dcmitype/StillImage" />
      </cc:Work>
    </rdf:RDF>
  </metadata>
  <g
     inkscape:label="Layer 1"
     inkscape:groupmode="layer"
     id="layer1">
    <path
       style="fill:none;fill-rule:evenodd;stroke:#000000;stroke-width:1.29171181px;stroke-linecap:butt;stroke-linejoin:miter;stroke-opacity:1"
       d="M  0 , -44.0952500033704 C  11.4736175413334 , -44.0952500033704 73.3125661281057 , -42.9119897102472 113.833676151612 , 23.8025412351414 154.354786175119 , 90.5170721805301 136.35853440798 , 133.418286490387 156.405044359255 , 255.243591467299 176.451554310529 , 377.068896444211 202.440509891527 , 397.930603831551 216.441076267721 , 460.029753271444 230.441642643915 , 522.128902711337 216.579150473689 , 562.783331134584 205.890353688636 , 593.016410130926 195.201556903582 , 623.249489127268 182.815155303922 , 655.333018694144 94.2411774472608 , 757.293582368887 5.6671995905991 , 859.254146043629 -28.6793350292013 , 902.006234589939 -96.7186616865543 , 911.413661832192 -164.757988343907 , 920.821089074446 -202.623177501971 , 880.391167158588 -210.799146365319 , 871.222615385006 -218.975115228667 , 862.054063611423 -257.825141907561 , 815.595573083675 -233.611666451985 , 747.493212216817 -209.39819099641 , 679.390851349958 -163.066475458281 , 656.772135073063 -80.7591249376155 , 588.067786528691 1.54822558305023 , 519.36343798432 7.92101737396951 , 508.444249636791 95.5761380063493 , 448.068223361138 183.231258638729 , 387.692197085484 225.778102438011 , 382.855146953641 267.432753758088 , 322.058556058172 309.087405078165 , 261.261965162703 290.335203636317 , 184.322419438734 234.931554886733 , 144.172850450667 179.527906137149 , 104.023281462599 130.517741673621 , 115.107244442863 43.9301728678537 , 115.107216356998 -42.6573959379139 , 115.107188271133 42.6573959379139 , 115.107188271133 -43.9301728678537 , 115.107216356998 -130.517741673621 , 115.107244442863 -179.527906137149 , 104.023281462599 -234.931554886733 , 144.172850450667 -290.335203636317 , 184.322419438734 -309.087405078165 , 261.261965162703 -267.432753758088 , 322.058556058172 -225.778102438011 , 382.855146953641 -183.231258638729 , 387.692197085484 -95.5761380063493 , 448.068223361138 -7.92101737396951 , 508.444249636791 -1.54822558305023 , 519.36343798432 80.7591249376155 , 588.067786528691 163.066475458281 , 656.772135073063 209.39819099641 , 679.390851349958 233.611666451985 , 747.493212216817 257.825141907561 , 815.595573083675 218.975115228667 , 862.054063611423 210.799146365319 , 871.222615385006 202.623177501971 , 880.391167158588 164.757988343907 , 920.821089074446 96.7186616865543 , 911.413661832192 28.6793350292013 , 902.006234589939 -5.66719959059909 , 859.254146043629 -94.2411774472608 , 757.293582368887 -182.815155303922 , 655.333018694144 -195.201556903582 , 623.249489127268 -205.890353688636 , 593.016410130926 -216.579150473689 , 562.783331134584 -230.441642643915 , 522.128902711337 -216.441076267721 , 460.029753271444 -202.440509891527 , 397.930603831551 -176.451554310529 , 377.068896444211 -156.405044359255 , 255.243591467299 -136.35853440798 , 133.418286490387 -154.354786175119 , 90.5170721805301 -113.833676151612 , 23.8025412351414 -73.3125661281057 , -42.9119897102472 -11.4736175413334 , -44.0952500033704 0 , -44.0952500033704 Z "
       id="path4136"
       inkscape:connector-curvature="0"
       sodipodi:nodetypes="zzzzzzzzzzzzzzzzzzzzzzzzzzzz" />
  </g>
</svg>
