<?xml version="1.0" encoding="UTF-8" standalone="no"?>
<!-- Created with Inkscape (http://www.inkscape.org/) -->

<svg
   xmlns:dc="http://purl.org/dc/elements/1.1/"
   xmlns:cc="http://creativecommons.org/ns#"
   xmlns:rdf="http://www.w3.org/1999/02/22-rdf-syntax-ns#"
   xmlns:svg="http://www.w3.org/2000/svg"
   xmlns="http://www.w3.org/2000/svg"
   xmlns:sodipodi="http://sodipodi.sourceforge.net/DTD/sodipodi-0.dtd"
   xmlns:inkscape="http://www.inkscape.org/namespaces/inkscape"
   width="210mm"
   height="297mm"
   viewBox="0 0 744.09448819 1052.3622047"
   id="svg6679"
   version="1.1"
   inkscape:version="0.91 r13725"
   sodipodi:docname="8_5.svg">
  <defs
     id="defs6681" />
  <sodipodi:namedview
     id="base"
     pagecolor="#ffffff"
     bordercolor="#666666"
     borderopacity="1.0"
     inkscape:pageopacity="0.0"
     inkscape:pageshadow="2"
     inkscape:zoom="0.73104309"
     inkscape:cx="229.00159"
     inkscape:cy="674.96322"
     inkscape:document-units="px"
     inkscape:current-layer="layer1"
     showgrid="false"
     inkscape:window-width="2560"
     inkscape:window-height="1315"
     inkscape:window-x="0"
     inkscape:window-y="1"
     inkscape:window-maximized="1" />
  <metadata
     id="metadata6684">
    <rdf:RDF>
      <cc:Work
         rdf:about="">
        <dc:format>image/svg+xml</dc:format>
        <dc:type
           rdf:resource="http://purl.org/dc/dcmitype/StillImage" />
        <dc:title />
      </cc:Work>
    </rdf:RDF>
  </metadata>
  <g
     inkscape:label="Layer 1"
     inkscape:groupmode="layer"
     id="layer1">
    <path
       style="fill:none;stroke:#000000;stroke-width:9.27754116px;stroke-linecap:butt;stroke-linejoin:miter;stroke-opacity:1"
       d="M  0 , -85.9976942022316 C  54.6978170887038 , -85.9976942022316 129.893985946947 , -65.2731794944806 178.965588351125 , 0.418492046924082 228.037190755303 , 66.1101635883287 218.916357544476 , 126.187364833047 206.43538208773 , 208.135080743438 193.954406630985 , 290.082796653829 150.685729047575 , 358.116018694488 75.1562497718395 , 354.181635268146 -0.373229503895971 , 350.247251841804 5.3519272057159 , 299.801016846474 -70.6669348471504 , 279.007348421186 -146.685796900017 , 258.213679995898 -203.21766503025 , 306.41146973285 -240.1409594146 , 343.81224236449 -277.064253798951 , 381.213014996129 -330.823490858616 , 439.522270368915 -314.481154797782 , 523.597374076322 -298.138818736947 , 607.672477783729 -212.936588063169 , 678.294290627587 -107.203792646186 , 659.709048149755 -1.4709972292022 , 641.123805671922 -8.71799460482316 , 585.81313758006 129.492234540125 , 497.499847028408 267.702463685074 , 409.186556476756 319.246778988725 , 395.74182192934 349.593864316126 , 328.922361276183 379.940949643526 , 262.102900623026 359.648176379635 , 187.887699202123 302.001179490082 , 147.639451938037 244.354182600529 , 107.391204673951 199.994795502759 , 121.979648758088 0 , 121.979648758088 -199.994795502759 , 121.979648758088 -244.354182600529 , 107.391204673951 -302.001179490082 , 147.639451938037 -359.648176379635 , 187.887699202123 -379.940949643526 , 262.102900623026 -349.593864316126 , 328.922361276183 -319.246778988725 , 395.74182192934 -267.702463685074 , 409.186556476756 -129.492234540125 , 497.499847028408 8.71799460482316 , 585.81313758006 1.4709972292022 , 641.123805671922 107.203792646186 , 659.709048149755 212.936588063169 , 678.294290627587 298.138818736947 , 607.672477783729 314.481154797782 , 523.597374076322 330.823490858616 , 439.522270368915 277.064253798951 , 381.213014996129 240.1409594146 , 343.81224236449 203.21766503025 , 306.41146973285 146.685796900017 , 258.213679995898 70.6669348471504 , 279.007348421186 -5.3519272057159 , 299.801016846474 0.373229503895984 , 350.247251841804 -75.1562497718395 , 354.181635268146 -150.685729047575 , 358.116018694488 -193.954406630985 , 290.082796653829 -206.43538208773 , 208.135080743438 -218.916357544476 , 126.187364833047 -228.037190755303 , 66.1101635883287 -178.965588351125 , 0.418492046924082 -129.893985946947 , -65.2731794944806 -54.6978170887038 , -85.9976942022316 0 , -85.9976942022316 Z "
       id="path7247"
       inkscape:connector-curvature="0"
       sodipodi:nodetypes="zzzzzzzzzzzzzzzzzzzzzzz" />
  </g>
</svg>
