<?xml version="1.0" encoding="UTF-8" standalone="no"?>
<!-- Created with Inkscape (http://www.inkscape.org/) -->

<svg
   xmlns:dc="http://purl.org/dc/elements/1.1/"
   xmlns:cc="http://creativecommons.org/ns#"
   xmlns:rdf="http://www.w3.org/1999/02/22-rdf-syntax-ns#"
   xmlns:svg="http://www.w3.org/2000/svg"
   xmlns="http://www.w3.org/2000/svg"
   xmlns:sodipodi="http://sodipodi.sourceforge.net/DTD/sodipodi-0.dtd"
   xmlns:inkscape="http://www.inkscape.org/namespaces/inkscape"
   width="210mm"
   height="297mm"
   viewBox="0 0 744.09448819 1052.3622047"
   id="svg6679"
   version="1.1"
   inkscape:version="0.91 r13725"
   sodipodi:docname="8_5.svg">
  <defs
     id="defs6681" />
  <sodipodi:namedview
     id="base"
     pagecolor="#ffffff"
     bordercolor="#666666"
     borderopacity="1.0"
     inkscape:pageopacity="0.0"
     inkscape:pageshadow="2"
     inkscape:zoom="0.73104309"
     inkscape:cx="229.00159"
     inkscape:cy="674.96322"
     inkscape:document-units="px"
     inkscape:current-layer="layer1"
     showgrid="false"
     inkscape:window-width="2560"
     inkscape:window-height="1315"
     inkscape:window-x="0"
     inkscape:window-y="1"
     inkscape:window-maximized="1" />
  <metadata
     id="metadata6684">
    <rdf:RDF>
      <cc:Work
         rdf:about="">
        <dc:format>image/svg+xml</dc:format>
        <dc:type
           rdf:resource="http://purl.org/dc/dcmitype/StillImage" />
        <dc:title />
      </cc:Work>
    </rdf:RDF>
  </metadata>
  <g
     inkscape:label="Layer 1"
     inkscape:groupmode="layer"
     id="layer1">
    <path
       style="fill:none;stroke:#000000;stroke-width:9.27754116px;stroke-linecap:butt;stroke-linejoin:miter;stroke-opacity:1"
       d="M  0 , -97.4573040178551 C  19.458652404295 , -97.4573040178551 107.333061984071 , -95.6740464908935 174.284432425092 , -21.6742549706719 241.235802866112 , 52.3255365495497 231.752756457846 , 140.490326144767 212.71866005802 , 212.303109908929 193.684563658194 , 284.115893673092 153.886677948182 , 338.425775920129 83.8445806854301 , 338.593342334116 13.8024834226782 , 338.760908748102 -2.66193595456852 , 299.036647330984 -76.7824105679026 , 283.665082160513 -150.902885181237 , 268.293516990043 -202.617038051577 , 309.674453607457 -241.37490117412 , 351.935420154758 -280.132764296663 , 394.196386702059 -330.013489299722 , 462.210137356115 -305.131990434489 , 546.910027060679 -280.250491569256 , 631.609916765244 -196.967565822408 , 681.796769732177 -109.244907540313 , 673.222464544322 -21.5222492582177 , 664.648159356467 1.65802606833904 , 621.821343361068 144.38702624147 , 525.240976319191 287.116026414601 , 428.660609277313 328.146908070673 , 391.932289527189 346.598619012936 , 330.411963179558 365.0503299552 , 268.891636831927 347.201297430949 , 213.712648211315 316.485072503401 , 176.578069199864 285.768847575853 , 139.443490188412 230.230291189253 , 96.2371653670844 0 , 96.2371653670844 -230.230291189253 , 96.2371653670844 -285.768847575853 , 139.443490188412 -316.485072503401 , 176.578069199864 -347.201297430949 , 213.712648211315 -365.0503299552 , 268.891636831927 -346.598619012936 , 330.411963179558 -328.146908070673 , 391.932289527189 -287.116026414601 , 428.660609277313 -144.38702624147 , 525.240976319191 -1.65802606833904 , 621.821343361068 21.5222492582177 , 664.648159356467 109.244907540313 , 673.222464544322 196.967565822408 , 681.796769732177 280.250491569256 , 631.609916765244 305.131990434489 , 546.910027060679 330.013489299722 , 462.210137356115 280.132764296663 , 394.196386702059 241.37490117412 , 351.935420154758 202.617038051577 , 309.674453607457 150.902885181237 , 268.293516990043 76.7824105679026 , 283.665082160513 2.66193595456852 , 299.036647330984 -13.8024834226782 , 338.760908748102 -83.8445806854301 , 338.593342334116 -153.886677948182 , 338.425775920129 -193.684563658194 , 284.115893673092 -212.71866005802 , 212.303109908929 -231.752756457846 , 140.490326144767 -241.235802866112 , 52.3255365495496 -174.284432425092 , -21.6742549706719 -107.333061984071 , -95.6740464908935 -19.458652404295 , -97.4573040178551 0 , -97.4573040178551 Z "
       id="path7247"
       inkscape:connector-curvature="0"
       sodipodi:nodetypes="zzzzzzzzzzzzzzzzzzzzzzz" />
  </g>
</svg>
