<?xml version="1.0" encoding="UTF-8" standalone="no"?>
<!-- Created with Inkscape (http://www.inkscape.org/) -->

<svg
   xmlns:dc="http://purl.org/dc/elements/1.1/"
   xmlns:cc="http://creativecommons.org/ns#"
   xmlns:rdf="http://www.w3.org/1999/02/22-rdf-syntax-ns#"
   xmlns:svg="http://www.w3.org/2000/svg"
   xmlns="http://www.w3.org/2000/svg"
   xmlns:sodipodi="http://sodipodi.sourceforge.net/DTD/sodipodi-0.dtd"
   xmlns:inkscape="http://www.inkscape.org/namespaces/inkscape"
   width="210mm"
   height="297mm"
   viewBox="0 0 744.09448819 1052.3622047"
   id="svg6679"
   version="1.1"
   inkscape:version="0.91 r13725"
   sodipodi:docname="8_5.svg">
  <defs
     id="defs6681" />
  <sodipodi:namedview
     id="base"
     pagecolor="#ffffff"
     bordercolor="#666666"
     borderopacity="1.0"
     inkscape:pageopacity="0.0"
     inkscape:pageshadow="2"
     inkscape:zoom="0.73104309"
     inkscape:cx="229.00159"
     inkscape:cy="674.96322"
     inkscape:document-units="px"
     inkscape:current-layer="layer1"
     showgrid="false"
     inkscape:window-width="2560"
     inkscape:window-height="1315"
     inkscape:window-x="0"
     inkscape:window-y="1"
     inkscape:window-maximized="1" />
  <metadata
     id="metadata6684">
    <rdf:RDF>
      <cc:Work
         rdf:about="">
        <dc:format>image/svg+xml</dc:format>
        <dc:type
           rdf:resource="http://purl.org/dc/dcmitype/StillImage" />
        <dc:title />
      </cc:Work>
    </rdf:RDF>
  </metadata>
  <g
     inkscape:label="Layer 1"
     inkscape:groupmode="layer"
     id="layer1">
    <path
       style="fill:none;stroke:#000000;stroke-width:9.27754116px;stroke-linecap:butt;stroke-linejoin:miter;stroke-opacity:1"
       d="M  0 , -83.4194212058413 C  20.5371361914356 , -83.4194212058413 112.923566254907 , -81.178470640867 178.335801067225 , -5.69995830516886 243.748035879544 , 69.7785540305293 225.795905020747 , 139.88906248911 210.929136023004 , 214.476767358673 196.062367025261 , 289.064472228237 153.123907790067 , 363.723304437742 74.729537909928 , 358.425933116126 -3.66483197021114 , 353.128561794511 8.55350194445525 , 303.607648617008 -67.8759945436542 , 280.411167596736 -144.305491031764 , 257.214686576463 -203.677424499009 , 307.95723412449 -240.35935579804 , 347.510760808512 -277.04128709707 , 387.064287492533 -330.047303678612 , 447.630245898672 -307.532569701377 , 532.583606344819 -285.017835724142 , 617.536966790967 -192.009249736536 , 679.376415141459 -92.4951616277241 , 652.706641613201 7.01892648108796 , 626.036868084944 -11.9522959385371 , 581.74413723276 126.747080975664 , 496.137942217782 265.446457889866 , 410.531747202804 315.855734588336 , 403.794976531326 349.65506588683 , 340.341698612731 383.454397185324 , 276.888420694136 367.454192255464 , 202.275991158372 312.488782477426 , 160.332121007618 257.523372699389 , 118.388250856863 214.045992640684 , 130.942580731446 0 , 130.942580731446 -214.045992640684 , 130.942580731446 -257.523372699389 , 118.388250856863 -312.488782477426 , 160.332121007618 -367.454192255464 , 202.275991158372 -383.454397185324 , 276.888420694136 -349.65506588683 , 340.341698612731 -315.855734588336 , 403.794976531326 -265.446457889866 , 410.531747202805 -126.747080975664 , 496.137942217782 11.9522959385371 , 581.74413723276 -7.01892648108796 , 626.036868084944 92.4951616277241 , 652.706641613201 192.009249736536 , 679.376415141459 285.017835724142 , 617.536966790967 307.532569701377 , 532.583606344819 330.047303678612 , 447.630245898672 277.04128709707 , 387.064287492533 240.35935579804 , 347.510760808512 203.677424499009 , 307.95723412449 144.305491031764 , 257.214686576463 67.8759945436542 , 280.411167596736 -8.55350194445523 , 303.607648617008 3.66483197021113 , 353.128561794511 -74.729537909928 , 358.425933116126 -153.123907790067 , 363.723304437742 -196.062367025261 , 289.064472228237 -210.929136023004 , 214.476767358673 -225.795905020747 , 139.88906248911 -243.748035879544 , 69.7785540305293 -178.335801067225 , -5.69995830516886 -112.923566254907 , -81.178470640867 -20.5371361914356 , -83.4194212058413 0 , -83.4194212058413 Z "
       id="path7247"
       inkscape:connector-curvature="0"
       sodipodi:nodetypes="zzzzzzzzzzzzzzzzzzzzzzz" />
  </g>
</svg>
