<?xml version="1.0" encoding="UTF-8" standalone="no"?>
<!-- Created with Inkscape (http://www.inkscape.org/) -->

<svg
   xmlns:dc="http://purl.org/dc/elements/1.1/"
   xmlns:cc="http://creativecommons.org/ns#"
   xmlns:rdf="http://www.w3.org/1999/02/22-rdf-syntax-ns#"
   xmlns:svg="http://www.w3.org/2000/svg"
   xmlns="http://www.w3.org/2000/svg"
   xmlns:sodipodi="http://sodipodi.sourceforge.net/DTD/sodipodi-0.dtd"
   xmlns:inkscape="http://www.inkscape.org/namespaces/inkscape"
   width="210mm"
   height="297mm"
   viewBox="0 0 744.09448819 1052.3622047"
   id="svg7268"
   version="1.1"
   inkscape:version="0.91 r13725"
   sodipodi:docname="8_6.svg">
  <defs
     id="defs7270" />
  <sodipodi:namedview
     id="base"
     pagecolor="#ffffff"
     bordercolor="#666666"
     borderopacity="1.0"
     inkscape:pageopacity="0.0"
     inkscape:pageshadow="2"
     inkscape:zoom="0.8773763"
     inkscape:cx="274.09344"
     inkscape:cy="255.34879"
     inkscape:document-units="px"
     inkscape:current-layer="layer1"
     showgrid="false"
     inkscape:window-width="1215"
     inkscape:window-height="748"
     inkscape:window-x="38"
     inkscape:window-y="24"
     inkscape:window-maximized="0" />
  <metadata
     id="metadata7273">
    <rdf:RDF>
      <cc:Work
         rdf:about="">
        <dc:format>image/svg+xml</dc:format>
        <dc:type
           rdf:resource="http://purl.org/dc/dcmitype/StillImage" />
        <dc:title />
      </cc:Work>
    </rdf:RDF>
  </metadata>
  <g
     inkscape:label="Layer 1"
     inkscape:groupmode="layer"
     id="layer1">
    <path
       style="fill:none;fill-rule:evenodd;stroke:#000000;stroke-width:10.83273029px;stroke-linecap:butt;stroke-linejoin:miter;stroke-opacity:1"
       d="M  101.732818519423 , -73.8505164199517 C  147.479741388929 , 7.41793940656785 100.303800393557 , 89.3148943123464 55.0426709452315 , 141.693769901983 9.78154149690609 , 194.072645491621 -53.2634355513696 , 224.764231823065 -42.664930967108 , 315.322720464523 -32.0664263828464 , 405.88120910598 28.6144838512514 , 398.690960929949 40.3681091945915 , 481.37359351365 52.1217345379316 , 564.056226097351 -12.9604676350196 , 608.765012952481 -67.3093503740171 , 647.849931125215 -121.658233113015 , 686.93484929795 -175.858765681039 , 710.736006586241 -205.544724455152 , 770.994247912699 -235.230683229265 , 831.252489239156 -208.506334631512 , 878.385942767874 -193.891780960094 , 896.492928263053 -179.277227288677 , 914.599913758232 -144.482326114757 , 944.40493408956 -87.6961225994276 , 936.561556173278 -30.9099190840985 , 928.718178256995 7.76375640098576 , 890.467687620978 74.6548122371855 , 798.176401386198 141.545868073385 , 705.885115151418 191.637647867392 , 660.680603535276 227.913298285161 , 546.02353808757 264.188948702929 , 431.366472639863 265.879322795366 , 305.219642790782 219.394180084609 , 200.52223730387 172.909037373852 , 95.8248318169591 88.5837546752073 , 49.4138730558915 0 , 49.4138730558915 -88.5837546752073 , 49.4138730558915 -172.909037373852 , 95.8248318169591 -219.394180084609 , 200.52223730387 -265.879322795366 , 305.219642790782 -264.188948702929 , 431.366472639863 -227.913298285161 , 546.02353808757 -191.637647867392 , 660.680603535276 -141.545868073385 , 705.885115151418 -74.6548122371855 , 798.176401386198 -7.76375640098576 , 890.467687620978 30.9099190840985 , 928.718178256995 87.6961225994276 , 936.561556173278 144.482326114757 , 944.40493408956 179.277227288677 , 914.599913758232 193.891780960094 , 896.492928263053 208.506334631512 , 878.385942767874 235.230683229265 , 831.252489239156 205.544724455152 , 770.994247912699 175.858765681039 , 710.736006586241 121.658233113015 , 686.93484929795 67.3093503740171 , 647.849931125215 12.9604676350196 , 608.765012952481 -52.1217345379316 , 564.056226097351 -40.3681091945915 , 481.37359351365 -28.6144838512514 , 398.690960929949 32.0664263828464 , 405.88120910598 42.664930967108 , 315.322720464523 53.2634355513696 , 224.764231823065 -9.78154149690609 , 194.072645491621 -55.0426709452315 , 141.693769901983 -100.303800393557 , 89.3148943123464 -147.479741388929 , 7.41793940656787 -101.732818519423 , -73.8505164199517 -55.9858956499167 , -155.118972246471 55.9858956499167 , -155.118972246471 101.732818519423 , -73.8505164199517 Z "
       id="path7836"
       inkscape:connector-curvature="0"
       sodipodi:nodetypes="zzzzzzzzzzzzzzzzzzzzzzzz" />
  </g>
</svg>
