<?xml version="1.0" encoding="UTF-8" standalone="no"?>
<!-- Created with Inkscape (http://www.inkscape.org/) -->

<svg
   xmlns:dc="http://purl.org/dc/elements/1.1/"
   xmlns:cc="http://creativecommons.org/ns#"
   xmlns:rdf="http://www.w3.org/1999/02/22-rdf-syntax-ns#"
   xmlns:svg="http://www.w3.org/2000/svg"
   xmlns="http://www.w3.org/2000/svg"
   xmlns:sodipodi="http://sodipodi.sourceforge.net/DTD/sodipodi-0.dtd"
   xmlns:inkscape="http://www.inkscape.org/namespaces/inkscape"
   width="210mm"
   height="297mm"
   viewBox="0 0 744.09448819 1052.3622047"
   id="svg7268"
   version="1.1"
   inkscape:version="0.91 r13725"
   sodipodi:docname="8_6.svg">
  <defs
     id="defs7270" />
  <sodipodi:namedview
     id="base"
     pagecolor="#ffffff"
     bordercolor="#666666"
     borderopacity="1.0"
     inkscape:pageopacity="0.0"
     inkscape:pageshadow="2"
     inkscape:zoom="0.8773763"
     inkscape:cx="274.09344"
     inkscape:cy="255.34879"
     inkscape:document-units="px"
     inkscape:current-layer="layer1"
     showgrid="false"
     inkscape:window-width="1215"
     inkscape:window-height="748"
     inkscape:window-x="38"
     inkscape:window-y="24"
     inkscape:window-maximized="0" />
  <metadata
     id="metadata7273">
    <rdf:RDF>
      <cc:Work
         rdf:about="">
        <dc:format>image/svg+xml</dc:format>
        <dc:type
           rdf:resource="http://purl.org/dc/dcmitype/StillImage" />
        <dc:title />
      </cc:Work>
    </rdf:RDF>
  </metadata>
  <g
     inkscape:label="Layer 1"
     inkscape:groupmode="layer"
     id="layer1">
    <path
       style="fill:none;fill-rule:evenodd;stroke:#000000;stroke-width:10.83273029px;stroke-linecap:butt;stroke-linejoin:miter;stroke-opacity:1"
       d="M  103.376313093601 , -85.2419873301687 C  148.432659165615 , 1.37392520543301 93.1061574854726 , 89.2249663005018 54.4646642784861 , 144.064623142784 15.8231710714996 , 198.904279985066 -29.3953178095997 , 235.354634464853 -25.1789905904388 , 308.219736927266 -20.9626633712779 , 381.08483938968 23.2925773583723 , 403.254032161434 27.4180309776006 , 479.325296092706 31.543484596829 , 555.396560023979 -20.5331797188627 , 595.590886326598 -73.3849029303449 , 641.406738941414 -126.236626141827 , 687.222591556231 -177.447989681899 , 717.437715052834 -203.870340659197 , 774.639434244554 -230.292691636495 , 831.841153436275 -210.064809422632 , 876.807775344186 -195.452587821138 , 897.592707064392 -180.840366219644 , 918.377638784599 -147.663604215936 , 948.992706957358 -93.3000848863589 , 946.666760347721 -38.9365655567816 , 944.340813738084 10.5127116868676 , 912.165364218547 81.5460226069496 , 813.428938598308 152.579333527032 , 714.69251297807 197.376759946504 , 658.700694209037 230.015365862594 , 545.229867945146 262.653971778684 , 431.759041681255 266.829990329107 , 306.898599274199 219.339929033893 , 199.871468764213 171.84986773868 , 92.8443382542258 85.6424026780488 , 44.2579521510505 0 , 44.2579521510505 -85.6424026780488 , 44.2579521510505 -171.84986773868 , 92.8443382542258 -219.339929033893 , 199.871468764213 -266.829990329107 , 306.898599274199 -262.653971778684 , 431.759041681255 -230.015365862594 , 545.229867945146 -197.376759946504 , 658.700694209037 -152.579333527032 , 714.69251297807 -81.5460226069496 , 813.428938598308 -10.5127116868676 , 912.165364218547 38.9365655567816 , 944.340813738084 93.3000848863589 , 946.666760347721 147.663604215936 , 948.992706957358 180.840366219644 , 918.377638784599 195.452587821138 , 897.592707064392 210.064809422632 , 876.807775344186 230.292691636495 , 831.841153436275 203.870340659197 , 774.639434244554 177.447989681899 , 717.437715052834 126.236626141827 , 687.222591556231 73.3849029303449 , 641.406738941414 20.5331797188627 , 595.590886326598 -31.543484596829 , 555.396560023979 -27.4180309776006 , 479.325296092706 -23.2925773583723 , 403.254032161434 20.9626633712779 , 381.08483938968 25.1789905904388 , 308.219736927266 29.3953178095997 , 235.354634464853 -15.8231710714996 , 198.904279985066 -54.4646642784861 , 144.064623142784 -93.1061574854726 , 89.2249663005018 -148.432659165615 , 1.373925205433 -103.376313093601 , -85.2419873301687 -58.3199670215858 , -171.85789986577 58.3199670215858 , -171.85789986577 103.376313093601 , -85.2419873301687 Z "
       id="path7836"
       inkscape:connector-curvature="0"
       sodipodi:nodetypes="zzzzzzzzzzzzzzzzzzzzzzzz" />
  </g>
</svg>
