<?xml version="1.0" encoding="UTF-8" standalone="no"?>
<!-- Created with Inkscape (http://www.inkscape.org/) -->

<svg
   xmlns:dc="http://purl.org/dc/elements/1.1/"
   xmlns:cc="http://creativecommons.org/ns#"
   xmlns:rdf="http://www.w3.org/1999/02/22-rdf-syntax-ns#"
   xmlns:svg="http://www.w3.org/2000/svg"
   xmlns="http://www.w3.org/2000/svg"
   xmlns:sodipodi="http://sodipodi.sourceforge.net/DTD/sodipodi-0.dtd"
   xmlns:inkscape="http://www.inkscape.org/namespaces/inkscape"
   width="210mm"
   height="297mm"
   viewBox="0 0 744.09448819 1052.3622047"
   id="svg7268"
   version="1.1"
   inkscape:version="0.91 r13725"
   sodipodi:docname="8_6.svg">
  <defs
     id="defs7270" />
  <sodipodi:namedview
     id="base"
     pagecolor="#ffffff"
     bordercolor="#666666"
     borderopacity="1.0"
     inkscape:pageopacity="0.0"
     inkscape:pageshadow="2"
     inkscape:zoom="0.8773763"
     inkscape:cx="274.09344"
     inkscape:cy="255.34879"
     inkscape:document-units="px"
     inkscape:current-layer="layer1"
     showgrid="false"
     inkscape:window-width="1215"
     inkscape:window-height="748"
     inkscape:window-x="38"
     inkscape:window-y="24"
     inkscape:window-maximized="0" />
  <metadata
     id="metadata7273">
    <rdf:RDF>
      <cc:Work
         rdf:about="">
        <dc:format>image/svg+xml</dc:format>
        <dc:type
           rdf:resource="http://purl.org/dc/dcmitype/StillImage" />
        <dc:title />
      </cc:Work>
    </rdf:RDF>
  </metadata>
  <g
     inkscape:label="Layer 1"
     inkscape:groupmode="layer"
     id="layer1">
    <path
       style="fill:none;fill-rule:evenodd;stroke:#000000;stroke-width:10.83273029px;stroke-linecap:butt;stroke-linejoin:miter;stroke-opacity:1"
       d="M  100.994511376756 , -70.925021987226 C  146.530381804451 , 9.33481944428965 100.791171566949 , 91.0895944344992 55.4129234248282 , 142.649216471972 10.0346752827077 , 194.208838509445 -56.6558007999061 , 224.614472066379 -45.3126481775916 , 317.247017800993 -33.9694955552772 , 409.879563535608 29.4114403288976 , 398.429214207546 42.1697556909737 , 481.53925531705 54.9280710530498 , 564.649296426555 -11.4557436954827 , 610.240686117777 -67.185767654534 , 649.90803894846 -122.915791613585 , 689.575391779144 -177.65715511653 , 713.109967099443 -207.004473755054 , 772.551867844241 -236.351792393577 , 831.993768589039 -208.582733946272 , 878.015050796463 -202.071970414225 , 888.042419219504 -195.561206882178 , 898.069787642546 -164.264925664523 , 943.030744281284 -97.4196649168616 , 938.381209763876 -30.5744041692005 , 933.731675246468 8.36371199337927 , 887.361185818793 74.6128922380969 , 797.452459712185 140.862072482814 , 707.543733605578 190.274573502354 , 665.16923596192 226.427453030096 , 549.497848814513 262.580332557838 , 433.826461667107 265.4452539592 , 303.857974567206 216.364795220235 , 197.784319134479 167.284336481269 , 91.7106637017524 82.0872784801968 , 52.6932152851536 0 , 52.6932152851536 -82.0872784801968 , 52.6932152851536 -167.284336481269 , 91.7106637017524 -216.364795220235 , 197.784319134479 -265.4452539592 , 303.857974567206 -262.580332557838 , 433.826461667107 -226.427453030096 , 549.497848814513 -190.274573502354 , 665.16923596192 -140.862072482814 , 707.543733605578 -74.6128922380969 , 797.452459712185 -8.36371199337927 , 887.361185818793 30.5744041692005 , 933.731675246468 97.4196649168616 , 938.381209763876 164.264925664523 , 943.030744281284 195.561206882178 , 898.069787642546 202.071970414225 , 888.042419219504 208.582733946272 , 878.015050796463 236.351792393577 , 831.993768589039 207.004473755054 , 772.551867844241 177.65715511653 , 713.109967099443 122.915791613585 , 689.575391779144 67.185767654534 , 649.90803894846 11.4557436954827 , 610.240686117777 -54.9280710530498 , 564.649296426555 -42.1697556909737 , 481.53925531705 -29.4114403288976 , 398.429214207546 33.9694955552772 , 409.879563535608 45.3126481775916 , 317.247017800993 56.6558007999061 , 224.614472066379 -10.0346752827077 , 194.208838509445 -55.4129234248282 , 142.649216471972 -100.791171566949 , 91.0895944344992 -146.530381804451 , 9.33481944428964 -100.994511376756 , -70.925021987226 -55.4586409490617 , -151.184863418742 55.4586409490617 , -151.184863418742 100.994511376756 , -70.925021987226 Z "
       id="path7836"
       inkscape:connector-curvature="0"
       sodipodi:nodetypes="zzzzzzzzzzzzzzzzzzzzzzzz" />
  </g>
</svg>
