<?xml version="1.0" encoding="UTF-8" standalone="no"?>
<!-- Created with Inkscape (http://www.inkscape.org/) -->

<svg
   xmlns:dc="http://purl.org/dc/elements/1.1/"
   xmlns:cc="http://creativecommons.org/ns#"
   xmlns:rdf="http://www.w3.org/1999/02/22-rdf-syntax-ns#"
   xmlns:svg="http://www.w3.org/2000/svg"
   xmlns="http://www.w3.org/2000/svg"
   xmlns:sodipodi="http://sodipodi.sourceforge.net/DTD/sodipodi-0.dtd"
   xmlns:inkscape="http://www.inkscape.org/namespaces/inkscape"
   width="210mm"
   height="297mm"
   viewBox="0 0 744.09448819 1052.3622047"
   id="svg7857"
   version="1.1"
   inkscape:version="0.91 r13725"
   sodipodi:docname="8_7.svg">
  <defs
     id="defs7859" />
  <sodipodi:namedview
     id="base"
     pagecolor="#ffffff"
     bordercolor="#666666"
     borderopacity="1.0"
     inkscape:pageopacity="0.0"
     inkscape:pageshadow="2"
     inkscape:zoom="0.86994658"
     inkscape:cx="317.82055"
     inkscape:cy="417.64634"
     inkscape:document-units="px"
     inkscape:current-layer="layer1"
     showgrid="false"
     inkscape:window-width="2560"
     inkscape:window-height="1315"
     inkscape:window-x="832"
     inkscape:window-y="92"
     inkscape:window-maximized="0" />
  <metadata
     id="metadata7862">
    <rdf:RDF>
      <cc:Work
         rdf:about="">
        <dc:format>image/svg+xml</dc:format>
        <dc:type
           rdf:resource="http://purl.org/dc/dcmitype/StillImage" />
        <dc:title />
      </cc:Work>
    </rdf:RDF>
  </metadata>
  <g
     inkscape:label="Layer 1"
     inkscape:groupmode="layer"
     id="layer1">
    <path
       style="fill:none;fill-rule:evenodd;stroke:#000000;stroke-width:10.51641083px;stroke-linecap:butt;stroke-linejoin:miter;stroke-opacity:1"
       d="M  38.8934043135961 , -32.4915780997522 C  -23.0641478865364 , -48.9779517186648 -130.308187920638 , -40.0468968175271 -175.501539726177 , 61.2013457913882 -220.694891531717 , 162.449588400304 -148.108624092714 , 229.087720770154 -139.905977882844 , 236.526155568969 -131.703331672975 , 243.964590367785 -103.834541218867 , 268.231919747851 -51.9032016583839 , 276.862061458829 0.0281379020994876 , 285.492203169807 34.8563254194503 , 271.118990666938 102.009998577423 , 282.94252763751 169.163671735395 , 294.766064608081 256.651260177965 , 339.839494056858 269.506345881172 , 450.463793566781 282.361431584379 , 561.088093076704 225.625471385444 , 595.552261830353 180.635776352546 , 717.872716289541 135.646081319648 , 840.193170748729 140.446651026538 , 876.269414210289 99.3199226947607 , 920.169939776015 58.1931943629836 , 964.07046534174 10.6569937481679 , 964.869427607207 0 , 964.869427607207 -10.6569937481679 , 964.869427607207 -59.1382284888071 , 964.110448414452 -100.502407332896 , 919.971195129066 -141.866586176985 , 875.831941843679 -138.551865841573 , 835.414735196705 -177.108699442957 , 719.143769784195 -215.665533044341 , 602.872804371685 -257.949278740185 , 559.255316007506 -283.44174806262 , 476.692748419842 -308.934217385054 , 394.130180832179 -309.697134549749 , 311.967565358674 -266.128354118969 , 244.329380734454 -222.559573688188 , 176.691196110234 -138.330290944938 , 145.464600098448 -64.2115643556108 , 186.34983225517 9.9071622337168 , 227.235064411892 13.9664322199357 , 285.426924748328 49.1346156106897 , 353.426708534008 84.3027990014436 , 421.426492319687 111.713015085246 , 455.273304683934 172.240009416779 , 522.532111788389 232.767003748313 , 589.790918892844 268.351393691388 , 611.281616269445 282.422496354049 , 670.37732016216 296.49359901671 , 729.473024054876 274.341768466258 , 788.518901090579 224.069317891049 , 822.464536691415 173.79686731584 , 856.41017229225 134.777188044905 , 849.307522301504 0.326696770691714 , 849.177662572469 -134.123794503521 , 849.047802843434 -178.481478740824 , 857.875726766659 -231.620487291504 , 821.167992189783 -284.759495842184 , 784.460257612908 -301.966225827292 , 723.589601276593 -286.289255223689 , 670.110046522375 -270.612284620087 , 616.630491768157 -228.654560757883 , 572.397893611922 -79.5216105465568 , 511.650811180791 69.611339664769 , 450.90372874966 117.566637578524 , 405.076341766541 144.63690756633 , 375.577819081004 171.707177554136 , 346.079296395467 233.632460682184 , 268.930786126163 209.797089651411 , 154.641717791039 185.961718620638 , 40.3526494559149 100.850956513729 , -16.0052044808396 38.8934043135961 , -32.4915780997522 Z "
       id="path8425"
       inkscape:connector-curvature="0"
       sodipodi:nodetypes="zzzzzzzzzzzzzzzzzzzzzzzzz" />
  </g>
</svg>
