<?xml version="1.0" encoding="UTF-8" standalone="no"?>
<!-- Created with Inkscape (http://www.inkscape.org/) -->

<svg
   xmlns:dc="http://purl.org/dc/elements/1.1/"
   xmlns:cc="http://creativecommons.org/ns#"
   xmlns:rdf="http://www.w3.org/1999/02/22-rdf-syntax-ns#"
   xmlns:svg="http://www.w3.org/2000/svg"
   xmlns="http://www.w3.org/2000/svg"
   xmlns:sodipodi="http://sodipodi.sourceforge.net/DTD/sodipodi-0.dtd"
   xmlns:inkscape="http://www.inkscape.org/namespaces/inkscape"
   width="210mm"
   height="297mm"
   viewBox="0 0 744.09448819 1052.3622047"
   id="svg7857"
   version="1.1"
   inkscape:version="0.91 r13725"
   sodipodi:docname="8_7.svg">
  <defs
     id="defs7859" />
  <sodipodi:namedview
     id="base"
     pagecolor="#ffffff"
     bordercolor="#666666"
     borderopacity="1.0"
     inkscape:pageopacity="0.0"
     inkscape:pageshadow="2"
     inkscape:zoom="0.86994658"
     inkscape:cx="317.82055"
     inkscape:cy="417.64634"
     inkscape:document-units="px"
     inkscape:current-layer="layer1"
     showgrid="false"
     inkscape:window-width="2560"
     inkscape:window-height="1315"
     inkscape:window-x="832"
     inkscape:window-y="92"
     inkscape:window-maximized="0" />
  <metadata
     id="metadata7862">
    <rdf:RDF>
      <cc:Work
         rdf:about="">
        <dc:format>image/svg+xml</dc:format>
        <dc:type
           rdf:resource="http://purl.org/dc/dcmitype/StillImage" />
        <dc:title />
      </cc:Work>
    </rdf:RDF>
  </metadata>
  <g
     inkscape:label="Layer 1"
     inkscape:groupmode="layer"
     id="layer1">
    <path
       style="fill:none;fill-rule:evenodd;stroke:#000000;stroke-width:10.51641083px;stroke-linecap:butt;stroke-linejoin:miter;stroke-opacity:1"
       d="M  36.0437732609621 , -16.4650497969358 C  -27.8041383729099 , -29.5944404247663 -122.854148327678 , -11.9162448089411 -163.264452293855 , 76.2797221355631 -203.674756260031 , 164.475689080067 -144.452071932155 , 234.147734036065 -136.609957728795 , 243.174558452296 -128.767843525434 , 252.201382868526 -99.3502806204686 , 284.781457564024 -44.631515950476 , 292.603208679762 10.0872487195166 , 300.424959795501 30.7362251442197 , 278.273914576219 101.314543350589 , 283.973228047504 171.892861556958 , 289.672541518789 270.332620719056 , 331.309754192575 276.300311693926 , 450.606128530304 282.268002668796 , 569.902502868033 212.787531314958 , 583.133684135486 168.345267772491 , 705.269238993292 123.903004230025 , 827.404793851097 147.123382559979 , 859.037935876429 106.792209042959 , 915.862036391957 66.4610355259391 , 972.686136907484 10.5374807401145 , 973.409435890654 0 , 973.409435890654 -10.5374807401145 , 973.409435890654 -68.7745525376538 , 972.648558387206 -109.053831254316 , 913.604765278045 -149.333109970978 , 854.560972168883 -125.504605395966 , 817.787374903463 -161.800848001566 , 702.185387654021 -198.097090607167 , 586.583400404578 -242.433164268932 , 553.92039410926 -271.122849962546 , 473.085316491891 -299.812535656159 , 392.250238874522 -304.040490521735 , 306.630450253406 -253.337683381094 , 237.152572285022 -202.634876240453 , 167.674694316638 -103.01788963391 , 152.197814438499 -37.6481442964304 , 201.961925802573 27.7216010410493 , 251.726037166646 11.7569339477763 , 291.871272523871 39.6700226177012 , 359.940632309784 67.5831112876261 , 428.009992095696 99.6622872392373 , 468.226356172328 162.299280148898 , 528.391725465212 224.936273058558 , 588.557094758096 265.207810554846 , 593.308380563789 291.270611244058 , 656.960954235027 317.33341193327 , 720.613527906265 293.415839130533 , 795.230861461854 226.633275516149 , 827.848459738447 159.850711901766 , 860.466058015041 123.956803939925 , 829.89205364991 -1.22255082957344 , 826.812482098865 -126.401905599072 , 823.73291054782 -160.69333987277 , 852.433363054578 -225.822434691828 , 818.349417955584 -290.951529510887 , 784.26547285659 -312.821503266656 , 710.799148902649 -287.428549077918 , 648.849355436894 -262.035594889179 , 586.89956197114 -210.117727708293 , 561.934036449474 -82.6571742502189 , 509.514117917029 44.8033792078549 , 457.094199384584 95.6505992043135 , 423.245161853178 138.384271766589 , 378.50240072299 181.117944328864 , 333.759639592801 234.016665492292 , 254.777326034361 207.418679298315 , 150.915706954627 180.820693104337 , 47.054087874894 99.8916848948342 , -3.33565916910534 36.0437732609621 , -16.4650497969358 Z "
       id="path8425"
       inkscape:connector-curvature="0"
       sodipodi:nodetypes="zzzzzzzzzzzzzzzzzzzzzzzzz" />
  </g>
</svg>
