<?xml version="1.0" encoding="UTF-8" standalone="no"?>
<!-- Created with Inkscape (http://www.inkscape.org/) -->

<svg
   xmlns:dc="http://purl.org/dc/elements/1.1/"
   xmlns:cc="http://creativecommons.org/ns#"
   xmlns:rdf="http://www.w3.org/1999/02/22-rdf-syntax-ns#"
   xmlns:svg="http://www.w3.org/2000/svg"
   xmlns="http://www.w3.org/2000/svg"
   xmlns:sodipodi="http://sodipodi.sourceforge.net/DTD/sodipodi-0.dtd"
   xmlns:inkscape="http://www.inkscape.org/namespaces/inkscape"
   width="210mm"
   height="297mm"
   viewBox="0 0 744.09448819 1052.3622047"
   id="svg8455"
   version="1.1"
   inkscape:version="0.91 r13725"
   sodipodi:docname="8_8.svg">
  <defs
     id="defs8457" />
  <sodipodi:namedview
     id="base"
     pagecolor="#ffffff"
     bordercolor="#666666"
     borderopacity="1.0"
     inkscape:pageopacity="0.0"
     inkscape:pageshadow="2"
     inkscape:zoom="1.1230219"
     inkscape:cx="261.66572"
     inkscape:cy="420.27794"
     inkscape:document-units="px"
     inkscape:current-layer="layer1"
     showgrid="false"
     inkscape:window-width="2560"
     inkscape:window-height="1315"
     inkscape:window-x="90"
     inkscape:window-y="5"
     inkscape:window-maximized="0" />
  <metadata
     id="metadata8460">
    <rdf:RDF>
      <cc:Work
         rdf:about="">
        <dc:format>image/svg+xml</dc:format>
        <dc:type
           rdf:resource="http://purl.org/dc/dcmitype/StillImage" />
        <dc:title />
      </cc:Work>
    </rdf:RDF>
  </metadata>
  <g
     inkscape:label="Layer 1"
     inkscape:groupmode="layer"
     id="layer1">
    <path
       style="fill:none;fill-rule:evenodd;stroke:#000000;stroke-width:9.40422821px;stroke-linecap:butt;stroke-linejoin:miter;stroke-opacity:1"
       d="M  -112.433791008573 , 295.683696520736 C  -85.6449389289184 , 244.238570504238 -23.499749445579 , 213.453675652443 43.094232438502 , 241.459740201038 109.688214322583 , 269.465804749632 126.335673922584 , 332.679852747503 187.202204911349 , 447.099908366448 248.068735900113 , 561.519963985394 289.592446240017 , 581.038301242504 332.847731878846 , 669.764554098873 376.103017517676 , 758.490806955243 383.729009086552 , 881.831358285243 290.714350629501 , 941.282603070484 197.699692172449 , 1000.73384785573 68.729921456623 , 924.90665707712 95.4913027422323 , 784.693349236609 122.252684027842 , 644.480041396099 297.198125869146 , 568.836512113382 310.444117296579 , 463.072769040369 323.690108724012 , 357.309025967355 245.633545819165 , 314.334013890059 198.21830741623 , 304.588187563359 150.803069013295 , 294.842361236659 113.466635974808 , 306.568312657408 -3.71062717611075 , 344.245075139985 -120.88789032703 , 381.921837622562 -182.140323679278 , 385.938011789503 -241.056976801693 , 456.11010982645 -299.973629924109 , 526.282207863396 -301.721453808883 , 612.558466747865 -263.659874367393 , 729.90621119297 -225.598294925902 , 847.253955638074 -151.935418842638 , 898.409128966579 -126.897883479521 , 913.997882842655 -101.860348116404 , 929.586636718732 -56.8041237191752 , 951.950196492267 0 , 951.950196492267 56.8041237191752 , 951.950196492267 167.063459455117 , 923.395995333688 193.70455351198 , 803.710995718565 220.345647568842 , 684.025996103442 115.550033741643 , 618.520503914266 35.89205347459 , 595.014177092257 -43.7659267924629 , 571.507850270249 -125.025381370991 , 575.190688782994 -196.2453640106 , 579.659954434606 -267.465346650209 , 584.129220086218 -360.438853008402 , 586.55339678184 -415.160069577061 , 661.657044645062 -469.881286145721 , 736.760692508284 -443.681582573168 , 840.21512274777 -355.353562411542 , 871.79914028433 -267.025542249916 , 903.38315782089 -170.994944871163 , 842.782278144328 -131.829017886158 , 743.491484478741 -92.6630909011535 , 644.200690813155 -105.437569848687 , 543.319740248464 -115.877484128203 , 470.755867354949 -126.317398407718 , 398.191994461434 -139.222643088227 , 347.128822537235 -112.433791008573 , 295.683696520736 Z "
       id="path9014"
       inkscape:connector-curvature="0"
       sodipodi:nodetypes="zzzzzzzzzzzzzzzzzzzzz" />
  </g>
</svg>
