<?xml version="1.0" encoding="UTF-8" standalone="no"?>
<!-- Created with Inkscape (http://www.inkscape.org/) -->

<svg
   xmlns:dc="http://purl.org/dc/elements/1.1/"
   xmlns:cc="http://creativecommons.org/ns#"
   xmlns:rdf="http://www.w3.org/1999/02/22-rdf-syntax-ns#"
   xmlns:svg="http://www.w3.org/2000/svg"
   xmlns="http://www.w3.org/2000/svg"
   xmlns:sodipodi="http://sodipodi.sourceforge.net/DTD/sodipodi-0.dtd"
   xmlns:inkscape="http://www.inkscape.org/namespaces/inkscape"
   width="210mm"
   height="297mm"
   viewBox="0 0 744.09448819 1052.3622047"
   id="svg8455"
   version="1.1"
   inkscape:version="0.91 r13725"
   sodipodi:docname="8_8.svg">
  <defs
     id="defs8457" />
  <sodipodi:namedview
     id="base"
     pagecolor="#ffffff"
     bordercolor="#666666"
     borderopacity="1.0"
     inkscape:pageopacity="0.0"
     inkscape:pageshadow="2"
     inkscape:zoom="1.1230219"
     inkscape:cx="261.66572"
     inkscape:cy="420.27794"
     inkscape:document-units="px"
     inkscape:current-layer="layer1"
     showgrid="false"
     inkscape:window-width="2560"
     inkscape:window-height="1315"
     inkscape:window-x="90"
     inkscape:window-y="5"
     inkscape:window-maximized="0" />
  <metadata
     id="metadata8460">
    <rdf:RDF>
      <cc:Work
         rdf:about="">
        <dc:format>image/svg+xml</dc:format>
        <dc:type
           rdf:resource="http://purl.org/dc/dcmitype/StillImage" />
        <dc:title />
      </cc:Work>
    </rdf:RDF>
  </metadata>
  <g
     inkscape:label="Layer 1"
     inkscape:groupmode="layer"
     id="layer1">
    <path
       style="fill:none;fill-rule:evenodd;stroke:#000000;stroke-width:9.40422821px;stroke-linecap:butt;stroke-linejoin:miter;stroke-opacity:1"
       d="M  -118.952009572978 , 292.38516259447 C  -90.1006810960262 , 230.516155744785 -14.1720185226117 , 199.374844278629 53.2280689218582 , 239.178400411026 120.628156366328 , 278.981956543424 113.257598889166 , 335.260775677717 175.577709667522 , 449.502256239359 237.897820445877 , 563.743736801002 283.321855557767 , 571.587037677474 332.3777163003 , 662.622281376474 381.433577042832 , 753.657525075473 385.602179552098 , 875.979508188375 295.252431060355 , 934.477246072714 204.902682568613 , 992.974983957052 76.3397879212098 , 923.570106311756 93.3370914295664 , 778.454346347718 110.334394937923 , 633.33858638368 295.22547264887 , 578.192644478922 317.456023769753 , 468.935347892015 339.686574890636 , 359.678051305107 257.806872622041 , 306.348038214081 195.647783115191 , 301.107282196054 133.488693608341 , 295.866526178027 110.420698515595 , 323.446551952871 -4.71193880537566 , 360.973453601906 -119.844576126346 , 398.50035525094 -172.400153854655 , 382.142993615244 -238.9491424212 , 452.039845081728 -305.498130987744 , 521.936696548211 -297.924669892928 , 601.922742202548 -260.077670775366 , 722.035394198966 -222.230671657803 , 842.148046195384 -150.386895665463 , 894.954372274855 -125.822185742682 , 911.062440793897 -101.2574758199 , 927.170509312939 -57.9224392683513 , 950.048214555464 0 , 950.048214555464 57.9224392683513 , 950.048214555464 165.2357779191 , 917.098085566687 191.966076758754 , 797.612468809357 218.696375598407 , 678.126852052028 112.072949957545 , 622.74767054622 35.5381842352522 , 603.531263154841 -40.9965814870407 , 584.314855763462 -114.354535378436 , 588.679042426457 -195.04217987973 , 591.178587498143 -275.729824381025 , 593.678132569829 -354.893145955887 , 585.69625464856 -411.534187786116 , 654.142443877346 -468.175229616345 , 722.588633106132 -447.292940365207 , 829.868120876423 -355.204038805163 , 863.617172267736 -263.115137245118 , 897.366223659048 -167.549382600421 , 833.544718611588 -128.030188176643 , 742.215483588794 -88.5109937528655 , 650.886248566001 -93.7344002829717 , 560.061691929873 -108.551723746201 , 479.331111713022 -123.36904720943 , 398.600531496171 -147.80333804993 , 354.254169444155 -118.952009572978 , 292.38516259447 Z "
       id="path9014"
       inkscape:connector-curvature="0"
       sodipodi:nodetypes="zzzzzzzzzzzzzzzzzzzzz" />
  </g>
</svg>
