<?xml version="1.0" encoding="UTF-8" standalone="no"?>
<!-- Created with Inkscape (http://www.inkscape.org/) -->

<svg
   xmlns:dc="http://purl.org/dc/elements/1.1/"
   xmlns:cc="http://creativecommons.org/ns#"
   xmlns:rdf="http://www.w3.org/1999/02/22-rdf-syntax-ns#"
   xmlns:svg="http://www.w3.org/2000/svg"
   xmlns="http://www.w3.org/2000/svg"
   xmlns:sodipodi="http://sodipodi.sourceforge.net/DTD/sodipodi-0.dtd"
   xmlns:inkscape="http://www.inkscape.org/namespaces/inkscape"
   width="210mm"
   height="297mm"
   viewBox="0 0 744.09448819 1052.3622047"
   id="svg9035"
   version="1.1"
   inkscape:version="0.91 r13725"
   sodipodi:docname="8_9.svg">
  <defs
     id="defs9037" />
  <sodipodi:namedview
     id="base"
     pagecolor="#ffffff"
     bordercolor="#666666"
     borderopacity="1.0"
     inkscape:pageopacity="0.0"
     inkscape:pageshadow="2"
     inkscape:zoom="2.3560568"
     inkscape:cx="-272.94315"
     inkscape:cy="909.26241"
     inkscape:document-units="px"
     inkscape:current-layer="layer1"
     showgrid="false"
     inkscape:window-width="1855"
     inkscape:window-height="1028"
     inkscape:window-x="478"
     inkscape:window-y="135"
     inkscape:window-maximized="0" />
  <metadata
     id="metadata9040">
    <rdf:RDF>
      <cc:Work
         rdf:about="">
        <dc:format>image/svg+xml</dc:format>
        <dc:type
           rdf:resource="http://purl.org/dc/dcmitype/StillImage" />
        <dc:title />
      </cc:Work>
    </rdf:RDF>
  </metadata>
  <g
     inkscape:label="Layer 1"
     inkscape:groupmode="layer"
     id="layer1">
    <path
       style="fill:none;fill-rule:evenodd;stroke:#000000;stroke-width:10.41655731px;stroke-linecap:butt;stroke-linejoin:miter;stroke-opacity:1"
       d="M  -303.002143784544 , -169.840619721655 C  -209.418597555749 , -213.534911060841 -121.154627145153 , -202.926840885628 -64.7863424589264 , -170.026692929839 -8.41805777270018 , -137.126544974051 17.9373065937246 , -78.4105425725514 82.6045661173076 , 69.836194546263 147.271825640891 , 218.082931665077 229.837936255387 , 238.879235158403 284.253403255875 , 226.105502825182 338.668870256363 , 213.331770491961 378.234188291889 , 163.634198081628 376.678844575175 , 100.483471917406 375.123500858461 , 37.3327457531828 337.113167346279 , 0.0212869471771303 268.351975865823 , -97.6020364095598 199.590784385367 , -195.225359766297 194.949287729914 , -235.768425573776 133.052599318484 , -283.083185865808 71.155910907054 , -330.397946157841 11.1998287473842 , -330.84202361832 0 , -330.84202361832 -11.1998287473842 , -330.84202361832 -67.944173358501 , -330.589595213867 -114.514097879578 , -271.602225397954 -161.084022400656 , -212.614855582041 -147.038768820505 , -72.2063659675437 -184.805120525195 , 20.4647005694536 -222.571472229886 , 113.135767106451 -277.061769873169 , 112.7344286242 -300.612274623584 , 203.868284364995 -324.162779374 , 295.002140105789 -262.531426486539 , 358.476881577842 -201.615557649672 , 379.806946728251 -140.699688812806 , 401.137011878659 -82.9977963014155 , 384.821328943864 -66.5803119527725 , 380.01420517694 -50.1628276041295 , 375.207081410016 1.42039960116932 , 358.82024493153 69.0782187473438 , 305.737716629593 136.736037893518 , 252.655188327655 184.02437650442 , 189.926333443937 258.61908286986 , 110.184475916134 333.2137892353 , 30.4426183883304 376.135483608787 , -0.0515539197067719 383.941945381229 , -63.2412029274152 391.748407153671 , -126.430851935124 355.561761596149 , -183.340611587034 295.367925148269 , -203.614471786975 235.17408870039 , -223.888331986915 182.831948937382 , -200.301246207314 95.1972520703837 , -166.369169107991 7.56255520338516 , -132.437092008669 -4.21217160908162 , -116.676257588592 -84.2544628749135 , -97.8027884193816 -164.296754140745 , -78.9293192501709 -187.525650394648 , -75.6855847575611 -214.756483580284 , -51.2854901164226 -241.98731676592 , -26.8853954752841 -257.116959086315 , 6.8406032994804 -255.006885111376 , 50.0560096761547 -252.896811136437 , 93.271416052829 -232.765615796497 , 121.2667655415 -226.570975398555 , 173.587019196588 -220.376335000613 , 225.907272851675 -238.618382411033 , 257.908050555894 -242.07402965714 , 263.970901829359 -245.529676903247 , 270.033753102825 -311.023449132473 , 384.955606804911 -437.599233404316 , 300.378105284055 -564.17501767616 , 215.800603763198 -495.254115179018 , 38.0300847408635 -470.947477004403 , -8.94370295379323 -446.640838829787 , -55.91749064845 -396.585690013339 , -126.146328382469 -303.002143784544 , -169.840619721655 Z "
       id="path9603"
       inkscape:connector-curvature="0"
       sodipodi:nodetypes="zzzzzzzzzzzzzzzzzzzzzzzzzz" />
  </g>
</svg>
