<?xml version="1.0" encoding="UTF-8" standalone="no"?>
<!-- Created with Inkscape (http://www.inkscape.org/) -->

<svg
   xmlns:dc="http://purl.org/dc/elements/1.1/"
   xmlns:cc="http://creativecommons.org/ns#"
   xmlns:rdf="http://www.w3.org/1999/02/22-rdf-syntax-ns#"
   xmlns:svg="http://www.w3.org/2000/svg"
   xmlns="http://www.w3.org/2000/svg"
   xmlns:sodipodi="http://sodipodi.sourceforge.net/DTD/sodipodi-0.dtd"
   xmlns:inkscape="http://www.inkscape.org/namespaces/inkscape"
   width="210mm"
   height="297mm"
   viewBox="0 0 744.09448819 1052.3622047"
   id="svg9035"
   version="1.1"
   inkscape:version="0.91 r13725"
   sodipodi:docname="8_9.svg">
  <defs
     id="defs9037" />
  <sodipodi:namedview
     id="base"
     pagecolor="#ffffff"
     bordercolor="#666666"
     borderopacity="1.0"
     inkscape:pageopacity="0.0"
     inkscape:pageshadow="2"
     inkscape:zoom="2.3560568"
     inkscape:cx="-272.94315"
     inkscape:cy="909.26241"
     inkscape:document-units="px"
     inkscape:current-layer="layer1"
     showgrid="false"
     inkscape:window-width="1855"
     inkscape:window-height="1028"
     inkscape:window-x="478"
     inkscape:window-y="135"
     inkscape:window-maximized="0" />
  <metadata
     id="metadata9040">
    <rdf:RDF>
      <cc:Work
         rdf:about="">
        <dc:format>image/svg+xml</dc:format>
        <dc:type
           rdf:resource="http://purl.org/dc/dcmitype/StillImage" />
        <dc:title />
      </cc:Work>
    </rdf:RDF>
  </metadata>
  <g
     inkscape:label="Layer 1"
     inkscape:groupmode="layer"
     id="layer1">
    <path
       style="fill:none;fill-rule:evenodd;stroke:#000000;stroke-width:10.41655731px;stroke-linecap:butt;stroke-linejoin:miter;stroke-opacity:1"
       d="M  -302.972837351287 , -162.126190157579 C  -217.355682029361 , -203.325412742328 -117.71997298342 , -200.690689036527 -53.7800180109279 , -160.185186150959 10.1599369615638 , -119.67968326539 9.84329019808574 , -69.5061637969393 79.6626151223713 , 72.7617951203598 149.481940046657 , 215.029754037659 229.457493720893 , 234.7821603839 283.130148747752 , 223.703184417384 336.802803774611 , 212.624208450867 383.702253518302 , 162.454372144961 374.796474851442 , 92.9677925016933 365.890696184583 , 23.4812128584253 323.635297536325 , 12.9061133428595 252.860390863388 , -87.3099766200586 182.08548419045 , -187.526066582977 191.141568176364 , -225.152101120955 132.349586788804 , -280.247058930706 73.5576054012436 , -335.342016740457 10.4282665178771 , -335.564936732401 0 , -335.564936732401 -10.4282665178771 , -335.564936732401 -73.6019165968561 , -335.587350094022 -122.330629241483 , -269.211913566402 -171.05934188611 , -202.836477038782 -131.828474787707 , -70.7072716784496 -174.306862144006 , 28.2342811130431 -216.785249500305 , 127.175833904536 -274.197456554189 , 103.204649508918 -297.854888332003 , 194.757927742583 -321.512320109817 , 286.311205976248 -259.809532405581 , 356.296477612082 -199.924880935592 , 377.476376040534 -140.040229465602 , 398.656274468986 -84.3334179323861 , 383.113951011349 -69.4871462935401 , 378.795919254884 -54.6408746546941 , 374.47788749842 -1.89418449106093 , 358.600063869555 66.3651519033041 , 301.13191971278 134.624488297669 , 243.663775556005 172.718758288337 , 179.726302852744 248.32417551341 , 97.7872557974813 323.929592738484 , 15.8482087422188 366.29018140728 , 5.60999476701639 382.325696227402 , -60.4558189536372 398.361211047523 , -126.521632674291 360.860751355966 , -193.170496195931 292.529902340343 , -211.932226615778 224.199053324721 , -230.693957035625 182.613882610633 , -197.564981512075 99.9897704330445 , -156.726202396979 17.3656582554563 , -115.887423281882 -1.61065588007921 , -88.9101554364453 -72.7882159603287 , -79.6870180443746 -143.965776040578 , -70.4638806523038 -169.371204266387 , -86.2980181172434 -212.24029461139 , -65.8809959094891 -255.109384956393 , -45.4639737017348 -281.88342876693 , -0.705784451004918 -270.088423281084 , 54.3623670243072 -258.293417795238 , 109.430518499619 -228.765901042329 , 119.041926246223 -217.099603582904 , 169.747061893512 -205.433306123479 , 220.452197540801 -228.621753707416 , 256.14103116057 -233.811198056817 , 263.884054240817 -239.000642406218 , 271.627077321064 -312.561142226899 , 380.080108593402 -430.589363468935 , 289.712637031758 -548.617584710972 , 199.345165470114 -486.776181274715 , 37.9944754577594 -462.354692892459 , -8.62639305093681 -437.933204510202 , -55.2472615596331 -388.589992673214 , -120.926967572831 -302.972837351287 , -162.126190157579 Z "
       id="path9603"
       inkscape:connector-curvature="0"
       sodipodi:nodetypes="zzzzzzzzzzzzzzzzzzzzzzzzzz" />
  </g>
</svg>
