<?xml version="1.0" encoding="UTF-8" standalone="no"?>
<!-- Created with Inkscape (http://www.inkscape.org/) -->

<svg
   xmlns:dc="http://purl.org/dc/elements/1.1/"
   xmlns:cc="http://creativecommons.org/ns#"
   xmlns:rdf="http://www.w3.org/1999/02/22-rdf-syntax-ns#"
   xmlns:svg="http://www.w3.org/2000/svg"
   xmlns="http://www.w3.org/2000/svg"
   xmlns:sodipodi="http://sodipodi.sourceforge.net/DTD/sodipodi-0.dtd"
   xmlns:inkscape="http://www.inkscape.org/namespaces/inkscape"
   width="210mm"
   height="297mm"
   viewBox="0 0 744.09448819 1052.3622047"
   id="svg4590"
   version="1.1"
   inkscape:version="0.91 r13725"
   sodipodi:docname="9_1.svg">
  <defs
     id="defs4592" />
  <sodipodi:namedview
     id="base"
     pagecolor="#ffffff"
     bordercolor="#666666"
     borderopacity="1.0"
     inkscape:pageopacity="0.0"
     inkscape:pageshadow="2"
     inkscape:zoom="0.73642194"
     inkscape:cx="247.62097"
     inkscape:cy="777.5861"
     inkscape:document-units="px"
     inkscape:current-layer="layer1"
     showgrid="false"
     inkscape:window-width="2560"
     inkscape:window-height="1315"
     inkscape:window-x="-4"
     inkscape:window-y="239"
     inkscape:window-maximized="0" />
  <metadata
     id="metadata4595">
    <rdf:RDF>
      <cc:Work
         rdf:about="">
        <dc:format>image/svg+xml</dc:format>
        <dc:type
           rdf:resource="http://purl.org/dc/dcmitype/StillImage" />
        <dc:title />
      </cc:Work>
    </rdf:RDF>
  </metadata>
  <g
     inkscape:label="Layer 1"
     inkscape:groupmode="layer"
     id="layer1">
    <path
       style="fill:none;fill-rule:evenodd;stroke:#000000;stroke-width:3.53492785px;stroke-linecap:butt;stroke-linejoin:miter;stroke-opacity:1"
       d="M  0 , -429.910399107774 C  15.6240788989613 , -429.910399107774 55.8758087901282 , -426.884849333185 89.9039040288129 , -390.823948798717 123.931999267498 , -354.763048264249 124.460991096035 , -328.145188776135 153.244813662301 , -291.888578801764 182.028636228566 , -255.631968827392 195.910523384689 , -244.006250624079 201.095132705598 , -239.655846855106 206.279742026507 , -235.305443086133 220.139403854704 , -223.653237768417 260.843452790325 , -201.602600394261 301.547501725946 , -179.551963020105 327.852834585456 , -183.653150559587 369.274805740076 , -156.403928211131 410.696776894697 , -129.154705862676 420.666001313379 , -90.0398713984992 423.379094141908 , -74.6531573651277 426.092186970437 , -59.2664433317562 430.10224163884 , -19.1008464579837 400.498103939568 , 20.6721952161496 370.893966240297 , 60.4452368902829 344.772350314839 , 65.5883349378117 314.064818049058 , 100.230760812828 283.357285783278 , 134.873186687845 274.318752769559 , 150.56296156571 270.934739369632 , 156.424244707878 267.550725969704 , 162.285527850046 258.482248852674 , 177.958014491803 243.83479412908 , 221.872730459008 229.187339405487 , 265.787446426212 237.794093804902 , 290.980978429323 218.151698178961 , 336.505434571092 198.50930255302 , 382.02989071286 161.719847967967 , 398.639879936345 147.038016320036 , 403.9836296407 132.356184672106 , 409.327379345054 93.4971321519645 , 420.251194974535 49.187627787521 , 398.003326854035 4.87812342307738 , 375.755458733536 -4.72281041180227 , 350.923778452454 -44.1712470152705 , 326.698356724399 -83.6196836187386 , 302.472934996344 -100.640620348091 , 296.296218424122 -107.000485189196 , 293.981416928004 -113.3603500303 , 291.666615431886 -130.36946090967 , 285.457407603871 -176.160517485713 , 278.658191030647 -221.951574061756 , 271.858974457422 -245.267812487095 , 284.709783839572 -293.511516052631 , 273.271039187709 -341.755219618166 , 261.832294535845 -364.501287528958 , 228.48604879112 -372.313326978439 , 214.955199553887 -380.125366427919 , 201.424350316654 -397.631028408294 , 165.05255479734 -383.415420081444 , 117.552909611008 -369.199811754593 , 70.0532644246771 -346.41256515779 , 56.2862143187126 -329.405331148013 , 13.230387771117 -312.398097138236 , -29.8254387764786 -309.27087341499 , -47.6603648078067 -308.095617894794 , -54.3255700728978 -306.920362374598 , -60.9907753379889 -303.759087473442 , -78.8196972279267 -305.014699805595 , -125.095756330137 -306.270312137748 , -171.371815432348 -322.974711162379 , -192.102308173949 -320.087177952556 , -241.599398642904 -317.199644742733 , -291.09648911186 -288.309816641274 , -319.287507946555 -276.341077821872 , -329.330472275572 -264.37233900247 , -339.373436604589 -231.59293908582 , -362.929044254877 -182.346405760608 , -357.177629787241 -133.099872435395 , -351.426215319606 -115.585010909352 , -331.375781364024 -70.2300239199781 , -322.103491271836 -24.8750369306042 , -312.831201179648 -6.76802679985451 , -312.848489415756 0 , -312.848489415756 6.76802679985451 , -312.848489415756 24.8750369306042 , -312.831201179648 70.2300239199781 , -322.103491271836 115.585010909352 , -331.375781364024 133.099872435395 , -351.426215319606 182.346405760607 , -357.177629787242 231.59293908582 , -362.929044254877 264.37233900247 , -339.373436604589 276.341077821872 , -329.330472275572 288.309816641274 , -319.287507946555 317.199644742732 , -291.09648911186 320.087177952556 , -241.599398642904 322.974711162379 , -192.102308173949 306.270312137748 , -171.371815432348 305.014699805595 , -125.095756330138 303.759087473442 , -78.8196972279268 306.920362374598 , -60.9907753379891 308.095617894794 , -54.325570072898 309.27087341499 , -47.6603648078068 312.398097138236 , -29.8254387764788 329.405331148013 , 13.2303877711168 346.41256515779 , 56.2862143187124 369.199811754593 , 70.0532644246769 383.415420081444 , 117.552909611008 397.631028408295 , 165.052554797339 380.12536642792 , 201.424350316654 372.313326978439 , 214.955199553887 364.501287528958 , 228.48604879112 341.755219618166 , 261.832294535845 293.511516052631 , 273.271039187708 245.267812487095 , 284.709783839572 221.951574061756 , 271.858974457422 176.160517485713 , 278.658191030647 130.36946090967 , 285.457407603871 113.3603500303 , 291.666615431886 107.000485189196 , 293.981416928004 100.640620348091 , 296.296218424122 83.6196836187387 , 302.472934996344 44.1712470152705 , 326.698356724399 4.72281041180236 , 350.923778452453 -4.87812342307729 , 375.755458733536 -49.1876277875209 , 398.003326854035 -93.4971321519644 , 420.251194974535 -132.356184672105 , 409.327379345054 -147.038016320036 , 403.9836296407 -161.719847967967 , 398.639879936345 -198.50930255302 , 382.029890712861 -218.151698178961 , 336.505434571092 -237.794093804902 , 290.980978429323 -229.187339405487 , 265.787446426212 -243.83479412908 , 221.872730459008 -258.482248852674 , 177.958014491804 -267.550725969704 , 162.285527850046 -270.934739369632 , 156.424244707878 -274.318752769559 , 150.56296156571 -283.357285783278 , 134.873186687845 -314.064818049058 , 100.230760812828 -344.772350314839 , 65.588334937812 -370.893966240297 , 60.4452368902831 -400.498103939568 , 20.6721952161498 -430.10224163884 , -19.1008464579836 -426.092186970437 , -59.266443331756 -423.379094141908 , -74.6531573651275 -420.666001313379 , -90.039871398499 -410.696776894697 , -129.154705862675 -369.274805740076 , -156.403928211131 -327.852834585456 , -183.653150559587 -301.547501725946 , -179.551963020105 -260.843452790325 , -201.602600394261 -220.139403854704 , -223.653237768417 -206.279742026507 , -235.305443086133 -201.095132705598 , -239.655846855106 -195.910523384689 , -244.006250624079 -182.028636228566 , -255.631968827392 -153.244813662301 , -291.888578801763 -124.460991096035 , -328.145188776135 -123.931999267498 , -354.763048264249 -89.9039040288129 , -390.823948798717 -55.8758087901282 , -426.884849333185 -15.6240788989613 , -429.910399107774 0 , -429.910399107774 Z "
       id="path5203"
       inkscape:connector-curvature="0"
       sodipodi:nodetypes="zzzzzzzzzzzzzzzzzzzzzzzzzzzzzzzzzzzzzzzzzzzzzzzzzzzzzzz" />
  </g>
</svg>
