<?xml version="1.0" encoding="UTF-8" standalone="no"?>
<!-- Created with Inkscape (http://www.inkscape.org/) -->

<svg
   xmlns:dc="http://purl.org/dc/elements/1.1/"
   xmlns:cc="http://creativecommons.org/ns#"
   xmlns:rdf="http://www.w3.org/1999/02/22-rdf-syntax-ns#"
   xmlns:svg="http://www.w3.org/2000/svg"
   xmlns="http://www.w3.org/2000/svg"
   xmlns:sodipodi="http://sodipodi.sourceforge.net/DTD/sodipodi-0.dtd"
   xmlns:inkscape="http://www.inkscape.org/namespaces/inkscape"
   width="210mm"
   height="297mm"
   viewBox="0 0 744.09448819 1052.3622047"
   id="svg4590"
   version="1.1"
   inkscape:version="0.91 r13725"
   sodipodi:docname="9_1.svg">
  <defs
     id="defs4592" />
  <sodipodi:namedview
     id="base"
     pagecolor="#ffffff"
     bordercolor="#666666"
     borderopacity="1.0"
     inkscape:pageopacity="0.0"
     inkscape:pageshadow="2"
     inkscape:zoom="0.73642194"
     inkscape:cx="247.62097"
     inkscape:cy="777.5861"
     inkscape:document-units="px"
     inkscape:current-layer="layer1"
     showgrid="false"
     inkscape:window-width="2560"
     inkscape:window-height="1315"
     inkscape:window-x="-4"
     inkscape:window-y="239"
     inkscape:window-maximized="0" />
  <metadata
     id="metadata4595">
    <rdf:RDF>
      <cc:Work
         rdf:about="">
        <dc:format>image/svg+xml</dc:format>
        <dc:type
           rdf:resource="http://purl.org/dc/dcmitype/StillImage" />
        <dc:title />
      </cc:Work>
    </rdf:RDF>
  </metadata>
  <g
     inkscape:label="Layer 1"
     inkscape:groupmode="layer"
     id="layer1">
    <path
       style="fill:none;fill-rule:evenodd;stroke:#000000;stroke-width:3.53492785px;stroke-linecap:butt;stroke-linejoin:miter;stroke-opacity:1"
       d="M  0 , -432.571500341534 C  7.41390201971183 , -432.571500341534 47.7895664778593 , -432.477185035667 86.9164229874082 , -399.011311863714 126.043279496957 , -365.54543869176 143.915341267914 , -328.343590794072 173.255586869516 , -298.946498279147 202.595832471119 , -269.549405764222 212.562286670864 , -261.194749030276 216.438923420423 , -257.941864563512 220.315560169983 , -254.688980096749 230.273947504915 , -246.324709647681 264.319312310649 , -222.534959847864 298.364677116382 , -198.745210048046 338.104796310084 , -187.604698146971 377.856555001866 , -154.883554395713 417.608313693648 , -122.162410644456 424.712356693342 , -82.4165209340425 425.999767268466 , -75.1152527449574 427.28717784359 , -67.8139845558723 434.205455954393 , -28.0353394834794 408.042311924049 , 16.308380048463 381.879167893704 , 60.6520995804053 348.345950615357 , 84.7126776680321 324.490346171661 , 118.711930555695 300.634741727964 , 152.711183443359 294.137667612205 , 163.976995726191 291.607372676721 , 168.359595112584 289.077077741237 , 172.742194498977 282.569135167916 , 184.001731874911 265.052720679357 , 221.660917789617 247.536306190797 , 259.320103704323 243.465842976347 , 300.391010781808 218.144627378565 , 345.220817920929 192.823411780783 , 390.050625060049 154.914955564564 , 403.948543001844 147.948166545411 , 406.484246833229 140.981377526258 , 409.019950664613 103.008405841179 , 422.740613812507 54.7951847658163 , 404.675152815944 6.58196369045383 , 386.609691819381 -22.9360622238909 , 357.763994998751 -60.5612723030755 , 340.174719095786 -98.1864823822601 , 322.585443192822 -110.409346742742 , 318.143362004578 -115.164745701315 , 316.412538331597 -119.920144659888 , 314.681714658616 -132.138716731257 , 310.227840502956 -172.267468447384 , 299.516988716156 -212.396220163512 , 288.806136929356 -253.549996396112 , 291.929401366547 -302.095720977627 , 274.777486245026 -350.641445559141 , 257.625571123505 -370.910957239062 , 222.706377661007 -374.617908248918 , 216.285750170767 -378.324859258773 , 209.865122680528 -398.431012037001 , 174.851613912163 -389.012143965035 , 124.233825618688 -379.59327589307 , 73.616037325213 -356.311561431425 , 39.5374538647159 -345.5230553169 , -0.570490437008893 -334.734549202375 , -40.6784347387337 -332.482431330752 , -53.4869656283401 -331.603669121738 , -58.4706737680848 -330.724906912725 , -63.4543819078295 -328.460429887175 , -76.2607335451401 -324.880584613724 , -117.639759247923 -321.300739340273 , -159.018784950705 -331.52283261963 , -199.00499367241 -323.061370236049 , -249.791598420231 -314.599907852469 , -300.578203168052 -283.730979167084 , -326.60342973057 -278.051600723055 , -331.368994088271 -272.372222279026 , -336.134558445972 -241.382044173611 , -362.01528557657 -189.897684545484 , -361.529197969392 -138.413324917358 , -361.043110362213 -100.80964442456 , -344.032781372355 -59.4376254923039 , -340.372848345312 -18.0656065600478 , -336.71291531827 -5.06058987096837 , -336.719190225168 0 , -336.719190225168 5.06058987096837 , -336.719190225168 18.0656065600478 , -336.71291531827 59.4376254923039 , -340.372848345312 100.80964442456 , -344.032781372355 138.413324917357 , -361.043110362213 189.897684545484 , -361.529197969392 241.382044173611 , -362.01528557657 272.372222279026 , -336.134558445972 278.051600723055 , -331.368994088271 283.730979167084 , -326.603429730571 314.599907852469 , -300.578203168052 323.061370236049 , -249.791598420231 331.52283261963 , -199.00499367241 321.300739340273 , -159.018784950706 324.880584613724 , -117.639759247923 328.460429887175 , -76.2607335451403 330.724906912725 , -63.4543819078297 331.603669121738 , -58.470673768085 332.482431330752 , -53.4869656283403 334.734549202375 , -40.6784347387338 345.5230553169 , -0.570490437009049 356.311561431425 , 39.5374538647157 379.59327589307 , 73.6160373252127 389.012143965035 , 124.233825618687 398.431012037001 , 174.851613912162 378.324859258774 , 209.865122680528 374.617908248918 , 216.285750170767 370.910957239062 , 222.706377661006 350.641445559142 , 257.625571123505 302.095720977627 , 274.777486245026 253.549996396113 , 291.929401366547 212.396220163512 , 288.806136929356 172.267468447384 , 299.516988716156 132.138716731257 , 310.227840502956 119.920144659888 , 314.681714658616 115.164745701315 , 316.412538331597 110.409346742742 , 318.143362004578 98.1864823822602 , 322.585443192822 60.5612723030756 , 340.174719095786 22.936062223891 , 357.763994998751 -6.58196369045376 , 386.609691819381 -54.7951847658162 , 404.675152815944 -103.008405841179 , 422.740613812507 -140.981377526258 , 409.019950664613 -147.948166545411 , 406.484246833229 -154.914955564564 , 403.948543001844 -192.823411780783 , 390.05062506005 -218.144627378565 , 345.220817920929 -243.465842976347 , 300.391010781808 -247.536306190797 , 259.320103704323 -265.052720679357 , 221.660917789617 -282.569135167916 , 184.001731874911 -289.077077741236 , 172.742194498977 -291.607372676721 , 168.359595112584 -294.137667612205 , 163.976995726191 -300.634741727964 , 152.711183443359 -324.490346171661 , 118.711930555696 -348.345950615357 , 84.7126776680324 -381.879167893704 , 60.6520995804055 -408.042311924049 , 16.3083800484632 -434.205455954393 , -28.0353394834792 -427.28717784359 , -67.8139845558721 -425.999767268466 , -75.1152527449572 -424.712356693342 , -82.4165209340423 -417.608313693648 , -122.162410644455 -377.856555001866 , -154.883554395713 -338.104796310084 , -187.604698146971 -298.364677116382 , -198.745210048046 -264.319312310649 , -222.534959847863 -230.273947504915 , -246.324709647681 -220.315560169983 , -254.688980096749 -216.438923420423 , -257.941864563512 -212.562286670864 , -261.194749030276 -202.595832471119 , -269.549405764222 -173.255586869516 , -298.946498279147 -143.915341267914 , -328.343590794072 -126.043279496957 , -365.54543869176 -86.9164229874082 , -399.011311863714 -47.7895664778593 , -432.477185035667 -7.41390201971183 , -432.571500341534 0 , -432.571500341534 Z "
       id="path5203"
       inkscape:connector-curvature="0"
       sodipodi:nodetypes="zzzzzzzzzzzzzzzzzzzzzzzzzzzzzzzzzzzzzzzzzzzzzzzzzzzzzzz" />
  </g>
</svg>
