<?xml version="1.0" encoding="UTF-8" standalone="no"?>
<!-- Created with Inkscape (http://www.inkscape.org/) -->

<svg
   xmlns:dc="http://purl.org/dc/elements/1.1/"
   xmlns:cc="http://creativecommons.org/ns#"
   xmlns:rdf="http://www.w3.org/1999/02/22-rdf-syntax-ns#"
   xmlns:svg="http://www.w3.org/2000/svg"
   xmlns="http://www.w3.org/2000/svg"
   xmlns:sodipodi="http://sodipodi.sourceforge.net/DTD/sodipodi-0.dtd"
   xmlns:inkscape="http://www.inkscape.org/namespaces/inkscape"
   width="210mm"
   height="297mm"
   viewBox="0 0 744.09448819 1052.3622047"
   id="svg2"
   version="1.1"
   inkscape:version="0.91 r13725"
   sodipodi:docname="9_10.svg">
  <defs
     id="defs4" />
  <sodipodi:namedview
     id="base"
     pagecolor="#ffffff"
     bordercolor="#666666"
     borderopacity="1.0"
     inkscape:pageopacity="0.0"
     inkscape:pageshadow="2"
     inkscape:zoom="1.5982422"
     inkscape:cx="308.67714"
     inkscape:cy="520"
     inkscape:document-units="px"
     inkscape:current-layer="layer1"
     showgrid="false"
     inkscape:window-width="2560"
     inkscape:window-height="1315"
     inkscape:window-x="0"
     inkscape:window-y="1"
     inkscape:window-maximized="1" />
  <metadata
     id="metadata7">
    <rdf:RDF>
      <cc:Work
         rdf:about="">
        <dc:format>image/svg+xml</dc:format>
        <dc:type
           rdf:resource="http://purl.org/dc/dcmitype/StillImage" />
        <dc:title></dc:title>
      </cc:Work>
    </rdf:RDF>
  </metadata>
  <g
     inkscape:label="Layer 1"
     inkscape:groupmode="layer"
     id="layer1">
    <path
       style="fill:none;fill-rule:evenodd;stroke:#000000;stroke-width:3.24445605px;stroke-linecap:butt;stroke-linejoin:miter;stroke-opacity:1"
       d="M  99.5065853412124 , -178.888003759664 C  163.555635099858 , -170.892965771641 204.626782293587 , -110.0099112876 187.455685502156 , -45.7502031395098 170.284588710726 , 18.5095050085804 116.319652992065 , 49.7477275163768 61.3176143138349 , 99.7062808464804 6.31557563560486 , 149.664834176584 -29.7601918827934 , 185.696261026148 -23.7932726649948 , 249.445437703928 -17.8263534471962 , 313.194614381708 18.6844471482749 , 333.523667118572 24.2335334146865 , 401.027813647678 29.7826196810981 , 468.531960176783 -9.63269327024907 , 503.812887584038 -62.1968659869603 , 551.110303008069 -114.761038703671 , 598.407718432101 -166.564086128121 , 628.078294515933 -186.54673985759 , 688.943255689839 -206.529393587058 , 749.808216863745 -172.788244667226 , 815.79605861689 -105.867589820464 , 827.699127052958 -38.9469349737021 , 839.602195489026 14.8051627715705 , 794.014996975234 74.0146840286332 , 712.439007183891 133.224205285696 , 630.863017392549 182.973206036308 , 564.875134892543 206.947368495341 , 460.604558675495 230.921530954375 , 356.333982458447 227.360739830197 , 258.569672429743 202.878537072268 , 167.328394142953 178.396334314339 , 76.0871158561635 135.240859353057 , 19.6711287075018 75.0709589004199 , -62.5483096554446 14.9010584477823 , -144.767748018391 -35.4575355825672 , -186.883041747687 -99.5065853412124 , -178.888003759664 -163.555635099858 , -170.892965771641 -204.626782293587 , -110.0099112876 -187.455685502156 , -45.7502031395098 -170.284588710726 , 18.5095050085804 -116.319652992065 , 49.7477275163768 -61.3176143138349 , 99.7062808464804 -6.31557563560486 , 149.664834176584 29.7601918827934 , 185.696261026148 23.7932726649948 , 249.445437703928 17.8263534471962 , 313.194614381708 -18.6844471482749 , 333.523667118572 -24.2335334146865 , 401.027813647678 -29.7826196810981 , 468.531960176783 9.63269327024906 , 503.812887584038 62.1968659869603 , 551.110303008069 114.761038703671 , 598.407718432101 166.564086128121 , 628.078294515933 186.54673985759 , 688.943255689839 206.529393587058 , 749.808216863745 172.788244667226 , 815.79605861689 105.867589820464 , 827.699127052958 38.9469349737021 , 839.602195489026 -14.8051627715705 , 794.014996975234 -74.0146840286332 , 712.439007183891 -133.224205285696 , 630.863017392549 -182.973206036308 , 564.875134892543 -206.947368495341 , 460.604558675495 -230.921530954375 , 356.333982458447 -227.360739830197 , 258.569672429743 -202.878537072268 , 167.328394142953 -178.396334314339 , 76.0871158561635 -135.240859353057 , 19.6711287075018 -75.0709589004199 , -62.5483096554446 -14.9010584477823 , -144.767748018391 35.4575355825672 , -186.883041747687 99.5065853412124 , -178.888003759664 Z "
       id="path4209"
       inkscape:connector-curvature="0"
       sodipodi:nodetypes="zzzzzzzzzzzzzzzzzzzzzzzzz" />
  </g>
</svg>
