<?xml version="1.0" encoding="UTF-8" standalone="no"?>
<!-- Created with Inkscape (http://www.inkscape.org/) -->

<svg
   xmlns:dc="http://purl.org/dc/elements/1.1/"
   xmlns:cc="http://creativecommons.org/ns#"
   xmlns:rdf="http://www.w3.org/1999/02/22-rdf-syntax-ns#"
   xmlns:svg="http://www.w3.org/2000/svg"
   xmlns="http://www.w3.org/2000/svg"
   xmlns:sodipodi="http://sodipodi.sourceforge.net/DTD/sodipodi-0.dtd"
   xmlns:inkscape="http://www.inkscape.org/namespaces/inkscape"
   width="210mm"
   height="297mm"
   viewBox="0 0 744.09448819 1052.3622047"
   id="svg2"
   version="1.1"
   inkscape:version="0.91 r13725"
   sodipodi:docname="9_10.svg">
  <defs
     id="defs4" />
  <sodipodi:namedview
     id="base"
     pagecolor="#ffffff"
     bordercolor="#666666"
     borderopacity="1.0"
     inkscape:pageopacity="0.0"
     inkscape:pageshadow="2"
     inkscape:zoom="1.5982422"
     inkscape:cx="308.67714"
     inkscape:cy="520"
     inkscape:document-units="px"
     inkscape:current-layer="layer1"
     showgrid="false"
     inkscape:window-width="2560"
     inkscape:window-height="1315"
     inkscape:window-x="0"
     inkscape:window-y="1"
     inkscape:window-maximized="1" />
  <metadata
     id="metadata7">
    <rdf:RDF>
      <cc:Work
         rdf:about="">
        <dc:format>image/svg+xml</dc:format>
        <dc:type
           rdf:resource="http://purl.org/dc/dcmitype/StillImage" />
        <dc:title></dc:title>
      </cc:Work>
    </rdf:RDF>
  </metadata>
  <g
     inkscape:label="Layer 1"
     inkscape:groupmode="layer"
     id="layer1">
    <path
       style="fill:none;fill-rule:evenodd;stroke:#000000;stroke-width:3.24445605px;stroke-linecap:butt;stroke-linejoin:miter;stroke-opacity:1"
       d="M  124.54393248988 , -166.743109718477 C  205.71332064933 , -146.417159615978 219.754524404159 , -60.7826229084359 189.881307148988 , -8.6918590622647 160.008089893817 , 43.3989047839065 112.099019579039 , 63.8378696011808 61.2763607560325 , 99.4116923525588 10.4537019330264 , 134.985515103937 -49.6744051343208 , 177.78592617799 -36.5037414338063 , 253.773209827675 -23.3330777332918 , 329.76049347736 23.3446881807155 , 322.045315727416 36.238037367845 , 394.373140762152 49.1313865549744 , 466.700965796889 -7.05998853588185 , 510.098137804794 -60.869827221221 , 547.701587824042 -114.67966590656 , 585.305037843291 -174.745510280292 , 610.007027476926 -197.165816772124 , 677.763878891993 -219.586123263955 , 745.520730307059 -171.964956400601 , 812.409961587201 -98.021012555193 , 811.372179508365 -24.0770687097847 , 810.33439742953 17.9278955944928 , 750.316465267853 70.1708656731995 , 678.170300808019 122.413835751906 , 606.024136348184 183.18948919479 , 535.158263910857 204.375356141316 , 434.880436927848 225.561223087843 , 334.602609944839 220.027806206851 , 264.085177447867 194.901516919926 , 176.075509011484 169.775227633002 , 88.0658405751 132.434868428198 , 51.7307878271071 71.7602517088177 , -34.9569180627422 11.0856349894376 , -121.644623952591 -43.3745443304299 , -187.069059820975 -124.54393248988 , -166.743109718477 -205.71332064933 , -146.417159615978 -219.754524404159 , -60.7826229084359 -189.881307148988 , -8.6918590622647 -160.008089893817 , 43.3989047839065 -112.099019579039 , 63.8378696011808 -61.2763607560325 , 99.4116923525588 -10.4537019330264 , 134.985515103937 49.6744051343208 , 177.78592617799 36.5037414338063 , 253.773209827675 23.3330777332918 , 329.76049347736 -23.3446881807155 , 322.045315727416 -36.238037367845 , 394.373140762152 -49.1313865549744 , 466.700965796889 7.05998853588185 , 510.098137804794 60.869827221221 , 547.701587824042 114.67966590656 , 585.305037843291 174.745510280292 , 610.007027476926 197.165816772124 , 677.763878891993 219.586123263955 , 745.520730307059 171.964956400601 , 812.409961587201 98.021012555193 , 811.372179508365 24.0770687097847 , 810.33439742953 -17.9278955944928 , 750.316465267853 -70.1708656731995 , 678.170300808019 -122.413835751906 , 606.024136348184 -183.18948919479 , 535.158263910857 -204.375356141316 , 434.880436927848 -225.561223087843 , 334.602609944839 -220.027806206851 , 264.085177447867 -194.901516919926 , 176.075509011484 -169.775227633002 , 88.0658405751 -132.434868428198 , 51.7307878271071 -71.7602517088177 , -34.9569180627422 -11.0856349894376 , -121.644623952591 43.3745443304299 , -187.069059820975 124.54393248988 , -166.743109718477 Z "
       id="path4209"
       inkscape:connector-curvature="0"
       sodipodi:nodetypes="zzzzzzzzzzzzzzzzzzzzzzzzz" />
  </g>
</svg>
