<?xml version="1.0" encoding="UTF-8" standalone="no"?>
<!-- Created with Inkscape (http://www.inkscape.org/) -->

<svg
   xmlns:dc="http://purl.org/dc/elements/1.1/"
   xmlns:cc="http://creativecommons.org/ns#"
   xmlns:rdf="http://www.w3.org/1999/02/22-rdf-syntax-ns#"
   xmlns:svg="http://www.w3.org/2000/svg"
   xmlns="http://www.w3.org/2000/svg"
   xmlns:sodipodi="http://sodipodi.sourceforge.net/DTD/sodipodi-0.dtd"
   xmlns:inkscape="http://www.inkscape.org/namespaces/inkscape"
   width="210mm"
   height="297mm"
   viewBox="0 0 744.09448819 1052.3622047"
   id="svg2"
   version="1.1"
   inkscape:version="0.91 r13725"
   sodipodi:docname="9_11.svg">
  <defs
     id="defs4" />
  <sodipodi:namedview
     id="base"
     pagecolor="#ffffff"
     bordercolor="#666666"
     borderopacity="1.0"
     inkscape:pageopacity="0.0"
     inkscape:pageshadow="2"
     inkscape:zoom="1.1862641"
     inkscape:cx="-33.562247"
     inkscape:cy="872.42589"
     inkscape:document-units="px"
     inkscape:current-layer="layer1"
     showgrid="false"
     inkscape:window-width="2560"
     inkscape:window-height="1315"
     inkscape:window-x="247"
     inkscape:window-y="0"
     inkscape:window-maximized="0" />
  <metadata
     id="metadata7">
    <rdf:RDF>
      <cc:Work
         rdf:about="">
        <dc:format>image/svg+xml</dc:format>
        <dc:type
           rdf:resource="http://purl.org/dc/dcmitype/StillImage" />
        <dc:title />
      </cc:Work>
    </rdf:RDF>
  </metadata>
  <g
     inkscape:label="Layer 1"
     inkscape:groupmode="layer"
     id="layer1">
    <path
       style="fill:none;fill-rule:evenodd;stroke:#0000ff;stroke-width:12.38738537;stroke-linecap:butt;stroke-linejoin:miter;stroke-miterlimit:4;stroke-dasharray:none;stroke-opacity:1"
       d="M  -116.462723531455 , -318.668763527796 C  -31.890672151739 , -306.542538315907 11.2083028833153 , -263.744613108172 105.375608723876 , -188.154107765946 199.542914564437 , -112.56360242372 216.810482847827 , -84.6941380086815 227.840041413002 , -58.922329924244 238.869599978177 , -33.1505218398065 251.274943732526 , 12.3709886892211 224.845280347221 , 71.3244941324266 198.415616961916 , 130.277999575632 154.489781716342 , 126.714057081496 118.294757332631 , 244.593583567918 82.09973294892 , 362.47311005434 114.172421608615 , 410.278573476561 69.1115673012458 , 469.286692463205 24.0507129938766 , 528.294811449849 -53.6821988023769 , 528.369059966873 -101.441219623602 , 482.162918951809 -149.200240444827 , 435.956777936745 -133.686274972548 , 397.442532872353 -177.701515577686 , 300.174354453197 -221.716756182824 , 202.906176034041 -255.712405813968 , 179.611530523876 -279.068478180024 , 119.610934315979 -302.42455054608 , 59.610338108082 -297.496292727478 , 18.566852394307 -294.752713873266 , 1.83422333045557 -292.009135019054 , -14.8984057333959 -276.617456849357 , -93.5508415204038 -195.387086507084 , -123.958002551814 -114.156716164811 , -154.365163583224 -60.0575284404554 , -104.259856298039 -15.2712259849987 , -65.5502671567232 29.515076470458 , -26.8406780154074 224.883247042182 , 141.134384192743 249.998766279042 , 211.650345330216 275.114285515902 , 282.166306467689 238.040826398631 , 346.885539824777 183.337222880233 , 374.692674566525 128.633619361835 , 402.499809308273 107.225500088981 , 388.544196538686 0 , 388.544196538686 -107.225500088981 , 388.544196538686 -153.331771214637 , 431.492681303639 -218.618678302201 , 411.526082612206 -283.905585389765 , 391.559483920773 -315.462503175905 , 325.868430421158 -293.751552638577 , 263.625603332221 -272.040602101249 , 201.382776243284 -220.048559620639 , 179.998482083624 -81.8184931455344 , 108.701533787125 56.4115733295702 , 37.404585490626 60.3918062107984 , 7.21510938861815 122.732101549962 , -52.8720590039264 185.072396889126 , -112.959227396471 231.133215798931 , -141.905548291457 234.331937319626 , -211.603094560308 237.530658840321 , -281.300640829159 178.386051808578 , -339.79633483312 103.320451504876 , -326.73669925162 28.254851201174 , -313.67706367012 -6.00237230257446 , -245.662023348718 -37.7020600191338 , -184.703101791625 -69.4017477356931 , -123.744180234532 -90.4451843963578 , -60.3298174177585 -171.396862701432 , -46.0460909665019 -252.348541006506 , -31.7623645152453 -337.813658720792 , -100.97906743843 -318.965252110264 , -195.617101789029 -300.116845499736 , -290.255136139628 -201.034774911171 , -330.794988739685 -116.462723531455 , -318.668763527796 Z "
       id="path4201"
       inkscape:connector-curvature="0"
       sodipodi:nodetypes="zzzzzzzzzzzzzzzzzzzzzzzzz" />
  </g>
</svg>
