<?xml version="1.0" encoding="UTF-8" standalone="no"?>
<!-- Created with Inkscape (http://www.inkscape.org/) -->

<svg
   xmlns:dc="http://purl.org/dc/elements/1.1/"
   xmlns:cc="http://creativecommons.org/ns#"
   xmlns:rdf="http://www.w3.org/1999/02/22-rdf-syntax-ns#"
   xmlns:svg="http://www.w3.org/2000/svg"
   xmlns="http://www.w3.org/2000/svg"
   xmlns:sodipodi="http://sodipodi.sourceforge.net/DTD/sodipodi-0.dtd"
   xmlns:inkscape="http://www.inkscape.org/namespaces/inkscape"
   width="210mm"
   height="297mm"
   viewBox="0 0 744.09448819 1052.3622047"
   id="svg2"
   version="1.1"
   inkscape:version="0.91 r13725"
   sodipodi:docname="9_11.svg">
  <defs
     id="defs4" />
  <sodipodi:namedview
     id="base"
     pagecolor="#ffffff"
     bordercolor="#666666"
     borderopacity="1.0"
     inkscape:pageopacity="0.0"
     inkscape:pageshadow="2"
     inkscape:zoom="1.1862641"
     inkscape:cx="-33.562247"
     inkscape:cy="872.42589"
     inkscape:document-units="px"
     inkscape:current-layer="layer1"
     showgrid="false"
     inkscape:window-width="2560"
     inkscape:window-height="1315"
     inkscape:window-x="247"
     inkscape:window-y="0"
     inkscape:window-maximized="0" />
  <metadata
     id="metadata7">
    <rdf:RDF>
      <cc:Work
         rdf:about="">
        <dc:format>image/svg+xml</dc:format>
        <dc:type
           rdf:resource="http://purl.org/dc/dcmitype/StillImage" />
        <dc:title />
      </cc:Work>
    </rdf:RDF>
  </metadata>
  <g
     inkscape:label="Layer 1"
     inkscape:groupmode="layer"
     id="layer1">
    <path
       style="fill:none;fill-rule:evenodd;stroke:#0000ff;stroke-width:12.38738537;stroke-linecap:butt;stroke-linejoin:miter;stroke-miterlimit:4;stroke-dasharray:none;stroke-opacity:1"
       d="M  -118.192225316295 , -323.911657081105 C  -34.386533587459 , -317.059596115511 25.2247322782287 , -277.755030984037 111.353128847832 , -199.048288716603 197.481525417435 , -120.341546449169 214.357344551847 , -78.8169244366971 221.710049053966 , -52.6086737263931 229.062753556085 , -26.4004230160891 234.21068351904 , 8.16375255981234 219.780670242444 , 60.4987135181592 205.350656965848 , 112.833674476506 171.552603936808 , 140.962778446921 139.330893872211 , 256.435877305544 107.109183807614 , 371.908976164167 115.835488319197 , 425.94872295284 67.6144674659805 , 472.268791868175 19.393446612764 , 518.58886078351 -46.5080569144132 , 516.793731478502 -93.3352855364919 , 483.077521395741 -140.162514158571 , 449.36131131298 -148.566054984636 , 402.367838219276 -192.793342320885 , 304.155474486962 -237.020629657134 , 205.943110754648 -264.345753504114 , 179.881349557299 -283.637716674369 , 121.281882614704 -302.929679844624 , 62.682415672109 -297.931432446089 , 22.6012704915319 -295.101822290082 , 5.81840322262602 -292.272212134075 , -10.9644640462799 -276.77598149087 , -90.848505235482 -198.81288487485 , -121.268715516839 -120.84978825883 , -151.688925798196 -56.8612014206449 , -108.436849829196 -6.87669191170368 , -69.8462999876167 43.1078175972375 , -31.2557501460374 228.904721889982 , 135.86786251783 249.199543127991 , 214.971380031732 269.494364366 , 294.074897545634 229.09467745284 , 347.64023691357 188.696905581878 , 374.494479852765 148.299133710916 , 401.34872279196 107.428869802769 , 405.130495009657 0 , 405.130495009657 -107.428869802769 , 405.130495009657 -160.123902625743 , 432.853660826556 -219.840319373946 , 408.314706507066 -279.556736122149 , 383.775752187576 -306.078978542611 , 324.591788780321 -291.285887074155 , 267.640440977701 -276.492795605699 , 210.689093175081 -225.903467565111 , 169.650205617374 -84.5326911200541 , 97.6468461576678 56.8380853250028 , 25.6434866979616 72.2841780564249 , 4.15715070033976 131.614887115529 , -50.089962077876 190.945596174633 , -104.337074856092 235.080430103141 , -146.770216622804 234.564556180441 , -213.390640375176 234.048682257741 , -280.011064127548 178.693773738142 , -335.593597442422 106.167500674295 , -325.886074857893 33.641227610448 , -316.178552273364 -6.77940192250537 , -246.08549372822 -35.7978819673193 , -193.65970956799 -64.8163620121332 , -141.23392540776 -97.2847615335866 , -65.2294382330082 -177.793082892133 , -46.7950742269613 -258.301404250679 , -28.3607102209144 -344.333184976509 , -96.7625842798467 -324.952415869829 , -193.746274650964 -305.571646763149 , -290.729965022081 -201.997917045131 , -330.763718046699 -118.192225316295 , -323.911657081105 Z "
       id="path4201"
       inkscape:connector-curvature="0"
       sodipodi:nodetypes="zzzzzzzzzzzzzzzzzzzzzzzzz" />
  </g>
</svg>
