<?xml version="1.0" encoding="UTF-8" standalone="no"?>
<!-- Created with Inkscape (http://www.inkscape.org/) -->

<svg
   xmlns:dc="http://purl.org/dc/elements/1.1/"
   xmlns:cc="http://creativecommons.org/ns#"
   xmlns:rdf="http://www.w3.org/1999/02/22-rdf-syntax-ns#"
   xmlns:svg="http://www.w3.org/2000/svg"
   xmlns="http://www.w3.org/2000/svg"
   xmlns:sodipodi="http://sodipodi.sourceforge.net/DTD/sodipodi-0.dtd"
   xmlns:inkscape="http://www.inkscape.org/namespaces/inkscape"
   width="210mm"
   height="297mm"
   viewBox="0 0 744.09448819 1052.3622047"
   id="svg2"
   version="1.1"
   inkscape:version="0.91 r13725"
   sodipodi:docname="9_11.svg">
  <defs
     id="defs4" />
  <sodipodi:namedview
     id="base"
     pagecolor="#ffffff"
     bordercolor="#666666"
     borderopacity="1.0"
     inkscape:pageopacity="0.0"
     inkscape:pageshadow="2"
     inkscape:zoom="1.1862641"
     inkscape:cx="-33.562247"
     inkscape:cy="872.42589"
     inkscape:document-units="px"
     inkscape:current-layer="layer1"
     showgrid="false"
     inkscape:window-width="2560"
     inkscape:window-height="1315"
     inkscape:window-x="247"
     inkscape:window-y="0"
     inkscape:window-maximized="0" />
  <metadata
     id="metadata7">
    <rdf:RDF>
      <cc:Work
         rdf:about="">
        <dc:format>image/svg+xml</dc:format>
        <dc:type
           rdf:resource="http://purl.org/dc/dcmitype/StillImage" />
        <dc:title />
      </cc:Work>
    </rdf:RDF>
  </metadata>
  <g
     inkscape:label="Layer 1"
     inkscape:groupmode="layer"
     id="layer1">
    <path
       style="fill:none;fill-rule:evenodd;stroke:#0000ff;stroke-width:12.38738537;stroke-linecap:butt;stroke-linejoin:miter;stroke-miterlimit:4;stroke-dasharray:none;stroke-opacity:1"
       d="M  -141.718760746954 , -334.028200644988 C  -39.5058424146118 , -330.129630234056 23.5089900106227 , -278.986325948658 111.530974444102 , -197.470793636495 199.552958877582 , -115.955261324332 215.52096602872 , -65.9335193297666 220.839781845387 , -46.6447645887746 226.158597662053 , -27.3560098477826 233.124055707422 , 6.4231919126182 220.126270885007 , 59.0823547675575 207.128486062591 , 111.741517622497 176.144333308685 , 136.666636174117 141.161219213453 , 260.005960071702 106.178105118222 , 383.345283969288 109.368182353804 , 428.654256947186 64.1795722338219 , 469.329846739792 18.9909621138399 , 510.005436532398 -42.7714164047324 , 510.656229435209 -89.784168508562 , 477.488430490041 -136.796920612392 , 444.320631544873 -142.045029702649 , 404.001739614892 -189.713170105517 , 303.707491030007 -237.381310508385 , 203.413242445122 -265.838715120622 , 172.509149193009 -282.544579020845 , 120.187328644237 -299.250442921069 , 67.8655080954664 -296.588572214644 , 31.6900566575573 -295.339414630781 , 18.4260904133065 -294.090257046918 , 5.16212416905562 -285.038755611151 , -84.8686116492375 -204.389977035683 , -120.846382249073 -123.741198460214 , -156.824152848908 -55.5696134755417 , -111.145434034914 -7.45626407289029 , -74.5398584768401 40.6570853297611 , -37.9342829187663 236.277092904058 , 133.925652912265 253.502543035352 , 220.895292068326 270.727993166646 , 307.864931224386 218.46922175053 , 357.628399284085 183.080718004466 , 378.034302509928 147.692214258403 , 398.440205735771 115.693415020484 , 403.437284606552 0 , 403.437284606552 -115.693415020484 , 403.437284606552 -161.875278192223 , 429.554887668894 -221.08456951071 , 402.346705382832 -280.293860829198 , 375.138523096769 -299.79509307364 , 318.507793398624 -290.326195829083 , 270.879300133851 -280.857298584527 , 223.250806869079 -247.254975397612 , 177.297921371319 -95.9614307716706 , 101.771850171661 55.3321138542706 , 26.2457789720037 83.9823204304276 , -7.82393455832911 133.662759238739 , -53.7334057525498 183.343198047051 , -99.6428769467705 232.14065365936 , -142.896823561266 231.892572544457 , -210.680598681976 231.644491429554 , -278.464373802685 176.916310499851 , -327.443162945302 111.10346137104 , -322.876845157428 45.2906122422287 , -318.310527369554 4.84875353051545 , -268.305512311457 -33.6967160039438 , -204.302894689726 -72.2421855384031 , -140.300277067996 -97.0081171061122 , -72.9659075074619 -174.757640231236 , -48.4599200250896 -252.50716335636 , -23.9539325427173 -342.037182520886 , -79.9931909138997 -339.63978350662 , -175.902358551604 -337.242384492354 , -271.811526189308 -243.931679079296 , -337.92677105592 -141.718760746954 , -334.028200644988 Z "
       id="path4201"
       inkscape:connector-curvature="0"
       sodipodi:nodetypes="zzzzzzzzzzzzzzzzzzzzzzzzz" />
  </g>
</svg>
