<?xml version="1.0" encoding="UTF-8" standalone="no"?>
<!-- Created with Inkscape (http://www.inkscape.org/) -->

<svg
   xmlns:dc="http://purl.org/dc/elements/1.1/"
   xmlns:cc="http://creativecommons.org/ns#"
   xmlns:rdf="http://www.w3.org/1999/02/22-rdf-syntax-ns#"
   xmlns:svg="http://www.w3.org/2000/svg"
   xmlns="http://www.w3.org/2000/svg"
   xmlns:sodipodi="http://sodipodi.sourceforge.net/DTD/sodipodi-0.dtd"
   xmlns:inkscape="http://www.inkscape.org/namespaces/inkscape"
   width="210mm"
   height="297mm"
   viewBox="0 0 744.09448819 1052.3622047"
   id="svg2"
   version="1.1"
   inkscape:version="0.91 r13725"
   sodipodi:docname="9_11.svg">
  <defs
     id="defs4" />
  <sodipodi:namedview
     id="base"
     pagecolor="#ffffff"
     bordercolor="#666666"
     borderopacity="1.0"
     inkscape:pageopacity="0.0"
     inkscape:pageshadow="2"
     inkscape:zoom="1.1862641"
     inkscape:cx="-33.562247"
     inkscape:cy="872.42589"
     inkscape:document-units="px"
     inkscape:current-layer="layer1"
     showgrid="false"
     inkscape:window-width="2560"
     inkscape:window-height="1315"
     inkscape:window-x="247"
     inkscape:window-y="0"
     inkscape:window-maximized="0" />
  <metadata
     id="metadata7">
    <rdf:RDF>
      <cc:Work
         rdf:about="">
        <dc:format>image/svg+xml</dc:format>
        <dc:type
           rdf:resource="http://purl.org/dc/dcmitype/StillImage" />
        <dc:title />
      </cc:Work>
    </rdf:RDF>
  </metadata>
  <g
     inkscape:label="Layer 1"
     inkscape:groupmode="layer"
     id="layer1">
    <path
       style="fill:none;fill-rule:evenodd;stroke:#0000ff;stroke-width:12.38738537;stroke-linecap:butt;stroke-linejoin:miter;stroke-miterlimit:4;stroke-dasharray:none;stroke-opacity:1"
       d="M  -141.454165007583 , -333.965430206773 C  -40.3887643569161 , -330.17317180908 23.500052215542 , -279.064062240199 111.54522185814 , -197.687149148852 199.590391500737 , -116.310236057506 215.411105858614 , -66.7499904605195 220.83879158798 , -46.8293066182545 226.266477317346 , -26.9086227759895 232.929574938468 , 6.83090239987964 219.764084005834 , 59.4760494607307 206.5985930732 , 112.121196521582 175.507164995838 , 136.965745201052 140.671950240429 , 260.216082919074 105.83673548502 , 383.466420637097 109.164457106778 , 429.074482482426 63.9300163131323 , 469.850438715337 18.6955755194866 , 510.626394948248 -43.1821725510512 , 511.09864611785 -89.9284133648869 , 478.167093399938 -136.674654178723 , 445.235540682027 -142.288027348275 , 404.928794393234 -189.911430201798 , 304.135187294091 -237.534833055321 , 203.341580194948 -266.069947865494 , 172.28847731731 -282.75403900773 , 119.621676809551 -299.438130149966 , 66.9548763017922 -296.541975710744 , 30.6827731177315 -295.28046896441 , 17.7796330117175 -294.018962218076 , 4.87649290570356 -284.75269674519 , -84.9322088253922 -204.320245531264 , -120.578065511938 -123.887794317337 , -156.223922198484 -56.4385813375368 , -111.017439518421 -7.88771683222911 , -74.0804153208825 40.6631476730786 , -37.143391123344 235.593260976641 , 134.18872818275 253.005057582452 , 220.339373582283 270.416854188263 , 306.490018981816 219.33456364832 , 356.505173384104 183.890457804477 , 377.412879335035 148.446351960634 , 398.320585285966 115.541195583601 , 403.908503991477 0 , 403.908503991477 -115.541195583601 , 403.908503991477 -162.308493957762 , 429.792947436694 -221.369259631977 , 402.710247521158 -280.430025306192 , 375.627547605622 -300.621029428062 , 319.036935685674 -290.749425378031 , 270.509241952845 -280.877821328001 , 221.981548220016 -246.484573033312 , 177.153980567916 -96.3240214133666 , 102.214419529517 53.8365302065784 , 27.2748584911175 83.7894414919807 , -7.6646608720972 133.362594003274 , -53.5790076389824 182.935746514567 , -99.4933544058675 232.192379670405 , -142.993459071343 232.008445943103 , -210.892278961376 231.824512215801 , -278.79109885141 176.722960804545 , -328.335894597342 110.174050669313 , -323.150060193788 43.6251405340813 , -317.964225790235 3.02791860755163 , -265.781255043178 -34.4860268110822 , -203.164479974193 -71.999972229716 , -140.547704905208 -97.7061138543563 , -72.086746741456 -175.662620315499 , -48.180384993951 -253.619126776642 , -24.2740232464459 -342.445041537452 , -81.2681768731046 -339.130288311652 , -177.135371174555 -335.815535085851 , -273.002565476005 -242.51956565825 , -337.757688604466 -141.454165007583 , -333.965430206773 Z "
       id="path4201"
       inkscape:connector-curvature="0"
       sodipodi:nodetypes="zzzzzzzzzzzzzzzzzzzzzzzzz" />
  </g>
</svg>
