<?xml version="1.0" encoding="UTF-8" standalone="no"?>
<!-- Created with Inkscape (http://www.inkscape.org/) -->

<svg
   xmlns:dc="http://purl.org/dc/elements/1.1/"
   xmlns:cc="http://creativecommons.org/ns#"
   xmlns:rdf="http://www.w3.org/1999/02/22-rdf-syntax-ns#"
   xmlns:svg="http://www.w3.org/2000/svg"
   xmlns="http://www.w3.org/2000/svg"
   xmlns:sodipodi="http://sodipodi.sourceforge.net/DTD/sodipodi-0.dtd"
   xmlns:inkscape="http://www.inkscape.org/namespaces/inkscape"
   width="210mm"
   height="297mm"
   viewBox="0 0 744.09448819 1052.3622047"
   id="svg2"
   version="1.1"
   inkscape:version="0.91 r13725"
   sodipodi:docname="9_12.svg">
  <defs
     id="defs4" />
  <sodipodi:namedview
     id="base"
     pagecolor="#ffffff"
     bordercolor="#666666"
     borderopacity="1.0"
     inkscape:pageopacity="0.0"
     inkscape:pageshadow="2"
     inkscape:zoom="0.79912109"
     inkscape:cx="416.37798"
     inkscape:cy="440.363"
     inkscape:document-units="px"
     inkscape:current-layer="layer1"
     showgrid="false"
     inkscape:window-width="2560"
     inkscape:window-height="1315"
     inkscape:window-x="83"
     inkscape:window-y="0"
     inkscape:window-maximized="0" />
  <metadata
     id="metadata7">
    <rdf:RDF>
      <cc:Work
         rdf:about="">
        <dc:format>image/svg+xml</dc:format>
        <dc:type
           rdf:resource="http://purl.org/dc/dcmitype/StillImage" />
        <dc:title></dc:title>
      </cc:Work>
    </rdf:RDF>
  </metadata>
  <g
     inkscape:label="Layer 1"
     inkscape:groupmode="layer"
     id="layer1">
    <path
       style="fill:none;fill-rule:evenodd;stroke:#00ff00;stroke-width:15.52046585;stroke-linecap:butt;stroke-linejoin:miter;stroke-miterlimit:4;stroke-dasharray:none;stroke-opacity:1"
       d="M  0 , 70.3362738591864 C  8.7831258540297 , 70.3362738591864 40.0063114428956 , 70.6485862013903 75.3466885396328 , 84.2843617789874 110.68706563637 , 97.9201373565845 154.126919622235 , 124.723004360246 212.970978513635 , 214.719809263431 271.815037405035 , 304.716614166617 298.835403418935 , 413.105311281681 305.130413493729 , 514.228810359127 311.425423568522 , 615.352309436574 296.930893768742 , 686.037734794759 281.433210032246 , 733.496955694037 265.935526295749 , 780.956176593315 224.02756680093 , 872.304211944171 133.56410722625 , 898.490754227833 43.1006476515702 , 924.677296511494 -28.7704573763596 , 867.747206225779 -26.6125439932828 , 793.770320004539 -24.454630610206 , 719.793433783298 17.0758402294177 , 700.590820519032 18.8968243269336 , 632.75240757476 20.7178084244496 , 564.913994630489 -28.0884289681483 , 548.21991624308 -52.7724284276308 , 481.10656710276 -77.4564278871132 , 413.993217962441 -42.5885227452931 , 353.416194177486 -21.6227092364711 , 317.043886853341 -0.656895727649008 , 280.671579529197 32.5506101037785 , 233.755826634138 81.5552095333508 , 185.619285812773 130.559808962923 , 137.482744991409 188.460993549777 , 88.4700068145966 261.33869545206 , 100.959789965812 334.216397354342 , 113.449573117028 375.285886387389 , 182.714555926562 353.0802994065 , 248.661863716788 330.87471242561 , 314.609171507013 251.065216196353 , 355.851931450537 161.413622150989 , 326.261939159383 71.7620281056259 , 296.671946868228 -0.396693577098315 , 226.774357863117 -54.6784240547559 , 185.233892568434 -108.960154532413 , 143.693427273751 -161.007596176693 , 106.941935632029 -221.885086291232 , 122.535358308343 -282.762576405772 , 138.128780984658 -315.031479266629 , 201.512646674231 -288.304597595175 , 260.833739946795 -261.577715923721 , 320.154833219359 -195.228549841141 , 342.878368712617 -133.226551133785 , 367.556364229967 -71.2245524264284 , 392.234359747316 -21.175492684693 , 411.080731359328 -5.61224430085646 , 472.77043124462 9.95100408298003 , 534.460131129912 -20.7178084244496 , 564.913994630489 -18.8968243269336 , 632.75240757476 -17.0758402294177 , 700.590820519032 24.454630610206 , 719.793433783298 26.6125439932828 , 793.770320004539 28.7704573763596 , 867.747206225779 -43.1006476515702 , 924.677296511494 -133.56410722625 , 898.490754227833 -224.02756680093 , 872.304211944171 -265.935526295749 , 780.956176593315 -281.433210032246 , 733.496955694037 -296.930893768742 , 686.037734794759 -311.70109521417 , 602.063225524613 -288.918214580064 , 488.662207541573 -266.135333945957 , 375.261189558532 -230.112224073677 , 314.699371218673 -181.326109203493 , 223.611204139632 -132.539994333309 , 132.523037060591 -100.533709960381 , 103.91630185827 -68.6300366471473 , 87.4208466846019 -36.726363333914 , 70.9253915109337 -8.7831258540297 , 70.3362738591864 0 , 70.3362738591864 Z "
       id="path4201"
       inkscape:connector-curvature="0"
       sodipodi:nodetypes="zzzzzzzzzzzzzzzzzzzzzzzzzzz" />
  </g>
</svg>
