<?xml version="1.0" encoding="UTF-8" standalone="no"?>
<!-- Created with Inkscape (http://www.inkscape.org/) -->

<svg
   xmlns:dc="http://purl.org/dc/elements/1.1/"
   xmlns:cc="http://creativecommons.org/ns#"
   xmlns:rdf="http://www.w3.org/1999/02/22-rdf-syntax-ns#"
   xmlns:svg="http://www.w3.org/2000/svg"
   xmlns="http://www.w3.org/2000/svg"
   xmlns:sodipodi="http://sodipodi.sourceforge.net/DTD/sodipodi-0.dtd"
   xmlns:inkscape="http://www.inkscape.org/namespaces/inkscape"
   width="210mm"
   height="297mm"
   viewBox="0 0 744.09448819 1052.3622047"
   id="svg2"
   version="1.1"
   inkscape:version="0.91 r13725"
   sodipodi:docname="9_12.svg">
  <defs
     id="defs4" />
  <sodipodi:namedview
     id="base"
     pagecolor="#ffffff"
     bordercolor="#666666"
     borderopacity="1.0"
     inkscape:pageopacity="0.0"
     inkscape:pageshadow="2"
     inkscape:zoom="0.79912109"
     inkscape:cx="416.37798"
     inkscape:cy="440.363"
     inkscape:document-units="px"
     inkscape:current-layer="layer1"
     showgrid="false"
     inkscape:window-width="2560"
     inkscape:window-height="1315"
     inkscape:window-x="83"
     inkscape:window-y="0"
     inkscape:window-maximized="0" />
  <metadata
     id="metadata7">
    <rdf:RDF>
      <cc:Work
         rdf:about="">
        <dc:format>image/svg+xml</dc:format>
        <dc:type
           rdf:resource="http://purl.org/dc/dcmitype/StillImage" />
        <dc:title></dc:title>
      </cc:Work>
    </rdf:RDF>
  </metadata>
  <g
     inkscape:label="Layer 1"
     inkscape:groupmode="layer"
     id="layer1">
    <path
       style="fill:none;fill-rule:evenodd;stroke:#00ff00;stroke-width:15.52046585;stroke-linecap:butt;stroke-linejoin:miter;stroke-miterlimit:4;stroke-dasharray:none;stroke-opacity:1"
       d="M  0 , 72.9828570914791 C  7.52304257370925 , 72.9828570914791 42.1504368775344 , 73.1478717547655 79.3357191443202 , 92.6094634671244 116.521001411106 , 112.071055179483 142.059750460868 , 141.523375416572 192.57708655109 , 226.845971560646 243.094422641312 , 312.16856770472 260.585711296994 , 377.585440811106 276.490969275409 , 479.578147532703 292.396227253825 , 581.5708542543 285.679095728985 , 649.063143701246 282.31310646737 , 675.959819571927 278.947117205754 , 702.856495442608 260.609925017704 , 842.43460663499 156.860741888334 , 901.109954059139 53.1115587589637 , 959.785301483287 -40.495830367007 , 882.513971694311 -35.1933808236338 , 797.322896835765 -29.8909312802606 , 712.131821977219 35.6070506427334 , 721.389652252935 36.2543045071733 , 633.807085356227 36.9015583716132 , 546.224518459518 -31.9348321359143 , 557.715226936964 -65.5470737247106 , 486.687716164979 -99.1593153135068 , 415.660205392994 -56.8094580085331 , 358.751421306628 -27.5822982797847 , 317.68883218163 1.64486144896368 , 276.626243056631 31.4836269255843 , 239.764017788078 78.2871761068658 , 194.168935261266 125.090725288147 , 148.573852734455 171.28018639907 , 101.71405809265 238.376540619248 , 111.671796617954 305.472894839426 , 121.629535143259 347.40482458314 , 187.769657865613 324.229580631869 , 253.832501937129 301.054336680599 , 319.895346008645 220.778374862707 , 359.569848644414 138.13666243336 , 330.497769742278 55.4949500040125 , 301.425690840143 5.56465434930616 , 244.906236923284 -53.3597926628195 , 197.117026481975 -112.284239674945 , 149.327816040667 -156.341170179289 , 110.011734314249 -218.660909052527 , 124.094326274919 -280.980647925766 , 138.176918235589 -312.709532669481 , 203.874500460695 -284.306451619731 , 262.168814996377 -255.903370569982 , 320.46312953206 -190.550949273328 , 338.944241994148 -136.164829342334 , 356.398068858517 -81.7787094113409 , 373.851895722886 -6.35606318324529 , 391.734405706666 6.48234634287181 , 468.467477265382 19.3207558689889 , 545.200548824098 -36.9015583716132 , 546.224518459518 -36.2543045071733 , 633.807085356227 -35.6070506427334 , 721.389652252935 29.8909312802606 , 712.131821977219 35.1933808236338 , 797.322896835765 40.495830367007 , 882.513971694311 -53.1115587589637 , 959.785301483287 -156.860741888334 , 901.109954059139 -260.609925017704 , 842.43460663499 -278.947117205754 , 702.856495442608 -282.31310646737 , 675.959819571927 -285.679095728985 , 649.063143701246 -293.881489095521 , 568.825077667649 -271.251382068123 , 467.138178936821 -248.621275040725 , 365.451280205993 -216.988151361433 , 321.485792793973 -170.18157406528 , 230.226315832525 -123.374996769127 , 138.966838871076 -102.765789024704 , 112.533032266301 -70.1293284991429 , 92.931151919703 -37.4928679735813 , 73.3292715731051 -7.52304257370925 , 72.9828570914791 0 , 72.9828570914791 Z "
       id="path4201"
       inkscape:connector-curvature="0"
       sodipodi:nodetypes="zzzzzzzzzzzzzzzzzzzzzzzzzzz" />
  </g>
</svg>
