<?xml version="1.0" encoding="UTF-8" standalone="no"?>
<!-- Created with Inkscape (http://www.inkscape.org/) -->

<svg
   xmlns:dc="http://purl.org/dc/elements/1.1/"
   xmlns:cc="http://creativecommons.org/ns#"
   xmlns:rdf="http://www.w3.org/1999/02/22-rdf-syntax-ns#"
   xmlns:svg="http://www.w3.org/2000/svg"
   xmlns="http://www.w3.org/2000/svg"
   xmlns:sodipodi="http://sodipodi.sourceforge.net/DTD/sodipodi-0.dtd"
   xmlns:inkscape="http://www.inkscape.org/namespaces/inkscape"
   width="210mm"
   height="297mm"
   viewBox="0 0 744.09448819 1052.3622047"
   id="svg2"
   version="1.1"
   inkscape:version="0.91 r13725"
   sodipodi:docname="9_12.svg">
  <defs
     id="defs4" />
  <sodipodi:namedview
     id="base"
     pagecolor="#ffffff"
     bordercolor="#666666"
     borderopacity="1.0"
     inkscape:pageopacity="0.0"
     inkscape:pageshadow="2"
     inkscape:zoom="0.79912109"
     inkscape:cx="416.37798"
     inkscape:cy="440.363"
     inkscape:document-units="px"
     inkscape:current-layer="layer1"
     showgrid="false"
     inkscape:window-width="2560"
     inkscape:window-height="1315"
     inkscape:window-x="83"
     inkscape:window-y="0"
     inkscape:window-maximized="0" />
  <metadata
     id="metadata7">
    <rdf:RDF>
      <cc:Work
         rdf:about="">
        <dc:format>image/svg+xml</dc:format>
        <dc:type
           rdf:resource="http://purl.org/dc/dcmitype/StillImage" />
        <dc:title></dc:title>
      </cc:Work>
    </rdf:RDF>
  </metadata>
  <g
     inkscape:label="Layer 1"
     inkscape:groupmode="layer"
     id="layer1">
    <path
       style="fill:none;fill-rule:evenodd;stroke:#00ff00;stroke-width:15.52046585;stroke-linecap:butt;stroke-linejoin:miter;stroke-miterlimit:4;stroke-dasharray:none;stroke-opacity:1"
       d="M  0 , 70.3833463479941 C  8.49628856523978 , 70.3833463479941 39.7092655900777 , 70.669651883129 74.9580045266786 , 84.2762934156086 110.206743463279 , 97.8829349480882 153.82000342868 , 124.889987899909 212.294019945661 , 214.140457675322 270.768036462642 , 303.390927450734 298.035915659159 , 402.772076458031 305.531961222555 , 515.314757930878 313.028006785951 , 627.857439403725 293.584905079417 , 701.426565109023 279.971107781818 , 740.30304009098 266.357310484218 , 779.179515072937 225.164935788863 , 872.833317635917 133.360385500108 , 898.726309328251 41.5558352113524 , 924.619301020584 -28.8263810781138 , 866.425218635537 -26.5401224831356 , 793.277252248088 -24.2538638881574 , 720.129285860638 16.95181689147 , 700.687779741297 18.8593768204566 , 632.959782463289 20.7669367494432 , 565.231785185282 -28.5432955270874 , 548.279868125514 -53.6471287633654 , 481.235495331374 -78.7509619996434 , 414.191122537233 -44.2717324647148 , 353.984148607849 -22.9554718548973 , 317.149398839589 -1.63921124507977 , 280.314649071328 33.0202254559236 , 232.049207464489 81.1147411746059 , 185.087227602228 129.209256893288 , 138.125247739967 187.544896156894 , 87.8522946261378 261.282908547942 , 100.596554555309 335.020920938991 , 113.34081448448 375.674975276937 , 184.108844918747 351.829860930054 , 250.117860572942 327.98474658317 , 316.126876227136 246.833405171217 , 355.113745665977 158.033899321514 , 324.426845197708 69.2343934718122 , 293.739944729439 5.4799769620216 , 229.901516165266 -53.4574406719171 , 185.501010340944 -112.394858305856 , 141.100504516623 -162.789907719947 , 107.267457230289 -222.238071756321 , 122.764140363512 -281.686235792694 , 138.260823496735 -313.78561833737 , 200.053301463294 -288.320380667879 , 259.115287474352 -262.855142998389 , 318.177273485411 -198.471397160945 , 341.484099573226 -135.344987439737 , 367.033728286343 -72.2185777185285 , 392.583356999459 -22.3138441464202 , 411.186217753846 -6.38061975517618 , 472.865028490537 9.5526046360678 , 534.543839227229 -20.7669367494432 , 565.231785185282 -18.8593768204566 , 632.959782463289 -16.95181689147 , 700.687779741297 24.2538638881574 , 720.129285860638 26.5401224831356 , 793.277252248088 28.8263810781138 , 866.425218635537 -41.5558352113524 , 924.619301020584 -133.360385500108 , 898.726309328251 -225.164935788863 , 872.833317635917 -266.357310484218 , 779.179515072937 -279.971107781818 , 740.30304009098 -293.584905079417 , 701.426565109023 -314.022995634668 , 619.021458634397 -291.604178156126 , 497.796312151184 -269.185360677584 , 376.57116566797 -230.371255069242 , 313.441499928355 -181.568269807843 , 223.171014852486 -132.765284546443 , 132.900529776617 -100.671777794404 , 103.971004227423 -68.6106885623099 , 87.4342401766789 -36.5495993302158 , 70.8974761259348 -8.49628856523978 , 70.3833463479941 0 , 70.3833463479941 Z "
       id="path4201"
       inkscape:connector-curvature="0"
       sodipodi:nodetypes="zzzzzzzzzzzzzzzzzzzzzzzzzzz" />
  </g>
</svg>
