<?xml version="1.0" encoding="UTF-8" standalone="no"?>
<!-- Created with Inkscape (http://www.inkscape.org/) -->

<svg
   xmlns:dc="http://purl.org/dc/elements/1.1/"
   xmlns:cc="http://creativecommons.org/ns#"
   xmlns:rdf="http://www.w3.org/1999/02/22-rdf-syntax-ns#"
   xmlns:svg="http://www.w3.org/2000/svg"
   xmlns="http://www.w3.org/2000/svg"
   xmlns:sodipodi="http://sodipodi.sourceforge.net/DTD/sodipodi-0.dtd"
   xmlns:inkscape="http://www.inkscape.org/namespaces/inkscape"
   width="210mm"
   height="297mm"
   viewBox="0 0 744.09448819 1052.3622047"
   id="svg2"
   version="1.1"
   inkscape:version="0.91 r13725"
   sodipodi:docname="9_13.svg">
  <defs
     id="defs4" />
  <sodipodi:namedview
     id="base"
     pagecolor="#ffffff"
     bordercolor="#666666"
     borderopacity="1.0"
     inkscape:pageopacity="0.0"
     inkscape:pageshadow="2"
     inkscape:zoom="1.5982422"
     inkscape:cx="277.70561"
     inkscape:cy="520"
     inkscape:document-units="px"
     inkscape:current-layer="layer1"
     showgrid="false"
     inkscape:window-width="2560"
     inkscape:window-height="1315"
     inkscape:window-x="0"
     inkscape:window-y="1"
     inkscape:window-maximized="1" />
  <metadata
     id="metadata7">
    <rdf:RDF>
      <cc:Work
         rdf:about="">
        <dc:format>image/svg+xml</dc:format>
        <dc:type
           rdf:resource="http://purl.org/dc/dcmitype/StillImage" />
        <dc:title></dc:title>
      </cc:Work>
    </rdf:RDF>
  </metadata>
  <g
     inkscape:label="Layer 1"
     inkscape:groupmode="layer"
     id="layer1">
    <path
       style="fill:none;fill-rule:evenodd;stroke:#0000ff;stroke-width:12.55928326;stroke-linecap:butt;stroke-linejoin:miter;stroke-miterlimit:4;stroke-dasharray:none;stroke-opacity:1"
       d="M  0 , 14.7864588576187 C  83.7081408567289 , 14.7864588576187 80.6910000918814 , 43.3759193389405 186.357878908635 , 78.7157091017384 292.024757725388 , 114.055498864536 341.000626206875 , 95.541951501326 386.152046406074 , 155.527106662213 431.303466605273 , 215.5122618231 401.820669168356 , 276.532933713607 374.624107263396 , 302.483260572344 347.427545358435 , 328.43358743108 274.911175206382 , 373.109181357742 127.336919573924 , 278.938858871242 -20.2373360585329 , 184.768536384742 -123.208727175902 , 39.7710852133283 -212.718108943491 , 29.7434813117397 -302.22749071108 , 19.7158774101512 -357.519312042746 , 105.715151216543 -324.238475210721 , 181.581238382124 -290.957638378697 , 257.447325547705 -205.050201259726 , 280.273585741068 -156.253466363748 , 292.855773163492 -107.456731467769 , 305.437960585916 -8.62639304091269 , 324.86841562322 3.00041899138595 , 409.65893809512 14.6272310236846 , 494.449460567021 -33.7469788305553 , 489.208362946882 -39.1531616040772 , 580.044969351241 -44.559344377599 , 670.881575755601 54.3109719806543 , 755.989655114389 161.76976256889 , 695.070568783334 269.228553157125 , 634.151482452279 279.367540155391 , 489.515709828933 282.28480044793 , 442.741925521375 285.202060740469 , 395.968141213818 281.622561213357 , 313.005771491407 289.830707530629 , 213.892696684955 298.0388538479 , 114.779621878504 324.396564050714 , 84.5091106957659 299.028409233851 , 27.6822343201838 273.660254416988 , -29.1446420553982 209.682889565092 , -52.6392671054171 152.382890190228 , -26.5667952674517 95.0828908153643 , -0.494323429486279 91.8473133829522 , 41.0193633413732 44.8768008110044 , 108.092959986948 -2.09371176094351 , 175.166556632523 -21.2810793393256 , 183.734980506675 -53.7520801307815 , 240.393961477539 -86.2230809222374 , 297.052942448404 -119.965930599552 , 358.053380625123 -77.7564463032541 , 431.478933478716 -35.5469620069562 , 504.904486332308 33.7469788305553 , 489.208362946882 39.1531616040772 , 580.044969351241 44.559344377599 , 670.881575755601 -54.3109719806543 , 755.989655114389 -161.76976256889 , 695.070568783334 -269.228553157125 , 634.151482452279 -287.16537129231 , 482.687023463823 -278.664442336399 , 404.768251057056 -270.163513380489 , 326.849478650288 -235.721129969432 , 250.865787347897 -180.057331160319 , 165.238088872284 -124.393532351206 , 79.6103903966718 -83.7081408567289 , 14.7864588576187 0 , 14.7864588576187 Z "
       id="path4201"
       inkscape:connector-curvature="0"
       sodipodi:nodetypes="zzzzzzzzzzzzzzzzzzzzzzz" />
  </g>
</svg>
