<?xml version="1.0" encoding="UTF-8" standalone="no"?>
<!-- Created with Inkscape (http://www.inkscape.org/) -->

<svg
   xmlns:dc="http://purl.org/dc/elements/1.1/"
   xmlns:cc="http://creativecommons.org/ns#"
   xmlns:rdf="http://www.w3.org/1999/02/22-rdf-syntax-ns#"
   xmlns:svg="http://www.w3.org/2000/svg"
   xmlns="http://www.w3.org/2000/svg"
   xmlns:sodipodi="http://sodipodi.sourceforge.net/DTD/sodipodi-0.dtd"
   xmlns:inkscape="http://www.inkscape.org/namespaces/inkscape"
   width="210mm"
   height="297mm"
   viewBox="0 0 744.09448819 1052.3622047"
   id="svg2"
   version="1.1"
   inkscape:version="0.91 r13725"
   sodipodi:docname="9_13.svg">
  <defs
     id="defs4" />
  <sodipodi:namedview
     id="base"
     pagecolor="#ffffff"
     bordercolor="#666666"
     borderopacity="1.0"
     inkscape:pageopacity="0.0"
     inkscape:pageshadow="2"
     inkscape:zoom="1.5982422"
     inkscape:cx="277.70561"
     inkscape:cy="520"
     inkscape:document-units="px"
     inkscape:current-layer="layer1"
     showgrid="false"
     inkscape:window-width="2560"
     inkscape:window-height="1315"
     inkscape:window-x="0"
     inkscape:window-y="1"
     inkscape:window-maximized="1" />
  <metadata
     id="metadata7">
    <rdf:RDF>
      <cc:Work
         rdf:about="">
        <dc:format>image/svg+xml</dc:format>
        <dc:type
           rdf:resource="http://purl.org/dc/dcmitype/StillImage" />
        <dc:title></dc:title>
      </cc:Work>
    </rdf:RDF>
  </metadata>
  <g
     inkscape:label="Layer 1"
     inkscape:groupmode="layer"
     id="layer1">
    <path
       style="fill:none;fill-rule:evenodd;stroke:#0000ff;stroke-width:12.55928326;stroke-linecap:butt;stroke-linejoin:miter;stroke-miterlimit:4;stroke-dasharray:none;stroke-opacity:1"
       d="M  0 , 18.9257638984108 C  77.6633823848337 , 18.9257638984108 86.6965744401503 , 38.1972515317105 189.462895465402 , 66.6853439013045 292.229216490653 , 95.1734362708985 350.122557936579 , 98.6309134776775 388.900592440924 , 156.561857784916 427.678626945269 , 214.492802092155 405.884867293037 , 272.794750364838 378.009533493838 , 301.945933244157 350.13419969464 , 331.097116123476 270.888906514322 , 379.017104765002 129.946900023904 , 278.327733535803 -10.995106466515 , 177.638362306604 -118.438581139517 , 31.9265495899193 -216.751364266313 , 24.9673734222797 -315.064147393109 , 18.0081972546401 -359.984066163818 , 108.69875879405 -325.570944978143 , 179.842295399868 -291.157823792469 , 250.985832005686 -207.821577439781 , 275.035402670207 -150.509247133274 , 294.937809549225 -93.1969168267681 , 314.840216428242 -25.3330970878072 , 335.2323732443 -8.10165216099164 , 408.829624570463 9.12979276582393 , 482.426875896626 -29.4955800956033 , 509.98856192904 -32.9588674343955 , 594.818949115995 -36.4221547731877 , 679.649336302951 53.2472153902836 , 754.683826402169 160.063378188245 , 698.357766460845 266.879540986206 , 642.031706519522 284.070345264571 , 493.948117632845 288.803020164768 , 443.193452885816 293.535695064965 , 392.438788138788 293.305459421364 , 313.60467663635 301.710442552226 , 219.158772749836 310.115425683088 , 124.712868863323 323.122889368463 , 77.661508086678 296.282616348906 , 27.4357293665599 269.442343329349 , -22.7900493535582 212.747538908108 , -46.8572312331788 157.071544746078 , -28.4929415137469 101.395550584048 , -10.1286517943151 79.3821688074019 , 33.0649722643427 37.37484437458 , 100.37102388428 -4.63248005824182 , 167.677075504217 -17.7422169044344 , 180.41387697015 -43.5378489376213 , 235.685336873185 -69.3334809708083 , 290.95679677622 -96.4325956534032 , 348.5087712672 -64.8163263808898 , 422.834404643948 -33.2000571083764 , 497.160038020696 29.4955800956033 , 509.98856192904 32.9588674343955 , 594.818949115995 36.4221547731877 , 679.649336302951 -53.2472153902836 , 754.683826402169 -160.063378188245 , 698.357766460845 -266.879540986206 , 642.031706519522 -288.046414285468 , 487.386275695846 -281.445080918811 , 402.949747381184 -274.843747552154 , 318.513219066522 -244.944957644551 , 244.770550578597 -191.870715450532 , 161.937742369451 -138.796473256514 , 79.1049341603058 -77.6633823848337 , 18.9257638984108 0 , 18.9257638984108 Z "
       id="path4201"
       inkscape:connector-curvature="0"
       sodipodi:nodetypes="zzzzzzzzzzzzzzzzzzzzzzz" />
  </g>
</svg>
