<?xml version="1.0" encoding="UTF-8" standalone="no"?>
<!-- Created with Inkscape (http://www.inkscape.org/) -->

<svg
   xmlns:dc="http://purl.org/dc/elements/1.1/"
   xmlns:cc="http://creativecommons.org/ns#"
   xmlns:rdf="http://www.w3.org/1999/02/22-rdf-syntax-ns#"
   xmlns:svg="http://www.w3.org/2000/svg"
   xmlns="http://www.w3.org/2000/svg"
   xmlns:sodipodi="http://sodipodi.sourceforge.net/DTD/sodipodi-0.dtd"
   xmlns:inkscape="http://www.inkscape.org/namespaces/inkscape"
   width="210mm"
   height="297mm"
   viewBox="0 0 744.09448819 1052.3622047"
   id="svg2"
   version="1.1"
   inkscape:version="0.91 r13725"
   sodipodi:docname="9_14.svg">
  <defs
     id="defs4" />
  <sodipodi:namedview
     id="base"
     pagecolor="#ffffff"
     bordercolor="#666666"
     borderopacity="1.0"
     inkscape:pageopacity="0.0"
     inkscape:pageshadow="2"
     inkscape:zoom="1.5982422"
     inkscape:cx="283.64964"
     inkscape:cy="795.30246"
     inkscape:document-units="px"
     inkscape:current-layer="layer1"
     showgrid="false"
     inkscape:window-width="2560"
     inkscape:window-height="1315"
     inkscape:window-x="0"
     inkscape:window-y="1"
     inkscape:window-maximized="1" />
  <metadata
     id="metadata7">
    <rdf:RDF>
      <cc:Work
         rdf:about="">
        <dc:format>image/svg+xml</dc:format>
        <dc:type
           rdf:resource="http://purl.org/dc/dcmitype/StillImage" />
        <dc:title />
      </cc:Work>
    </rdf:RDF>
  </metadata>
  <g
     inkscape:label="Layer 1"
     inkscape:groupmode="layer"
     id="layer1">
    <path
       style="fill:none;fill-rule:evenodd;stroke:#000000;stroke-width:1.94600594px;stroke-linecap:butt;stroke-linejoin:miter;stroke-opacity:1"
       d="M  0 , 97.6660041269358 C  101.716860981055 , 97.6660041269358 119.167948355916 , 152.677293950689 216.937732442311 , 211.723920749675 314.707516528707 , 270.770547548662 359.461571926525 , 264.985325513195 394.240009265377 , 328.620798312684 429.018446604229 , 392.256271112174 401.151799577758 , 473.950494137232 329.722582828693 , 501.934099199171 258.293366079629 , 529.91770426111 230.67429446402 , 492.370074031627 107.563971276455 , 497.151925668621 -15.5463519111107 , 501.933777305615 -44.1049845789278 , 532.180963729645 -122.642597260286 , 533.508414696883 -201.180209941644 , 534.835865664122 -245.803492163097 , 518.066653159037 -271.626979408336 , 506.831769044446 -297.450466653574 , 495.596884929855 -382.742056276997 , 455.026691531225 -412.186485099404 , 358.37257026893 -441.630913921811 , 261.718449006634 -408.804344256915 , 191.58778868271 -382.282897298138 , 158.09739128355 -355.761450339361 , 124.60699388439 -307.184321256943 , 93.1823196486564 -248.177542466042 , 103.282429170253 -189.17076367514 , 113.38253869185 -154.777324372524 , 154.66605256941 -118.068232551136 , 226.136175283604 -81.3591407297482 , 297.606297997798 -72.5826954472306 , 333.901122024234 -50.7758943029339 , 423.357372211475 -28.9690931586372 , 512.813622398716 -28.322722921659 , 558.77659154719 27.4438707772337 , 600.801898464804 83.2104644761263 , 642.827205382417 162.524824276098 , 635.691039008853 208.858751385373 , 582.532459610848 255.192678494649 , 529.373880212843 234.747965541033 , 498.270618167896 276.303154594325 , 387.180376700347 317.858343647618 , 276.090135232799 359.993505170787 , 245.041983706339 342.309674012733 , 173.320573175151 324.625842854679 , 101.599162643964 252.138946754196 , 69.8965492489767 189.765116501878 , 92.8361572914684 127.39128624956 , 115.77576533396 119.045791018636 , 158.362203391267 52.2722173314937 , 221.175134237029 -14.5013563556481 , 283.988065082791 -80.2207527471944 , 330.471456080957 -170.944542764524 , 321.139932541617 -261.668332781853 , 311.808409002277 -429.96004531956 , 210.479381752263 -543.991449799082 , 271.186500525686 -658.022854278604 , 331.89361929911 -627.684237872023 , 475.573228484854 -517.0882244774 , 498.052149239115 -406.492211082777 , 520.531069993376 -333.541057168075 , 429.869309466069 -299.97919376338 , 366.813070680417 -266.417330358685 , 303.756831894765 -277.100057540231 , 287.633325519091 -230.019542977312 , 225.13973496789 -182.939028414393 , 162.646144416689 -101.716860981055 , 97.6660041269358 0 , 97.6660041269358 Z "
       id="path4201"
       inkscape:connector-curvature="0"
       sodipodi:nodetypes="zzzzzzzzzzzzzzzzzzzzzzzz" />
  </g>
</svg>
