<?xml version="1.0" encoding="UTF-8" standalone="no"?>
<!-- Created with Inkscape (http://www.inkscape.org/) -->

<svg
   xmlns:dc="http://purl.org/dc/elements/1.1/"
   xmlns:cc="http://creativecommons.org/ns#"
   xmlns:rdf="http://www.w3.org/1999/02/22-rdf-syntax-ns#"
   xmlns:svg="http://www.w3.org/2000/svg"
   xmlns="http://www.w3.org/2000/svg"
   xmlns:sodipodi="http://sodipodi.sourceforge.net/DTD/sodipodi-0.dtd"
   xmlns:inkscape="http://www.inkscape.org/namespaces/inkscape"
   width="210mm"
   height="297mm"
   viewBox="0 0 744.09448819 1052.3622047"
   id="svg2"
   version="1.1"
   inkscape:version="0.91 r13725"
   sodipodi:docname="9_14.svg">
  <defs
     id="defs4" />
  <sodipodi:namedview
     id="base"
     pagecolor="#ffffff"
     bordercolor="#666666"
     borderopacity="1.0"
     inkscape:pageopacity="0.0"
     inkscape:pageshadow="2"
     inkscape:zoom="1.5982422"
     inkscape:cx="283.64964"
     inkscape:cy="795.30246"
     inkscape:document-units="px"
     inkscape:current-layer="layer1"
     showgrid="false"
     inkscape:window-width="2560"
     inkscape:window-height="1315"
     inkscape:window-x="0"
     inkscape:window-y="1"
     inkscape:window-maximized="1" />
  <metadata
     id="metadata7">
    <rdf:RDF>
      <cc:Work
         rdf:about="">
        <dc:format>image/svg+xml</dc:format>
        <dc:type
           rdf:resource="http://purl.org/dc/dcmitype/StillImage" />
        <dc:title />
      </cc:Work>
    </rdf:RDF>
  </metadata>
  <g
     inkscape:label="Layer 1"
     inkscape:groupmode="layer"
     id="layer1">
    <path
       style="fill:none;fill-rule:evenodd;stroke:#000000;stroke-width:1.94600594px;stroke-linecap:butt;stroke-linejoin:miter;stroke-opacity:1"
       d="M  0 , 99.4286141105349 C  103.563995394404 , 99.4286141105349 127.568653595788 , 150.687117491924 230.683501069458 , 213.602055351747 333.798348543128 , 276.516993211571 372.89203910511 , 291.41867411389 395.651364029021 , 344.15826713705 418.410688952932 , 396.897860160211 403.551941951835 , 459.110421013236 349.813673075932 , 493.283559200905 296.075404200028 , 527.456697388574 252.753298375827 , 510.197795266105 133.238737281987 , 510.61761133547 13.7241761881475 , 511.037427404835 -33.1908263871573 , 536.931334384914 -119.707192466321 , 537.347934807888 -206.223558545485 , 537.764535230861 -255.25658237043 , 519.489480541057 -279.701444454621 , 509.072125088461 -304.146306538811 , 498.654769635866 -390.849392320314 , 458.503592512141 -420.754669838778 , 361.583469100253 -450.659947357242 , 264.663345688366 -415.237306554263 , 194.685945835496 -387.41057275466 , 162.566958225958 -359.583838955056 , 130.447970616419 -313.129186899672 , 102.058866006593 -252.261249916173 , 107.967465228081 -191.393312932675 , 113.876064449569 -148.461714092755 , 152.861897448102 -112.730348071604 , 210.408966877092 -76.9989820504534 , 267.956036306082 -62.4036662227496 , 318.579463586762 -37.0801432961142 , 410.159666065248 -11.7566203694789 , 501.739868543734 0.204549240889259 , 551.384244388122 46.5909871111079 , 587.34097489145 92.9774249813266 , 623.297705394777 157.497797810119 , 628.556695447217 209.986405296605 , 591.410934601317 262.475012783092 , 554.265173755418 268.646000085285 , 507.838032559738 304.611182672364 , 399.03732194862 340.576365259442 , 290.236611337503 358.840864835105 , 249.026329946623 340.065994919487 , 194.564968024177 321.29112500387 , 140.103606101731 269.870299995083 , 104.051312696928 208.429981180274 , 109.431464444392 146.989662365466 , 114.811616191856 114.666310474003 , 155.05486300011 44.184029051155 , 207.456937979569 -26.298252371693 , 259.859012959028 -77.0735088988244 , 293.297861808345 -163.466382701292 , 301.546531241488 -249.85925650376 , 309.795200674632 -440.365271540582 , 217.601685245083 -566.523948782946 , 286.43745734114 -692.68262602531 , 355.273229437198 -643.540588349301 , 507.462537530938 -529.298186072351 , 519.858838836959 -415.0557837954 , 532.255140142981 -342.813763385775 , 432.342121189385 -308.312344628314 , 369.756473744246 -273.810925870854 , 307.170826299107 -271.989393284805 , 275.917702156494 -225.384682474131 , 216.042073204797 -178.779971663458 , 156.166444253099 -103.563995394404 , 99.4286141105349 0 , 99.4286141105349 Z "
       id="path4201"
       inkscape:connector-curvature="0"
       sodipodi:nodetypes="zzzzzzzzzzzzzzzzzzzzzzzz" />
  </g>
</svg>
