<?xml version="1.0" encoding="UTF-8" standalone="no"?>
<!-- Created with Inkscape (http://www.inkscape.org/) -->

<svg
   xmlns:dc="http://purl.org/dc/elements/1.1/"
   xmlns:cc="http://creativecommons.org/ns#"
   xmlns:rdf="http://www.w3.org/1999/02/22-rdf-syntax-ns#"
   xmlns:svg="http://www.w3.org/2000/svg"
   xmlns="http://www.w3.org/2000/svg"
   xmlns:sodipodi="http://sodipodi.sourceforge.net/DTD/sodipodi-0.dtd"
   xmlns:inkscape="http://www.inkscape.org/namespaces/inkscape"
   width="210mm"
   height="297mm"
   viewBox="0 0 744.09448819 1052.3622047"
   id="svg4204"
   version="1.1"
   inkscape:version="0.91 r13725"
   sodipodi:docname="9_15.svg">
  <defs
     id="defs4206" />
  <sodipodi:namedview
     id="base"
     pagecolor="#ffffff"
     bordercolor="#666666"
     borderopacity="1.0"
     inkscape:pageopacity="0.0"
     inkscape:pageshadow="2"
     inkscape:zoom="0.79912109"
     inkscape:cx="258.62214"
     inkscape:cy="995.52243"
     inkscape:document-units="px"
     inkscape:current-layer="layer1"
     showgrid="false"
     inkscape:window-width="2560"
     inkscape:window-height="1315"
     inkscape:window-x="0"
     inkscape:window-y="1"
     inkscape:window-maximized="1" />
  <metadata
     id="metadata4209">
    <rdf:RDF>
      <cc:Work
         rdf:about="">
        <dc:format>image/svg+xml</dc:format>
        <dc:type
           rdf:resource="http://purl.org/dc/dcmitype/StillImage" />
        <dc:title />
      </cc:Work>
    </rdf:RDF>
  </metadata>
  <g
     inkscape:label="Layer 1"
     inkscape:groupmode="layer"
     id="layer1">
    <path
       style="fill:none;fill-rule:evenodd;stroke:#0000ff;stroke-width:24.55692291;stroke-linecap:butt;stroke-linejoin:miter;stroke-miterlimit:4;stroke-dasharray:none;stroke-opacity:1"
       d="M  -104.515786123782 , -430.139355330398 C  -88.9438305753849 , -488.656945234784 -41.1774316483407 , -515.181418143769 0 , -515.181418143769 41.1774316483407 , -515.181418143769 88.9438305753849 , -488.656945234784 104.515786123782 , -430.139355330398 120.08774167218 , -371.621765426011 95.2583604458015 , -314.936029579372 52.6560422043713 , -263.213271626018 10.0537239629411 , -211.490513672663 -47.163438313014 , -186.081232900699 -38.6534595786735 , -103.324203411619 -30.1434808443329 , -20.567173922539 26.2093407699483 , -25.1844465581196 36.2495281286739 , 48.1191632261651 46.2897154873994 , 121.42277301045 -7.65485307754314 , 157.711713984037 -52.2277674768713 , 195.292399807605 -96.8006818761995 , 232.873085631173 -154.490268046837 , 272.799217106445 -190.725902519703 , 352.193870927952 -226.961536992568 , 431.588524749458 -205.379595562569 , 537.779541830319 -118.204370505627 , 568.697614023033 -31.0291454486851 , 599.615686215748 39.0421501332835 , 524.004826346906 39.8875664931018 , 449.891245017073 40.73298285292 , 375.777663687241 -4.92834029871987 , 350.072884968045 -52.9106053342233 , 302.439636635785 -100.892870369727 , 254.806388303525 -151.390993607356 , 210.363106634544 -194.263385609999 , 111.669347529352 -237.135777612641 , 12.9755884241605 -243.285648650013 , -109.530356069393 -198.5671751543 , -208.686190958534 -153.848701658588 , -307.842025847676 -73.6953852854814 , -344.100916196338 0 , -344.100916196338 73.6953852854814 , -344.100916196338 153.848701658588 , -307.842025847676 198.5671751543 , -208.686190958534 243.285648650013 , -109.530356069393 237.135777612641 , 12.9755884241605 194.263385609999 , 111.669347529352 151.390993607356 , 210.363106634544 100.892870369727 , 254.806388303525 52.9106053342233 , 302.439636635785 4.92834029871986 , 350.072884968045 -40.73298285292 , 375.777663687241 -39.8875664931018 , 449.891245017073 -39.0421501332835 , 524.004826346906 31.0291454486851 , 599.615686215748 118.204370505627 , 568.697614023033 205.379595562569 , 537.779541830319 226.961536992568 , 431.588524749458 190.725902519703 , 352.193870927952 154.490268046837 , 272.799217106445 96.8006818761995 , 232.873085631173 52.2277674768713 , 195.292399807605 7.65485307754314 , 157.711713984037 -46.2897154873994 , 121.42277301045 -36.2495281286739 , 48.1191632261651 -26.2093407699483 , -25.1844465581196 30.1434808443329 , -20.567173922539 38.6534595786735 , -103.324203411619 47.163438313014 , -186.081232900699 -10.0537239629411 , -211.490513672663 -52.6560422043713 , -263.213271626018 -95.2583604458015 , -314.936029579372 -120.08774167218 , -371.621765426011 -104.515786123782 , -430.139355330398 Z "
       id="path4817"
       inkscape:connector-curvature="0"
       sodipodi:nodetypes="zzzzzzzzzzzzzzzzzzzzzzzzz" />
  </g>
</svg>
