<?xml version="1.0" encoding="UTF-8" standalone="no"?>
<!-- Created with Inkscape (http://www.inkscape.org/) -->

<svg
   xmlns:dc="http://purl.org/dc/elements/1.1/"
   xmlns:cc="http://creativecommons.org/ns#"
   xmlns:rdf="http://www.w3.org/1999/02/22-rdf-syntax-ns#"
   xmlns:svg="http://www.w3.org/2000/svg"
   xmlns="http://www.w3.org/2000/svg"
   xmlns:sodipodi="http://sodipodi.sourceforge.net/DTD/sodipodi-0.dtd"
   xmlns:inkscape="http://www.inkscape.org/namespaces/inkscape"
   width="210mm"
   height="297mm"
   viewBox="0 0 744.09448819 1052.3622047"
   id="svg4204"
   version="1.1"
   inkscape:version="0.91 r13725"
   sodipodi:docname="9_15.svg">
  <defs
     id="defs4206" />
  <sodipodi:namedview
     id="base"
     pagecolor="#ffffff"
     bordercolor="#666666"
     borderopacity="1.0"
     inkscape:pageopacity="0.0"
     inkscape:pageshadow="2"
     inkscape:zoom="0.79912109"
     inkscape:cx="258.62214"
     inkscape:cy="995.52243"
     inkscape:document-units="px"
     inkscape:current-layer="layer1"
     showgrid="false"
     inkscape:window-width="2560"
     inkscape:window-height="1315"
     inkscape:window-x="0"
     inkscape:window-y="1"
     inkscape:window-maximized="1" />
  <metadata
     id="metadata4209">
    <rdf:RDF>
      <cc:Work
         rdf:about="">
        <dc:format>image/svg+xml</dc:format>
        <dc:type
           rdf:resource="http://purl.org/dc/dcmitype/StillImage" />
        <dc:title />
      </cc:Work>
    </rdf:RDF>
  </metadata>
  <g
     inkscape:label="Layer 1"
     inkscape:groupmode="layer"
     id="layer1">
    <path
       style="fill:none;fill-rule:evenodd;stroke:#0000ff;stroke-width:24.55692291;stroke-linecap:butt;stroke-linejoin:miter;stroke-miterlimit:4;stroke-dasharray:none;stroke-opacity:1"
       d="M  -103.549390438644 , -438.293529785858 C  -90.4020829164669 , -498.581160381248 -43.5542932413883 , -528.636183709442 0 , -528.636183709442 43.5542932413883 , -528.636183709442 90.4020829164669 , -498.581160381248 103.549390438644 , -438.293529785858 116.696697960822 , -378.005899190468 89.2576827976846 , -318.775137217408 51.3661047264678 , -262.215272567965 13.4745266552509 , -205.655407918522 -25.6767320531824 , -175.890143755014 -22.5012692801571 , -107.13957191171 -19.3258065071318 , -38.3890000684057 18.2389225089861 , -16.2629152083696 22.3878345926153 , 45.6574813249555 26.5367466762445 , 107.57787785828 -9.78281104395716 , 142.187619008263 -50.7205059069315 , 185.845757869052 -91.6582007699058 , 229.50389672984 -149.076850762064 , 274.352813674943 -187.595333282216 , 357.521460931883 -226.113815802368 , 440.690108188823 -207.68169138833 , 545.449461760485 -124.854738019233 , 580.682658739586 -42.0277846501363 , 615.915855718687 34.2063835521516 , 551.876897088459 38.7835855598601 , 474.18879418962 43.3607875675686 , 396.500691290781 -9.99863798314223 , 348.517533433641 -51.4461522889076 , 301.859847615078 -92.893666594673 , 255.202161796515 -145.018024379699 , 204.312954491478 -187.402156534812 , 108.040522382057 -229.786288689925 , 11.7680902726366 -242.063911751498 , -108.248639673745 -197.372301906635 , -209.539014678673 -152.680692061773 , -310.829389683602 -72.0231879513036 , -348.525396454985 0 , -348.525396454985 72.0231879513036 , -348.525396454985 152.680692061773 , -310.829389683602 197.372301906635 , -209.539014678673 242.063911751498 , -108.248639673745 229.786288689925 , 11.7680902726366 187.402156534812 , 108.040522382057 145.018024379699 , 204.312954491478 92.893666594673 , 255.202161796515 51.4461522889076 , 301.859847615078 9.99863798314223 , 348.517533433641 -43.3607875675686 , 396.500691290781 -38.7835855598601 , 474.18879418962 -34.2063835521516 , 551.876897088459 42.0277846501363 , 615.915855718687 124.854738019233 , 580.682658739586 207.68169138833 , 545.449461760485 226.113815802368 , 440.690108188823 187.595333282216 , 357.521460931883 149.076850762064 , 274.352813674943 91.6582007699058 , 229.50389672984 50.7205059069315 , 185.845757869052 9.78281104395717 , 142.187619008263 -26.5367466762445 , 107.57787785828 -22.3878345926153 , 45.6574813249555 -18.2389225089861 , -16.2629152083696 19.3258065071318 , -38.3890000684057 22.5012692801571 , -107.13957191171 25.6767320531824 , -175.890143755014 -13.4745266552509 , -205.655407918522 -51.3661047264678 , -262.215272567965 -89.2576827976846 , -318.775137217408 -116.696697960822 , -378.005899190468 -103.549390438644 , -438.293529785858 Z "
       id="path4817"
       inkscape:connector-curvature="0"
       sodipodi:nodetypes="zzzzzzzzzzzzzzzzzzzzzzzzz" />
  </g>
</svg>
