<?xml version="1.0" encoding="UTF-8" standalone="no"?>
<!-- Created with Inkscape (http://www.inkscape.org/) -->

<svg
   xmlns:dc="http://purl.org/dc/elements/1.1/"
   xmlns:cc="http://creativecommons.org/ns#"
   xmlns:rdf="http://www.w3.org/1999/02/22-rdf-syntax-ns#"
   xmlns:svg="http://www.w3.org/2000/svg"
   xmlns="http://www.w3.org/2000/svg"
   xmlns:sodipodi="http://sodipodi.sourceforge.net/DTD/sodipodi-0.dtd"
   xmlns:inkscape="http://www.inkscape.org/namespaces/inkscape"
   width="210mm"
   height="297mm"
   viewBox="0 0 744.09448819 1052.3622047"
   id="svg4204"
   version="1.1"
   inkscape:version="0.91 r13725"
   sodipodi:docname="9_15.svg">
  <defs
     id="defs4206" />
  <sodipodi:namedview
     id="base"
     pagecolor="#ffffff"
     bordercolor="#666666"
     borderopacity="1.0"
     inkscape:pageopacity="0.0"
     inkscape:pageshadow="2"
     inkscape:zoom="0.79912109"
     inkscape:cx="258.62214"
     inkscape:cy="995.52243"
     inkscape:document-units="px"
     inkscape:current-layer="layer1"
     showgrid="false"
     inkscape:window-width="2560"
     inkscape:window-height="1315"
     inkscape:window-x="0"
     inkscape:window-y="1"
     inkscape:window-maximized="1" />
  <metadata
     id="metadata4209">
    <rdf:RDF>
      <cc:Work
         rdf:about="">
        <dc:format>image/svg+xml</dc:format>
        <dc:type
           rdf:resource="http://purl.org/dc/dcmitype/StillImage" />
        <dc:title />
      </cc:Work>
    </rdf:RDF>
  </metadata>
  <g
     inkscape:label="Layer 1"
     inkscape:groupmode="layer"
     id="layer1">
    <path
       style="fill:none;fill-rule:evenodd;stroke:#0000ff;stroke-width:24.55692291;stroke-linecap:butt;stroke-linejoin:miter;stroke-miterlimit:4;stroke-dasharray:none;stroke-opacity:1"
       d="M  -103.696119794822 , -432.318421254648 C  -87.7117753201736 , -492.601344414369 -38.9148242991402 , -517.022512159315 0 , -517.022512159315 38.9148242991402 , -517.022512159315 87.7117753201736 , -492.601344414369 103.696119794822 , -432.318421254648 119.68046426947 , -372.035498094927 93.1945943344621 , -315.304795385962 51.6642132534929 , -262.701007429345 10.1338321725238 , -210.097219472728 -43.7770419721238 , -184.409028073102 -35.7885308550074 , -104.021112769717 -27.800019737891 , -23.6331974663311 24.1168185547961 , -24.3257538053908 33.6091280499547 , 45.9802999784076 43.1014375451133 , 116.286353762206 -2.81751994470899 , 149.758728328913 -51.0377866641953 , 192.199964967753 -99.2580533836815 , 234.641201606593 -154.709905185811 , 271.537543167803 -191.341670882791 , 353.351564263166 -227.973436579771 , 435.165585358529 -203.850449376118 , 538.717132525052 -121.037117099511 , 570.9175755431 -38.2237848229027 , 603.118018561148 35.4781752973577 , 536.055269433006 39.3069556957024 , 459.047003371861 43.1357360940471 , 382.038737310717 -5.67449017884453 , 351.821432211674 -53.0997574246866 , 303.44812899084 -100.525024670529 , 255.074825770006 -151.579219949035 , 209.467600489173 -192.768896261618 , 111.956666882907 -233.958572574202 , 14.4457332766408 -240.319629188679 , -107.963964329597 -196.578615451034 , -208.859491596128 -152.83760171339 , -309.755018862658 -71.7459724815988 , -345.303814903793 0 , -345.303814903793 71.7459724815988 , -345.303814903793 152.83760171339 , -309.755018862658 196.578615451034 , -208.859491596128 240.319629188679 , -107.963964329597 233.958572574202 , 14.4457332766408 192.768896261618 , 111.956666882907 151.579219949035 , 209.467600489173 100.525024670529 , 255.074825770006 53.0997574246866 , 303.44812899084 5.67449017884452 , 351.821432211674 -43.1357360940471 , 382.038737310717 -39.3069556957024 , 459.047003371861 -35.4781752973577 , 536.055269433006 38.2237848229027 , 603.118018561148 121.037117099511 , 570.9175755431 203.850449376118 , 538.717132525052 227.973436579771 , 435.165585358529 191.341670882791 , 353.351564263166 154.709905185811 , 271.537543167803 99.2580533836815 , 234.641201606593 51.0377866641953 , 192.199964967753 2.81751994470899 , 149.758728328913 -43.1014375451133 , 116.286353762206 -33.6091280499547 , 45.9802999784076 -24.1168185547961 , -24.3257538053908 27.800019737891 , -23.6331974663311 35.7885308550074 , -104.021112769717 43.7770419721238 , -184.409028073102 -10.1338321725238 , -210.097219472728 -51.6642132534929 , -262.701007429345 -93.1945943344621 , -315.304795385962 -119.68046426947 , -372.035498094927 -103.696119794822 , -432.318421254648 Z "
       id="path4817"
       inkscape:connector-curvature="0"
       sodipodi:nodetypes="zzzzzzzzzzzzzzzzzzzzzzzzz" />
  </g>
</svg>
