<?xml version="1.0" encoding="UTF-8" standalone="no"?>
<!-- Created with Inkscape (http://www.inkscape.org/) -->

<svg
   xmlns:dc="http://purl.org/dc/elements/1.1/"
   xmlns:cc="http://creativecommons.org/ns#"
   xmlns:rdf="http://www.w3.org/1999/02/22-rdf-syntax-ns#"
   xmlns:svg="http://www.w3.org/2000/svg"
   xmlns="http://www.w3.org/2000/svg"
   xmlns:sodipodi="http://sodipodi.sourceforge.net/DTD/sodipodi-0.dtd"
   xmlns:inkscape="http://www.inkscape.org/namespaces/inkscape"
   width="210mm"
   height="297mm"
   viewBox="0 0 744.09448819 1052.3622047"
   id="svg2"
   version="1.1"
   inkscape:version="0.91 r13725"
   sodipodi:docname="9_16.svg">
  <defs
     id="defs4" />
  <sodipodi:namedview
     id="base"
     pagecolor="#ffffff"
     bordercolor="#666666"
     borderopacity="1.0"
     inkscape:pageopacity="0.0"
     inkscape:pageshadow="2"
     inkscape:zoom="1.5982422"
     inkscape:cx="283.64964"
     inkscape:cy="770.27496"
     inkscape:document-units="px"
     inkscape:current-layer="layer1"
     showgrid="false"
     inkscape:window-width="2560"
     inkscape:window-height="1315"
     inkscape:window-x="0"
     inkscape:window-y="1"
     inkscape:window-maximized="1" />
  <metadata
     id="metadata7">
    <rdf:RDF>
      <cc:Work
         rdf:about="">
        <dc:format>image/svg+xml</dc:format>
        <dc:type
           rdf:resource="http://purl.org/dc/dcmitype/StillImage" />
        <dc:title></dc:title>
      </cc:Work>
    </rdf:RDF>
  </metadata>
  <g
     inkscape:label="Layer 1"
     inkscape:groupmode="layer"
     id="layer1">
    <path
       style="fill:none;fill-rule:evenodd;stroke:#fa0000;stroke-width:13.19374943;stroke-linecap:butt;stroke-linejoin:miter;stroke-miterlimit:4;stroke-dasharray:none;stroke-opacity:1"
       d="M  195.998670299749 , -100.470492627637 C  342.301007103763 , -118.223322699483 464.534072987595 , -35.8927367926676 477.167095979748 , 66.5872808264702 489.8001189719 , 169.067298445608 401.938560000395 , 225.909121934751 330.400966177442 , 193.648881762256 258.86337235449 , 161.388641589761 257.110332481217 , 111.975818836785 195.747989546377 , 86.2422383727142 134.385646611537 , 60.5086579086434 85.7989968391978 , 95.9188772975122 49.1383078096722 , 126.692129542196 12.4776187801467 , 157.46538178688 -46.1266504530301 , 212.018100808334 -40.7392064127838 , 295.780589596373 -35.3517623725376 , 379.543078384411 41.0924260431313 , 449.76511242149 155.515873858912 , 461.281396338061 269.939321674693 , 472.797680254632 377.202323454744 , 415.874852561821 416.021634729821 , 327.580440473474 454.840946004898 , 239.286028385128 414.611486766626 , 158.684674255787 343.890521362327 , 139.082322532179 273.169555958028 , 119.479970808572 241.512726343818 , 146.366454436617 181.152861761006 , 131.715541518175 120.792997178193 , 117.064628599734 98.2784786615266 , 82.9010951622695 57.5159898126658 , 39.6924685804075 16.7535009638051 , -3.51615800145456 -49.6963334957355 , -82.7176625557907 -195.998670299749 , -100.470492627637 -342.301007103763 , -118.223322699483 -464.534072987595 , -35.8927367926676 -477.167095979748 , 66.5872808264702 -489.8001189719 , 169.067298445608 -401.938560000395 , 225.909121934751 -330.400966177442 , 193.648881762256 -258.86337235449 , 161.388641589761 -257.110332481217 , 111.975818836785 -195.747989546377 , 86.2422383727142 -134.385646611537 , 60.5086579086434 -85.7989968391978 , 95.9188772975122 -49.1383078096722 , 126.692129542196 -12.4776187801467 , 157.46538178688 46.1266504530301 , 212.018100808334 40.7392064127838 , 295.780589596373 35.3517623725376 , 379.543078384411 -41.0924260431313 , 449.76511242149 -155.515873858912 , 461.281396338061 -269.939321674693 , 472.797680254632 -377.202323454744 , 415.874852561821 -416.021634729821 , 327.580440473474 -454.840946004898 , 239.286028385128 -414.611486766626 , 158.684674255787 -343.890521362327 , 139.082322532179 -273.169555958028 , 119.479970808572 -241.512726343818 , 146.366454436617 -181.152861761006 , 131.715541518175 -120.792997178193 , 117.064628599734 -98.2784786615266 , 82.9010951622695 -57.5159898126658 , 39.6924685804075 -16.7535009638051 , -3.51615800145456 49.6963334957354 , -82.7176625557907 195.998670299749 , -100.470492627637 Z "
       id="path4201"
       inkscape:connector-curvature="0"
       sodipodi:nodetypes="zzzzzzzzzzzzzzzzzzzzzzz" />
  </g>
</svg>
