<?xml version="1.0" encoding="UTF-8" standalone="no"?>
<!-- Created with Inkscape (http://www.inkscape.org/) -->

<svg
   xmlns:dc="http://purl.org/dc/elements/1.1/"
   xmlns:cc="http://creativecommons.org/ns#"
   xmlns:rdf="http://www.w3.org/1999/02/22-rdf-syntax-ns#"
   xmlns:svg="http://www.w3.org/2000/svg"
   xmlns="http://www.w3.org/2000/svg"
   xmlns:sodipodi="http://sodipodi.sourceforge.net/DTD/sodipodi-0.dtd"
   xmlns:inkscape="http://www.inkscape.org/namespaces/inkscape"
   width="210mm"
   height="297mm"
   viewBox="0 0 744.09448819 1052.3622047"
   id="svg2"
   version="1.1"
   inkscape:version="0.91 r13725"
   sodipodi:docname="9_16.svg">
  <defs
     id="defs4" />
  <sodipodi:namedview
     id="base"
     pagecolor="#ffffff"
     bordercolor="#666666"
     borderopacity="1.0"
     inkscape:pageopacity="0.0"
     inkscape:pageshadow="2"
     inkscape:zoom="1.5982422"
     inkscape:cx="283.64964"
     inkscape:cy="770.27496"
     inkscape:document-units="px"
     inkscape:current-layer="layer1"
     showgrid="false"
     inkscape:window-width="2560"
     inkscape:window-height="1315"
     inkscape:window-x="0"
     inkscape:window-y="1"
     inkscape:window-maximized="1" />
  <metadata
     id="metadata7">
    <rdf:RDF>
      <cc:Work
         rdf:about="">
        <dc:format>image/svg+xml</dc:format>
        <dc:type
           rdf:resource="http://purl.org/dc/dcmitype/StillImage" />
        <dc:title></dc:title>
      </cc:Work>
    </rdf:RDF>
  </metadata>
  <g
     inkscape:label="Layer 1"
     inkscape:groupmode="layer"
     id="layer1">
    <path
       style="fill:none;fill-rule:evenodd;stroke:#fa0000;stroke-width:13.19374943;stroke-linecap:butt;stroke-linejoin:miter;stroke-miterlimit:4;stroke-dasharray:none;stroke-opacity:1"
       d="M  175.32596663266 , -100.8269032192 C  311.305693123988 , -117.914672681856 454.933888034419 , -41.4076836864434 474.913405129732 , 74.3831028580101 494.892922225044 , 190.173889402464 385.733761189345 , 246.721031432229 312.772257054185 , 205.722143597469 239.810752919025 , 164.72325576271 269.744643505333 , 116.378500114408 200.622240495949 , 82.3632813334937 131.499837486565 , 48.3480625525792 82.3133049870353 , 100.221019774984 44.2365464080164 , 135.019872174467 6.15978782899742 , 169.818724573951 -48.0491200206585 , 207.257929102283 -43.9317335763304 , 288.709511662376 -39.8143471320022 , 370.161094222468 41.8150244813919 , 441.483641325314 160.305195393738 , 449.192905120118 278.795366306084 , 456.902168914923 379.223344570597 , 397.976125722637 410.838537920714 , 313.044613780302 442.453731270831 , 228.113101837966 389.489254650849 , 149.833086641656 324.817527308763 , 135.870306489762 260.145799966676 , 121.907526337867 251.0940781577 , 160.815623827599 180.219597470135 , 150.163953100038 109.345116782569 , 139.512282372478 88.9549044471818 , 89.3100389944719 51.2091332597289 , 40.2988225009879 13.4633620722761 , -8.712393992496 -39.346240141332 , -83.7391337565442 -175.32596663266 , -100.8269032192 -311.305693123988 , -117.914672681856 -454.933888034419 , -41.4076836864434 -474.913405129732 , 74.3831028580101 -494.892922225044 , 190.173889402464 -385.733761189345 , 246.721031432229 -312.772257054185 , 205.722143597469 -239.810752919025 , 164.72325576271 -269.744643505333 , 116.378500114408 -200.622240495949 , 82.3632813334937 -131.499837486565 , 48.3480625525792 -82.3133049870353 , 100.221019774984 -44.2365464080164 , 135.019872174467 -6.15978782899742 , 169.818724573951 48.0491200206585 , 207.257929102283 43.9317335763304 , 288.709511662376 39.8143471320022 , 370.161094222468 -41.8150244813919 , 441.483641325314 -160.305195393738 , 449.192905120118 -278.795366306084 , 456.902168914923 -379.223344570597 , 397.976125722637 -410.838537920714 , 313.044613780302 -442.453731270831 , 228.113101837966 -389.489254650849 , 149.833086641656 -324.817527308763 , 135.870306489762 -260.145799966676 , 121.907526337867 -251.0940781577 , 160.815623827599 -180.219597470135 , 150.163953100038 -109.345116782569 , 139.512282372478 -88.9549044471818 , 89.3100389944719 -51.2091332597289 , 40.2988225009879 -13.4633620722761 , -8.712393992496 39.346240141332 , -83.7391337565442 175.32596663266 , -100.8269032192 Z "
       id="path4201"
       inkscape:connector-curvature="0"
       sodipodi:nodetypes="zzzzzzzzzzzzzzzzzzzzzzz" />
  </g>
</svg>
