<?xml version="1.0" encoding="UTF-8" standalone="no"?>
<!-- Created with Inkscape (http://www.inkscape.org/) -->

<svg
   xmlns:dc="http://purl.org/dc/elements/1.1/"
   xmlns:cc="http://creativecommons.org/ns#"
   xmlns:rdf="http://www.w3.org/1999/02/22-rdf-syntax-ns#"
   xmlns:svg="http://www.w3.org/2000/svg"
   xmlns="http://www.w3.org/2000/svg"
   xmlns:sodipodi="http://sodipodi.sourceforge.net/DTD/sodipodi-0.dtd"
   xmlns:inkscape="http://www.inkscape.org/namespaces/inkscape"
   width="210mm"
   height="297mm"
   viewBox="0 0 744.09448819 1052.3622047"
   id="svg4222"
   version="1.1"
   inkscape:version="0.91 r13725"
   sodipodi:docname="9_17.svg">
  <defs
     id="defs4224" />
  <sodipodi:namedview
     id="base"
     pagecolor="#ffffff"
     bordercolor="#666666"
     borderopacity="1.0"
     inkscape:pageopacity="0.0"
     inkscape:pageshadow="2"
     inkscape:zoom="1.5982422"
     inkscape:cx="208.56715"
     inkscape:cy="845.35745"
     inkscape:document-units="px"
     inkscape:current-layer="layer1"
     showgrid="false"
     inkscape:window-width="2560"
     inkscape:window-height="1315"
     inkscape:window-x="0"
     inkscape:window-y="1"
     inkscape:window-maximized="1" />
  <metadata
     id="metadata4227">
    <rdf:RDF>
      <cc:Work
         rdf:about="">
        <dc:format>image/svg+xml</dc:format>
        <dc:type
           rdf:resource="http://purl.org/dc/dcmitype/StillImage" />
        <dc:title></dc:title>
      </cc:Work>
    </rdf:RDF>
  </metadata>
  <g
     inkscape:label="Layer 1"
     inkscape:groupmode="layer"
     id="layer1">
    <path
       style="fill:none;fill-rule:evenodd;stroke:#ffeb08;stroke-width:8.43244076;stroke-linecap:butt;stroke-linejoin:miter;stroke-miterlimit:4;stroke-dasharray:none;stroke-opacity:1"
       d="M  0 , -363.901772024279 C  18.8398166244812 , -363.901772024279 109.262405387946 , -363.425611572822 192.512054313785 , -312.947800925332 275.761703239624 , -262.469990277842 310.913495041683 , -187.934949413454 300.802217378437 , -115.801246534261 290.690939715191 , -43.6675436550682 249.848504695531 , -13.1900824310407 204.954150393097 , 42.5204301315386 160.059796090663 , 98.2309426941179 132.809833850837 , 139.307576456674 70.0675348186051 , 138.589030738783 7.32523578637367 , 137.870485020892 -15.1192763520176 , 102.040483826762 -81.2227801156063 , 95.4746515284127 -147.326283879195 , 88.9088192300634 -160.089431470332 , 106.989668888423 -220.325353250097 , 114.342061172693 -280.561275029862 , 121.694453456963 -364.738070957056 , 121.627887750826 -436.221107105277 , 39.8538366236475 -507.704143253498 , -41.920214503531 -502.073877187202 , -176.774863371533 -403.750921187211 , -225.898357517919 -305.42796518722 , -275.021851664305 -249.709175127584 , -205.923489839289 -236.113348742111 , -181.683309737235 -222.517522356638 , -157.443129635181 -213.900505217007 , -122.606108487946 -226.95272738352 , -76.8585029626532 -240.004949550033 , -31.1108974373604 -264.127125119278 , -6.89197471682065 -281.458852487971 , 44.2641546309044 -298.790579856664 , 95.4202839786294 -311.848414865961 , 179.45093166625 -226.708978751428 , 261.748723556566 -141.569542636895 , 344.046515446882 -25.3042822297107 , 346.507013310418 0 , 346.507013310418 25.3042822297107 , 346.507013310418 141.569542636895 , 344.046515446882 226.708978751428 , 261.748723556566 311.848414865961 , 179.45093166625 298.790579856664 , 95.4202839786294 281.458852487971 , 44.2641546309044 264.127125119278 , -6.89197471682064 240.004949550033 , -31.1108974373604 226.95272738352 , -76.8585029626532 213.900505217007 , -122.606108487946 222.517522356638 , -157.443129635181 236.113348742111 , -181.683309737235 249.709175127584 , -205.923489839289 305.42796518722 , -275.021851664305 403.750921187211 , -225.898357517919 502.073877187202 , -176.774863371533 507.704143253498 , -41.920214503531 436.221107105277 , 39.8538366236475 364.738070957056 , 121.627887750826 280.561275029862 , 121.694453456963 220.325353250097 , 114.342061172693 160.089431470332 , 106.989668888423 147.326283879195 , 88.9088192300634 81.2227801156063 , 95.4746515284127 15.1192763520176 , 102.040483826762 -7.32523578637365 , 137.870485020892 -70.0675348186051 , 138.589030738783 -132.809833850837 , 139.307576456674 -160.059796090663 , 98.2309426941179 -204.954150393097 , 42.5204301315386 -249.848504695531 , -13.1900824310407 -290.690939715191 , -43.6675436550682 -300.802217378437 , -115.801246534261 -310.913495041683 , -187.934949413454 -275.761703239624 , -262.469990277842 -192.512054313785 , -312.947800925332 -109.262405387946 , -363.425611572822 -18.8398166244812 , -363.901772024279 0 , -363.901772024279 Z "
       id="path4835"
       inkscape:connector-curvature="0"
       sodipodi:nodetypes="zzzzzzzzzzzzzzzzzzzzzzzzzzz" />
  </g>
</svg>
