<?xml version="1.0" encoding="UTF-8" standalone="no"?>
<!-- Created with Inkscape (http://www.inkscape.org/) -->

<svg
   xmlns:dc="http://purl.org/dc/elements/1.1/"
   xmlns:cc="http://creativecommons.org/ns#"
   xmlns:rdf="http://www.w3.org/1999/02/22-rdf-syntax-ns#"
   xmlns:svg="http://www.w3.org/2000/svg"
   xmlns="http://www.w3.org/2000/svg"
   xmlns:sodipodi="http://sodipodi.sourceforge.net/DTD/sodipodi-0.dtd"
   xmlns:inkscape="http://www.inkscape.org/namespaces/inkscape"
   width="210mm"
   height="297mm"
   viewBox="0 0 744.09448819 1052.3622047"
   id="svg4222"
   version="1.1"
   inkscape:version="0.91 r13725"
   sodipodi:docname="9_17.svg">
  <defs
     id="defs4224" />
  <sodipodi:namedview
     id="base"
     pagecolor="#ffffff"
     bordercolor="#666666"
     borderopacity="1.0"
     inkscape:pageopacity="0.0"
     inkscape:pageshadow="2"
     inkscape:zoom="1.5982422"
     inkscape:cx="208.56715"
     inkscape:cy="845.35745"
     inkscape:document-units="px"
     inkscape:current-layer="layer1"
     showgrid="false"
     inkscape:window-width="2560"
     inkscape:window-height="1315"
     inkscape:window-x="0"
     inkscape:window-y="1"
     inkscape:window-maximized="1" />
  <metadata
     id="metadata4227">
    <rdf:RDF>
      <cc:Work
         rdf:about="">
        <dc:format>image/svg+xml</dc:format>
        <dc:type
           rdf:resource="http://purl.org/dc/dcmitype/StillImage" />
        <dc:title></dc:title>
      </cc:Work>
    </rdf:RDF>
  </metadata>
  <g
     inkscape:label="Layer 1"
     inkscape:groupmode="layer"
     id="layer1">
    <path
       style="fill:none;fill-rule:evenodd;stroke:#ffeb08;stroke-width:8.43244076;stroke-linecap:butt;stroke-linejoin:miter;stroke-miterlimit:4;stroke-dasharray:none;stroke-opacity:1"
       d="M  0 , -362.134944111004 C  14.8072285897662 , -362.134944111004 101.378178065659 , -362.129621549125 186.328289192898 , -313.532488878242 271.278400320138 , -264.935356207359 312.881140948971 , -178.628727000417 295.589676328941 , -102.87711576489 278.298211708912 , -27.1255045293637 246.347929352206 , -26.416890239557 207.303801389003 , 29.5906990019532 168.2596734258 , 85.5982882434634 157.114500308438 , 144.877343360795 79.3853156548628 , 146.234273224545 1.6561310012878 , 147.591203088295 2.47334506302173 , 91.3950805273135 -75.7667465541916 , 77.9459868664424 -154.006838171405 , 64.4968932055713 -168.121375794662 , 97.7102687480553 -231.202183648117 , 111.215625861491 -294.282991501572 , 124.720982974927 -375.059893639439 , 125.193905912789 -437.743737866628 , 44.3519064650224 -500.427582093817 , -36.490092982744 -489.127690420039 , -164.712101292214 -396.361282754168 , -213.912433940785 -303.594875088298 , -263.112766589355 -246.027073227719 , -199.384436021698 -231.803068215074 , -178.147231575649 -217.579063202428 , -156.9100271296 -203.289592394571 , -119.87786507146 -220.155278349929 , -71.7752676030701 -237.020964305286 , -23.6726701346799 -263.172372911829 , -16.0329012259454 -286.93201264254 , 40.9012967165036 -310.691652373251 , 97.8354946589526 -323.908033280665 , 185.294819491963 -233.619978577835 , 262.336377963061 -143.331923875004 , 339.377936434158 -20.7627091588679 , 339.798491769815 0 , 339.798491769815 20.7627091588679 , 339.798491769815 143.331923875004 , 339.377936434158 233.619978577835 , 262.336377963061 323.908033280665 , 185.294819491963 310.691652373251 , 97.8354946589526 286.93201264254 , 40.9012967165036 263.172372911829 , -16.0329012259454 237.020964305286 , -23.6726701346799 220.155278349929 , -71.7752676030701 203.289592394571 , -119.87786507146 217.579063202428 , -156.9100271296 231.803068215074 , -178.147231575649 246.027073227719 , -199.384436021698 303.594875088298 , -263.112766589355 396.361282754168 , -213.912433940785 489.127690420039 , -164.712101292214 500.427582093817 , -36.490092982744 437.743737866628 , 44.3519064650224 375.059893639439 , 125.193905912789 294.282991501572 , 124.720982974927 231.202183648117 , 111.215625861491 168.121375794662 , 97.7102687480553 154.006838171405 , 64.4968932055713 75.7667465541916 , 77.9459868664424 -2.47334506302172 , 91.3950805273135 -1.65613100128779 , 147.591203088295 -79.3853156548628 , 146.234273224545 -157.114500308438 , 144.877343360795 -168.2596734258 , 85.5982882434634 -207.303801389003 , 29.5906990019532 -246.347929352206 , -26.416890239557 -278.298211708912 , -27.1255045293637 -295.589676328941 , -102.87711576489 -312.881140948971 , -178.628727000417 -271.278400320138 , -264.935356207359 -186.328289192898 , -313.532488878242 -101.378178065659 , -362.129621549125 -14.8072285897662 , -362.134944111004 0 , -362.134944111004 Z "
       id="path4835"
       inkscape:connector-curvature="0"
       sodipodi:nodetypes="zzzzzzzzzzzzzzzzzzzzzzzzzzz" />
  </g>
</svg>
