<?xml version="1.0" encoding="UTF-8" standalone="no"?>
<!-- Created with Inkscape (http://www.inkscape.org/) -->

<svg
   xmlns:dc="http://purl.org/dc/elements/1.1/"
   xmlns:cc="http://creativecommons.org/ns#"
   xmlns:rdf="http://www.w3.org/1999/02/22-rdf-syntax-ns#"
   xmlns:svg="http://www.w3.org/2000/svg"
   xmlns="http://www.w3.org/2000/svg"
   xmlns:sodipodi="http://sodipodi.sourceforge.net/DTD/sodipodi-0.dtd"
   xmlns:inkscape="http://www.inkscape.org/namespaces/inkscape"
   width="210mm"
   height="297mm"
   viewBox="0 0 744.09448819 1052.3622047"
   id="svg4222"
   version="1.1"
   inkscape:version="0.91 r13725"
   sodipodi:docname="9_17.svg">
  <defs
     id="defs4224" />
  <sodipodi:namedview
     id="base"
     pagecolor="#ffffff"
     bordercolor="#666666"
     borderopacity="1.0"
     inkscape:pageopacity="0.0"
     inkscape:pageshadow="2"
     inkscape:zoom="1.5982422"
     inkscape:cx="208.56715"
     inkscape:cy="845.35745"
     inkscape:document-units="px"
     inkscape:current-layer="layer1"
     showgrid="false"
     inkscape:window-width="2560"
     inkscape:window-height="1315"
     inkscape:window-x="0"
     inkscape:window-y="1"
     inkscape:window-maximized="1" />
  <metadata
     id="metadata4227">
    <rdf:RDF>
      <cc:Work
         rdf:about="">
        <dc:format>image/svg+xml</dc:format>
        <dc:type
           rdf:resource="http://purl.org/dc/dcmitype/StillImage" />
        <dc:title></dc:title>
      </cc:Work>
    </rdf:RDF>
  </metadata>
  <g
     inkscape:label="Layer 1"
     inkscape:groupmode="layer"
     id="layer1">
    <path
       style="fill:none;fill-rule:evenodd;stroke:#ffeb08;stroke-width:8.43244076;stroke-linecap:butt;stroke-linejoin:miter;stroke-miterlimit:4;stroke-dasharray:none;stroke-opacity:1"
       d="M  0 , -357.887502484993 C  15.5613213758187 , -357.887502484993 106.269998572054 , -357.829870197233 190.540754717166 , -307.19255481196 274.811510862278 , -256.555239426687 311.478425400825 , -171.330792641269 294.718023885763 , -98.6463871071178 277.957622370701 , -25.9619815729667 248.046104871215 , -26.7397114634312 210.121610795467 , 26.5914693463962 172.197116719719 , 79.9226501562236 159.768441900165 , 142.226188436078 79.1169062746928 , 141.302416670087 -1.53462935077943 , 140.378644904096 4.102812965831 , 80.0579832112719 -77.1761006968208 , 67.4167584896787 -158.455014359473 , 54.7755337680855 -170.795349482968 , 92.6380075545276 -235.168599019814 , 109.47083033271 -299.54184855666 , 126.303653110892 -378.029976254202 , 125.135177897496 -437.670906527014 , 48.2300325175737 -497.311836799826 , -28.6751128623486 -489.97606996476 , -154.095874187148 -399.974326287837 , -207.472564793265 -309.972582610914 , -260.849255399382 -248.568401897319 , -200.401063683952 -232.254745226288 , -177.768633718763 -215.941088555257 , -155.136203753574 -201.093273740634 , -116.535060471369 -219.208360056978 , -68.9229344673089 -237.323446373322 , -21.3108084632488 -264.388988590768 , -16.4273351857238 -290.045382165986 , 40.9590108996543 -315.701775741204 , 98.3453569850324 -328.023211193381 , 186.41409922668 -237.816936138143 , 262.947837120365 -147.610661082905 , 339.48157501405 -25.1104273878195 , 340.684566907023 0 , 340.684566907023 25.1104273878195 , 340.684566907023 147.610661082905 , 339.48157501405 237.816936138143 , 262.947837120365 328.023211193381 , 186.41409922668 315.701775741204 , 98.3453569850324 290.045382165986 , 40.9590108996543 264.388988590768 , -16.4273351857238 237.323446373322 , -21.3108084632488 219.208360056978 , -68.9229344673089 201.093273740634 , -116.535060471369 215.941088555257 , -155.136203753574 232.254745226288 , -177.768633718763 248.568401897319 , -200.401063683952 309.972582610914 , -260.849255399382 399.974326287837 , -207.472564793265 489.97606996476 , -154.095874187148 497.311836799826 , -28.6751128623486 437.670906527014 , 48.2300325175737 378.029976254202 , 125.135177897496 299.54184855666 , 126.303653110892 235.168599019814 , 109.47083033271 170.795349482968 , 92.6380075545276 158.455014359473 , 54.7755337680855 77.1761006968208 , 67.4167584896787 -4.10281296583102 , 80.0579832112719 1.53462935077943 , 140.378644904096 -79.1169062746928 , 141.302416670087 -159.768441900165 , 142.226188436078 -172.197116719719 , 79.9226501562236 -210.121610795467 , 26.5914693463962 -248.046104871215 , -26.7397114634312 -277.957622370701 , -25.9619815729667 -294.718023885763 , -98.6463871071178 -311.478425400825 , -171.330792641269 -274.811510862278 , -256.555239426687 -190.540754717166 , -307.19255481196 -106.269998572054 , -357.829870197233 -15.5613213758187 , -357.887502484993 0 , -357.887502484993 Z "
       id="path4835"
       inkscape:connector-curvature="0"
       sodipodi:nodetypes="zzzzzzzzzzzzzzzzzzzzzzzzzzz" />
  </g>
</svg>
