<?xml version="1.0" encoding="UTF-8" standalone="no"?>
<!-- Created with Inkscape (http://www.inkscape.org/) -->

<svg
   xmlns:dc="http://purl.org/dc/elements/1.1/"
   xmlns:cc="http://creativecommons.org/ns#"
   xmlns:rdf="http://www.w3.org/1999/02/22-rdf-syntax-ns#"
   xmlns:svg="http://www.w3.org/2000/svg"
   xmlns="http://www.w3.org/2000/svg"
   xmlns:sodipodi="http://sodipodi.sourceforge.net/DTD/sodipodi-0.dtd"
   xmlns:inkscape="http://www.inkscape.org/namespaces/inkscape"
   width="210mm"
   height="297mm"
   viewBox="0 0 744.09448819 1052.3622047"
   id="svg2"
   version="1.1"
   inkscape:version="0.91 r13725"
   sodipodi:docname="9_18.svg">
  <defs
     id="defs4" />
  <sodipodi:namedview
     id="base"
     pagecolor="#ffffff"
     bordercolor="#666666"
     borderopacity="1.0"
     inkscape:pageopacity="0.0"
     inkscape:pageshadow="2"
     inkscape:zoom="1.1171305"
     inkscape:cx="440.72776"
     inkscape:cy="580.96989"
     inkscape:document-units="px"
     inkscape:current-layer="layer1"
     showgrid="false"
     inkscape:window-width="1600"
     inkscape:window-height="835"
     inkscape:window-x="0"
     inkscape:window-y="0"
     inkscape:window-maximized="1" />
  <metadata
     id="metadata7">
    <rdf:RDF>
      <cc:Work
         rdf:about="">
        <dc:format>image/svg+xml</dc:format>
        <dc:type
           rdf:resource="http://purl.org/dc/dcmitype/StillImage" />
        <dc:title></dc:title>
      </cc:Work>
    </rdf:RDF>
  </metadata>
  <g
     inkscape:label="Layer 1"
     inkscape:groupmode="layer"
     id="layer1">
    <path
       style="fill:none;fill-rule:evenodd;stroke:#ff0000;stroke-width:9.37274361;stroke-linecap:butt;stroke-linejoin:miter;stroke-miterlimit:4;stroke-dasharray:none;stroke-opacity:1"
       d="M  0 , -144.37360734808 C  10.9406682676334 , -144.37360734808 53.248711710362 , -144.17241244142 102.630539805671 , -122.110145168127 152.01236790098 , -100.047877894834 218.904445241776 , -63.897611277402 273.495728900372 , 8.4160679600084 328.087012558968 , 80.7297471974188 349.534891958839 , 149.0316978301 346.800301922961 , 210.856614828039 344.065711887083 , 272.681531825978 320.698682881743 , 352.703133626439 246.722195848037 , 416.220855587152 172.745708814331 , 479.738577547865 99.3525772480687 , 488.558988281966 0 , 488.558988281966 -99.3525772480687 , 488.558988281966 -172.745708814331 , 479.738577547865 -246.722195848037 , 416.220855587152 -320.698682881743 , 352.703133626439 -356.171640603024 , 272.662985498505 -369.254273384881 , 229.223905591012 -382.336906166738 , 185.784825683519 -411.59606460584 , 43.9885056846587 -304.778601766463 , -24.2701572834599 -197.961138927086 , -92.5288202515785 -139.586948567492 , -8.97544226363328 -134.671926285387 , -1.8689468342217 -129.756904003282 , 5.23754859518988 -108.072700979142 , 37.5090350709388 -118.30231386167 , 89.2083272687496 -128.531926744198 , 140.90761946656 -152.445756244092 , 160.655319473039 -162.507519064673 , 209.459124160859 -172.569281885254 , 258.262928848679 -155.081323980753 , 289.477708313741 -143.497308985497 , 304.137286339271 -131.913293990241 , 318.796864364801 -97.0803216864959 , 358.498396559839 -1.16745527867676 , 358.838577696453 94.7454111291424 , 359.178758833067 131.913293990241 , 318.796864364801 143.497308985497 , 304.137286339271 155.081323980753 , 289.477708313741 173.13261635327 , 262.878367608873 176.884113289199 , 219.994522014436 180.635610225128 , 177.110676419999 166.637186390125 , 135.714521321317 162.355094934747 , 83.6826754071865 158.073003479369 , 31.650829493056 164.272542637318 , 3.88602233964168 166.331059619559 , -4.98785765012585 168.3895766018 , -13.8617376398934 191.164640127207 , -111.939525368503 281.261953372309 , -124.024103193643 371.359266617411 , -136.108681018783 416.893568362931 , -52.4762399504064 395.210381596246 , 12.9707281230638 373.527194829561 , 78.417696196534 312.854278737115 , 103.837913006554 254.479202211662 , 129.81524613403 196.104125686209 , 155.792579261506 137.624142703379 , 169.096694160297 105.623801344737 , 233.551274694417 73.623459986095 , 298.005855228537 94.646026205331 , 356.746346707664 104.048177097232 , 413.941559148132 113.450327989133 , 471.1367715886 118.495635366602 , 523.669390003952 86.5958364030143 , 567.973476439839 54.6960374394267 , 612.277562875726 10.5039192027012 , 613.707555197259 0 , 613.707555197259 -10.5039192027012 , 613.707555197259 -54.6960374394267 , 612.277562875726 -86.5958364030143 , 567.973476439839 -118.495635366602 , 523.669390003952 -113.450327989133 , 471.1367715886 -104.048177097232 , 413.941559148132 -94.646026205331 , 356.746346707664 -73.4057165870513 , 308.312057597543 -97.722739020571 , 230.513985366155 -122.039761454091 , 152.715913134767 -159.120293235093 , 150.845028309712 -185.554567941889 , 58.7042798662641 -211.988842648685 , -33.4364685771838 -152.01236790098 , -100.047877894834 -102.630539805671 , -122.110145168127 -53.248711710362 , -144.17241244142 -10.9406682676334 , -144.37360734808 0 , -144.37360734808 Z "
       id="path3401"
       inkscape:connector-curvature="0"
       sodipodi:nodetypes="zzzzzzzzzzzzzzzzzzzzzzzzzzzzzzz" />
  </g>
</svg>
