<?xml version="1.0" encoding="UTF-8" standalone="no"?>
<!-- Created with Inkscape (http://www.inkscape.org/) -->

<svg
   xmlns:dc="http://purl.org/dc/elements/1.1/"
   xmlns:cc="http://creativecommons.org/ns#"
   xmlns:rdf="http://www.w3.org/1999/02/22-rdf-syntax-ns#"
   xmlns:svg="http://www.w3.org/2000/svg"
   xmlns="http://www.w3.org/2000/svg"
   xmlns:sodipodi="http://sodipodi.sourceforge.net/DTD/sodipodi-0.dtd"
   xmlns:inkscape="http://www.inkscape.org/namespaces/inkscape"
   width="210mm"
   height="297mm"
   viewBox="0 0 744.09448819 1052.3622047"
   id="svg2"
   version="1.1"
   inkscape:version="0.91 r13725"
   sodipodi:docname="9_18.svg">
  <defs
     id="defs4" />
  <sodipodi:namedview
     id="base"
     pagecolor="#ffffff"
     bordercolor="#666666"
     borderopacity="1.0"
     inkscape:pageopacity="0.0"
     inkscape:pageshadow="2"
     inkscape:zoom="1.1171305"
     inkscape:cx="440.72776"
     inkscape:cy="580.96989"
     inkscape:document-units="px"
     inkscape:current-layer="layer1"
     showgrid="false"
     inkscape:window-width="1600"
     inkscape:window-height="835"
     inkscape:window-x="0"
     inkscape:window-y="0"
     inkscape:window-maximized="1" />
  <metadata
     id="metadata7">
    <rdf:RDF>
      <cc:Work
         rdf:about="">
        <dc:format>image/svg+xml</dc:format>
        <dc:type
           rdf:resource="http://purl.org/dc/dcmitype/StillImage" />
        <dc:title></dc:title>
      </cc:Work>
    </rdf:RDF>
  </metadata>
  <g
     inkscape:label="Layer 1"
     inkscape:groupmode="layer"
     id="layer1">
    <path
       style="fill:none;fill-rule:evenodd;stroke:#ff0000;stroke-width:9.37274361;stroke-linecap:butt;stroke-linejoin:miter;stroke-miterlimit:4;stroke-dasharray:none;stroke-opacity:1"
       d="M  0 , -142.322820961683 C  9.41635782856787 , -142.322820961683 52.956241198947 , -142.220305618079 102.795660253853 , -119.918633316203 152.635079308759 , -97.6169610143265 214.509825244914 , -61.7695545901032 270.879886447306 , 17.7089091541472 327.249947649698 , 97.1873728983976 349.073250407039 , 147.521848129668 347.907599476824 , 210.310392450565 346.741948546609 , 273.098936771462 322.069307814018 , 353.7438215119 244.949574135188 , 415.899369386338 167.829840456358 , 478.054917260776 102.899645019096 , 476.007791147664 0 , 476.007791147664 -102.899645019096 , 476.007791147664 -167.829840456358 , 478.054917260776 -244.949574135188 , 415.899369386338 -322.069307814018 , 353.7438215119 -355.348282462049 , 271.015174328499 -367.156313909551 , 229.294267437099 -378.964345357053 , 187.573360545699 -406.811656134312 , 48.3218842736973 -305.552279450234 , -22.7554060996091 -204.292902766156 , -93.8326964729155 -136.770742520361 , -6.77973155635461 -130.731026696526 , 1.18180368494528 -124.691310872691 , 9.14333892624517 -98.2656909065453 , 45.7222074626603 -112.758605632716 , 95.8341728543122 -127.251520358887 , 145.946138245964 -156.482292096461 , 150.932248291803 -171.311990203864 , 204.345955609152 -186.141688311267 , 257.759662926501 -162.784279885237 , 294.200262521305 -142.973905373443 , 312.511635070552 -123.163530861649 , 330.823007619799 -89.6911939993299 , 351.278242296304 0.353334429486486 , 351.003666044502 90.3978628583029 , 350.7290897927 123.163530861649 , 330.823007619799 142.973905373443 , 312.511635070552 162.784279885237 , 294.200262521305 186.409377911447 , 261.556278907961 186.11470428107 , 213.145232664494 185.820030650693 , 164.734186421027 165.730792047813 , 140.242479891885 158.95120398576 , 86.3275832215298 152.171615923707 , 32.4126865511746 160.540104711511 , 2.91214791043144 163.447691603916 , -6.96988179720355 166.355278496321 , -16.8519115048385 192.305986150823 , -103.550045258478 279.44312893631 , -113.962893094669 366.580271721797 , -124.37574093086 416.005455944918 , -46.2282067107326 396.139566958017 , 20.8866208669471 376.273677971116 , 88.0014484446268 317.060905759656 , 108.597502685668 251.722630914558 , 131.915030170922 186.38435606946 , 155.232557656176 131.282707886439 , 155.702397942864 95.3843976750495 , 224.991085843122 59.48608746366 , 294.27977374338 86.45780390607 , 352.825234767115 98.572350006208 , 409.65174206202 110.686896106346 , 466.478249356925 120.750736590556 , 515.986936675731 88.7433092377851 , 563.396978796595 56.7358818850137 , 610.807020917459 10.0910665024906 , 611.989865580908 0 , 611.989865580908 -10.0910665024906 , 611.989865580908 -56.7358818850137 , 610.807020917459 -88.7433092377851 , 563.396978796595 -120.750736590556 , 515.986936675731 -110.686896106346 , 466.478249356925 -98.572350006208 , 409.65174206202 -86.45780390607 , 352.825234767115 -62.8711547060578 , 305.48638231158 -88.1477453436904 , 223.785203257591 -113.424335981323 , 142.084024203602 -165.327722739069 , 156.845058424268 -191.062631859627 , 65.1400840849794 -216.797540980185 , -26.5648902543092 -152.635079308759 , -97.6169610143265 -102.795660253853 , -119.918633316203 -52.956241198947 , -142.220305618079 -9.41635782856787 , -142.322820961683 0 , -142.322820961683 Z "
       id="path3401"
       inkscape:connector-curvature="0"
       sodipodi:nodetypes="zzzzzzzzzzzzzzzzzzzzzzzzzzzzzzz" />
  </g>
</svg>
