<?xml version="1.0" encoding="UTF-8" standalone="no"?>
<!-- Created with Inkscape (http://www.inkscape.org/) -->

<svg
   xmlns:dc="http://purl.org/dc/elements/1.1/"
   xmlns:cc="http://creativecommons.org/ns#"
   xmlns:rdf="http://www.w3.org/1999/02/22-rdf-syntax-ns#"
   xmlns:svg="http://www.w3.org/2000/svg"
   xmlns="http://www.w3.org/2000/svg"
   xmlns:sodipodi="http://sodipodi.sourceforge.net/DTD/sodipodi-0.dtd"
   xmlns:inkscape="http://www.inkscape.org/namespaces/inkscape"
   width="210mm"
   height="297mm"
   viewBox="0 0 744.09448819 1052.3622047"
   id="svg2"
   version="1.1"
   inkscape:version="0.91 r13725"
   sodipodi:docname="9_19.svg">
  <defs
     id="defs4" />
  <sodipodi:namedview
     id="base"
     pagecolor="#ffffff"
     bordercolor="#666666"
     borderopacity="1.0"
     inkscape:pageopacity="0.0"
     inkscape:pageshadow="2"
     inkscape:zoom="1.9260871"
     inkscape:cx="42.495531"
     inkscape:cy="902.37317"
     inkscape:document-units="px"
     inkscape:current-layer="layer1"
     showgrid="false"
     inkscape:window-width="1600"
     inkscape:window-height="835"
     inkscape:window-x="0"
     inkscape:window-y="0"
     inkscape:window-maximized="1" />
  <metadata
     id="metadata7">
    <rdf:RDF>
      <cc:Work
         rdf:about="">
        <dc:format>image/svg+xml</dc:format>
        <dc:type
           rdf:resource="http://purl.org/dc/dcmitype/StillImage" />
      </cc:Work>
    </rdf:RDF>
  </metadata>
  <g
     inkscape:label="Layer 1"
     inkscape:groupmode="layer"
     id="layer1">
    <path
       style="fill:none;fill-rule:evenodd;stroke:#ff0000;stroke-width:11.49938202;stroke-linecap:butt;stroke-linejoin:miter;stroke-miterlimit:4;stroke-dasharray:none;stroke-opacity:1"
       d="M  278.565017531802 , 475.638696145141 C  249.028711772296 , 528.445570035121 192.714665042729 , 551.189104558181 139.083053457991 , 537.82214228762 85.4514418732533 , 524.45518001706 50.7092092386588 , 481.380754478898 -2.5946359636015 , 423.209627816292 -55.8984811658618 , 365.038501153686 -86.4697174392884 , 341.004851392106 -122.901046468082 , 328.972624613709 -159.332375496876 , 316.940397835311 -199.640650003095 , 318.356414999032 -235.461843685368 , 340.503446096506 -271.28303736764 , 362.650477193979 -317.88869514931 , 423.044282113886 -280.857483217784 , 499.423348269048 -243.826271286258 , 575.802414424209 -149.284323454374 , 599.271593666037 -58.4721320182638 , 574.083474224517 32.3400594178467 , 548.895354782998 68.8802234994374 , 499.171494372264 178.905405736361 , 437.176497936215 288.930587973284 , 375.181501500165 327.754322487274 , 370.11745901463 358.738414646403 , 315.929242206495 389.722506805533 , 261.741025398361 379.128313211172 , 200.245717336488 338.159859974048 , 159.72210064325 297.191406736925 , 119.198483950012 244.8140620716 , 116.25439817399 166.152618936742 , 112.579744798979 87.4911758018849 , 108.905091423967 78.5852423642126 , 108.233712012549 0 , 108.233712012549 -78.5852423642126 , 108.233712012549 -109.661524411871 , 69.6937481518062 -200.328724662125 , 64.8724042495479 -290.995924912379 , 60.0510603472896 -349.934417300823 , 103.298357941759 -377.72132344154 , 156.284485488756 -405.508229582256 , 209.270613035753 -405.487167336922 , 276.200869089813 -364.482373163273 , 333.258972449938 -323.477578989624 , 390.317075810063 -243.265076652368 , 432.380919715183 -153.346050592387 , 415.092609397624 -63.4270245324059 , 397.804299080065 -6.17984845480709 , 317.591915470464 12.3534148030496 , 289.757771443946 30.8866780609064 , 261.923627417427 46.4275882078476 , 233.382518184341 57.2654767840598 , 194.49134318546 68.103365360272 , 155.600168186578 75.543167578745 , 98.4048475262848 57.5390420409099 , 38.6810074385022 39.5349165030748 , -21.0428326492804 3.59061340910506 , -70.640041779982 -43.8924186709647 , -100.413761574527 -91.3754507510345 , -130.187481369072 -208.723343229787 , -171.34418630714 -295.642114161204 , -67.066506030304 -382.56088509262 , 37.2111742465317 -309.407699307312 , 119.864386227767 -270.493631123505 , 140.042638417135 -231.579562939699 , 160.220890606503 -187.739417465088 , 157.909352665093 -146.36719211889 , 131.676487026344 -104.994966772692 , 105.443621387595 -94.5754788660299 , 73.1320660643561 -39.7059094750482 , 22.9371360008092 15.1636599159336 , -27.2577940627376 62.4274543674256 , -43.6343126792428 106.796056522667 , -40.3961669191324 151.164658677908 , -37.1580211590219 197.169845717896 , -15.0691673226822 229.549545660194 , 36.4700959526978 261.929245602492 , 88.0093592280779 256.806303148223 , 131.321524065886 277.051886270023 , 256.660926188708 297.297469391823 , 382.00032831153 308.101323291308 , 422.83182225516 278.565017531802 , 475.638696145141 Z "
       id="path4203"
       inkscape:connector-curvature="0"
       sodipodi:nodetypes="zzzzzzzzzzzzzzzzzzzzzzzzzzzz" />
  </g>
</svg>
