<?xml version="1.0" encoding="UTF-8" standalone="no"?>
<!-- Created with Inkscape (http://www.inkscape.org/) -->

<svg
   xmlns:dc="http://purl.org/dc/elements/1.1/"
   xmlns:cc="http://creativecommons.org/ns#"
   xmlns:rdf="http://www.w3.org/1999/02/22-rdf-syntax-ns#"
   xmlns:svg="http://www.w3.org/2000/svg"
   xmlns="http://www.w3.org/2000/svg"
   xmlns:sodipodi="http://sodipodi.sourceforge.net/DTD/sodipodi-0.dtd"
   xmlns:inkscape="http://www.inkscape.org/namespaces/inkscape"
   width="210mm"
   height="297mm"
   viewBox="0 0 744.09448819 1052.3622047"
   id="svg2"
   version="1.1"
   inkscape:version="0.91 r13725"
   sodipodi:docname="9_19.svg">
  <defs
     id="defs4" />
  <sodipodi:namedview
     id="base"
     pagecolor="#ffffff"
     bordercolor="#666666"
     borderopacity="1.0"
     inkscape:pageopacity="0.0"
     inkscape:pageshadow="2"
     inkscape:zoom="1.9260871"
     inkscape:cx="42.495531"
     inkscape:cy="902.37317"
     inkscape:document-units="px"
     inkscape:current-layer="layer1"
     showgrid="false"
     inkscape:window-width="1600"
     inkscape:window-height="835"
     inkscape:window-x="0"
     inkscape:window-y="0"
     inkscape:window-maximized="1" />
  <metadata
     id="metadata7">
    <rdf:RDF>
      <cc:Work
         rdf:about="">
        <dc:format>image/svg+xml</dc:format>
        <dc:type
           rdf:resource="http://purl.org/dc/dcmitype/StillImage" />
      </cc:Work>
    </rdf:RDF>
  </metadata>
  <g
     inkscape:label="Layer 1"
     inkscape:groupmode="layer"
     id="layer1">
    <path
       style="fill:none;fill-rule:evenodd;stroke:#ff0000;stroke-width:11.49938202;stroke-linecap:butt;stroke-linejoin:miter;stroke-miterlimit:4;stroke-dasharray:none;stroke-opacity:1"
       d="M  282.951977036116 , 485.651392642703 C  253.180591002406 , 559.601453141487 172.373684292806 , 575.372333976912 118.531906763192 , 549.27015862839 64.6901292335779 , 523.167983279868 49.7570827078705 , 482.691176836503 2.00871053000532 , 418.931965533318 -45.7396616478599 , 355.172754230133 -71.8123669997381 , 330.235200664391 -112.880200616073 , 317.317592550683 -153.948034232408 , 304.399984436974 -196.427143505005 , 310.106581238726 -231.442737680286 , 335.659833008394 -266.458331855566 , 361.213084778061 -307.38857518918 , 422.990522104591 -272.029007696966 , 492.228201071159 -236.669440204753 , 561.465880037726 -149.101672712974 , 588.301947564733 -60.5005395615717 , 563.547938026455 28.100593589831 , 538.793928488177 70.0825781608279 , 476.038253278667 170.076376587591 , 428.716497535614 270.070175014355 , 381.39474179256 321.116251964126 , 397.488376956512 365.404931055888 , 327.822915735972 409.69361014765 , 258.157454515432 378.509627332885 , 182.505719174 328.869121107507 , 147.973559332374 279.228614882128 , 113.441399490747 240.404507154033 , 122.649384148564 145.551473994027 , 122.690442733247 50.6984408340214 , 122.73150131793 81.1722103784248 , 122.250592897513 0 , 122.250592897513 -81.1722103784248 , 122.250592897513 -91.0562292007905 , 82.042348064117 -172.660460255953 , 70.0561812543028 -254.264691311116 , 58.0700144444887 -331.525497993569 , 85.3958719046018 -369.724917117084 , 143.343255315396 -407.924336240599 , 201.29063872619 -403.900768710729 , 277.955580835142 -359.888588622083 , 335.038568366252 -315.876408533438 , 392.121555897361 -232.098516453067 , 423.977385207469 -147.131020272449 , 409.43390566441 -62.1635240918313 , 394.890426121351 -13.5552154182067 , 319.75795008477 8.27183379984806 , 284.840168028772 30.0988830179028 , 249.922385972775 41.4347484384177 , 220.606790170807 47.7379928611434 , 198.940545671963 54.0412372838692 , 177.27430117312 69.7419306139196 , 116.642427356381 47.8542293051119 , 43.5781593758878 25.9665279963043 , -29.4861086046052 -15.2613617436136 , -71.1884994910863 -46.7878913632865 , -90.7307023739702 -78.3144209829594 , -110.272905256854 -177.611445871709 , -155.05029921197 -268.507291954052 , -64.3664296179239 -359.403138036396 , 26.3174399761226 -297.442528767883 , 115.386473434674 -260.020383855923 , 141.894592279221 -222.598238943964 , 168.402711123767 -174.153771410582 , 170.515442558318 -133.524271740127 , 142.736403927679 -92.8947720696725 , 114.957365297039 -94.0982077406805 , 84.5604996850227 -46.3016668735087 , 28.4148326044576 1.49487399366312 , -27.7308344761074 51.922818468805 , -52.2295761124275 100.00890876059 , -50.7828717406129 148.094999052374 , -49.3361673687984 199.839944466149 , -23.980994749309 229.152051412919 , 38.560417568356 258.464158359688 , 101.101829886021 233.509424365212 , 141.943084829657 252.121699368204 , 259.291245274463 270.733974371197 , 376.63940571927 312.723363069827 , 411.701332143919 282.951977036116 , 485.651392642703 Z "
       id="path4203"
       inkscape:connector-curvature="0"
       sodipodi:nodetypes="zzzzzzzzzzzzzzzzzzzzzzzzzzzz" />
  </g>
</svg>
