<?xml version="1.0" encoding="UTF-8" standalone="no"?>
<!-- Created with Inkscape (http://www.inkscape.org/) -->

<svg
   xmlns:dc="http://purl.org/dc/elements/1.1/"
   xmlns:cc="http://creativecommons.org/ns#"
   xmlns:rdf="http://www.w3.org/1999/02/22-rdf-syntax-ns#"
   xmlns:svg="http://www.w3.org/2000/svg"
   xmlns="http://www.w3.org/2000/svg"
   xmlns:sodipodi="http://sodipodi.sourceforge.net/DTD/sodipodi-0.dtd"
   xmlns:inkscape="http://www.inkscape.org/namespaces/inkscape"
   width="210mm"
   height="297mm"
   viewBox="0 0 744.09448819 1052.3622047"
   id="svg2"
   version="1.1"
   inkscape:version="0.91 r13725"
   sodipodi:docname="9_2.svg">
  <defs
     id="defs4" />
  <sodipodi:namedview
     id="base"
     pagecolor="#ffffff"
     bordercolor="#666666"
     borderopacity="1.0"
     inkscape:pageopacity="0.0"
     inkscape:pageshadow="2"
     inkscape:zoom="1.5982422"
     inkscape:cx="283.64964"
     inkscape:cy="913.56312"
     inkscape:document-units="px"
     inkscape:current-layer="layer1"
     showgrid="false"
     inkscape:window-width="2560"
     inkscape:window-height="1315"
     inkscape:window-x="0"
     inkscape:window-y="1"
     inkscape:window-maximized="1" />
  <metadata
     id="metadata7">
    <rdf:RDF>
      <cc:Work
         rdf:about="">
        <dc:format>image/svg+xml</dc:format>
        <dc:type
           rdf:resource="http://purl.org/dc/dcmitype/StillImage" />
        <dc:title />
      </cc:Work>
    </rdf:RDF>
  </metadata>
  <g
     inkscape:label="Layer 1"
     inkscape:groupmode="layer"
     id="layer1">
    <path
       style="fill:none;fill-rule:evenodd;stroke:#ff0000;stroke-width:16.8548069;stroke-linecap:butt;stroke-linejoin:miter;stroke-miterlimit:4;stroke-dasharray:none;stroke-opacity:1"
       d="M  90.3551711685374 , -448.365806460213 C  154.395801747202 , -440.455360548088 204.526182096474 , -387.807213951482 230.085448837124 , -298.642551389142 255.644715577773 , -209.477888826801 227.801200072757 , -145.163770062287 264.053542818075 , -38.3050431558078 300.305885563394 , 68.5536837506713 334.57458503431 , 84.3794420087915 344.682753464071 , 140.241803486641 354.790921893831 , 196.10416496449 335.968155560974 , 247.265188528295 291.229720217397 , 281.841508891256 246.491284873819 , 316.417829254218 208.466417407836 , 306.508357234104 106.832539499323 , 349.491691215515 5.19866159081005 , 392.475025196925 -8.12176420629653 , 421.46729680315 -62.3495476999153 , 430.504073672671 -116.577331193534 , 439.540850542192 -168.202666011897 , 420.374744152938 -201.868283057807 , 373.222053128806 -235.533900103718 , 326.069362104673 -224.341902222693 , 285.695631974311 -265.904023705685 , 185.698427953683 -307.466145188677 , 85.701223933055 -339.357504069069 , 72.840919463054 -350.473544318708 , 11.7310242737131 -361.589584568347 , -49.3788709156279 -339.491202727229 , -97.3382775922354 -298.858632269572 , -127.160456159677 -258.226061811916 , -156.98263472712 -205.639966256181 , -157.726325650855 -120.770287806997 , -177.983659882716 -35.9006093578126 , -198.240994114577 36.8636250191905 , -248.501421889076 38.5613794441569 , -327.326099318723 40.2591338691233 , -406.150776748371 -26.3145405898729 , -456.276252372338 -90.3551711685374 , -448.365806460213 -154.395801747202 , -440.455360548088 -204.526182096474 , -387.807213951482 -230.085448837124 , -298.642551389142 -255.644715577773 , -209.477888826801 -227.801200072757 , -145.163770062287 -264.053542818075 , -38.3050431558078 -300.305885563394 , 68.5536837506713 -334.57458503431 , 84.3794420087915 -344.682753464071 , 140.241803486641 -354.790921893831 , 196.10416496449 -335.968155560974 , 247.265188528295 -291.229720217397 , 281.841508891256 -246.491284873819 , 316.417829254218 -208.466417407836 , 306.508357234104 -106.832539499323 , 349.491691215515 -5.19866159081005 , 392.475025196925 8.12176420629653 , 421.46729680315 62.3495476999153 , 430.504073672671 116.577331193534 , 439.540850542192 168.202666011897 , 420.374744152938 201.868283057807 , 373.222053128806 235.533900103718 , 326.069362104673 224.341902222693 , 285.695631974311 265.904023705685 , 185.698427953683 307.466145188677 , 85.701223933055 339.357504069069 , 72.840919463054 350.473544318708 , 11.7310242737131 361.589584568347 , -49.3788709156279 339.491202727229 , -97.3382775922354 298.858632269572 , -127.160456159677 258.226061811916 , -156.98263472712 205.639966256181 , -157.726325650855 120.770287806997 , -177.983659882716 35.9006093578126 , -198.240994114577 -36.8636250191905 , -248.501421889076 -38.5613794441569 , -327.326099318723 -40.2591338691233 , -406.150776748371 26.3145405898729 , -456.276252372338 90.3551711685374 , -448.365806460213 Z "
       id="path4201"
       inkscape:connector-curvature="0"
       sodipodi:nodetypes="zzzzzzzzzzzzzzzzzzzzzzzzzzz" />
  </g>
</svg>
