<?xml version="1.0" encoding="UTF-8" standalone="no"?>
<!-- Created with Inkscape (http://www.inkscape.org/) -->

<svg
   xmlns:dc="http://purl.org/dc/elements/1.1/"
   xmlns:cc="http://creativecommons.org/ns#"
   xmlns:rdf="http://www.w3.org/1999/02/22-rdf-syntax-ns#"
   xmlns:svg="http://www.w3.org/2000/svg"
   xmlns="http://www.w3.org/2000/svg"
   xmlns:sodipodi="http://sodipodi.sourceforge.net/DTD/sodipodi-0.dtd"
   xmlns:inkscape="http://www.inkscape.org/namespaces/inkscape"
   width="210mm"
   height="297mm"
   viewBox="0 0 744.09448819 1052.3622047"
   id="svg2"
   version="1.1"
   inkscape:version="0.91 r13725"
   sodipodi:docname="9_2.svg">
  <defs
     id="defs4" />
  <sodipodi:namedview
     id="base"
     pagecolor="#ffffff"
     bordercolor="#666666"
     borderopacity="1.0"
     inkscape:pageopacity="0.0"
     inkscape:pageshadow="2"
     inkscape:zoom="1.5982422"
     inkscape:cx="283.64964"
     inkscape:cy="913.56312"
     inkscape:document-units="px"
     inkscape:current-layer="layer1"
     showgrid="false"
     inkscape:window-width="2560"
     inkscape:window-height="1315"
     inkscape:window-x="0"
     inkscape:window-y="1"
     inkscape:window-maximized="1" />
  <metadata
     id="metadata7">
    <rdf:RDF>
      <cc:Work
         rdf:about="">
        <dc:format>image/svg+xml</dc:format>
        <dc:type
           rdf:resource="http://purl.org/dc/dcmitype/StillImage" />
        <dc:title />
      </cc:Work>
    </rdf:RDF>
  </metadata>
  <g
     inkscape:label="Layer 1"
     inkscape:groupmode="layer"
     id="layer1">
    <path
       style="fill:none;fill-rule:evenodd;stroke:#ff0000;stroke-width:16.8548069;stroke-linecap:butt;stroke-linejoin:miter;stroke-miterlimit:4;stroke-dasharray:none;stroke-opacity:1"
       d="M  87.2772983871287 , -430.770915307396 C  144.243705169681 , -426.501399906734 201.572298120723 , -383.543247982656 226.657925860929 , -289.826720389784 251.743553601136 , -196.110192796911 207.715753132356 , -142.215578633146 244.793234597587 , -34.7778161960583 281.870716062818 , 72.65994624103 328.951784866383 , 71.9850418929293 348.240075743164 , 134.110534363557 367.528366619945 , 196.236026834185 341.76010463261 , 256.150704749382 285.954114371506 , 285.811202543883 230.148124110403 , 315.471700338384 201.87998346021 , 285.318800850111 101.856381970776 , 327.925434502053 1.83278048134272 , 370.532068153995 4.10435171411579 , 412.501220356899 -56.9057310251394 , 432.069627285003 -117.915813764395 , 451.638034213107 -179.21406771373 , 426.119821207972 -207.800789604177 , 368.091302106774 -236.387511494625 , 310.062783005577 -203.181716512017 , 280.834722947384 -244.507200831306 , 179.302912224637 -285.832685150595 , 77.77110150189 -330.703994868626 , 81.4379754818991 -351.91916308569 , 16.7095662788315 -373.134331302754 , -48.0188429242362 -345.656389160817 , -107.517831906499 -295.489954402237 , -137.276814170407 -245.323519643657 , -167.035796434316 -209.538772041204 , -151.926045462929 -116.293575380287 , -173.390983763697 -23.0483787193694 , -194.855922064466 38.1720063836718 , -246.269200682119 34.4151671529187 , -319.133516554114 30.6583279221656 , -391.997832426109 -30.3108916045763 , -435.040430708057 -87.2772983871287 , -430.770915307396 -144.243705169681 , -426.501399906734 -201.572298120723 , -383.543247982656 -226.657925860929 , -289.826720389784 -251.743553601136 , -196.110192796911 -207.715753132356 , -142.215578633146 -244.793234597587 , -34.7778161960583 -281.870716062818 , 72.65994624103 -328.951784866383 , 71.9850418929293 -348.240075743164 , 134.110534363557 -367.528366619945 , 196.236026834185 -341.76010463261 , 256.150704749382 -285.954114371506 , 285.811202543883 -230.148124110403 , 315.471700338384 -201.87998346021 , 285.318800850111 -101.856381970776 , 327.925434502053 -1.83278048134272 , 370.532068153995 -4.10435171411579 , 412.501220356899 56.9057310251394 , 432.069627285003 117.915813764395 , 451.638034213107 179.21406771373 , 426.119821207972 207.800789604177 , 368.091302106774 236.387511494625 , 310.062783005577 203.181716512017 , 280.834722947384 244.507200831306 , 179.302912224637 285.832685150595 , 77.77110150189 330.703994868626 , 81.4379754818991 351.91916308569 , 16.7095662788315 373.134331302754 , -48.0188429242362 345.656389160817 , -107.517831906499 295.489954402237 , -137.276814170407 245.323519643657 , -167.035796434316 209.538772041204 , -151.926045462929 116.293575380287 , -173.390983763697 23.0483787193694 , -194.855922064466 -38.1720063836718 , -246.269200682119 -34.4151671529187 , -319.133516554114 -30.6583279221656 , -391.997832426109 30.3108916045763 , -435.040430708057 87.2772983871287 , -430.770915307396 Z "
       id="path4201"
       inkscape:connector-curvature="0"
       sodipodi:nodetypes="zzzzzzzzzzzzzzzzzzzzzzzzzzz" />
  </g>
</svg>
