<?xml version="1.0" encoding="UTF-8" standalone="no"?>
<!-- Created with Inkscape (http://www.inkscape.org/) -->

<svg
   xmlns:dc="http://purl.org/dc/elements/1.1/"
   xmlns:cc="http://creativecommons.org/ns#"
   xmlns:rdf="http://www.w3.org/1999/02/22-rdf-syntax-ns#"
   xmlns:svg="http://www.w3.org/2000/svg"
   xmlns="http://www.w3.org/2000/svg"
   xmlns:sodipodi="http://sodipodi.sourceforge.net/DTD/sodipodi-0.dtd"
   xmlns:inkscape="http://www.inkscape.org/namespaces/inkscape"
   width="210mm"
   height="297mm"
   viewBox="0 0 744.09448819 1052.3622047"
   id="svg2"
   version="1.1"
   inkscape:version="0.91 r13725"
   sodipodi:docname="9_20.svg">
  <defs
     id="defs4" />
  <sodipodi:namedview
     id="base"
     pagecolor="#ffffff"
     bordercolor="#666666"
     borderopacity="1.0"
     inkscape:pageopacity="0.0"
     inkscape:pageshadow="2"
     inkscape:zoom="0.53342972"
     inkscape:cx="194.16296"
     inkscape:cy="967.63051"
     inkscape:document-units="px"
     inkscape:current-layer="layer1"
     showgrid="false"
     inkscape:window-width="1301"
     inkscape:window-height="744"
     inkscape:window-x="65"
     inkscape:window-y="24"
     inkscape:window-maximized="1" />
  <metadata
     id="metadata7">
    <rdf:RDF>
      <cc:Work
         rdf:about="">
        <dc:format>image/svg+xml</dc:format>
        <dc:type
           rdf:resource="http://purl.org/dc/dcmitype/StillImage" />
        <dc:title />
      </cc:Work>
    </rdf:RDF>
  </metadata>
  <g
     inkscape:label="Layer 1"
     inkscape:groupmode="layer"
     id="layer1">
    <path
       style="fill:none;fill-rule:evenodd;stroke:#ff0000;stroke-width:21.78189468;stroke-linecap:butt;stroke-linejoin:miter;stroke-miterlimit:4;stroke-dasharray:none;stroke-opacity:1"
       d="M  0 , -256.247325673559 C  148.338483458087 , -256.247325673559 172.62610618588 , -93.4949979204262 171.569966306862 , -41.2511387181152 170.513826427844 , 10.9927204841958 160.064308214078 , 45.6078403287824 161.316654278484 , 78.5516890720133 162.56900034289 , 111.495537815244 168.710855651744 , 134.866722809895 184.394016227958 , 164.644340126448 200.077176804172 , 194.421957443001 224.862635517862 , 217.532997418754 249.44046006447 , 261.079553269631 274.018284611078 , 304.626109120508 302.518068891426 , 376.590069762966 249.86658066916 , 461.510966437244 197.215092446894 , 546.431863111522 99.132812730608 , 583.310390286912 18.9342355857666 , 591.068872008623 -61.2643415590748 , 598.827353730334 -221.308262115538 , 576.959927377333 -264.13256808928 , 449.609607316596 -306.956874063022 , 322.259287255859 -210.070265707374 , 290.249558453171 -200.94895845652 , 287.341104899967 -191.827651205666 , 284.432651346763 -157.492754825443 , 274.42373762961 -110.687277628776 , 297.032932325996 -63.881800432109 , 319.642127022382 -45.8759854242113 , 347.213051486112 -9.08227381844588 , 362.909563695177 27.7114377873195 , 378.606075904242 60.2783691859212 , 376.367137303999 89.3694707089327 , 363.56398678386 118.460572231944 , 350.760836263721 140.041755375443 , 326.753689865044 177.675620880918 , 269.604021418367 215.309486386393 , 212.45435297169 244.472011916747 , 175.125776702043 228.012706766383 , 108.30836227551 211.553401616019 , 41.490947848977 157.623773253006 , 18.1139803620799 93.4497037004607 , -14.3756364864318 29.2756341479154 , -46.8652533349435 12.777755156012 , -68.7529421757409 -62.3939483541972 , -74.6567791989118 -137.565651864406 , -80.5606162220827 -213.368021946381 , -42.8636796852765 -261.409846455938 , 18.4339049269222 -309.451670965495 , 79.7314895391209 -325.420413250536 , 150.530064108837 -308.661943000476 , 217.730272352755 -291.903472750416 , 284.930480596673 -241.296582026695 , 346.14536294617 -157.407523453076 , 351.8366702361 -73.518464879457 , 357.52797752603 -52.4333523877418 , 319.794558993902 34.7170454318685 , 315.304014336344 121.867443251479 , 310.813469678786 145.244410908222 , 338.704781284117 204.725437394092 , 338.085932053854 264.206463879962 , 337.467082823591 345.263977935155 , 317.471749138181 389.772231109803 , 218.252284510586 434.280484284451 , 119.032819882991 411.949707939173 , -9.32738418721233 316.602506014371 , -82.492066578903 221.255304089569 , -155.656748970594 137.293419562249 , -123.47683249888 88.9463868642352 , -92.0498634638032 40.5993541662214 , -60.6228944287264 20.7901444316347 , -28.8642143038794 -18.5360929761112 , -8.56209688728034 -57.8623303838571 , 11.7400205293187 -97.462152277801 , 15.3383600637561 -134.615704739142 , -2.11993275008957 -171.769257200483 , -19.5782255639352 -203.183408578931 , -63.0181483535034 -198.315106564081 , -118.142484356488 -193.446804549231 , -173.266820359473 -148.338483458087 , -256.247325673559 0 , -256.247325673559 Z "
       id="path3401"
       inkscape:connector-curvature="0"
       sodipodi:nodetypes="zzzzzzzzzzzzzzzzzzzzzzzzzzzz" />
  </g>
</svg>
