<?xml version="1.0" encoding="UTF-8" standalone="no"?>
<!-- Created with Inkscape (http://www.inkscape.org/) -->

<svg
   xmlns:dc="http://purl.org/dc/elements/1.1/"
   xmlns:cc="http://creativecommons.org/ns#"
   xmlns:rdf="http://www.w3.org/1999/02/22-rdf-syntax-ns#"
   xmlns:svg="http://www.w3.org/2000/svg"
   xmlns="http://www.w3.org/2000/svg"
   xmlns:sodipodi="http://sodipodi.sourceforge.net/DTD/sodipodi-0.dtd"
   xmlns:inkscape="http://www.inkscape.org/namespaces/inkscape"
   width="210mm"
   height="297mm"
   viewBox="0 0 744.09448819 1052.3622047"
   id="svg2"
   version="1.1"
   inkscape:version="0.91 r13725"
   sodipodi:docname="9_20.svg">
  <defs
     id="defs4" />
  <sodipodi:namedview
     id="base"
     pagecolor="#ffffff"
     bordercolor="#666666"
     borderopacity="1.0"
     inkscape:pageopacity="0.0"
     inkscape:pageshadow="2"
     inkscape:zoom="0.53342972"
     inkscape:cx="194.16296"
     inkscape:cy="967.63051"
     inkscape:document-units="px"
     inkscape:current-layer="layer1"
     showgrid="false"
     inkscape:window-width="1301"
     inkscape:window-height="744"
     inkscape:window-x="65"
     inkscape:window-y="24"
     inkscape:window-maximized="1" />
  <metadata
     id="metadata7">
    <rdf:RDF>
      <cc:Work
         rdf:about="">
        <dc:format>image/svg+xml</dc:format>
        <dc:type
           rdf:resource="http://purl.org/dc/dcmitype/StillImage" />
        <dc:title />
      </cc:Work>
    </rdf:RDF>
  </metadata>
  <g
     inkscape:label="Layer 1"
     inkscape:groupmode="layer"
     id="layer1">
    <path
       style="fill:none;fill-rule:evenodd;stroke:#ff0000;stroke-width:21.78189468;stroke-linecap:butt;stroke-linejoin:miter;stroke-miterlimit:4;stroke-dasharray:none;stroke-opacity:1"
       d="M  0 , -252.125089003149 C  148.83813066661 , -252.125089003149 175.352469972597 , -100.258832620593 168.573743503892 , -41.5690213116645 161.795017035187 , 17.1207899972637 143.381713518615 , 32.7563272332234 139.787189963931 , 73.8947545591381 136.192666409246 , 115.033181885053 145.086676205818 , 145.903231973271 168.387290932812 , 178.182625096215 191.687905659806 , 210.46201821916 215.956344194783 , 216.307698854712 248.324147139259 , 259.4262973056 280.691950083736 , 302.544895756488 312.867307043679 , 376.600445399931 256.258033059299 , 460.957316983162 199.648759074919 , 545.314188566392 97.7033098308878 , 577.398580428745 20.400022004206 , 583.708453587855 -56.9032658224759 , 590.018326746964 -214.242290106597 , 570.374069644298 -260.76304483112 , 449.846865669586 -307.283799555644 , 329.319661694874 -207.42634771739 , 287.646013539766 -199.049104326802 , 284.213884382948 -190.671860936214 , 280.781755226131 -149.714744780391 , 264.781007476316 -104.423298751335 , 292.030397743383 -59.1318527222786 , 319.27978801045 -59.3084732271158 , 347.045766306877 -19.9974162812603 , 370.959088792297 19.3136406645951 , 394.872411277717 64.9888482168657 , 393.110024973215 101.548196298377 , 365.864547600074 138.107544379888 , 338.619070226932 135.134936257022 , 316.292414149683 167.452177017135 , 264.581653698457 199.769417777248 , 212.870893247231 246.822249921645 , 183.556788153796 226.160155327008 , 106.23370701976 205.498060732371 , 28.9106258857243 150.317397595113 , 28.9989265222525 88.6340289714003 , -3.57971980593354 26.9506603476875 , -36.1583661341196 25.3355774913161 , -64.8741462814385 -53.7996046358274 , -74.6745289214396 -132.934786762971 , -84.4749115614407 -212.795224117149 , -39.6667260766121 -258.052790516505 , 20.7379659602867 -303.310356915861 , 81.1426579971855 -318.965016805025 , 150.295797090688 -306.34400236081 , 215.078391991488 -293.722987916595 , 279.860986892289 -240.292513218503 , 353.537983357346 -149.631029809006 , 358.337769128382 -58.9695463995087 , 363.137554899418 -64.0400981860997 , 307.970169271318 31.118317581186 , 300.080521765901 126.276733348472 , 292.190874260483 140.413136829243 , 331.039772190124 205.919443520189 , 332.824749346867 271.425750211136 , 334.609726503611 347.871505499773 , 315.169367362637 389.182751356395 , 222.562016337232 430.493997213016 , 129.954665311828 410.34654971195 , -4.8877923573938 318.127358491558 , -83.1970977580128 225.908167271165 , -161.506403158632 140.243650207523 , -127.657578764779 87.7358148994877 , -89.5411241509369 35.2279795914527 , -51.4246695370948 32.5742097590406 , -23.902898338461 -11.0386828631184 , -0.713606254009145 -54.6515754852774 , 22.4756858304427 -98.182091197761 , 17.2828687706665 -131.7918348285 , -3.87382534441095 -165.401578459239 , -25.0305194594884 -191.359627200807 , -67.7919440899744 -187.873999432178 , -115.814342136647 -184.388371663548 , -163.83674018332 -148.83813066661 , -252.125089003149 0 , -252.125089003149 Z "
       id="path3401"
       inkscape:connector-curvature="0"
       sodipodi:nodetypes="zzzzzzzzzzzzzzzzzzzzzzzzzzzz" />
  </g>
</svg>
