<?xml version="1.0" encoding="UTF-8" standalone="no"?>
<!-- Created with Inkscape (http://www.inkscape.org/) -->

<svg
   xmlns:dc="http://purl.org/dc/elements/1.1/"
   xmlns:cc="http://creativecommons.org/ns#"
   xmlns:rdf="http://www.w3.org/1999/02/22-rdf-syntax-ns#"
   xmlns:svg="http://www.w3.org/2000/svg"
   xmlns="http://www.w3.org/2000/svg"
   xmlns:sodipodi="http://sodipodi.sourceforge.net/DTD/sodipodi-0.dtd"
   xmlns:inkscape="http://www.inkscape.org/namespaces/inkscape"
   width="210mm"
   height="297mm"
   viewBox="0 0 744.09448819 1052.3622047"
   id="svg2"
   version="1.1"
   inkscape:version="0.91 r13725"
   sodipodi:docname="9_20.svg">
  <defs
     id="defs4" />
  <sodipodi:namedview
     id="base"
     pagecolor="#ffffff"
     bordercolor="#666666"
     borderopacity="1.0"
     inkscape:pageopacity="0.0"
     inkscape:pageshadow="2"
     inkscape:zoom="0.53342972"
     inkscape:cx="194.16296"
     inkscape:cy="967.63051"
     inkscape:document-units="px"
     inkscape:current-layer="layer1"
     showgrid="false"
     inkscape:window-width="1301"
     inkscape:window-height="744"
     inkscape:window-x="65"
     inkscape:window-y="24"
     inkscape:window-maximized="1" />
  <metadata
     id="metadata7">
    <rdf:RDF>
      <cc:Work
         rdf:about="">
        <dc:format>image/svg+xml</dc:format>
        <dc:type
           rdf:resource="http://purl.org/dc/dcmitype/StillImage" />
        <dc:title />
      </cc:Work>
    </rdf:RDF>
  </metadata>
  <g
     inkscape:label="Layer 1"
     inkscape:groupmode="layer"
     id="layer1">
    <path
       style="fill:none;fill-rule:evenodd;stroke:#ff0000;stroke-width:21.78189468;stroke-linecap:butt;stroke-linejoin:miter;stroke-miterlimit:4;stroke-dasharray:none;stroke-opacity:1"
       d="M  0 , -263.099685251446 C  134.786556301566 , -263.099685251446 181.333107097448 , -98.2486087101778 171.953203996292 , -36.958307463091 162.573300895136 , 24.3319937839959 145.463474245338 , 34.6989865482135 140.930628035764 , 75.0654869249536 136.39778182619 , 115.431987301694 143.741327269193 , 145.240270372363 166.726941718553 , 178.296070743445 189.712556167912 , 211.351871114528 213.888220863183 , 216.678053824372 246.609506743812 , 260.274157142767 279.330792624441 , 303.870260461163 310.092729017035 , 376.540015480779 257.199632058879 , 459.017399546997 204.306535100722 , 541.494783613216 105.664218331748 , 578.002596754802 23.6180396581135 , 585.499686152407 -58.4281390155208 , 592.996775550011 -215.692690457172 , 571.388158373042 -261.910987343057 , 450.60330019187 -308.129284228943 , 329.818442010697 -209.016845025082 , 287.914069466516 -200.655113022688 , 284.425292628969 -192.293381020294 , 280.936515791423 -151.752891624479 , 264.96801059402 -106.502965941544 , 292.165735253238 -61.253040258609 , 319.363459912457 -61.6830849349658 , 347.187065208744 -21.9801947056288 , 371.532616787533 17.7226955237083 , 395.878168366321 63.9041277732289 , 393.83365752059 100.285130299034 , 366.506167861453 136.666132824839 , 339.178678202317 133.521692425371 , 317.095977471331 165.792577009187 , 265.206581690433 198.063461593004 , 213.317185909534 244.005073284447 , 184.816808836873 225.502956889539 , 108.823272147973 207.000840494632 , 32.8297354590731 151.358168482591 , 30.0867777254015 91.2517329433202 , -2.87789785777445 31.1452974040496 , -35.8425734409504 29.096825648279 , -64.0292731550634 -51.1263872800659 , -75.2427940267524 -131.349600208411 , -86.4563148984413 -212.776485022055 , -40.8158361463169 -258.992505721078 , 19.0034577817904 -305.208526420102 , 78.8227517098977 -322.8232521728 , 148.814493563396 -309.848327493972 , 214.876692080212 -296.873402815143 , 280.938890597028 -242.063290877875 , 353.947040259237 -151.550480624335 , 358.380503209006 -61.0376703707949 , 362.813966158774 -66.3972668173226 , 308.344829028353 28.8152344131385 , 300.620891376629 124.0277356436 , 292.896953724905 139.022768692694 , 331.935309990946 204.128379111482 , 333.592628319653 269.23398953027 , 335.249946648361 347.084380783829 , 315.451214217811 387.98351508576 , 220.654775507677 428.882649387691 , 125.858336797542 406.121489858809 , -4.14358668992575 319.82169615568 , -80.4773185860156 233.52190245255 , -156.811050482105 150.125581554276 , -128.435643535002 93.9466954345975 , -88.7703861479638 37.7678093149188 , -49.105128760926 37.6602206276538 , -22.7756660640101 -9.31604743677616 , 1.1195131281532 -56.2923155012061 , 25.0146923203165 -98.9304969432869 , 14.434864075716 -127.577519075509 , -5.27409901793914 -156.224541207731 , -24.9830621115943 -186.744647717765 , -67.5920650912345 -181.823927434405 , -125.089228551552 -176.903207151045 , -182.58639201187 -134.786556301566 , -263.099685251446 0 , -263.099685251446 Z "
       id="path3401"
       inkscape:connector-curvature="0"
       sodipodi:nodetypes="zzzzzzzzzzzzzzzzzzzzzzzzzzzz" />
  </g>
</svg>
