<?xml version="1.0" encoding="UTF-8" standalone="no"?>
<!-- Created with Inkscape (http://www.inkscape.org/) -->

<svg
   xmlns:dc="http://purl.org/dc/elements/1.1/"
   xmlns:cc="http://creativecommons.org/ns#"
   xmlns:rdf="http://www.w3.org/1999/02/22-rdf-syntax-ns#"
   xmlns:svg="http://www.w3.org/2000/svg"
   xmlns="http://www.w3.org/2000/svg"
   xmlns:sodipodi="http://sodipodi.sourceforge.net/DTD/sodipodi-0.dtd"
   xmlns:inkscape="http://www.inkscape.org/namespaces/inkscape"
   width="210mm"
   height="297mm"
   viewBox="0 0 744.09448819 1052.3622047"
   id="svg2"
   version="1.1"
   inkscape:version="0.91 r13725"
   sodipodi:docname="9_20.svg">
  <defs
     id="defs4" />
  <sodipodi:namedview
     id="base"
     pagecolor="#ffffff"
     bordercolor="#666666"
     borderopacity="1.0"
     inkscape:pageopacity="0.0"
     inkscape:pageshadow="2"
     inkscape:zoom="1.5087671"
     inkscape:cx="-80.584598"
     inkscape:cy="1227.1041"
     inkscape:document-units="px"
     inkscape:current-layer="layer1"
     showgrid="false"
     inkscape:window-width="1855"
     inkscape:window-height="1056"
     inkscape:window-x="65"
     inkscape:window-y="24"
     inkscape:window-maximized="1" />
  <metadata
     id="metadata7">
    <rdf:RDF>
      <cc:Work
         rdf:about="">
        <dc:format>image/svg+xml</dc:format>
        <dc:type
           rdf:resource="http://purl.org/dc/dcmitype/StillImage" />
        <dc:title />
      </cc:Work>
    </rdf:RDF>
  </metadata>
  <g
     inkscape:label="Layer 1"
     inkscape:groupmode="layer"
     id="layer1">
    <path
       style="fill:none;fill-rule:evenodd;stroke:#ff0000;stroke-width:21.78189468;stroke-linecap:butt;stroke-linejoin:miter;stroke-miterlimit:4;stroke-dasharray:none;stroke-opacity:1"
       d="M  0 , -264.43444670945 C  141.457110973432 , -264.43444670945 153.371909192745 , -108.158319391198 142.563229996025 , -51.3218802608064 131.754550799304 , 5.51455886958469 113.347018831781 , 21.9700533603438 108.589993313221 , 61.4199605479552 103.832967794661 , 100.869867735567 111.462583205858 , 132.103674507211 134.734365626241 , 165.224372441308 158.006148046624 , 198.345070375405 181.964713261882 , 203.529029814486 214.742089381525 , 247.06278659337 247.519465501168 , 290.596543372255 278.270117322523 , 363.394883924833 225.504279285772 , 446.013141098676 172.738441249021 , 528.631398272518 73.8566244244379 , 564.837458139599 -8.17997681284058 , 572.590071404707 -90.216578050119 , 580.342684669814 -247.51651596721 , 558.356365831012 -294.128122275494 , 437.5441242266 -340.739728583779 , 316.731882622188 -241.060289790191 , 274.704130686201 -232.747065251366 , 271.267173763628 -224.43384071254 , 267.830216841055 -183.746354715168 , 251.748176733405 -138.429071598432 , 279.014792835878 -93.1117884816956 , 306.281408938351 -93.6634925656361 , 334.038777461037 -53.7374423321063 , 358.608991640122 -13.8113920985765 , 383.179205819208 32.034281897567 , 380.794340425985 68.3131944697756 , 353.536754640996 104.592107041984 , 326.279168856006 101.726307514974 , 304.020531937807 133.989020721125 , 252.179734726499 166.251733927275 , 200.338937515192 212.275867952982 , 171.685414779086 193.550219302155 , 95.6258019872008 174.824570651328 , 19.5661891953156 120.05070470663 , 16.0291938246745 59.2336217504954 , -16.8181620439902 -1.58346120563886 , -49.6655179126548 -3.26975185486741 , -77.4821536446732 -82.7381665716076 , -87.1700555873851 -162.206581288348 , -96.8579575300971 -244.67427200478 , -53.8499155391402 -291.081552669589 , 5.60467436243279 -337.488833334397 , 65.0592642640058 -354.834898494006 , 135.645519896094 -341.878635262017 , 201.821644255807 -328.922372030027 , 267.99776861552 -274.014581083176 , 341.037228482314 -183.517645394422 , 345.318141862042 -93.0207097056676 , 349.599055241769 -98.3097110123094 , 295.164337613802 -3.20725235585784 , 287.335632286552 91.8952063005937 , 279.506926959302 107.099681129386 , 318.900700106176 172.28630440847 , 320.471946378065 237.472927687554 , 322.043192649955 315.208468084129 , 302.370075262028 356.478284471078 , 207.570740340724 397.748100858026 , 112.771405419419 373.337561366465 , -16.7095503197917 289.449644068763 , -90.2827401796668 205.561726771062 , -163.855930039542 118.144998177434 , -141.860714419956 61.9898438608975 , -103.315067484897 5.8346895443609 , -64.7694205498381 5.26522555734004 , -36.0897553000099 -41.5795784143444 , -12.2909842171321 -88.4243823860288 , 11.5077868657457 -131.352491398261 , 1.25383332877948 -159.558345439263 , -17.5859885197143 -187.764199480266 , -36.425810368208 -221.039485693313 , -80.3189185100817 -208.722031835604 , -138.684065899474 -196.404577977896 , -197.049213288867 -141.457110973432 , -264.43444670945 0 , -264.43444670945 Z "
       id="path3401"
       inkscape:connector-curvature="0"
       sodipodi:nodetypes="zzzzzzzzzzzzzzzzzzzzzzzzzzzz" />
  </g>
</svg>
