<?xml version="1.0" encoding="UTF-8" standalone="no"?>
<!-- Created with Inkscape (http://www.inkscape.org/) -->

<svg
   xmlns:dc="http://purl.org/dc/elements/1.1/"
   xmlns:cc="http://creativecommons.org/ns#"
   xmlns:rdf="http://www.w3.org/1999/02/22-rdf-syntax-ns#"
   xmlns:svg="http://www.w3.org/2000/svg"
   xmlns="http://www.w3.org/2000/svg"
   xmlns:sodipodi="http://sodipodi.sourceforge.net/DTD/sodipodi-0.dtd"
   xmlns:inkscape="http://www.inkscape.org/namespaces/inkscape"
   width="210mm"
   height="297mm"
   viewBox="0 0 744.09448819 1052.3622047"
   id="svg2"
   version="1.1"
   inkscape:version="0.91 r13725"
   sodipodi:docname="9_20.svg">
  <defs
     id="defs4" />
  <sodipodi:namedview
     id="base"
     pagecolor="#ffffff"
     bordercolor="#666666"
     borderopacity="1.0"
     inkscape:pageopacity="0.0"
     inkscape:pageshadow="2"
     inkscape:zoom="0.53342972"
     inkscape:cx="194.16296"
     inkscape:cy="967.63051"
     inkscape:document-units="px"
     inkscape:current-layer="layer1"
     showgrid="false"
     inkscape:window-width="1301"
     inkscape:window-height="744"
     inkscape:window-x="65"
     inkscape:window-y="24"
     inkscape:window-maximized="1" />
  <metadata
     id="metadata7">
    <rdf:RDF>
      <cc:Work
         rdf:about="">
        <dc:format>image/svg+xml</dc:format>
        <dc:type
           rdf:resource="http://purl.org/dc/dcmitype/StillImage" />
        <dc:title />
      </cc:Work>
    </rdf:RDF>
  </metadata>
  <g
     inkscape:label="Layer 1"
     inkscape:groupmode="layer"
     id="layer1">
    <path
       style="fill:none;fill-rule:evenodd;stroke:#ff0000;stroke-width:21.78189468;stroke-linecap:butt;stroke-linejoin:miter;stroke-miterlimit:4;stroke-dasharray:none;stroke-opacity:1"
       d="M  0 , -252.593133722055 C  148.449662145406 , -252.593133722055 172.349785730377 , -99.7493030415212 166.790324463885 , -42.0134374401094 161.230863197393 , 15.7224281613024 148.541448539274 , 37.9420557841832 147.913965755891 , 76.428191363869 147.286482972507 , 114.914326943555 154.841891842273 , 141.20367236744 174.012363997758 , 171.145255223472 193.182836153243 , 201.086838079504 216.671692812483 , 218.788977425 247.169480992798 , 260.563967109633 277.667269173114 , 302.338956794266 310.251998632834 , 376.089128628368 255.422344058109 , 461.632030038438 200.592689483384 , 547.174931448508 98.0154636242037 , 577.943028976942 19.8847109929897 , 585.054899713584 -58.2460416382243 , 592.166770450226 -214.623338493302 , 571.353373878714 -260.423252641099 , 449.090469826184 -306.223166788896 , 326.827565773654 -214.028396127727 , 288.969038479089 -199.051440634264 , 283.916448312923 -184.074485140801 , 278.863858146758 -151.069139167993 , 271.149437118023 -109.035827590184 , 294.885592098807 -67.0025160123754 , 318.62174707959 -54.5746860684064 , 344.049535793168 -15.921040167251 , 364.03196119728 22.7326057339045 , 384.014386601391 62.3363995812056 , 383.046761021148 95.2439095950935 , 365.167212272895 128.151419608981 , 347.287663524641 144.499855613185 , 319.924998070851 173.973662771779 , 273.381839203074 203.447469930372 , 226.838680335297 238.917814549104 , 177.88385028726 220.76254781348 , 110.268479510765 202.607281077856 , 42.6531087342698 150.958342458812 , 23.7679661186427 95.0209300321909 , -6.42647245987329 39.0835176055695 , -36.6209110383893 20.7441410685886 , -61.2463626211803 -55.9662878539029 , -70.8302802307175 -132.676716776394 , -80.4141978402548 -212.764910570218 , -39.9873726731572 -258.835348029653 , 20.4668361458437 -304.905785489089 , 80.9210449648446 -320.341770205774 , 149.578953897786 -307.135782498827 , 216.873018367439 -293.929794791881 , 284.167082837092 -239.434770956898 , 350.264057973402 -154.381670477859 , 351.832134636086 -69.3285699988196 , 353.40021129877 -58.7340122615178 , 315.281640786615 31.8874754263981 , 311.791408710472 122.508963114314 , 308.301176634328 142.21831061948 , 333.874302424853 204.454362063061 , 335.212858909126 266.690413506643 , 336.5514153934 346.033760396445 , 314.087304749601 390.021948266442 , 221.243699920729 434.01013613644 , 128.400095091856 410.981140854313 , -9.43476930754057 317.395775406763 , -81.4357823655327 223.810409959213 , -153.436795423525 140.004481868743 , -124.884403772104 90.2083146616336 , -89.7803073574875 40.4121474545246 , -54.6762109428713 25.790990522264 , -28.0654176992944 -15.3421016522991 , -6.54658831643732 -56.4751938268621 , 14.9722410664198 -97.5654772792753 , 16.0598278792243 -132.840253213868 , -3.42759433362895 -168.115029148461 , -22.9150165464822 -193.618101756039 , -66.7389954005797 -189.767586572656 , -115.813430820135 -185.917071389273 , -164.88786623969 -148.449662145406 , -252.593133722055 0 , -252.593133722055 Z "
       id="path3401"
       inkscape:connector-curvature="0"
       sodipodi:nodetypes="zzzzzzzzzzzzzzzzzzzzzzzzzzzz" />
  </g>
</svg>
