<?xml version="1.0" encoding="UTF-8" standalone="no"?>
<!-- Created with Inkscape (http://www.inkscape.org/) -->

<svg
   xmlns:dc="http://purl.org/dc/elements/1.1/"
   xmlns:cc="http://creativecommons.org/ns#"
   xmlns:rdf="http://www.w3.org/1999/02/22-rdf-syntax-ns#"
   xmlns:svg="http://www.w3.org/2000/svg"
   xmlns="http://www.w3.org/2000/svg"
   xmlns:sodipodi="http://sodipodi.sourceforge.net/DTD/sodipodi-0.dtd"
   xmlns:inkscape="http://www.inkscape.org/namespaces/inkscape"
   width="210mm"
   height="297mm"
   viewBox="0 0 744.09448819 1052.3622047"
   id="svg2"
   version="1.1"
   inkscape:version="0.91 r13725"
   sodipodi:docname="9_21.svg">
  <defs
     id="defs4" />
  <sodipodi:namedview
     id="base"
     pagecolor="#ffffff"
     bordercolor="#666666"
     borderopacity="1.0"
     inkscape:pageopacity="0.0"
     inkscape:pageshadow="2"
     inkscape:zoom="0.38429054"
     inkscape:cx="328.57143"
     inkscape:cy="740"
     inkscape:document-units="px"
     inkscape:current-layer="layer1"
     showgrid="false"
     inkscape:window-width="1600"
     inkscape:window-height="835"
     inkscape:window-x="0"
     inkscape:window-y="0"
     inkscape:window-maximized="1" />
  <metadata
     id="metadata7">
    <rdf:RDF>
      <cc:Work
         rdf:about="">
        <dc:format>image/svg+xml</dc:format>
        <dc:type
           rdf:resource="http://purl.org/dc/dcmitype/StillImage" />
        <dc:title></dc:title>
      </cc:Work>
    </rdf:RDF>
  </metadata>
  <g
     inkscape:label="Layer 1"
     inkscape:groupmode="layer"
     id="layer1">
    <path
       style="fill:none;fill-rule:evenodd;stroke:#0000ff;stroke-width:6.62507486;stroke-linecap:butt;stroke-linejoin:miter;stroke-miterlimit:4;stroke-dasharray:none;stroke-opacity:1"
       d="M  0 , 13.0273940974033 C  34.0984213944772 , 13.0273940974033 94.6020911332424 , 21.5544061517622 152.691896862444 , 76.6449524482843 210.781702591646 , 131.735498744806 215.940271456254 , 216.067763751891 216.455164534374 , 224.515309628492 216.970057612494 , 232.962855505092 218.056771121726 , 252.193716008764 213.156164950591 , 281.84587803261 208.255558779456 , 311.498040056455 192.235180203208 , 358.914848202821 138.162886414578 , 446.204187728642 84.0905926259476 , 533.493527254463 88.2185145320474 , 556.567310536152 9.37144711488135 , 609.702493385385 -69.4756203022847 , 662.837676234618 -142.708876046775 , 666.273078734198 -176.996572459018 , 663.020617038349 -211.28426887126 , 659.7681553425 -308.396389677927 , 642.735360527742 -366.757525644654 , 535.342438748233 -425.11866161138 , 427.949516968725 -387.943665008048 , 347.124661289658 -365.457988456363 , 315.523475708671 -342.972311904678 , 283.922290127684 -282.908304897526 , 231.665981096416 -192.935164311652 , 247.986943586642 -102.962023725777 , 264.307906076867 -104.912827659765 , 326.069449864651 -16.7558316351878 , 318.694160648326 71.4011643893898 , 311.318871432002 75.0442822482218 , 256.329170161399 136.431435517269 , 206.860677383284 197.818588786316 , 157.392184605168 256.797314249452 , 153.76308488634 304.732508935908 , 179.296509231203 352.667703622364 , 204.829933576066 387.425683222652 , 261.508989290821 379.236039303878 , 331.197498883112 371.046395385105 , 400.886008475403 329.054239637953 , 433.366698034272 282.671761174869 , 523.188462869085 236.289282711785 , 613.010227703899 230.191098711531 , 643.032398996668 195.227787970822 , 681.142660833729 160.264477230112 , 719.252922670791 88.5683431687753 , 771.788629028385 -6.19748415086795 , 740.117124009065 -100.963311470511 , 708.445618989745 -101.83724018615 , 619.445344974871 -89.6879530272337 , 581.987265359656 -77.5386658683172 , 544.529185744441 -42.590886608181 , 507.180770256276 13.8978562580949 , 506.256541486752 70.3865991243708 , 505.332312717227 98.1849759847509 , 532.409046144533 163.952926320671 , 570.851041371094 229.720876656591 , 609.293036597654 271.870991465568 , 638.130714134054 330.093314134062 , 622.105874934281 388.315636802556 , 606.081035734508 422.333597253931 , 547.852675218501 405.132794180669 , 488.847143569448 387.931991107407 , 429.841611920394 345.161332177122 , 413.213273718745 281.632474637722 , 378.370645013182 218.103617098322 , 343.52801630762 184.906584264574 , 336.687881974186 132.997210771961 , 305.352298355049 81.0878372793482 , 274.016714735912 70.9727115202458 , 255.063335117479 35.2698031676799 , 243.736498046979 -0.433105184886031 , 232.409660976478 -33.6073232276204 , 234.527599015211 -69.9453243672997 , 255.315662115102 -106.283325506979 , 276.103725214992 -111.195951645996 , 298.126993657384 -144.684642422318 , 317.513763428155 -178.17333319864 , 336.900533198926 -219.732969735799 , 336.498364084951 -254.294780295735 , 309.980887603089 -288.85659085567 , 283.463411121227 -340.979497362137 , 193.597069567553 -253.679441030457 , 103.071742463416 -166.379384698776 , 12.5464153592796 -34.0984213944772 , 13.0273940974033 0 , 13.0273940974033 Z "
       id="path4201"
       inkscape:connector-curvature="0"
       sodipodi:nodetypes="zzzzzzzzzzzzzzzzzzzzzzzzzzzzzz" />
  </g>
</svg>
