<?xml version="1.0" encoding="UTF-8" standalone="no"?>
<!-- Created with Inkscape (http://www.inkscape.org/) -->

<svg
   xmlns:dc="http://purl.org/dc/elements/1.1/"
   xmlns:cc="http://creativecommons.org/ns#"
   xmlns:rdf="http://www.w3.org/1999/02/22-rdf-syntax-ns#"
   xmlns:svg="http://www.w3.org/2000/svg"
   xmlns="http://www.w3.org/2000/svg"
   xmlns:sodipodi="http://sodipodi.sourceforge.net/DTD/sodipodi-0.dtd"
   xmlns:inkscape="http://www.inkscape.org/namespaces/inkscape"
   width="210mm"
   height="297mm"
   viewBox="0 0 744.09448819 1052.3622047"
   id="svg2"
   version="1.1"
   inkscape:version="0.91 r13725"
   sodipodi:docname="9_21.svg">
  <defs
     id="defs4" />
  <sodipodi:namedview
     id="base"
     pagecolor="#ffffff"
     bordercolor="#666666"
     borderopacity="1.0"
     inkscape:pageopacity="0.0"
     inkscape:pageshadow="2"
     inkscape:zoom="0.38429054"
     inkscape:cx="328.57143"
     inkscape:cy="740"
     inkscape:document-units="px"
     inkscape:current-layer="layer1"
     showgrid="false"
     inkscape:window-width="1600"
     inkscape:window-height="835"
     inkscape:window-x="0"
     inkscape:window-y="0"
     inkscape:window-maximized="1" />
  <metadata
     id="metadata7">
    <rdf:RDF>
      <cc:Work
         rdf:about="">
        <dc:format>image/svg+xml</dc:format>
        <dc:type
           rdf:resource="http://purl.org/dc/dcmitype/StillImage" />
        <dc:title></dc:title>
      </cc:Work>
    </rdf:RDF>
  </metadata>
  <g
     inkscape:label="Layer 1"
     inkscape:groupmode="layer"
     id="layer1">
    <path
       style="fill:none;fill-rule:evenodd;stroke:#0000ff;stroke-width:6.62507486;stroke-linecap:butt;stroke-linejoin:miter;stroke-miterlimit:4;stroke-dasharray:none;stroke-opacity:1"
       d="M  0 , 12.1604647574414 C  32.8594189123372 , 12.1604647574414 94.2674109340148 , 19.7318554229379 153.709954265054 , 78.2846698449774 213.152497596093 , 136.837484267017 217.232732787464 , 213.267153640095 217.931368538164 , 226.335322850561 218.630004288864 , 239.403492061027 218.781114778953 , 254.127193640877 214.620922783476 , 279.894445532207 210.460730787999 , 305.661697423537 196.298660104458 , 361.812173952856 144.659411495751 , 444.982548312171 93.020162887044 , 528.152922671486 84.1088422088772 , 555.784885204334 8.47212253975027 , 609.423532608552 -67.1645971293767 , 663.06218001277 -143.074183215051 , 665.173111307073 -177.893811578909 , 661.755952042846 -212.713439942767 , 658.338792778619 -307.891616170889 , 640.260912561064 -366.56291965887 , 535.897807525258 -425.234223146851 , 431.534702489452 -388.7477751634 , 348.890728517756 -363.903194648719 , 314.432026052162 -339.058614134038 , 279.973323586568 -284.640558347485 , 236.82731886632 -200.451613145578 , 251.770375093933 -116.262667943671 , 266.713431321546 -94.3341035380487 , 311.765935158432 -19.1765921781212 , 306.033081709068 55.9809191818063 , 300.300228259704 76.7160767877521 , 253.329404530126 136.426420326573 , 208.016049506296 196.136763865394 , 162.702694482466 256.788009941162 , 156.314785335897 304.946062119978 , 182.016581415548 353.104114298794 , 207.718377495199 384.044411124701 , 261.226189908334 378.395593200874 , 330.594422195337 372.746775277047 , 399.96265448234 337.189785399123 , 438.249751931825 290.569053708604 , 526.160553614789 243.948322018085 , 614.071355297753 229.03634182612 , 644.576412647893 194.870179483193 , 680.476568222458 160.704017140266 , 716.376723797023 87.3314401256069 , 772.285598335621 -7.72732621912465 , 740.379695471423 -102.786092563856 , 708.473792607225 -105.422902535048 , 620.781534661952 -91.078368557297 , 580.98589177985 -76.733834579546 , 541.190248897748 -39.6857432288632 , 510.729667422928 11.7123305898652 , 510.535524561254 63.1104044085936 , 510.34138169958 100.890300291768 , 534.593428523995 162.474240576692 , 570.882109822507 224.058180861616 , 607.170791121019 273.5735080948 , 636.072935698704 331.558836576534 , 619.178834704584 389.544165058268 , 602.284733710464 418.075238663012 , 546.788195991434 403.470338879464 , 493.146399395262 388.865439095916 , 439.50460279909 343.608194591547 , 410.149380115055 283.231592287839 , 376.061349734813 222.854989984131 , 341.973319354571 190.471072777261 , 328.704511054264 136.759452461185 , 299.057056844046 83.047832145109 , 269.409602633828 64.1204226567976 , 255.38407968629 32.6064898978 , 249.766312364328 1.09255713880241 , 244.148545042366 -28.0860921905547 , 246.545601736233 -64.0323342166316 , 262.338943699286 -99.9785762427085 , 278.132285662339 -120.434267039509 , 299.562636375284 -150.300524600638 , 313.258172959106 -180.166782161767 , 326.953709542928 -220.157289350475 , 333.533644688713 -258.84562435026 , 307.654785321957 -297.533959350045 , 281.775925955201 -341.737635679953 , 196.906589788784 -255.395870024431 , 104.456868005817 -169.054104368909 , 12.00714622285 -32.8594189123372 , 12.1604647574414 0 , 12.1604647574414 Z "
       id="path4201"
       inkscape:connector-curvature="0"
       sodipodi:nodetypes="zzzzzzzzzzzzzzzzzzzzzzzzzzzzzz" />
  </g>
</svg>
