<?xml version="1.0" encoding="UTF-8" standalone="no"?>
<!-- Created with Inkscape (http://www.inkscape.org/) -->

<svg
   xmlns:dc="http://purl.org/dc/elements/1.1/"
   xmlns:cc="http://creativecommons.org/ns#"
   xmlns:rdf="http://www.w3.org/1999/02/22-rdf-syntax-ns#"
   xmlns:svg="http://www.w3.org/2000/svg"
   xmlns="http://www.w3.org/2000/svg"
   xmlns:sodipodi="http://sodipodi.sourceforge.net/DTD/sodipodi-0.dtd"
   xmlns:inkscape="http://www.inkscape.org/namespaces/inkscape"
   width="210mm"
   height="297mm"
   viewBox="0 0 744.09448819 1052.3622047"
   id="svg2"
   version="1.1"
   inkscape:version="0.91 r13725"
   sodipodi:docname="9_22.svg">
  <defs
     id="defs4" />
  <sodipodi:namedview
     id="base"
     pagecolor="#ffffff"
     bordercolor="#666666"
     borderopacity="1.0"
     inkscape:pageopacity="0.0"
     inkscape:pageshadow="2"
     inkscape:zoom="0.76799911"
     inkscape:cx="-192.71309"
     inkscape:cy="957.434"
     inkscape:document-units="px"
     inkscape:current-layer="layer1"
     showgrid="false"
     inkscape:window-width="1301"
     inkscape:window-height="744"
     inkscape:window-x="65"
     inkscape:window-y="24"
     inkscape:window-maximized="1" />
  <metadata
     id="metadata7">
    <rdf:RDF>
      <cc:Work
         rdf:about="">
        <dc:format>image/svg+xml</dc:format>
        <dc:type
           rdf:resource="http://purl.org/dc/dcmitype/StillImage" />
        <dc:title />
      </cc:Work>
    </rdf:RDF>
  </metadata>
  <g
     inkscape:label="Layer 1"
     inkscape:groupmode="layer"
     id="layer1">
    <path
       style="fill:none;fill-rule:evenodd;stroke:#fa0000;stroke-width:13.69403172;stroke-linecap:butt;stroke-linejoin:miter;stroke-miterlimit:4;stroke-dasharray:none;stroke-opacity:1"
       d="M  -144.75330635314 , -145.39808909091 C  -47.086976192283 , -147.851631638328 38.0350802403626 , -51.5122416092397 70.9477078076628 , -8.00535218696778 103.860335374963 , 35.5015372353041 121.24462737007 , 85.1359201886808 129.600751829348 , 124.644538313971 137.956876288626 , 164.153156439261 138.913820856098 , 176.840237144381 144.961099407428 , 261.312890184305 151.008377958758 , 345.785543224229 168.433744462549 , 379.676837426223 136.256989275109 , 432.073601802968 104.080234087669 , 484.470366179713 30.3056134078577 , 513.858748180444 -42.0436538986546 , 478.604984507218 -114.392921205167 , 443.351220833992 -120.966628108999 , 380.131502389547 -166.24780382771 , 273.684975419014 -211.528979546421 , 167.238448448481 -248.459872519238 , 117.99360408683 -298.339957076184 , 73.5858331384324 -348.22004163313 , 29.1780621900348 -422.318664742537 , -2.52526908874313 -483.258545760971 , 39.5998263852934 -544.198426779405 , 81.7249218593299 -536.96865595281 , 164.483432930533 -481.078082880374 , 200.865819902234 -425.187509807938 , 237.248206873935 -357.142921472448 , 214.069250622533 -309.195291970813 , 185.537479257948 -261.247662469178 , 157.005707893363 -214.915804070667 , 116.033963117925 -153.061180438559 , 74.6371443533494 -91.206556806451 , 33.2403255887738 -28.3066590637265 , 27.3662980640109 0 , 27.3662980640109 28.3066590637265 , 27.3662980640109 45.2612083026455 , 44.3284782415149 52.7491546450109 , 57.3461087078475 60.2371009873763 , 70.3637391741801 71.1492287194685 , 101.917722603109 42.1023727690936 , 137.783107323124 13.0555168187187 , 173.648492043139 -13.5430609694553 , 176.159468872109 -34.5361297724252 , 207.138423546017 -55.5291985753951 , 238.117378219925 -49.8442087557999 , 265.440619120652 -47.3467800369833 , 274.865642689483 -44.8493513181667 , 284.290666258314 -27.6176713019995 , 344.145222444721 65.5087097500626 , 351.259822392133 158.635090802125 , 358.374422339545 219.615592340307 , 352.819222938931 267.644306439844 , 275.52490870593 315.673020539381 , 198.230594472929 301.560585544749 , 106.813826326574 294.494316368099 , 74.0235601647073 287.428047191449 , 41.2332940028406 249.624679384069 , -105.421412243335 119.450319298323 , -150.014424112553 -10.724040787423 , -194.607435981771 -52.6590339372658 , -74.1729816125562 -56.1262411776081 , -64.217590842136 -59.5934484179504 , -54.2622000717158 -64.6685329457861 , -38.8258877995556 -66.4953726684521 , -13.9257470989832 -68.3222123911181 , 10.9743936015892 -62.3613403234225 , 49.0203956959293 -46.2367419616734 , 84.5834457371838 -30.1121435999243 , 120.146495778438 -47.1397955044479 , 82.5916946433501 -27.5613156568277 , 125.77233520282 -7.98283580920749 , 168.95297576229 10.3493219351319 , 183.658061902943 16.4517928057152 , 215.561303224141 22.5542636762985 , 247.464544545339 15.3234755050772 , 270.112417436861 12.1654929125706 , 279.292945806813 9.007510320064 , 288.473474176765 -6.80272164173407 , 331.910028669138 -57.0676782004418 , 367.206591016834 -107.33263475915 , 402.50315336453 -161.664642562086 , 432.246429044448 -240.397344555569 , 405.72651040945 -319.130046549052 , 379.206591774452 -354.756220988979 , 313.896289676478 -362.074625665479 , 299.951410161163 -369.393030341979 , 286.006530645848 -403.717221414059 , 217.187213057484 -392.612734522855 , 121.774583666603 -381.508247631651 , 26.361954275722 -346.887345909965 , -24.8588902462716 -325.835143903935 , -50.6936704924721 -304.782941897905 , -76.5284507386726 -242.419636513997 , -142.944546543492 -144.75330635314 , -145.39808909091 Z "
       id="path4201"
       inkscape:connector-curvature="0"
       sodipodi:nodetypes="zzzzzzzzzzzzzzzzzzzzzzzzzzzzzzzzz" />
  </g>
</svg>
