<?xml version="1.0" encoding="UTF-8" standalone="no"?>
<!-- Created with Inkscape (http://www.inkscape.org/) -->

<svg
   xmlns:dc="http://purl.org/dc/elements/1.1/"
   xmlns:cc="http://creativecommons.org/ns#"
   xmlns:rdf="http://www.w3.org/1999/02/22-rdf-syntax-ns#"
   xmlns:svg="http://www.w3.org/2000/svg"
   xmlns="http://www.w3.org/2000/svg"
   xmlns:sodipodi="http://sodipodi.sourceforge.net/DTD/sodipodi-0.dtd"
   xmlns:inkscape="http://www.inkscape.org/namespaces/inkscape"
   width="210mm"
   height="297mm"
   viewBox="0 0 744.09448819 1052.3622047"
   id="svg2"
   version="1.1"
   inkscape:version="0.91 r13725"
   sodipodi:docname="9_22.svg">
  <defs
     id="defs4" />
  <sodipodi:namedview
     id="base"
     pagecolor="#ffffff"
     bordercolor="#666666"
     borderopacity="1.0"
     inkscape:pageopacity="0.0"
     inkscape:pageshadow="2"
     inkscape:zoom="0.76799911"
     inkscape:cx="-192.71309"
     inkscape:cy="957.434"
     inkscape:document-units="px"
     inkscape:current-layer="layer1"
     showgrid="false"
     inkscape:window-width="1301"
     inkscape:window-height="744"
     inkscape:window-x="65"
     inkscape:window-y="24"
     inkscape:window-maximized="1" />
  <metadata
     id="metadata7">
    <rdf:RDF>
      <cc:Work
         rdf:about="">
        <dc:format>image/svg+xml</dc:format>
        <dc:type
           rdf:resource="http://purl.org/dc/dcmitype/StillImage" />
        <dc:title />
      </cc:Work>
    </rdf:RDF>
  </metadata>
  <g
     inkscape:label="Layer 1"
     inkscape:groupmode="layer"
     id="layer1">
    <path
       style="fill:none;fill-rule:evenodd;stroke:#fa0000;stroke-width:13.69403172;stroke-linecap:butt;stroke-linejoin:miter;stroke-miterlimit:4;stroke-dasharray:none;stroke-opacity:1"
       d="M  -131.486925431211 , -141.913532283025 C  -53.859990135414 , -142.792353111129 14.1419416723279 , -93.8855925284009 62.0755101967 , -36.9952782488944 110.009078721072 , 19.8950360306121 129.877586522416 , 85.1998669170775 137.161514164603 , 111.200842836428 144.44544180679 , 137.201818755779 152.488689902298 , 168.623372191762 159.041572004027 , 246.723630067763 165.594454105756 , 324.823887943764 170.036692700015 , 378.192926044209 135.508107698685 , 425.674301348853 100.979522697355 , 473.155676653497 36.4549797750994 , 498.392613476485 -30.1062508905154 , 475.161437279872 -96.6674815561302 , 451.93026108326 -128.154662434034 , 398.379591722911 -170.696829628884 , 281.251003042832 -213.238996823734 , 164.122414362753 -243.796974176291 , 106.590111846403 -289.943801642025 , 58.2345508175279 -336.090629107759 , 9.87898978865279 -406.997535347213 , -22.3614991105311 -468.950424634543 , 13.5725362035168 -530.903313921873 , 49.5065715175647 -534.34341964415 , 130.667468989813 -482.970994460197 , 173.821072068999 -431.598569276244 , 216.974675148185 -361.098560559968 , 202.533990322389 -307.024451422068 , 174.641928880122 -252.950342284168 , 146.749867437855 -211.8985174033 , 111.986118765382 -148.421073420997 , 71.1594963816016 -84.943629438694 , 30.3328739978212 -30.2859288559767 , 21.0701380332786 0 , 21.0701380332786 30.2859288559767 , 21.0701380332786 47.2614719809242 , 42.370732252838 53.3586574799623 , 56.6565715281195 59.4558429790004 , 70.942410803401 64.8105150216603 , 98.2714783757286 39.240421770942 , 132.370632073636 13.6703285202237 , 166.469785771543 -12.9099293247621 , 179.024574325345 -32.5576267082211 , 209.174315148284 -52.2053240916801 , 239.324055971223 -48.6087664573929 , 265.095126641502 -46.1386911237675 , 276.161322501585 -43.6686157901421 , 287.227518361668 -27.8692347942546 , 348.37556045322 65.2075509633046 , 355.959040370877 158.284336720864 , 363.542520288534 233.562460380258 , 332.629962995658 276.038371550242 , 252.01325588037 318.514282720226 , 171.396548765082 304.70847748242 , 88.0024461327266 297.036826264654 , 55.632126676508 289.365175046888 , 23.2618072202894 250.674618183431 , -113.110623166255 121.231304943411 , -148.802058280736 -8.21200829660899 , -184.493493395217 -52.3562966080849 , -73.2698455887969 -56.0720738088943 , -63.8387548837426 -59.7878510097037 , -54.4076641786883 -64.951997055257 , -39.6650177369068 -66.5413997669646 , -15.4923061550244 -68.1308024786722 , 8.680405426858 -62.351536347383 , 49.0390784973874 -46.2171638539221 , 84.5647333008447 -30.0827913604612 , 120.090388104302 -47.1081083167203 , 82.6030085915612 -27.5221912432791 , 125.728478921726 -7.9362741698379 , 168.853949251891 7.63223434811817 , 183.969023294712 14.703144537464 , 216.164661882227 21.7740547268098 , 248.360300469742 15.5702696748209 , 271.201149344415 12.9976926740457 , 280.10761135292 10.4251156732705 , 289.014073361425 -3.84152770415438 , 336.244517942524 -55.5490363893952 , 371.140965529762 -107.256545074636 , 406.037413117 -161.767747534515 , 425.06357724892 -233.739104801407 , 399.235760291604 -305.710462068299 , 373.407943334288 -345.117908213776 , 312.576266803499 -359.152463926868 , 286.061078011297 -373.18701963996 , 259.545889219095 -400.296746758278 , 195.975040288264 -387.61378095631 , 104.746250969329 -374.930815154342 , 13.517461650394 -333.668918161487 , -41.541787790517 -299.068162673983 , -73.5328946766665 -264.467407186479 , -105.524001562816 -209.113860727008 , -141.034711454921 -131.486925431211 , -141.913532283025 Z "
       id="path4201"
       inkscape:connector-curvature="0"
       sodipodi:nodetypes="zzzzzzzzzzzzzzzzzzzzzzzzzzzzzzzzz" />
  </g>
</svg>
