<?xml version="1.0" encoding="UTF-8" standalone="no"?>
<!-- Created with Inkscape (http://www.inkscape.org/) -->

<svg
   xmlns:dc="http://purl.org/dc/elements/1.1/"
   xmlns:cc="http://creativecommons.org/ns#"
   xmlns:rdf="http://www.w3.org/1999/02/22-rdf-syntax-ns#"
   xmlns:svg="http://www.w3.org/2000/svg"
   xmlns="http://www.w3.org/2000/svg"
   xmlns:sodipodi="http://sodipodi.sourceforge.net/DTD/sodipodi-0.dtd"
   xmlns:inkscape="http://www.inkscape.org/namespaces/inkscape"
   width="210mm"
   height="297mm"
   viewBox="0 0 744.09448819 1052.3622047"
   id="svg2"
   version="1.1"
   inkscape:version="0.91 r13725"
   sodipodi:docname="9_22.svg">
  <defs
     id="defs4" />
  <sodipodi:namedview
     id="base"
     pagecolor="#ffffff"
     bordercolor="#666666"
     borderopacity="1.0"
     inkscape:pageopacity="0.0"
     inkscape:pageshadow="2"
     inkscape:zoom="0.76799911"
     inkscape:cx="-192.71309"
     inkscape:cy="957.434"
     inkscape:document-units="px"
     inkscape:current-layer="layer1"
     showgrid="false"
     inkscape:window-width="1301"
     inkscape:window-height="744"
     inkscape:window-x="65"
     inkscape:window-y="24"
     inkscape:window-maximized="1" />
  <metadata
     id="metadata7">
    <rdf:RDF>
      <cc:Work
         rdf:about="">
        <dc:format>image/svg+xml</dc:format>
        <dc:type
           rdf:resource="http://purl.org/dc/dcmitype/StillImage" />
        <dc:title />
      </cc:Work>
    </rdf:RDF>
  </metadata>
  <g
     inkscape:label="Layer 1"
     inkscape:groupmode="layer"
     id="layer1">
    <path
       style="fill:none;fill-rule:evenodd;stroke:#fa0000;stroke-width:13.69403172;stroke-linecap:butt;stroke-linejoin:miter;stroke-miterlimit:4;stroke-dasharray:none;stroke-opacity:1"
       d="M  -132.800884944627 , -144.978368181741 C  -54.4332359342878 , -143.380470857436 6.88495489477894 , -83.3277379621302 56.3593222290417 , -27.619141421343 105.833689563304 , 28.0894551194442 123.653085344409 , 84.7795854360538 131.330710663616 , 114.625100118565 139.008335982823 , 144.470614801076 143.657830932493 , 170.065896937067 149.543177163179 , 258.42492617227 155.428523393865 , 346.783955407472 172.218760765884 , 378.524049683616 141.340631801354 , 430.124395889846 110.462502836825 , 481.724742096076 39.0711749907966 , 512.943894002915 -34.2329052699658 , 478.927402111113 -107.536985530728 , 444.910910219311 -115.453153925271 , 384.610306357466 -161.457710376995 , 272.171138607156 -207.46226682872 , 159.731970856845 -244.988013265761 , 105.502210618767 -291.62087583138 , 60.7236296418963 -338.253738396999 , 15.9450486650254 -408.961747006697 , -18.7749147613464 -471.560057007107 , 18.4811998628078 -534.158367007517 , 55.737314486962 -533.940636244471 , 136.763315409644 -481.663359374811 , 177.321134451988 -429.38608250515 , 217.878953494332 -360.094971482873 , 201.379542513278 -307.156781415884 , 172.964481391449 -254.218591348894 , 144.54942026962 -210.604463883529 , 107.938245920317 -150.775223561899 , 70.6804380938557 -90.9459832402677 , 33.4226302673942 -29.3735954503638 , 26.3553273215076 0 , 26.3553273215076 29.3735954503638 , 26.3553273215076 46.2592558819302 , 44.1290307523449 53.4542276441954 , 56.6044468301264 60.6491994064605 , 69.079862907908 72.2626993514523 , 100.511145864046 43.0608777129271 , 137.086988357731 13.859056074402 , 173.662830851415 -12.934021164898 , 176.068524103519 -33.7648983223737 , 207.082556850531 -54.5957754798494 , 238.096589597543 -48.9323391608081 , 265.169816415453 -46.278625155998 , 274.916906516151 -43.624911151188 , 284.663996616849 -25.9127587826629 , 343.9816405565 67.6835246475692 , 350.683238546603 161.279808077801 , 357.384836536706 226.589863984169 , 354.273876693756 276.541244739257 , 269.395203092424 326.492625494344 , 184.516529491093 304.203754176919 , 84.6679193268947 297.435592058366 , 58.2114067772771 290.667429939814 , 31.7548942276596 249.684984233114 , -114.284032628205 119.860920210317 , -154.117778155687 -9.96314381247893 , -193.951523683169 -52.5845748326217 , -73.9534692590324 -56.1572399939704 , -63.8986087732463 -59.7299051553192 , -53.8437482874601 -64.7948702495355 , -38.7113068784029 -66.6174142233767 , -14.0061606487948 -68.4399581972178 , 10.6989855808133 -62.3667658063932 , 49.0173839368089 -46.2358382600575 , 84.5880564091224 -30.1049107137218 , 120.158728881436 -47.1417561815285 , 82.5904100994048 -27.5642552350771 , 125.761062138364 -7.98675428862563 , 168.931714177324 10.6475673385436 , 183.81152804684 16.9298330950688 , 216.120319148524 23.212098851594 , 248.429110250208 15.670033358127 , 271.787628295087 12.8348046914734 , 280.134455740921 9.99957602481971 , 288.481283186755 -5.20947533391416 , 331.462219075309 -53.8532964128635 , 366.648914099856 -102.497117491813 , 401.835609124404 -154.969520726092 , 430.517030272356 -232.145855467768 , 403.982156875076 -309.322190209444 , 377.447283477796 -347.617921707094 , 313.028999197589 -360.328314988755 , 287.516977705818 -373.038708270417 , 262.004956214048 -399.365163792718 , 197.016425346791 -385.85474662524 , 106.400202763449 -372.344329457762 , 15.7839801801075 -337.112091548858 , -37.3087471572131 -303.805876031473 , -71.0405700787586 -270.499660514089 , -104.772393000304 -211.168533954967 , -146.576265506045 -132.800884944627 , -144.978368181741 Z "
       id="path4201"
       inkscape:connector-curvature="0"
       sodipodi:nodetypes="zzzzzzzzzzzzzzzzzzzzzzzzzzzzzzzzz" />
  </g>
</svg>
