<?xml version="1.0" encoding="UTF-8" standalone="no"?>
<!-- Created with Inkscape (http://www.inkscape.org/) -->

<svg
   xmlns:dc="http://purl.org/dc/elements/1.1/"
   xmlns:cc="http://creativecommons.org/ns#"
   xmlns:rdf="http://www.w3.org/1999/02/22-rdf-syntax-ns#"
   xmlns:svg="http://www.w3.org/2000/svg"
   xmlns="http://www.w3.org/2000/svg"
   xmlns:sodipodi="http://sodipodi.sourceforge.net/DTD/sodipodi-0.dtd"
   xmlns:inkscape="http://www.inkscape.org/namespaces/inkscape"
   width="210mm"
   height="297mm"
   viewBox="0 0 744.09448819 1052.3622047"
   id="svg2"
   version="1.1"
   inkscape:version="0.91 r13725"
   sodipodi:docname="9_22.svg">
  <defs
     id="defs4" />
  <sodipodi:namedview
     id="base"
     pagecolor="#ffffff"
     bordercolor="#666666"
     borderopacity="1.0"
     inkscape:pageopacity="0.0"
     inkscape:pageshadow="2"
     inkscape:zoom="0.76799911"
     inkscape:cx="-192.71309"
     inkscape:cy="957.434"
     inkscape:document-units="px"
     inkscape:current-layer="layer1"
     showgrid="false"
     inkscape:window-width="1301"
     inkscape:window-height="744"
     inkscape:window-x="65"
     inkscape:window-y="24"
     inkscape:window-maximized="1" />
  <metadata
     id="metadata7">
    <rdf:RDF>
      <cc:Work
         rdf:about="">
        <dc:format>image/svg+xml</dc:format>
        <dc:type
           rdf:resource="http://purl.org/dc/dcmitype/StillImage" />
        <dc:title />
      </cc:Work>
    </rdf:RDF>
  </metadata>
  <g
     inkscape:label="Layer 1"
     inkscape:groupmode="layer"
     id="layer1">
    <path
       style="fill:none;fill-rule:evenodd;stroke:#fa0000;stroke-width:13.69403172;stroke-linecap:butt;stroke-linejoin:miter;stroke-miterlimit:4;stroke-dasharray:none;stroke-opacity:1"
       d="M  -132.800885224799 , -144.97837143512 C  -54.4332369974813 , -143.380478127926 6.88495226168268 , -83.327735387958 56.3593210134763 , -27.6191396201799 105.83368976527 , 28.0894561475981 123.653084887165 , 84.7795854726555 131.330711267354 , 114.625099909687 139.008337647543 , 144.470614346718 143.657835346025 , 170.065895458786 149.543162886466 , 258.424929913229 155.428490426907 , 346.783964367671 172.218764310758 , 378.524050260699 141.340634681159 , 430.124395889477 110.462505051561 , 481.724741518255 39.0711756710918 , 512.943893053613 -34.2329075638823 , 478.927404648638 -107.536990798856 , 444.910916243663 -115.453151699977 , 384.610306025589 -161.457707054269 , 272.171137224101 -207.462262408561 , 159.731968422614 -244.988012898856 , 105.502210538118 -291.620877672553 , 60.7236313536116 -338.25374244625 , 15.9450521691052 -408.961746885759 , -18.774915230259 -471.560057131935 , 18.4811997677322 -534.158367378111 , 55.7373147657235 -533.940636140971 , 136.763315238228 -481.663359516013 , 177.321135429411 -429.386082891055 , 217.878955620595 -360.094971333352 , 201.379542714506 -307.156782458997 , 172.964479680683 -254.218593584642 , 144.549416646861 -210.604462695745 , 107.938247290018 -150.775225425198 , 70.6804348318092 -90.9459881546499 , 33.4226223736007 -29.3735951306534 , 26.3553318972311 0 , 26.3553318972311 29.3735951306534 , 26.3553318972311 46.2592565367578 , 44.129029992438 53.4542269301547 , 56.6044476174832 60.6491973235516 , 69.0798652425284 72.2626952161696 , 100.511138811183 43.0608903090113 , 137.087007720187 13.859085401853 , 173.662876629191 -12.934026023237 , 176.068517194553 -33.7649036219588 , 207.082549893124 -54.5957812206806 , 238.096582591695 -48.9323400004176 , 265.169816108939 -46.2786267453456 , 274.916906426263 -43.6249134902736 , 284.663996743586 -25.9127600876943 , 343.981642482823 67.6835277847122 , 350.683229252687 161.279815657119 , 357.384816022551 226.589865372164 , 354.273879517305 276.541245095376 , 269.395204375302 326.492624818588 , 184.516529233299 304.20375390249 , 84.6679194006631 297.435592360987 , 58.2114066809227 290.667430819483 , 31.7548939611823 249.684985497679 , -114.284030232701 119.860916723611 , -154.117783763062 -9.96315205045657 , -193.951537293423 -52.5845727950219 , -73.9534703854141 -56.1572357004311 , -63.898606555713 -59.7298986058403 , -53.843742726012 -64.794867454493 , -38.7113068958664 -66.6174225114596 , -14.0061605484629 -68.4399775684261 , 10.6989857989406 -62.366735981055 , 49.0173805044137 -46.2358001387762 , 84.5880854731924 -30.1048642964974 , 120.158790441971 -47.1416185320377 , 82.5903459891083 -27.5642657893705 , 125.761063632394 -7.98691304670332 , 168.931781275679 10.647574991261 , 183.811524500065 16.9298407318869 , 216.120314831295 23.2121064725129 , 248.429105162524 15.6700325690285 , 271.787627912383 12.8348039010497 , 280.134455534395 9.99957523307091 , 288.481283156407 -5.20947387634915 , 331.46221953164 -53.8533016620478 , 366.648909549016 -102.497129447747 , 401.835599566393 -154.969520344933 , 430.517032924369 -232.145854975176 , 403.982157781722 -309.322189605419 , 377.447282639075 -347.617922038372 , 313.028999050254 -360.328315638204 , 287.516978083904 -373.038709238037 , 262.004957117553 -399.365164047065 , 197.016425352753 -385.854744248288 , 106.400203123542 -372.344324449511 , 15.7839808943308 -337.112091876782 , -37.3087473572711 -303.805876377673 , -71.040570156877 -270.499660878563 , -104.772392956483 -211.168533452117 , -146.576264742313 -132.800885224799 , -144.97837143512 Z "
       id="path4201"
       inkscape:connector-curvature="0"
       sodipodi:nodetypes="zzzzzzzzzzzzzzzzzzzzzzzzzzzzzzzzz" />
  </g>
</svg>
