<?xml version="1.0" encoding="UTF-8" standalone="no"?>
<!-- Created with Inkscape (http://www.inkscape.org/) -->

<svg
   xmlns:dc="http://purl.org/dc/elements/1.1/"
   xmlns:cc="http://creativecommons.org/ns#"
   xmlns:rdf="http://www.w3.org/1999/02/22-rdf-syntax-ns#"
   xmlns:svg="http://www.w3.org/2000/svg"
   xmlns="http://www.w3.org/2000/svg"
   xmlns:sodipodi="http://sodipodi.sourceforge.net/DTD/sodipodi-0.dtd"
   xmlns:inkscape="http://www.inkscape.org/namespaces/inkscape"
   width="210mm"
   height="297mm"
   viewBox="0 0 744.09448819 1052.3622047"
   id="svg2"
   version="1.1"
   inkscape:version="0.91 r13725"
   sodipodi:docname="9_22.svg">
  <defs
     id="defs4" />
  <sodipodi:namedview
     id="base"
     pagecolor="#ffffff"
     bordercolor="#666666"
     borderopacity="1.0"
     inkscape:pageopacity="0.0"
     inkscape:pageshadow="2"
     inkscape:zoom="0.84223452"
     inkscape:cx="303.57143"
     inkscape:cy="796.78572"
     inkscape:document-units="px"
     inkscape:current-layer="layer1"
     showgrid="false"
     inkscape:window-width="1600"
     inkscape:window-height="835"
     inkscape:window-x="0"
     inkscape:window-y="0"
     inkscape:window-maximized="1" />
  <metadata
     id="metadata7">
    <rdf:RDF>
      <cc:Work
         rdf:about="">
        <dc:format>image/svg+xml</dc:format>
        <dc:type
           rdf:resource="http://purl.org/dc/dcmitype/StillImage" />
        <dc:title></dc:title>
      </cc:Work>
    </rdf:RDF>
  </metadata>
  <g
     inkscape:label="Layer 1"
     inkscape:groupmode="layer"
     id="layer1">
    <path
       style="fill:none;fill-rule:evenodd;stroke:#fa0000;stroke-width:13.69403267;stroke-linecap:butt;stroke-linejoin:miter;stroke-miterlimit:4;stroke-dasharray:none;stroke-opacity:1"
       d="M  -160.122013951188 , -124.098214464184 C  -70.896385568037 , -128.911698703835 25.4341022082968 , -48.6310483266926 73.2087771389552 , 11.2423095580776 120.983452069614 , 71.1156674428478 136.825635715328 , 147.089675781515 148.43023931106 , 245.285984990383 160.034842906792 , 343.482294199251 178.056624301891 , 381.521930246996 142.244527585315 , 437.158694772856 106.432430868739 , 492.795459298716 29.1409991230867 , 520.258021450614 -43.898240095301 , 484.074702728541 -116.937479313689 , 447.891384006468 -128.856202074201 , 377.506688480581 -171.492102612115 , 275.696104737922 -214.128003150029 , 173.885520995263 -250.835172610459 , 125.746548437961 -302.645984499661 , 80.8208278840407 -354.456796388863 , 35.8951073301204 -429.187508018368 , 4.88601695409766 -487.995336243401 , 49.5921309651009 -546.803164468434 , 94.2982449761041 -533.087003758733 , 173.442467093279 -480.637681732498 , 206.666471929718 -428.188359706263 , 239.890476766157 -363.655413306604 , 222.817907759053 -311.602893689362 , 188.847426824725 -259.55037407212 , 154.876945890397 -189.966370511953 , 92.4447125134553 -146.046415721247 , 63.0870660081807 -102.126460930541 , 33.7294195029061 -44.8850500692258 , 21.2721416663861 0 , 21.2721416663861 44.8850500692258 , 21.2721416663861 74.4133330505269 , 72.3792919679833 43.7143064306055 , 117.434941009267 13.0152798106841 , 162.490590050551 -21.626434952787 , 163.629293914847 -44.8919995921523 , 197.341040676496 -68.1575642315176 , 231.052787438145 -60.4443478700535 , 260.737038846498 -55.9662960348185 , 273.033189613721 -51.4882441995835 , 285.329340380944 -28.1488313131233 , 341.277408213239 67.3150560949241 , 347.611110269321 162.778943502972 , 353.944812325403 235.034254013174 , 348.816372162435 282.067525825532 , 259.560946700054 329.10079763789 , 170.305521237673 315.65779179624 , -18.4791778355668 146.90684972637 , -114.849923872543 -21.8440923435 , -211.220669909519 -66.5418898443733 , -65.6669302391695 -73.327572328504 , -27.597754165532 -80.1132548126347 , 10.4714219081055 -69.4573908242186 , 48.8653804952202 -52.8890450170211 , 82.1474995198498 -36.3206992098236 , 115.429618544479 -52.3209708634326 , 83.2886361781047 -35.4958391350444 , 117.086580683374 -18.6707074066562 , 150.884525188643 1.96218330053355 , 175.702231947615 8.89779807369688 , 205.607902149297 15.8334128468602 , 235.513572350979 11.6985517540453 , 256.801367771903 8.78939366101817 , 268.753505103313 5.88023556799104 , 280.705642434723 -7.48388013110444 , 329.0891601447 -58.5906878301707 , 368.968052224939 -109.697495529237 , 408.846944305178 -169.466723704705 , 441.683593615076 -251.317368063256 , 412.561396789928 -333.168012421807 , 383.43919996478 -367.154188906374 , 314.081864005795 -373.687117124063 , 300.301626265661 -380.220045341752 , 286.521388525527 -409.765380358097 , 221.346353340936 -396.562519875757 , 128.791689382954 -383.359659393417 , 36.237025424972 -353.555632861393 , -9.7751480945276 -329.207631114218 , -38.278058315778 -304.859629367042 , -66.7809685370283 -249.347642334339 , -119.284730224532 -160.122013951188 , -124.098214464184 Z "
       id="path4201"
       inkscape:connector-curvature="0"
       sodipodi:nodetypes="zzzzzzzzzzzzzzzzzzzzzzzzzzzzz" />
  </g>
</svg>
