<?xml version="1.0" encoding="UTF-8" standalone="no"?>
<!-- Created with Inkscape (http://www.inkscape.org/) -->

<svg
   xmlns:dc="http://purl.org/dc/elements/1.1/"
   xmlns:cc="http://creativecommons.org/ns#"
   xmlns:rdf="http://www.w3.org/1999/02/22-rdf-syntax-ns#"
   xmlns:svg="http://www.w3.org/2000/svg"
   xmlns="http://www.w3.org/2000/svg"
   xmlns:sodipodi="http://sodipodi.sourceforge.net/DTD/sodipodi-0.dtd"
   xmlns:inkscape="http://www.inkscape.org/namespaces/inkscape"
   width="210mm"
   height="297mm"
   viewBox="0 0 744.09448819 1052.3622047"
   id="svg2"
   version="1.1"
   inkscape:version="0.91 r13725"
   sodipodi:docname="9_22.svg">
  <defs
     id="defs4" />
  <sodipodi:namedview
     id="base"
     pagecolor="#ffffff"
     bordercolor="#666666"
     borderopacity="1.0"
     inkscape:pageopacity="0.0"
     inkscape:pageshadow="2"
     inkscape:zoom="0.76799911"
     inkscape:cx="-192.71309"
     inkscape:cy="957.434"
     inkscape:document-units="px"
     inkscape:current-layer="layer1"
     showgrid="false"
     inkscape:window-width="1301"
     inkscape:window-height="744"
     inkscape:window-x="65"
     inkscape:window-y="24"
     inkscape:window-maximized="1" />
  <metadata
     id="metadata7">
    <rdf:RDF>
      <cc:Work
         rdf:about="">
        <dc:format>image/svg+xml</dc:format>
        <dc:type
           rdf:resource="http://purl.org/dc/dcmitype/StillImage" />
        <dc:title />
      </cc:Work>
    </rdf:RDF>
  </metadata>
  <g
     inkscape:label="Layer 1"
     inkscape:groupmode="layer"
     id="layer1">
    <path
       style="fill:none;fill-rule:evenodd;stroke:#fa0000;stroke-width:13.69403172;stroke-linecap:butt;stroke-linejoin:miter;stroke-miterlimit:4;stroke-dasharray:none;stroke-opacity:1"
       d="M -147.0236,-129.68078 C -40.355984,-126.86359 35.609353,-30.703304 65.199498,13.145269 94.789647,56.993843 102.43975,74.882568 113.82623,110.71577 125.2127,146.54898 133.76563,167.50543 146.93357,245.14484 160.1015,322.78424 168.57125,373.10899 133.35088,427.65787 98.130498,482.20672 23.757643,507.45722 -46.458167,472.71361 -116.67398,437.97003 -127.84515,370.02582 -169.37102,272.02203 -210.89689,174.01824 -245.81337,127.61944 -295.75965,84.25052 -345.70593,40.881602 -417.51307,10.987074 -474.17926,54.120341 -530.84547,97.253609 -517.90665,173.50889 -467.54636,205.37447 -417.18607,237.24005 -354.7031,220.93898 -304.38433,188.3568 -254.06558,155.7746 -203.84241,104.61732 -158.81019,76.600618 -113.77799,48.583904 -30.091314,30.935366 -4.2456856,30.935366 21.599944,30.935366 36.04309,44.880054 42.451652,57.319755 48.860213,69.759454 57.90429,95.877738 33.347051,127.60963 8.7898119,159.34154 -21.54173,162.02239 -46.504623,195.79218 -71.467516,229.56198 -62.594441,258.302 -58.261304,268.99178 -53.92817,279.68154 -30.4635,335.20836 61.499386,340.08273 153.46227,344.95709 204.015,319.31148 243.23446,269.87104 282.45393,220.43063 289.08608,114.88073 276.89012,45.960043 264.69415,-22.960661 236.72916,-86.295879 130.08109,-125.36314 23.433008,-164.43041 -34.984656,-71.907385 -47.075599,-54.224601 -59.166542,-36.541818 -68.911041,-18.134311 -71.669323,6.4048373 -74.427603,30.943985 -63.452144,67.25967 -55.545127,85.024078 -47.638106,102.78849 -48.49376,100.44552 -34.363271,124.36186 -20.232778,148.27819 0.17451158,174.68647 6.2756168,202.89359 12.376722,231.1007 7.272534,254.14593 4.3200074,265.86829 1.3674809,277.59064 -12.123368,323.81996 -60.438224,361.80358 -108.75307,399.7872 -167.48288,432.15951 -245.69343,403.68851 -323.90401,375.21754 -357.32322,309.11607 -363.73203,295.48013 -370.14082,281.84416 -398.79167,219.66866 -386.12616,130.50852 -373.46066,41.348394 -347.98125,-20.452057 -324.13182,-47.871691 -300.28236,-75.291326 -253.69121,-132.49796 -147.0236,-129.68078 Z"
       id="path4201"
       inkscape:connector-curvature="0"
       sodipodi:nodetypes="zzzzzzzzzzzzzzzzzzzzzzzzzzzzzzzzz" />
  </g>
</svg>
