<?xml version="1.0" encoding="UTF-8" standalone="no"?>
<!-- Created with Inkscape (http://www.inkscape.org/) -->

<svg
   xmlns:dc="http://purl.org/dc/elements/1.1/"
   xmlns:cc="http://creativecommons.org/ns#"
   xmlns:rdf="http://www.w3.org/1999/02/22-rdf-syntax-ns#"
   xmlns:svg="http://www.w3.org/2000/svg"
   xmlns="http://www.w3.org/2000/svg"
   xmlns:sodipodi="http://sodipodi.sourceforge.net/DTD/sodipodi-0.dtd"
   xmlns:inkscape="http://www.inkscape.org/namespaces/inkscape"
   width="210mm"
   height="297mm"
   viewBox="0 0 744.09448819 1052.3622047"
   id="svg2"
   version="1.1"
   inkscape:version="0.92.2 5c3e80d, 2017-08-06"
   sodipodi:docname="9_22.svg">
  <defs
     id="defs4" />
  <sodipodi:namedview
     id="base"
     pagecolor="#ffffff"
     bordercolor="#666666"
     borderopacity="1.0"
     inkscape:pageopacity="0.0"
     inkscape:pageshadow="2"
     inkscape:zoom="2.1722295"
     inkscape:cx="41.419963"
     inkscape:cy="1012.5913"
     inkscape:document-units="px"
     inkscape:current-layer="layer1"
     showgrid="false"
     inkscape:window-width="2560"
     inkscape:window-height="1315"
     inkscape:window-x="0"
     inkscape:window-y="1"
     inkscape:window-maximized="1" />
  <metadata
     id="metadata7">
    <rdf:RDF>
      <cc:Work
         rdf:about="">
        <dc:format>image/svg+xml</dc:format>
        <dc:type
           rdf:resource="http://purl.org/dc/dcmitype/StillImage" />
        <dc:title />
      </cc:Work>
    </rdf:RDF>
  </metadata>
  <g
     inkscape:label="Layer 1"
     inkscape:groupmode="layer"
     id="layer1">
    <path
       style="fill:none;fill-rule:evenodd;stroke:#fa0000;stroke-width:13.69403267;stroke-linecap:butt;stroke-linejoin:miter;stroke-miterlimit:4;stroke-dasharray:none;stroke-opacity:1"
       d="M  -148.278520050788 , -141.546249292452 C  -41.1843220394848 , -168.082835481172 41.3904776129451 , -38.7380367623569 72.1206024436297 , 6.80761586486735 102.850727274314 , 52.3532684920916 110.795558436805 , 70.9343431065554 122.620699293768 , 108.154408822901 134.445840150732 , 145.374474539246 138.770978230326 , 169.420649270565 147.563408663211 , 247.78629161244 156.355839096096 , 326.151933954315 179.47480900229 , 380.703067561159 142.897547168123 , 437.36314773951 106.320285333955 , 494.023227917861 29.0821735602238 , 520.250987738082 -43.8387418161729 , 484.162719508048 -116.75965719257 , 448.074451278015 -128.361205236588 , 377.500559082282 -171.486894046851 , 275.703724015114 -214.612582857113 , 173.906888947947 -250.874234087113 , 125.712297913066 -302.744721392668 , 80.6648638871827 -354.615208698223 , 35.6174298612998 -429.188767777837 , 4.5658898470139 -488.03806477916 , 49.3685516108737 -546.887361780483 , 94.1712133747334 -533.450064813145 , 173.377821871719 -481.149617541335 , 206.47670454037 -428.849170269525 , 239.575587209021 -363.958997628308 , 222.643600897793 -311.70168112538 , 188.800376027524 -259.444364622451 , 154.957151157255 -191.010235958184 , 93.3563812497765 -144.243144457387 , 64.2553338296167 -97.4760529565912 , 35.154286409457 -26.8413463257252 , 25.2862450582295 0 , 25.2862450582295 26.8413463257252 , 25.2862450582295 41.8409255292363 , 39.7706358773088 48.4963806815556 , 52.6917925525577 55.1518358338749 , 65.6129492278065 64.544341369758 , 92.7420907931417 39.0410194648098 , 125.702116873834 13.5376975598615 , 158.662142954526 -17.9623845006071 , 161.446761673195 -43.8869889443334 , 196.523550590175 -69.8115933880596 , 231.600339507155 -60.5966766361319 , 261.452689088913 -56.0966040993637 , 272.556186459216 -51.5965315625955 , 283.659683829519 -27.2278700051793 , 341.335570917615 68.2779411223975 , 346.398584292882 163.783752249974 , 351.461597668149 244.278879863981 , 331.333828186149 281.754077461813 , 259.797604015658 319.229275059645 , 188.261379845168 311.794009887025 , 116.38682628634 288.711506969965 , 47.4028465831411 265.629004052904 , -21.581133120058 233.331447246028 , -88.018670128151 131.03824017169 , -129.248999792977 28.7450330973533 , -170.479329457804 -31.9232079305688 , -81.5368456043534 -44.4799614491465 , -63.1696825617554 -57.0367149677243 , -44.8025195191574 -67.1566284933143 , -25.6825843706481 -70.0211735408278 , -0.193693047015847 -72.8857185883413 , 25.2951982766164 -61.4874240158233 , 63.0164151789232 -53.2757821773471 , 81.4683598917782 -45.064140338871 , 99.9203046046332 -45.9527592581248 , 97.4866566068396 -31.2778827799414 , 122.328628946764 -16.6030063017579 , 147.170601286687 4.59048791328461 , 174.600970828582 10.9266417952391 , 203.899794631953 17.2627956771937 , 233.198618435324 11.9619658744949 , 257.135759673419 8.89569150267991 , 269.311814795619 5.82941713086493 , 281.487869917818 -8.181173861967 , 329.506400362223 -58.3573886348692 , 368.960107706613 -108.533603407771 , 408.413815051003 -169.526001623899 , 442.039033200783 -250.749677839801 , 412.466124444622 -331.973354055702 , 382.893215688461 -366.680073638708 , 314.233427009084 -373.335768135562 , 300.069720113084 -379.991462632417 , 285.906013217083 -409.746104808382 , 221.324107381064 -396.592654640674 , 128.713198720738 -383.439204472966 , 36.1022900604109 -353.295347486066 , -9.67577369592781 -328.527083594994 , -38.1566348660287 -303.758819703922 , -66.6374960361296 -255.372718062091 , -115.009663103733 -148.278520050788 , -141.546249292452 Z "
       id="path4201"
       inkscape:connector-curvature="0"
       sodipodi:nodetypes="zzzzzzzzzzzzzzzzzzzzzzzzzzzzzzzzz" />
  </g>
</svg>
