<?xml version="1.0" encoding="UTF-8" standalone="no"?>
<!-- Created with Inkscape (http://www.inkscape.org/) -->

<svg
   xmlns:dc="http://purl.org/dc/elements/1.1/"
   xmlns:cc="http://creativecommons.org/ns#"
   xmlns:rdf="http://www.w3.org/1999/02/22-rdf-syntax-ns#"
   xmlns:svg="http://www.w3.org/2000/svg"
   xmlns="http://www.w3.org/2000/svg"
   xmlns:sodipodi="http://sodipodi.sourceforge.net/DTD/sodipodi-0.dtd"
   xmlns:inkscape="http://www.inkscape.org/namespaces/inkscape"
   width="210mm"
   height="297mm"
   viewBox="0 0 744.09448819 1052.3622047"
   id="svg2"
   version="1.1"
   inkscape:version="0.91 r13725"
   sodipodi:docname="9_22.svg">
  <defs
     id="defs4" />
  <sodipodi:namedview
     id="base"
     pagecolor="#ffffff"
     bordercolor="#666666"
     borderopacity="1.0"
     inkscape:pageopacity="0.0"
     inkscape:pageshadow="2"
     inkscape:zoom="0.76799911"
     inkscape:cx="-192.71309"
     inkscape:cy="957.434"
     inkscape:document-units="px"
     inkscape:current-layer="layer1"
     showgrid="false"
     inkscape:window-width="1301"
     inkscape:window-height="744"
     inkscape:window-x="65"
     inkscape:window-y="24"
     inkscape:window-maximized="1" />
  <metadata
     id="metadata7">
    <rdf:RDF>
      <cc:Work
         rdf:about="">
        <dc:format>image/svg+xml</dc:format>
        <dc:type
           rdf:resource="http://purl.org/dc/dcmitype/StillImage" />
        <dc:title />
      </cc:Work>
    </rdf:RDF>
  </metadata>
  <g
     inkscape:label="Layer 1"
     inkscape:groupmode="layer"
     id="layer1">
    <path
       style="fill:none;fill-rule:evenodd;stroke:#fa0000;stroke-width:13.69403172;stroke-linecap:butt;stroke-linejoin:miter;stroke-miterlimit:4;stroke-dasharray:none;stroke-opacity:1"
       d="M  -137.880108681832 , -145.418989479579 C  -50.961425148257 , -145.310570162579 24.8373936833941 , -66.4604531900251 65.585779425977 , -16.7755313294284 106.33416516856 , 32.9093905311682 123.191355087766 , 84.5125862071608 130.847475358703 , 115.977347985611 138.50359562964 , 147.442109764062 142.379585717482 , 171.458203803873 147.977151750406 , 259.524020899568 153.57471778333 , 347.589837995263 170.015732503111 , 379.469351882209 139.030325710022 , 430.542356142831 108.044918916932 , 481.615360403453 36.6273016503884 , 512.224276167713 -36.2086485285651 , 478.234933840253 -109.044598707519 , 444.245591512794 -117.305164219011 , 383.289726254072 -162.793457394463 , 274.287886634302 -208.281750569914 , 165.286047014532 -247.595303674853 , 110.653286262741 -295.243326045783 , 66.6979141741607 -342.891348416713 , 22.7425420855809 -414.618813571381 , -10.6461660661553 -475.900490389324 , 28.2525898502639 -537.182167207267 , 67.151345766683 -535.321575160351 , 148.606981298433 -481.281187775086 , 188.20701359119 -427.240800389821 , 227.807045883948 -358.182504291035 , 207.515202744689 -308.242087130291 , 179.173114105312 -258.301669969547 , 150.831025465935 -213.759343739541 , 112.280710342462 -152.044114724426 , 72.516861385974 -90.3288857093109 , 32.7530124294863 -28.7064926591726 , 26.7026146426584 0 , 26.7026146426584 28.7064926591726 , 26.7026146426584 45.7364773484119 , 44.1303711903516 53.1020996269612 , 56.9543165203859 60.4677219055105 , 69.7782618504202 71.4779062313553 , 101.241935291558 42.4896098502166 , 137.216087914818 13.5013134690779 , 173.190240538079 -13.2301363438307 , 175.820436337344 -34.2282749073287 , 206.908115887034 -55.2264134708267 , 237.995795436724 -49.4150174103909 , 265.279876931524 -46.8328697603682 , 274.777032569835 -44.2507221103456 , 284.274188208146 -26.7135112262122 , 343.644081882825 67.105262117947 , 350.915547382596 160.924035462106 , 358.187012882367 223.141429916504 , 354.336821056352 272.71672815432 , 272.257090262288 322.292026392137 , 190.177359468224 303.159328915985 , 93.645497780054 296.023166810764 , 64.3306442418565 288.887004705543 , 35.0157907036591 249.179647160031 , -110.2994456663 119.501918904674 , -152.618283353316 -10.175809350682 , -194.937121040332 -52.6418263546223 , -73.9814386130753 -56.127276014174 , -64.0564400871271 -59.6127256737256 , -54.131441561179 -64.6933114033047 , -38.9329812903229 -66.5320439562798 , -14.1079677105112 -68.3707765092549 , 10.7170458693005 -62.36493338041 , 49.0192722168291 -46.2365220872251 , 84.5861824269847 -30.1081107940402 , 120.15309263714 -47.1409920374413 , 82.5916397996434 -27.5630846020106 , 125.765392212139 -7.98517716657994 , 168.939144624634 10.5281143406517 , 183.592855822665 16.726789668016 , 215.912893651028 22.9254649953803 , 248.232931479392 15.5250020180659 , 271.224466668022 12.576017033213 , 279.900766771355 9.62703204836008 , 288.577066874687 -5.57440902134142 , 331.378803022129 -54.6375829387768 , 366.74859652264 -103.700756856212 , 402.118390023152 -156.884502568564 , 432.267511977816 -236.057502677596 , 405.969382648518 -315.230502786628 , 379.671253319219 -352.325188599224 , 313.105889060675 -361.800029655059 , 294.485312137917 -371.274870710894 , 275.864735215159 -402.438590501934 , 207.727586966512 -389.389863012429 , 113.895546091294 -376.341135522923 , 20.0635052160754 -342.336699969541 , -30.481504256858 -314.196285438694 , -61.6559399915868 -286.055870907847 , -92.8303757263156 -224.798792215407 , -145.52740879658 -137.880108681832 , -145.418989479579 Z "
       id="path4201"
       inkscape:connector-curvature="0"
       sodipodi:nodetypes="zzzzzzzzzzzzzzzzzzzzzzzzzzzzzzzzz" />
  </g>
</svg>
