<?xml version="1.0" encoding="UTF-8" standalone="no"?>
<!-- Created with Inkscape (http://www.inkscape.org/) -->

<svg
   xmlns:dc="http://purl.org/dc/elements/1.1/"
   xmlns:cc="http://creativecommons.org/ns#"
   xmlns:rdf="http://www.w3.org/1999/02/22-rdf-syntax-ns#"
   xmlns:svg="http://www.w3.org/2000/svg"
   xmlns="http://www.w3.org/2000/svg"
   xmlns:sodipodi="http://sodipodi.sourceforge.net/DTD/sodipodi-0.dtd"
   xmlns:inkscape="http://www.inkscape.org/namespaces/inkscape"
   width="210mm"
   height="297mm"
   viewBox="0 0 210 297"
   version="1.1"
   id="svg8"
   inkscape:version="0.92.2 5c3e80d, 2017-08-06"
   sodipodi:docname="9_23a.svg">
  <defs
     id="defs2" />
  <sodipodi:namedview
     id="base"
     pagecolor="#ffffff"
     bordercolor="#666666"
     borderopacity="1.0"
     inkscape:pageopacity="0.0"
     inkscape:pageshadow="2"
     inkscape:zoom="1.5832031"
     inkscape:cx="33.654082"
     inkscape:cy="1115.8352"
     inkscape:document-units="mm"
     inkscape:current-layer="layer1"
     showgrid="false"
     inkscape:window-width="2560"
     inkscape:window-height="1315"
     inkscape:window-x="1001"
     inkscape:window-y="425"
     inkscape:window-maximized="0" />
  <metadata
     id="metadata5">
    <rdf:RDF>
      <cc:Work
         rdf:about="">
        <dc:format>image/svg+xml</dc:format>
        <dc:type
           rdf:resource="http://purl.org/dc/dcmitype/StillImage" />
        <dc:title />
      </cc:Work>
    </rdf:RDF>
  </metadata>
  <g
     inkscape:label="Layer 1"
     inkscape:groupmode="layer"
     id="layer1">
    <path
       style="fill:none;fill-rule:evenodd;stroke:#000000;stroke-width:0.26458332px;stroke-linecap:butt;stroke-linejoin:miter;stroke-opacity:1"
       d="M  0 , -252.371595526456 C  5.00441154447885 , -252.371595526456 36.4035864868703 , -252.373248684066 65.3885137624224 , -220.257322196189 94.3734410379745 , -188.141395708312 110.578601755668 , -139.4753622776 117.645508309369 , -74.3073490584068 124.71241486307 , -9.1393358392138 158.494485854519 , 21.6637958693578 164.911855644748 , 27.2222998797028 171.329225434976 , 32.7808038900479 190.550345164061 , 47.2805553284184 221.185901252324 , 50.2389653686901 251.821457340587 , 53.1973754089618 438.950688583415 , 44.5486551793476 410.670789039899 , -117.391889901283 382.390889496382 , -279.332434981914 213.634925772604 , -220.805439022976 180.783789708047 , -205.984308707644 147.932653643489 , -191.163178392312 85.3522964408016 , -157.469035645945 50.0403357654732 , -92.3758368706447 14.7283750901448 , -27.2826380953441 -14.7283750901447 , 27.2826380953442 -50.0403357654732 , 92.3758368706447 -85.3522964408016 , 157.469035645945 -147.932653643489 , 191.163178392312 -180.783789708047 , 205.984308707644 -213.634925772604 , 220.805439022976 -382.390889496382 , 279.332434981914 -410.670789039899 , 117.391889901283 -438.950688583415 , -44.5486551793476 -251.821457340587 , -53.1973754089618 -221.185901252324 , -50.2389653686901 -190.550345164061 , -47.2805553284184 -171.329225434976 , -32.7808038900479 -164.911855644748 , -27.2222998797028 -158.494485854519 , -21.6637958693578 -124.71241486307 , 9.1393358392138 -117.645508309369 , 74.3073490584068 -110.578601755668 , 139.4753622776 -94.3734410379745 , 188.141395708312 -65.3885137624224 , 220.257322196189 -36.4035864868703 , 252.373248684066 -5.00441154447885 , 252.371595526456 0 , 252.371595526456 5.00441154447885 , 252.371595526456 36.4035864868703 , 252.373248684066 65.3885137624224 , 220.257322196189 94.3734410379745 , 188.141395708312 110.578601755668 , 139.4753622776 117.645508309369 , 74.3073490584068 124.71241486307 , 9.1393358392138 158.494485854519 , -21.6637958693578 164.911855644748 , -27.2222998797028 171.329225434976 , -32.7808038900479 190.550345164061 , -47.2805553284184 221.185901252324 , -50.2389653686901 251.821457340587 , -53.1973754089618 438.950688583415 , -44.5486551793476 410.670789039899 , 117.391889901283 382.390889496382 , 279.332434981914 213.634925772604 , 220.805439022976 180.783789708047 , 205.984308707644 147.932653643489 , 191.163178392312 85.3522964408016 , 157.469035645945 50.0403357654732 , 92.3758368706447 14.7283750901448 , 27.2826380953441 -14.7283750901447 , -27.2826380953442 -50.0403357654732 , -92.3758368706447 -85.3522964408016 , -157.469035645945 -147.932653643489 , -191.163178392312 -180.783789708047 , -205.984308707644 -213.634925772604 , -220.805439022976 -382.390889496382 , -279.332434981914 -410.670789039899 , -117.391889901283 -438.950688583415 , 44.5486551793476 -251.821457340587 , 53.1973754089618 -221.185901252324 , 50.2389653686901 -190.550345164061 , 47.2805553284184 -171.329225434976 , 32.7808038900479 -164.911855644748 , 27.2222998797028 -158.494485854519 , 21.6637958693578 -124.71241486307 , -9.1393358392138 -117.645508309369 , -74.3073490584068 -110.578601755668 , -139.4753622776 -94.3734410379745 , -188.141395708312 -65.3885137624224 , -220.257322196189 -36.4035864868703 , -252.373248684066 -5.00441154447885 , -252.371595526456 0 , -252.371595526456 Z "
       id="path882"
       inkscape:connector-curvature="0"
       sodipodi:nodetypes="zzzzzzzzzzzzzzzzzzzzzzzzzzzzzzz" />
  </g>
</svg>
