<?xml version="1.0" encoding="UTF-8" standalone="no"?>
<!-- Created with Inkscape (http://www.inkscape.org/) -->

<svg
   xmlns:dc="http://purl.org/dc/elements/1.1/"
   xmlns:cc="http://creativecommons.org/ns#"
   xmlns:rdf="http://www.w3.org/1999/02/22-rdf-syntax-ns#"
   xmlns:svg="http://www.w3.org/2000/svg"
   xmlns="http://www.w3.org/2000/svg"
   xmlns:sodipodi="http://sodipodi.sourceforge.net/DTD/sodipodi-0.dtd"
   xmlns:inkscape="http://www.inkscape.org/namespaces/inkscape"
   width="210mm"
   height="297mm"
   viewBox="0 0 210 297"
   version="1.1"
   id="svg8"
   inkscape:version="0.92.2 5c3e80d, 2017-08-06"
   sodipodi:docname="9_23a.svg">
  <defs
     id="defs2" />
  <sodipodi:namedview
     id="base"
     pagecolor="#ffffff"
     bordercolor="#666666"
     borderopacity="1.0"
     inkscape:pageopacity="0.0"
     inkscape:pageshadow="2"
     inkscape:zoom="1.5832031"
     inkscape:cx="33.654082"
     inkscape:cy="1115.8352"
     inkscape:document-units="mm"
     inkscape:current-layer="layer1"
     showgrid="false"
     inkscape:window-width="2560"
     inkscape:window-height="1315"
     inkscape:window-x="1001"
     inkscape:window-y="425"
     inkscape:window-maximized="0" />
  <metadata
     id="metadata5">
    <rdf:RDF>
      <cc:Work
         rdf:about="">
        <dc:format>image/svg+xml</dc:format>
        <dc:type
           rdf:resource="http://purl.org/dc/dcmitype/StillImage" />
        <dc:title />
      </cc:Work>
    </rdf:RDF>
  </metadata>
  <g
     inkscape:label="Layer 1"
     inkscape:groupmode="layer"
     id="layer1">
    <path
       style="fill:none;fill-rule:evenodd;stroke:#000000;stroke-width:0.26458332px;stroke-linecap:butt;stroke-linejoin:miter;stroke-opacity:1"
       d="M  0 , -171.689108769693 C  7.41861815341469 , -171.689108769693 36.4837676810268 , -171.46025163962 70.2833927277824 , -156.285948995702 104.083017774538 , -141.111646351783 133.312581983228 , -118.890035657799 194.930703394501 , -58.9680688273405 256.548824805774 , 0.953898003118326 284.300099731004 , 25.727045396911 326.300826867974 , 37.9931625513133 368.301554004944 , 50.2592797057156 399.959078311845 , 40.9471713725462 409.344756620837 , 37.9347157319397 418.730434929828 , 34.9222600913332 511.686587466825 , 4.20444374832175 497.327197577198 , -95.2191697730516 482.96780768757 , -194.642783294425 369.865618981092 , -233.956145392531 273.277026646906 , -206.510426525912 176.68843431272 , -179.064707659294 111.452461596947 , -105.838505647642 60.9135671636481 , -57.9498467674585 10.3746727303489 , -10.0611878872754 -10.3746727303489 , 10.0611878872754 -60.9135671636481 , 57.9498467674585 -111.452461596947 , 105.838505647642 -176.68843431272 , 179.064707659294 -273.277026646906 , 206.510426525912 -369.865618981092 , 233.956145392531 -482.96780768757 , 194.642783294425 -497.327197577198 , 95.2191697730516 -511.686587466825 , -4.20444374832175 -418.730434929828 , -34.9222600913332 -409.344756620837 , -37.9347157319397 -399.959078311845 , -40.9471713725462 -368.301554004944 , -50.2592797057156 -326.300826867974 , -37.9931625513133 -284.300099731004 , -25.727045396911 -256.548824805774 , -0.953898003118326 -194.930703394501 , 58.9680688273405 -133.312581983228 , 118.890035657799 -104.083017774538 , 141.111646351783 -70.2833927277824 , 156.285948995702 -36.4837676810268 , 171.46025163962 -7.41861815341469 , 171.689108769693 0 , 171.689108769693 7.41861815341469 , 171.689108769693 36.4837676810268 , 171.46025163962 70.2833927277824 , 156.285948995702 104.083017774538 , 141.111646351783 133.312581983228 , 118.890035657799 194.930703394501 , 58.9680688273405 256.548824805774 , -0.953898003118326 284.300099731004 , -25.727045396911 326.300826867974 , -37.9931625513133 368.301554004944 , -50.2592797057156 399.959078311845 , -40.9471713725462 409.344756620837 , -37.9347157319397 418.730434929828 , -34.9222600913332 511.686587466825 , -4.20444374832175 497.327197577198 , 95.2191697730516 482.96780768757 , 194.642783294425 369.865618981092 , 233.956145392531 273.277026646906 , 206.510426525912 176.68843431272 , 179.064707659294 111.452461596947 , 105.838505647642 60.9135671636481 , 57.9498467674585 10.3746727303489 , 10.0611878872754 -10.3746727303489 , -10.0611878872754 -60.9135671636481 , -57.9498467674585 -111.452461596947 , -105.838505647642 -176.68843431272 , -179.064707659294 -273.277026646906 , -206.510426525912 -369.865618981092 , -233.956145392531 -482.96780768757 , -194.642783294425 -497.327197577198 , -95.2191697730516 -511.686587466825 , 4.20444374832175 -418.730434929828 , 34.9222600913332 -409.344756620837 , 37.9347157319397 -399.959078311845 , 40.9471713725462 -368.301554004944 , 50.2592797057156 -326.300826867974 , 37.9931625513133 -284.300099731004 , 25.727045396911 -256.548824805774 , 0.953898003118323 -194.930703394501 , -58.9680688273405 -133.312581983228 , -118.890035657799 -104.083017774538 , -141.111646351783 -70.2833927277824 , -156.285948995702 -36.4837676810268 , -171.46025163962 -7.41861815341469 , -171.689108769693 0 , -171.689108769693 Z "
       id="path882"
       inkscape:connector-curvature="0"
       sodipodi:nodetypes="zzzzzzzzzzzzzzzzzzzzzzzzzzzzzzz" />
  </g>
</svg>
