<?xml version="1.0" encoding="UTF-8" standalone="no"?>
<!-- Created with Inkscape (http://www.inkscape.org/) -->

<svg
   xmlns:dc="http://purl.org/dc/elements/1.1/"
   xmlns:cc="http://creativecommons.org/ns#"
   xmlns:rdf="http://www.w3.org/1999/02/22-rdf-syntax-ns#"
   xmlns:svg="http://www.w3.org/2000/svg"
   xmlns="http://www.w3.org/2000/svg"
   xmlns:sodipodi="http://sodipodi.sourceforge.net/DTD/sodipodi-0.dtd"
   xmlns:inkscape="http://www.inkscape.org/namespaces/inkscape"
   width="210mm"
   height="297mm"
   viewBox="0 0 210 297"
   version="1.1"
   id="svg8"
   inkscape:version="0.92.2 5c3e80d, 2017-08-06"
   sodipodi:docname="9_23a.svg">
  <defs
     id="defs2" />
  <sodipodi:namedview
     id="base"
     pagecolor="#ffffff"
     bordercolor="#666666"
     borderopacity="1.0"
     inkscape:pageopacity="0.0"
     inkscape:pageshadow="2"
     inkscape:zoom="1.5832031"
     inkscape:cx="33.654082"
     inkscape:cy="1115.8352"
     inkscape:document-units="mm"
     inkscape:current-layer="layer1"
     showgrid="false"
     inkscape:window-width="2560"
     inkscape:window-height="1315"
     inkscape:window-x="1001"
     inkscape:window-y="425"
     inkscape:window-maximized="0" />
  <metadata
     id="metadata5">
    <rdf:RDF>
      <cc:Work
         rdf:about="">
        <dc:format>image/svg+xml</dc:format>
        <dc:type
           rdf:resource="http://purl.org/dc/dcmitype/StillImage" />
        <dc:title />
      </cc:Work>
    </rdf:RDF>
  </metadata>
  <g
     inkscape:label="Layer 1"
     inkscape:groupmode="layer"
     id="layer1">
    <path
       style="fill:none;fill-rule:evenodd;stroke:#000000;stroke-width:0.26458332px;stroke-linecap:butt;stroke-linejoin:miter;stroke-opacity:1"
       d="M  0 , -177.038975572494 C  6.46664537837206 , -177.038975572494 34.6260815092768 , -176.885367688526 66.4076580197868 , -162.552939974615 98.1892345302968 , -148.220512260703 128.770655988769 , -126.497568401737 191.74120933981 , -60.9684623005289 254.711762690852 , 4.56064380067934 283.155280799522 , 26.1533380456617 320.936225799327 , 37.1942631125453 358.717170799132 , 48.235188179429 387.015226534963 , 41.2829520482988 395.785839924822 , 38.9308250685882 404.556453314681 , 36.5786980888775 504.051096265078 , 9.47459850842267 491.715500307305 , -95.0959076202629 479.379904349532 , -199.666413748948 363.413495990774 , -237.460319874211 268.826257103111 , -210.27756789842 174.239018215448 , -183.094815922629 108.490308226632 , -108.628233104619 59.7564709250747 , -59.751332044379 11.0226336235175 , -10.8744309841395 -11.0226336235175 , 10.8744309841395 -59.7564709250747 , 59.751332044379 -108.490308226632 , 108.628233104619 -174.239018215448 , 183.094815922629 -268.826257103111 , 210.27756789842 -363.413495990774 , 237.460319874211 -479.379904349532 , 199.666413748948 -491.715500307305 , 95.0959076202629 -504.051096265078 , -9.47459850842267 -404.556453314681 , -36.5786980888775 -395.785839924822 , -38.9308250685882 -387.015226534963 , -41.2829520482988 -358.717170799132 , -48.235188179429 -320.936225799327 , -37.1942631125453 -283.155280799522 , -26.1533380456617 -254.711762690852 , -4.56064380067934 -191.74120933981 , 60.9684623005289 -128.770655988769 , 126.497568401737 -98.1892345302968 , 148.220512260703 -66.4076580197868 , 162.552939974615 -34.6260815092768 , 176.885367688526 -6.46664537837206 , 177.038975572494 0 , 177.038975572494 6.46664537837206 , 177.038975572494 34.6260815092768 , 176.885367688526 66.4076580197868 , 162.552939974615 98.1892345302968 , 148.220512260703 128.770655988769 , 126.497568401737 191.74120933981 , 60.9684623005289 254.711762690852 , -4.56064380067934 283.155280799522 , -26.1533380456617 320.936225799327 , -37.1942631125453 358.717170799132 , -48.235188179429 387.015226534963 , -41.2829520482988 395.785839924822 , -38.9308250685882 404.556453314681 , -36.5786980888775 504.051096265078 , -9.47459850842267 491.715500307305 , 95.0959076202629 479.379904349532 , 199.666413748948 363.413495990774 , 237.460319874211 268.826257103111 , 210.27756789842 174.239018215448 , 183.094815922629 108.490308226632 , 108.628233104619 59.7564709250747 , 59.751332044379 11.0226336235175 , 10.8744309841395 -11.0226336235175 , -10.8744309841394 -59.7564709250747 , -59.751332044379 -108.490308226632 , -108.628233104619 -174.239018215448 , -183.094815922629 -268.826257103111 , -210.27756789842 -363.413495990774 , -237.460319874211 -479.379904349532 , -199.666413748948 -491.715500307305 , -95.0959076202629 -504.051096265078 , 9.47459850842267 -404.556453314681 , 36.5786980888775 -395.785839924822 , 38.9308250685882 -387.015226534963 , 41.2829520482988 -358.717170799132 , 48.235188179429 -320.936225799327 , 37.1942631125453 -283.155280799522 , 26.1533380456617 -254.711762690852 , 4.56064380067934 -191.74120933981 , -60.9684623005289 -128.770655988769 , -126.497568401737 -98.1892345302968 , -148.220512260703 -66.4076580197868 , -162.552939974615 -34.6260815092768 , -176.885367688526 -6.46664537837206 , -177.038975572494 0 , -177.038975572494 Z "
       id="path882"
       inkscape:connector-curvature="0"
       sodipodi:nodetypes="zzzzzzzzzzzzzzzzzzzzzzzzzzzzzzz" />
  </g>
</svg>
