<?xml version="1.0" encoding="UTF-8" standalone="no"?>
<!-- Created with Inkscape (http://www.inkscape.org/) -->

<svg
   xmlns:dc="http://purl.org/dc/elements/1.1/"
   xmlns:cc="http://creativecommons.org/ns#"
   xmlns:rdf="http://www.w3.org/1999/02/22-rdf-syntax-ns#"
   xmlns:svg="http://www.w3.org/2000/svg"
   xmlns="http://www.w3.org/2000/svg"
   xmlns:sodipodi="http://sodipodi.sourceforge.net/DTD/sodipodi-0.dtd"
   xmlns:inkscape="http://www.inkscape.org/namespaces/inkscape"
   width="210mm"
   height="297mm"
   viewBox="0 0 210 297"
   version="1.1"
   id="svg8"
   inkscape:version="0.92.2 5c3e80d, 2017-08-06"
   sodipodi:docname="9_23a.svg">
  <defs
     id="defs2" />
  <sodipodi:namedview
     id="base"
     pagecolor="#ffffff"
     bordercolor="#666666"
     borderopacity="1.0"
     inkscape:pageopacity="0.0"
     inkscape:pageshadow="2"
     inkscape:zoom="1.5832031"
     inkscape:cx="33.654082"
     inkscape:cy="1115.8352"
     inkscape:document-units="mm"
     inkscape:current-layer="layer1"
     showgrid="false"
     inkscape:window-width="2560"
     inkscape:window-height="1315"
     inkscape:window-x="1001"
     inkscape:window-y="425"
     inkscape:window-maximized="0" />
  <metadata
     id="metadata5">
    <rdf:RDF>
      <cc:Work
         rdf:about="">
        <dc:format>image/svg+xml</dc:format>
        <dc:type
           rdf:resource="http://purl.org/dc/dcmitype/StillImage" />
        <dc:title />
      </cc:Work>
    </rdf:RDF>
  </metadata>
  <g
     inkscape:label="Layer 1"
     inkscape:groupmode="layer"
     id="layer1">
    <path
       style="fill:none;fill-rule:evenodd;stroke:#000000;stroke-width:0.26458332px;stroke-linecap:butt;stroke-linejoin:miter;stroke-opacity:1"
       d="M  0 , -259.527619454896 C  4.91912105983034 , -259.527619454896 43.2274107386527 , -259.53748655161 74.5816792574374 , -219.52914186223 105.935947776222 , -179.520797172851 108.663987724483 , -128.765581602966 116.690216238223 , -67.1269373782596 124.716444751964 , -5.48829315355272 161.415726735567 , 23.0806766188379 164.855275695194 , 25.7585014931097 168.294824654822 , 28.4363263673814 186.959123295843 , 42.9698279123251 216.942267105324 , 47.6898701091931 246.925410914804 , 52.4099123060611 436.149346084018 , 47.2960189113267 399.29467748416 , -116.848183012182 362.440008884302 , -280.99238493569 186.098450126388 , -210.267665273256 167.933155657527 , -202.997686803255 149.767861188666 , -195.727708333254 81.189939210686 , -167.149287533805 48.3983389443973 , -107.049351046755 15.6067386781086 , -46.9494145597055 -15.6067386781086 , 46.9494145597055 -48.3983389443973 , 107.049351046755 -81.189939210686 , 167.149287533805 -149.767861188666 , 195.727708333254 -167.933155657527 , 202.997686803255 -186.098450126388 , 210.267665273256 -362.440008884302 , 280.99238493569 -399.29467748416 , 116.848183012182 -436.149346084018 , -47.2960189113267 -246.925410914804 , -52.4099123060611 -216.942267105324 , -47.6898701091931 -186.959123295843 , -42.9698279123251 -168.294824654822 , -28.4363263673814 -164.855275695194 , -25.7585014931097 -161.415726735567 , -23.0806766188379 -124.716444751964 , 5.48829315355272 -116.690216238223 , 67.1269373782596 -108.663987724483 , 128.765581602966 -105.935947776222 , 179.520797172851 -74.5816792574374 , 219.52914186223 -43.2274107386527 , 259.53748655161 -4.91912105983034 , 259.527619454896 0 , 259.527619454896 4.91912105983034 , 259.527619454896 43.2274107386527 , 259.53748655161 74.5816792574374 , 219.52914186223 105.935947776222 , 179.520797172851 108.663987724483 , 128.765581602966 116.690216238223 , 67.1269373782596 124.716444751964 , 5.48829315355272 161.415726735567 , -23.0806766188379 164.855275695194 , -25.7585014931097 168.294824654822 , -28.4363263673814 186.959123295843 , -42.9698279123251 216.942267105324 , -47.6898701091931 246.925410914804 , -52.4099123060611 436.149346084018 , -47.2960189113267 399.29467748416 , 116.848183012182 362.440008884302 , 280.99238493569 186.098450126388 , 210.267665273256 167.933155657527 , 202.997686803255 149.767861188666 , 195.727708333254 81.189939210686 , 167.149287533805 48.3983389443973 , 107.049351046755 15.6067386781086 , 46.9494145597055 -15.6067386781086 , -46.9494145597055 -48.3983389443973 , -107.049351046755 -81.189939210686 , -167.149287533805 -149.767861188666 , -195.727708333254 -167.933155657527 , -202.997686803255 -186.098450126388 , -210.267665273256 -362.440008884302 , -280.99238493569 -399.29467748416 , -116.848183012182 -436.149346084018 , 47.2960189113267 -246.925410914804 , 52.4099123060611 -216.942267105324 , 47.6898701091931 -186.959123295843 , 42.9698279123251 -168.294824654822 , 28.4363263673814 -164.855275695194 , 25.7585014931097 -161.415726735567 , 23.0806766188379 -124.716444751964 , -5.48829315355272 -116.690216238223 , -67.1269373782596 -108.663987724483 , -128.765581602966 -105.935947776222 , -179.520797172851 -74.5816792574374 , -219.52914186223 -43.2274107386527 , -259.53748655161 -4.91912105983034 , -259.527619454896 0 , -259.527619454896 Z "
       id="path882"
       inkscape:connector-curvature="0"
       sodipodi:nodetypes="zzzzzzzzzzzzzzzzzzzzzzzzzzzzzzz" />
  </g>
</svg>
