<?xml version="1.0" encoding="UTF-8" standalone="no"?>
<!-- Created with Inkscape (http://www.inkscape.org/) -->

<svg
   xmlns:dc="http://purl.org/dc/elements/1.1/"
   xmlns:cc="http://creativecommons.org/ns#"
   xmlns:rdf="http://www.w3.org/1999/02/22-rdf-syntax-ns#"
   xmlns:svg="http://www.w3.org/2000/svg"
   xmlns="http://www.w3.org/2000/svg"
   xmlns:sodipodi="http://sodipodi.sourceforge.net/DTD/sodipodi-0.dtd"
   xmlns:inkscape="http://www.inkscape.org/namespaces/inkscape"
   width="744.09448819"
   height="1052.3622047"
   id="svg2"
   version="1.1"
   inkscape:version="0.91 r13725"
   sodipodi:docname="9_23.svg">
  <defs
     id="defs4" />
  <sodipodi:namedview
     id="base"
     pagecolor="#ffffff"
     bordercolor="#666666"
     borderopacity="1.0"
     inkscape:pageopacity="0.0"
     inkscape:pageshadow="2"
     inkscape:zoom="0.49773862"
     inkscape:cx="-427.35467"
     inkscape:cy="565.7454"
     inkscape:document-units="px"
     inkscape:current-layer="layer1"
     showgrid="false"
     inkscape:window-width="1600"
     inkscape:window-height="835"
     inkscape:window-x="0"
     inkscape:window-y="0"
     inkscape:window-maximized="1" />
  <metadata
     id="metadata7">
    <rdf:RDF>
      <cc:Work
         rdf:about="">
        <dc:format>image/svg+xml</dc:format>
        <dc:type
           rdf:resource="http://purl.org/dc/dcmitype/StillImage" />
        <dc:title />
      </cc:Work>
    </rdf:RDF>
  </metadata>
  <g
     inkscape:label="Layer 1"
     inkscape:groupmode="layer"
     id="layer1">
    <path
       style="fill:none;fill-rule:evenodd;stroke:#0000ff;stroke-width:4.55486679;stroke-linecap:butt;stroke-linejoin:miter;stroke-miterlimit:4;stroke-dasharray:none;stroke-opacity:1"
       d="M  0 , -4.32464401880647 C  11.9804271953855 , -4.32464401880647 58.79302531624 , -3.5525171574904 106.332988586408 , 29.9475704705145 153.872951856576 , 63.4476580985194 196.222930565879 , 131.415838884156 189.859506941134 , 216.474632776803 183.496083316389 , 301.53342666945 140.501358193878 , 334.821436985226 77.2610855770318 , 401.562023132187 14.0208129601861 , 468.302609279148 -2.62979308593947 , 482.425049557304 -61.2010006491959 , 543.070284236944 -119.772208212452 , 603.715518916584 -154.587715326795 , 652.359134709243 -225.311533581177 , 650.651804968175 -296.035351835559 , 648.944475227107 -343.837166996788 , 587.258110051109 -332.179320878388 , 520.309484279949 -320.521474759988 , 453.360858508789 -266.709468223614 , 419.302941173768 -207.768173757494 , 375.684393171872 -148.826879291374 , 332.065845169976 -115.806012615074 , 311.356430019166 -99.1206643318004 , 264.241865860693 -82.4353160485268 , 217.12730170222 -94.5895441943435 , 176.137212771888 -113.089446679687 , 148.709840589831 -131.589349165031 , 121.282468407774 -191.474957783581 , 62.9855119987269 -275.211735817982 , 102.064190432517 -358.948513852383 , 141.142868866307 -378.224211317585 , 242.585033936608 -351.571775612715 , 324.336322004974 -324.919339907845 , 406.08761007334 -281.800255632533 , 433.353625444048 -202.43487724306 , 521.866288883371 -123.069498853587 , 610.378952322694 -106.190970462769 , 633.822610325897 -63.9694176550083 , 651.776803924478 -21.7478648472476 , 669.730997523059 21.7478648472476 , 669.730997523059 63.9694176550083 , 651.776803924478 106.190970462769 , 633.822610325897 123.069498853587 , 610.378952322694 202.43487724306 , 521.866288883371 281.800255632533 , 433.353625444048 324.919339907845 , 406.08761007334 351.571775612715 , 324.336322004974 378.224211317585 , 242.585033936608 358.948513852383 , 141.142868866307 275.211735817982 , 102.064190432517 191.474957783581 , 62.9855119987269 131.589349165031 , 121.282468407774 113.089446679687 , 148.709840589831 94.5895441943435 , 176.137212771888 82.4353160485268 , 217.12730170222 99.1206643318004 , 264.241865860693 115.806012615074 , 311.356430019166 148.826879291374 , 332.065845169976 207.768173757494 , 375.684393171872 266.709468223614 , 419.302941173768 320.521474759988 , 453.360858508789 332.179320878388 , 520.309484279949 343.837166996788 , 587.258110051109 296.035351835559 , 648.944475227107 225.311533581177 , 650.651804968175 154.587715326795 , 652.359134709243 119.772208212452 , 603.715518916584 61.2010006491959 , 543.070284236944 2.62979308593947 , 482.425049557304 -14.0208129601861 , 468.302609279148 -77.2610855770318 , 401.562023132187 -140.501358193878 , 334.821436985226 -183.496083316389 , 301.53342666945 -189.859506941134 , 216.474632776803 -196.222930565879 , 131.415838884156 -153.872951856576 , 63.4476580985194 -106.332988586408 , 29.9475704705145 -58.79302531624 , -3.5525171574904 -11.9804271953855 , -4.32464401880647 0 , -4.32464401880647 Z "
       id="path4199"
       inkscape:connector-curvature="0"
       sodipodi:nodetypes="zzzzzzzzzzzzzzzzzzzzzzzzzzzz" />
  </g>
</svg>
