<?xml version="1.0" encoding="UTF-8" standalone="no"?>
<!-- Created with Inkscape (http://www.inkscape.org/) -->

<svg
   xmlns:dc="http://purl.org/dc/elements/1.1/"
   xmlns:cc="http://creativecommons.org/ns#"
   xmlns:rdf="http://www.w3.org/1999/02/22-rdf-syntax-ns#"
   xmlns:svg="http://www.w3.org/2000/svg"
   xmlns="http://www.w3.org/2000/svg"
   xmlns:sodipodi="http://sodipodi.sourceforge.net/DTD/sodipodi-0.dtd"
   xmlns:inkscape="http://www.inkscape.org/namespaces/inkscape"
   width="210mm"
   height="297mm"
   viewBox="0 0 210 297"
   version="1.1"
   id="svg8"
   inkscape:version="0.92.2 5c3e80d, 2017-08-06"
   sodipodi:docname="9_23a.svg">
  <defs
     id="defs2" />
  <sodipodi:namedview
     id="base"
     pagecolor="#ffffff"
     bordercolor="#666666"
     borderopacity="1.0"
     inkscape:pageopacity="0.0"
     inkscape:pageshadow="2"
     inkscape:zoom="1.5832031"
     inkscape:cx="33.654082"
     inkscape:cy="1115.8352"
     inkscape:document-units="mm"
     inkscape:current-layer="layer1"
     showgrid="false"
     inkscape:window-width="2560"
     inkscape:window-height="1315"
     inkscape:window-x="1001"
     inkscape:window-y="425"
     inkscape:window-maximized="0" />
  <metadata
     id="metadata5">
    <rdf:RDF>
      <cc:Work
         rdf:about="">
        <dc:format>image/svg+xml</dc:format>
        <dc:type
           rdf:resource="http://purl.org/dc/dcmitype/StillImage" />
        <dc:title />
      </cc:Work>
    </rdf:RDF>
  </metadata>
  <g
     inkscape:label="Layer 1"
     inkscape:groupmode="layer"
     id="layer1">
    <path
       style="fill:none;fill-rule:evenodd;stroke:#000000;stroke-width:0.26458332px;stroke-linecap:butt;stroke-linejoin:miter;stroke-opacity:1"
       d="M  0 , -270.645451694809 C  13.4920225328838 , -270.645451694809 46.9851470135408 , -268.173448713908 77.0358180613475 , -223.817293902961 107.086489109154 , -179.461139092014 110.190606067467 , -122.461142741515 116.222206428876 , -64.099604208625 122.253806790284 , -5.73806567573536 161.160810868403 , 23.7779542985275 164.402260947004 , 26.2373377534384 167.643711025606 , 28.6967212083493 187.470013211124 , 43.6564033741968 215.251442575879 , 47.8193177829146 243.032871940634 , 51.9822321916323 426.258010857155 , 46.2063603045063 389.00440460588 , -114.472043627548 351.750798354606 , -275.150447559603 178.812777650832 , -208.244932498013 163.886716277171 , -202.438513534642 148.960654903509 , -196.632094571272 87.8461423883675 , -172.882804873307 51.0767220669264 , -112.255300995046 14.3073017454852 , -51.6277971167846 -14.3073017454852 , 51.6277971167847 -51.0767220669264 , 112.255300995046 -87.8461423883675 , 172.882804873307 -148.960654903509 , 196.632094571272 -163.886716277171 , 202.438513534642 -178.812777650832 , 208.244932498013 -351.750798354606 , 275.150447559603 -389.00440460588 , 114.472043627548 -426.258010857155 , -46.2063603045063 -243.032871940634 , -51.9822321916323 -215.251442575879 , -47.8193177829146 -187.470013211124 , -43.6564033741968 -167.643711025606 , -28.6967212083493 -164.402260947004 , -26.2373377534384 -161.160810868403 , -23.7779542985275 -122.253806790284 , 5.73806567573536 -116.222206428876 , 64.099604208625 -110.190606067467 , 122.461142741515 -107.086489109154 , 179.461139092014 -77.0358180613475 , 223.817293902961 -46.9851470135408 , 268.173448713908 -13.4920225328838 , 270.645451694809 0 , 270.645451694809 13.4920225328838 , 270.645451694809 46.9851470135408 , 268.173448713908 77.0358180613475 , 223.817293902961 107.086489109154 , 179.461139092014 110.190606067467 , 122.461142741515 116.222206428876 , 64.099604208625 122.253806790284 , 5.73806567573536 161.160810868403 , -23.7779542985275 164.402260947004 , -26.2373377534384 167.643711025606 , -28.6967212083493 187.470013211124 , -43.6564033741968 215.251442575879 , -47.8193177829146 243.032871940634 , -51.9822321916323 426.258010857155 , -46.2063603045063 389.00440460588 , 114.472043627548 351.750798354606 , 275.150447559603 178.812777650832 , 208.244932498013 163.886716277171 , 202.438513534642 148.960654903509 , 196.632094571272 87.8461423883675 , 172.882804873307 51.0767220669264 , 112.255300995046 14.3073017454852 , 51.6277971167846 -14.3073017454852 , -51.6277971167847 -51.0767220669264 , -112.255300995046 -87.8461423883675 , -172.882804873307 -148.960654903509 , -196.632094571272 -163.886716277171 , -202.438513534642 -178.812777650832 , -208.244932498013 -351.750798354606 , -275.150447559603 -389.00440460588 , -114.472043627548 -426.258010857155 , 46.2063603045063 -243.032871940634 , 51.9822321916323 -215.251442575879 , 47.8193177829146 -187.470013211124 , 43.6564033741968 -167.643711025606 , 28.6967212083493 -164.402260947004 , 26.2373377534384 -161.160810868403 , 23.7779542985275 -122.253806790284 , -5.73806567573535 -116.222206428876 , -64.099604208625 -110.190606067467 , -122.461142741515 -107.086489109154 , -179.461139092014 -77.0358180613475 , -223.817293902961 -46.9851470135408 , -268.173448713908 -13.4920225328838 , -270.645451694809 0 , -270.645451694809 Z "
       id="path882"
       inkscape:connector-curvature="0"
       sodipodi:nodetypes="zzzzzzzzzzzzzzzzzzzzzzzzzzzzzzz" />
  </g>
</svg>
