<?xml version="1.0" encoding="UTF-8" standalone="no"?>
<!-- Created with Inkscape (http://www.inkscape.org/) -->

<svg
   xmlns:dc="http://purl.org/dc/elements/1.1/"
   xmlns:cc="http://creativecommons.org/ns#"
   xmlns:rdf="http://www.w3.org/1999/02/22-rdf-syntax-ns#"
   xmlns:svg="http://www.w3.org/2000/svg"
   xmlns="http://www.w3.org/2000/svg"
   xmlns:sodipodi="http://sodipodi.sourceforge.net/DTD/sodipodi-0.dtd"
   xmlns:inkscape="http://www.inkscape.org/namespaces/inkscape"
   width="744.09448819"
   height="1052.3622047"
   id="svg2"
   version="1.1"
   inkscape:version="0.91 r13725"
   sodipodi:docname="9_23.svg">
  <defs
     id="defs4" />
  <sodipodi:namedview
     id="base"
     pagecolor="#ffffff"
     bordercolor="#666666"
     borderopacity="1.0"
     inkscape:pageopacity="0.0"
     inkscape:pageshadow="2"
     inkscape:zoom="0.49773862"
     inkscape:cx="-427.35467"
     inkscape:cy="565.7454"
     inkscape:document-units="px"
     inkscape:current-layer="layer1"
     showgrid="false"
     inkscape:window-width="1600"
     inkscape:window-height="835"
     inkscape:window-x="0"
     inkscape:window-y="0"
     inkscape:window-maximized="1" />
  <metadata
     id="metadata7">
    <rdf:RDF>
      <cc:Work
         rdf:about="">
        <dc:format>image/svg+xml</dc:format>
        <dc:type
           rdf:resource="http://purl.org/dc/dcmitype/StillImage" />
        <dc:title />
      </cc:Work>
    </rdf:RDF>
  </metadata>
  <g
     inkscape:label="Layer 1"
     inkscape:groupmode="layer"
     id="layer1">
    <path
       style="fill:none;fill-rule:evenodd;stroke:#0000ff;stroke-width:4.55486679;stroke-linecap:butt;stroke-linejoin:miter;stroke-miterlimit:4;stroke-dasharray:none;stroke-opacity:1"
       d="M  0 , -1.08544664612577 C  11.5876636289372 , -1.08544664612577 50.7000597762186 , -0.388992947746004 93.6065030021913 , 21.9193048033587 136.512946228164 , 44.2276025544634 197.690759181585 , 98.849658715848 201.668094103247 , 192.653941832568 205.645429024909 , 286.458224949288 152.877309596238 , 341.093550373123 85.9045627473918 , 412.799803142365 18.9318158985458 , 484.506055911607 -5.43925432218936 , 508.816908610646 -57.8987361818019 , 558.168735575567 -110.358218041414 , 607.520562540488 -150.933307307268 , 644.334283984245 -209.964583425365 , 640.597317946435 -268.995859543462 , 636.860351908625 -310.296228028303 , 591.915640165984 -314.281950469686 , 537.677670229422 -318.267672911069 , 483.43970029286 -287.960187624611 , 441.309998064927 -231.601051348601 , 386.496112292026 -175.241915072591 , 331.682226519125 -140.853793440086 , 306.75942253553 -120.670198340547 , 260.463431475477 -100.486603241008 , 214.167440415424 -107.559563175962 , 174.56171313911 -120.367529428664 , 147.590841206671 -133.175495681366 , 120.619969274232 -181.746776946493 , 53.4417365972375 -273.525761770427 , 81.0526988952008 -365.304746594361 , 108.663661193164 -402.262844245858 , 216.424103523467 -373.272160170649 , 314.617288033376 -344.28147609544 , 412.810472543285 -283.870686262138 , 453.853963671972 -200.360853233056 , 536.58783272188 -116.851020203974 , 619.321701771788 -85.4882841725786 , 637.607849543628 -51.1271085334032 , 647.925877989147 -16.7659328942278 , 658.243906434666 16.7659328942278 , 658.243906434666 51.1271085334032 , 647.925877989147 85.4882841725786 , 637.607849543628 116.851020203974 , 619.321701771788 200.360853233056 , 536.58783272188 283.870686262138 , 453.853963671972 344.28147609544 , 412.810472543285 373.272160170649 , 314.617288033376 402.262844245858 , 216.424103523467 365.304746594361 , 108.663661193164 273.525761770427 , 81.0526988952008 181.746776946493 , 53.4417365972375 133.175495681366 , 120.619969274232 120.367529428664 , 147.590841206671 107.559563175962 , 174.56171313911 100.486603241008 , 214.167440415424 120.670198340547 , 260.463431475477 140.853793440086 , 306.75942253553 175.241915072591 , 331.682226519125 231.601051348601 , 386.496112292026 287.960187624611 , 441.309998064927 318.267672911069 , 483.43970029286 314.281950469686 , 537.677670229422 310.296228028303 , 591.915640165984 268.995859543462 , 636.860351908625 209.964583425365 , 640.597317946435 150.933307307268 , 644.334283984245 110.358218041414 , 607.520562540488 57.8987361818019 , 558.168735575567 5.43925432218937 , 508.816908610646 -18.9318158985458 , 484.506055911607 -85.9045627473918 , 412.799803142365 -152.877309596238 , 341.093550373123 -205.645429024909 , 286.458224949288 -201.668094103247 , 192.653941832568 -197.690759181585 , 98.849658715848 -136.512946228164 , 44.2276025544634 -93.6065030021913 , 21.9193048033587 -50.7000597762186 , -0.388992947746004 -11.5876636289372 , -1.08544664612577 0 , -1.08544664612577 Z "
       id="path4199"
       inkscape:connector-curvature="0"
       sodipodi:nodetypes="zzzzzzzzzzzzzzzzzzzzzzzzzzzz" />
  </g>
</svg>
