<?xml version="1.0" encoding="UTF-8" standalone="no"?>
<!-- Created with Inkscape (http://www.inkscape.org/) -->

<svg
   xmlns:dc="http://purl.org/dc/elements/1.1/"
   xmlns:cc="http://creativecommons.org/ns#"
   xmlns:rdf="http://www.w3.org/1999/02/22-rdf-syntax-ns#"
   xmlns:svg="http://www.w3.org/2000/svg"
   xmlns="http://www.w3.org/2000/svg"
   xmlns:sodipodi="http://sodipodi.sourceforge.net/DTD/sodipodi-0.dtd"
   xmlns:inkscape="http://www.inkscape.org/namespaces/inkscape"
   width="744.09448819"
   height="1052.3622047"
   id="svg2"
   version="1.1"
   inkscape:version="0.91 r13725"
   sodipodi:docname="9_24.svg">
  <defs
     id="defs4" />
  <sodipodi:namedview
     id="base"
     pagecolor="#ffffff"
     bordercolor="#666666"
     borderopacity="1.0"
     inkscape:pageopacity="0.0"
     inkscape:pageshadow="2"
     inkscape:zoom="0.57296035"
     inkscape:cx="-144.61051"
     inkscape:cy="857.56141"
     inkscape:document-units="px"
     inkscape:current-layer="layer1"
     showgrid="false"
     inkscape:window-width="1215"
     inkscape:window-height="776"
     inkscape:window-x="65"
     inkscape:window-y="24"
     inkscape:window-maximized="1" />
  <metadata
     id="metadata7">
    <rdf:RDF>
      <cc:Work
         rdf:about="">
        <dc:format>image/svg+xml</dc:format>
        <dc:type
           rdf:resource="http://purl.org/dc/dcmitype/StillImage" />
        <dc:title />
      </cc:Work>
    </rdf:RDF>
  </metadata>
  <g
     inkscape:label="Layer 1"
     inkscape:groupmode="layer"
     id="layer1">
    <path
       style="fill:none;stroke:#26ff00;stroke-width:7.42579889;stroke-linecap:butt;stroke-linejoin:miter;stroke-miterlimit:4;stroke-dasharray:none;stroke-opacity:1"
       d="M  0 , -284.092073445498 C  -13.1338335361074 , -284.092073445498 -94.6133777150714 , -283.940463586227 -147.751176378006 , -219.731502979572 -200.888975040941 , -155.522542372916 -176.156123447463 , -93.8222853168075 -157.843603505431 , -69.3282500860934 -139.531083563399 , -44.8342148553793 -113.852088007071 , -31.6689752415946 -87.1210064548227 , -26.7046556541311 -60.3899249025744 , -21.7403360666675 -21.0148046098366 , -21.1685480122356 75.3649267235473 , -70.8981398848806 171.744658056931 , -120.627731757526 234.881275707066 , -137.242452604673 303.42973087194 , -112.76277412095 371.978186036814 , -88.2830956372264 398.56405470323 , -37.4553320084349 408.126553769451 , -14.5453748521708 417.689052835671 , 8.3645823040934 435.193275754174 , 67.3082653096035 402.26724804324 , 127.099163176799 369.341220332306 , 186.890061043994 295.594629440521 , 219.09962389069 198.410155427382 , 184.243562926468 101.225681414242 , 149.387501962245 101.041222202266 , 79.1395964250127 103.16611998637 , 60.8921495460653 105.291017770474 , 42.6447026671178 115.257257270144 , 14.8870708038168 146.82833037239 , -0.213789276434701 178.399403474637 , -15.3146493566862 249.476278662068 , -16.0325451988286 285.479569142994 , 73.4058440294027 321.482859623921 , 162.844233257634 301.259273119057 , 267.972481399541 237.814650911499 , 340.587433848203 174.370028703941 , 413.202386296865 92.5808955147982 , 450.429344854518 42.304405188665 , 467.220378632368 -7.9720851374682 , 484.011412410218 -187.537040592215 , 529.547523407432 -275.159949092763 , 420.503457467212 -362.78285759331 , 311.459391526992 -277.810536316323 , 251.127013564061 -271.951711367097 , 246.966754724751 -266.092886417871 , 242.806495885442 -240.789052933186 , 225.218528057923 -196.192248253773 , 228.312006397117 -151.59544357436 , 231.405484736311 -126.278382474483 , 247.873472574999 -87.9719578640893 , 247.784235845575 -49.6655332536953 , 247.694999116151 -23.2753433033108 , 231.09698604618 -7.63785063896867 , 211.505934825675 7.99964202537343 , 191.91488360517 23.771821287384 , 156.368189249485 10.3356291737593 , 67.2463775777019 -3.10056293986541 , -21.8754340940811 -26.6407567109712 , -74.6763952063169 -88.4383709088273 , -108.591910274002 -150.235985106683 , -142.507425341687 -226.193050831926 , -130.837213572036 -280.997330300301 , -95.3241141818433 -335.801609768677 , -59.8110147916506 -361.469683069535 , -14.757261570727 -371.295845963363 , 3.99369160885285 -381.122008857192 , 22.7446447884327 -417.905922256643 , 96.6771083075324 -392.245169530484 , 184.34100470117 -366.584416804325 , 272.004901094809 -291.801679275485 , 313.202463551529 -219.449317700072 , 290.949211267835 -147.09695612466 , 268.695958984141 -141.39310485273 , 224.739884212964 -74.1478594065681 , 189.680491376205 -6.90261396040577 , 154.621098539446 26.2811878600449 , 160.606581816304 67.7764163029836 , 144.482851632016 109.271644745922 , 128.359121447728 146.586353746661 , 106.342175931212 176.152818081608 , 66.2693455674566 205.719282416555 , 26.1965152037012 218.087882386173 , -18.6216082629097 217.771485026538 , -60.8314541372852 217.455087666904 , -103.041300011661 205.300830290672 , -172.178715182531 143.062766912253 , -228.013758423703 80.8247035338338 , -283.848801664876 13.1338335361074 , -284.092073445498 0 , -284.092073445498 Z "
       id="path3050"
       inkscape:connector-curvature="0"
       sodipodi:nodetypes="zzzzzzzzzzzzzzzzzzzzzzzzzzzzzzz" />
  </g>
</svg>
