<?xml version="1.0" encoding="UTF-8" standalone="no"?>
<!-- Created with Inkscape (http://www.inkscape.org/) -->

<svg
   xmlns:dc="http://purl.org/dc/elements/1.1/"
   xmlns:cc="http://creativecommons.org/ns#"
   xmlns:rdf="http://www.w3.org/1999/02/22-rdf-syntax-ns#"
   xmlns:svg="http://www.w3.org/2000/svg"
   xmlns="http://www.w3.org/2000/svg"
   xmlns:sodipodi="http://sodipodi.sourceforge.net/DTD/sodipodi-0.dtd"
   xmlns:inkscape="http://www.inkscape.org/namespaces/inkscape"
   width="744.09448819"
   height="1052.3622047"
   id="svg2"
   version="1.1"
   inkscape:version="0.91 r13725"
   sodipodi:docname="9_24.svg">
  <defs
     id="defs4" />
  <sodipodi:namedview
     id="base"
     pagecolor="#ffffff"
     bordercolor="#666666"
     borderopacity="1.0"
     inkscape:pageopacity="0.0"
     inkscape:pageshadow="2"
     inkscape:zoom="0.57296035"
     inkscape:cx="-144.61051"
     inkscape:cy="857.56141"
     inkscape:document-units="px"
     inkscape:current-layer="layer1"
     showgrid="false"
     inkscape:window-width="1215"
     inkscape:window-height="776"
     inkscape:window-x="65"
     inkscape:window-y="24"
     inkscape:window-maximized="1" />
  <metadata
     id="metadata7">
    <rdf:RDF>
      <cc:Work
         rdf:about="">
        <dc:format>image/svg+xml</dc:format>
        <dc:type
           rdf:resource="http://purl.org/dc/dcmitype/StillImage" />
        <dc:title />
      </cc:Work>
    </rdf:RDF>
  </metadata>
  <g
     inkscape:label="Layer 1"
     inkscape:groupmode="layer"
     id="layer1">
    <path
       style="fill:none;stroke:#26ff00;stroke-width:7.42579889;stroke-linecap:butt;stroke-linejoin:miter;stroke-miterlimit:4;stroke-dasharray:none;stroke-opacity:1"
       d="M  0 , -284.42204538779 C  -12.389715839149 , -284.42204538779 -90.3453869651609 , -284.193942676879 -144.142154588654 , -220.460586913875 -197.938922212148 , -156.72723115087 -175.469486531478 , -93.8492618643862 -159.864474074268 , -69.2358254161912 -144.259461617058 , -44.6223889679961 -119.171624388995 , -25.4666690426339 -84.8635791870443 , -19.4341095719587 -50.5555339850938 , -13.4015501012834 -19.9256548763823 , -19.9247650060034 74.3920270613288 , -67.1769816176807 168.70970899904 , -114.429198229358 232.844977535787 , -135.294557909132 300.478150254879 , -112.743980877859 368.111322973972 , -90.1934038465863 397.014509414769 , -40.0641795366487 407.755641310117 , -16.110486831543 418.496773205466 , 7.84320587356263 438.918162819486 , 69.7710143641748 401.814388029567 , 130.999692914993 364.710613239647 , 192.228371465812 297.872927870059 , 209.167845799583 201.802067485526 , 176.843467485284 105.731207100993 , 144.519089170984 100.801165335229 , 81.533678225813 102.360689338526 , 61.4780990693034 103.920213341824 , 41.4225199127938 114.516195675342 , 15.8581042099246 142.747157962313 , 2.34943462758794 170.978120249285 , -11.1592349547487 244.839435586283 , -16.7932499943659 277.607486787703 , 84.7682341706272 310.375537989123 , 186.32971833562 304.422571549652 , 267.033792245618 241.825688257954 , 340.355231172193 179.228804966256 , 413.676670098768 91.5462157895617 , 449.466155039147 43.5861192030557 , 464.881501985638 -4.37397738345042 , 480.29684893213 -184.26580008099 , 528.007070509038 -276.868397371562 , 420.509183680975 -369.470994662133 , 313.011296852911 -278.484660380167 , 242.733926022147 -273.481914446209 , 238.86971591159 -268.479168512252 , 235.005505801033 -238.907160543189 , 212.365725900169 -193.981419241322 , 220.185922699207 -149.055677939455 , 228.006119498245 -139.485046529768 , 253.973114869869 -90.0710539638367 , 261.932419272961 -40.6570613979055 , 269.891723676054 -6.66866676894872 , 241.759621202604 7.80261766635817 , 211.869579107589 22.2739021016651 , 181.979537012574 20.8500926249367 , 153.511602917135 3.20799399143913 , 66.9750017548315 -14.4341046420584 , -19.5615994074724 -22.5421734005232 , -68.815643264395 -86.1034749734558 , -106.260774217185 -149.664776546388 , -143.705905169975 -225.443648191437 , -129.667779485128 -279.12331591236 , -95.2266238768136 -332.802983633283 , -60.7854682684997 -358.822084568078 , -17.2883834421176 -370.741386339162 , 5.4205934998394 -382.660688110247 , 28.1295704417964 -415.97886772498 , 98.3981801312181 -392.721501845135 , 181.192303745022 -369.464135965291 , 263.986427358825 -290.738381463799 , 314.004560296806 -213.519117308936 , 291.039111866924 -136.299853154073 , 268.073663437041 -154.621012331314 , 225.026068393095 -82.693247995743 , 183.868614936366 -10.7654836601721 , 142.711161479638 24.7301245414543 , 155.953079817401 69.6466303271343 , 140.333971867279 114.563136112814 , 124.714863917157 146.886695602079 , 100.904575368303 172.005313647669 , 64.2824881646764 197.12393169326 , 27.66040096105 210.068642403408 , -16.6199327724423 210.930735387089 , -58.4153948806626 211.792828370771 , -100.210856988883 204.938097319619 , -170.953362048397 142.986590729599 , -227.432775242113 81.0350841395782 , -283.91218843583 12.389715839149 , -284.42204538779 0 , -284.42204538779 Z "
       id="path3050"
       inkscape:connector-curvature="0"
       sodipodi:nodetypes="zzzzzzzzzzzzzzzzzzzzzzzzzzzzzzz" />
  </g>
</svg>
