<?xml version="1.0" encoding="UTF-8" standalone="no"?>
<!-- Created with Inkscape (http://www.inkscape.org/) -->

<svg
   xmlns:dc="http://purl.org/dc/elements/1.1/"
   xmlns:cc="http://creativecommons.org/ns#"
   xmlns:rdf="http://www.w3.org/1999/02/22-rdf-syntax-ns#"
   xmlns:svg="http://www.w3.org/2000/svg"
   xmlns="http://www.w3.org/2000/svg"
   xmlns:sodipodi="http://sodipodi.sourceforge.net/DTD/sodipodi-0.dtd"
   xmlns:inkscape="http://www.inkscape.org/namespaces/inkscape"
   width="210mm"
   height="297mm"
   viewBox="0 0 744.09448819 1052.3622047"
   id="svg2"
   version="1.1"
   inkscape:version="0.91 r13725"
   sodipodi:docname="9_25.svg">
  <defs
     id="defs4" />
  <sodipodi:namedview
     id="base"
     pagecolor="#ffffff"
     bordercolor="#666666"
     borderopacity="1.0"
     inkscape:pageopacity="0.0"
     inkscape:pageshadow="2"
     inkscape:zoom="0.69942084"
     inkscape:cx="32.149683"
     inkscape:cy="605.61098"
     inkscape:document-units="px"
     inkscape:current-layer="layer1"
     showgrid="false"
     inkscape:window-width="1600"
     inkscape:window-height="835"
     inkscape:window-x="0"
     inkscape:window-y="0"
     inkscape:window-maximized="1" />
  <metadata
     id="metadata7">
    <rdf:RDF>
      <cc:Work
         rdf:about="">
        <dc:format>image/svg+xml</dc:format>
        <dc:type
           rdf:resource="http://purl.org/dc/dcmitype/StillImage" />
        <dc:title></dc:title>
      </cc:Work>
    </rdf:RDF>
  </metadata>
  <g
     inkscape:label="Layer 1"
     inkscape:groupmode="layer"
     id="layer1">
    <path
       style="fill:none;fill-rule:evenodd;stroke:#ff0000;stroke-width:18.67160034;stroke-linecap:butt;stroke-linejoin:miter;stroke-miterlimit:4;stroke-dasharray:none;stroke-opacity:1"
       d="M  1.51378198655525 , -273.083982789763 C  101.461187226218 , -253.243128153173 172.48416109876 , -183.314422438714 215.534470043899 , -135.785410078464 258.584778989039 , -88.2563977182145 304.249255948898 , -31.7030522289595 322.044772999239 , 50.8684317524775 339.840290049579 , 133.439915733914 315.549086657677 , 204.915154086864 311.127705662955 , 217.926003967855 306.706324668233 , 230.936853848845 283.842797486329 , 297.699578917204 223.916299523878 , 360.246319107986 163.989801561428 , 422.793059298768 86.3005561023766 , 458.544056494023 0 , 458.544056494023 -86.3005561023766 , 458.544056494023 -163.989801561428 , 422.793059298768 -223.916299523878 , 360.246319107986 -283.842797486329 , 297.699578917204 -306.706324668233 , 230.936853848845 -311.127705662955 , 217.926003967855 -315.549086657677 , 204.915154086864 -339.840290049579 , 133.439915733914 -322.044772999239 , 50.8684317524775 -304.249255948898 , -31.7030522289595 -226.650828031409 , -92.2857745756062 -149.411667043804 , -67.1549620281516 -72.1725060561982 , -42.0241494806971 -80.3070498367741 , 0.921103054494051 -43.8256643621686 , 63.5111214589656 -7.34427888756311 , 126.101139863437 38.240871435162 , 131.988571985813 39.0102666341137 , 211.161609168298 39.7796618330654 , 290.334646350783 -11.8926477001434 , 307.684246265803 -59.9293633652165 , 368.84567823125 -107.96607903029 , 430.007110196698 -124.433012996216 , 495.91318644498 -99.915355180884 , 551.555297354469 -75.3976973655516 , 607.197408263958 -27.5132816184502 , 619.700250678174 0 , 619.700250678174 27.5132816184502 , 619.700250678174 75.3976973655516 , 607.197408263958 99.915355180884 , 551.555297354469 124.433012996216 , 495.91318644498 107.96607903029 , 430.007110196698 59.9293633652165 , 368.84567823125 11.8926477001434 , 307.684246265803 -39.7796618330654 , 290.334646350783 -39.0102666341137 , 211.161609168298 -38.240871435162 , 131.988571985813 7.34427888756311 , 126.101139863437 43.8256643621686 , 63.5111214589656 80.3070498367741 , 0.921103054494054 64.2253234005423 , -41.3267257161507 96.5144320944862 , -122.185780177294 128.80354078843 , -203.044834638437 177.052019458657 , -259.850466765887 247.954114041371 , -262.105718103386 318.856208624085 , -264.360969440885 380.235580355894 , -199.625404204041 355.788303149571 , -119.201124874967 331.341025943249 , -38.7768455458931 232.788113778113 , -17.0902942122529 221.396773858246 , -14.583008302976 210.00543393838 , -12.075722393699 191.585766743724 , -8.13928204349951 144.742586877248 , -6.20251576024817 97.8994070107729 , -4.26574947699682 64.1171487550415 , -20.2226300263542 0.0637543049006058 , -15.1455014759936 -63.9896401452403 , -10.068372925633 -81.1745116081888 , 13.2307577017375 -126.173608055769 , 12.9880728862617 -171.172704503349 , 12.7453880707859 -198.19561168935 , -8.20053186703574 -204.844785206228 , -13.461634391363 -211.493958723106 , -18.7227369156902 -281.349069041013 , -74.3333671521029 -244.791972112503 , -166.204988518328 -208.234875183993 , -258.076609884554 -98.433623253107 , -292.924837426352 1.51378198655525 , -273.083982789763 Z "
       id="path4201"
       inkscape:connector-curvature="0"
       sodipodi:nodetypes="zzzzzzzzzzzzzzzzzzzzzzzzzzszz" />
  </g>
</svg>
