<?xml version="1.0" encoding="UTF-8" standalone="no"?>
<!-- Created with Inkscape (http://www.inkscape.org/) -->

<svg
   xmlns:dc="http://purl.org/dc/elements/1.1/"
   xmlns:cc="http://creativecommons.org/ns#"
   xmlns:rdf="http://www.w3.org/1999/02/22-rdf-syntax-ns#"
   xmlns:svg="http://www.w3.org/2000/svg"
   xmlns="http://www.w3.org/2000/svg"
   xmlns:sodipodi="http://sodipodi.sourceforge.net/DTD/sodipodi-0.dtd"
   xmlns:inkscape="http://www.inkscape.org/namespaces/inkscape"
   width="210mm"
   height="297mm"
   viewBox="0 0 744.09448819 1052.3622047"
   id="svg2"
   version="1.1"
   inkscape:version="0.91 r13725"
   sodipodi:docname="9_25.svg">
  <defs
     id="defs4" />
  <sodipodi:namedview
     id="base"
     pagecolor="#ffffff"
     bordercolor="#666666"
     borderopacity="1.0"
     inkscape:pageopacity="0.0"
     inkscape:pageshadow="2"
     inkscape:zoom="0.69942084"
     inkscape:cx="32.149683"
     inkscape:cy="605.61098"
     inkscape:document-units="px"
     inkscape:current-layer="layer1"
     showgrid="false"
     inkscape:window-width="1600"
     inkscape:window-height="835"
     inkscape:window-x="0"
     inkscape:window-y="0"
     inkscape:window-maximized="1" />
  <metadata
     id="metadata7">
    <rdf:RDF>
      <cc:Work
         rdf:about="">
        <dc:format>image/svg+xml</dc:format>
        <dc:type
           rdf:resource="http://purl.org/dc/dcmitype/StillImage" />
        <dc:title></dc:title>
      </cc:Work>
    </rdf:RDF>
  </metadata>
  <g
     inkscape:label="Layer 1"
     inkscape:groupmode="layer"
     id="layer1">
    <path
       style="fill:none;fill-rule:evenodd;stroke:#ff0000;stroke-width:18.67160034;stroke-linecap:butt;stroke-linejoin:miter;stroke-miterlimit:4;stroke-dasharray:none;stroke-opacity:1"
       d="M  4.36783891421642 , -279.747247389124 C  106.782380257734 , -259.297947321362 181.506818489177 , -187.869743840662 222.149839546654 , -140.814430563493 262.792860604131 , -93.7591172863244 304.672840786883 , -34.4689487825879 322.345461249015 , 50.7575513464619 340.018081711148 , 135.984051475512 314.918117915307 , 208.480943796921 310.467628994807 , 221.337496801835 306.017140074306 , 234.194049806749 282.50702646047 , 301.53525172365 221.696362682242 , 364.421841502244 160.885698904014 , 427.308431280838 83.2418313707861 , 463.204922451156 0 , 463.204922451156 -83.2418313707861 , 463.204922451156 -160.885698904013 , 427.308431280838 -221.696362682242 , 364.421841502244 -282.50702646047 , 301.53525172365 -306.017140074306 , 234.194049806749 -310.467628994807 , 221.337496801835 -314.918117915307 , 208.480943796921 -340.018081711148 , 135.984051475512 -322.345461249015 , 50.7575513464619 -304.672840786883 , -34.4689487825879 -230.84718388964 , -92.1105801181271 -157.856785831935 , -72.749815783238 -84.8663877742308 , -53.3890514483489 -67.0910442014623 , 2.24801182215173 -35.6619840342662 , 62.0644727585026 -4.23292386707014 , 121.880933694854 29.081323266669 , 148.204803602574 26.6177028348661 , 213.017518107093 24.1540824030633 , 277.830232611612 -14.5217466380678 , 305.604145331573 -58.0653545177115 , 369.711911857341 -101.608962397355 , 433.819678383108 -122.020110147386 , 499.114157646889 -99.6945455316439 , 557.069166836959 -77.3689809159014 , 615.024176027028 -29.3721923604151 , 629.627223355304 0 , 629.627223355304 29.3721923604151 , 629.627223355304 77.3689809159014 , 615.024176027028 99.6945455316439 , 557.069166836959 122.020110147386 , 499.114157646889 101.608962397355 , 433.819678383108 58.0653545177115 , 369.711911857341 14.5217466380678 , 305.604145331573 -24.1540824030633 , 277.830232611612 -26.6177028348661 , 213.017518107093 -29.081323266669 , 148.204803602574 4.23292386707014 , 121.880933694854 35.6619840342662 , 62.0644727585026 67.0910442014623 , 2.24801182215174 66.3566874419281 , -50.0960447988023 99.261057430784 , -126.946519648728 132.16542741964 , -203.796994498654 181.797724642898 , -259.672420131388 251.169791770037 , -261.995473536776 320.541858897176 , -264.318526942164 381.368073803475 , -201.553837714116 356.872801604794 , -121.602725378067 332.377529406113 , -41.6516130420189 234.875924519072 , -19.4684232448595 220.531427798142 , -16.2300200983888 206.186931077212 , -12.9916169519181 186.638364065427 , -9.09551206650585 142.600794812783 , -7.0993126140825 98.5632255601392 , -5.10311316165915 57.9957165564969 , -13.0791905585966 -1.64717751577882 , -9.1005989103299 -61.2900715880545 , -5.12200726206325 -83.7650474275644 , 6.81804410924334 -124.458670161328 , 4.64627950553848 -165.152292895092 , 2.47451490183362 -189.00436442865 , -12.1531703900172 -196.852322469438 , -17.262139354225 -204.700280510227 , -22.3711083184328 -277.510800710624 , -70.3150111772811 -244.370951828815 , -166.980865315373 -211.231102947005 , -263.646719453465 -98.046702429301 , -300.196547456885 4.36783891421642 , -279.747247389124 Z "
       id="path4201"
       inkscape:connector-curvature="0"
       sodipodi:nodetypes="zzzzzzzzzzzzzzzzzzzzzzzzzzszz" />
  </g>
</svg>
