<?xml version="1.0" encoding="UTF-8" standalone="no"?>
<!-- Created with Inkscape (http://www.inkscape.org/) -->

<svg
   xmlns:dc="http://purl.org/dc/elements/1.1/"
   xmlns:cc="http://creativecommons.org/ns#"
   xmlns:rdf="http://www.w3.org/1999/02/22-rdf-syntax-ns#"
   xmlns:svg="http://www.w3.org/2000/svg"
   xmlns="http://www.w3.org/2000/svg"
   xmlns:sodipodi="http://sodipodi.sourceforge.net/DTD/sodipodi-0.dtd"
   xmlns:inkscape="http://www.inkscape.org/namespaces/inkscape"
   width="210mm"
   height="297mm"
   viewBox="0 0 744.09448819 1052.3622047"
   id="svg4582"
   version="1.1"
   inkscape:version="0.91 r13725"
   sodipodi:docname="9_26.svg">
  <defs
     id="defs4584" />
  <sodipodi:namedview
     id="base"
     pagecolor="#ffffff"
     bordercolor="#666666"
     borderopacity="1.0"
     inkscape:pageopacity="0.0"
     inkscape:pageshadow="2"
     inkscape:zoom="0.92717303"
     inkscape:cx="4.3359552"
     inkscape:cy="724.56128"
     inkscape:document-units="px"
     inkscape:current-layer="layer1"
     showgrid="false"
     inkscape:snap-global="false"
     inkscape:window-width="2560"
     inkscape:window-height="1315"
     inkscape:window-x="565"
     inkscape:window-y="283"
     inkscape:window-maximized="0" />
  <metadata
     id="metadata4587">
    <rdf:RDF>
      <cc:Work
         rdf:about="">
        <dc:format>image/svg+xml</dc:format>
        <dc:type
           rdf:resource="http://purl.org/dc/dcmitype/StillImage" />
        <dc:title></dc:title>
      </cc:Work>
    </rdf:RDF>
  </metadata>
  <g
     inkscape:label="Layer 1"
     inkscape:groupmode="layer"
     id="layer1">
    <path
       style="fill:none;fill-rule:evenodd;stroke:#ff0000;stroke-width:8.36844635;stroke-linecap:butt;stroke-linejoin:miter;stroke-miterlimit:4;stroke-dasharray:none;stroke-opacity:1"
       d="M  0 , 4.90630847507255 C  38.9884012472527 , 4.90630847507255 107.542415389312 , 19.3924614561629 153.243627002231 , 74.6850546968172 198.94483861515 , 129.977647937471 192.147249165031 , 149.316714371345 245.262181068791 , 239.849823656999 298.377112972551 , 330.382932942653 258.911349791314 , 263.11375535137 293.172246067301 , 321.510478416114 327.433142343289 , 379.907201480858 362.080681545426 , 419.446341411121 353.622373887054 , 482.37018688699 345.164066228681 , 545.29403236286 289.220591067028 , 592.879894098704 221.030623007609 , 582.843921842704 152.84065494819 , 572.807949586705 93.7275770511631 , 507.543584195415 41.3825830770317 , 377.697554604096 -10.9624108970996 , 247.851525012777 -7.03693412759629 , 213.629927607563 -67.1644754741916 , 147.664906543917 -127.292016820787 , 81.6998854802717 -196.189534230726 , 64.8257387658091 -251.487345354945 , 77.6810385883422 -306.785156479163 , 90.5363384108753 -356.914047174049 , 137.053657266788 -360.432320078946 , 206.773534148944 -363.950592983844 , 276.493411031099 -317.955451092947 , 329.875693214569 -268.551428928916 , 363.844136729146 -219.147406764886 , 397.812580243722 -192.818571169127 , 402.886396546057 -165.964560120904 , 430.528133765133 -139.110549072681 , 458.16987098421 -118.707214178288 , 497.172357206773 -137.353131097232 , 548.682107175885 -155.999048016176 , 600.191857144996 -245.413373976233 , 669.268744931152 -339.783718508812 , 603.586916395845 -434.154063041392 , 537.905087860538 -410.736215209824 , 430.850466888008 -391.652606312918 , 387.958580756589 -372.568997416012 , 345.066694625169 -329.927206045912 , 293.848732681875 -254.53212112679 , 272.339805156864 -179.137036207668 , 250.830877631853 -170.050004661828 , 261.911048900356 -92.2066530072295 , 243.736736916172 -14.3633013526309 , 225.562424931988 -20.5738129875116 , 224.260221730276 79.3372862304662 , 185.18122073933 179.248385448444 , 146.102219748385 224.739328179945 , 110.472600874877 299.953837038277 , 127.641313963375 375.168345896609 , 144.810027051874 427.39008677906 , 220.057136109689 398.354378785992 , 299.481020572019 369.318670792924 , 378.904905034348 319.714624985487 , 379.313616889748 236.604768782882 , 456.425057822235 153.494912580276 , 533.536498754721 110.897527027016 , 601.091082378022 43.7677998438852 , 639.087461712281 -23.3619273392452 , 677.08384104654 -81.4619286316382 , 674.30018069665 -124.391524498618 , 654.579406774719 -167.321120365598 , 634.858632852789 -217.71590899682 , 582.219616716905 -219.129986262943 , 501.313993894039 -220.544063529065 , 420.408371071174 -193.298685823865 , 401.784622531673 -182.317346591049 , 328.538007545598 -171.336007358233 , 255.291392559523 -178.127791788352 , 246.579526603968 -168.38238363143 , 180.932907130855 -158.636975474508 , 115.286287657743 -134.219066672477 , 71.5940237381286 -104.031819640703 , 44.6937982573957 -73.8445726089297 , 17.7935727766628 -38.9884012472527 , 4.90630847507255 0 , 4.90630847507255 Z "
       id="path5211"
       inkscape:connector-curvature="0"
       sodipodi:nodetypes="zzzzzzzzzzzzzzzzzzzzzzzzzzzz" />
  </g>
</svg>
