<?xml version="1.0" encoding="UTF-8" standalone="no"?>
<!-- Created with Inkscape (http://www.inkscape.org/) -->

<svg
   xmlns:dc="http://purl.org/dc/elements/1.1/"
   xmlns:cc="http://creativecommons.org/ns#"
   xmlns:rdf="http://www.w3.org/1999/02/22-rdf-syntax-ns#"
   xmlns:svg="http://www.w3.org/2000/svg"
   xmlns="http://www.w3.org/2000/svg"
   xmlns:sodipodi="http://sodipodi.sourceforge.net/DTD/sodipodi-0.dtd"
   xmlns:inkscape="http://www.inkscape.org/namespaces/inkscape"
   width="210mm"
   height="297mm"
   viewBox="0 0 744.09448819 1052.3622047"
   id="svg4582"
   version="1.1"
   inkscape:version="0.91 r13725"
   sodipodi:docname="9_26.svg">
  <defs
     id="defs4584" />
  <sodipodi:namedview
     id="base"
     pagecolor="#ffffff"
     bordercolor="#666666"
     borderopacity="1.0"
     inkscape:pageopacity="0.0"
     inkscape:pageshadow="2"
     inkscape:zoom="0.92717303"
     inkscape:cx="4.3359552"
     inkscape:cy="724.56128"
     inkscape:document-units="px"
     inkscape:current-layer="layer1"
     showgrid="false"
     inkscape:snap-global="false"
     inkscape:window-width="2560"
     inkscape:window-height="1315"
     inkscape:window-x="565"
     inkscape:window-y="283"
     inkscape:window-maximized="0" />
  <metadata
     id="metadata4587">
    <rdf:RDF>
      <cc:Work
         rdf:about="">
        <dc:format>image/svg+xml</dc:format>
        <dc:type
           rdf:resource="http://purl.org/dc/dcmitype/StillImage" />
        <dc:title></dc:title>
      </cc:Work>
    </rdf:RDF>
  </metadata>
  <g
     inkscape:label="Layer 1"
     inkscape:groupmode="layer"
     id="layer1">
    <path
       style="fill:none;fill-rule:evenodd;stroke:#ff0000;stroke-width:8.36844635;stroke-linecap:butt;stroke-linejoin:miter;stroke-miterlimit:4;stroke-dasharray:none;stroke-opacity:1"
       d="M  0 , 5.01182600759804 C  39.0373353645377 , 5.01182600759804 107.323514750651 , 19.5384642013014 155.282129684089 , 73.8304485528368 203.240744617527 , 128.122432904372 192.309923463299 , 149.084444065375 245.200966592844 , 240.164793375265 298.092009722389 , 331.245142685154 258.513424345678 , 263.066474455833 293.047965261409 , 322.558026200094 327.58250617714 , 382.049577944354 363.148013446053 , 419.210200505937 354.119666980164 , 482.017382713927 345.091320514274 , 544.824564921917 289.110119514507 , 593.005727468347 220.913309254114 , 583.235433003403 152.716498993721 , 573.465138538459 94.3270809128185 , 507.282143567454 40.4147633614397 , 377.654495971964 -13.4975541899391 , 248.026848376473 -6.44438134089823 , 213.382512579546 -67.6837838745661 , 147.967347616195 -128.923186408234 , 82.5521826528432 -196.116477359981 , 64.8477632507259 -251.572295317455 , 77.2932472625259 -307.02811327493 , 89.7387312743258 -356.862343029512 , 137.069355633978 -360.784115130119 , 206.801449629675 -364.705887230725 , 276.533543625372 -317.900088921553 , 329.653012516038 -268.886791093205 , 365.317148208958 -219.873493264856 , 400.981283901879 -193.438886575749 , 402.460850805545 -164.839650555146 , 429.22653414398 -136.240414534542 , 455.992217482415 -118.169180205335 , 497.084503829186 -138.166837892033 , 547.774341130974 -158.16449557873 , 598.464178432762 -245.761317098843 , 669.29203087693 -339.79835588922 , 603.511399246563 -433.835394679598 , 537.730767616195 -410.475195040911 , 430.813507018179 -391.798626676497 , 387.951506517255 -373.122058312084 , 345.08950601633 -329.857720324416 , 294.933569952895 -254.472970937315 , 270.295015781474 -179.088221550214 , 245.656461610052 -170.368509171784 , 261.876123414468 -91.6171940415247 , 246.006055228893 -12.865878911265 , 230.135987043318 -21.1547025317808 , 223.425152667521 80.1094289485981 , 186.581413876686 181.373560428977 , 149.73767508585 224.59756073708 , 109.771577265975 299.849044974486 , 127.033572830082 375.100529211892 , 144.295568394188 426.93504820655 , 219.392717128676 400.000267790955 , 301.245726798399 373.06548737536 , 383.098736468123 319.360584376335 , 378.35699345921 235.310688204574 , 454.613471182544 151.260792032813 , 530.869948905877 111.105353460799 , 601.366834082803 43.874936799938 , 639.276526677094 -23.355479860923 , 677.186219271386 -81.8354746097614 , 674.722272341268 -124.146745447867 , 654.792974048791 -166.458016285973 , 634.863675756313 -216.31068666175 , 582.396387682647 -222.0637861985 , 500.043912476856 -227.816885735251 , 417.691437271066 -192.229822634302 , 402.264818814117 -179.05141054707 , 329.288281523841 -165.872998459838 , 256.311744233566 -178.980191354111 , 246.458022481083 -167.943924238955 , 181.617870114255 -156.907657123799 , 116.777717747426 -134.352338102741 , 71.5297705796962 -104.656639321024 , 44.5695883820405 -74.9609405393077 , 17.6094061843849 -39.0373353645377 , 5.01182600759804 0 , 5.01182600759804 Z "
       id="path5211"
       inkscape:connector-curvature="0"
       sodipodi:nodetypes="zzzzzzzzzzzzzzzzzzzzzzzzzzzz" />
  </g>
</svg>
