<?xml version="1.0" encoding="UTF-8" standalone="no"?>
<!-- Created with Inkscape (http://www.inkscape.org/) -->

<svg
   xmlns:dc="http://purl.org/dc/elements/1.1/"
   xmlns:cc="http://creativecommons.org/ns#"
   xmlns:rdf="http://www.w3.org/1999/02/22-rdf-syntax-ns#"
   xmlns:svg="http://www.w3.org/2000/svg"
   xmlns="http://www.w3.org/2000/svg"
   xmlns:sodipodi="http://sodipodi.sourceforge.net/DTD/sodipodi-0.dtd"
   xmlns:inkscape="http://www.inkscape.org/namespaces/inkscape"
   width="210mm"
   height="297mm"
   viewBox="0 0 744.09448819 1052.3622047"
   id="svg2"
   version="1.1"
   inkscape:version="0.91 r13725"
   sodipodi:docname="9_27.svg">
  <defs
     id="defs4" />
  <sodipodi:namedview
     id="base"
     pagecolor="#ffffff"
     bordercolor="#666666"
     borderopacity="1.0"
     inkscape:pageopacity="0.0"
     inkscape:pageshadow="2"
     inkscape:zoom="0.98994949"
     inkscape:cx="338.195"
     inkscape:cy="859.93896"
     inkscape:document-units="px"
     inkscape:current-layer="layer1"
     showgrid="false"
     inkscape:window-width="1600"
     inkscape:window-height="835"
     inkscape:window-x="0"
     inkscape:window-y="0"
     inkscape:window-maximized="1" />
  <metadata
     id="metadata7">
    <rdf:RDF>
      <cc:Work
         rdf:about="">
        <dc:format>image/svg+xml</dc:format>
        <dc:type
           rdf:resource="http://purl.org/dc/dcmitype/StillImage" />
        <dc:title></dc:title>
      </cc:Work>
    </rdf:RDF>
  </metadata>
  <g
     inkscape:label="Layer 1"
     inkscape:groupmode="layer"
     id="layer1">
    <path
       style="fill:none;fill-rule:evenodd;stroke:#000000;stroke-width:3.41228747px;stroke-linecap:butt;stroke-linejoin:miter;stroke-opacity:1"
       d="M  308.713572728922 , -136.721960615603 C  361.591838878543 , -125.712623157383 398.710461299774 , -92.9552435345164 417.637185470592 , -51.1033723244026 436.56390964141 , -9.25150111428886 443.734258228104 , 51.2210787906453 390.309074684311 , 141.352049023845 336.883891140519 , 231.483019257046 257.631671593435 , 283.26823085622 177.239675098521 , 315.786535079051 96.8476786036076 , 348.304839301882 29.8311698703808 , 360.808634020097 -25.2034623108959 , 365.243608758895 -80.2380944921726 , 369.678583497694 -135.836863728556 , 365.528152050064 -182.825842531825 , 354.156259500954 -229.814821335093 , 342.784366951845 -298.744678041777 , 316.244484169116 -341.337171319364 , 255.290213566698 -383.929664596951 , 194.335942964279 -384.126295095496 , 121.135741956361 -337.041720974638 , 66.341623743708 -289.95714685378 , 11.5475055310553 -245.379664519127 , 12.5579183244601 -172.929901567278 , -16.7324095195927 -100.480138615429 , -46.0227373636456 -75.5594177468068 , -79.5712457923914 0 , -79.5712457923914 75.5594177468068 , -79.5712457923914 100.480138615429 , -46.0227373636456 172.929901567278 , -16.7324095195927 245.379664519127 , 12.5579183244601 273.251104253955 , 5.9320636938642 347.154365713531 , 24.8637946515459 421.057627173107 , 43.7955256092275 469.141653328108 , 57.2529743784835 502.854754807713 , 101.205840376497 536.567856287318 , 145.15870637451 528.278784097792 , 188.152643347126 526.583166342425 , 196.39395240308 524.887548587057 , 204.635261459033 508.250177223058 , 283.151815019298 416.016914080404 , 282.680717390601 323.78365093775 , 282.209619761903 280.592254158734 , 183.249408193262 275.330492160254 , 171.049343152903 270.068730161775 , 158.849278112543 261.042733418339 , 136.549405283212 253.802183788481 , 89.4971906860913 246.561634158624 , 42.4449760889704 253.028817460806 , 2.01389618336126 242.156982214138 , -58.3543484769026 231.285146967471 , -118.722593137166 199.992841155905 , -185.466849139806 123.631219109224 , -226.421664656363 47.2695970625435 , -267.37648017292 -47.2695970625435 , -267.37648017292 -123.631219109224 , -226.421664656363 -199.992841155905 , -185.466849139806 -228.240422552814 , -123.128624347954 -239.805476811326 , -62.4644463258998 -251.370531069837 , -1.80026830384504 -240.868331602671 , 30.3172761282591 -258.092867220957 , 78.4991442917845 -275.317402839243 , 126.68101245531 -309.413749652727 , 144.432071028537 -317.849084071491 , 148.598044409016 -326.284418490255 , 152.764017789494 -425.811631171403 , 200.583941188495 -483.523403140357 , 92.0036515650363 -541.235175109311 , -16.5766380584223 -446.046104742368 , -122.068105593091 -357.015955366101 , -142.975107771509 -267.985805989834 , -163.882109949926 -201.437056143557 , -127.515940445165 -155.516557462605 , -95.0745579304894 -109.596058781654 , -62.6331754158136 -87.9846014772509 , -37.7334917890212 -58.5196331065278 , -23.4292056075743 -29.0546647358048 , -9.12491942612735 -5.57039203021027 , -9.12129906696789 0 , -9.12129906696789 5.57039203021027 , -9.12129906696789 29.0546647358048 , -9.12491942612735 58.5196331065278 , -23.4292056075743 87.9846014772509 , -37.7334917890212 109.596058781654 , -62.6331754158136 155.516557462605 , -95.0745579304894 201.437056143557 , -127.515940445165 255.835306579301 , -147.731298073822 308.713572728922 , -136.721960615603 Z "
       id="path4217"
       inkscape:connector-curvature="0"
       sodipodi:nodetypes="zzzzzzzzzzzzzzzzzzzzzzzzzzzzzzz" />
  </g>
</svg>
