<?xml version="1.0" encoding="UTF-8" standalone="no"?>
<!-- Created with Inkscape (http://www.inkscape.org/) -->

<svg
   xmlns:dc="http://purl.org/dc/elements/1.1/"
   xmlns:cc="http://creativecommons.org/ns#"
   xmlns:rdf="http://www.w3.org/1999/02/22-rdf-syntax-ns#"
   xmlns:svg="http://www.w3.org/2000/svg"
   xmlns="http://www.w3.org/2000/svg"
   xmlns:sodipodi="http://sodipodi.sourceforge.net/DTD/sodipodi-0.dtd"
   xmlns:inkscape="http://www.inkscape.org/namespaces/inkscape"
   width="210mm"
   height="297mm"
   viewBox="0 0 744.09448819 1052.3622047"
   id="svg2"
   version="1.1"
   inkscape:version="0.91 r13725"
   sodipodi:docname="9_27.svg">
  <defs
     id="defs4" />
  <sodipodi:namedview
     id="base"
     pagecolor="#ffffff"
     bordercolor="#666666"
     borderopacity="1.0"
     inkscape:pageopacity="0.0"
     inkscape:pageshadow="2"
     inkscape:zoom="0.98994949"
     inkscape:cx="338.195"
     inkscape:cy="859.93896"
     inkscape:document-units="px"
     inkscape:current-layer="layer1"
     showgrid="false"
     inkscape:window-width="1600"
     inkscape:window-height="835"
     inkscape:window-x="0"
     inkscape:window-y="0"
     inkscape:window-maximized="1" />
  <metadata
     id="metadata7">
    <rdf:RDF>
      <cc:Work
         rdf:about="">
        <dc:format>image/svg+xml</dc:format>
        <dc:type
           rdf:resource="http://purl.org/dc/dcmitype/StillImage" />
        <dc:title></dc:title>
      </cc:Work>
    </rdf:RDF>
  </metadata>
  <g
     inkscape:label="Layer 1"
     inkscape:groupmode="layer"
     id="layer1">
    <path
       style="fill:none;fill-rule:evenodd;stroke:#000000;stroke-width:3.41228747px;stroke-linecap:butt;stroke-linejoin:miter;stroke-opacity:1"
       d="M  308.784250359716 , -140.752174598931 C  357.968037621781 , -130.907330526971 390.799854765952 , -100.690837032955 409.070215813311 , -63.5080338105259 427.34057686067 , -26.3252305880964 436.259008450985 , 33.4535470381186 384.192802891873 , 126.327177900098 332.126597332762 , 219.200808762078 252.837242911986 , 267.656222242496 175.719595389447 , 299.162629010357 98.6019478669076 , 330.669035778218 29.2502471699133 , 344.779601136548 -24.523458488683 , 350.557728594994 -78.2971641472794 , 356.335856053439 -133.56466586412 , 357.517323536462 -190.260238630216 , 346.24775005265 -246.955811396312 , 334.978176568838 -322.72420859852 , 307.608015329929 -361.412220492091 , 245.219955829303 -400.100232385661 , 182.831896328678 -388.686563398394 , 100.44963127848 -330.730244405211 , 53.7403005564051 -272.773925412028 , 7.03096983433029 -242.810598634591 , 29.0950094786054 -173.208463893621 , 8.71616843082975 -103.60632915265 , -11.6626726169459 -92.204618777954 , -51.0082160907634 0 , -51.0082160907634 92.204618777954 , -51.0082160907634 103.60632915265 , -11.6626726169459 173.208463893621 , 8.71616843082975 242.810598634591 , 29.0950094786054 268.39096721428 , 13.5317406903537 342.578283433713 , 21.4084555325352 416.765599653146 , 29.2851703747168 465.023410240822 , 32.089243889471 504.76800315783 , 76.8758539623611 544.512596074837 , 121.662464035251 534.675481933514 , 171.635770388357 533.448084706115 , 177.839612551414 532.220687478716 , 184.043454714471 515.856445274765 , 266.130126073066 420.416765400629 , 269.365198813465 324.977085526492 , 272.600271553863 279.656148941081 , 175.153271387154 275.037403607051 , 165.177844536486 270.418658273021 , 155.202417685817 260.6257327238 , 133.106878839602 252.955091704117 , 90.4923614614297 245.284450684434 , 47.8778440832573 253.096703586963 , 10.9320691384114 239.487176286948 , -51.5609134956837 225.877648986933 , -114.053896129779 196.254968408602 , -177.165487043993 120.657668898958 , -213.882452358415 45.0603693893143 , -250.599417672837 -45.0603693893143 , -250.599417672837 -120.657668898958 , -213.882452358415 -196.254968408602 , -177.165487043993 -228.471196878276 , -115.481245768587 -240.638293007068 , -52.5305071242019 -252.80538913586 , 10.4202315201836 -234.503685024195 , 36.2467843577438 -255.370698091347 , 84.3051307518169 -276.237711158499 , 132.36347714589 -317.87151749615 , 144.922709806926 -325.581174816394 , 147.216671992749 -333.290832136638 , 149.510634178572 -448.245276966907 , 183.525496757566 -485.249244775651 , 62.2839228334739 -522.253212584394 , -58.9576510906184 -412.70786710219 , -138.582528733339 -338.014889211632 , -149.670270886006 -263.321911321074 , -160.758013038674 -203.712296867024 , -131.105779000702 -156.707142713271 , -83.3128045250295 -109.701988559518 , -35.5198300493572 -107.288980712247 , -7.68723266666755 -73.7472180475687 , 19.8427984760272 -40.2054553828904 , 47.372829618722 -6.54062897464904 , 47.4221434332769 0 , 47.4221434332769 6.54062897464904 , 47.4221434332769 40.2054553828904 , 47.372829618722 73.7472180475687 , 19.8427984760272 107.288980712247 , -7.68723266666755 109.701988559518 , -35.5198300493572 156.707142713271 , -83.3128045250295 203.712296867024 , -131.105779000702 259.600463097652 , -150.597018670891 308.784250359716 , -140.752174598931 Z "
       id="path4217"
       inkscape:connector-curvature="0"
       sodipodi:nodetypes="zzzzzzzzzzzzzzzzzzzzzzzzzzzzzzz" />
  </g>
</svg>
