<?xml version="1.0" encoding="UTF-8" standalone="no"?>
<!-- Created with Inkscape (http://www.inkscape.org/) -->

<svg
   xmlns:dc="http://purl.org/dc/elements/1.1/"
   xmlns:cc="http://creativecommons.org/ns#"
   xmlns:rdf="http://www.w3.org/1999/02/22-rdf-syntax-ns#"
   xmlns:svg="http://www.w3.org/2000/svg"
   xmlns="http://www.w3.org/2000/svg"
   xmlns:sodipodi="http://sodipodi.sourceforge.net/DTD/sodipodi-0.dtd"
   xmlns:inkscape="http://www.inkscape.org/namespaces/inkscape"
   width="210mm"
   height="297mm"
   viewBox="0 0 744.09448819 1052.3622047"
   id="svg2"
   version="1.1"
   inkscape:version="0.91 r13725"
   sodipodi:docname="9_28.svg">
  <defs
     id="defs4" />
  <sodipodi:namedview
     id="base"
     pagecolor="#ffffff"
     bordercolor="#666666"
     borderopacity="1.0"
     inkscape:pageopacity="0.0"
     inkscape:pageshadow="2"
     inkscape:zoom="0.79912109"
     inkscape:cx="231.0919"
     inkscape:cy="1120.3022"
     inkscape:document-units="px"
     inkscape:current-layer="layer1"
     showgrid="false"
     inkscape:window-width="2560"
     inkscape:window-height="1315"
     inkscape:window-x="1556"
     inkscape:window-y="93"
     inkscape:window-maximized="0" />
  <metadata
     id="metadata7">
    <rdf:RDF>
      <cc:Work
         rdf:about="">
        <dc:format>image/svg+xml</dc:format>
        <dc:type
           rdf:resource="http://purl.org/dc/dcmitype/StillImage" />
        <dc:title />
      </cc:Work>
    </rdf:RDF>
  </metadata>
  <g
     inkscape:label="Layer 1"
     inkscape:groupmode="layer"
     id="layer1">
    <path
       style="fill:none;fill-rule:evenodd;stroke:#000000;stroke-width:2.94597316px;stroke-linecap:butt;stroke-linejoin:miter;stroke-opacity:1"
       d="M  207.070359731287 , -31.9177972148407 C  272.617875434517 , -60.9161405682701 347.195934747667 , -97.4088158346013 421.569530580685 , -53.6408965939472 495.943126413703 , -9.87297735329309 509.718350239928 , 93.0457567782248 439.689249443194 , 152.963501872639 369.66014864646 , 212.881246967054 264.206891403835 , 189.990676059746 189.496934746458 , 123.20829955519 114.786978089082 , 56.425923050635 107.326726846119 , 13.9171955188173 56.827112663592 , -56.1187734874632 6.32749848106526 , -126.154742493744 -32.6330845050634 , -162.638971043103 -89.1081994213804 , -176.604270954782 -145.583314337697 , -190.569570866461 -196.973248877809 , -175.655936692425 -233.78500146865 , -146.373182291551 -270.596754059491 , -117.090427890677 -299.844576826144 , -71.7435254441449 -308.698312490733 , 54.5679786289507 -317.552048155321 , 180.879482702046 -279.149704810253 , 252.419063005299 -248.370053857846 , 289.657309342229 -217.590402905439 , 326.89555567916 -172.997783342739 , 356.250426063412 -118.970054286719 , 360.264507335833 -64.9423252306982 , 364.278588608253 32.8922944083812 , 335.630944640033 47.5701787338409 , 211.417603110434 62.2480630593006 , 87.2042615808351 -141.522844028057 , -2.9194538614112 -207.070359731287 , -31.9177972148407 -272.617875434517 , -60.9161405682701 -347.195934747667 , -97.4088158346013 -421.569530580685 , -53.6408965939472 -495.943126413703 , -9.87297735329309 -509.718350239928 , 93.0457567782248 -439.689249443194 , 152.963501872639 -369.66014864646 , 212.881246967054 -264.206891403835 , 189.990676059746 -189.496934746458 , 123.20829955519 -114.786978089082 , 56.425923050635 -107.326726846119 , 13.9171955188173 -56.827112663592 , -56.1187734874632 -6.32749848106526 , -126.154742493744 32.6330845050634 , -162.638971043103 89.1081994213804 , -176.604270954782 145.583314337697 , -190.569570866461 196.973248877809 , -175.655936692425 233.78500146865 , -146.373182291551 270.596754059491 , -117.090427890677 299.844576826144 , -71.7435254441449 308.698312490733 , 54.5679786289507 317.552048155321 , 180.879482702046 279.149704810253 , 252.419063005299 248.370053857846 , 289.657309342229 217.590402905439 , 326.89555567916 172.997783342739 , 356.250426063412 118.970054286719 , 360.264507335833 64.9423252306982 , 364.278588608253 -32.8922944083812 , 335.630944640033 -47.5701787338409 , 211.417603110434 -62.2480630593006 , 87.2042615808351 141.522844028057 , -2.9194538614112 207.070359731287 , -31.9177972148407 Z "
       id="path4201"
       inkscape:connector-curvature="0"
       sodipodi:nodetypes="zzzzzzzzzzzzzzzzzzzzzzz" />
  </g>
</svg>
