<?xml version="1.0" encoding="UTF-8" standalone="no"?>
<!-- Created with Inkscape (http://www.inkscape.org/) -->

<svg
   xmlns:dc="http://purl.org/dc/elements/1.1/"
   xmlns:cc="http://creativecommons.org/ns#"
   xmlns:rdf="http://www.w3.org/1999/02/22-rdf-syntax-ns#"
   xmlns:svg="http://www.w3.org/2000/svg"
   xmlns="http://www.w3.org/2000/svg"
   xmlns:sodipodi="http://sodipodi.sourceforge.net/DTD/sodipodi-0.dtd"
   xmlns:inkscape="http://www.inkscape.org/namespaces/inkscape"
   width="210mm"
   height="297mm"
   viewBox="0 0 744.09448819 1052.3622047"
   id="svg2"
   version="1.1"
   inkscape:version="0.91 r13725"
   sodipodi:docname="9_28.svg">
  <defs
     id="defs4" />
  <sodipodi:namedview
     id="base"
     pagecolor="#ffffff"
     bordercolor="#666666"
     borderopacity="1.0"
     inkscape:pageopacity="0.0"
     inkscape:pageshadow="2"
     inkscape:zoom="0.79912109"
     inkscape:cx="231.0919"
     inkscape:cy="1120.3022"
     inkscape:document-units="px"
     inkscape:current-layer="layer1"
     showgrid="false"
     inkscape:window-width="2560"
     inkscape:window-height="1315"
     inkscape:window-x="1556"
     inkscape:window-y="93"
     inkscape:window-maximized="0" />
  <metadata
     id="metadata7">
    <rdf:RDF>
      <cc:Work
         rdf:about="">
        <dc:format>image/svg+xml</dc:format>
        <dc:type
           rdf:resource="http://purl.org/dc/dcmitype/StillImage" />
        <dc:title />
      </cc:Work>
    </rdf:RDF>
  </metadata>
  <g
     inkscape:label="Layer 1"
     inkscape:groupmode="layer"
     id="layer1">
    <path
       style="fill:none;fill-rule:evenodd;stroke:#000000;stroke-width:2.94597316px;stroke-linecap:butt;stroke-linejoin:miter;stroke-opacity:1"
       d="M  203.600840128885 , -39.6730573736448 C  266.069952535027 , -69.4067647247154 348.210815512016 , -106.775798833052 424.12531451416 , -62.5754898490893 500.039813516305 , -18.3751808651269 511.498589253508 , 82.4662728967339 444.580705588878 , 139.676120466443 377.662821924247 , 196.885968036152 278.103249426955 , 175.305082868818 204.88076994028 , 117.141984324972 131.658290453604 , 58.9788857811259 101.110584617132 , 3.9922420822146 55.1826904531908 , -51.3973061793681 9.25479628925004 , -106.786854440951 -32.2892117160781 , -144.300943313193 -89.395109538893 , -158.458923234701 -146.501007361708 , -172.616903156209 -191.477357723781 , -158.575491572945 -220.897580377059 , -141.703729137861 -250.317803030337 , -124.831966702776 -302.45664209273 , -84.2906049037909 -322.098685010994 , 40.6200482938537 -341.740727929258 , 165.530701491498 -300.390460422764 , 249.200939905546 -264.176373995805 , 293.05261492274 -227.962287568846 , 336.904289939934 -179.002163921008 , 365.107801299635 -125.680846406426 , 369.667925122611 -72.3595288918434 , 374.228048945587 35.3107606580347 , 350.250276857934 45.5941960652623 , 223.3201984999 55.8776314724899 , 96.3901201418666 -141.131727722743 , -9.93935002257414 -203.600840128885 , -39.6730573736448 -266.069952535027 , -69.4067647247154 -348.210815512016 , -106.775798833052 -424.12531451416 , -62.5754898490893 -500.039813516305 , -18.3751808651269 -511.498589253508 , 82.4662728967339 -444.580705588878 , 139.676120466443 -377.662821924247 , 196.885968036152 -278.103249426955 , 175.305082868818 -204.88076994028 , 117.141984324972 -131.658290453604 , 58.9788857811259 -101.110584617132 , 3.9922420822146 -55.1826904531908 , -51.3973061793681 -9.25479628925004 , -106.786854440951 32.2892117160781 , -144.300943313193 89.395109538893 , -158.458923234701 146.501007361708 , -172.616903156209 191.477357723781 , -158.575491572945 220.897580377059 , -141.703729137861 250.317803030337 , -124.831966702776 302.45664209273 , -84.2906049037909 322.098685010994 , 40.6200482938537 341.740727929258 , 165.530701491498 300.390460422764 , 249.200939905546 264.176373995805 , 293.05261492274 227.962287568846 , 336.904289939934 179.002163921008 , 365.107801299635 125.680846406426 , 369.667925122611 72.3595288918434 , 374.228048945587 -35.3107606580347 , 350.250276857934 -45.5941960652623 , 223.3201984999 -55.8776314724899 , 96.3901201418666 141.131727722743 , -9.93935002257414 203.600840128885 , -39.6730573736448 Z "
       id="path4201"
       inkscape:connector-curvature="0"
       sodipodi:nodetypes="zzzzzzzzzzzzzzzzzzzzzzz" />
  </g>
</svg>
