<?xml version="1.0" encoding="UTF-8" standalone="no"?>
<!-- Created with Inkscape (http://www.inkscape.org/) -->

<svg
   xmlns:dc="http://purl.org/dc/elements/1.1/"
   xmlns:cc="http://creativecommons.org/ns#"
   xmlns:rdf="http://www.w3.org/1999/02/22-rdf-syntax-ns#"
   xmlns:svg="http://www.w3.org/2000/svg"
   xmlns="http://www.w3.org/2000/svg"
   xmlns:sodipodi="http://sodipodi.sourceforge.net/DTD/sodipodi-0.dtd"
   xmlns:inkscape="http://www.inkscape.org/namespaces/inkscape"
   width="210mm"
   height="297mm"
   viewBox="0 0 210 297"
   version="1.1"
   id="svg4820"
   inkscape:version="0.92.0 r"
   sodipodi:docname="9_29.svg">
  <defs
     id="defs4814" />
  <sodipodi:namedview
     id="base"
     pagecolor="#ffffff"
     bordercolor="#666666"
     borderopacity="1.0"
     inkscape:pageopacity="0.0"
     inkscape:pageshadow="2"
     inkscape:zoom="0.79296875"
     inkscape:cx="364.05911"
     inkscape:cy="233.33601"
     inkscape:document-units="mm"
     inkscape:current-layer="layer1"
     showgrid="false"
     inkscape:window-width="2560"
     inkscape:window-height="1315"
     inkscape:window-x="160"
     inkscape:window-y="41"
     inkscape:window-maximized="0" />
  <metadata
     id="metadata4817">
    <rdf:RDF>
      <cc:Work
         rdf:about="">
        <dc:format>image/svg+xml</dc:format>
        <dc:type
           rdf:resource="http://purl.org/dc/dcmitype/StillImage" />
        <dc:title></dc:title>
      </cc:Work>
    </rdf:RDF>
  </metadata>
  <g
     inkscape:label="Layer 1"
     inkscape:groupmode="layer"
     id="layer1">
    <path
       style="fill:none;fill-rule:evenodd;stroke:#000000;stroke-width:2.66347933px;stroke-linecap:butt;stroke-linejoin:miter;stroke-opacity:1"
       d="M  0 , -321.328938977751 C  142.837011420204 , -321.328938977751 244.184100774194 , -256.265585121113 286.223111793321 , -175.183350431508 328.262122812449 , -94.1011157419021 294.037874030061 , -24.6081469491484 270.818481050287 , 9.4854094805359 247.599088070513 , 43.5789659102202 221.580026395887 , 66.2421430372759 132.981110539454 , 109.034539639083 44.3821946830215 , 151.82693624089 -1.41680336595928 , 149.988598640329 -25.1207923935435 , 146.88816241372 -48.8247814211276 , 143.787726187111 -76.1733550589086 , 135.798036071321 -105.779698220508 , 114.17145184546 -135.386041382107 , 92.5448676196 -157.02126627767 , 62.3533058277137 -188.992678575876 , 2.88224895868049 -220.964090874082 , -56.5888079103527 -238.491299624788 , -99.656472794984 -221.094383471619 , -145.416947661905 -203.69746731845 , -191.177422528825 -154.967949890559 , -215.953925341642 -106.627137444781 , -198.479135798651 -58.286324999002 , -181.00434625566 -38.1657806046865 , -134.211851549435 -20.2266213034325 , -72.3720417853237 -2.28746200217854 , -10.5322320212129 2.28746200217854 , 10.5322320212129 20.2266213034325 , 72.3720417853237 38.1657806046865 , 134.211851549435 58.2863249990021 , 181.00434625566 106.627137444781 , 198.479135798651 154.96794989056 , 215.953925341642 203.69746731845 , 191.177422528825 221.094383471619 , 145.416947661905 238.491299624788 , 99.656472794984 220.964090874082 , 56.5888079103526 188.992678575876 , -2.88224895868052 157.02126627767 , -62.3533058277137 135.386041382107 , -92.5448676195999 105.779698220508 , -114.17145184546 76.1733550589086 , -135.798036071321 48.8247814211277 , -143.787726187111 25.1207923935435 , -146.88816241372 1.4168033659593 , -149.988598640329 -44.3821946830215 , -151.82693624089 -132.981110539454 , -109.034539639083 -221.580026395887 , -66.242143037276 -247.599088070513 , -43.5789659102203 -270.818481050287 , -9.48540948053594 -294.037874030061 , 24.6081469491484 -328.262122812449 , 94.1011157419021 -286.223111793321 , 175.183350431508 -244.184100774194 , 256.265585121113 -142.837011420204 , 321.328938977751 0 , 321.328938977751 142.837011420204 , 321.328938977751 330.782186234988 , 249.208473195677 359.3004633793 , 105.125128046331 387.818740523611 , -38.9582171030161 271.686226879433 , -69.1985065223111 225.36876493071 , -71.9444633941341 179.051302981987 , -74.6904202659571 150.771671282912 , -61.4771653029573 76.4109966410316 , -30.5191593750687 2.05032199915144 , 0.438846552819939 -2.05032199915144 , -0.438846552819939 -76.4109966410316 , 30.5191593750687 -150.771671282912 , 61.4771653029573 -179.051302981987 , 74.6904202659571 -225.36876493071 , 71.9444633941341 -271.686226879433 , 69.1985065223111 -387.818740523611 , 38.958217103016 -359.3004633793 , -105.125128046331 -330.782186234988 , -249.208473195677 -142.837011420204 , -321.328938977751 0 , -321.328938977751 Z "
       id="path5430"
       inkscape:connector-curvature="0"
       sodipodi:nodetypes="zzzzzzzzzzzzzzzzzzzzzzzzzzz" />
  </g>
</svg>
