<?xml version="1.0" encoding="UTF-8" standalone="no"?>
<!-- Created with Inkscape (http://www.inkscape.org/) -->

<svg
   xmlns:dc="http://purl.org/dc/elements/1.1/"
   xmlns:cc="http://creativecommons.org/ns#"
   xmlns:rdf="http://www.w3.org/1999/02/22-rdf-syntax-ns#"
   xmlns:svg="http://www.w3.org/2000/svg"
   xmlns="http://www.w3.org/2000/svg"
   xmlns:sodipodi="http://sodipodi.sourceforge.net/DTD/sodipodi-0.dtd"
   xmlns:inkscape="http://www.inkscape.org/namespaces/inkscape"
   width="210mm"
   height="297mm"
   viewBox="0 0 210 297"
   version="1.1"
   id="svg4820"
   inkscape:version="0.92.0 r"
   sodipodi:docname="9_29.svg">
  <defs
     id="defs4814" />
  <sodipodi:namedview
     id="base"
     pagecolor="#ffffff"
     bordercolor="#666666"
     borderopacity="1.0"
     inkscape:pageopacity="0.0"
     inkscape:pageshadow="2"
     inkscape:zoom="0.79296875"
     inkscape:cx="364.05911"
     inkscape:cy="233.33601"
     inkscape:document-units="mm"
     inkscape:current-layer="layer1"
     showgrid="false"
     inkscape:window-width="2560"
     inkscape:window-height="1315"
     inkscape:window-x="160"
     inkscape:window-y="41"
     inkscape:window-maximized="0" />
  <metadata
     id="metadata4817">
    <rdf:RDF>
      <cc:Work
         rdf:about="">
        <dc:format>image/svg+xml</dc:format>
        <dc:type
           rdf:resource="http://purl.org/dc/dcmitype/StillImage" />
        <dc:title></dc:title>
      </cc:Work>
    </rdf:RDF>
  </metadata>
  <g
     inkscape:label="Layer 1"
     inkscape:groupmode="layer"
     id="layer1">
    <path
       style="fill:none;fill-rule:evenodd;stroke:#000000;stroke-width:2.66347933px;stroke-linecap:butt;stroke-linejoin:miter;stroke-opacity:1"
       d="M  0 , -323.117590052377 C  148.816412880338 , -323.117590052377 249.213943364366 , -258.502910574928 288.531040172251 , -180.635505982339 327.848136980136 , -102.76810138975 293.372262919258 , -37.7387458349294 259.529308273773 , 5.18456756001409 225.686353628288 , 48.1078809549576 207.065369067132 , 50.2827720078342 120.944807391098 , 97.4367316261966 34.8242457150632 , 144.590691244559 1.36536428307025 , 147.712534342572 -23.7761567027488 , 146.281121942799 -48.9176776885678 , 144.849709543026 -80.6602879593145 , 136.931402360077 -111.76285718464 , 108.478559226158 -142.865426409965 , 80.0257160922389 -147.462633367791 , 54.6576312549382 -175.085687692881 , 2.04999288445102 -202.708742017971 , -50.5576454860362 -232.677304976581 , -84.6361674907712 -220.703466843977 , -139.263901443772 -208.729628711374 , -193.891635396773 -152.867780079033 , -225.410636607844 -99.6780270257185 , -203.016149012581 -46.4882739724045 , -180.621661417318 -35.2526754495252 , -127.769826012591 -19.0741566418059 , -68.1480467457222 -2.89563783408655 , -8.52626747885337 2.89563783408655 , 8.52626747885337 19.0741566418059 , 68.1480467457222 35.2526754495252 , 127.769826012591 46.4882739724046 , 180.621661417318 99.6780270257185 , 203.016149012581 152.867780079033 , 225.410636607844 208.729628711374 , 193.891635396773 220.703466843977 , 139.263901443772 232.677304976581 , 84.6361674907712 202.708742017971 , 50.5576454860362 175.085687692881 , -2.04999288445104 147.462633367791 , -54.6576312549382 142.865426409965 , -80.0257160922389 111.76285718464 , -108.478559226158 80.6602879593145 , -136.931402360077 48.9176776885678 , -144.849709543026 23.7761567027488 , -146.281121942799 -1.36536428307024 , -147.712534342572 -34.8242457150632 , -144.590691244559 -120.944807391098 , -97.4367316261966 -207.065369067132 , -50.2827720078343 -225.686353628288 , -48.1078809549576 -259.529308273773 , -5.18456756001412 -293.372262919258 , 37.7387458349294 -327.848136980136 , 102.76810138975 -288.531040172251 , 180.635505982339 -249.213943364366 , 258.502910574928 -148.816412880338 , 323.117590052377 3.9570492240585e-14 , 323.117590052377 148.816412880338 , 323.117590052377 342.102550055805 , 241.649176478813 366.467936430931 , 96.7744276059082 390.833322806056 , -48.1003212669961 269.37646534715 , -71.5015446705368 215.885281567521 , -70.3211417266331 162.394097787893 , -69.1407387827294 150.006323994732 , -52.0767941547843 76.1352242119053 , -25.1440573736669 2.26412442907852 , 1.78867940745047 -2.26412442907852 , -1.78867940745047 -76.1352242119053 , 25.1440573736669 -150.006323994732 , 52.0767941547843 -162.394097787893 , 69.1407387827294 -215.885281567521 , 70.3211417266331 -269.37646534715 , 71.5015446705368 -390.833322806056 , 48.1003212669961 -366.467936430931 , -96.7744276059083 -342.102550055805 , -241.649176478813 -148.816412880338 , -323.117590052377 0 , -323.117590052377 Z "
       id="path5430"
       inkscape:connector-curvature="0"
       sodipodi:nodetypes="zzzzzzzzzzzzzzzzzzzzzzzzzzz" />
  </g>
</svg>
