<?xml version="1.0" encoding="UTF-8" standalone="no"?>
<!-- Created with Inkscape (http://www.inkscape.org/) -->

<svg
   xmlns:dc="http://purl.org/dc/elements/1.1/"
   xmlns:cc="http://creativecommons.org/ns#"
   xmlns:rdf="http://www.w3.org/1999/02/22-rdf-syntax-ns#"
   xmlns:svg="http://www.w3.org/2000/svg"
   xmlns="http://www.w3.org/2000/svg"
   xmlns:sodipodi="http://sodipodi.sourceforge.net/DTD/sodipodi-0.dtd"
   xmlns:inkscape="http://www.inkscape.org/namespaces/inkscape"
   width="210mm"
   height="297mm"
   viewBox="0 0 744.09448819 1052.3622047"
   id="svg2"
   version="1.1"
   inkscape:version="0.91 r13725"
   sodipodi:docname="9_3.svg">
  <defs
     id="defs4" />
  <sodipodi:namedview
     id="base"
     pagecolor="#ffffff"
     bordercolor="#666666"
     borderopacity="1.0"
     inkscape:pageopacity="0.0"
     inkscape:pageshadow="2"
     inkscape:zoom="1.3042474"
     inkscape:cx="317.76557"
     inkscape:cy="788.9969"
     inkscape:document-units="px"
     inkscape:current-layer="layer1"
     showgrid="false"
     inkscape:window-width="2560"
     inkscape:window-height="1315"
     inkscape:window-x="66"
     inkscape:window-y="196"
     inkscape:window-maximized="0" />
  <metadata
     id="metadata7">
    <rdf:RDF>
      <cc:Work
         rdf:about="">
        <dc:format>image/svg+xml</dc:format>
        <dc:type
           rdf:resource="http://purl.org/dc/dcmitype/StillImage" />
        <dc:title></dc:title>
      </cc:Work>
    </rdf:RDF>
  </metadata>
  <g
     inkscape:label="Layer 1"
     inkscape:groupmode="layer"
     id="layer1">
    <path
       style="fill:none;fill-rule:evenodd;stroke:#000000;stroke-width:3.3065331px;stroke-linecap:butt;stroke-linejoin:miter;stroke-opacity:1"
       d="M  120.878545139554 , -391.402189923331 C  202.068683830833 , -364.105069783613 259.466561102808 , -264.35519449587 239.607859630557 , -102.688551958042 219.749158158306 , 58.9780905797858 174.423369379197 , 98.148345364455 191.499277806617 , 203.570027509023 208.575186234037 , 308.991709653591 247.735720455524 , 334.737964296574 252.959122032969 , 393.878890260562 258.182523610414 , 453.01981622455 226.700725377486 , 497.628412895252 182.225469385202 , 518.644383154508 137.750213392918 , 539.660353413764 109.635749227666 , 528.579844799902 0 , 528.579844799902 -109.635749227666 , 528.579844799902 -137.750213392918 , 539.660353413764 -182.225469385202 , 518.644383154508 -226.700725377486 , 497.628412895252 -258.182523610414 , 453.01981622455 -252.959122032969 , 393.878890260562 -247.735720455524 , 334.737964296574 -208.575186234037 , 308.991709653591 -191.499277806617 , 203.570027509023 -174.423369379197 , 98.148345364455 -219.749158158306 , 58.9780905797858 -239.607859630557 , -102.688551958042 -259.466561102808 , -264.35519449587 -202.068683830833 , -364.105069783613 -120.878545139554 , -391.402189923331 -39.688406448275 , -418.699310063049 33.0414500519466 , -361.92117548451 28.7804982106789 , -285.046730386209 24.5195463694112 , -208.172285287908 -19.6439127682813 , -188.042243522586 -25.2882582801857 , -120.245504870153 -30.9326037920901 , -52.44876621772 13.860043416183 , -8.4617560401536 92.4078945927725 , 37.4615975696046 170.955745769362 , 83.3849511793628 212.174299089791 , 94.800549213895 244.203541359293 , 133.772041014444 276.232783628795 , 172.743532814993 284.811855803625 , 221.334714390313 268.540585703858 , 272.081235039082 252.269315604091 , 322.827755687851 223.187530528267 , 335.417207280017 168.843322554063 , 426.209509621177 114.499114579859 , 517.001811962337 112.750403071446 , 553.719028004798 69.7372009885673 , 584.63401790989 26.7239989056889 , 615.549007814982 -26.7239989056889 , 615.549007814982 -69.7372009885673 , 584.63401790989 -112.750403071446 , 553.719028004798 -114.499114579859 , 517.001811962337 -168.843322554063 , 426.209509621177 -223.187530528267 , 335.417207280017 -252.269315604091 , 322.827755687851 -268.540585703858 , 272.081235039082 -284.811855803625 , 221.334714390313 -276.232783628795 , 172.743532814993 -244.203541359293 , 133.772041014444 -212.174299089791 , 94.800549213895 -170.955745769362 , 83.3849511793628 -92.4078945927725 , 37.4615975696046 -13.860043416183 , -8.4617560401536 30.9326037920901 , -52.44876621772 25.2882582801857 , -120.245504870153 19.6439127682813 , -188.042243522586 -24.5195463694112 , -208.172285287908 -28.7804982106789 , -285.046730386209 -33.0414500519466 , -361.92117548451 39.688406448275 , -418.699310063049 120.878545139554 , -391.402189923331 Z "
       id="path4201"
       inkscape:connector-curvature="0"
       sodipodi:nodetypes="zzzzzzzzzzzzzzzzzzzzzzzzzz" />
  </g>
</svg>
