<?xml version="1.0" encoding="UTF-8" standalone="no"?>
<!-- Created with Inkscape (http://www.inkscape.org/) -->

<svg
   xmlns:dc="http://purl.org/dc/elements/1.1/"
   xmlns:cc="http://creativecommons.org/ns#"
   xmlns:rdf="http://www.w3.org/1999/02/22-rdf-syntax-ns#"
   xmlns:svg="http://www.w3.org/2000/svg"
   xmlns="http://www.w3.org/2000/svg"
   xmlns:sodipodi="http://sodipodi.sourceforge.net/DTD/sodipodi-0.dtd"
   xmlns:inkscape="http://www.inkscape.org/namespaces/inkscape"
   width="210mm"
   height="297mm"
   viewBox="0 0 744.09448819 1052.3622047"
   id="svg2"
   version="1.1"
   inkscape:version="0.91 r13725"
   sodipodi:docname="9_3.svg">
  <defs
     id="defs4" />
  <sodipodi:namedview
     id="base"
     pagecolor="#ffffff"
     bordercolor="#666666"
     borderopacity="1.0"
     inkscape:pageopacity="0.0"
     inkscape:pageshadow="2"
     inkscape:zoom="1.3042474"
     inkscape:cx="317.76557"
     inkscape:cy="788.9969"
     inkscape:document-units="px"
     inkscape:current-layer="layer1"
     showgrid="false"
     inkscape:window-width="2560"
     inkscape:window-height="1315"
     inkscape:window-x="66"
     inkscape:window-y="196"
     inkscape:window-maximized="0" />
  <metadata
     id="metadata7">
    <rdf:RDF>
      <cc:Work
         rdf:about="">
        <dc:format>image/svg+xml</dc:format>
        <dc:type
           rdf:resource="http://purl.org/dc/dcmitype/StillImage" />
        <dc:title></dc:title>
      </cc:Work>
    </rdf:RDF>
  </metadata>
  <g
     inkscape:label="Layer 1"
     inkscape:groupmode="layer"
     id="layer1">
    <path
       style="fill:none;fill-rule:evenodd;stroke:#000000;stroke-width:3.3065331px;stroke-linecap:butt;stroke-linejoin:miter;stroke-opacity:1"
       d="M  108.350624396741 , -372.938237038957 C  194.569407657754 , -349.176405615551 248.618257477802 , -245.54454837259 229.447148467459 , -94.5357493901354 210.276039457116 , 56.473049592319 152.11938441673 , 91.1173568149068 173.364400872308 , 200.309907064626 194.609417327886 , 309.502457314344 245.040401519791 , 314.547900208788 260.43023893439 , 379.181192287858 275.820076348989 , 443.814484366928 237.708886495931 , 500.125543253617 179.047099595825 , 515.558983866297 120.385312695718 , 530.992424478977 102.170989060499 , 500.196769684965 0 , 500.196769684965 -102.170989060499 , 500.196769684965 -120.385312695718 , 530.992424478977 -179.047099595825 , 515.558983866297 -237.708886495931 , 500.125543253617 -275.820076348989 , 443.814484366928 -260.43023893439 , 379.181192287858 -245.040401519791 , 314.547900208788 -194.609417327886 , 309.502457314344 -173.364400872308 , 200.309907064626 -152.11938441673 , 91.1173568149068 -210.276039457116 , 56.473049592319 -229.447148467459 , -94.5357493901354 -248.618257477802 , -245.54454837259 -194.569407657754 , -349.176405615551 -108.350624396741 , -372.938237038957 -22.1318411357271 , -396.700068462362 46.4530898808099 , -318.360280852886 34.6814510076734 , -243.998566867451 22.9098121345368 , -169.636852882016 -22.2716472110876 , -176.970249985037 -34.5211450283561 , -108.199221451814 -46.7706428456246 , -39.428192918592 3.00536942155503 , 12.0719039253118 81.2030155263789 , 47.4504283071818 159.400661631203 , 82.8289526890518 196.883439154411 , 80.2170660368487 237.525779802019 , 115.850028905855 278.168120449628 , 151.482991774861 295.795216663434 , 208.823746187931 270.586422441665 , 266.526472779427 245.377628219896 , 324.229199370924 209.561085595694 , 317.012603934829 155.401201735176 , 406.429356312393 101.241317874657 , 495.846108689956 121.036921576279 , 531.307046477762 77.1906248384443 , 575.283367408334 33.34432810061 , 619.259688338906 -33.34432810061 , 619.259688338906 -77.1906248384443 , 575.283367408334 -121.036921576279 , 531.307046477762 -101.241317874657 , 495.846108689956 -155.401201735176 , 406.429356312393 -209.561085595694 , 317.012603934829 -245.377628219896 , 324.229199370924 -270.586422441665 , 266.526472779427 -295.795216663434 , 208.823746187931 -278.168120449628 , 151.482991774861 -237.525779802019 , 115.850028905855 -196.883439154411 , 80.2170660368487 -159.400661631203 , 82.8289526890518 -81.2030155263789 , 47.4504283071818 -3.00536942155503 , 12.0719039253118 46.7706428456246 , -39.428192918592 34.5211450283561 , -108.199221451814 22.2716472110876 , -176.970249985037 -22.9098121345369 , -169.636852882016 -34.6814510076734 , -243.998566867451 -46.4530898808099 , -318.360280852886 22.1318411357271 , -396.700068462362 108.350624396741 , -372.938237038957 Z "
       id="path4201"
       inkscape:connector-curvature="0"
       sodipodi:nodetypes="zzzzzzzzzzzzzzzzzzzzzzzzzz" />
  </g>
</svg>
