<?xml version="1.0" encoding="UTF-8" standalone="no"?>
<!-- Created with Inkscape (http://www.inkscape.org/) -->

<svg
   xmlns:dc="http://purl.org/dc/elements/1.1/"
   xmlns:cc="http://creativecommons.org/ns#"
   xmlns:rdf="http://www.w3.org/1999/02/22-rdf-syntax-ns#"
   xmlns:svg="http://www.w3.org/2000/svg"
   xmlns="http://www.w3.org/2000/svg"
   xmlns:sodipodi="http://sodipodi.sourceforge.net/DTD/sodipodi-0.dtd"
   xmlns:inkscape="http://www.inkscape.org/namespaces/inkscape"
   width="210mm"
   height="297mm"
   viewBox="0 0 744.09448819 1052.3622047"
   id="svg2"
   version="1.1"
   inkscape:version="0.91 r13725"
   sodipodi:docname="9_30.svg">
  <defs
     id="defs4" />
  <sodipodi:namedview
     id="base"
     pagecolor="#ffffff"
     bordercolor="#666666"
     borderopacity="1.0"
     inkscape:pageopacity="0.0"
     inkscape:pageshadow="2"
     inkscape:zoom="1.7410715"
     inkscape:cx="134.83563"
     inkscape:cy="513.39297"
     inkscape:document-units="px"
     inkscape:current-layer="layer1"
     showgrid="false"
     inkscape:window-width="2560"
     inkscape:window-height="1315"
     inkscape:window-x="747"
     inkscape:window-y="28"
     inkscape:window-maximized="0" />
  <metadata
     id="metadata7">
    <rdf:RDF>
      <cc:Work
         rdf:about="">
        <dc:format>image/svg+xml</dc:format>
        <dc:type
           rdf:resource="http://purl.org/dc/dcmitype/StillImage" />
        <dc:title></dc:title>
      </cc:Work>
    </rdf:RDF>
  </metadata>
  <g
     inkscape:label="Layer 1"
     inkscape:groupmode="layer"
     id="layer1">
    <path
       style="fill:none;fill-rule:evenodd;stroke:#0008ff;stroke-width:6.28094387;stroke-linecap:butt;stroke-linejoin:miter;stroke-miterlimit:4;stroke-dasharray:none;stroke-opacity:1"
       d="M  0 , -334.057687281506 C  10.7534317696623 , -334.057687281506 63.8787101794783 , -332.963354799185 99.0548988951459 , -278.451197717254 134.231087610814 , -223.939040635323 126.375411455952 , -146.429360230496 74.9489840376123 , -71.6226116167837 23.5225566192724 , 3.184136996929 -11.9657250517913 , 11.7367794830855 -53.4097239142459 , 68.241739002 -94.8537227767005 , 124.746698520914 -94.1367686764512 , 149.914039140908 -132.530664498853 , 179.091144323052 -170.924560321256 , 208.268249505196 -208.874796460048 , 208.300578528956 -219.159548305214 , 208.171267042217 -229.444300150381 , 208.041955555478 -327.019327901648 , 206.182506230482 -355.245784682244 , 108.288663840881 -383.47224146284 , 10.394821451281 -318.409475269777 , -75.690066541378 -251.084849549829 , -120.849559532965 -183.76022382988 , -166.009052524551 -99.1082029533898 , -184.341471732221 0 , -184.341471732221 99.1082029533898 , -184.341471732221 167.366609247211 , -170.285183129122 217.535408845509 , -149.884420707624 267.704208443808 , -129.483658286126 332.747471668158 , -91.0823553017855 363.063907387268 , -15.3732671884193 393.380343106377 , 60.335820924947 362.749670033712 , 143.994567488851 294.621180145124 , 178.433251759948 226.492690256536 , 212.871936031046 196.738866745724 , 186.699847215233 125.078499152752 , 176.095989641036 53.4181315597796 , 165.492132066839 42.4558929466489 , 180.18316487014 -23.7364768387121 , 159.007907621036 -89.9288466240731 , 137.832650371931 -104.682260022922 , 114.144098542083 -154.417144920158 , 112.013682881064 -204.152029817393 , 109.883267220045 -235.598718744823 , 134.098254696774 -242.487643280934 , 139.492493339116 -249.376567817044 , 144.886731981458 -331.099265569044 , 209.131923669277 -279.256850820403 , 312.589707703676 -227.414436071762 , 416.047491738076 -94.6080983061207 , 432.135447574839 -5.27243163041355 , 406.80631686464 84.0632350452936 , 381.477186154441 139.065192142194 , 327.371746838126 168.630415237079 , 265.167471200547 198.195638331964 , 202.963195562968 189.813251004962 , 173.71144202785 221.638909199501 , 132.109508533703 253.464567394041 , 90.5075750395564 295.066236968234 , 84.7231095697959 304.432729335593 , 83.5690554065174 313.799221702953 , 82.4150012432388 444.892907236771 , 67.0598046187288 453.887159974672 , 213.083899213522 462.881412712574 , 359.107993808315 310.355685941315 , 402.977104753786 236.027551809598 , 393.052449324513 161.699417677882 , 383.127793895239 100.74768314921 , 339.33712359358 72.3821155808323 , 263.706616439752 44.0165480124546 , 188.076109285924 66.8752576662674 , 161.35013064488 40.782794165088 , 89.7695627302991 14.6903306639087 , 18.1889948157182 -20.8842182266322 , 7.91654188732651 -72.2383716941266 , -73.810074205842 -123.592525161621 , -155.53669029901 -130.235826640967 , -226.534585899133 -96.4953974912065 , -279.673529789697 -62.7549683414458 , -332.812473680261 -10.7534317696623 , -334.057687281506 0 , -334.057687281506 Z "
       id="path4201"
       inkscape:connector-curvature="0"
       sodipodi:nodetypes="zzzzzzzzzzzzzzzzzzzzzzzzzzzz" />
  </g>
</svg>
