<?xml version="1.0" encoding="UTF-8" standalone="no"?>
<!-- Created with Inkscape (http://www.inkscape.org/) -->

<svg
   xmlns:dc="http://purl.org/dc/elements/1.1/"
   xmlns:cc="http://creativecommons.org/ns#"
   xmlns:rdf="http://www.w3.org/1999/02/22-rdf-syntax-ns#"
   xmlns:svg="http://www.w3.org/2000/svg"
   xmlns="http://www.w3.org/2000/svg"
   xmlns:sodipodi="http://sodipodi.sourceforge.net/DTD/sodipodi-0.dtd"
   xmlns:inkscape="http://www.inkscape.org/namespaces/inkscape"
   width="210mm"
   height="297mm"
   viewBox="0 0 744.09448819 1052.3622047"
   id="svg2"
   version="1.1"
   inkscape:version="0.91 r13725"
   sodipodi:docname="9_30.svg">
  <defs
     id="defs4" />
  <sodipodi:namedview
     id="base"
     pagecolor="#ffffff"
     bordercolor="#666666"
     borderopacity="1.0"
     inkscape:pageopacity="0.0"
     inkscape:pageshadow="2"
     inkscape:zoom="1.7410715"
     inkscape:cx="134.83563"
     inkscape:cy="513.39297"
     inkscape:document-units="px"
     inkscape:current-layer="layer1"
     showgrid="false"
     inkscape:window-width="2560"
     inkscape:window-height="1315"
     inkscape:window-x="747"
     inkscape:window-y="28"
     inkscape:window-maximized="0" />
  <metadata
     id="metadata7">
    <rdf:RDF>
      <cc:Work
         rdf:about="">
        <dc:format>image/svg+xml</dc:format>
        <dc:type
           rdf:resource="http://purl.org/dc/dcmitype/StillImage" />
        <dc:title></dc:title>
      </cc:Work>
    </rdf:RDF>
  </metadata>
  <g
     inkscape:label="Layer 1"
     inkscape:groupmode="layer"
     id="layer1">
    <path
       style="fill:none;fill-rule:evenodd;stroke:#0008ff;stroke-width:6.28094387;stroke-linecap:butt;stroke-linejoin:miter;stroke-miterlimit:4;stroke-dasharray:none;stroke-opacity:1"
       d="M  0 , -337.466283542354 C  10.4832418991823 , -337.466283542354 61.9590806626643 , -336.424958313652 96.8078113037959 , -284.272631985469 131.656541944927 , -232.120305657287 128.349170343386 , -151.425526308151 69.9283651862049 , -68.6099878638229 11.5075600290234 , 14.2055505805054 -9.70699829221589 , 18.7578150967073 -52.5590503900165 , 76.4955631838268 -95.4111024878171 , 134.233311270946 -107.414695990428 , 161.580888356126 -142.53328082727 , 185.437393590669 -177.651865664111 , 209.293898825213 -208.241412407843 , 210.664289362025 -218.81978484004 , 210.801142814834 -229.398157272237 , 210.937996267642 -319.391298092966 , 211.395099013547 -349.24499009115 , 111.072926159547 -379.098682089334 , 10.7507533055466 -313.647347358569 , -77.5237450244058 -250.023180752083 , -123.050881340899 -186.399014145597 , -168.578017657392 -100.26449940413 , -192.498802092251 0 , -192.498802092251 100.26449940413 , -192.498802092251 173.917326441816 , -173.789560701043 221.699735624357 , -152.456422289151 269.482144806897 , -131.123283877258 332.59165328127 , -91.8298891443239 364.612122107966 , -15.8811114835532 396.632590934661 , 60.0676661772175 371.855486555461 , 141.98564223046 307.154550896995 , 178.057236044131 242.453615238529 , 214.128829857803 189.901221408334 , 194.51555715243 119.846826289974 , 181.349351860107 49.7924311716143 , 168.183146567785 41.1884086179108 , 174.656352893581 -24.5213887753479 , 156.587938011818 -90.2311861686066 , 138.519523130056 -119.203539592683 , 121.819842243402 -162.014548593108 , 122.058513270195 -204.825557593533 , 122.297184296989 -230.819081343029 , 138.084022077536 -238.690247909619 , 143.094061243775 -246.56141447621 , 148.104100410015 -335.758029874288 , 205.485297876793 -284.560609892117 , 315.531759252053 -233.363189909946 , 425.578220627314 -94.3268781265938 , 436.027430494331 -8.39225344453363 , 406.318836540449 77.5423712375265 , 376.610242586566 130.448658974405 , 320.682829149438 162.753958612732 , 263.512782729554 195.059258251059 , 206.34273630967 202.748009100954 , 168.664287354157 234.389918832206 , 134.637399878371 266.031828563459 , 100.610512402585 300.889036127508 , 94.0430838362582 307.899819247993 , 92.7613823883442 314.910602368477 , 91.4796809404302 435.876465238374 , 69.3387903228233 456.673969410849 , 204.442842059851 477.471473583324 , 339.546893796879 330.918942292884 , 405.199858640104 238.829013536587 , 391.65355881047 146.73908478029 , 378.107258980837 92.5905721950143 , 320.750235391846 68.1788625970537 , 255.308925717527 43.7671529990931 , 189.867616043208 52.4471669081203 , 155.694038964118 28.1067710551786 , 90.3926283746398 3.7663752022369 , 25.0912177851618 -25.410556790548 , 5.77897767381986 -73.8158911072652 , -77.9692151075939 -122.221225423982 , -161.717407889008 -127.64461621381 , -232.351248413772 -94.3032901858007 , -284.297862246745 -60.9619641577918 , -336.244476079719 -10.4832418991823 , -337.466283542354 0 , -337.466283542354 Z "
       id="path4201"
       inkscape:connector-curvature="0"
       sodipodi:nodetypes="zzzzzzzzzzzzzzzzzzzzzzzzzzzz" />
  </g>
</svg>
