<?xml version="1.0" encoding="UTF-8" standalone="no"?>
<!-- Created with Inkscape (http://www.inkscape.org/) -->

<svg
   xmlns:dc="http://purl.org/dc/elements/1.1/"
   xmlns:cc="http://creativecommons.org/ns#"
   xmlns:rdf="http://www.w3.org/1999/02/22-rdf-syntax-ns#"
   xmlns:svg="http://www.w3.org/2000/svg"
   xmlns="http://www.w3.org/2000/svg"
   xmlns:sodipodi="http://sodipodi.sourceforge.net/DTD/sodipodi-0.dtd"
   xmlns:inkscape="http://www.inkscape.org/namespaces/inkscape"
   width="210mm"
   height="297mm"
   viewBox="0 0 744.09448819 1052.3622047"
   id="svg2"
   version="1.1"
   inkscape:version="0.91 r13725"
   sodipodi:docname="9_30.svg">
  <defs
     id="defs4" />
  <sodipodi:namedview
     id="base"
     pagecolor="#ffffff"
     bordercolor="#666666"
     borderopacity="1.0"
     inkscape:pageopacity="0.0"
     inkscape:pageshadow="2"
     inkscape:zoom="1.7410715"
     inkscape:cx="134.83563"
     inkscape:cy="513.39297"
     inkscape:document-units="px"
     inkscape:current-layer="layer1"
     showgrid="false"
     inkscape:window-width="2560"
     inkscape:window-height="1315"
     inkscape:window-x="747"
     inkscape:window-y="28"
     inkscape:window-maximized="0" />
  <metadata
     id="metadata7">
    <rdf:RDF>
      <cc:Work
         rdf:about="">
        <dc:format>image/svg+xml</dc:format>
        <dc:type
           rdf:resource="http://purl.org/dc/dcmitype/StillImage" />
        <dc:title></dc:title>
      </cc:Work>
    </rdf:RDF>
  </metadata>
  <g
     inkscape:label="Layer 1"
     inkscape:groupmode="layer"
     id="layer1">
    <path
       style="fill:none;fill-rule:evenodd;stroke:#0008ff;stroke-width:6.28094387;stroke-linecap:butt;stroke-linejoin:miter;stroke-miterlimit:4;stroke-dasharray:none;stroke-opacity:1"
       d="M  0 , -337.720782261038 C  10.9584470923383 , -337.720782261038 61.7433278654732 , -336.42199038269 96.3245682313978 , -284.422521590721 130.905808597322 , -232.423052798752 128.209448267185 , -152.361398697519 70.482793014369 , -69.7536669495884 12.756137761553 , 12.8540647983422 -9.70766988373457 , 17.9841213822564 -52.5265475140541 , 76.1598991193597 -95.3454251443736 , 134.335676856463 -107.228244257968 , 161.453501749986 -142.331684976315 , 185.46301453722 -177.435125694662 , 209.472527324454 -208.236717291157 , 211.066836570786 -219.585426438732 , 211.233552387685 -230.934135586307 , 211.400268204584 -321.493938903616 , 211.625667830671 -350.949846511415 , 110.061061009385 -380.405754119214 , 8.49645418809899 -311.29023637223 , -78.4271124446407 -248.852212243554 , -122.484039915229 -186.414188114878 , -166.540967385817 -101.300909913488 , -191.325762268082 0 , -191.325762268082 101.300909913488 , -191.325762268082 174.138680388141 , -172.864860205663 222.159011004118 , -151.719540001078 270.179341620095 , -130.574219796493 334.000067946615 , -91.4494436298066 365.562078757992 , -16.3354811956158 397.124089569369 , 58.778481238575 373.630618666637 , 138.671391476258 310.083893898749 , 175.928790860867 246.537169130861 , 213.186190245476 191.865565013752 , 194.2643424006 120.384799124164 , 181.109284460893 48.904033234576 , 167.954226521186 40.9251530912104 , 174.588244964213 -24.7412591822904 , 156.646370987007 -90.4076714557912 , 138.704497009801 -118.828283839113 , 121.676354038522 -161.819632499541 , 121.726267273206 -204.810981159969 , 121.77618050789 -230.991354152915 , 137.828452454317 -239.093968857409 , 143.074454570561 -247.196583561903 , 148.320456686805 -334.254568673016 , 205.392950586729 -283.010428689948 , 314.644521489186 -231.76628870688 , 423.896092391643 -95.3282653609574 , 433.886453607879 -9.1632680222512 , 404.930226180815 77.001729316455 , 375.973998753751 130.252913508822 , 320.048369720106 162.884853371472 , 263.647170871 195.516793234122 , 207.245972021894 203.106039282121 , 169.575869385653 234.530858682979 , 135.433617063852 265.955678083837 , 101.291364742051 299.851975002745 , 94.4403995916403 308.544269428898 , 92.8481542827562 317.236563855051 , 91.2559089738721 432.360008126922 , 70.7953547233908 457.48703112355 , 199.914531154809 482.614054120178 , 329.033707586227 348.241609689051 , 405.174885980348 249.015378912477 , 393.724344083268 149.789148135903 , 382.273802186188 92.4809785266133 , 319.434730968092 68.0126356143636 , 253.587018108204 43.5442927021139 , 187.739305248316 52.5895958334717 , 156.255312869727 28.5210327185569 , 91.2121999447092 4.4524696036421 , 26.1690870196914 -25.8661961796263 , 5.91230715687905 -74.7559927069295 , -77.8172105437403 -123.645789234233 , -161.54672824436 -128.275207408407 , -232.771828581621 -94.6953892002333 , -284.547824123491 -61.1155709920596 , -336.323819665361 -10.9584470923383 , -337.720782261038 0 , -337.720782261038 Z "
       id="path4201"
       inkscape:connector-curvature="0"
       sodipodi:nodetypes="zzzzzzzzzzzzzzzzzzzzzzzzzzzz" />
  </g>
</svg>
