<?xml version="1.0" encoding="UTF-8" standalone="no"?>
<!-- Created with Inkscape (http://www.inkscape.org/) -->

<svg
   xmlns:dc="http://purl.org/dc/elements/1.1/"
   xmlns:cc="http://creativecommons.org/ns#"
   xmlns:rdf="http://www.w3.org/1999/02/22-rdf-syntax-ns#"
   xmlns:svg="http://www.w3.org/2000/svg"
   xmlns="http://www.w3.org/2000/svg"
   xmlns:sodipodi="http://sodipodi.sourceforge.net/DTD/sodipodi-0.dtd"
   xmlns:inkscape="http://www.inkscape.org/namespaces/inkscape"
   width="210mm"
   height="297mm"
   viewBox="0 0 744.09448819 1052.3622047"
   id="svg2"
   version="1.1"
   inkscape:version="0.91 r13725"
   sodipodi:docname="9_31.svg">
  <defs
     id="defs4" />
  <sodipodi:namedview
     id="base"
     pagecolor="#ffffff"
     bordercolor="#666666"
     borderopacity="1.0"
     inkscape:pageopacity="0.0"
     inkscape:pageshadow="2"
     inkscape:zoom="1.5982422"
     inkscape:cx="209.19284"
     inkscape:cy="945.46743"
     inkscape:document-units="px"
     inkscape:current-layer="layer1"
     showgrid="false"
     inkscape:window-width="2560"
     inkscape:window-height="1315"
     inkscape:window-x="0"
     inkscape:window-y="1"
     inkscape:window-maximized="1" />
  <metadata
     id="metadata7">
    <rdf:RDF>
      <cc:Work
         rdf:about="">
        <dc:format>image/svg+xml</dc:format>
        <dc:type
           rdf:resource="http://purl.org/dc/dcmitype/StillImage" />
        <dc:title></dc:title>
      </cc:Work>
    </rdf:RDF>
  </metadata>
  <g
     inkscape:label="Layer 1"
     inkscape:groupmode="layer"
     id="layer1">
    <path
       style="fill:none;fill-rule:evenodd;stroke:#f20000;stroke-width:21.84212494;stroke-linecap:butt;stroke-linejoin:miter;stroke-miterlimit:4;stroke-dasharray:none;stroke-opacity:1"
       d="M  0 , -166.904832963918 C  99.1904751058752 , -166.904832963918 198.695614970697 , -135.293649294575 278.331787775292 , -61.5769302656272 357.967960579888 , 12.1397887633206 376.346529724014 , 80.2054349740415 370.865500994008 , 134.297988099537 365.384472264002 , 188.390541225033 334.132813233047 , 247.019546349837 268.749944162638 , 276.691486769752 203.367075092228 , 306.363427189666 135.434842201965 , 289.728412645624 71.7533520761372 , 254.363495817986 8.07186195030934 , 218.998578990347 -9.14585607737914 , 190.063302134677 -78.6484635566883 , 150.456797222071 -148.151071035997 , 110.850292309465 -176.693993574319 , 111.590702598776 -256.752540857388 , 76.4827292704656 -336.811088140458 , 41.3747559421553 -413.437524046174 , -3.30252547901536 -425.458415684704 , -88.4710779348411 -437.479307323235 , -173.639630390667 -366.715271726256 , -245.872301309649 -279.141241261503 , -227.177018432449 -191.567210796749 , -208.481735555248 -145.74703028775 , -114.070877580521 -148.334596623905 , -13.8870467011081 -150.922162960059 , 86.2967841783048 -171.513367816983 , 122.044811111587 -169.831577304387 , 190.909041749259 -168.149786791791 , 259.773272386931 -137.780429502452 , 390.121712253251 0 , 390.121712253251 137.780429502452 , 390.121712253251 168.149786791791 , 259.773272386931 169.831577304387 , 190.909041749259 171.513367816983 , 122.044811111587 150.922162960059 , 86.2967841783048 148.334596623905 , -13.8870467011081 145.74703028775 , -114.070877580521 191.567210796749 , -208.481735555248 279.141241261503 , -227.177018432449 366.715271726256 , -245.872301309649 437.479307323235 , -173.639630390667 425.458415684704 , -88.4710779348411 413.437524046174 , -3.30252547901534 336.811088140458 , 41.3747559421553 256.752540857388 , 76.4827292704656 176.693993574318 , 111.590702598776 148.151071035997 , 110.850292309465 78.6484635566883 , 150.456797222071 9.14585607737914 , 190.063302134677 -8.07186195030934 , 218.998578990347 -71.7533520761372 , 254.363495817986 -135.434842201965 , 289.728412645624 -203.367075092228 , 306.363427189666 -268.749944162638 , 276.691486769752 -334.132813233047 , 247.019546349837 -365.384472264002 , 188.390541225033 -370.865500994008 , 134.297988099537 -376.346529724014 , 80.2054349740415 -357.967960579888 , 12.1397887633206 -278.331787775292 , -61.5769302656272 -198.695614970697 , -135.293649294575 -99.1904751058752 , -166.904832963918 0 , -166.904832963918 Z "
       id="path4217"
       inkscape:connector-curvature="0"
       sodipodi:nodetypes="zzzzzzzzzzzzzzzzzzzzzzz" />
  </g>
</svg>
