<?xml version="1.0" encoding="UTF-8" standalone="no"?>
<!-- Created with Inkscape (http://www.inkscape.org/) -->

<svg
   xmlns:dc="http://purl.org/dc/elements/1.1/"
   xmlns:cc="http://creativecommons.org/ns#"
   xmlns:rdf="http://www.w3.org/1999/02/22-rdf-syntax-ns#"
   xmlns:svg="http://www.w3.org/2000/svg"
   xmlns="http://www.w3.org/2000/svg"
   xmlns:sodipodi="http://sodipodi.sourceforge.net/DTD/sodipodi-0.dtd"
   xmlns:inkscape="http://www.inkscape.org/namespaces/inkscape"
   width="210mm"
   height="297mm"
   viewBox="0 0 744.09448819 1052.3622047"
   id="svg2"
   version="1.1"
   inkscape:version="0.91 r13725"
   sodipodi:docname="9_31.svg">
  <defs
     id="defs4" />
  <sodipodi:namedview
     id="base"
     pagecolor="#ffffff"
     bordercolor="#666666"
     borderopacity="1.0"
     inkscape:pageopacity="0.0"
     inkscape:pageshadow="2"
     inkscape:zoom="1.5982422"
     inkscape:cx="209.19284"
     inkscape:cy="945.46743"
     inkscape:document-units="px"
     inkscape:current-layer="layer1"
     showgrid="false"
     inkscape:window-width="2560"
     inkscape:window-height="1315"
     inkscape:window-x="0"
     inkscape:window-y="1"
     inkscape:window-maximized="1" />
  <metadata
     id="metadata7">
    <rdf:RDF>
      <cc:Work
         rdf:about="">
        <dc:format>image/svg+xml</dc:format>
        <dc:type
           rdf:resource="http://purl.org/dc/dcmitype/StillImage" />
        <dc:title></dc:title>
      </cc:Work>
    </rdf:RDF>
  </metadata>
  <g
     inkscape:label="Layer 1"
     inkscape:groupmode="layer"
     id="layer1">
    <path
       style="fill:none;fill-rule:evenodd;stroke:#f20000;stroke-width:21.84212494;stroke-linecap:butt;stroke-linejoin:miter;stroke-miterlimit:4;stroke-dasharray:none;stroke-opacity:1"
       d="M  0 , -152.112739422423 C  76.1499677884967 , -152.112739422423 167.588724018325 , -133.780144631274 254.314171724809 , -69.2802479553691 341.039619431293 , -4.78035127946438 374.461951060265 , 59.2962777920337 372.164906221483 , 124.687405988611 369.867861382701 , 190.078534185188 331.024977816728 , 249.867161821641 267.62312833661 , 275.75144557663 204.221278856492 , 301.635729331619 140.470181333362 , 285.448146047437 70.4623797435226 , 240.937624447348 0.454578153682974 , 196.427102847259 -3.48510514379965 , 169.357460397593 -68.6697452759131 , 129.893332092709 -133.854385408027 , 90.4292037878245 -164.167023075957 , 95.3096288805719 -243.501364910697 , 60.9705457278043 -322.835706745437 , 26.6314625750367 -408.034071548284 , -23.6518300666162 -409.760581679387 , -116.993320118739 -411.487091810489 , -210.334810170862 -319.803792862951 , -270.602005316282 -233.044979185829 , -232.551567713782 -146.286165508707 , -194.501130111283 -119.674444023601 , -90.0616771444506 -130.219290026984 , -1.54157502707212 -140.764136030367 , 86.9785270903064 -160.165218531986 , 100.081940621552 -164.930905947664 , 175.426849692918 -169.696593363342 , 250.771758764284 -146.230304790073 , 395.616414245099 0 , 395.616414245099 146.230304790073 , 395.616414245099 169.696593363342 , 250.771758764284 164.930905947664 , 175.426849692918 160.165218531986 , 100.081940621552 140.764136030367 , 86.9785270903064 130.219290026984 , -1.54157502707212 119.674444023601 , -90.0616771444506 146.286165508707 , -194.501130111283 233.044979185829 , -232.551567713782 319.803792862951 , -270.602005316282 411.487091810489 , -210.334810170862 409.760581679387 , -116.993320118739 408.034071548284 , -23.6518300666162 322.835706745437 , 26.6314625750367 243.501364910697 , 60.9705457278043 164.167023075957 , 95.3096288805719 133.854385408027 , 90.4292037878245 68.6697452759131 , 129.893332092709 3.48510514379964 , 169.357460397593 -0.454578153682971 , 196.427102847259 -70.4623797435226 , 240.937624447348 -140.470181333362 , 285.448146047437 -204.221278856492 , 301.635729331619 -267.62312833661 , 275.75144557663 -331.024977816728 , 249.867161821641 -369.867861382701 , 190.078534185188 -372.164906221483 , 124.687405988611 -374.461951060265 , 59.2962777920337 -341.039619431293 , -4.78035127946438 -254.314171724809 , -69.2802479553691 -167.588724018325 , -133.780144631274 -76.1499677884967 , -152.112739422423 0 , -152.112739422423 Z "
       id="path4217"
       inkscape:connector-curvature="0"
       sodipodi:nodetypes="zzzzzzzzzzzzzzzzzzzzzzz" />
  </g>
</svg>
