<?xml version="1.0" encoding="UTF-8" standalone="no"?>
<!-- Created with Inkscape (http://www.inkscape.org/) -->

<svg
   xmlns:dc="http://purl.org/dc/elements/1.1/"
   xmlns:cc="http://creativecommons.org/ns#"
   xmlns:rdf="http://www.w3.org/1999/02/22-rdf-syntax-ns#"
   xmlns:svg="http://www.w3.org/2000/svg"
   xmlns="http://www.w3.org/2000/svg"
   xmlns:sodipodi="http://sodipodi.sourceforge.net/DTD/sodipodi-0.dtd"
   xmlns:inkscape="http://www.inkscape.org/namespaces/inkscape"
   width="210mm"
   height="297mm"
   viewBox="0 0 744.09448819 1052.3622047"
   id="svg2"
   version="1.1"
   inkscape:version="0.91 r13725"
   sodipodi:docname="9_31.svg">
  <defs
     id="defs4" />
  <sodipodi:namedview
     id="base"
     pagecolor="#ffffff"
     bordercolor="#666666"
     borderopacity="1.0"
     inkscape:pageopacity="0.0"
     inkscape:pageshadow="2"
     inkscape:zoom="1.5982422"
     inkscape:cx="209.19284"
     inkscape:cy="945.46743"
     inkscape:document-units="px"
     inkscape:current-layer="layer1"
     showgrid="false"
     inkscape:window-width="2560"
     inkscape:window-height="1315"
     inkscape:window-x="0"
     inkscape:window-y="1"
     inkscape:window-maximized="1" />
  <metadata
     id="metadata7">
    <rdf:RDF>
      <cc:Work
         rdf:about="">
        <dc:format>image/svg+xml</dc:format>
        <dc:type
           rdf:resource="http://purl.org/dc/dcmitype/StillImage" />
        <dc:title></dc:title>
      </cc:Work>
    </rdf:RDF>
  </metadata>
  <g
     inkscape:label="Layer 1"
     inkscape:groupmode="layer"
     id="layer1">
    <path
       style="fill:none;fill-rule:evenodd;stroke:#f20000;stroke-width:21.84212494;stroke-linecap:butt;stroke-linejoin:miter;stroke-miterlimit:4;stroke-dasharray:none;stroke-opacity:1"
       d="M  0 , -166.792982893216 C  98.3745883214587 , -166.792982893216 198.113544766865 , -135.897613441544 278.425521611551 , -61.5566766259419 358.737498456237 , 12.78426018966 376.854920318699 , 81.327617343447 370.894154802721 , 135.794052749052 364.933389286743 , 190.260488154657 332.841726171989 , 248.188936976228 268.021444388389 , 277.002147649638 203.201162604789 , 305.815358323048 136.208709719183 , 289.767199946811 71.5257895713888 , 253.921103820069 6.84286942359435 , 218.075007693327 -7.8788765621403 , 190.756784744563 -78.3980621575474 , 150.569352840765 -148.917247752954 , 110.381920936967 -178.61159571887 , 110.911787335206 -257.381459466482 , 76.2591717450062 -336.151323214094 , 41.6065561548064 -413.191083088589 , -2.79404709715639 -425.491300652669 , -88.2645971036288 -437.791518216749 , -173.735147110101 -367.196315142618 , -246.025782831464 -279.841253426457 , -227.886005942916 -192.486191710296 , -209.746229054368 -145.854087743138 , -116.277595690088 -148.55321099815 , -15.4058222157377 -151.252334253162 , 85.4659512586126 -172.192243933334 , 121.665483935388 -170.254530655203 , 190.719491445172 -168.316817377072 , 259.773498954956 -137.016875709949 , 389.159933659555 0 , 389.159933659555 137.016875709949 , 389.159933659555 168.316817377072 , 259.773498954956 170.254530655203 , 190.719491445172 172.192243933334 , 121.665483935388 151.252334253162 , 85.4659512586126 148.55321099815 , -15.4058222157377 145.854087743138 , -116.277595690088 192.486191710296 , -209.746229054368 279.841253426457 , -227.886005942916 367.196315142618 , -246.025782831464 437.791518216749 , -173.735147110101 425.491300652669 , -88.2645971036288 413.191083088589 , -2.79404709715641 336.151323214094 , 41.6065561548064 257.381459466482 , 76.2591717450062 178.61159571887 , 110.911787335206 148.917247752954 , 110.381920936967 78.3980621575474 , 150.569352840765 7.87887656214031 , 190.756784744563 -6.84286942359435 , 218.075007693327 -71.5257895713888 , 253.921103820069 -136.208709719183 , 289.767199946811 -203.201162604789 , 305.815358323048 -268.021444388389 , 277.002147649638 -332.841726171989 , 248.188936976228 -364.933389286743 , 190.260488154657 -370.894154802721 , 135.794052749052 -376.854920318699 , 81.327617343447 -358.737498456237 , 12.78426018966 -278.425521611551 , -61.5566766259419 -198.113544766865 , -135.897613441544 -98.3745883214587 , -166.792982893216 0 , -166.792982893216 Z "
       id="path4217"
       inkscape:connector-curvature="0"
       sodipodi:nodetypes="zzzzzzzzzzzzzzzzzzzzzzz" />
  </g>
</svg>
