<?xml version="1.0" encoding="UTF-8" standalone="no"?>
<!-- Created with Inkscape (http://www.inkscape.org/) -->

<svg
   xmlns:dc="http://purl.org/dc/elements/1.1/"
   xmlns:cc="http://creativecommons.org/ns#"
   xmlns:rdf="http://www.w3.org/1999/02/22-rdf-syntax-ns#"
   xmlns:svg="http://www.w3.org/2000/svg"
   xmlns="http://www.w3.org/2000/svg"
   xmlns:sodipodi="http://sodipodi.sourceforge.net/DTD/sodipodi-0.dtd"
   xmlns:inkscape="http://www.inkscape.org/namespaces/inkscape"
   width="210mm"
   height="297mm"
   viewBox="0 0 744.09448819 1052.3622047"
   id="svg2"
   version="1.1"
   inkscape:version="0.91 r13725"
   sodipodi:docname="9_32.svg">
  <defs
     id="defs4" />
  <sodipodi:namedview
     id="base"
     pagecolor="#ffffff"
     bordercolor="#666666"
     borderopacity="1.0"
     inkscape:pageopacity="0.0"
     inkscape:pageshadow="2"
     inkscape:zoom="1.1791483"
     inkscape:cx="-68.513022"
     inkscape:cy="734.47606"
     inkscape:document-units="px"
     inkscape:current-layer="layer1"
     showgrid="false"
     inkscape:window-width="1855"
     inkscape:window-height="1056"
     inkscape:window-x="65"
     inkscape:window-y="24"
     inkscape:window-maximized="1" />
  <metadata
     id="metadata7">
    <rdf:RDF>
      <cc:Work
         rdf:about="">
        <dc:format>image/svg+xml</dc:format>
        <dc:type
           rdf:resource="http://purl.org/dc/dcmitype/StillImage" />
        <dc:title />
      </cc:Work>
    </rdf:RDF>
  </metadata>
  <g
     inkscape:label="Layer 1"
     inkscape:groupmode="layer"
     id="layer1">
    <path
       style="fill:none;fill-rule:evenodd;stroke:#00ff00;stroke-width:10.27033329;stroke-linecap:butt;stroke-linejoin:miter;stroke-miterlimit:4;stroke-dasharray:none;stroke-opacity:1"
       d="M  -21.6954433889342 , -83.9108854092218 C  52.4547624395944 , -112.314700029046 195.869830955934 , -116.281064068416 263.21961094523 , 5.7053636397784 330.569390934525 , 127.691791347973 237.795915066974 , 188.845711051242 229.358272279604 , 194.325140993226 220.920629492234 , 199.804570935209 194.292768618631 , 216.00091235543 155.399905765382 , 210.286128026661 116.507042912133 , 204.571343697892 96.4726391498608 , 182.943493576116 -13.0160366818111 , 91.7249382536259 -122.504712513483 , 0.506382931136272 -144.521331226449 , -36.2356496624755 -220.872865938911 , -46.0096753561203 -297.224400651374 , -55.7837010497651 -387.542808635309 , -14.4198422163084 -420.005411584861 , 80.0796963774128 -452.468014534412 , 174.579234971134 -386.775565397535 , 246.533014042057 -359.894477978727 , 272.403013887029 -333.013390559918 , 298.273013732 -308.801992060987 , 309.410598660469 -288.712679873817 , 314.388935114114 -268.623367686648 , 319.36727156776 -230.372251885006 , 323.416731641013 -180.120588974928 , 293.105112794718 -129.86892606485 , 262.793493948424 -126.251911246536 , 238.721563032503 -89.6913346378381 , 223.108633514416 -53.1307580291399 , 207.495703996328 -25.1735104149151 , 219.881313744252 -12.6665145239327 , 227.33126024973 -0.15951863295027 , 234.781206755208 42.2032392699358 , 265.671684756104 33.9099220725406 , 328.405968989753 25.6166048751454 , 391.140253223402 -12.8373733781419 , 423.384907413592 -61.0577457623698 , 464.310347471229 -109.278118146598 , 505.235787528866 -140.696325323338 , 547.173316324599 -220.950593271463 , 553.515345454867 -301.204861219587 , 559.857374585134 -387.362308094191 , 517.378249292846 -434.132391757762 , 448.170962253955 -480.902475421334 , 378.963675215063 -474.208889178534 , 312.789751001834 -454.345878495734 , 272.49221531326 -434.482867812934 , 232.194679624687 -392.324848110355 , 202.452241586853 -324.949218953103 , 186.026887498188 -257.573589795851 , 169.601533409524 -214.940639515305 , 188.524836704843 -191.407796539436 , 204.908041251064 -167.874953563567 , 221.291245797286 -191.429387428839 , 204.893068852947 -159.312833595162 , 227.252255541602 -127.196279761486 , 249.611442230258 -118.895469334325 , 265.820047916221 -87.1487315012664 , 277.195783585896 -55.401993668208 , 288.57151925557 -30.4423593644887 , 284.18005102793 -22.1394185202602 , 282.577804122159 -13.8364776760316 , 280.975557216389 29.5809476276603 , 271.900639296393 67.6954412567904 , 232.277108886975 105.809934885921 , 192.653578477557 109.18200391921 , 174.578875011208 141.30552074778 , 153.17360828031 173.42903757635 , 131.768341549413 203.426545586067 , 131.934671540667 211.954488339001 , 132.10965541293 220.482431091936 , 132.284639285193 305.025933030532 , 134.083740828015 331.862503774625 , 229.998485939091 358.699074518718 , 325.913231050167 300.677802563332 , 412.047523785602 242.474346676595 , 464.127137955264 184.270890789858 , 516.206752124926 90.3547462493888 , 561.586050668623 0 , 561.586050668623 -90.3547462493888 , 561.586050668623 -117.863645338024 , 505.309950701671 -173.482393037839 , 431.637656048217 -229.101140737654 , 357.965361394763 -238.756568849524 , 306.469861473154 -241.573864062256 , 248.056783375367 -244.391159274987 , 189.64370527758 -220.147137033734 , 138.882215076741 -201.204481592916 , 106.60462884215 -182.261826152097 , 74.3270426075584 -178.731806965226 , 69.9265178428098 -162.207280067254 , 45.2591364748765 -145.682753169282 , 20.5917551069431 -95.8456492174628 , -55.5070707893973 -21.6954433889342 , -83.9108854092218 Z "
       id="path4217"
       inkscape:connector-curvature="0"
       sodipodi:nodetypes="zzzzzzzzzzzzzzzzzzzzzzzzzzzszzzzz" />
  </g>
</svg>
