<?xml version="1.0" encoding="UTF-8" standalone="no"?>
<!-- Created with Inkscape (http://www.inkscape.org/) -->

<svg
   xmlns:dc="http://purl.org/dc/elements/1.1/"
   xmlns:cc="http://creativecommons.org/ns#"
   xmlns:rdf="http://www.w3.org/1999/02/22-rdf-syntax-ns#"
   xmlns:svg="http://www.w3.org/2000/svg"
   xmlns="http://www.w3.org/2000/svg"
   xmlns:sodipodi="http://sodipodi.sourceforge.net/DTD/sodipodi-0.dtd"
   xmlns:inkscape="http://www.inkscape.org/namespaces/inkscape"
   width="210mm"
   height="297mm"
   viewBox="0 0 744.09448819 1052.3622047"
   id="svg2"
   version="1.1"
   inkscape:version="0.91 r13725"
   sodipodi:docname="9_32.svg">
  <defs
     id="defs4" />
  <sodipodi:namedview
     id="base"
     pagecolor="#ffffff"
     bordercolor="#666666"
     borderopacity="1.0"
     inkscape:pageopacity="0.0"
     inkscape:pageshadow="2"
     inkscape:zoom="1.1791483"
     inkscape:cx="-68.513022"
     inkscape:cy="734.47606"
     inkscape:document-units="px"
     inkscape:current-layer="layer1"
     showgrid="false"
     inkscape:window-width="1855"
     inkscape:window-height="1056"
     inkscape:window-x="65"
     inkscape:window-y="24"
     inkscape:window-maximized="1" />
  <metadata
     id="metadata7">
    <rdf:RDF>
      <cc:Work
         rdf:about="">
        <dc:format>image/svg+xml</dc:format>
        <dc:type
           rdf:resource="http://purl.org/dc/dcmitype/StillImage" />
        <dc:title />
      </cc:Work>
    </rdf:RDF>
  </metadata>
  <g
     inkscape:label="Layer 1"
     inkscape:groupmode="layer"
     id="layer1">
    <path
       style="fill:none;fill-rule:evenodd;stroke:#00ff00;stroke-width:10.27033329;stroke-linecap:butt;stroke-linejoin:miter;stroke-miterlimit:4;stroke-dasharray:none;stroke-opacity:1"
       d="M  -17.1592536262915 , -79.2205841949654 C  54.9058184896903 , -107.314554906126 190.153578072515 , -120.1157003019 264.415274098448 , 4.21785804249662 338.67697012438 , 128.551416386893 239.409426972368 , 189.010422335424 229.097246333582 , 195.004474013705 218.785065694795 , 200.998525691985 193.416387216208 , 213.776312825225 157.202680011126 , 209.002730770702 120.988972806043 , 204.229148716179 81.1918929775799 , 183.17177736441 -10.0308570503019 , 92.8608456597074 -101.253607078184 , 2.5499139550044 -160.859027095504 , -41.1087401242758 -233.376001490478 , -42.9486315823571 -305.892975885453 , -44.7885230404385 -380.876102774841 , -4.57709833695716 -410.776567422954 , 84.3794034035511 -440.677032071067 , 173.335905144059 -387.209567960165 , 244.307696887399 -362.205331966261 , 270.433569748697 -337.201095972357 , 296.559442609994 -310.549353302062 , 309.260201888621 -288.232900662289 , 313.890809619356 -265.916448022516 , 318.521417350091 -231.197940342498 , 320.380532814838 -184.321749916478 , 292.393833251045 -137.445559490459 , 264.407133687253 -124.312521872699 , 242.111125110798 -89.6690827993603 , 227.461152524555 -55.025643726022 , 212.811179938312 -28.2292851927282 , 220.525089286844 -12.3929293165502 , 228.788490918033 3.44342655962785 , 237.051892549221 41.2535145429496 , 264.314283381677 37.5949499822471 , 324.399952873493 33.9363854215445 , 384.485622365309 -7.98283146041797 , 426.278819630058 -44.092857675199 , 459.747326431664 -80.2028838899801 , 493.21583323327 -134.396218575822 , 543.863188084502 -216.416448989274 , 548.694146989674 -298.436679402726 , 553.525105894846 -381.35582767217 , 514.0710869551 -429.098275780051 , 447.517793722801 -476.840723887931 , 380.964500490502 -473.951243550988 , 313.046426061363 -454.009572998238 , 268.591807291987 -434.067902445488 , 224.13718852261 -386.554248389494 , 187.251239709684 -322.770793917546 , 176.141563308292 -258.987339445597 , 165.0318869069 -215.016018897608 , 188.624784838152 -191.465976624244 , 205.180244874655 -167.91593435088 , 221.735704911158 -191.614802860317 , 205.076248596846 -159.59640305668 , 227.585050781126 -127.578003253043 , 250.093852965406 -116.339784764248 , 263.825836828817 -85.7488257210101 , 275.82069625722 -55.1578666777721 , 287.815555685623 -31.5094227505857 , 284.932289861519 -20.6599530080345 , 283.020264547839 -9.81048326548323 , 281.108239234159 27.3337641820954 , 272.77854442459 66.0475394454191 , 233.506910039533 104.761314708743 , 194.235275654477 111.787720483903 , 176.78634639293 144.248217253973 , 154.796487187906 176.708714024042 , 132.806627982882 205.276513160513 , 132.411053915524 214.550905717139 , 132.462189629271 223.825298273764 , 132.513325343018 307.459443615219 , 132.975838647777 336.264954905467 , 227.439213547697 365.070466195715 , 321.902588447617 309.040658496928 , 408.2935766483 246.238080160462 , 458.763015753066 183.435501823996 , 509.232454857832 77.4576777071296 , 543.331875579408 0 , 543.331875579408 -77.4576777071296 , 543.331875579408 -122.549179433116 , 491.851298422737 -175.773463083391 , 425.688452350768 -228.997746733666 , 359.525606278799 -245.552998919443 , 299.733619523779 -246.280418008001 , 243.370498089198 -247.007837096558 , 187.007376654617 -222.205779888487 , 137.369231505163 -204.285211375636 , 106.983144927441 -186.364642862784 , 76.5970583497197 -180.717857028166 , 68.4678134174408 -161.673687339817 , 42.9647364742456 -142.629517651468 , 17.4616595310504 -89.2243257422734 , -51.1266134838047 -17.1592536262915 , -79.2205841949654 Z "
       id="path4217"
       inkscape:connector-curvature="0"
       sodipodi:nodetypes="zzzzzzzzzzzzzzzzzzzzzzzzzzzszzzzz" />
  </g>
</svg>
