<?xml version="1.0" encoding="UTF-8" standalone="no"?>
<!-- Created with Inkscape (http://www.inkscape.org/) -->

<svg
   xmlns:dc="http://purl.org/dc/elements/1.1/"
   xmlns:cc="http://creativecommons.org/ns#"
   xmlns:rdf="http://www.w3.org/1999/02/22-rdf-syntax-ns#"
   xmlns:svg="http://www.w3.org/2000/svg"
   xmlns="http://www.w3.org/2000/svg"
   xmlns:sodipodi="http://sodipodi.sourceforge.net/DTD/sodipodi-0.dtd"
   xmlns:inkscape="http://www.inkscape.org/namespaces/inkscape"
   width="210mm"
   height="297mm"
   viewBox="0 0 744.09448819 1052.3622047"
   id="svg2"
   version="1.1"
   inkscape:version="0.91 r13725"
   sodipodi:docname="9_32.svg">
  <defs
     id="defs4" />
  <sodipodi:namedview
     id="base"
     pagecolor="#ffffff"
     bordercolor="#666666"
     borderopacity="1.0"
     inkscape:pageopacity="0.0"
     inkscape:pageshadow="2"
     inkscape:zoom="1.1791483"
     inkscape:cx="-68.513022"
     inkscape:cy="734.47606"
     inkscape:document-units="px"
     inkscape:current-layer="layer1"
     showgrid="false"
     inkscape:window-width="1855"
     inkscape:window-height="1056"
     inkscape:window-x="65"
     inkscape:window-y="24"
     inkscape:window-maximized="1" />
  <metadata
     id="metadata7">
    <rdf:RDF>
      <cc:Work
         rdf:about="">
        <dc:format>image/svg+xml</dc:format>
        <dc:type
           rdf:resource="http://purl.org/dc/dcmitype/StillImage" />
        <dc:title />
      </cc:Work>
    </rdf:RDF>
  </metadata>
  <g
     inkscape:label="Layer 1"
     inkscape:groupmode="layer"
     id="layer1">
    <path
       style="fill:none;fill-rule:evenodd;stroke:#00ff00;stroke-width:10.27033329;stroke-linecap:butt;stroke-linejoin:miter;stroke-miterlimit:4;stroke-dasharray:none;stroke-opacity:1"
       d="M  -16.387085078057 , -76.2612009697391 C  58.6407720629607 , -106.472224395056 201.827594071291 , -118.593920708719 269.131001321184 , 6.86804787456422 336.434408571077 , 132.330016457847 238.885697229821 , 189.699818947166 229.368514099252 , 195.085051603378 219.851330968683 , 200.47028425959 194.945685851367 , 212.714970711058 159.77253510506 , 208.156904884295 124.599384358753 , 203.598839057532 87.0085549448519 , 184.820109668678 -12.5985102273725 , 90.4085947960842 -112.205575399597 , -4.00292007650958 -163.03875092884 , -36.8272550809776 -232.425477078942 , -39.2584372721133 -301.812203229044 , -41.689619463249 -381.190484080166 , -4.20986933531041 -412.538845515363 , 84.0520863151766 -443.88720695056 , 172.314041965664 -388.991022883807 , 245.21695687647 -362.883068538072 , 271.597617090312 -336.775114192337 , 297.978277304154 -311.561040017921 , 308.709318779956 -290.108247928516 , 313.077330613474 -268.655455839111 , 317.445342446992 -233.28917224371 , 318.882052893181 -185.09922037141 , 291.853430141931 -136.90926849911 , 264.824807390681 -122.781545444299 , 242.656827323106 -88.5115868581892 , 228.309401396957 -54.2416282720794 , 213.961975470808 -28.4746492356465 , 221.319769020698 -12.7944970113205 , 229.425224323865 2.8856552130055 , 237.530679627032 41.5600251510016 , 265.583047113053 38.1317694251112 , 327.709947459311 34.7035136992208 , 389.836847805569 -6.28568405913355 , 431.507541915956 -39.3849842697842 , 460.610967729854 -72.4842844804348 , 489.714393543752 -139.567089524688 , 545.359850654708 -221.621683968475 , 548.378316644008 -303.676278412262 , 551.396782633308 -380.196367555028 , 515.167391711228 -428.407003557051 , 449.718038881249 -476.617639559074 , 384.26868605127 -475.267338653061 , 314.215983879999 -455.350848670189 , 268.667839966276 -435.434358687317 , 223.119696052553 -388.364389962043 , 186.657298488238 -324.046249887639 , 175.607599853881 -259.728109813235 , 164.557901219524 -215.267718048741 , 188.800514191348 -191.76650024395 , 205.345672238732 -168.265282439159 , 221.890830286116 -191.986366441342 , 205.191175080218 -159.921442867514 , 227.765519990816 -127.856519293686 , 250.339864901414 -114.875584938359 , 264.628313049861 -84.6370942962257 , 275.893651563193 -54.3986036540924 , 287.158990076525 -32.6851683102293 , 284.74528846905 -21.7648207308452 , 282.955062976712 -10.8444731514611 , 281.164837484374 26.7867813912661 , 273.23591921168 66.8743128826708 , 233.301168839864 106.961844374075 , 193.366418468048 114.167747383789 , 176.618856529188 146.721363570456 , 155.030695267199 179.274979757123 , 133.44253400521 207.918123864374 , 132.64569776174 215.027387873697 , 132.448111384014 222.13665188302 , 132.250525006288 307.790413211519 , 129.868381870218 337.814523136887 , 224.189378459116 367.838633062255 , 318.510375048014 309.675121971835 , 406.868540313751 241.181465421741 , 461.427287708111 172.687808871647 , 515.986035102471 78.5802219303176 , 547.302804649687 0 , 547.302804649687 -78.5802219303176 , 547.302804649687 -126.752372953958 , 494.75857365669 -179.262688495844 , 427.192299813321 -231.77300403773 , 359.626025969952 -248.175747221543 , 300.520865425209 -248.819266730045 , 243.746365410651 -249.462786238547 , 186.971865396093 -224.027276132018 , 136.227837728227 -205.505362991256 , 106.580742971555 -186.983449850494 , 76.933648214883 -180.087648788114 , 68.2955196688532 -162.015135809172 , 44.8320801842258 -143.94262283023 , 21.3686406995984 -91.4149422190747 , -46.0501775444223 -16.387085078057 , -76.2612009697391 Z "
       id="path4217"
       inkscape:connector-curvature="0"
       sodipodi:nodetypes="zzzzzzzzzzzzzzzzzzzzzzzzzzzszzzzz" />
  </g>
</svg>
