<?xml version="1.0" encoding="UTF-8" standalone="no"?>
<!-- Created with Inkscape (http://www.inkscape.org/) -->

<svg
   xmlns:dc="http://purl.org/dc/elements/1.1/"
   xmlns:cc="http://creativecommons.org/ns#"
   xmlns:rdf="http://www.w3.org/1999/02/22-rdf-syntax-ns#"
   xmlns:svg="http://www.w3.org/2000/svg"
   xmlns="http://www.w3.org/2000/svg"
   xmlns:sodipodi="http://sodipodi.sourceforge.net/DTD/sodipodi-0.dtd"
   xmlns:inkscape="http://www.inkscape.org/namespaces/inkscape"
   width="210mm"
   height="297mm"
   viewBox="0 0 744.09448819 1052.3622047"
   id="svg2"
   version="1.1"
   inkscape:version="0.91 r13725"
   sodipodi:docname="9_33.svg">
  <defs
     id="defs4" />
  <sodipodi:namedview
     id="base"
     pagecolor="#ffffff"
     bordercolor="#666666"
     borderopacity="1.0"
     inkscape:pageopacity="0.0"
     inkscape:pageshadow="2"
     inkscape:zoom="1.5982422"
     inkscape:cx="231.0919"
     inkscape:cy="770.27496"
     inkscape:document-units="px"
     inkscape:current-layer="layer1"
     showgrid="false"
     inkscape:window-width="2560"
     inkscape:window-height="1315"
     inkscape:window-x="0"
     inkscape:window-y="1"
     inkscape:window-maximized="1" />
  <metadata
     id="metadata7">
    <rdf:RDF>
      <cc:Work
         rdf:about="">
        <dc:format>image/svg+xml</dc:format>
        <dc:type
           rdf:resource="http://purl.org/dc/dcmitype/StillImage" />
        <dc:title></dc:title>
      </cc:Work>
    </rdf:RDF>
  </metadata>
  <g
     inkscape:label="Layer 1"
     inkscape:groupmode="layer"
     id="layer1">
    <path
       style="fill:none;fill-rule:evenodd;stroke:#000000;stroke-width:3.02150297px;stroke-linecap:butt;stroke-linejoin:miter;stroke-opacity:1"
       d="M  0 , 807.698113396502 C  -13.9994230860345 , 807.698113396502 -94.1474206890847 , 806.047027838466 -146.717244592934 , 709.97190235664 -199.287068496783 , 613.896776874814 -177.165662476279 , 496.903826134083 -170.738984517073 , 460.859992484412 -164.312306557867 , 424.81615883474 -152.534813613908 , 386.324866639568 -138.215910276997 , 287.944220421715 -123.897006940086 , 189.563574203862 -118.139969562031 , 165.990847838895 -109.399194319022 , 143.439953151009 -100.658419076014 , 120.889058463124 -91.9884085224227 , 106.763974709084 -85.4300293383813 , 96.9469239246698 -78.8716501543398 , 87.1298731402557 -30.6460874525333 , 14.9792245666519 53.6881757551154 , 12.7469087157552 138.022438962764 , 10.5145928648585 212.827736899799 , 70.8972592672696 227.03424738023 , 160.792581888501 241.24075786066 , 250.687904509733 178.265388731256 , 316.464890096193 165.262062980585 , 329.618076244783 152.258737229915 , 342.771262393373 133.596563992203 , 359.0824947284 105.229249911435 , 374.452311485183 76.861935830667 , 389.822128241966 23.4799432572622 , 411.440585188378 -68.1254710160054 , 410.981773956869 -159.730885289273 , 410.522962725361 -199.42782457216 , 380.937556985715 -218.601548928302 , 353.081158794933 -237.775273284445 , 325.224760604152 -236.390646304379 , 298.445671756887 -235.630197315511 , 289.967820665462 -234.869748326643 , 281.489969574038 -230.895219989832 , 247.07458451842 -195.852493147413 , 221.170332635825 -160.809766304994 , 195.26608075323 -118.687574690257 , 194.498102460538 -49.2704357468945 , 200.216966878566 20.1467031964684 , 205.935831296595 59.1415670948314 , 206.730664617401 122.953234755826 , 229.588508688658 186.76490241682 , 252.446352759914 265.912335498365 , 296.87322251311 306.231675570865 , 379.3305192097 346.551015643366 , 461.787815906291 328.932294519551 , 530.946321527791 325.876434037085 , 542.742352685244 322.820573554619 , 554.538383842696 309.329098374217 , 604.371950517858 262.828597015175 , 640.931715455628 216.328095656133 , 677.491480393399 140.80828186746 , 690.480415092849 82.5563828753792 , 642.552065209039 24.3044838832982 , 594.62371532523 25.8121094942116 , 527.606895367624 25.1097025096659 , 470.756090422304 24.4072955251202 , 413.905285476983 21.2762349175144 , 385.122940416044 23.0673133520132 , 303.013459679723 24.8583917865119 , 220.903978943401 28.7754422209409 , 176.157063639198 2.97554394116221 , 121.537719843295 -22.8243543386165 , 66.9183760473912 -83.1991267604531 , 1.07294281911927 -183.402350849862 , 23.6508184331602 -283.60557493927 , 46.228694047201 -339.264751203818 , 137.426046721833 -356.765533448879 , 213.259713224509 -374.266315693939 , 289.093379727185 -355.821878847077 , 350.799278803532 -349.929154117225 , 368.728267623765 -344.036429387373 , 386.657256443998 -325.250730028789 , 438.50274304252 -276.428174484272 , 481.050104092487 -227.605618939755 , 523.597465142453 -174.933123483636 , 537.72788429138 -77.5545777915105 , 539.885817119142 19.8239679006154 , 542.043749946905 51.8947463172663 , 541.098773850963 88.2698427960186 , 556.709719544848 124.644939274771 , 572.320665238732 141.830686900696 , 596.216691563991 149.875292877854 , 610.813739056961 157.919898855012 , 625.410786549931 185.611327743645 , 684.608347162863 137.470876455049 , 746.034147265085 89.3304251664531 , 807.459947367308 13.9994230860345 , 807.698113396502 0 , 807.698113396502 Z "
       id="path4217"
       inkscape:connector-curvature="0"
       sodipodi:nodetypes="zzzzzzzzzzzzzzzzzzzzzzzzzzzzzzzz" />
  </g>
</svg>
