<?xml version="1.0" encoding="UTF-8" standalone="no"?>
<!-- Created with Inkscape (http://www.inkscape.org/) -->

<svg
   xmlns:dc="http://purl.org/dc/elements/1.1/"
   xmlns:cc="http://creativecommons.org/ns#"
   xmlns:rdf="http://www.w3.org/1999/02/22-rdf-syntax-ns#"
   xmlns:svg="http://www.w3.org/2000/svg"
   xmlns="http://www.w3.org/2000/svg"
   xmlns:sodipodi="http://sodipodi.sourceforge.net/DTD/sodipodi-0.dtd"
   xmlns:inkscape="http://www.inkscape.org/namespaces/inkscape"
   width="210mm"
   height="297mm"
   viewBox="0 0 744.09448819 1052.3622047"
   id="svg2"
   version="1.1"
   inkscape:version="0.91 r13725"
   sodipodi:docname="9_33.svg">
  <defs
     id="defs4" />
  <sodipodi:namedview
     id="base"
     pagecolor="#ffffff"
     bordercolor="#666666"
     borderopacity="1.0"
     inkscape:pageopacity="0.0"
     inkscape:pageshadow="2"
     inkscape:zoom="1.5982422"
     inkscape:cx="231.0919"
     inkscape:cy="770.27496"
     inkscape:document-units="px"
     inkscape:current-layer="layer1"
     showgrid="false"
     inkscape:window-width="2560"
     inkscape:window-height="1315"
     inkscape:window-x="0"
     inkscape:window-y="1"
     inkscape:window-maximized="1" />
  <metadata
     id="metadata7">
    <rdf:RDF>
      <cc:Work
         rdf:about="">
        <dc:format>image/svg+xml</dc:format>
        <dc:type
           rdf:resource="http://purl.org/dc/dcmitype/StillImage" />
        <dc:title></dc:title>
      </cc:Work>
    </rdf:RDF>
  </metadata>
  <g
     inkscape:label="Layer 1"
     inkscape:groupmode="layer"
     id="layer1">
    <path
       style="fill:none;fill-rule:evenodd;stroke:#000000;stroke-width:3.02150297px;stroke-linecap:butt;stroke-linejoin:miter;stroke-opacity:1"
       d="M  0 , 795.524206545188 C  -16.1396496381473 , 795.524206545188 -92.2431435179112 , 792.627826851567 -140.486146900588 , 702.509624967642 -188.729150283264 , 612.391423083717 -164.722121260071 , 511.338456830738 -155.702608734221 , 464.410675405609 -146.683096208371 , 417.48289398048 -133.789961288195 , 379.209655648224 -121.985821752232 , 294.503993170731 -110.181682216269 , 209.798330693239 -111.578712029753 , 183.855951962501 -102.965674596723 , 154.169834150728 -94.3526371636931 , 124.483716338954 -87.748716982891 , 111.813070594174 -81.9001361402129 , 100.828856812203 -76.0515552975347 , 89.8446430302311 -32.2266610164606 , 7.50078915470634 55.6532448060796 , 3.09076780054189 143.53315062862 , -1.31925355362256 218.950696157491 , 65.2110054790406 231.291770356367 , 155.501209390541 243.632844555244 , 245.79141330204 175.074584719826 , 315.432623465234 166.715242210481 , 323.925001134392 158.355899701137 , 332.417378803549 138.477629767606 , 352.003606576726 104.636834148275 , 370.229344253314 70.7960385289434 , 388.455081929902 31.8031794240465 , 399.474627597357 -55.9747250144701 , 404.468264362975 -143.752629452987 , 409.461901128592 -183.619921648815 , 386.963950359404 -205.53646382234 , 363.965641086076 -227.453005995865 , 340.967331812748 -231.576316624037 , 316.544766713982 -232.406152972974 , 304.59721535319 -233.23598932191 , 292.649663992398 -233.718335298804 , 251.346549060601 -191.1313300409 , 222.630521736765 -148.544324782996 , 193.914494412929 -108.628039057343 , 205.513670733704 -42.5962646157058 , 211.933832667172 23.4355098259316 , 218.353994600639 41.0368796517362 , 209.51216560043 117.196855028048 , 228.814169232577 193.35683040436 , 248.116172864723 283.749034232851 , 291.820284880497 323.342019336986 , 381.00723747058 362.935004441121 , 470.194190060663 334.176745785747 , 543.801315758542 330.492962381541 , 553.231761184721 326.809178977336 , 562.6622066109 309.372903483275 , 606.718849082866 263.310938598465 , 636.583046126612 217.248973713656 , 666.447243170357 143.095106456861 , 673.766749908391 85.6938515219938 , 624.735175742696 28.2925965871266 , 575.703601577 36.424357545225 , 521.207892683178 33.8385746240898 , 458.220991312687 31.2527917029546 , 395.234089942196 22.4158147632836 , 391.055690352925 20.2226431352612 , 305.2204295277 18.0294715072387 , 219.385168702474 30.1147125523492 , 189.259101997983 2.93344082497281 , 126.949233528884 -24.2478309024036 , 64.6393650597851 -84.3372423114965 , -1.13854360685485 -181.249902142866 , 19.5031028779751 -278.162561974236 , 40.144749362805 -335.737511772042 , 128.19271512362 -355.174280575773 , 209.025989989791 -374.611049379504 , 289.859264855963 -356.410171303645 , 355.242784661075 -346.611503247829 , 382.882485664812 -336.812835192014 , 410.522186668549 -313.727211723314 , 462.507133186437 -260.951059562103 , 499.8244749075 -208.174907400892 , 537.141816628563 -154.93034381823 , 542.582375595063 -59.9675552096108 , 535.66822638677 34.9952333990084 , 528.754077178476 62.6787113358126 , 519.411864982383 103.191414098034 , 538.267142931973 143.704116860255 , 557.122420881563 158.423664202814 , 588.644447343119 162.463080380623 , 597.848155071777 166.502496558432 , 607.051862800436 194.323506918206 , 672.884415283858 143.425129952477 , 733.977370986446 92.5267529867486 , 795.070326689034 16.1396496381473 , 795.524206545188 0 , 795.524206545188 Z "
       id="path4217"
       inkscape:connector-curvature="0"
       sodipodi:nodetypes="zzzzzzzzzzzzzzzzzzzzzzzzzzzzzzzz" />
  </g>
</svg>
