<?xml version="1.0" encoding="UTF-8" standalone="no"?>
<!-- Created with Inkscape (http://www.inkscape.org/) -->

<svg
   xmlns:dc="http://purl.org/dc/elements/1.1/"
   xmlns:cc="http://creativecommons.org/ns#"
   xmlns:rdf="http://www.w3.org/1999/02/22-rdf-syntax-ns#"
   xmlns:svg="http://www.w3.org/2000/svg"
   xmlns="http://www.w3.org/2000/svg"
   xmlns:sodipodi="http://sodipodi.sourceforge.net/DTD/sodipodi-0.dtd"
   xmlns:inkscape="http://www.inkscape.org/namespaces/inkscape"
   width="210mm"
   height="297mm"
   viewBox="0 0 744.09448819 1052.3622047"
   id="svg2"
   version="1.1"
   inkscape:version="0.91 r13725"
   sodipodi:docname="9_33.svg">
  <defs
     id="defs4" />
  <sodipodi:namedview
     id="base"
     pagecolor="#ffffff"
     bordercolor="#666666"
     borderopacity="1.0"
     inkscape:pageopacity="0.0"
     inkscape:pageshadow="2"
     inkscape:zoom="1.5982422"
     inkscape:cx="231.0919"
     inkscape:cy="770.27496"
     inkscape:document-units="px"
     inkscape:current-layer="layer1"
     showgrid="false"
     inkscape:window-width="2560"
     inkscape:window-height="1315"
     inkscape:window-x="0"
     inkscape:window-y="1"
     inkscape:window-maximized="1" />
  <metadata
     id="metadata7">
    <rdf:RDF>
      <cc:Work
         rdf:about="">
        <dc:format>image/svg+xml</dc:format>
        <dc:type
           rdf:resource="http://purl.org/dc/dcmitype/StillImage" />
        <dc:title></dc:title>
      </cc:Work>
    </rdf:RDF>
  </metadata>
  <g
     inkscape:label="Layer 1"
     inkscape:groupmode="layer"
     id="layer1">
    <path
       style="fill:none;fill-rule:evenodd;stroke:#000000;stroke-width:3.02150297px;stroke-linecap:butt;stroke-linejoin:miter;stroke-opacity:1"
       d="M  0 , 809.107587844796 C  -13.9687002064367 , 809.107587844796 -95.020882024608 , 807.517463263491 -148.231567213867 , 710.46688959465 -201.442252403126 , 613.416315925809 -178.523237354082 , 494.860640397525 -172.111819793741 , 459.885094848994 -165.7004022334 , 424.909549300463 -153.78811042846 , 385.943856333639 -139.033688974893 , 287.518630432667 -124.279267521326 , 189.093404531695 -118.284639894299 , 165.295952707344 -109.479082046074 , 142.920833729316 -100.673524197849 , 120.545714751288 -91.9716568458101 , 106.511293604188 -85.4460605475284 , 96.8297102923058 -78.9204642492467 , 87.1481269804236 -30.3646620667645 , 15.1356289861968 54.0993485937062 , 13.3480772531771 138.563359254177 , 11.5605255201574 212.901519691045 , 72.6239476551214 226.588534211541 , 162.282148693825 240.275548732037 , 251.940349732529 177.31366656272 , 317.1692301997 163.813589553287 , 330.665106145987 150.313512543854 , 344.160982092274 131.625668436737 , 360.162340773184 103.384216078098 , 375.229949551804 75.142763719459 , 390.297558330424 21.9941963699614 , 411.566086654102 -69.6023383945738 , 410.597961903572 -161.198873159109 , 409.629837153042 -200.765424672859 , 379.817250075925 -219.760140778917 , 351.691711252553 -238.754856884975 , 323.566172429181 -236.997301081282 , 296.647735098829 -236.13495115024 , 288.220545273831 -235.272601219198 , 279.793355448833 -230.942156374165 , 245.747775057212 -195.997955471236 , 220.186138208348 -161.053754568307 , 194.624501359484 -119.082996218549 , 193.957042625521 -49.8531010725684 , 200.071376425259 19.3767940734122 , 206.185710224997 58.2735535838902 , 207.100677836525 122.24059051101 , 230.493623182058 186.20762743813 , 253.886568527591 263.479766237827 , 298.213063857992 303.60691654973 , 379.242720537499 343.734066861633 , 460.272377217006 327.75830770328 , 528.646567144263 324.937252336046 , 540.484926237499 322.116196968812 , 552.323285330735 309.303114506717 , 603.916509856707 261.90807861296 , 641.870054491625 214.513042719203 , 679.823599126543 138.029767959339 , 692.173491204291 79.9356581501626 , 643.838062065045 21.8415483409862 , 595.502632925799 23.736678149032 , 528.336759809869 23.2343454849515 , 471.055352349458 22.732012820871 , 413.773944889047 19.8048274949127 , 384.013590419709 22.0518236883488 , 302.174644039171 24.2988198817849 , 220.335697658633 28.1629436600314 , 176.374802369241 3.05939808048731 , 122.115804158744 -22.0441474990568 , 67.856805948247 -82.7149802103763 , -0.294726140982212 -184.750674094608 , 23.3447264361438 -286.78636797884 , 46.9841790132698 -340.877164973128 , 140.442314047317 -357.438546163529 , 214.6582190648 -373.99992735393 , 288.874124082283 -356.002392731126 , 349.639538860818 -351.255260170682 , 364.730696066001 -346.508127610238 , 379.821853271184 -328.767550614453 , 433.237197829834 -279.507889157253 , 477.681546500487 -230.248227700053 , 522.12589517114 -176.820307735804 , 536.504396671024 -79.3166016714788 , 539.606410775407 18.1871043928464 , 542.70842487979 49.857748586156 , 541.928695496733 86.1720945850921 , 557.690113488771 122.486440584028 , 573.451531480809 139.876251951044 , 597.368776082429 148.268262524588 , 612.780980353402 156.660273098132 , 628.193184624375 183.341762626801 , 687.155609985059 135.78515868813 , 747.989134712319 88.228554749459 , 808.822659439579 13.9687002064367 , 809.107587844796 0 , 809.107587844796 Z "
       id="path4217"
       inkscape:connector-curvature="0"
       sodipodi:nodetypes="zzzzzzzzzzzzzzzzzzzzzzzzzzzzzzzz" />
  </g>
</svg>
