<?xml version="1.0" encoding="UTF-8" standalone="no"?>
<!-- Created with Inkscape (http://www.inkscape.org/) -->

<svg
   xmlns:dc="http://purl.org/dc/elements/1.1/"
   xmlns:cc="http://creativecommons.org/ns#"
   xmlns:rdf="http://www.w3.org/1999/02/22-rdf-syntax-ns#"
   xmlns:svg="http://www.w3.org/2000/svg"
   xmlns="http://www.w3.org/2000/svg"
   xmlns:sodipodi="http://sodipodi.sourceforge.net/DTD/sodipodi-0.dtd"
   xmlns:inkscape="http://www.inkscape.org/namespaces/inkscape"
   width="210mm"
   height="297mm"
   viewBox="0 0 744.09448819 1052.3622047"
   id="svg2"
   version="1.1"
   inkscape:version="0.91 r13725"
   sodipodi:docname="9_33.svg">
  <defs
     id="defs4" />
  <sodipodi:namedview
     id="base"
     pagecolor="#ffffff"
     bordercolor="#666666"
     borderopacity="1.0"
     inkscape:pageopacity="0.0"
     inkscape:pageshadow="2"
     inkscape:zoom="1.5982422"
     inkscape:cx="231.0919"
     inkscape:cy="770.27496"
     inkscape:document-units="px"
     inkscape:current-layer="layer1"
     showgrid="false"
     inkscape:window-width="2560"
     inkscape:window-height="1315"
     inkscape:window-x="0"
     inkscape:window-y="1"
     inkscape:window-maximized="1" />
  <metadata
     id="metadata7">
    <rdf:RDF>
      <cc:Work
         rdf:about="">
        <dc:format>image/svg+xml</dc:format>
        <dc:type
           rdf:resource="http://purl.org/dc/dcmitype/StillImage" />
        <dc:title></dc:title>
      </cc:Work>
    </rdf:RDF>
  </metadata>
  <g
     inkscape:label="Layer 1"
     inkscape:groupmode="layer"
     id="layer1">
    <path
       style="fill:none;fill-rule:evenodd;stroke:#000000;stroke-width:3.02150297px;stroke-linecap:butt;stroke-linejoin:miter;stroke-opacity:1"
       d="M  0 , 807.092123071743 C  -14.0100914762894 , 807.092123071743 -93.8775106323536 , 805.466007464849 -146.259417805155 , 709.551708372902 -198.641324977957 , 613.637409280955 -176.767035195995 , 497.657336968062 -170.285542047549 , 460.947291871069 -163.804048899102 , 424.237246774077 -152.105191926403 , 386.250304140757 -137.937885608601 , 287.980762521861 -123.770579290798 , 189.711220902964 -118.106045212425 , 166.178548170984 -109.414478984622 , 143.581537792924 -100.722912756819 , 120.984527414865 -92.1213906369737 , 106.892681864818 -85.496108526634 , 96.936554660188 -78.8708264162943 , 86.9804274555584 -30.9866241973517 , 15.0673556284418 53.249780955735 , 12.4776634564634 137.486186108822 , 9.88797128448489 212.915832469738 , 70.3026751702416 227.291889369178 , 160.227538397501 241.667946268618 , 250.152401624761 178.598477821675 , 316.151337247838 165.647784070444 , 329.282290693363 152.697090319213 , 342.413244138887 134.200205504196 , 358.641876414689 105.828035264498 , 374.094911111202 77.4558650248005 , 389.547945807716 24.5444751705342 , 411.196618636494 -67.2707017900899 , 411.062260813281 -159.085878750714 , 410.927902990067 -198.968747345861 , 381.452044825704 -218.259619123978 , 353.641699984673 -237.550490902094 , 325.831355143642 -236.243463610658 , 299.129492750373 -235.510670113715 , 290.657064219064 -234.777876616771 , 282.184635687756 -230.922943670144 , 247.763073441515 -195.933854910183 , 221.676436880528 -160.944766150223 , 195.589800319541 -118.655709369926 , 194.64086588229 -49.1090276603761 , 200.308896516491 20.4376540491735 , 205.976927150691 59.2391117540548 , 206.525895075632 123.287754329314 , 229.239778905099 187.336396904574 , 251.953662734565 266.900908808462 , 296.085841889068 307.244396626229 , 379.162863945366 347.587884443996 , 462.239886001665 329.357548380062 , 531.676496248032 326.228421940761 , 543.394840135654 323.09929550146 , 555.113184023276 309.304926830966 , 604.543521058472 263.157575966093 , 640.637366413118 217.01022510122 , 676.731211767764 141.668857209753 , 689.848407653878 83.5827323734608 , 642.004176519021 25.4966075371688 , 594.159945384164 26.868351259313 , 527.348785564634 26.0411437378002 , 470.306049936237 25.2139362162874 , 413.263314307839 21.8943294985866 , 385.902881639867 23.5085528361614 , 303.114082236132 25.1227761737362 , 220.325282832397 28.914382174029 , 176.239206841767 2.90929481192449 , 121.356868063285 -23.09579255018 , 66.4745292848034 -83.615341283933 , 1.40673368487571 -183.086136106924 , 23.5927038295757 -282.556930929915 , 45.7786739742757 -338.382981717835 , 135.568477787212 -356.448162910687 , 212.202087899811 -374.513344103539 , 288.835698012411 -355.959756582787 , 350.948661208395 -349.470345557224 , 370.302360532406 -342.98093453166 , 389.656059856417 -323.641390791475 , 440.74921256756 -274.825386133113 , 482.559943940653 -226.00938147475 , 524.370675313746 -173.819193528623 , 538.001327120374 -76.4322869532696 , 539.85985641572 20.9546196220841 , 541.718385711065 52.7306480014583 , 540.652730705365 89.0570166700953 , 556.182387274905 125.383385338732 , 571.712043844445 142.537917525424 , 595.593151212996 150.570032287143 , 610.135122238021 158.602147048863 , 624.677093263045 186.353751898152 , 683.789198933683 138.124916140262 , 745.274278662195 89.8960803823725 , 806.759358390706 14.0100914762894 , 807.092123071743 0 , 807.092123071743 Z "
       id="path4217"
       inkscape:connector-curvature="0"
       sodipodi:nodetypes="zzzzzzzzzzzzzzzzzzzzzzzzzzzzzzzz" />
  </g>
</svg>
