<?xml version="1.0" encoding="UTF-8" standalone="no"?>
<!-- Created with Inkscape (http://www.inkscape.org/) -->

<svg
   xmlns:dc="http://purl.org/dc/elements/1.1/"
   xmlns:cc="http://creativecommons.org/ns#"
   xmlns:rdf="http://www.w3.org/1999/02/22-rdf-syntax-ns#"
   xmlns:svg="http://www.w3.org/2000/svg"
   xmlns="http://www.w3.org/2000/svg"
   xmlns:sodipodi="http://sodipodi.sourceforge.net/DTD/sodipodi-0.dtd"
   xmlns:inkscape="http://www.inkscape.org/namespaces/inkscape"
   width="210mm"
   height="297mm"
   viewBox="0 0 744.09448819 1052.3622047"
   id="svg2"
   version="1.1"
   inkscape:version="0.91 r13725"
   sodipodi:docname="9_34.svg">
  <defs
     id="defs4" />
  <sodipodi:namedview
     id="base"
     pagecolor="#ffffff"
     bordercolor="#666666"
     borderopacity="1.0"
     inkscape:pageopacity="0.0"
     inkscape:pageshadow="2"
     inkscape:zoom="1.4336814"
     inkscape:cx="59.173182"
     inkscape:cy="833.4905"
     inkscape:document-units="px"
     inkscape:current-layer="layer1"
     showgrid="false"
     inkscape:window-width="2560"
     inkscape:window-height="1315"
     inkscape:window-x="0"
     inkscape:window-y="1"
     inkscape:window-maximized="1" />
  <metadata
     id="metadata7">
    <rdf:RDF>
      <cc:Work
         rdf:about="">
        <dc:format>image/svg+xml</dc:format>
        <dc:type
           rdf:resource="http://purl.org/dc/dcmitype/StillImage" />
        <dc:title />
      </cc:Work>
    </rdf:RDF>
  </metadata>
  <g
     inkscape:label="Layer 1"
     inkscape:groupmode="layer"
     id="layer1">
    <path
       style="fill:none;fill-rule:evenodd;stroke:#ff0000;stroke-width:18.00291252;stroke-linecap:butt;stroke-linejoin:miter;stroke-miterlimit:4;stroke-dasharray:none;stroke-opacity:1"
       d="M  371.333591529831 , 370.935107189667 C  371.134663505734 , 389.826267800232 368.859924037055 , 481.014500835718 299.147414925267 , 547.400785207577 229.434905813479 , 613.787069579436 153.904087239988 , 603.960535792343 71.676339546048 , 574.766935130824 -10.5514081478921 , 545.573334469305 -29.862790505369 , 489.218804451646 -33.632764805393 , 477.365822428886 -37.402739105417 , 465.512840406126 -44.2161588389292 , 438.627679814852 -33.0937147011816 , 404.225231439402 -21.971270563434 , 369.822783063952 -0.563622374715891 , 350.467965233628 44.1801466767075 , 311.117503414165 88.9239157281309 , 271.767041594702 118.90584249792 , 253.497181083579 147.805795235946 , 197.863558873549 176.705747973972 , 142.229936663519 190.019171875894 , 62.5321452730393 137.979013523293 , -2.987978208867 85.9388551706917 , -68.5081016907733 13.6530499867255 , -69.4550471096091 0 , -69.4550471096091 -13.6530499867255 , -69.4550471096091 -85.9388551706917 , -68.5081016907733 -137.979013523293 , -2.987978208867 -190.019171875894 , 62.5321452730393 -176.705747973972 , 142.229936663519 -147.805795235946 , 197.863558873549 -118.90584249792 , 253.497181083579 -88.9239157281309 , 271.767041594702 -44.1801466767075 , 311.117503414165 0.563622374715891 , 350.467965233628 21.971270563434 , 369.822783063952 33.0937147011816 , 404.225231439402 44.2161588389292 , 438.627679814852 37.402739105417 , 465.512840406126 33.632764805393 , 477.365822428886 29.862790505369 , 489.218804451646 10.5514081478921 , 545.573334469305 -71.676339546048 , 574.766935130824 -153.904087239988 , 603.960535792343 -229.434905813479 , 613.787069579436 -299.147414925267 , 547.400785207577 -368.859924037055 , 481.014500835718 -371.134663505734 , 389.826267800232 -371.333591529831 , 370.935107189667 -371.532519553928 , 352.043946579102 -371.255733080846 , 260.693104515619 -302.148806957126 , 184.512345459472 -233.041880833406 , 108.331586403325 -141.481843573667 , 107.127110376377 -80.2712298824912 , 125.678044123012 -19.0606161913154 , 144.228977869647 1.07957683750401 , 174.474428103461 45.8691184399087 , 220.734324015516 90.6586600423134 , 266.994219927571 120.135076471203 , 295.394986806055 140.420415218814 , 349.824843978002 160.705753966425 , 404.254701149949 163.992205409187 , 442.535422474768 164.177421368725 , 510.542733961416 164.362637328263 , 578.550045448064 168.644667353389 , 650.982563017712 107.376041363351 , 704.573345381946 46.1074153733135 , 758.16412774618 -46.1074153733135 , 758.16412774618 -107.376041363351 , 704.573345381946 -168.644667353389 , 650.982563017712 -164.362637328263 , 578.550045448064 -164.177421368725 , 510.542733961416 -163.992205409187 , 442.535422474768 -160.705753966425 , 404.254701149949 -140.420415218814 , 349.824843978002 -120.135076471203 , 295.394986806055 -90.6586600423134 , 266.994219927571 -45.8691184399087 , 220.734324015516 -1.07957683750401 , 174.474428103461 19.0606161913154 , 144.228977869647 80.2712298824912 , 125.678044123012 141.481843573667 , 107.127110376377 233.041880833406 , 108.331586403325 302.148806957126 , 184.512345459472 371.255733080846 , 260.693104515619 371.532519553928 , 352.043946579102 371.333591529831 , 370.935107189667 Z "
       id="path4201"
       inkscape:connector-curvature="0"
       sodipodi:nodetypes="zzzzzzzzzzzzzzzzzzzzzzzzzzzzzz" />
  </g>
</svg>
