<?xml version="1.0" encoding="UTF-8" standalone="no"?>
<!-- Created with Inkscape (http://www.inkscape.org/) -->

<svg
   xmlns:dc="http://purl.org/dc/elements/1.1/"
   xmlns:cc="http://creativecommons.org/ns#"
   xmlns:rdf="http://www.w3.org/1999/02/22-rdf-syntax-ns#"
   xmlns:svg="http://www.w3.org/2000/svg"
   xmlns="http://www.w3.org/2000/svg"
   xmlns:sodipodi="http://sodipodi.sourceforge.net/DTD/sodipodi-0.dtd"
   xmlns:inkscape="http://www.inkscape.org/namespaces/inkscape"
   width="210mm"
   height="297mm"
   viewBox="0 0 744.09448819 1052.3622047"
   id="svg2"
   version="1.1"
   inkscape:version="0.92.2 5c3e80d, 2017-08-06"
   sodipodi:docname="9_34.svg">
  <defs
     id="defs4" />
  <sodipodi:namedview
     id="base"
     pagecolor="#ffffff"
     bordercolor="#666666"
     borderopacity="1.0"
     inkscape:pageopacity="0.0"
     inkscape:pageshadow="2"
     inkscape:zoom="1.4336814"
     inkscape:cx="31.27298"
     inkscape:cy="777.6901"
     inkscape:document-units="px"
     inkscape:current-layer="layer1"
     showgrid="false"
     inkscape:window-width="2560"
     inkscape:window-height="1315"
     inkscape:window-x="0"
     inkscape:window-y="1"
     inkscape:window-maximized="1" />
  <metadata
     id="metadata7">
    <rdf:RDF>
      <cc:Work
         rdf:about="">
        <dc:format>image/svg+xml</dc:format>
        <dc:type
           rdf:resource="http://purl.org/dc/dcmitype/StillImage" />
        <dc:title />
      </cc:Work>
    </rdf:RDF>
  </metadata>
  <g
     inkscape:label="Layer 1"
     inkscape:groupmode="layer"
     id="layer1">
    <path
       style="fill:none;fill-rule:evenodd;stroke:#ff0000;stroke-width:18.00291252;stroke-linecap:butt;stroke-linejoin:miter;stroke-miterlimit:4;stroke-dasharray:none;stroke-opacity:1"
       d="M  370.13814879479 , 368.985568896012 C  369.895109640067 , 392.279795194677 366.282297592776 , 484.124438601413 296.07004661057 , 549.9159663312 225.857795628363 , 615.707494060988 151.717213689617 , 603.785023390915 71.0994741242856 , 573.52530891199 -9.51826544104568 , 543.265594433066 -28.8869382278108 , 490.439560300451 -33.375565607589 , 476.643382648603 -37.8641929873673 , 462.847204996754 -43.9530899473886 , 436.293945800634 -32.9278913522641 , 403.342670766381 -21.9026927571396 , 370.391395732128 -0.887735067458991 , 349.90309324351 44.0684475877793 , 312.045737769564 89.0246302430177 , 274.188382295619 110.452786902895 , 256.842802949581 128.821730740664 , 232.396886529273 147.190674578433 , 207.950970108965 155.544698430257 , 186.057381561263 158.956642115546 , 176.634425468836 162.368585800836 , 167.211469376409 195.864760057252 , 74.7763661869029 142.399651656137 , 0.837477222548103 88.9345432550226 , -73.1014117418067 14.0221696804991 , -73.7340617683618 0 , -73.7340617683618 -14.0221696804991 , -73.7340617683618 -88.9345432550226 , -73.1014117418067 -142.399651656137 , 0.837477222548103 -195.864760057252 , 74.7763661869029 -162.368585800836 , 167.211469376409 -158.956642115546 , 176.634425468836 -155.544698430257 , 186.057381561263 -147.190674578433 , 207.950970108965 -128.821730740664 , 232.396886529273 -110.452786902895 , 256.842802949581 -89.0246302430177 , 274.188382295619 -44.0684475877793 , 312.045737769564 0.887735067458991 , 349.90309324351 21.9026927571396 , 370.391395732128 32.9278913522641 , 403.342670766381 43.9530899473886 , 436.293945800634 37.8641929873673 , 462.847204996754 33.375565607589 , 476.643382648603 28.8869382278108 , 490.439560300451 9.51826544104567 , 543.265594433066 -71.0994741242856 , 573.52530891199 -151.717213689617 , 603.785023390915 -225.857795628363 , 615.707494060988 -296.07004661057 , 549.9159663312 -366.282297592776 , 484.124438601413 -369.895109640067 , 392.279795194677 -370.13814879479 , 368.985568896012 -370.381187949513 , 345.691342597346 -368.939720654623 , 257.12196696946 -301.10394378121 , 180.639875213529 -233.268166907797 , 104.157783457599 -141.807211411079 , 105.405779076912 -81.0244688950394 , 125.420882414876 -20.2417263790003 , 145.435985752839 1.59861498878368 , 176.086383133478 45.0758310762365 , 222.238802987237 88.5530471636894 , 268.391222840996 115.575152704296 , 297.027251559051 134.929098537727 , 341.681518885152 154.283044371159 , 386.335786211253 159.58065218468 , 426.582530520931 160.344592514014 , 432.382284793211 161.108532843349 , 438.182039065492 164.258514708738 , 462.069221615975 164.032249296231 , 514.316128306237 163.805983883725 , 566.5630349965 165.33060535976 , 641.371604554803 119.422963968154 , 693.045902102584 73.5153225765486 , 744.720199650364 17.559169071357 , 747.321286694482 0 , 747.321286694482 -17.559169071357 , 747.321286694482 -73.5153225765486 , 744.720199650364 -119.422963968154 , 693.045902102584 -165.33060535976 , 641.371604554803 -163.805983883725 , 566.5630349965 -164.032249296231 , 514.316128306237 -164.258514708738 , 462.069221615975 -161.108532843349 , 438.182039065492 -160.344592514014 , 432.382284793211 -159.58065218468 , 426.582530520931 -154.283044371159 , 386.335786211253 -134.929098537727 , 341.681518885152 -115.575152704296 , 297.027251559051 -88.5530471636894 , 268.391222840996 -45.0758310762365 , 222.238802987237 -1.59861498878368 , 176.086383133478 20.2417263790003 , 145.435985752839 81.0244688950394 , 125.420882414876 141.807211411079 , 105.405779076912 233.268166907797 , 104.157783457599 301.10394378121 , 180.639875213529 368.939720654623 , 257.12196696946 370.381187949513 , 345.691342597346 370.13814879479 , 368.985568896012 Z "
       id="path4201"
       inkscape:connector-curvature="0"
       sodipodi:nodetypes="zzzzzzzzzzzzzzzzzzzzzzzzzzzzzzzzzzz" />
  </g>
</svg>
