<?xml version="1.0" encoding="UTF-8" standalone="no"?>
<!-- Created with Inkscape (http://www.inkscape.org/) -->

<svg
   xmlns:dc="http://purl.org/dc/elements/1.1/"
   xmlns:cc="http://creativecommons.org/ns#"
   xmlns:rdf="http://www.w3.org/1999/02/22-rdf-syntax-ns#"
   xmlns:svg="http://www.w3.org/2000/svg"
   xmlns="http://www.w3.org/2000/svg"
   xmlns:sodipodi="http://sodipodi.sourceforge.net/DTD/sodipodi-0.dtd"
   xmlns:inkscape="http://www.inkscape.org/namespaces/inkscape"
   width="210mm"
   height="297mm"
   viewBox="0 0 744.09448819 1052.3622047"
   id="svg2"
   version="1.1"
   inkscape:version="0.92.2 5c3e80d, 2017-08-06"
   sodipodi:docname="9_34.svg">
  <defs
     id="defs4" />
  <sodipodi:namedview
     id="base"
     pagecolor="#ffffff"
     bordercolor="#666666"
     borderopacity="1.0"
     inkscape:pageopacity="0.0"
     inkscape:pageshadow="2"
     inkscape:zoom="1.4336814"
     inkscape:cx="31.27298"
     inkscape:cy="777.6901"
     inkscape:document-units="px"
     inkscape:current-layer="layer1"
     showgrid="false"
     inkscape:window-width="2560"
     inkscape:window-height="1315"
     inkscape:window-x="0"
     inkscape:window-y="1"
     inkscape:window-maximized="1" />
  <metadata
     id="metadata7">
    <rdf:RDF>
      <cc:Work
         rdf:about="">
        <dc:format>image/svg+xml</dc:format>
        <dc:type
           rdf:resource="http://purl.org/dc/dcmitype/StillImage" />
        <dc:title />
      </cc:Work>
    </rdf:RDF>
  </metadata>
  <g
     inkscape:label="Layer 1"
     inkscape:groupmode="layer"
     id="layer1">
    <path
       style="fill:none;fill-rule:evenodd;stroke:#ff0000;stroke-width:18.00291252;stroke-linecap:butt;stroke-linejoin:miter;stroke-miterlimit:4;stroke-dasharray:none;stroke-opacity:1"
       d="M  365.007665518697 , 371.662448035738 C  364.130177101884 , 391.271377460875 358.708723676088 , 475.071252144048 294.978908170511 , 541.388751411011 231.249092664934 , 607.706250677974 150.400898245844 , 613.319742412697 68.7776235073772 , 584.528153825526 -12.84565123109 , 555.736565238355 -28.40787046802 , 498.114009935144 -31.7145546415375 , 483.769945067337 -35.0212388150549 , 469.425880199529 -37.256803130012 , 448.501729993351 -29.5393450943127 , 421.950550927588 -21.8218870586134 , 395.399371861826 -5.66761443958202 , 368.523204112872 47.0759528416318 , 318.96057447346 99.8195201228457 , 269.397944834048 120.710458943112 , 246.417743304329 136.561389406354 , 222.968768416858 152.412319869597 , 199.519793529387 159.305190574189 , 181.324979272457 162.589176441759 , 172.039029804516 165.873162309329 , 162.753080336575 195.970430270823 , 77.6942735714636 143.682606277605 , 4.45019378038639 91.3947822843874 , -68.7938860106908 11.0729521603581 , -69.0985752509291 0 , -69.0985752509291 -11.0729521603581 , -69.0985752509291 -91.3947822843874 , -68.7938860106908 -143.682606277605 , 4.45019378038639 -195.970430270823 , 77.6942735714636 -165.873162309329 , 162.753080336575 -162.589176441759 , 172.039029804516 -159.305190574189 , 181.324979272457 -152.412319869597 , 199.519793529387 -136.561389406354 , 222.968768416858 -120.710458943112 , 246.417743304329 -99.8195201228457 , 269.397944834048 -47.0759528416318 , 318.96057447346 5.66761443958202 , 368.523204112872 21.8218870586134 , 395.399371861826 29.5393450943127 , 421.950550927588 37.256803130012 , 448.501729993351 35.0212388150549 , 469.425880199529 31.7145546415375 , 483.769945067337 28.40787046802 , 498.114009935144 12.84565123109 , 555.736565238355 -68.7776235073772 , 584.528153825526 -150.400898245844 , 613.319742412697 -231.249092664934 , 607.706250677974 -294.978908170511 , 541.388751411011 -358.708723676088 , 475.071252144048 -364.130177101884 , 391.271377460875 -365.007665518697 , 371.662448035738 -365.88515393551 , 352.0535186106 -367.916628370649 , 259.941385899966 -299.29851774632 , 180.275544734233 -230.68040712199 , 100.6097035685 -141.099831889932 , 100.709230722378 -84.0353205003209 , 116.907123719624 -26.9708091107097 , 133.10501671687 5.42656779252171 , 163.590731297821 49.3358268958384 , 211.222741522734 93.2450859991551 , 258.854751747648 126.454915540097 , 304.649249670783 143.884284038112 , 345.896417173266 161.313652536126 , 387.143584675749 166.765633883743 , 421.421201016173 168.312639103212 , 431.409418697845 169.85964432268 , 441.397636379517 174.387008153502 , 471.801418447429 172.54045549582 , 518.139650533214 170.693902838137 , 564.477882618999 166.179593466074 , 638.762724270983 117.617272281275 , 688.564160448664 69.0549510964763 , 738.365596626345 12.2063928324369 , 739.039593507888 0 , 739.039593507888 -12.2063928324369 , 739.039593507888 -69.0549510964762 , 738.365596626345 -117.617272281275 , 688.564160448664 -166.179593466074 , 638.762724270983 -170.693902838137 , 564.477882618999 -172.54045549582 , 518.139650533214 -174.387008153502 , 471.801418447429 -169.85964432268 , 441.397636379517 -168.312639103212 , 431.409418697845 -166.765633883743 , 421.421201016173 -161.313652536126 , 387.143584675749 -143.884284038112 , 345.896417173266 -126.454915540097 , 304.649249670783 -93.2450859991551 , 258.854751747648 -49.3358268958384 , 211.222741522734 -5.42656779252171 , 163.590731297821 26.9708091107097 , 133.10501671687 84.0353205003209 , 116.907123719624 141.099831889932 , 100.709230722378 230.68040712199 , 100.6097035685 299.29851774632 , 180.275544734233 367.916628370649 , 259.941385899966 365.88515393551 , 352.0535186106 365.007665518697 , 371.662448035738 Z "
       id="path4201"
       inkscape:connector-curvature="0"
       sodipodi:nodetypes="zzzzzzzzzzzzzzzzzzzzzzzzzzzzzzzzzzz" />
  </g>
</svg>
