<?xml version="1.0" encoding="UTF-8" standalone="no"?>
<!-- Created with Inkscape (http://www.inkscape.org/) -->

<svg
   xmlns:dc="http://purl.org/dc/elements/1.1/"
   xmlns:cc="http://creativecommons.org/ns#"
   xmlns:rdf="http://www.w3.org/1999/02/22-rdf-syntax-ns#"
   xmlns:svg="http://www.w3.org/2000/svg"
   xmlns="http://www.w3.org/2000/svg"
   xmlns:sodipodi="http://sodipodi.sourceforge.net/DTD/sodipodi-0.dtd"
   xmlns:inkscape="http://www.inkscape.org/namespaces/inkscape"
   width="744.09448819"
   height="1052.3622047"
   id="svg2"
   version="1.1"
   inkscape:version="0.48.4 r9939"
   sodipodi:docname="9_35.svg">
  <defs
     id="defs4" />
  <sodipodi:namedview
     id="base"
     pagecolor="#ffffff"
     bordercolor="#666666"
     borderopacity="1.0"
     inkscape:pageopacity="0.0"
     inkscape:pageshadow="2"
     inkscape:zoom="0.65272989"
     inkscape:cx="201.1105"
     inkscape:cy="1006.7822"
     inkscape:document-units="px"
     inkscape:current-layer="layer1"
     showgrid="false"
     inkscape:window-width="1600"
     inkscape:window-height="824"
     inkscape:window-x="-3"
     inkscape:window-y="-3"
     inkscape:window-maximized="1" />
  <metadata
     id="metadata7">
    <rdf:RDF>
      <cc:Work
         rdf:about="">
        <dc:format>image/svg+xml</dc:format>
        <dc:type
           rdf:resource="http://purl.org/dc/dcmitype/StillImage" />
        <dc:title></dc:title>
      </cc:Work>
    </rdf:RDF>
  </metadata>
  <g
     inkscape:label="Layer 1"
     inkscape:groupmode="layer"
     id="layer1">
    <path
       style="fill:none;stroke:#000000;stroke-width:3.02148795px;stroke-linecap:butt;stroke-linejoin:miter;stroke-opacity:1"
       d="M  75.3861626333748 , -326.22319712963 C  123.769365334562 , -301.327613631439 146.062289888068 , -265.077906280079 225.354120289743 , -133.725979191983 304.645950691418 , -2.3740521038867 342.734271851438 , 15.358279522027 351.264172098123 , 93.8986773743082 359.794072344808 , 172.439075226589 316.690795429572 , 242.580721377233 250.49001071352 , 269.072100653567 184.289225997468 , 295.5634799299 124.32992048743 , 269.940234681567 65.7864544450685 , 233.826478486956 7.2429884027066 , 197.712722292345 -36.4968724700387 , 151.695191468702 -27.9507227355362 , 80.1150462460879 -19.4045730010336 , 8.53490102347385 19.4045730010336 , -8.53490102347385 27.9507227355362 , -80.1150462460879 36.4968724700387 , -151.695191468702 -7.2429884027066 , -197.712722292345 -65.7864544450685 , -233.826478486956 -124.32992048743 , -269.940234681567 -184.289225997468 , -295.5634799299 -250.49001071352 , -269.072100653567 -316.690795429572 , -242.580721377233 -359.794072344808 , -172.439075226589 -351.264172098123 , -93.8986773743082 -342.734271851438 , -15.358279522027 -304.645950691418 , 2.37405210388673 -225.354120289743 , 133.725979191983 -146.062289888068 , 265.077906280079 -123.769365334562 , 301.327613631439 -75.3861626333748 , 326.22319712963 -27.0029599321876 , 351.118780627822 27.0029599321876 , 351.118780627822 75.3861626333748 , 326.22319712963 123.769365334562 , 301.327613631439 146.062289888068 , 265.077906280079 225.354120289743 , 133.725979191983 304.645950691418 , 2.3740521038867 342.734271851438 , -15.358279522027 351.264172098123 , -93.8986773743082 359.794072344808 , -172.439075226589 316.690795429572 , -242.580721377233 250.49001071352 , -269.072100653567 184.289225997468 , -295.5634799299 124.32992048743 , -269.940234681567 65.7864544450685 , -233.826478486956 7.2429884027066 , -197.712722292345 -36.4968724700387 , -151.695191468702 -27.9507227355362 , -80.1150462460879 -19.4045730010336 , -8.53490102347385 19.4045730010336 , 8.53490102347385 27.9507227355362 , 80.1150462460879 36.4968724700387 , 151.695191468702 -7.2429884027066 , 197.712722292345 -65.7864544450685 , 233.826478486956 -124.32992048743 , 269.940234681567 -184.289225997468 , 295.5634799299 -250.49001071352 , 269.072100653567 -316.690795429572 , 242.580721377233 -359.794072344808 , 172.439075226589 -351.264172098123 , 93.8986773743082 -342.734271851438 , 15.358279522027 -304.645950691418 , -2.37405210388674 -225.354120289743 , -133.725979191983 -146.062289888068 , -265.077906280079 -123.769365334562 , -301.327613631439 -75.3861626333748 , -326.22319712963 -27.0029599321876 , -351.118780627822 27.0029599321876 , -351.118780627822 75.3861626333748 , -326.22319712963 Z "
       id="path3050"
       inkscape:connector-curvature="0"
       sodipodi:nodetypes="zzzzzzzzzzzzzzzzzzzzzzzzz" />
  </g>
</svg>
