<?xml version="1.0" encoding="UTF-8" standalone="no"?>
<!-- Created with Inkscape (http://www.inkscape.org/) -->

<svg
   xmlns:dc="http://purl.org/dc/elements/1.1/"
   xmlns:cc="http://creativecommons.org/ns#"
   xmlns:rdf="http://www.w3.org/1999/02/22-rdf-syntax-ns#"
   xmlns:svg="http://www.w3.org/2000/svg"
   xmlns="http://www.w3.org/2000/svg"
   xmlns:sodipodi="http://sodipodi.sourceforge.net/DTD/sodipodi-0.dtd"
   xmlns:inkscape="http://www.inkscape.org/namespaces/inkscape"
   width="744.09448819"
   height="1052.3622047"
   id="svg2"
   version="1.1"
   inkscape:version="0.48.4 r9939"
   sodipodi:docname="9_35.svg">
  <defs
     id="defs4" />
  <sodipodi:namedview
     id="base"
     pagecolor="#ffffff"
     bordercolor="#666666"
     borderopacity="1.0"
     inkscape:pageopacity="0.0"
     inkscape:pageshadow="2"
     inkscape:zoom="0.65272989"
     inkscape:cx="201.1105"
     inkscape:cy="1006.7822"
     inkscape:document-units="px"
     inkscape:current-layer="layer1"
     showgrid="false"
     inkscape:window-width="1600"
     inkscape:window-height="824"
     inkscape:window-x="-3"
     inkscape:window-y="-3"
     inkscape:window-maximized="1" />
  <metadata
     id="metadata7">
    <rdf:RDF>
      <cc:Work
         rdf:about="">
        <dc:format>image/svg+xml</dc:format>
        <dc:type
           rdf:resource="http://purl.org/dc/dcmitype/StillImage" />
        <dc:title></dc:title>
      </cc:Work>
    </rdf:RDF>
  </metadata>
  <g
     inkscape:label="Layer 1"
     inkscape:groupmode="layer"
     id="layer1">
    <path
       style="fill:none;stroke:#000000;stroke-width:3.02148795px;stroke-linecap:butt;stroke-linejoin:miter;stroke-opacity:1"
       d="M  83.5136145527682 , -323.787619614262 C  134.20570404714 , -285.449777401365 128.556773242323 , -247.703971592472 202.390506191109 , -120.485342109796 276.224239139895 , 6.73328737287957 320.625774931236 , -3.61165563776277 342.496438704508 , 82.3872717824595 364.36710247778 , 168.386199202682 315.337980627591 , 246.947681969235 244.069142624473 , 271.430834865848 172.800304621354 , 295.913987762461 120.006557152932 , 261.499402858962 64.8835109348932 , 228.413072475955 9.76046471685453 , 195.326742092948 -50.0600918684634 , 148.691931930842 -37.1415026988526 , 72.3303206154692 -24.2229135292418 , -4.03129069990339 24.2229135292418 , 4.03129069990339 37.1415026988526 , -72.3303206154692 50.0600918684634 , -148.691931930842 -9.76046471685452 , -195.326742092948 -64.8835109348932 , -228.413072475955 -120.006557152932 , -261.499402858962 -172.800304621355 , -295.913987762461 -244.069142624473 , -271.430834865848 -315.337980627591 , -246.947681969235 -364.36710247778 , -168.386199202682 -342.496438704508 , -82.3872717824595 -320.625774931236 , 3.61165563776277 -276.224239139895 , -6.73328737287957 -202.390506191109 , 120.485342109796 -128.556773242323 , 247.703971592472 -134.20570404714 , 285.449777401365 -83.5136145527682 , 323.787619614262 -32.8215250583965 , 362.125461827158 32.8215250583965 , 362.125461827158 83.5136145527682 , 323.787619614262 134.20570404714 , 285.449777401365 128.556773242323 , 247.703971592472 202.390506191109 , 120.485342109796 276.224239139895 , -6.73328737287957 320.625774931236 , 3.61165563776277 342.496438704508 , -82.3872717824595 364.36710247778 , -168.386199202682 315.337980627591 , -246.947681969235 244.069142624473 , -271.430834865848 172.800304621354 , -295.913987762461 120.006557152932 , -261.499402858962 64.8835109348932 , -228.413072475955 9.76046471685453 , -195.326742092948 -50.0600918684634 , -148.691931930842 -37.1415026988526 , -72.3303206154692 -24.2229135292418 , 4.03129069990339 24.2229135292418 , -4.03129069990339 37.1415026988526 , 72.3303206154692 50.0600918684634 , 148.691931930842 -9.76046471685452 , 195.326742092948 -64.8835109348932 , 228.413072475955 -120.006557152932 , 261.499402858962 -172.800304621355 , 295.913987762461 -244.069142624473 , 271.430834865848 -315.337980627591 , 246.947681969235 -364.36710247778 , 168.386199202682 -342.496438704508 , 82.3872717824595 -320.625774931236 , -3.61165563776277 -276.224239139895 , 6.73328737287957 -202.390506191109 , -120.485342109796 -128.556773242323 , -247.703971592472 -134.20570404714 , -285.449777401365 -83.5136145527682 , -323.787619614262 -32.8215250583965 , -362.125461827158 32.8215250583965 , -362.125461827158 83.5136145527682 , -323.787619614262 Z "
       id="path3050"
       inkscape:connector-curvature="0"
       sodipodi:nodetypes="zzzzzzzzzzzzzzzzzzzzzzzzz" />
  </g>
</svg>
