<?xml version="1.0" encoding="UTF-8" standalone="no"?>
<!-- Created with Inkscape (http://www.inkscape.org/) -->

<svg
   xmlns:dc="http://purl.org/dc/elements/1.1/"
   xmlns:cc="http://creativecommons.org/ns#"
   xmlns:rdf="http://www.w3.org/1999/02/22-rdf-syntax-ns#"
   xmlns:svg="http://www.w3.org/2000/svg"
   xmlns="http://www.w3.org/2000/svg"
   xmlns:sodipodi="http://sodipodi.sourceforge.net/DTD/sodipodi-0.dtd"
   xmlns:inkscape="http://www.inkscape.org/namespaces/inkscape"
   width="744.09448819"
   height="1052.3622047"
   id="svg2"
   version="1.1"
   inkscape:version="0.48.4 r9939"
   sodipodi:docname="9_35.svg">
  <defs
     id="defs4" />
  <sodipodi:namedview
     id="base"
     pagecolor="#ffffff"
     bordercolor="#666666"
     borderopacity="1.0"
     inkscape:pageopacity="0.0"
     inkscape:pageshadow="2"
     inkscape:zoom="0.65272989"
     inkscape:cx="201.1105"
     inkscape:cy="1006.7822"
     inkscape:document-units="px"
     inkscape:current-layer="layer1"
     showgrid="false"
     inkscape:window-width="1600"
     inkscape:window-height="824"
     inkscape:window-x="-3"
     inkscape:window-y="-3"
     inkscape:window-maximized="1" />
  <metadata
     id="metadata7">
    <rdf:RDF>
      <cc:Work
         rdf:about="">
        <dc:format>image/svg+xml</dc:format>
        <dc:type
           rdf:resource="http://purl.org/dc/dcmitype/StillImage" />
        <dc:title></dc:title>
      </cc:Work>
    </rdf:RDF>
  </metadata>
  <g
     inkscape:label="Layer 1"
     inkscape:groupmode="layer"
     id="layer1">
    <path
       style="fill:none;stroke:#000000;stroke-width:3.02148795px;stroke-linecap:butt;stroke-linejoin:miter;stroke-opacity:1"
       d="M  73.6940154778663 , -324.892053622693 C  121.07870902212 , -301.156849676982 143.712755060187 , -267.781970704603 225.260638594029 , -135.673658039895 306.808522127871 , -3.56534537518661 346.150547018288 , 16.3742936105382 354.451114555601 , 94.8980063967776 362.751682092914 , 173.421719183017 320.382353302073 , 243.267281262778 252.34119939517 , 269.550984684383 184.300045488267 , 295.834688105988 123.490186181674 , 267.871281716773 66.3448179295395 , 231.604402847461 9.19944967740548 , 195.337523978149 -35.0301372054908 , 150.378187135792 -27.2613995297062 , 79.6689083363748 -19.4926618539216 , 8.95962953695761 19.4926618539216 , -8.95962953695761 27.2613995297062 , -79.6689083363748 35.0301372054908 , -150.378187135792 -9.19944967740548 , -195.337523978149 -66.3448179295395 , -231.604402847461 -123.490186181674 , -267.871281716773 -184.300045488267 , -295.834688105988 -252.34119939517 , -269.550984684383 -320.382353302073 , -243.267281262778 -362.751682092914 , -173.421719183017 -354.451114555601 , -94.8980063967776 -346.150547018288 , -16.3742936105382 -306.808522127871 , 3.56534537518658 -225.260638594029 , 135.673658039895 -143.712755060187 , 267.781970704603 -121.07870902212 , 301.156849676982 -73.6940154778663 , 324.892053622693 -26.3093219336126 , 348.627257568404 26.3093219336126 , 348.627257568404 73.6940154778663 , 324.892053622693 121.07870902212 , 301.156849676982 143.712755060187 , 267.781970704603 225.260638594029 , 135.673658039895 306.808522127871 , 3.56534537518661 346.150547018288 , -16.3742936105382 354.451114555601 , -94.8980063967776 362.751682092914 , -173.421719183017 320.382353302073 , -243.267281262778 252.34119939517 , -269.550984684383 184.300045488267 , -295.834688105988 123.490186181674 , -267.871281716773 66.3448179295395 , -231.604402847461 9.19944967740548 , -195.337523978149 -35.0301372054908 , -150.378187135792 -27.2613995297062 , -79.6689083363748 -19.4926618539216 , -8.95962953695761 19.4926618539216 , 8.95962953695761 27.2613995297062 , 79.6689083363748 35.0301372054908 , 150.378187135792 -9.19944967740548 , 195.337523978149 -66.3448179295395 , 231.604402847461 -123.490186181674 , 267.871281716773 -184.300045488267 , 295.834688105988 -252.34119939517 , 269.550984684383 -320.382353302073 , 243.267281262778 -362.751682092914 , 173.421719183017 -354.451114555601 , 94.8980063967776 -346.150547018288 , 16.3742936105382 -306.808522127871 , -3.56534537518659 -225.260638594029 , -135.673658039895 -143.712755060187 , -267.781970704603 -121.07870902212 , -301.156849676982 -73.6940154778663 , -324.892053622693 -26.3093219336126 , -348.627257568404 26.3093219336126 , -348.627257568404 73.6940154778663 , -324.892053622693 Z "
       id="path3050"
       inkscape:connector-curvature="0"
       sodipodi:nodetypes="zzzzzzzzzzzzzzzzzzzzzzzzz" />
  </g>
</svg>
