<?xml version="1.0" encoding="UTF-8" standalone="no"?>
<!-- Created with Inkscape (http://www.inkscape.org/) -->

<svg
   xmlns:dc="http://purl.org/dc/elements/1.1/"
   xmlns:cc="http://creativecommons.org/ns#"
   xmlns:rdf="http://www.w3.org/1999/02/22-rdf-syntax-ns#"
   xmlns:svg="http://www.w3.org/2000/svg"
   xmlns="http://www.w3.org/2000/svg"
   xmlns:sodipodi="http://sodipodi.sourceforge.net/DTD/sodipodi-0.dtd"
   xmlns:inkscape="http://www.inkscape.org/namespaces/inkscape"
   width="210mm"
   height="297mm"
   viewBox="0 0 744.09448819 1052.3622047"
   id="svg2"
   version="1.1"
   inkscape:version="0.91 r13725"
   sodipodi:docname="9_36.svg">
  <defs
     id="defs4" />
  <sodipodi:namedview
     id="base"
     pagecolor="#ffffff"
     bordercolor="#666666"
     borderopacity="1.0"
     inkscape:pageopacity="0.0"
     inkscape:pageshadow="2"
     inkscape:zoom="7.4242507"
     inkscape:cx="51.251968"
     inkscape:cy="751.08539"
     inkscape:document-units="px"
     inkscape:current-layer="layer1"
     showgrid="false"
     inkscape:window-width="1301"
     inkscape:window-height="744"
     inkscape:window-x="65"
     inkscape:window-y="24"
     inkscape:window-maximized="1" />
  <metadata
     id="metadata7">
    <rdf:RDF>
      <cc:Work
         rdf:about="">
        <dc:format>image/svg+xml</dc:format>
        <dc:type
           rdf:resource="http://purl.org/dc/dcmitype/StillImage" />
        <dc:title />
      </cc:Work>
    </rdf:RDF>
  </metadata>
  <g
     inkscape:label="Layer 1"
     inkscape:groupmode="layer"
     id="layer1">
    <path
       style="fill:none;fill-rule:evenodd;stroke:#00ff00;stroke-width:7.09958601;stroke-linecap:butt;stroke-linejoin:miter;stroke-miterlimit:4.19999981;stroke-dasharray:none;stroke-opacity:1"
       d="M  -88.001733259148 , -133.215130125147 C  38.4469953179087 , -103.94517607633 56.9053344967104 , -17.55239853659 156.425317480914 , 56.2236678365869 255.945300465118 , 129.999734209764 286.351320723928 , 138.437946647802 310.60575180735 , 185.798121297493 334.860182890773 , 233.158295947184 331.026428301327 , 284.16943742524 304.879515437169 , 325.964360697161 278.732602573011 , 367.759283969082 250.835498577799 , 376.386715289212 141.706264973231 , 444.627899909849 32.5770313686641 , 512.869084530486 34.1963712457497 , 542.470090186303 -28.7540129739772 , 562.101309604958 -91.7043971937041 , 581.732529023613 -137.539440965503 , 556.288735054074 -149.665546618347 , 549.061487992381 -161.79165227119 , 541.834240930688 -200.93304438619 , 516.26865278993 -216.36024378456 , 461.886285015815 -231.787443182929 , 407.503917241699 -219.312464495093 , 347.419300487894 -148.335345275862 , 268.982926383532 -77.3582260566301 , 190.54655227917 -20.5412503129084 , 186.403594642563 0 , 186.403594642563 20.5412503129084 , 186.403594642563 54.8613379060169 , 188.528739480528 95.6557618853345 , 206.699546081228 136.450185864652 , 224.870352681929 164.096011338457 , 252.303274377832 208.913391265287 , 313.567891578345 253.730771192117 , 374.832508778858 277.127940480549 , 404.626090654661 276.794470420231 , 454.315541601536 276.461000359912 , 504.004992548411 249.245901916514 , 533.560465616478 241.881936801586 , 541.174949016614 234.517971686657 , 548.78943241675 187.7496195025 , 596.035568677152 110.556932385348 , 574.025555662075 33.3642452681958 , 552.015542646997 38.1157046207015 , 504.581864198727 -77.5540036249556 , 427.362722610675 -193.223711870613 , 350.143581022623 -258.264259318073 , 349.94810312352 -327.679514290168 , 279.484048835391 -397.094769262263 , 209.019994547263 -407.440409691881 , 118.169138879613 -362.521655821032 , 61.9417887261316 -317.602901950183 , 5.71443857265042 -236.945455397186 , 2.68178754193527 -183.936621865472 , 30.8964990419381 -130.927788333757 , 59.111210541941 -118.171602676327 , 103.565798084262 -98.2575487192679 , 148.741426184638 -78.3434947622092 , 193.917054285013 -59.2930885969199 , 234.58062587267 -26.4935950385668 , 261.986890856832 6.30589851978626 , 289.393155840994 39.2692197548454 , 292.934741291293 45.7330344817702 , 293.598292895113 52.1968492086949 , 294.261844498932 78.1761822075253 , 296.61167643267 107.619144369457 , 285.629679962437 137.062106531388 , 274.647683492203 163.244840663143 , 254.505325061863 211.596368723615 , 195.811433326724 259.947896784087 , 137.117541591584 301.637031298542 , 98.0555084898937 291.808888148982 , 24.0485588589012 281.980744999421 , -49.9583907720913 212.603489134352 , -99.6731822844324 138.583367206828 , -85.4094934532276 64.5632452793048 , -71.1458046220228 48.0915874661279 , -30.1877523518317 -37.0035740507582 , 35.4624147531432 -122.098735567644 , 101.112581858118 -154.96262610594 , 109.12026552155 -188.603790225799 , 107.396646664428 -222.244954345658 , 105.673027807306 -249.310216039531 , 91.4856410661172 -269.456632012973 , 68.2395272081415 -289.603047986415 , 44.9934133501659 -310.220079953715 , -2.49896479853003 -291.980072208659 , -52.1040935958711 -273.740064463603 , -101.709222393212 -214.450461836205 , -162.485084173965 -88.001733259148 , -133.215130125147 Z "
       id="path3401"
       inkscape:connector-curvature="0"
       sodipodi:nodetypes="zzzzzzzzzzzzzzzzzzzzzzzzzzzzzzz" />
  </g>
</svg>
