<?xml version="1.0" encoding="UTF-8" standalone="no"?>
<!-- Created with Inkscape (http://www.inkscape.org/) -->

<svg
   xmlns:dc="http://purl.org/dc/elements/1.1/"
   xmlns:cc="http://creativecommons.org/ns#"
   xmlns:rdf="http://www.w3.org/1999/02/22-rdf-syntax-ns#"
   xmlns:svg="http://www.w3.org/2000/svg"
   xmlns="http://www.w3.org/2000/svg"
   xmlns:sodipodi="http://sodipodi.sourceforge.net/DTD/sodipodi-0.dtd"
   xmlns:inkscape="http://www.inkscape.org/namespaces/inkscape"
   width="210mm"
   height="297mm"
   viewBox="0 0 744.09448819 1052.3622047"
   id="svg2"
   version="1.1"
   inkscape:version="0.91 r13725"
   sodipodi:docname="9_36.svg">
  <defs
     id="defs4" />
  <sodipodi:namedview
     id="base"
     pagecolor="#ffffff"
     bordercolor="#666666"
     borderopacity="1.0"
     inkscape:pageopacity="0.0"
     inkscape:pageshadow="2"
     inkscape:zoom="7.4242507"
     inkscape:cx="51.251968"
     inkscape:cy="751.08539"
     inkscape:document-units="px"
     inkscape:current-layer="layer1"
     showgrid="false"
     inkscape:window-width="1301"
     inkscape:window-height="744"
     inkscape:window-x="65"
     inkscape:window-y="24"
     inkscape:window-maximized="1" />
  <metadata
     id="metadata7">
    <rdf:RDF>
      <cc:Work
         rdf:about="">
        <dc:format>image/svg+xml</dc:format>
        <dc:type
           rdf:resource="http://purl.org/dc/dcmitype/StillImage" />
        <dc:title />
      </cc:Work>
    </rdf:RDF>
  </metadata>
  <g
     inkscape:label="Layer 1"
     inkscape:groupmode="layer"
     id="layer1">
    <path
       style="fill:none;fill-rule:evenodd;stroke:#00ff00;stroke-width:7.09958601;stroke-linecap:butt;stroke-linejoin:miter;stroke-miterlimit:4.19999981;stroke-dasharray:none;stroke-opacity:1"
       d="M  -93.0142537488834 , -145.274134654128 C  9.99772657331377 , -120.671064003487 70.8072077186927 , -41.5034598305107 168.850118446525 , 42.3239639357793 266.893029174358 , 126.151387702069 292.860600761865 , 150.322498068398 309.122606335981 , 193.326839739872 325.384611910098 , 236.331181411346 322.782212850191 , 278.894497810606 305.95219000628 , 316.841295116776 289.122167162368 , 354.788092422946 262.155295526254 , 386.26024808409 150.359877923584 , 460.449631794093 38.5644603209136 , 534.639015504096 22.894603399435 , 558.637953943961 -36.6445285856547 , 568.346367724836 -96.1836605707445 , 578.054781505711 -136.959052283687 , 555.105984673114 -149.517132496092 , 547.44967516123 -162.075212708498 , 539.793365649346 -198.082993076475 , 515.721266149068 -215.183645755404 , 466.094781195201 -232.284298434334 , 416.468296241333 -226.73476428023 , 348.024003620858 -155.822424727669 , 268.819890931617 -84.9100851751087 , 189.615778242376 -18.8132059157495 , 185.981658040583 0 , 185.981658040583 18.8132059157495 , 185.981658040583 54.0444197975413 , 187.793429016534 94.0590879294074 , 205.336936280989 134.073756061274 , 222.880443545443 173.096426368205 , 254.690534377539 216.40302013589 , 314.780910275114 259.709613903576 , 374.871286172689 279.189230415168 , 414.431792426526 274.367932082807 , 460.913397108251 269.546633750447 , 507.395001789977 242.740629854164 , 533.309058485195 234.469879427218 , 540.822657958696 226.199129000272 , 548.336257432197 187.095410944883 , 582.561819933618 120.268133638138 , 573.394077848613 53.4408563313934 , 564.226335763607 25.229418198495 , 521.354011986789 -89.6688088310269 , 441.534527315447 -204.567035860549 , 361.715042644105 -265.6729567165 , 355.83407388447 -330.432603564155 , 284.744595367948 -395.192250411809 , 213.655116851427 -406.898996419454 , 131.306992493369 -367.949580630248 , 70.2851423474977 -329.000164841042 , 9.26329220162603 -254.084433192525 , -0.596579753000826 -199.123463898284 , 24.2521734968807 -144.162494604044 , 49.1009267467622 -121.817020347881 , 96.8294059325754 -97.2900238594141 , 144.418793667148 -72.7630273709471 , 192.008181401721 -53.5542645121432 , 229.565549159712 -23.3831758368951 , 255.296361107573 6.78791283835299 , 281.027173055435 36.6320914816964 , 286.734082550174 43.6827098411925 , 288.027011664339 50.7333282006886 , 289.319940778504 74.7266255521658 , 293.314076939782 103.943506223152 , 285.722692841611 133.160386894137 , 278.13130874344 171.497681991892 , 258.370701412067 220.371667424155 , 198.032638940523 269.245652856419 , 137.694576468978 298.870513099304 , 86.4746150651412 283.38979523405 , 24.0172390768461 267.909077368795 , -38.440136911449 210.885424243776 , -78.2121682768203 147.089270943624 , -74.3035391361973 83.2931176434708 , -70.3949099955743 44.5614908684108 , -30.5105631292763 -42.2929411950783 , 31.9546458695941 -129.147373258567 , 94.4198548684645 -171.594233500888 , 99.8615287832379 -196.027664421006 , 99.5281583679268 -220.461095341124 , 99.1947879526157 -247.915087705373 , 91.8198623007066 -271.601240186383 , 71.7187918799904 -295.287392667393 , 51.6177214592743 -330.512790926159 , 1.31200782395389 -302.656526792783 , -64.6658702964085 -274.800262659406 , -130.643748416771 -196.026234071081 , -169.877205304768 -93.0142537488834 , -145.274134654128 Z "
       id="path3401"
       inkscape:connector-curvature="0"
       sodipodi:nodetypes="zzzzzzzzzzzzzzzzzzzzzzzzzzzzzzz" />
  </g>
</svg>
