<?xml version="1.0" encoding="UTF-8" standalone="no"?>
<!-- Created with Inkscape (http://www.inkscape.org/) -->

<svg
   xmlns:dc="http://purl.org/dc/elements/1.1/"
   xmlns:cc="http://creativecommons.org/ns#"
   xmlns:rdf="http://www.w3.org/1999/02/22-rdf-syntax-ns#"
   xmlns:svg="http://www.w3.org/2000/svg"
   xmlns="http://www.w3.org/2000/svg"
   xmlns:sodipodi="http://sodipodi.sourceforge.net/DTD/sodipodi-0.dtd"
   xmlns:inkscape="http://www.inkscape.org/namespaces/inkscape"
   width="210mm"
   height="297mm"
   viewBox="0 0 744.09448819 1052.3622047"
   id="svg2"
   version="1.1"
   inkscape:version="0.91 r13725"
   sodipodi:docname="9_36.svg">
  <defs
     id="defs4" />
  <sodipodi:namedview
     id="base"
     pagecolor="#ffffff"
     bordercolor="#666666"
     borderopacity="1.0"
     inkscape:pageopacity="0.0"
     inkscape:pageshadow="2"
     inkscape:zoom="7.4242507"
     inkscape:cx="51.251968"
     inkscape:cy="751.08539"
     inkscape:document-units="px"
     inkscape:current-layer="layer1"
     showgrid="false"
     inkscape:window-width="1301"
     inkscape:window-height="744"
     inkscape:window-x="65"
     inkscape:window-y="24"
     inkscape:window-maximized="1" />
  <metadata
     id="metadata7">
    <rdf:RDF>
      <cc:Work
         rdf:about="">
        <dc:format>image/svg+xml</dc:format>
        <dc:type
           rdf:resource="http://purl.org/dc/dcmitype/StillImage" />
        <dc:title />
      </cc:Work>
    </rdf:RDF>
  </metadata>
  <g
     inkscape:label="Layer 1"
     inkscape:groupmode="layer"
     id="layer1">
    <path
       style="fill:none;fill-rule:evenodd;stroke:#00ff00;stroke-width:7.09958601;stroke-linecap:butt;stroke-linejoin:miter;stroke-miterlimit:4.19999981;stroke-dasharray:none;stroke-opacity:1"
       d="M  -82.6947073747731 , -142.720745762666 C  24.410460791279 , -111.474541573767 68.2173246982825 , -38.8451246054455 167.902306967572 , 43.751500615979 267.587289236861 , 126.348125837403 293.024893067463 , 151.005599748616 309.008440813171 , 193.303742532224 324.99198855888 , 235.601885315831 322.54795740353 , 276.618993947954 305.929078635264 , 315.056154037175 289.310199866998 , 353.493314126397 260.712871093891 , 385.848360061094 149.82710171088 , 460.106658788459 38.9413323278683 , 534.364957515824 20.3185252610869 , 558.788894802389 -37.5923075524877 , 568.262048224334 -95.5031403660622 , 577.735201646278 -136.54786793567 , 555.276279788265 -149.439460737625 , 547.54084020622 -162.33105353958 , 539.805400624174 -197.968520179162 , 516.02647972034 -215.364291981271 , 467.53899828348 -232.760063783379 , 419.05151684662 -227.621205340431 , 349.719949492326 -155.399884033838 , 269.745464740933 -83.1785627272447 , 189.77097998954 -18.179873265493 , 186.686512299488 0 , 186.686512299488 18.179873265493 , 186.686512299488 53.3688836171923 , 188.464836316351 93.7509443130526 , 205.709445131748 134.133005008913 , 222.954053947145 172.214109927208 , 253.410083061569 216.30856303212 , 314.318253310083 260.403016137033 , 375.226423558598 278.782667611828 , 414.854870512219 274.058673476079 , 460.884365764496 269.334679340331 , 506.913861016774 242.637743912978 , 533.379500792902 234.764270199607 , 540.721426843231 226.890796486236 , 548.063352893561 187.339460825367 , 583.725179724778 119.829893991456 , 573.79167374286 52.3203271575452 , 563.858167760943 28.6453690396909 , 522.020066656266 -89.1646854673637 , 443.527482798822 -206.974739974418 , 365.034898941377 -267.391680062087 , 356.143975711526 -329.115713972495 , 287.346477410368 -390.839747882904 , 218.54897910921 -404.869661075079 , 135.851645544274 -368.18107689757 , 73.851212956998 -331.49249272006 , 11.8507803697218 -256.610111909904 , -1.89791209585832 -200.692664285348 , 23.6841490803798 -144.775216660791 , 49.266210256618 -123.666740358756 , 97.0564706105102 -98.5471944489804 , 145.872713421748 -73.4276485392049 , 194.688956232986 -54.0461025144965 , 229.828440244616 -23.4253785934888 , 255.371245790172 7.19534532751891 , 280.914051335728 36.3700357485393 , 286.555696668382 43.7777466124145 , 287.919901778182 51.1854574762897 , 289.284106887983 74.780347336191 , 293.171434445125 104.182404995659 , 285.706067987272 133.584462655127 , 278.24070152942 171.811802765838 , 259.12414447281 220.637974713056 , 198.878981959981 269.464146660273 , 138.633819447151 299.236637129178 , 87.2033608526465 283.745451178823 , 24.728024325779 268.254265228469 , -37.7473122010886 210.879945388069 , -78.3845601925898 146.239043430976 , -73.6383907056562 81.5981414738827 , -68.8922212187227 45.6194686126711 , -29.4173439490985 -42.4043845724951 , 32.7590317104759 -130.428237757661 , 94.9354073700502 -172.755806597362 , 99.6645783280559 -196.94194499186 , 99.1748115971177 -221.128083386358 , 98.6850448661794 -247.093090602586 , 91.6492248712943 -270.627333183727 , 72.3053570470517 -294.161575764868 , 52.9614892228092 -332.098625130935 , 1.79118674726471 -303.128380458878 , -65.7859253980912 -274.158135786821 , -133.363037543447 -189.799875540825 , -173.966949951565 -82.6947073747731 , -142.720745762666 Z "
       id="path3401"
       inkscape:connector-curvature="0"
       sodipodi:nodetypes="zzzzzzzzzzzzzzzzzzzzzzzzzzzzzzz" />
  </g>
</svg>
