<?xml version="1.0" encoding="UTF-8" standalone="no"?>
<!-- Created with Inkscape (http://www.inkscape.org/) -->

<svg
   xmlns:dc="http://purl.org/dc/elements/1.1/"
   xmlns:cc="http://creativecommons.org/ns#"
   xmlns:rdf="http://www.w3.org/1999/02/22-rdf-syntax-ns#"
   xmlns:svg="http://www.w3.org/2000/svg"
   xmlns="http://www.w3.org/2000/svg"
   xmlns:sodipodi="http://sodipodi.sourceforge.net/DTD/sodipodi-0.dtd"
   xmlns:inkscape="http://www.inkscape.org/namespaces/inkscape"
   width="210mm"
   height="297mm"
   viewBox="0 0 744.09448819 1052.3622047"
   id="svg2"
   version="1.1"
   inkscape:version="0.91 r13725"
   sodipodi:docname="9_37.svg">
  <defs
     id="defs4" />
  <sodipodi:namedview
     id="base"
     pagecolor="#ffffff"
     bordercolor="#666666"
     borderopacity="1.0"
     inkscape:pageopacity="0.0"
     inkscape:pageshadow="2"
     inkscape:zoom="0.66127996"
     inkscape:cx="-113.3459"
     inkscape:cy="861.54163"
     inkscape:document-units="px"
     inkscape:current-layer="layer1"
     showgrid="false"
     inkscape:window-width="1301"
     inkscape:window-height="744"
     inkscape:window-x="65"
     inkscape:window-y="24"
     inkscape:window-maximized="1" />
  <metadata
     id="metadata7">
    <rdf:RDF>
      <cc:Work
         rdf:about="">
        <dc:format>image/svg+xml</dc:format>
        <dc:type
           rdf:resource="http://purl.org/dc/dcmitype/StillImage" />
        <dc:title></dc:title>
      </cc:Work>
    </rdf:RDF>
  </metadata>
  <g
     inkscape:label="Layer 1"
     inkscape:groupmode="layer"
     id="layer1">
    <path
       style="fill:none;fill-rule:evenodd;stroke:#0000ff;stroke-width:9;stroke-linecap:butt;stroke-linejoin:miter;stroke-miterlimit:4;stroke-dasharray:none;stroke-opacity:1"
       d="M  0 , -20.9465443932602 C  10.765898654743 , -20.9465443932602 49.529484607388 , -20.5438448439301 95.3347982165224 , -1.41396356096414 141.140111825657 , 17.7159177220018 188.505745678829 , 54.8910665218433 232.167662703671 , 118.649420415106 275.829579728513 , 182.407774308369 310.6798818447 , 272.904740539404 310.755814465468 , 394.568557866385 310.831747086236 , 516.232375193366 268.825992806373 , 692.4691581819 135.874646008756 , 730.489595162868 2.92329921113975 , 768.510032143836 -29.4064699643902 , 661.233529274011 -32.0824661100195 , 652.300602580328 -34.7584622556489 , 643.367675886645 -43.497973498338 , 611.993314341416 -27.6306833935572 , 566.852952190639 -11.7633932887765 , 521.712590039862 11.8282400588871 , 499.487935997445 24.3889631859742 , 462.475278478274 36.9496863130612 , 425.462620959103 35.895468255755 , 395.140534135006 25.4630163742317 , 362.801620902884 15.0305644927084 , 330.462707670762 -4.70049858723334 , 309.730351609502 -38.1745391120996 , 255.698691899056 -71.6485796369658 , 201.667032188611 -74.4532572614863 , 176.005369595312 -112.692673235851 , 114.985288946051 -150.932089210216 , 53.9652082967905 -203.447546031114 , -0.381920030406494 -274.255862115953 , 5.39768870859969 -345.064178200792 , 11.1772974476059 -386.379799266377 , 78.3413139783058 -364.117028246255 , 140.280851974941 -341.854257226133 , 202.220389971576 -270.420482939191 , 236.821326778281 -181.822248983831 , 223.640437521052 -93.2240150284706 , 210.459548263822 -66.0419482513922 , 187.931366832434 0 , 187.931366832434 66.0419482513922 , 187.931366832434 93.2240150284706 , 210.459548263822 181.822248983831 , 223.640437521052 270.420482939191 , 236.821326778281 341.854257226133 , 202.220389971576 364.117028246255 , 140.280851974941 386.379799266377 , 78.3413139783058 345.064178200792 , 11.1772974476059 274.255862115953 , 5.39768870859969 203.447546031114 , -0.381920030406494 150.932089210216 , 53.9652082967905 112.692673235851 , 114.985288946051 74.4532572614863 , 176.005369595312 71.6485796369658 , 201.667032188611 38.1745391120996 , 255.698691899056 4.70049858723333 , 309.730351609502 -15.0305644927084 , 330.462707670762 -25.4630163742317 , 362.801620902884 -35.895468255755 , 395.140534135006 -36.9496863130612 , 425.462620959103 -24.3889631859742 , 462.475278478274 -11.8282400588871 , 499.487935997445 11.7633932887765 , 521.712590039862 27.6306833935572 , 566.852952190639 43.497973498338 , 611.993314341416 34.7584622556489 , 643.367675886645 32.0824661100195 , 652.300602580328 29.4064699643902 , 661.233529274011 -2.92329921113978 , 768.510032143836 -135.874646008756 , 730.489595162868 -268.825992806373 , 692.4691581819 -310.831747086236 , 516.232375193366 -310.755814465468 , 394.568557866385 -310.6798818447 , 272.904740539404 -275.829579728513 , 182.407774308369 -232.167662703671 , 118.649420415106 -188.505745678829 , 54.8910665218433 -141.140111825657 , 17.7159177220018 -95.3347982165224 , -1.41396356096414 -49.529484607388 , -20.5438448439301 -10.765898654743 , -20.9465443932602 0 , -20.9465443932602 Z "
       id="path3401"
       inkscape:connector-curvature="0"
       sodipodi:nodetypes="zzzzzzzzzzzzzzzzzzzzzzzzzzzzz" />
  </g>
</svg>
