<?xml version="1.0" encoding="UTF-8" standalone="no"?>
<!-- Created with Inkscape (http://www.inkscape.org/) -->

<svg
   xmlns:dc="http://purl.org/dc/elements/1.1/"
   xmlns:cc="http://creativecommons.org/ns#"
   xmlns:rdf="http://www.w3.org/1999/02/22-rdf-syntax-ns#"
   xmlns:svg="http://www.w3.org/2000/svg"
   xmlns="http://www.w3.org/2000/svg"
   xmlns:sodipodi="http://sodipodi.sourceforge.net/DTD/sodipodi-0.dtd"
   xmlns:inkscape="http://www.inkscape.org/namespaces/inkscape"
   width="210mm"
   height="297mm"
   viewBox="0 0 744.09448819 1052.3622047"
   id="svg2"
   version="1.1"
   inkscape:version="0.91 r13725"
   sodipodi:docname="9_37.svg">
  <defs
     id="defs4" />
  <sodipodi:namedview
     id="base"
     pagecolor="#ffffff"
     bordercolor="#666666"
     borderopacity="1.0"
     inkscape:pageopacity="0.0"
     inkscape:pageshadow="2"
     inkscape:zoom="0.66127996"
     inkscape:cx="-113.3459"
     inkscape:cy="861.54163"
     inkscape:document-units="px"
     inkscape:current-layer="layer1"
     showgrid="false"
     inkscape:window-width="1301"
     inkscape:window-height="744"
     inkscape:window-x="65"
     inkscape:window-y="24"
     inkscape:window-maximized="1" />
  <metadata
     id="metadata7">
    <rdf:RDF>
      <cc:Work
         rdf:about="">
        <dc:format>image/svg+xml</dc:format>
        <dc:type
           rdf:resource="http://purl.org/dc/dcmitype/StillImage" />
        <dc:title></dc:title>
      </cc:Work>
    </rdf:RDF>
  </metadata>
  <g
     inkscape:label="Layer 1"
     inkscape:groupmode="layer"
     id="layer1">
    <path
       style="fill:none;fill-rule:evenodd;stroke:#0000ff;stroke-width:9;stroke-linecap:butt;stroke-linejoin:miter;stroke-miterlimit:4;stroke-dasharray:none;stroke-opacity:1"
       d="M  0 , -24.6681562549269 C  8.19286639000312 , -24.6681562549269 48.9571143216586 , -24.600984751805 96.0247142619907 , -3.04706281105335 143.092314202323 , 18.5068591296983 187.119474248288 , 60.9403618751682 227.597570451405 , 122.308674048841 268.075666654522 , 183.676986222514 304.617397526374 , 269.204027894049 305.773680835418 , 392.843497098766 306.929964144463 , 516.482966303482 263.412631784893 , 687.28815928333 136.43375789622 , 729.331765651524 9.45488400754738 , 771.375372019717 -32.2299992305534 , 658.492442318487 -35.076759926414 , 650.740802294272 -37.9235206222747 , 642.989162270058 -51.5173280069562 , 605.079724400927 -31.6727037820753 , 561.755891256235 -11.8280795571944 , 518.432058111542 12.8607949450912 , 510.969752351653 30.7981554307626 , 474.034721881398 48.7355159164339 , 437.099691411144 50.4731000830775 , 399.308130682269 32.9518054894953 , 358.644814212225 15.4305108959131 , 317.981497742181 -8.91781406676099 , 310.387654637077 -45.1042260356368 , 257.587446082956 -81.2906380045126 , 204.787237528835 -77.6024183946443 , 179.508466642317 -115.043309198033 , 116.339808775208 -152.484200001422 , 53.1711509080999 -201.548509337199 , -2.2288047279885 -272.378289353036 , 4.38018379700589 -343.208069368873 , 10.9891723220003 -380.080185630751 , 78.9732568851856 -359.519777976925 , 139.827587909533 -338.959370323099 , 200.681918933881 -269.525127250466 , 241.178282405524 -180.904239111452 , 227.339821768028 -92.2833509724375 , 213.501361130533 -71.5985640438274 , 182.588151232624 0 , 182.588151232624 71.5985640438274 , 182.588151232624 92.2833509724375 , 213.501361130533 180.904239111452 , 227.339821768028 269.525127250466 , 241.178282405524 338.959370323099 , 200.681918933881 359.519777976925 , 139.827587909533 380.080185630751 , 78.9732568851855 343.208069368873 , 10.9891723220003 272.378289353036 , 4.38018379700589 201.548509337199 , -2.22880472798849 152.484200001422 , 53.1711509080999 115.043309198033 , 116.339808775208 77.6024183946444 , 179.508466642317 81.2906380045126 , 204.787237528835 45.1042260356368 , 257.587446082956 8.917814066761 , 310.387654637077 -15.4305108959131 , 317.981497742181 -32.9518054894953 , 358.644814212225 -50.4731000830775 , 399.308130682269 -48.7355159164339 , 437.099691411144 -30.7981554307626 , 474.034721881398 -12.8607949450912 , 510.969752351653 11.8280795571944 , 518.432058111542 31.6727037820753 , 561.755891256235 51.5173280069562 , 605.079724400927 37.9235206222747 , 642.989162270058 35.076759926414 , 650.740802294272 32.2299992305534 , 658.492442318487 -9.45488400754735 , 771.375372019717 -136.43375789622 , 729.331765651524 -263.412631784893 , 687.28815928333 -306.929964144463 , 516.482966303482 -305.773680835418 , 392.843497098766 -304.617397526374 , 269.204027894049 -268.075666654522 , 183.676986222514 -227.597570451405 , 122.308674048841 -187.119474248288 , 60.9403618751682 -143.092314202323 , 18.5068591296983 -96.0247142619907 , -3.04706281105335 -48.9571143216586 , -24.600984751805 -8.19286639000312 , -24.6681562549269 0 , -24.6681562549269 Z "
       id="path3401"
       inkscape:connector-curvature="0"
       sodipodi:nodetypes="zzzzzzzzzzzzzzzzzzzzzzzzzzzzz" />
  </g>
</svg>
