<?xml version="1.0" encoding="UTF-8" standalone="no"?>
<!-- Created with Inkscape (http://www.inkscape.org/) -->

<svg
   xmlns:dc="http://purl.org/dc/elements/1.1/"
   xmlns:cc="http://creativecommons.org/ns#"
   xmlns:rdf="http://www.w3.org/1999/02/22-rdf-syntax-ns#"
   xmlns:svg="http://www.w3.org/2000/svg"
   xmlns="http://www.w3.org/2000/svg"
   xmlns:sodipodi="http://sodipodi.sourceforge.net/DTD/sodipodi-0.dtd"
   xmlns:inkscape="http://www.inkscape.org/namespaces/inkscape"
   width="210mm"
   height="297mm"
   viewBox="0 0 744.09448819 1052.3622047"
   id="svg2"
   version="1.1"
   inkscape:version="0.91 r13725"
   sodipodi:docname="9_38.svg">
  <defs
     id="defs4" />
  <sodipodi:namedview
     id="base"
     pagecolor="#ffffff"
     bordercolor="#666666"
     borderopacity="1.0"
     inkscape:pageopacity="0.0"
     inkscape:pageshadow="2"
     inkscape:zoom="0.75871129"
     inkscape:cx="258.31221"
     inkscape:cy="719.52358"
     inkscape:document-units="px"
     inkscape:current-layer="layer1"
     showgrid="false"
     inkscape:window-width="1301"
     inkscape:window-height="744"
     inkscape:window-x="65"
     inkscape:window-y="24"
     inkscape:window-maximized="1" />
  <metadata
     id="metadata7">
    <rdf:RDF>
      <cc:Work
         rdf:about="">
        <dc:format>image/svg+xml</dc:format>
        <dc:type
           rdf:resource="http://purl.org/dc/dcmitype/StillImage" />
        <dc:title />
      </cc:Work>
    </rdf:RDF>
  </metadata>
  <g
     inkscape:label="Layer 1"
     inkscape:groupmode="layer"
     id="layer1">
    <path
       style="fill:none;fill-rule:evenodd;stroke:#fa0000;stroke-width:19.55168915;stroke-linecap:butt;stroke-linejoin:miter;stroke-miterlimit:4;stroke-dasharray:none;stroke-opacity:1"
       d="M  0 , -49.3684719630997 C  19.6864619248567 , -49.3684719630997 111.188943715988 , -47.7262061985387 185.565363125913 , 27.6297474776642 259.941782535838 , 102.985701153867 255.833951400694 , 178.078045715302 255.657857110099 , 296.326616750005 255.481762819504 , 414.575187784709 257.506301589393 , 488.856095903852 219.975541704946 , 571.939495784183 182.444781820499 , 655.022895664514 104.830631336774 , 733.444215046817 4.71096074507179 , 729.303005454139 -95.4087098466304 , 725.161795861461 -143.368468393848 , 641.46968232081 -122.589126349349 , 572.845463357205 -101.809784304851 , 504.221244393599 -50.2300483036695 , 488.962088862381 4.63070314329557 , 442.744073032796 59.4914545902607 , 396.52605720321 92.8194796756574 , 337.71185808304 111.446953188312 , 267.269120444287 130.074426700966 , 196.826382805534 118.533025909915 , 134.519779981438 80.9446175775332 , 100.356854821097 43.3562092451509 , 66.1939296607565 -9.92445468716281 , 65.9880978385698 -47.4530934329985 , 97.4415697548457 -84.9817321788341 , 128.895041671122 -93.7232036726575 , 176.489802152748 -92.720475186022 , 251.538538137482 -91.7177466993865 , 326.587274122215 -98.3238345353122 , 342.003739392609 -82.0451564001644 , 412.812477707247 -65.7664782650167 , 483.621216021885 -36.2265165431182 , 524.63246416294 -57.9961246194136 , 590.825768984281 -79.765732695709 , 657.019073805623 -162.35266913865 , 704.206508990607 -253.917149894485 , 656.263181845041 -345.481630650321 , 608.319854699474 -391.111372366099 , 480.362185053399 -346.933200066725 , 356.056221193129 -302.755027767352 , 231.750257332859 -202.644519087139 , 195.635425005905 -159.620309190879 , 183.796789543846 -116.596099294619 , 171.958154081786 -90.8063627848708 , 172.726834319901 0 , 172.726834319901 90.8063627848708 , 172.726834319901 128.473704822005 , 164.117290883199 184.463326464099 , 163.420254633323 240.452948106194 , 162.723218383446 300.660497773963 , 163.323164832464 345.290852175052 , 210.158055610527 389.92120657614 , 256.992946388591 392.728464452887 , 327.403304257608 350.556384250456 , 376.548605404149 308.384304048025 , 425.693906550691 240.137554009951 , 433.810088704894 161.061857718732 , 413.844108320826 81.9861614275125 , 393.878127936757 64.009921233756 , 374.511775854591 -13.1854740475925 , 348.647837881392 -90.380869328941 , 322.783899908192 -124.878253933355 , 324.334979226272 -175.334270543976 , 283.652967306804 -225.790287154596 , 242.970955387337 -279.029710731012 , 154.707612854861 -210.429459797647 , 53.2868561777238 -141.829208864281 , -48.1339004994136 -19.6864619248567 , -49.3684719630997 0 , -49.3684719630997 Z "
       id="path4201"
       inkscape:connector-curvature="0"
       sodipodi:nodetypes="zzzzzzzzzzzzzzzzzzzzzzzzz" />
  </g>
</svg>
