<?xml version="1.0" encoding="UTF-8" standalone="no"?>
<!-- Created with Inkscape (http://www.inkscape.org/) -->

<svg
   xmlns:dc="http://purl.org/dc/elements/1.1/"
   xmlns:cc="http://creativecommons.org/ns#"
   xmlns:rdf="http://www.w3.org/1999/02/22-rdf-syntax-ns#"
   xmlns:svg="http://www.w3.org/2000/svg"
   xmlns="http://www.w3.org/2000/svg"
   xmlns:sodipodi="http://sodipodi.sourceforge.net/DTD/sodipodi-0.dtd"
   xmlns:inkscape="http://www.inkscape.org/namespaces/inkscape"
   width="210mm"
   height="297mm"
   viewBox="0 0 744.09448819 1052.3622047"
   id="svg2"
   version="1.1"
   inkscape:version="0.91 r13725"
   sodipodi:docname="9_38.svg">
  <defs
     id="defs4" />
  <sodipodi:namedview
     id="base"
     pagecolor="#ffffff"
     bordercolor="#666666"
     borderopacity="1.0"
     inkscape:pageopacity="0.0"
     inkscape:pageshadow="2"
     inkscape:zoom="0.75871129"
     inkscape:cx="258.31221"
     inkscape:cy="719.52358"
     inkscape:document-units="px"
     inkscape:current-layer="layer1"
     showgrid="false"
     inkscape:window-width="1301"
     inkscape:window-height="744"
     inkscape:window-x="65"
     inkscape:window-y="24"
     inkscape:window-maximized="1" />
  <metadata
     id="metadata7">
    <rdf:RDF>
      <cc:Work
         rdf:about="">
        <dc:format>image/svg+xml</dc:format>
        <dc:type
           rdf:resource="http://purl.org/dc/dcmitype/StillImage" />
        <dc:title />
      </cc:Work>
    </rdf:RDF>
  </metadata>
  <g
     inkscape:label="Layer 1"
     inkscape:groupmode="layer"
     id="layer1">
    <path
       style="fill:none;fill-rule:evenodd;stroke:#fa0000;stroke-width:19.55168915;stroke-linecap:butt;stroke-linejoin:miter;stroke-miterlimit:4;stroke-dasharray:none;stroke-opacity:1"
       d="M  0 , -49.6085105536532 C  18.6642359108529 , -49.6085105536532 112.009487469171 , -48.0345665566205 183.349927320346 , 33.3573851410632 254.690367171521 , 114.749336838747 236.108533490307 , 180.206578586223 239.839876565111 , 295.438826197116 243.571219639915 , 410.671073808009 253.550715511448 , 470.316241836251 223.584836368911 , 551.801800050435 193.618957226374 , 633.287358264618 124.101262537239 , 720.100648630038 19.9107266646649 , 724.420007447025 -84.2798092079091 , 728.739366264012 -139.851235442567 , 636.314415634964 -115.445628875622 , 562.555824868843 -91.0400223086768 , 488.797234102722 -45.714049304981 , 494.716346186965 13.6376126023574 , 444.126805997603 72.9892745096958 , 393.537265808242 93.8700919957177 , 321.282831619871 103.988705027915 , 268.110533044262 114.107318060113 , 214.938234468653 113.650541652114 , 141.372779453149 63.6882187271727 , 101.108419113944 13.7258958022317 , 60.844058774738 -45.9956535076925 , 78.3921102809241 -74.8150280106015 , 116.242582471044 -103.634402513511 , 154.093054661163 -98.9860284684359 , 190.491774316117 -96.548585703877 , 259.097991635698 -94.1111429393181 , 327.704208955279 -108.388555928032 , 341.343361438002 -86.9013671189661 , 414.843615151347 -65.4141783099005 , 488.343868864691 -29.4831710761523 , 502.484268641257 -39.8281336493457 , 572.465139732497 -50.1730962225391 , 642.446010823738 -130.457018730046 , 713.098366321618 -233.197580191779 , 671.602676748265 -335.938141653511 , 630.106987174913 -386.04387033541 , 495.152854429433 -351.56189616821 , 374.226673721371 -317.07992200101 , 253.300493013309 -223.816968839854 , 215.303219530608 -172.491895429599 , 200.153727085799 -121.166822019345 , 185.00423464099 -93.4788491457131 , 191.326969937953 0 , 191.326969937953 93.4788491457131 , 191.326969937953 115.118299537711 , 182.217486351306 173.699277604338 , 177.035599824559 232.280255670965 , 171.853713297812 284.302126003579 , 161.30166956087 334.072647079809 , 201.652538642306 383.843168156039 , 242.003407723742 394.174257206661 , 315.905175986308 348.955293704321 , 368.746207083978 303.736330201982 , 421.587238181649 234.277331133578 , 423.628559063866 157.875728327293 , 403.473929122159 81.4741255210091 , 383.319299180452 67.7323743195866 , 360.550911622221 -13.4990894201153 , 338.387410448191 -94.7305531598172 , 316.223909274161 -116.718853720278 , 334.599332933711 -178.206986964265 , 298.681467959882 -239.695120208251 , 262.763602986053 -307.814816956672 , 174.252121885735 -234.455332176432 , 62.8207086470796 -161.095847396191 , -48.6107045915762 -18.6642359108529 , -49.6085105536532 0 , -49.6085105536532 Z "
       id="path4201"
       inkscape:connector-curvature="0"
       sodipodi:nodetypes="zzzzzzzzzzzzzzzzzzzzzzzzz" />
  </g>
</svg>
