<?xml version="1.0" encoding="UTF-8" standalone="no"?>
<!-- Created with Inkscape (http://www.inkscape.org/) -->

<svg
   xmlns:dc="http://purl.org/dc/elements/1.1/"
   xmlns:cc="http://creativecommons.org/ns#"
   xmlns:rdf="http://www.w3.org/1999/02/22-rdf-syntax-ns#"
   xmlns:svg="http://www.w3.org/2000/svg"
   xmlns="http://www.w3.org/2000/svg"
   xmlns:sodipodi="http://sodipodi.sourceforge.net/DTD/sodipodi-0.dtd"
   xmlns:inkscape="http://www.inkscape.org/namespaces/inkscape"
   width="210mm"
   height="297mm"
   viewBox="0 0 744.09448819 1052.3622047"
   id="svg2"
   version="1.1"
   inkscape:version="0.91 r13725"
   sodipodi:docname="9_39.svg">
  <defs
     id="defs4" />
  <sodipodi:namedview
     id="base"
     pagecolor="#ffffff"
     bordercolor="#666666"
     borderopacity="1.0"
     inkscape:pageopacity="0.0"
     inkscape:pageshadow="2"
     inkscape:zoom="0.55251381"
     inkscape:cx="280.92156"
     inkscape:cy="454.28572"
     inkscape:document-units="px"
     inkscape:current-layer="layer1"
     showgrid="false"
     inkscape:window-width="1301"
     inkscape:window-height="744"
     inkscape:window-x="65"
     inkscape:window-y="24"
     inkscape:window-maximized="1" />
  <metadata
     id="metadata7">
    <rdf:RDF>
      <cc:Work
         rdf:about="">
        <dc:format>image/svg+xml</dc:format>
        <dc:type
           rdf:resource="http://purl.org/dc/dcmitype/StillImage" />
        <dc:title></dc:title>
      </cc:Work>
    </rdf:RDF>
  </metadata>
  <g
     inkscape:label="Layer 1"
     inkscape:groupmode="layer"
     id="layer1">
    <path
       style="fill:none;fill-rule:evenodd;stroke:#000000;stroke-width:1px;stroke-linecap:butt;stroke-linejoin:miter;stroke-opacity:1"
       d="M  0 , 86.7790265056741 C  10.076958565248 , 86.7790265056741 50.0635631090362 , 87.364676164413 90.9781257880086 , 116.242412715085 131.892688466981 , 145.120149265757 147.251291541755 , 177.80034947048 201.241106462361 , 296.320622929505 255.230921382967 , 414.84089638853 296.905374477023 , 482.210152529313 293.178156675483 , 593.610674210861 289.450938873943 , 705.011195892409 227.821920514591 , 815.100434076691 122.727506657066 , 834.333982902801 17.6330927995413 , 853.567531728911 -50.1165087498564 , 764.125473564402 -39.2028758721053 , 687.469743380874 -28.2892429943542 , 610.814013197346 13.3101484995499 , 612.195609873497 50.4270517223612 , 541.12668763518 87.5439549451725 , 470.057765396863 71.9644635975225 , 402.013659185512 51.1900715598252 , 357.108266243263 30.4156795221279 , 312.202873301014 -3.47004220168392 , 274.607032339226 -69.1149655342873 , 227.402026897208 -134.759888866891 , 180.19702145519 -189.283300943232 , 141.173760918304 -261.977833548625 , 163.082552143062 -334.672366154018 , 184.99134336782 -375.268083169372 , 263.448424592105 -345.525461183282 , 338.424905872735 -315.782839197192 , 413.401387153365 -238.0423246414 , 435.81416635798 -173.476380374304 , 445.733020075901 -108.910436107208 , 455.651873793822 -62.706380780171 , 452.04130554582 0 , 452.04130554582 62.706380780171 , 452.04130554582 108.910436107208 , 455.651873793822 173.476380374304 , 445.733020075901 238.0423246414 , 435.81416635798 315.782839197192 , 413.401387153365 345.525461183282 , 338.424905872735 375.268083169372 , 263.448424592105 334.672366154018 , 184.99134336782 261.977833548625 , 163.082552143062 189.283300943232 , 141.173760918304 134.759888866891 , 180.19702145519 69.1149655342873 , 227.402026897208 3.47004220168392 , 274.607032339226 -30.4156795221279 , 312.202873301014 -51.1900715598252 , 357.108266243263 -71.9644635975225 , 402.013659185512 -87.5439549451725 , 470.057765396863 -50.4270517223612 , 541.12668763518 -13.3101484995499 , 612.195609873497 28.2892429943542 , 610.814013197346 39.2028758721053 , 687.469743380874 50.1165087498564 , 764.125473564402 -17.6330927995413 , 853.567531728911 -122.727506657066 , 834.333982902801 -227.821920514591 , 815.100434076691 -289.450938873943 , 705.011195892409 -293.178156675483 , 593.610674210861 -296.905374477023 , 482.210152529313 -255.230921382967 , 414.84089638853 -201.241106462361 , 296.320622929505 -147.251291541755 , 177.80034947048 -131.892688466981 , 145.120149265757 -90.9781257880086 , 116.242412715085 -50.0635631090362 , 87.364676164413 -10.076958565248 , 86.7790265056741 0 , 86.7790265056741 Z "
       id="path4211"
       inkscape:connector-curvature="0"
       sodipodi:nodetypes="zzzzzzzzzzzzzzzzzzzzzzzzz" />
  </g>
</svg>
