<?xml version="1.0" encoding="UTF-8" standalone="no"?>
<!-- Created with Inkscape (http://www.inkscape.org/) -->

<svg
   xmlns:dc="http://purl.org/dc/elements/1.1/"
   xmlns:cc="http://creativecommons.org/ns#"
   xmlns:rdf="http://www.w3.org/1999/02/22-rdf-syntax-ns#"
   xmlns:svg="http://www.w3.org/2000/svg"
   xmlns="http://www.w3.org/2000/svg"
   xmlns:sodipodi="http://sodipodi.sourceforge.net/DTD/sodipodi-0.dtd"
   xmlns:inkscape="http://www.inkscape.org/namespaces/inkscape"
   width="210mm"
   height="297mm"
   viewBox="0 0 744.09448819 1052.3622047"
   id="svg2"
   version="1.1"
   inkscape:version="0.91 r13725"
   sodipodi:docname="9_39.svg">
  <defs
     id="defs4" />
  <sodipodi:namedview
     id="base"
     pagecolor="#ffffff"
     bordercolor="#666666"
     borderopacity="1.0"
     inkscape:pageopacity="0.0"
     inkscape:pageshadow="2"
     inkscape:zoom="0.55251381"
     inkscape:cx="280.92156"
     inkscape:cy="454.28572"
     inkscape:document-units="px"
     inkscape:current-layer="layer1"
     showgrid="false"
     inkscape:window-width="1301"
     inkscape:window-height="744"
     inkscape:window-x="65"
     inkscape:window-y="24"
     inkscape:window-maximized="1" />
  <metadata
     id="metadata7">
    <rdf:RDF>
      <cc:Work
         rdf:about="">
        <dc:format>image/svg+xml</dc:format>
        <dc:type
           rdf:resource="http://purl.org/dc/dcmitype/StillImage" />
        <dc:title></dc:title>
      </cc:Work>
    </rdf:RDF>
  </metadata>
  <g
     inkscape:label="Layer 1"
     inkscape:groupmode="layer"
     id="layer1">
    <path
       style="fill:none;fill-rule:evenodd;stroke:#000000;stroke-width:1px;stroke-linecap:butt;stroke-linejoin:miter;stroke-opacity:1"
       d="M  0 , 90.3961626267829 C  10.8068030589908 , 90.3961626267829 48.027289853176 , 91.117582129701 88.445168826479 , 115.75283901895 128.863047799782 , 140.388095908199 160.682796321948 , 180.050755337561 213.868982191852 , 293.734623985266 267.055168061756 , 407.418492632971 303.536064103689 , 486.326820761533 296.451776437775 , 595.202939600224 289.367488771861 , 704.079058438915 227.518471604317 , 817.752666978664 120.598992313481 , 835.378918592707 13.679513022645 , 853.00517020675 -42.8268843502695 , 769.790645625379 -34.9056420322865 , 699.221284211975 -26.9843997143035 , 628.651922798571 12.1515756435079 , 609.214691287143 44.6380012155123 , 538.530301240878 77.1244267875167 , 467.845911194613 69.0639099065016 , 406.071205996908 50.8532672433119 , 358.487877191674 32.6426245801222 , 310.90454838644 -1.29119733727303 , 267.152431804488 -66.2498324048667 , 220.330032751099 -131.20846747246 , 173.50763369771 -193.442130024367 , 141.940898658174 -262.11642525912 , 165.599622225261 -330.790720493873 , 189.258345792348 -371.025725299711 , 263.185864203812 -344.737725832927 , 337.309697022418 -318.449726366143 , 411.433529841024 -239.455379834899 , 439.434149228875 -171.281161574292 , 449.239210262948 -103.106943313685 , 459.044271297021 -58.6575993672845 , 455.047230677476 0 , 455.047230677476 58.6575993672845 , 455.047230677476 103.106943313685 , 459.044271297021 171.281161574292 , 449.239210262948 239.455379834899 , 439.434149228875 318.449726366143 , 411.433529841024 344.737725832927 , 337.309697022418 371.025725299711 , 263.185864203812 330.790720493873 , 189.258345792348 262.11642525912 , 165.599622225261 193.442130024367 , 141.940898658174 131.20846747246 , 173.50763369771 66.2498324048667 , 220.330032751099 1.29119733727302 , 267.152431804488 -32.6426245801222 , 310.90454838644 -50.8532672433119 , 358.487877191674 -69.0639099065016 , 406.071205996908 -77.1244267875167 , 467.845911194613 -44.6380012155123 , 538.530301240878 -12.1515756435079 , 609.214691287143 26.9843997143035 , 628.651922798571 34.9056420322865 , 699.221284211975 42.8268843502695 , 769.790645625379 -13.679513022645 , 853.00517020675 -120.598992313481 , 835.378918592707 -227.518471604317 , 817.752666978664 -289.367488771861 , 704.079058438915 -296.451776437775 , 595.202939600224 -303.536064103689 , 486.326820761533 -267.055168061756 , 407.418492632971 -213.868982191852 , 293.734623985266 -160.682796321948 , 180.050755337561 -128.863047799782 , 140.388095908199 -88.445168826479 , 115.75283901895 -48.027289853176 , 91.117582129701 -10.8068030589908 , 90.3961626267829 0 , 90.3961626267829 Z "
       id="path4211"
       inkscape:connector-curvature="0"
       sodipodi:nodetypes="zzzzzzzzzzzzzzzzzzzzzzzzz" />
  </g>
</svg>
