<?xml version="1.0" encoding="UTF-8" standalone="no"?>
<!-- Created with Inkscape (http://www.inkscape.org/) -->

<svg
   xmlns:dc="http://purl.org/dc/elements/1.1/"
   xmlns:cc="http://creativecommons.org/ns#"
   xmlns:rdf="http://www.w3.org/1999/02/22-rdf-syntax-ns#"
   xmlns:svg="http://www.w3.org/2000/svg"
   xmlns="http://www.w3.org/2000/svg"
   xmlns:sodipodi="http://sodipodi.sourceforge.net/DTD/sodipodi-0.dtd"
   xmlns:inkscape="http://www.inkscape.org/namespaces/inkscape"
   width="210mm"
   height="297mm"
   viewBox="0 0 744.09448819 1052.3622047"
   id="svg4264"
   version="1.1"
   inkscape:version="0.91 r13725"
   sodipodi:docname="9_4.svg">
  <defs
     id="defs4266" />
  <sodipodi:namedview
     id="base"
     pagecolor="#ffffff"
     bordercolor="#666666"
     borderopacity="1.0"
     inkscape:pageopacity="0.0"
     inkscape:pageshadow="2"
     inkscape:zoom="1.5982422"
     inkscape:cx="283.64964"
     inkscape:cy="756.28358"
     inkscape:document-units="px"
     inkscape:current-layer="layer1"
     showgrid="false"
     inkscape:window-width="2560"
     inkscape:window-height="1315"
     inkscape:window-x="1045"
     inkscape:window-y="230"
     inkscape:window-maximized="0" />
  <metadata
     id="metadata4269">
    <rdf:RDF>
      <cc:Work
         rdf:about="">
        <dc:format>image/svg+xml</dc:format>
        <dc:type
           rdf:resource="http://purl.org/dc/dcmitype/StillImage" />
        <dc:title></dc:title>
      </cc:Work>
    </rdf:RDF>
  </metadata>
  <g
     inkscape:label="Layer 1"
     inkscape:groupmode="layer"
     id="layer1">
    <path
       style="fill:none;fill-rule:evenodd;stroke:#ff0000;stroke-width:7.10999441;stroke-linecap:butt;stroke-linejoin:miter;stroke-miterlimit:4;stroke-dasharray:none;stroke-opacity:1"
       d="M  156.92756272804 , -383.225361192312 C  40.7998501339115 , -444.896279231875 -39.6030411937785 , -355.516348872815 -33.3165938575764 , -285.41925027829 -27.0301465213742 , -215.322151683765 35.7937199436778 , -219.629521445663 37.142704227718 , -128.66810270351 38.4916885117581 , -37.7066839613558 -26.3590200140757 , -41.5952888411915 -32.0156361675794 , 29.1307062311471 -37.6722523210832 , 99.8567013034856 26.944996097876 , 144.494231327075 102.400929478625 , 169.156162280556 177.856862859373 , 193.818093234037 218.548205344884 , 193.964280308358 255.582857066399 , 230.455107079805 292.617508787914 , 266.945933851252 303.735001432369 , 331.563581990334 254.3056535397 , 379.176342626846 204.876305647032 , 426.789103263358 178.246578966514 , 402.898239373349 90.3036547657447 , 448.276380540247 2.36073056497546 , 493.654521707144 0.6824583259733 , 532.709630287429 -54.601390377517 , 547.335560242286 -109.885239081007 , 561.961490197143 -161.29810610744 , 533.376929758259 -180.075757798173 , 480.910267774558 -198.853409488907 , 428.443605790856 -173.113128683581 , 413.790056347861 -174.953746356819 , 316.539041564488 -176.794364030056 , 219.288026781115 -246.048642328149 , 86.9210474081902 -265.344437850543 , -39.6437181496631 -284.640233372936 , -166.208483707516 -273.055275322168 , -321.55444315275 -156.92756272804 , -383.225361192312 -40.7998501339115 , -444.896279231875 39.6030411937785 , -355.516348872815 33.3165938575764 , -285.41925027829 27.0301465213742 , -215.322151683765 -35.7937199436778 , -219.629521445663 -37.142704227718 , -128.66810270351 -38.4916885117581 , -37.7066839613558 26.3590200140757 , -41.5952888411915 32.0156361675794 , 29.1307062311471 37.6722523210832 , 99.8567013034856 -26.944996097876 , 144.494231327075 -102.400929478625 , 169.156162280556 -177.856862859373 , 193.818093234037 -218.548205344884 , 193.964280308358 -255.582857066399 , 230.455107079805 -292.617508787914 , 266.945933851252 -303.735001432369 , 331.563581990334 -254.3056535397 , 379.176342626846 -204.876305647032 , 426.789103263358 -178.246578966514 , 402.898239373349 -90.3036547657447 , 448.276380540247 -2.36073056497546 , 493.654521707144 -0.6824583259733 , 532.709630287429 54.601390377517 , 547.335560242286 109.885239081007 , 561.961490197143 161.29810610744 , 533.376929758259 180.075757798173 , 480.910267774558 198.853409488907 , 428.443605790856 173.113128683581 , 413.790056347861 174.953746356819 , 316.539041564488 176.794364030056 , 219.288026781115 246.048642328149 , 86.9210474081902 265.344437850543 , -39.6437181496631 284.640233372936 , -166.208483707516 273.055275322168 , -321.55444315275 156.92756272804 , -383.225361192312 Z "
       id="path4877"
       inkscape:connector-curvature="0"
       sodipodi:nodetypes="zzzzzzzzzzzzzzzzzzzzzzzzz" />
  </g>
</svg>
