<?xml version="1.0" encoding="UTF-8" standalone="no"?>
<!-- Created with Inkscape (http://www.inkscape.org/) -->

<svg
   xmlns:dc="http://purl.org/dc/elements/1.1/"
   xmlns:cc="http://creativecommons.org/ns#"
   xmlns:rdf="http://www.w3.org/1999/02/22-rdf-syntax-ns#"
   xmlns:svg="http://www.w3.org/2000/svg"
   xmlns="http://www.w3.org/2000/svg"
   xmlns:sodipodi="http://sodipodi.sourceforge.net/DTD/sodipodi-0.dtd"
   xmlns:inkscape="http://www.inkscape.org/namespaces/inkscape"
   width="210mm"
   height="297mm"
   viewBox="0 0 744.09448819 1052.3622047"
   id="svg4264"
   version="1.1"
   inkscape:version="0.91 r13725"
   sodipodi:docname="9_4.svg">
  <defs
     id="defs4266" />
  <sodipodi:namedview
     id="base"
     pagecolor="#ffffff"
     bordercolor="#666666"
     borderopacity="1.0"
     inkscape:pageopacity="0.0"
     inkscape:pageshadow="2"
     inkscape:zoom="1.5982422"
     inkscape:cx="283.64964"
     inkscape:cy="756.28358"
     inkscape:document-units="px"
     inkscape:current-layer="layer1"
     showgrid="false"
     inkscape:window-width="2560"
     inkscape:window-height="1315"
     inkscape:window-x="1045"
     inkscape:window-y="230"
     inkscape:window-maximized="0" />
  <metadata
     id="metadata4269">
    <rdf:RDF>
      <cc:Work
         rdf:about="">
        <dc:format>image/svg+xml</dc:format>
        <dc:type
           rdf:resource="http://purl.org/dc/dcmitype/StillImage" />
        <dc:title></dc:title>
      </cc:Work>
    </rdf:RDF>
  </metadata>
  <g
     inkscape:label="Layer 1"
     inkscape:groupmode="layer"
     id="layer1">
    <path
       style="fill:none;fill-rule:evenodd;stroke:#ff0000;stroke-width:7.10999441;stroke-linecap:butt;stroke-linejoin:miter;stroke-miterlimit:4;stroke-dasharray:none;stroke-opacity:1"
       d="M  161.130135688687 , -391.2616384603 C  48.514698856668 , -455.132588982686 -35.308908254415 , -373.201899968099 -28.9409396509387 , -295.888473892226 -22.5729710474624 , -218.575047816353 19.2304363585869 , -198.523180164132 18.0289927584811 , -133.81003583933 16.8275491583753 , -69.096891514528 -21.8235002307859 , -46.7637315427995 -22.8172905652474 , 20.7740302377751 -23.8110808997089 , 88.3117920183497 32.8593483706744 , 127.86623929962 103.636452956783 , 157.710223723127 174.413557542892 , 187.554208146634 222.48875966456 , 198.412827926913 255.163104628004 , 236.342634091389 287.837449591448 , 274.272440255865 293.791461033893 , 330.136330211455 259.961392114084 , 377.195002376593 226.131323194275 , 424.253674541731 186.029678974098 , 425.808711523636 96.9041964153175 , 470.842754727691 7.778713856537 , 515.876797931746 -6.04582749329158 , 541.619470026061 -58.0963953926503 , 548.741645112564 -110.146963292009 , 555.863820199067 -155.066404250115 , 532.983443691379 -178.500017070076 , 489.255094246093 -201.933629890037 , 445.526744800807 -188.902023062378 , 411.92126679724 -190.784174458138 , 316.525926600885 -192.666325853898 , 221.13058640453 -244.895333406178 , 90.304014158071 -263.880613472587 , -38.9149788065096 -282.865893538996 , -168.13397177109 -273.745572520706 , -327.390687937914 -161.130135688687 , -391.2616384603 -48.514698856668 , -455.132588982686 35.308908254415 , -373.201899968099 28.9409396509387 , -295.888473892226 22.5729710474624 , -218.575047816353 -19.2304363585869 , -198.523180164132 -18.0289927584811 , -133.81003583933 -16.8275491583753 , -69.096891514528 21.8235002307859 , -46.7637315427995 22.8172905652474 , 20.7740302377751 23.8110808997089 , 88.3117920183497 -32.8593483706744 , 127.86623929962 -103.636452956783 , 157.710223723127 -174.413557542892 , 187.554208146634 -222.48875966456 , 198.412827926913 -255.163104628004 , 236.342634091389 -287.837449591448 , 274.272440255865 -293.791461033893 , 330.136330211455 -259.961392114084 , 377.195002376593 -226.131323194275 , 424.253674541731 -186.029678974098 , 425.808711523636 -96.9041964153175 , 470.842754727691 -7.778713856537 , 515.876797931746 6.04582749329158 , 541.619470026061 58.0963953926503 , 548.741645112564 110.146963292009 , 555.863820199067 155.066404250115 , 532.983443691379 178.500017070076 , 489.255094246093 201.933629890037 , 445.526744800807 188.902023062378 , 411.92126679724 190.784174458138 , 316.525926600885 192.666325853898 , 221.13058640453 244.895333406178 , 90.304014158071 263.880613472587 , -38.9149788065096 282.865893538996 , -168.13397177109 273.745572520706 , -327.390687937914 161.130135688687 , -391.2616384603 Z "
       id="path4877"
       inkscape:connector-curvature="0"
       sodipodi:nodetypes="zzzzzzzzzzzzzzzzzzzzzzzzz" />
  </g>
</svg>
