<?xml version="1.0" encoding="UTF-8" standalone="no"?>
<!-- Created with Inkscape (http://www.inkscape.org/) -->

<svg
   xmlns:dc="http://purl.org/dc/elements/1.1/"
   xmlns:cc="http://creativecommons.org/ns#"
   xmlns:rdf="http://www.w3.org/1999/02/22-rdf-syntax-ns#"
   xmlns:svg="http://www.w3.org/2000/svg"
   xmlns="http://www.w3.org/2000/svg"
   xmlns:sodipodi="http://sodipodi.sourceforge.net/DTD/sodipodi-0.dtd"
   xmlns:inkscape="http://www.inkscape.org/namespaces/inkscape"
   width="210mm"
   height="297mm"
   viewBox="0 0 744.09448819 1052.3622047"
   id="svg2"
   version="1.1"
   inkscape:version="0.91 r13725"
   sodipodi:docname="9_40.svg">
  <defs
     id="defs4" />
  <sodipodi:namedview
     id="base"
     pagecolor="#ffffff"
     bordercolor="#666666"
     borderopacity="1.0"
     inkscape:pageopacity="0.0"
     inkscape:pageshadow="2"
     inkscape:zoom="0.57679761"
     inkscape:cx="372.04724"
     inkscape:cy="803.57476"
     inkscape:document-units="px"
     inkscape:current-layer="layer1"
     showgrid="false"
     inkscape:window-width="1301"
     inkscape:window-height="744"
     inkscape:window-x="65"
     inkscape:window-y="24"
     inkscape:window-maximized="1" />
  <metadata
     id="metadata7">
    <rdf:RDF>
      <cc:Work
         rdf:about="">
        <dc:format>image/svg+xml</dc:format>
        <dc:type
           rdf:resource="http://purl.org/dc/dcmitype/StillImage" />
        <dc:title></dc:title>
      </cc:Work>
    </rdf:RDF>
  </metadata>
  <g
     inkscape:label="Layer 1"
     inkscape:groupmode="layer"
     id="layer1">
    <path
       style="fill:none;fill-rule:evenodd;stroke:#000000;stroke-width:0.99999988px;stroke-linecap:butt;stroke-linejoin:miter;stroke-opacity:1"
       d="M  144.996678243847 , -318.293593962414 C  242.03877106905 , -316.703286192516 338.155117834554 , -250.881208229386 356.923175669731 , -145.695595216682 375.691233504908 , -40.5099822039779 304.192662302371 , 28.2158672427918 240.818788271694 , 54.9928218967919 177.444914241016 , 81.769776550792 116.732630011904 , 71.3758061360755 62.2850792141945 , 41.9817179447799 7.83752841648524 , 12.5876297534842 -7.83752841648524 , -12.5876297534842 -62.2850792141945 , -41.9817179447799 -116.732630011904 , -71.3758061360755 -177.444914241016 , -81.769776550792 -240.818788271694 , -54.9928218967919 -304.192662302371 , -28.2158672427918 -375.691233504908 , 40.5099822039779 -356.923175669731 , 145.695595216682 -338.155117834554 , 250.881208229386 -242.03877106905 , 316.703286192516 -144.996678243847 , 318.293593962414 -47.9545854186446 , 319.883901732311 19.4589269333099 , 261.068338997446 76.8713161350486 , 185.167386774474 134.283705336787 , 109.266434551502 141.414967966253 , 41.9671049085683 141.414967966253 , 0 141.414967966253 , -41.9671049085683 134.283705336787 , -109.266434551502 76.8713161350486 , -185.167386774474 19.4589269333099 , -261.068338997446 -47.9545854186446 , -319.883901732311 -144.996678243847 , -318.293593962414 -242.03877106905 , -316.703286192516 -338.155117834554 , -250.881208229386 -356.923175669731 , -145.695595216682 -375.691233504908 , -40.5099822039779 -304.192662302371 , 28.2158672427918 -240.818788271694 , 54.9928218967919 -177.444914241016 , 81.769776550792 -116.732630011904 , 71.3758061360755 -62.2850792141945 , 41.9817179447799 -7.83752841648524 , 12.5876297534842 7.83752841648524 , -12.5876297534842 62.2850792141945 , -41.9817179447799 116.732630011904 , -71.3758061360755 177.444914241016 , -81.769776550792 240.818788271694 , -54.9928218967919 304.192662302371 , -28.2158672427918 375.691233504908 , 40.5099822039779 356.923175669731 , 145.695595216682 338.155117834554 , 250.881208229386 242.03877106905 , 316.703286192516 144.996678243847 , 318.293593962414 47.9545854186446 , 319.883901732311 -19.4589269333099 , 261.068338997446 -76.8713161350486 , 185.167386774474 -134.283705336787 , 109.266434551502 -141.414967966253 , 41.9671049085683 -141.414967966253 , 0 -141.414967966253 , -41.9671049085683 -134.283705336787 , -109.266434551502 -76.8713161350486 , -185.167386774474 -19.4589269333099 , -261.068338997446 47.9545854186446 , -319.883901732311 144.996678243847 , -318.293593962414 Z "
       id="path4203"
       inkscape:connector-curvature="0"
       sodipodi:nodetypes="zzzzzzzzzzzzzzzzzzzzzzz" />
  </g>
</svg>
