<?xml version="1.0" encoding="UTF-8" standalone="no"?>
<!-- Created with Inkscape (http://www.inkscape.org/) -->

<svg
   xmlns:dc="http://purl.org/dc/elements/1.1/"
   xmlns:cc="http://creativecommons.org/ns#"
   xmlns:rdf="http://www.w3.org/1999/02/22-rdf-syntax-ns#"
   xmlns:svg="http://www.w3.org/2000/svg"
   xmlns="http://www.w3.org/2000/svg"
   xmlns:sodipodi="http://sodipodi.sourceforge.net/DTD/sodipodi-0.dtd"
   xmlns:inkscape="http://www.inkscape.org/namespaces/inkscape"
   width="210mm"
   height="297mm"
   viewBox="0 0 744.09448819 1052.3622047"
   id="svg2"
   version="1.1"
   inkscape:version="0.91 r13725"
   sodipodi:docname="9_40.svg">
  <defs
     id="defs4" />
  <sodipodi:namedview
     id="base"
     pagecolor="#ffffff"
     bordercolor="#666666"
     borderopacity="1.0"
     inkscape:pageopacity="0.0"
     inkscape:pageshadow="2"
     inkscape:zoom="0.57679761"
     inkscape:cx="372.04724"
     inkscape:cy="803.57476"
     inkscape:document-units="px"
     inkscape:current-layer="layer1"
     showgrid="false"
     inkscape:window-width="1301"
     inkscape:window-height="744"
     inkscape:window-x="65"
     inkscape:window-y="24"
     inkscape:window-maximized="1" />
  <metadata
     id="metadata7">
    <rdf:RDF>
      <cc:Work
         rdf:about="">
        <dc:format>image/svg+xml</dc:format>
        <dc:type
           rdf:resource="http://purl.org/dc/dcmitype/StillImage" />
        <dc:title></dc:title>
      </cc:Work>
    </rdf:RDF>
  </metadata>
  <g
     inkscape:label="Layer 1"
     inkscape:groupmode="layer"
     id="layer1">
    <path
       style="fill:none;fill-rule:evenodd;stroke:#000000;stroke-width:0.99999988px;stroke-linecap:butt;stroke-linejoin:miter;stroke-opacity:1"
       d="M  140.041983366554 , -326.694751737245 C  240.851771226955 , -329.806018131395 342.65368281271 , -259.192404205413 359.124687484284 , -149.132334152252 375.595692155858 , -39.072264099091 293.857294585886 , 27.2400062503026 228.116256771891 , 55.0172856087096 162.375218957896 , 82.7945649671166 103.452344706527 , 71.9498566322304 52.8904285398888 , 41.5357350990598 2.32851237325087 , 11.1216135658892 -2.32851237325087 , -11.1216135658892 -52.8904285398888 , -41.5357350990598 -103.452344706527 , -71.9498566322304 -162.375218957896 , -82.7945649671166 -228.116256771891 , -55.0172856087096 -293.857294585886 , -27.2400062503026 -375.595692155858 , 39.072264099091 -359.124687484284 , 149.132334152252 -342.65368281271 , 259.192404205413 -240.851771226955 , 329.806018131395 -140.041983366554 , 326.694751737245 -39.232195506153 , 323.583485343095 14.4822057193078 , 257.784406662654 66.2809899892149 , 183.341718374949 118.079774259122 , 108.899030087244 124.739806848686 , 46.2625085786125 124.739806848686 , 0 124.739806848686 , -46.2625085786125 118.079774259122 , -108.899030087244 66.2809899892149 , -183.341718374949 14.4822057193078 , -257.784406662654 -39.232195506153 , -323.583485343095 -140.041983366554 , -326.694751737245 -240.851771226955 , -329.806018131395 -342.65368281271 , -259.192404205413 -359.124687484284 , -149.132334152252 -375.595692155858 , -39.072264099091 -293.857294585886 , 27.2400062503026 -228.116256771891 , 55.0172856087096 -162.375218957896 , 82.7945649671166 -103.452344706527 , 71.9498566322304 -52.8904285398888 , 41.5357350990598 -2.32851237325087 , 11.1216135658892 2.32851237325087 , -11.1216135658892 52.8904285398888 , -41.5357350990598 103.452344706527 , -71.9498566322304 162.375218957896 , -82.7945649671166 228.116256771891 , -55.0172856087096 293.857294585886 , -27.2400062503026 375.595692155858 , 39.072264099091 359.124687484284 , 149.132334152252 342.65368281271 , 259.192404205413 240.851771226955 , 329.806018131395 140.041983366554 , 326.694751737245 39.232195506153 , 323.583485343095 -14.4822057193078 , 257.784406662654 -66.2809899892149 , 183.341718374949 -118.079774259122 , 108.899030087244 -124.739806848686 , 46.2625085786125 -124.739806848686 , 0 -124.739806848686 , -46.2625085786125 -118.079774259122 , -108.899030087244 -66.2809899892149 , -183.341718374949 -14.4822057193078 , -257.784406662654 39.232195506153 , -323.583485343095 140.041983366554 , -326.694751737245 Z "
       id="path4203"
       inkscape:connector-curvature="0"
       sodipodi:nodetypes="zzzzzzzzzzzzzzzzzzzzzzz" />
  </g>
</svg>
