<?xml version="1.0" encoding="UTF-8" standalone="no"?>
<!-- Created with Inkscape (http://www.inkscape.org/) -->

<svg
   xmlns:dc="http://purl.org/dc/elements/1.1/"
   xmlns:cc="http://creativecommons.org/ns#"
   xmlns:rdf="http://www.w3.org/1999/02/22-rdf-syntax-ns#"
   xmlns:svg="http://www.w3.org/2000/svg"
   xmlns="http://www.w3.org/2000/svg"
   xmlns:sodipodi="http://sodipodi.sourceforge.net/DTD/sodipodi-0.dtd"
   xmlns:inkscape="http://www.inkscape.org/namespaces/inkscape"
   width="210mm"
   height="297mm"
   viewBox="0 0 744.09448819 1052.3622047"
   id="svg2"
   version="1.1"
   inkscape:version="0.91 r13725"
   sodipodi:docname="9_41.svg">
  <defs
     id="defs4" />
  <sodipodi:namedview
     id="base"
     pagecolor="#ffffff"
     bordercolor="#666666"
     borderopacity="1.0"
     inkscape:pageopacity="0.0"
     inkscape:pageshadow="2"
     inkscape:zoom="0.65888086"
     inkscape:cx="21.428571"
     inkscape:cy="607.03666"
     inkscape:document-units="px"
     inkscape:current-layer="layer1"
     showgrid="false"
     inkscape:window-width="1301"
     inkscape:window-height="744"
     inkscape:window-x="65"
     inkscape:window-y="24"
     inkscape:window-maximized="1" />
  <metadata
     id="metadata7">
    <rdf:RDF>
      <cc:Work
         rdf:about="">
        <dc:format>image/svg+xml</dc:format>
        <dc:type
           rdf:resource="http://purl.org/dc/dcmitype/StillImage" />
        <dc:title></dc:title>
      </cc:Work>
    </rdf:RDF>
  </metadata>
  <g
     inkscape:label="Layer 1"
     inkscape:groupmode="layer"
     id="layer1">
    <path
       style="fill:none;fill-rule:evenodd;stroke:#000000;stroke-width:2.95394135px;stroke-linecap:butt;stroke-linejoin:miter;stroke-opacity:1"
       d="M  0 , -190.116794548759 C  10.7099765235572 , -190.116794548759 52.2068998257394 , -189.492551068223 94.6379464312798 , -159.767349439678 137.06899303682 , -130.042147811133 163.763708433887 , -89.2308863189941 217.272953650869 , 75.1857402363939 270.78219886785 , 239.602366791782 296.836059576095 , 283.35489766614 281.147933636854 , 364.715683247724 265.459807697613 , 446.076468829308 204.635776486894 , 516.400956286471 118.009335338676 , 525.434387620656 31.3828941904585 , 534.467818954842 -25.4526863340988 , 474.215508575873 -49.7342222814912 , 419.509514930944 -74.0157582288836 , 364.803521286014 -72.844733625859 , 306.799393169775 -41.656875326648 , 241.885615516613 -10.4690170274369 , 176.971837863451 23.5756960721715 , 157.508616288858 30.1513261899696 , 93.4432108706132 36.7269563077676 , 29.3778054523683 -1.57816724732205 , -20.813966324593 -70.1832007177031 , -56.8056119383094 -138.788234188084 , -92.7972575520257 -213.20352999559 , -111.820962538208 -282.953152550902 , -68.6148920789183 -352.702775106214 , -25.4088216196288 -382.770738020291 , 61.2076200058338 -355.502660580954 , 140.749058815784 -328.234583141618 , 220.290497625733 -262.091206505878 , 252.536566873992 -180.968263147496 , 285.781750664165 -99.8453197891148 , 319.026934454337 -40.3079728774884 , 323.397569986636 0 , 323.397569986636 40.3079728774884 , 323.397569986636 99.8453197891148 , 319.026934454337 180.968263147496 , 285.781750664165 262.091206505878 , 252.536566873992 328.234583141618 , 220.290497625733 355.502660580954 , 140.749058815784 382.770738020291 , 61.2076200058338 352.702775106214 , -25.4088216196288 282.953152550902 , -68.6148920789183 213.20352999559 , -111.820962538208 138.788234188084 , -92.7972575520257 70.1832007177031 , -56.8056119383094 1.57816724732206 , -20.813966324593 -36.7269563077676 , 29.3778054523683 -30.1513261899696 , 93.4432108706132 -23.5756960721715 , 157.508616288858 10.4690170274369 , 176.971837863451 41.656875326648 , 241.885615516613 72.844733625859 , 306.799393169775 74.0157582288836 , 364.803521286014 49.7342222814912 , 419.509514930944 25.4526863340988 , 474.215508575873 -31.3828941904585 , 534.467818954842 -118.009335338676 , 525.434387620656 -204.635776486894 , 516.400956286471 -265.459807697613 , 446.076468829308 -281.147933636854 , 364.715683247724 -296.836059576095 , 283.35489766614 -270.78219886785 , 239.602366791782 -217.272953650869 , 75.1857402363939 -163.763708433887 , -89.2308863189941 -137.06899303682 , -130.042147811133 -94.6379464312798 , -159.767349439678 -52.2068998257394 , -189.492551068223 -10.7099765235572 , -190.116794548759 0 , -190.116794548759 Z "
       id="path4201"
       inkscape:connector-curvature="0"
       sodipodi:nodetypes="zzzzzzzzzzzzzzzzzzzzzzzzz" />
  </g>
</svg>
