<?xml version="1.0" encoding="UTF-8" standalone="no"?>
<!-- Created with Inkscape (http://www.inkscape.org/) -->

<svg
   xmlns:dc="http://purl.org/dc/elements/1.1/"
   xmlns:cc="http://creativecommons.org/ns#"
   xmlns:rdf="http://www.w3.org/1999/02/22-rdf-syntax-ns#"
   xmlns:svg="http://www.w3.org/2000/svg"
   xmlns="http://www.w3.org/2000/svg"
   xmlns:sodipodi="http://sodipodi.sourceforge.net/DTD/sodipodi-0.dtd"
   xmlns:inkscape="http://www.inkscape.org/namespaces/inkscape"
   width="210mm"
   height="297mm"
   viewBox="0 0 744.09448819 1052.3622047"
   id="svg2"
   version="1.1"
   inkscape:version="0.91 r13725"
   sodipodi:docname="9_41.svg">
  <defs
     id="defs4" />
  <sodipodi:namedview
     id="base"
     pagecolor="#ffffff"
     bordercolor="#666666"
     borderopacity="1.0"
     inkscape:pageopacity="0.0"
     inkscape:pageshadow="2"
     inkscape:zoom="0.65888086"
     inkscape:cx="21.428571"
     inkscape:cy="607.03666"
     inkscape:document-units="px"
     inkscape:current-layer="layer1"
     showgrid="false"
     inkscape:window-width="1301"
     inkscape:window-height="744"
     inkscape:window-x="65"
     inkscape:window-y="24"
     inkscape:window-maximized="1" />
  <metadata
     id="metadata7">
    <rdf:RDF>
      <cc:Work
         rdf:about="">
        <dc:format>image/svg+xml</dc:format>
        <dc:type
           rdf:resource="http://purl.org/dc/dcmitype/StillImage" />
        <dc:title></dc:title>
      </cc:Work>
    </rdf:RDF>
  </metadata>
  <g
     inkscape:label="Layer 1"
     inkscape:groupmode="layer"
     id="layer1">
    <path
       style="fill:none;fill-rule:evenodd;stroke:#000000;stroke-width:2.95394135px;stroke-linecap:butt;stroke-linejoin:miter;stroke-opacity:1"
       d="M  0 , -199.475565471939 C  10.7990256178711 , -199.475565471939 61.0656430065229 , -198.795102063583 104.929780817432 , -155.182002070848 148.793918628341 , -111.568902078112 147.270148242037 , -73.0551647227645 196.050586686021 , 86.249702326311 244.831025130006 , 245.554569375386 285.306766845245 , 266.463567934652 277.92258630918 , 357.140089474796 270.538405773115 , 447.816611014939 204.007156026037 , 521.255561737544 116.923485255253 , 527.263052643496 29.8398144844694 , 533.270543549448 -24.0303866228665 , 466.087690943317 -49.753695055215 , 410.111398490627 -75.4770034875634 , 354.135106037937 -77.1872710858106 , 294.467644913542 -43.3975266513527 , 233.880505588998 -9.60778221689471 , 173.293366264454 27.3611554459669 , 171.97980974172 37.4041772743138 , 101.97368352579 47.4471991026607 , 31.9675573098606 -3.85909843509682 , -17.836083017526 -69.1434351582154 , -50.7789483890108 -134.427771881334 , -83.7218137604955 -201.063035409254 , -113.202667751952 -277.362574227839 , -71.670959427161 -353.662113046423 , -30.1392511023703 -389.935747853161 , 65.9327277602229 -355.182302245228 , 151.291424725531 -320.428856637294 , 236.650121690839 -249.232224629069 , 254.658530387285 -171.926004561997 , 280.137390989084 -94.6197844949261 , 305.616251590884 -41.6373630583699 , 309.124456060201 0 , 309.124456060201 41.6373630583699 , 309.124456060201 94.6197844949261 , 305.616251590884 171.926004561997 , 280.137390989084 249.232224629069 , 254.658530387285 320.428856637294 , 236.650121690839 355.182302245228 , 151.291424725531 389.935747853161 , 65.9327277602229 353.662113046423 , -30.1392511023703 277.362574227839 , -71.670959427161 201.063035409254 , -113.202667751952 134.427771881334 , -83.7218137604955 69.1434351582154 , -50.7789483890108 3.85909843509683 , -17.836083017526 -47.4471991026607 , 31.9675573098606 -37.4041772743138 , 101.97368352579 -27.3611554459669 , 171.97980974172 9.60778221689471 , 173.293366264454 43.3975266513527 , 233.880505588998 77.1872710858106 , 294.467644913542 75.4770034875634 , 354.135106037937 49.753695055215 , 410.111398490627 24.0303866228665 , 466.087690943317 -29.8398144844694 , 533.270543549448 -116.923485255253 , 527.263052643496 -204.007156026037 , 521.255561737544 -270.538405773115 , 447.816611014939 -277.92258630918 , 357.140089474796 -285.306766845245 , 266.463567934652 -244.831025130006 , 245.554569375386 -196.050586686021 , 86.249702326311 -147.270148242037 , -73.0551647227645 -148.793918628341 , -111.568902078112 -104.929780817432 , -155.182002070848 -61.0656430065229 , -198.795102063583 -10.7990256178711 , -199.475565471939 0 , -199.475565471939 Z "
       id="path4201"
       inkscape:connector-curvature="0"
       sodipodi:nodetypes="zzzzzzzzzzzzzzzzzzzzzzzzz" />
  </g>
</svg>
