<?xml version="1.0" encoding="UTF-8" standalone="no"?>
<!-- Created with Inkscape (http://www.inkscape.org/) -->

<svg
   xmlns:dc="http://purl.org/dc/elements/1.1/"
   xmlns:cc="http://creativecommons.org/ns#"
   xmlns:rdf="http://www.w3.org/1999/02/22-rdf-syntax-ns#"
   xmlns:svg="http://www.w3.org/2000/svg"
   xmlns="http://www.w3.org/2000/svg"
   xmlns:sodipodi="http://sodipodi.sourceforge.net/DTD/sodipodi-0.dtd"
   xmlns:inkscape="http://www.inkscape.org/namespaces/inkscape"
   width="210mm"
   height="297mm"
   viewBox="0 0 744.09448819 1052.3622047"
   id="svg2"
   version="1.1"
   inkscape:version="0.91 r13725"
   sodipodi:docname="9_42.svg">
  <defs
     id="defs4" />
  <sodipodi:namedview
     id="base"
     pagecolor="#ffffff"
     bordercolor="#666666"
     borderopacity="1.0"
     inkscape:pageopacity="0.0"
     inkscape:pageshadow="2"
     inkscape:zoom="0.69872017"
     inkscape:cx="91.062971"
     inkscape:cy="910.64601"
     inkscape:document-units="px"
     inkscape:current-layer="layer1"
     showgrid="false"
     inkscape:window-width="1301"
     inkscape:window-height="744"
     inkscape:window-x="65"
     inkscape:window-y="24"
     inkscape:window-maximized="1" />
  <metadata
     id="metadata7">
    <rdf:RDF>
      <cc:Work
         rdf:about="">
        <dc:format>image/svg+xml</dc:format>
        <dc:type
           rdf:resource="http://purl.org/dc/dcmitype/StillImage" />
        <dc:title></dc:title>
      </cc:Work>
    </rdf:RDF>
  </metadata>
  <g
     inkscape:label="Layer 1"
     inkscape:groupmode="layer"
     id="layer1">
    <path
       style="fill:none;fill-rule:evenodd;stroke:#ff0000;stroke-width:10.87030888;stroke-linecap:butt;stroke-linejoin:miter;stroke-miterlimit:4;stroke-dasharray:none;stroke-opacity:1"
       d="M  0 , -10.6662832384655 C  12.446314918892 , -10.6662832384655 64.6160950203647 , -10.2064459891412 109.429093792525 , 24.7564253306981 154.242092564685 , 59.7192966505375 179.680975292058 , 129.816746040326 148.117585289173 , 194.371977374352 116.554195286288 , 258.927208708378 62.0420773189813 , 269.011674429197 4.42164595382122 , 288.860260885545 -53.1987854113389 , 308.708847341893 -84.5563094422521 , 321.980933553072 -109.895711015599 , 353.336670020663 -135.235112588946 , 384.692406488254 -143.032629346565 , 419.443997587624 -140.366695718978 , 451.867943537206 -137.70076209139 , 484.291889486787 -124.364862808797 , 519.9153913863 -71.7472519056871 , 578.948220358461 -19.1296410025769 , 637.981049330621 19.0064621849068 , 685.131407722741 93.0926987468512 , 679.429569170738 167.178935308795 , 673.727730618736 214.784660896959 , 611.902979829018 212.463246534398 , 544.681905404791 210.141832171837 , 477.460830980565 173.213948358188 , 448.032665912695 121.374280617996 , 359.571843052962 69.5346128778042 , 271.111020193228 56.8257837438943 , 239.376694061412 62.3576125624695 , 198.438335526197 67.8894413810446 , 157.499976990981 92.1722805057613 , 133.359968159977 98.5829436462518 , 127.226925588681 104.993606786742 , 121.093883017385 181.423444266595 , 48.8263916142947 268.085683782677 , 120.849806121059 354.747923298759 , 192.873220627823 326.13638846638 , 319.840781942364 268.398301837945 , 391.122936574105 210.660215209511 , 462.405091205846 176.717045817698 , 453.87300908885 82.251405098839 , 540.301793348077 -12.2142356200195 , 626.730577607304 -20.3249845463911 , 659.946507608279 -76.5834876509262 , 680.420946829627 -132.841990755461 , 700.895386050975 -191.471570752466 , 686.428035815351 -232.114709161884 , 643.601707135021 -272.757847571302 , 600.775378454692 -264.601331465463 , 567.914653462449 -316.559687284504 , 453.639539388773 -368.518043103545 , 339.364425315097 -412.047333577744 , 332.407176651353 -415.531078371782 , 254.981620866721 -419.014823165819 , 177.556065082089 -364.627214160049 , 128.882443031229 -312.172783308536 , 117.526462443642 -259.718352457024 , 106.170481856056 -200.414749658634 , 122.09568909162 -119.298076368625 , 215.415115398832 -38.1814030786169 , 308.734541706043 -37.7873399458191 , 367.505708631499 -38.7271980342029 , 388.682669573812 -39.6670561225867 , 409.859630516124 -44.9859129642731 , 438.334159919857 -65.5664061305318 , 468.676844301625 -86.1468992967906 , 499.019528683393 -116.817177909893 , 522.788510950506 -190.87743107782 , 552.809632652865 -264.937684245747 , 582.830754355224 -312.060902321115 , 607.507254625484 -374.941539041071 , 577.173085971513 -437.822175761027 , 546.838917317543 -467.187158088673 , 471.282397472662 -437.187617951687 , 402.918140436033 -407.1880778147 , 334.553883399404 -368.892288977382 , 345.034033272635 -287.276383638581 , 249.020913926645 -205.66047829978 , 153.007794580656 -193.628533312608 , 93.5603376309803 -131.225432135241 , 41.7972983915553 -68.8223309578736 , -9.9657408478697 -12.446314918892 , -10.6662832384655 0 , -10.6662832384655 Z "
       id="path4201"
       inkscape:connector-curvature="0"
       sodipodi:nodetypes="zzzzzzzzzzzzzzzzzzzzzzzzzzzzz" />
  </g>
</svg>
