<?xml version="1.0" encoding="UTF-8" standalone="no"?>
<!-- Created with Inkscape (http://www.inkscape.org/) -->

<svg
   xmlns:dc="http://purl.org/dc/elements/1.1/"
   xmlns:cc="http://creativecommons.org/ns#"
   xmlns:rdf="http://www.w3.org/1999/02/22-rdf-syntax-ns#"
   xmlns:svg="http://www.w3.org/2000/svg"
   xmlns="http://www.w3.org/2000/svg"
   xmlns:sodipodi="http://sodipodi.sourceforge.net/DTD/sodipodi-0.dtd"
   xmlns:inkscape="http://www.inkscape.org/namespaces/inkscape"
   width="210mm"
   height="297mm"
   viewBox="0 0 744.09448819 1052.3622047"
   id="svg2"
   version="1.1"
   inkscape:version="0.91 r13725"
   sodipodi:docname="9_42.svg">
  <defs
     id="defs4" />
  <sodipodi:namedview
     id="base"
     pagecolor="#ffffff"
     bordercolor="#666666"
     borderopacity="1.0"
     inkscape:pageopacity="0.0"
     inkscape:pageshadow="2"
     inkscape:zoom="0.69872017"
     inkscape:cx="91.062971"
     inkscape:cy="910.64601"
     inkscape:document-units="px"
     inkscape:current-layer="layer1"
     showgrid="false"
     inkscape:window-width="1301"
     inkscape:window-height="744"
     inkscape:window-x="65"
     inkscape:window-y="24"
     inkscape:window-maximized="1" />
  <metadata
     id="metadata7">
    <rdf:RDF>
      <cc:Work
         rdf:about="">
        <dc:format>image/svg+xml</dc:format>
        <dc:type
           rdf:resource="http://purl.org/dc/dcmitype/StillImage" />
        <dc:title></dc:title>
      </cc:Work>
    </rdf:RDF>
  </metadata>
  <g
     inkscape:label="Layer 1"
     inkscape:groupmode="layer"
     id="layer1">
    <path
       style="fill:none;fill-rule:evenodd;stroke:#ff0000;stroke-width:10.87030888;stroke-linecap:butt;stroke-linejoin:miter;stroke-miterlimit:4;stroke-dasharray:none;stroke-opacity:1"
       d="M  0 , -21.6735457908661 C  12.1432753028058 , -21.6735457908661 55.635025357747 , -20.9852448087039 97.2222346996029 , 7.30898318735134 138.809444041459 , 35.6032111834065 176.039951064744 , 96.4155406653373 151.095315395242 , 167.349699120421 126.15067972574 , 238.283857575506 65.4175982647954 , 261.398546411747 11.0559645776981 , 287.9808024841 -43.3056691093992 , 314.563058556453 -76.6359394336257 , 333.523495270264 -101.6231523086 , 364.844389219304 -126.610365183574 , 396.165283168344 -134.417124472222 , 428.214401672416 -134.800335054786 , 456.706362979849 -135.183545637351 , 485.198324287283 -127.686129040079 , 529.930660473414 -80.8617311962654 , 589.558776698644 -34.0373333524518 , 649.186892923874 8.23664211414657 , 683.252904714707 67.5917196897706 , 682.69364428786 126.946797265395 , 682.134383861013 183.823356036791 , 641.417848129001 196.00712108954 , 572.80378316536 208.19088614229 , 504.18971820172 173.85061409536 , 454.394297192669 125.653260751631 , 360.988467658633 77.4559074079015 , 267.582638124598 63.7658950922402 , 230.926881501076 66.4729008126217 , 189.326221773414 69.1799065330032 , 147.725562045751 89.146317188733 , 122.792353851145 95.8621139460778 , 114.996961659582 102.577910703423 , 107.201569468019 167.240492953443 , 34.003356949353 260.981830312342 , 95.1815223771763 354.72316767124 , 156.359687805 344.647319062615 , 290.135466651855 285.31056433974 , 378.535650944213 225.973809616865 , 466.935835236571 181.924627913829 , 470.811898990646 77.4454813995845 , 563.142336542655 -27.0336651146599 , 655.472774094664 -62.5512864619089 , 671.62963023669 -101.701213165473 , 677.419849343916 -140.851139869036 , 683.210068451143 -184.141472034951 , 676.12301808998 -224.865935938206 , 644.921698105978 -265.59039984146 , 613.720378121977 -277.730081574533 , 579.434680483796 -332.827979047132 , 464.950025240448 -387.925876519731 , 350.465369997099 -421.646883761748 , 319.257046316533 -414.957798910076 , 249.798416710554 -408.268714058405 , 180.339787104575 -361.778877382074 , 144.551746328422 -326.998191511818 , 131.37449162289 -292.217505641562 , 118.197236917357 -220.472339401048 , 106.542860267569 -123.978991601862 , 205.62380925996 -27.4856438026759 , 304.704758252351 -34.166573253399 , 381.824631588422 -36.0678078273858 , 399.43071016405 -37.9690424013727 , 417.036788739677 -43.5574195318987 , 443.350648016719 -63.0225827582712 , 472.327410943279 -82.4877459846436 , 501.30417386984 -116.613201978489 , 532.947362177859 -194.611032971394 , 560.562568841439 -272.608863964298 , 588.177775505019 -320.164784542415 , 595.575155955148 -368.488648462432 , 569.590405058425 -416.812512382449 , 543.605654161702 -448.299651023181 , 487.776652241772 -434.931258952696 , 422.70429562456 -421.562866882211 , 357.631939007349 -382.876453793497 , 340.878107901018 -302.860532773093 , 242.46008871036 -222.844611752689 , 144.042069519701 -208.46353990661 , 88.9920200981315 -140.945200066936 , 33.9286260482272 -73.4268602272626 , -21.1347680016771 -12.1432753028058 , -21.6735457908661 0 , -21.6735457908661 Z "
       id="path4201"
       inkscape:connector-curvature="0"
       sodipodi:nodetypes="zzzzzzzzzzzzzzzzzzzzzzzzzzzzz" />
  </g>
</svg>
