<?xml version="1.0" encoding="UTF-8" standalone="no"?>
<!-- Created with Inkscape (http://www.inkscape.org/) -->

<svg
   xmlns:dc="http://purl.org/dc/elements/1.1/"
   xmlns:cc="http://creativecommons.org/ns#"
   xmlns:rdf="http://www.w3.org/1999/02/22-rdf-syntax-ns#"
   xmlns:svg="http://www.w3.org/2000/svg"
   xmlns="http://www.w3.org/2000/svg"
   xmlns:sodipodi="http://sodipodi.sourceforge.net/DTD/sodipodi-0.dtd"
   xmlns:inkscape="http://www.inkscape.org/namespaces/inkscape"
   width="210mm"
   height="297mm"
   viewBox="0 0 744.09448819 1052.3622047"
   id="svg2"
   version="1.1"
   inkscape:version="0.91 r13725"
   sodipodi:docname="9_43.svg">
  <defs
     id="defs4" />
  <sodipodi:namedview
     id="base"
     pagecolor="#ffffff"
     bordercolor="#666666"
     borderopacity="1.0"
     inkscape:pageopacity="0.0"
     inkscape:pageshadow="2"
     inkscape:zoom="1.1593901"
     inkscape:cx="-84.70704"
     inkscape:cy="657.52598"
     inkscape:document-units="px"
     inkscape:current-layer="layer1"
     showgrid="false"
     inkscape:window-width="2560"
     inkscape:window-height="1315"
     inkscape:window-x="0"
     inkscape:window-y="1"
     inkscape:window-maximized="1" />
  <metadata
     id="metadata7">
    <rdf:RDF>
      <cc:Work
         rdf:about="">
        <dc:format>image/svg+xml</dc:format>
        <dc:type
           rdf:resource="http://purl.org/dc/dcmitype/StillImage" />
        <dc:title></dc:title>
      </cc:Work>
    </rdf:RDF>
  </metadata>
  <g
     inkscape:label="Layer 1"
     inkscape:groupmode="layer"
     id="layer1">
    <path
       style="fill:none;fill-rule:evenodd;stroke:#000000;stroke-width:3.18178034px;stroke-linecap:butt;stroke-linejoin:miter;stroke-opacity:1"
       d="M  174.835391695148 , 125.982572797115 C  194.696849361696 , 184.307118427086 189.283910569536 , 234.272105340436 192.761146515016 , 325.540347894346 196.238382460495 , 416.808590448256 200.581440869672 , 556.692280355347 110.916902161187 , 645.459720431361 21.2523634527019 , 734.227160507376 -84.2380902363587 , 683.59671122041 -111.672909909759 , 616.740453419995 -139.10772958316 , 549.884195619579 -105.985759860337 , 510.485189352111 -71.8431749146305 , 456.715318897226 -37.7005899689237 , 402.945448442341 43.223830513353 , 258.001257454042 -53.7888589665025 , 149.994998533659 -150.801548446358 , 41.9887396132769 -239.131671869688 , 30.1405038582498 -315.044169402264 , 83.4011934809288 -390.95666693484 , 136.661883103608 -410.182597022692 , 243.429180501105 -375.439178609291 , 317.649673231042 -340.69576019589 , 391.87016596098 -281.074793882341 , 423.484831149539 -198.115631890701 , 467.541936054915 -115.156469899061 , 511.59904096029 -62.0941775989656 , 523.604840966643 -37.1378911563667 , 588.877135252783 -12.1816047137678 , 654.149429538924 -39.8945865063418 , 748.505909803996 -136.463092660064 , 766.132597329367 -233.031598813786 , 783.759284854738 -326.197630477045 , 696.196054648216 -338.196005381824 , 582.143378493736 -350.194380286603 , 468.090702339256 -285.442592948952 , 391.77186594473 -233.784720610183 , 342.938773621824 -182.126848271414 , 294.105681298918 -135.129927719572 , 273.689831706333 -101.022965014331 , 264.304764073912 -66.9160023090903 , 254.919696441491 229.667678655279 , 190.831666092864 315.523323387137 , 246.422363235891 401.378968118995 , 302.013060378919 369.54806311675 , 381.877938786416 366.588312407108 , 389.311023628702 363.628561697465 , 396.744108470988 344.562241606711 , 443.313528185231 288.962479609754 , 464.06297547062 233.362717612796 , 484.812422756009 163.641994157572 , 479.546103593843 64.5769151602056 , 432.611296681531 -34.4881638371605 , 385.676489769219 -65.7669855803751 , 375.129106142032 -97.0499827343944 , 351.172243742429 -128.332979888414 , 327.215381342825 -182.143016308685 , 273.963340080912 -174.49725422852 , 173.700575491145 -166.851492148355 , 73.4378109013771 -104.555368763017 , -9.096319278139 0 , -9.096319278139 104.555368763017 , -9.096319278139 154.973934028601 , 67.6580271671437 174.835391695148 , 125.982572797115 Z "
       id="path4198"
       inkscape:connector-curvature="0"
       sodipodi:nodetypes="zzzzzzzzzzzzzzzzzzzzzz" />
  </g>
</svg>
