<?xml version="1.0" encoding="UTF-8" standalone="no"?>
<!-- Created with Inkscape (http://www.inkscape.org/) -->

<svg
   xmlns:dc="http://purl.org/dc/elements/1.1/"
   xmlns:cc="http://creativecommons.org/ns#"
   xmlns:rdf="http://www.w3.org/1999/02/22-rdf-syntax-ns#"
   xmlns:svg="http://www.w3.org/2000/svg"
   xmlns="http://www.w3.org/2000/svg"
   xmlns:sodipodi="http://sodipodi.sourceforge.net/DTD/sodipodi-0.dtd"
   xmlns:inkscape="http://www.inkscape.org/namespaces/inkscape"
   width="210mm"
   height="297mm"
   viewBox="0 0 744.09448819 1052.3622047"
   id="svg2"
   version="1.1"
   inkscape:version="0.91 r13725"
   sodipodi:docname="9_43.svg">
  <defs
     id="defs4" />
  <sodipodi:namedview
     id="base"
     pagecolor="#ffffff"
     bordercolor="#666666"
     borderopacity="1.0"
     inkscape:pageopacity="0.0"
     inkscape:pageshadow="2"
     inkscape:zoom="1.1593901"
     inkscape:cx="-84.70704"
     inkscape:cy="657.52598"
     inkscape:document-units="px"
     inkscape:current-layer="layer1"
     showgrid="false"
     inkscape:window-width="2560"
     inkscape:window-height="1315"
     inkscape:window-x="0"
     inkscape:window-y="1"
     inkscape:window-maximized="1" />
  <metadata
     id="metadata7">
    <rdf:RDF>
      <cc:Work
         rdf:about="">
        <dc:format>image/svg+xml</dc:format>
        <dc:type
           rdf:resource="http://purl.org/dc/dcmitype/StillImage" />
        <dc:title></dc:title>
      </cc:Work>
    </rdf:RDF>
  </metadata>
  <g
     inkscape:label="Layer 1"
     inkscape:groupmode="layer"
     id="layer1">
    <path
       style="fill:none;fill-rule:evenodd;stroke:#000000;stroke-width:3.18178034px;stroke-linecap:butt;stroke-linejoin:miter;stroke-opacity:1"
       d="M  165.208545928976 , 123.384248346997 C  182.450268683768 , 169.450928134404 192.842959330951 , 234.864687853248 197.758996082784 , 326.834885435837 202.675032834616 , 418.805083018427 207.233879973229 , 561.932826202568 111.389168619988 , 647.049607114611 15.5444572667461 , 732.166388026655 -80.2840054513124 , 684.338271340586 -106.462385492832 , 622.240383998388 -132.640765534352 , 560.142496656191 -100.397884287466 , 506.385342503153 -75.6172218634067 , 460.830421090123 -50.8365594393479 , 415.275499677093 43.2723676196309 , 242.588747664172 -43.6138480379473 , 137.247542872241 -130.500063695526 , 31.9063380803095 -240.34819765953 , 30.3489282549836 -313.336407812512 , 87.3637780134278 -386.324617965493 , 144.378627771872 -401.264899642418 , 238.704273487992 -367.925237858713 , 313.239261834591 -334.585576075007 , 387.774250181189 -276.954469989882 , 424.65151028844 -203.920075590605 , 467.415665890224 -130.885681191329 , 510.179821492007 -68.3547055826752 , 531.772941401892 -40.2209378532177 , 595.959366845783 -12.0871701237601 , 660.145792289675 -39.4635643712134 , 752.463208570955 -136.822674004261 , 769.571787549334 -234.181783637308 , 786.680366527713 -326.907017555227 , 698.366777149033 -338.505876159878 , 582.342110227247 -350.104734764529 , 466.31744330546 -285.948165623744 , 386.860207512159 -234.647778281307 , 338.480812366244 -183.34739093887 , 290.101417220329 -132.604292673386 , 270.272291382287 -98.6201060128039 , 260.777718297481 -64.6359193522214 , 251.283145212675 225.484955494287 , 184.573548461205 313.046031448351 , 244.006037421342 400.607107402414 , 303.438526381479 366.759103513417 , 384.879739580502 363.345903409467 , 393.068491069504 359.932703305518 , 401.257242558506 342.421203689362 , 442.131977667961 290.581911797186 , 465.208530588426 238.74261990501 , 488.285083508891 161.515260457861 , 484.784615923646 66.6181084576499 , 440.470954829612 -28.2790435425617 , 396.157293735577 -69.779355853946 , 372.816156876623 -97.4264056932179 , 349.550860865241 -125.07345553249 , 326.285564853858 -179.621238830434 , 271.521088917517 -172.770720621822 , 170.289698274131 -165.920202413209 , 69.0583076307457 -99.0538273026927 , -8.12229468454429 0 , -8.12229468454429 99.0538273026927 , -8.12229468454429 147.966823174184 , 77.3175685595902 165.208545928976 , 123.384248346997 Z "
       id="path4198"
       inkscape:connector-curvature="0"
       sodipodi:nodetypes="zzzzzzzzzzzzzzzzzzzzzz" />
  </g>
</svg>
