<?xml version="1.0" encoding="UTF-8" standalone="no"?>
<!-- Created with Inkscape (http://www.inkscape.org/) -->

<svg
   xmlns:dc="http://purl.org/dc/elements/1.1/"
   xmlns:cc="http://creativecommons.org/ns#"
   xmlns:rdf="http://www.w3.org/1999/02/22-rdf-syntax-ns#"
   xmlns:svg="http://www.w3.org/2000/svg"
   xmlns="http://www.w3.org/2000/svg"
   xmlns:sodipodi="http://sodipodi.sourceforge.net/DTD/sodipodi-0.dtd"
   xmlns:inkscape="http://www.inkscape.org/namespaces/inkscape"
   width="210mm"
   height="297mm"
   viewBox="0 0 744.09448819 1052.3622047"
   id="svg2"
   version="1.1"
   inkscape:version="0.91 r13725"
   sodipodi:docname="9_44.svg">
  <defs
     id="defs4" />
  <sodipodi:namedview
     id="base"
     pagecolor="#ffffff"
     bordercolor="#666666"
     borderopacity="1.0"
     inkscape:pageopacity="0.0"
     inkscape:pageshadow="2"
     inkscape:zoom="1.0019421"
     inkscape:cx="178.74402"
     inkscape:cy="507.58033"
     inkscape:document-units="px"
     inkscape:current-layer="layer1"
     showgrid="false"
     inkscape:window-width="2560"
     inkscape:window-height="1315"
     inkscape:window-x="0"
     inkscape:window-y="1"
     inkscape:window-maximized="1" />
  <metadata
     id="metadata7">
    <rdf:RDF>
      <cc:Work
         rdf:about="">
        <dc:format>image/svg+xml</dc:format>
        <dc:type
           rdf:resource="http://purl.org/dc/dcmitype/StillImage" />
        <dc:title></dc:title>
      </cc:Work>
    </rdf:RDF>
  </metadata>
  <g
     inkscape:label="Layer 1"
     inkscape:groupmode="layer"
     id="layer1">
    <path
       style="fill:none;fill-rule:evenodd;stroke:#000000;stroke-width:3.47695589px;stroke-linecap:butt;stroke-linejoin:miter;stroke-opacity:1"
       d="M  57.9807154702771 , -7.38250749702895 C  137.946292098728 , -35.6420963378704 232.757699593016 , 6.46996215399851 254.12166128973 , 102.457726763237 275.485622986444 , 198.445491372475 203.924431997787 , 266.00186842125 166.696186272405 , 297.330086255346 129.467940547023 , 328.658304089443 88.1725626952734 , 350.671634030668 41.8869393097733 , 372.444185294232 -4.39868407572678 , 394.216736557795 -64.3154600035812 , 420.934461159086 -144.844872776875 , 398.730762769585 -225.374285550169 , 376.527064380084 -289.640164357788 , 318.423146173129 -291.303286864258 , 236.229678836711 -292.966409370729 , 154.036211500292 -235.657538488443 , 92.9932617216791 -169.566326260351 , 70.7413603593993 -103.47511403226 , 48.4894589971194 -25.2373930023698 , 57.4890676881439 102.834781924313 , 144.232681340721 230.906956850995 , 230.976294993297 271.227634698695 , 296.345547090947 285.746145006174 , 372.144476425172 300.264655313653 , 447.943405759396 285.416176756458 , 530.077856863224 236.28730164213 , 599.829952508675 187.158426527802 , 669.582048154126 105.9452480383 , 715.554260320708 -0.60985751706213 , 714.85657862487 -107.164963072424 , 714.158896929033 -173.169845515751 , 660.652438093376 -204.197380975125 , 626.424155124222 -235.224916434498 , 592.195872155068 -267.106997773369 , 539.294056241442 -268.973777765134 , 468.668894263438 -270.840557756899 , 398.043732285434 -235.907430453068 , 330.383780570144 -172.226313316716 , 281.304317611416 -108.545196180363 , 232.224854652688 -29.7198081724687 , 224.86533450574 34.9956386938683 , 264.961265600705 99.7110855602052 , 305.05719669567 130.220589033698 , 379.353218117238 99.144135660136 , 449.301264228183 68.0676822865742 , 519.249310339127 17.0005615920451 , 533.735300239463 -49.4054625531031 , 602.777693842455 -115.811486698251 , 671.820087445447 -145.256198570201 , 755.783835174739 -111.572363324833 , 827.31496018612 -77.8885280794663 , 898.846085197501 -11.811134465778 , 900.307300369353 0 , 900.307300369353 11.811134465778 , 900.307300369353 78.1495980436697 , 898.891513826476 112.936019296229 , 824.30123648253 147.722440548788 , 749.710959138583 112.605324494259 , 669.82181009807 85.1437979014226 , 616.590238577235 57.6822713085863 , 563.3586670564 -43.1472807543771 , 370.523561384317 -57.7272006134067 , 307.693735026707 -72.3071204724363 , 244.863908669096 -70.0756198715093 , 197.37899146598 -59.4004681421469 , 149.748324507266 -48.7253164127845 , 102.117657548551 -21.9848611581742 , 20.8770813438125 57.9807154702771 , -7.38250749702895 Z "
       id="path4198"
       inkscape:connector-curvature="0"
       sodipodi:nodetypes="zzzzzzzzzzzzzzzzzzzzzzzz" />
  </g>
</svg>
