<?xml version="1.0" encoding="UTF-8" standalone="no"?>
<!-- Created with Inkscape (http://www.inkscape.org/) -->

<svg
   xmlns:dc="http://purl.org/dc/elements/1.1/"
   xmlns:cc="http://creativecommons.org/ns#"
   xmlns:rdf="http://www.w3.org/1999/02/22-rdf-syntax-ns#"
   xmlns:svg="http://www.w3.org/2000/svg"
   xmlns="http://www.w3.org/2000/svg"
   xmlns:sodipodi="http://sodipodi.sourceforge.net/DTD/sodipodi-0.dtd"
   xmlns:inkscape="http://www.inkscape.org/namespaces/inkscape"
   width="210mm"
   height="297mm"
   viewBox="0 0 744.09448819 1052.3622047"
   id="svg2"
   version="1.1"
   inkscape:version="0.91 r13725"
   sodipodi:docname="9_44.svg">
  <defs
     id="defs4" />
  <sodipodi:namedview
     id="base"
     pagecolor="#ffffff"
     bordercolor="#666666"
     borderopacity="1.0"
     inkscape:pageopacity="0.0"
     inkscape:pageshadow="2"
     inkscape:zoom="1.0019421"
     inkscape:cx="178.74402"
     inkscape:cy="507.58033"
     inkscape:document-units="px"
     inkscape:current-layer="layer1"
     showgrid="false"
     inkscape:window-width="2560"
     inkscape:window-height="1315"
     inkscape:window-x="0"
     inkscape:window-y="1"
     inkscape:window-maximized="1" />
  <metadata
     id="metadata7">
    <rdf:RDF>
      <cc:Work
         rdf:about="">
        <dc:format>image/svg+xml</dc:format>
        <dc:type
           rdf:resource="http://purl.org/dc/dcmitype/StillImage" />
        <dc:title></dc:title>
      </cc:Work>
    </rdf:RDF>
  </metadata>
  <g
     inkscape:label="Layer 1"
     inkscape:groupmode="layer"
     id="layer1">
    <path
       style="fill:none;fill-rule:evenodd;stroke:#000000;stroke-width:3.47695589px;stroke-linecap:butt;stroke-linejoin:miter;stroke-opacity:1"
       d="M  21.914345553968 , 15.2754543789325 C  93.8295539400273 , -26.3069062573923 197.127766493963 , 3.79421902597427 225.637227410482 , 95.9838104290026 254.146688327002 , 188.173401832031 186.088917938103 , 253.965690620218 154.835892576232 , 284.422236041239 123.582867214361 , 314.878781462261 81.8559792113337 , 345.531414491687 37.1921176379963 , 375.407524848518 -7.4717439353411 , 405.283635205348 -62.4198161519508 , 443.011054588617 -151.463553184819 , 416.440901999889 -240.507290217688 , 389.870749411161 -312.545098492063 , 321.171155018302 -293.417172601696 , 228.284927017507 -274.289246711328 , 135.398699016712 -192.730520216856 , 103.398670639609 -148.638764433619 , 96.5341292156704 -104.547008650382 , 89.6695877917313 -53.2231224770739 , 93.5718441792827 76.9662517418339 , 160.703243796637 207.155625960742 , 227.834643413991 249.888649370596 , 263.600863230418 280.117286162655 , 330.635321425006 310.345922954713 , 397.669779619594 317.383206510333 , 494.003983241781 255.313711993483 , 590.498860135604 193.244217476632 , 686.993737029427 76.9304097063247 , 718.014672799743 -11.6959329382915 , 716.1768543523 -100.322275582908 , 714.339035904856 -161.039837018334 , 688.260431616687 -206.409939632531 , 649.368465756316 -251.780042246729 , 610.476499895945 -291.997296862489 , 547.563470833938 -284.739961856783 , 467.192672028185 -277.482626851077 , 386.821873222432 -206.699146695646 , 324.184543334467 -146.798231580418 , 290.794400610809 -86.8973164651889 , 257.40425788715 -15.7579516171129 , 255.090946403064 38.47277897419 , 282.14609602856 92.7035095654929 , 309.201245654056 146.622945200868 , 373.40633164461 111.705692001717 , 454.192164193173 76.7884388025666 , 534.977996741736 11.2901394475515 , 531.478766013544 -60.6549503933604 , 601.886375296791 -132.600040234272 , 672.293984580038 -149.624086655521 , 758.222304592694 -123.545158960081 , 823.169623772801 -97.4662312646412 , 888.116942952907 -40.8963504946607 , 910.292722076157 0 , 910.292722076157 40.8963504946607 , 910.292722076157 105.87081138114 , 889.523502387262 132.796308752737 , 815.008760720433 159.721806124335 , 740.494019053603 122.015501273467 , 670.218022245929 88.8265732914498 , 615.409190311889 55.6376453094326 , 560.600358377849 -39.8731390285908 , 391.582489151581 -54.1983370225286 , 326.794207493146 -68.5235350164665 , 262.005925834712 -68.2856307543436 , 230.225638882415 -63.7484933160966 , 183.660384633139 -59.2113558778497 , 137.095130383863 -50.0008628320913 , 56.8578150152573 21.914345553968 , 15.2754543789325 Z "
       id="path4198"
       inkscape:connector-curvature="0"
       sodipodi:nodetypes="zzzzzzzzzzzzzzzzzzzzzzzz" />
  </g>
</svg>
