<?xml version="1.0" encoding="UTF-8" standalone="no"?>
<!-- Created with Inkscape (http://www.inkscape.org/) -->

<svg
   xmlns:dc="http://purl.org/dc/elements/1.1/"
   xmlns:cc="http://creativecommons.org/ns#"
   xmlns:rdf="http://www.w3.org/1999/02/22-rdf-syntax-ns#"
   xmlns:svg="http://www.w3.org/2000/svg"
   xmlns="http://www.w3.org/2000/svg"
   xmlns:sodipodi="http://sodipodi.sourceforge.net/DTD/sodipodi-0.dtd"
   xmlns:inkscape="http://www.inkscape.org/namespaces/inkscape"
   width="210mm"
   height="297mm"
   viewBox="0 0 744.09448819 1052.3622047"
   id="svg2"
   version="1.1"
   inkscape:version="0.91 r13725"
   sodipodi:docname="9_45.svg">
  <defs
     id="defs4" />
  <sodipodi:namedview
     id="base"
     pagecolor="#ffffff"
     bordercolor="#666666"
     borderopacity="1.0"
     inkscape:pageopacity="0.0"
     inkscape:pageshadow="2"
     inkscape:zoom="1.5982422"
     inkscape:cx="231.0919"
     inkscape:cy="520"
     inkscape:document-units="px"
     inkscape:current-layer="layer1"
     showgrid="false"
     inkscape:window-width="2560"
     inkscape:window-height="1315"
     inkscape:window-x="0"
     inkscape:window-y="1"
     inkscape:window-maximized="1" />
  <metadata
     id="metadata7">
    <rdf:RDF>
      <cc:Work
         rdf:about="">
        <dc:format>image/svg+xml</dc:format>
        <dc:type
           rdf:resource="http://purl.org/dc/dcmitype/StillImage" />
        <dc:title></dc:title>
      </cc:Work>
    </rdf:RDF>
  </metadata>
  <g
     inkscape:label="Layer 1"
     inkscape:groupmode="layer"
     id="layer1">
    <path
       style="fill:none;fill-rule:evenodd;stroke:#000000;stroke-width:3.38758254px;stroke-linecap:butt;stroke-linejoin:miter;stroke-opacity:1"
       d="M  0 , 86.6507056034427 C  42.6344767129595 , 86.6507056034427 89.5039598859741 , 96.7203188260965 141.758207615116 , 128.598721159897 194.012455344258 , 160.477123493697 219.876214730313 , 196.022814182186 312.912851885638 , 303.97258616366 405.949489040964 , 411.922358145135 447.817620194693 , 438.498713282 455.751743531042 , 510.272590452982 463.685866867392 , 582.046467623964 420.64038333365 , 642.242992525282 358.749978193976 , 660.398673341971 296.859573054302 , 678.55435415866 242.44070999456 , 652.081723965307 180.569376669017 , 601.091906099644 118.698043343474 , 550.102088233982 98.4388212889421 , 502.868896705525 90.4916568345362 , 476.826683985457 82.5444923801303 , 450.784471265389 80.8549233168334 , 427.56098512874 82.0592405681471 , 406.996108826135 83.2635578194608 , 386.431232523531 89.840750651709 , 325.221487364831 149.486606698707 , 257.280672001385 209.132462745705 , 189.339856637938 269.234173524429 , 163.81290744916 330.140059123734 , 177.747779280009 391.045944723038 , 191.682651110858 438.76897637605 , 244.633993330215 442.368082227771 , 314.975218110568 445.967188079492 , 385.316442890921 412.577757228247 , 421.494101926639 335.408795614057 , 535.113262754954 258.239833999867 , 648.73242358327 225.756633155133 , 685.953080945856 169.9395108014 , 703.967628997043 114.122388447667 , 721.982177048231 63.9267412355816 , 708.195372161559 28.9205593004017 , 683.585305891476 -6.08562263477823 , 658.975239621393 -47.4468423974126 , 612.775545241037 -55.6387006760587 , 461.14552128859 -63.8305589547048 , 309.515497336143 -50.6754020175074 , 315.621475967258 -60.7618664413915 , 213.650812943388 -70.8483308652756 , 111.680149919518 -166.224867724429 , -12.4485756643046 -269.165053094483 , 65.0088238570199 -372.105238464537 , 142.466223378344 -279.516139815972 , 283.532173876902 -140.713300206837 , 296.06765989543 -1.91046059770213 , 308.603145913957 -94.2733225970763 , 299.779220630141 9.04030678569273 , 309.589951616664 112.353936168462 , 319.400682603187 145.614988382493 , 368.569311097443 156.884124621972 , 390.390804463471 168.15326086145 , 412.212297829499 175.264943965876 , 442.432983350643 165.597108065888 , 476.965248541685 155.9292721659 , 511.497513732727 126.916530069332 , 554.164803464715 53.5264616146784 , 580.768249445082 -19.8636068399754 , 607.371695425449 -92.6385950340446 , 615.487498641588 -165.06449522203 , 574.934023845155 -237.490395410015 , 534.380549048721 -282.945762346429 , 460.132719459606 -289.467524563115 , 381.30050991595 -295.9892867798 , 302.468300372293 -264.37775871977 , 233.736002734763 -185.688105068626 , 165.766028875233 -106.998451417481 , 97.7960550157033 -42.6344767129595 , 86.6507056034427 0 , 86.6507056034427 Z "
       id="path4198"
       inkscape:connector-curvature="0"
       sodipodi:nodetypes="zzzzzzzzzzzzzzzzzzzzzzzzzz" />
  </g>
</svg>
