<?xml version="1.0" encoding="UTF-8" standalone="no"?>
<!-- Created with Inkscape (http://www.inkscape.org/) -->

<svg
   xmlns:dc="http://purl.org/dc/elements/1.1/"
   xmlns:cc="http://creativecommons.org/ns#"
   xmlns:rdf="http://www.w3.org/1999/02/22-rdf-syntax-ns#"
   xmlns:svg="http://www.w3.org/2000/svg"
   xmlns="http://www.w3.org/2000/svg"
   xmlns:sodipodi="http://sodipodi.sourceforge.net/DTD/sodipodi-0.dtd"
   xmlns:inkscape="http://www.inkscape.org/namespaces/inkscape"
   width="210mm"
   height="297mm"
   viewBox="0 0 744.09448819 1052.3622047"
   id="svg2"
   version="1.1"
   inkscape:version="0.91 r13725"
   sodipodi:docname="9_45.svg">
  <defs
     id="defs4" />
  <sodipodi:namedview
     id="base"
     pagecolor="#ffffff"
     bordercolor="#666666"
     borderopacity="1.0"
     inkscape:pageopacity="0.0"
     inkscape:pageshadow="2"
     inkscape:zoom="1.5982422"
     inkscape:cx="231.0919"
     inkscape:cy="520"
     inkscape:document-units="px"
     inkscape:current-layer="layer1"
     showgrid="false"
     inkscape:window-width="2560"
     inkscape:window-height="1315"
     inkscape:window-x="0"
     inkscape:window-y="1"
     inkscape:window-maximized="1" />
  <metadata
     id="metadata7">
    <rdf:RDF>
      <cc:Work
         rdf:about="">
        <dc:format>image/svg+xml</dc:format>
        <dc:type
           rdf:resource="http://purl.org/dc/dcmitype/StillImage" />
        <dc:title></dc:title>
      </cc:Work>
    </rdf:RDF>
  </metadata>
  <g
     inkscape:label="Layer 1"
     inkscape:groupmode="layer"
     id="layer1">
    <path
       style="fill:none;fill-rule:evenodd;stroke:#000000;stroke-width:3.38758254px;stroke-linecap:butt;stroke-linejoin:miter;stroke-opacity:1"
       d="M  0 , 92.8492576470116 C  48.7459736486168 , 92.8492576470116 88.3356859612178 , 105.828134479698 127.767566968574 , 128.723995172891 167.19944797593 , 151.619855866084 196.917289854012 , 180.455844039186 294.450032272962 , 287.382033073308 391.982774691912 , 394.30822210743 434.995582263609 , 416.310935874892 447.613716419806 , 488.10764625293 460.231850576003 , 559.904356630968 420.716158772247 , 623.889530073771 359.509945045827 , 646.27243240571 298.303731319407 , 668.655334737649 241.896174059586 , 645.613296614573 176.380505003438 , 597.75413192629 110.86483594729 , 549.894967238007 88.6737193548599 , 501.592078542858 80.4450050646051 , 478.396619904368 72.2162907743503 , 455.201161265878 68.9184735129794 , 432.769252937453 69.126975321717 , 410.739478664786 69.3354771304546 , 388.709704392119 73.3391358954746 , 326.216911475278 132.273509291262 , 252.929982234567 191.207882687049 , 179.643052993856 249.051710767699 , 155.148220765469 306.079446268222 , 164.280163026262 363.107181768745 , 173.412105287055 416.25924051139 , 218.938749080815 425.276699970686 , 291.453535671891 434.294159429982 , 363.968322262967 400.810392024026 , 403.577073037418 329.123422773912 , 521.041655404002 257.436453523798 , 638.506237770586 229.167463079845 , 682.615020315335 165.294012168849 , 705.17345464344 101.420561257853 , 727.731888971545 47.3922982895176 , 706.93946708056 16.5252078596117 , 684.146197106712 -14.3418825702942 , 661.352927132864 -55.1009882436127 , 617.995644546565 -66.0184216064028 , 468.60339584581 -76.9358549691929 , 319.211147145055 -63.6844825301865 , 318.708344440967 -74.7767099886839 , 220.439842574947 -85.8689374471813 , 122.171340708927 -179.125718176186 , 0.00590754332325942 -282.956447167355 , 76.8491097762992 -386.787176158524 , 153.692312009275 -294.81577772164 , 296.450086153534 -153.547414703131 , 305.458321338816 -12.279051684622 , 314.466556524098 -109.867084282652 , 308.015563526402 -7.31100935498298 , 314.76427227356 95.245065572686 , 321.512981020718 130.335386680097 , 367.311681590418 143.200875833046 , 390.058196907032 156.066364985995 , 412.804712223646 162.882181967792 , 442.328767056001 155.581808786075 , 474.759437894157 148.281435604358 , 507.190108732313 123.339590576262 , 553.765328502046 47.0152687036324 , 584.401316214622 -29.3090531689972 , 615.037303927198 -99.7389349244806 , 622.709852735584 -169.493276620864 , 587.662548678727 -239.247618317247 , 552.61524462187 -290.482802657225 , 483.494530287396 -300.67155263396 , 400.378440918737 -310.860302610695 , 317.262351550078 -278.412851729674 , 246.083454513821 -199.470961428995 , 176.620945818491 -120.529071128316 , 107.158437123161 -48.7459736486168 , 92.8492576470116 0 , 92.8492576470116 Z "
       id="path4198"
       inkscape:connector-curvature="0"
       sodipodi:nodetypes="zzzzzzzzzzzzzzzzzzzzzzzzzz" />
  </g>
</svg>
