<?xml version="1.0" encoding="UTF-8" standalone="no"?>
<!-- Created with Inkscape (http://www.inkscape.org/) -->

<svg
   xmlns:dc="http://purl.org/dc/elements/1.1/"
   xmlns:cc="http://creativecommons.org/ns#"
   xmlns:rdf="http://www.w3.org/1999/02/22-rdf-syntax-ns#"
   xmlns:svg="http://www.w3.org/2000/svg"
   xmlns="http://www.w3.org/2000/svg"
   xmlns:sodipodi="http://sodipodi.sourceforge.net/DTD/sodipodi-0.dtd"
   xmlns:inkscape="http://www.inkscape.org/namespaces/inkscape"
   width="210mm"
   height="297mm"
   viewBox="0 0 744.09448819 1052.3622047"
   id="svg2"
   version="1.1"
   inkscape:version="0.91 r13725"
   sodipodi:docname="9_45.svg">
  <defs
     id="defs4" />
  <sodipodi:namedview
     id="base"
     pagecolor="#ffffff"
     bordercolor="#666666"
     borderopacity="1.0"
     inkscape:pageopacity="0.0"
     inkscape:pageshadow="2"
     inkscape:zoom="1.5982422"
     inkscape:cx="231.0919"
     inkscape:cy="520"
     inkscape:document-units="px"
     inkscape:current-layer="layer1"
     showgrid="false"
     inkscape:window-width="2560"
     inkscape:window-height="1315"
     inkscape:window-x="0"
     inkscape:window-y="1"
     inkscape:window-maximized="1" />
  <metadata
     id="metadata7">
    <rdf:RDF>
      <cc:Work
         rdf:about="">
        <dc:format>image/svg+xml</dc:format>
        <dc:type
           rdf:resource="http://purl.org/dc/dcmitype/StillImage" />
        <dc:title></dc:title>
      </cc:Work>
    </rdf:RDF>
  </metadata>
  <g
     inkscape:label="Layer 1"
     inkscape:groupmode="layer"
     id="layer1">
    <path
       style="fill:none;fill-rule:evenodd;stroke:#000000;stroke-width:3.38758254px;stroke-linecap:butt;stroke-linejoin:miter;stroke-opacity:1"
       d="M  0 , 106.25791271251 C  54.5380944417618 , 106.25791271251 92.5027556857925 , 121.59860379052 126.280307837563 , 143.274734254011 160.057859989334 , 164.950864717501 178.865808878405 , 188.504811184223 274.975983554843 , 292.588249032371 371.086158231281 , 396.67168688052 414.658110179785 , 390.742235754615 442.646859615902 , 466.364882782283 470.635609052019 , 541.987529809952 433.991375532844 , 624.671002284439 358.302918610227 , 650.306143352382 282.61446168761 , 675.941284420325 227.626131225971 , 635.912796515971 167.167647653612 , 587.233746255728 106.709164081254 , 538.554695995485 86.4940944167014 , 499.10960685006 77.3159425160621 , 472.81236431379 68.1377906154229 , 446.51512177752 65.713640875336 , 422.090696072506 67.0854988568169 , 399.588581755207 68.4573568382978 , 377.086467437909 75.2504430633299 , 327.758841778372 124.229157842012 , 259.829417348412 173.207872620694 , 191.899992918452 218.747905498275 , 147.195776566781 290.471759205495 , 150.712578815907 362.195612912715 , 154.229381065033 424.102962645268 , 214.527938592765 421.596511844515 , 296.11879346713 419.090061043762 , 377.709648341495 375.973667800559 , 388.949007367348 307.862311944829 , 505.646271933312 239.750956089098 , 622.343536499277 231.556304336791 , 667.69920631659 171.174926973567 , 701.528205170909 110.793549610343 , 735.357204025229 45.2355974865495 , 723.695151359656 1.77671436750134 , 687.220675479207 -41.6821687515468 , 650.746199598757 -55.3663262328163 , 606.266895997036 -66.4835927465589 , 472.535544392013 -77.6008592603014 , 338.804192786989 -68.2288359102327 , 310.48938776837 -79.6172690176859 , 233.039687672534 -91.0057021251391 , 155.589987576698 -165.763488115801 , 5.69286539407666 -284.751243709771 , 85.7478766551176 -403.73899930374 , 165.802887916158 -294.810115677746 , 318.415354020511 -151.696838502845 , 316.729791081149 -8.58356132794466 , 315.044228141786 -127.022707926001 , 316.378935358856 -13.6458110750408 , 315.149625500372 99.7310857759196 , 313.920315641888 134.700307016841 , 365.789333788945 145.149160208268 , 384.649228528465 155.598013399695 , 403.509123267985 164.874138016513 , 433.375494813024 154.944288686297 , 469.410674034501 145.014439356082 , 505.445853255978 115.765196846814 , 545.29417272076 35.4407825264411 , 575.479297844077 -44.8836317939318 , 605.664422967394 -100.916778867814 , 621.036181589998 -169.159773562748 , 593.512677422924 -237.402768257682 , 565.989173255851 -294.455140484365 , 501.296563857873 -304.397370438983 , 414.800241771237 -314.339600393601 , 328.303919684601 -276.000804997809 , 269.717139033334 -197.147482708028 , 199.026362941939 -118.294160418247 , 128.335586850544 -54.5380944417618 , 106.25791271251 0 , 106.25791271251 Z "
       id="path4198"
       inkscape:connector-curvature="0"
       sodipodi:nodetypes="zzzzzzzzzzzzzzzzzzzzzzzzzz" />
  </g>
</svg>
