<?xml version="1.0" encoding="UTF-8" standalone="no"?>
<!-- Created with Inkscape (http://www.inkscape.org/) -->

<svg
   xmlns:dc="http://purl.org/dc/elements/1.1/"
   xmlns:cc="http://creativecommons.org/ns#"
   xmlns:rdf="http://www.w3.org/1999/02/22-rdf-syntax-ns#"
   xmlns:svg="http://www.w3.org/2000/svg"
   xmlns="http://www.w3.org/2000/svg"
   xmlns:sodipodi="http://sodipodi.sourceforge.net/DTD/sodipodi-0.dtd"
   xmlns:inkscape="http://www.inkscape.org/namespaces/inkscape"
   width="210mm"
   height="297mm"
   viewBox="0 0 744.09448819 1052.3622047"
   id="svg2"
   version="1.1"
   inkscape:version="0.91 r13725"
   sodipodi:docname="9_46.svg">
  <defs
     id="defs4" />
  <sodipodi:namedview
     id="base"
     pagecolor="#ffffff"
     bordercolor="#666666"
     borderopacity="1.0"
     inkscape:pageopacity="0.0"
     inkscape:pageshadow="2"
     inkscape:zoom="1.4542524"
     inkscape:cx="3.3184464"
     inkscape:cy="1060.0345"
     inkscape:document-units="px"
     inkscape:current-layer="layer1"
     showgrid="false"
     inkscape:window-width="2560"
     inkscape:window-height="1315"
     inkscape:window-x="119"
     inkscape:window-y="0"
     inkscape:window-maximized="0" />
  <metadata
     id="metadata7">
    <rdf:RDF>
      <cc:Work
         rdf:about="">
        <dc:format>image/svg+xml</dc:format>
        <dc:type
           rdf:resource="http://purl.org/dc/dcmitype/StillImage" />
        <dc:title></dc:title>
      </cc:Work>
    </rdf:RDF>
  </metadata>
  <g
     inkscape:label="Layer 1"
     inkscape:groupmode="layer"
     id="layer1">
    <path
       style="fill:none;fill-rule:evenodd;stroke:#000000;stroke-width:3.23745823px;stroke-linecap:butt;stroke-linejoin:miter;stroke-opacity:1"
       d="M  95.6252834601946 , -338.732373103206 C  192.05754794345 , -357.167975697844 266.810947445458 , -293.443432138959 284.040980221643 , -224.251785409095 301.271012997828 , -155.060138679231 271.529031565855 , -117.886279602459 231.404431426855 , -55.0411867409083 191.279831287856 , 7.80390612064228 157.504702978044 , 26.0342505374184 138.32399237108 , 33.5241920881521 119.143281764116 , 41.0141336388857 85.1779414910923 , 49.4119605132041 43.8763281006494 , 30.5748694509298 2.57471471020659 , 11.7377783886555 -2.57471471020659 , -11.7377783886555 -43.8763281006494 , -30.5748694509298 -85.1779414910923 , -49.4119605132041 -119.143281764116 , -41.0141336388857 -138.32399237108 , -33.5241920881521 -157.504702978044 , -26.0342505374184 -191.279831287856 , -7.80390612064228 -231.404431426855 , 55.0411867409083 -271.529031565855 , 117.886279602459 -301.271012997828 , 155.060138679231 -284.040980221643 , 224.251785409095 -266.810947445458 , 293.443432138959 -192.05754794345 , 357.167975697844 -95.6252834601946 , 338.732373103206 0.806981023060615 , 320.296770508568 -9.12023148008626 , 271.607658997398 114.655728364801 , 198.182365296036 238.431688209688 , 124.757071594674 344.20286598354 , 116.395831669174 344.20286598354 , 0 344.20286598354 , -116.395831669174 238.431688209688 , -124.757071594674 114.655728364801 , -198.182365296036 -9.12023148008626 , -271.607658997398 0.806981023060617 , -320.296770508568 -95.6252834601946 , -338.732373103206 -192.05754794345 , -357.167975697844 -266.810947445458 , -293.443432138959 -284.040980221643 , -224.251785409095 -301.271012997828 , -155.060138679231 -271.529031565855 , -117.886279602459 -231.404431426855 , -55.0411867409083 -191.279831287856 , 7.80390612064228 -157.504702978044 , 26.0342505374184 -138.32399237108 , 33.5241920881521 -119.143281764116 , 41.0141336388857 -85.1779414910923 , 49.4119605132041 -43.8763281006494 , 30.5748694509298 -2.57471471020659 , 11.7377783886555 2.57471471020659 , -11.7377783886555 43.8763281006494 , -30.5748694509298 85.1779414910923 , -49.4119605132041 119.143281764116 , -41.0141336388857 138.32399237108 , -33.5241920881521 157.504702978044 , -26.0342505374184 191.279831287856 , -7.80390612064228 231.404431426855 , 55.0411867409083 271.529031565855 , 117.886279602459 301.271012997828 , 155.060138679231 284.040980221643 , 224.251785409095 266.810947445458 , 293.443432138959 192.05754794345 , 357.167975697844 95.6252834601946 , 338.732373103206 -0.806981023060615 , 320.296770508568 9.12023148008626 , 271.607658997398 -114.655728364801 , 198.182365296036 -238.431688209688 , 124.757071594674 -344.20286598354 , 116.395831669174 -344.20286598354 , 0 -344.20286598354 , -116.395831669174 -238.431688209688 , -124.757071594674 -114.655728364801 , -198.182365296036 9.12023148008626 , -271.607658997398 -0.806981023060615 , -320.296770508568 95.6252834601946 , -338.732373103206 Z "
       id="path4198"
       inkscape:connector-curvature="0"
       sodipodi:nodetypes="zzzzzzzzzzzzzzzzzzzzzzzzzzz" />
  </g>
</svg>
