<?xml version="1.0" encoding="UTF-8" standalone="no"?>
<!-- Created with Inkscape (http://www.inkscape.org/) -->

<svg
   xmlns:dc="http://purl.org/dc/elements/1.1/"
   xmlns:cc="http://creativecommons.org/ns#"
   xmlns:rdf="http://www.w3.org/1999/02/22-rdf-syntax-ns#"
   xmlns:svg="http://www.w3.org/2000/svg"
   xmlns="http://www.w3.org/2000/svg"
   xmlns:sodipodi="http://sodipodi.sourceforge.net/DTD/sodipodi-0.dtd"
   xmlns:inkscape="http://www.inkscape.org/namespaces/inkscape"
   width="210mm"
   height="297mm"
   viewBox="0 0 744.09448819 1052.3622047"
   id="svg2"
   version="1.1"
   inkscape:version="0.92.2 5c3e80d, 2017-08-06"
   sodipodi:docname="9_46.svg">
  <defs
     id="defs4" />
  <sodipodi:namedview
     id="base"
     pagecolor="#ffffff"
     bordercolor="#666666"
     borderopacity="1.0"
     inkscape:pageopacity="0.0"
     inkscape:pageshadow="2"
     inkscape:zoom="1.6445549"
     inkscape:cx="-182.0673"
     inkscape:cy="1221.8849"
     inkscape:document-units="px"
     inkscape:current-layer="layer1"
     showgrid="false"
     inkscape:window-width="2560"
     inkscape:window-height="1315"
     inkscape:window-x="-46"
     inkscape:window-y="165"
     inkscape:window-maximized="0" />
  <metadata
     id="metadata7">
    <rdf:RDF>
      <cc:Work
         rdf:about="">
        <dc:format>image/svg+xml</dc:format>
        <dc:type
           rdf:resource="http://purl.org/dc/dcmitype/StillImage" />
        <dc:title />
      </cc:Work>
    </rdf:RDF>
  </metadata>
  <g
     inkscape:label="Layer 1"
     inkscape:groupmode="layer"
     id="layer1">
    <path
       style="fill:none;fill-rule:evenodd;stroke:#000000;stroke-width:3.23745823px;stroke-linecap:butt;stroke-linejoin:miter;stroke-opacity:1"
       d="M  92.460960968782 , -341.537809506984 C  183.756182698851 , -358.041941294545 267.472237449401 , -294.451991386684 283.745578318556 , -225.736430390796 300.018919187712 , -157.020869394909 268.325869788714 , -120.479164407684 228.568347694081 , -56.4524867803317 188.810825599448 , 7.57419084702089 154.828165661067 , 25.3457321017045 136.496087645732 , 32.4746197556123 118.164009630397 , 39.6035074095201 84.7766959432096 , 48.2640159753808 43.8468504890773 , 30.2027827637293 2.91700503494501 , 12.1415495520777 -2.91700503494501 , -12.1415495520777 -43.8468504890773 , -30.2027827637293 -84.7766959432096 , -48.2640159753808 -118.164009630397 , -39.6035074095201 -136.496087645732 , -32.4746197556123 -154.828165661067 , -25.3457321017045 -188.810825599448 , -7.57419084702089 -228.568347694081 , 56.4524867803317 -268.325869788714 , 120.479164407684 -300.018919187712 , 157.020869394909 -283.745578318556 , 225.736430390796 -267.472237449401 , 294.451991386684 -183.756182698851 , 358.041941294545 -92.460960968782 , 341.537809506984 -1.16573923871269 , 325.033677719422 -5.07385122244946 , 281.844952186118 76.8610860937817 , 233.187814419116 158.796023410013 , 184.530676652114 137.74687627353 , 197.290201333087 182.099826768246 , 172.61816927875 226.452777262962 , 147.946137224413 292.038120459874 , 120.620341249827 318.488250951833 , 88.6096055629799 344.938381443792 , 56.598869876133 349.784260105446 , 23.8756566810942 349.784260105446 , 0 349.784260105446 , -23.8756566810942 344.938381443792 , -56.598869876133 318.488250951833 , -88.6096055629799 292.038120459874 , -120.620341249827 226.452777262962 , -147.946137224413 182.099826768246 , -172.61816927875 137.74687627353 , -197.290201333087 158.796023410013 , -184.530676652114 76.8610860937817 , -233.187814419116 -5.07385122244946 , -281.844952186118 -1.16573923871268 , -325.033677719422 -92.460960968782 , -341.537809506984 -183.756182698851 , -358.041941294545 -267.472237449401 , -294.451991386684 -283.745578318556 , -225.736430390796 -300.018919187712 , -157.020869394909 -268.325869788714 , -120.479164407684 -228.568347694081 , -56.4524867803317 -188.810825599448 , 7.57419084702089 -154.828165661067 , 25.3457321017045 -136.496087645732 , 32.4746197556123 -118.164009630397 , 39.6035074095201 -84.7766959432096 , 48.2640159753808 -43.8468504890773 , 30.2027827637293 -2.91700503494501 , 12.1415495520777 2.91700503494501 , -12.1415495520777 43.8468504890773 , -30.2027827637293 84.7766959432096 , -48.2640159753808 118.164009630397 , -39.6035074095201 136.496087645732 , -32.4746197556123 154.828165661067 , -25.3457321017045 188.810825599448 , -7.57419084702089 228.568347694081 , 56.4524867803317 268.325869788714 , 120.479164407684 300.018919187712 , 157.020869394909 283.745578318556 , 225.736430390796 267.472237449401 , 294.451991386684 183.756182698851 , 358.041941294545 92.460960968782 , 341.537809506984 1.16573923871269 , 325.033677719422 5.07385122244946 , 281.844952186118 -76.8610860937817 , 233.187814419116 -158.796023410013 , 184.530676652114 -137.74687627353 , 197.290201333087 -182.099826768246 , 172.61816927875 -226.452777262962 , 147.946137224413 -292.038120459874 , 120.620341249827 -318.488250951833 , 88.6096055629799 -344.938381443792 , 56.598869876133 -349.784260105446 , 23.8756566810942 -349.784260105446 , 0 -349.784260105446 , -23.8756566810942 -344.938381443792 , -56.598869876133 -318.488250951833 , -88.6096055629799 -292.038120459874 , -120.620341249827 -226.452777262962 , -147.946137224413 -182.099826768246 , -172.61816927875 -137.74687627353 , -197.290201333087 -158.796023410013 , -184.530676652114 -76.8610860937817 , -233.187814419116 5.07385122244946 , -281.844952186118 1.16573923871269 , -325.033677719422 92.460960968782 , -341.537809506984 Z "
       id="path4198"
       inkscape:connector-curvature="0"
       sodipodi:nodetypes="zzzzzzzzzzzzzzzzzzzzzzzzzzzzzzzzzzz" />
  </g>
</svg>
