<?xml version="1.0" encoding="UTF-8" standalone="no"?>
<!-- Created with Inkscape (http://www.inkscape.org/) -->

<svg
   xmlns:dc="http://purl.org/dc/elements/1.1/"
   xmlns:cc="http://creativecommons.org/ns#"
   xmlns:rdf="http://www.w3.org/1999/02/22-rdf-syntax-ns#"
   xmlns:svg="http://www.w3.org/2000/svg"
   xmlns="http://www.w3.org/2000/svg"
   xmlns:sodipodi="http://sodipodi.sourceforge.net/DTD/sodipodi-0.dtd"
   xmlns:inkscape="http://www.inkscape.org/namespaces/inkscape"
   width="210mm"
   height="297mm"
   viewBox="0 0 744.09448819 1052.3622047"
   id="svg2"
   version="1.1"
   inkscape:version="0.92.2 5c3e80d, 2017-08-06"
   sodipodi:docname="9_46.svg">
  <defs
     id="defs4" />
  <sodipodi:namedview
     id="base"
     pagecolor="#ffffff"
     bordercolor="#666666"
     borderopacity="1.0"
     inkscape:pageopacity="0.0"
     inkscape:pageshadow="2"
     inkscape:zoom="1.6445549"
     inkscape:cx="-182.0673"
     inkscape:cy="1221.8849"
     inkscape:document-units="px"
     inkscape:current-layer="layer1"
     showgrid="false"
     inkscape:window-width="2560"
     inkscape:window-height="1315"
     inkscape:window-x="-46"
     inkscape:window-y="165"
     inkscape:window-maximized="0" />
  <metadata
     id="metadata7">
    <rdf:RDF>
      <cc:Work
         rdf:about="">
        <dc:format>image/svg+xml</dc:format>
        <dc:type
           rdf:resource="http://purl.org/dc/dcmitype/StillImage" />
        <dc:title />
      </cc:Work>
    </rdf:RDF>
  </metadata>
  <g
     inkscape:label="Layer 1"
     inkscape:groupmode="layer"
     id="layer1">
    <path
       style="fill:none;fill-rule:evenodd;stroke:#000000;stroke-width:3.23745823px;stroke-linecap:butt;stroke-linejoin:miter;stroke-opacity:1"
       d="M  93.1280968113658 , -342.377462466277 C  185.44174379511 , -359.962257946105 257.925273107049 , -296.720819551749 275.646984240315 , -232.231835347602 293.368695373582 , -167.742851143455 268.577533233359 , -128.263731139169 229.080320712734 , -59.2698034550505 189.58310819211 , 9.72412422906795 150.097948078137 , 27.7777273086092 133.546119854845 , 33.8596620029476 116.994291631553 , 39.941596697286 83.5848180244962 , 48.588999372893 43.0582789591611 , 30.0352804599571 2.53173989382603 , 11.4815615470212 -2.53173989382602 , -11.4815615470212 -43.0582789591611 , -30.0352804599571 -83.5848180244962 , -48.588999372893 -116.994291631553 , -39.941596697286 -133.546119854845 , -33.8596620029476 -150.097948078137 , -27.7777273086092 -189.58310819211 , -9.72412422906795 -229.080320712734 , 59.2698034550505 -268.577533233359 , 128.263731139169 -293.368695373582 , 167.742851143455 -275.646984240315 , 232.231835347602 -257.925273107049 , 296.720819551749 -185.44174379511 , 359.962257946105 -93.1280968113658 , 342.377462466277 -0.814449827621416 , 324.792666986449 -9.5509270771918 , 285.449525551122 79.3368902031769 , 232.608491340796 168.224707483546 , 179.76745713047 87.9583640431246 , 227.476469315454 168.357459871557 , 179.689015188657 248.756555699989 , 131.90156106186 286.414673616103 , 130.02547675722 320.626332360089 , 90.0963484011529 354.837991104075 , 50.1672200450861 355.14681713995 , 8.57366284176099 355.14681713995 , 0 355.14681713995 , -8.57366284176099 354.837991104075 , -50.1672200450861 320.626332360089 , -90.0963484011529 286.414673616103 , -130.02547675722 248.756555699989 , -131.90156106186 168.357459871557 , -179.689015188657 87.9583640431246 , -227.476469315454 168.224707483546 , -179.76745713047 79.3368902031769 , -232.608491340796 -9.5509270771918 , -285.449525551122 -0.814449827621429 , -324.792666986449 -93.1280968113658 , -342.377462466277 -185.44174379511 , -359.962257946105 -257.925273107049 , -296.720819551749 -275.646984240315 , -232.231835347602 -293.368695373582 , -167.742851143455 -268.577533233359 , -128.263731139169 -229.080320712734 , -59.2698034550505 -189.58310819211 , 9.72412422906795 -150.097948078137 , 27.7777273086092 -133.546119854845 , 33.8596620029476 -116.994291631553 , 39.941596697286 -83.5848180244962 , 48.588999372893 -43.0582789591611 , 30.0352804599571 -2.53173989382603 , 11.4815615470212 2.53173989382602 , -11.4815615470212 43.0582789591611 , -30.0352804599571 83.5848180244962 , -48.588999372893 116.994291631553 , -39.941596697286 133.546119854845 , -33.8596620029476 150.097948078137 , -27.7777273086092 189.58310819211 , -9.72412422906795 229.080320712734 , 59.2698034550505 268.577533233359 , 128.263731139169 293.368695373582 , 167.742851143455 275.646984240315 , 232.231835347602 257.925273107049 , 296.720819551749 185.44174379511 , 359.962257946105 93.1280968113658 , 342.377462466277 0.814449827621416 , 324.792666986449 9.5509270771918 , 285.449525551122 -79.3368902031769 , 232.608491340796 -168.224707483546 , 179.76745713047 -87.9583640431246 , 227.476469315454 -168.357459871557 , 179.689015188657 -248.756555699989 , 131.90156106186 -286.414673616103 , 130.02547675722 -320.626332360089 , 90.0963484011529 -354.837991104075 , 50.1672200450861 -355.14681713995 , 8.57366284176099 -355.14681713995 , 0 -355.14681713995 , -8.57366284176099 -354.837991104075 , -50.1672200450861 -320.626332360089 , -90.0963484011529 -286.414673616103 , -130.02547675722 -248.756555699989 , -131.90156106186 -168.357459871557 , -179.689015188657 -87.9583640431246 , -227.476469315454 -168.224707483546 , -179.76745713047 -79.3368902031769 , -232.608491340796 9.5509270771918 , -285.449525551122 0.814449827621431 , -324.792666986449 93.1280968113658 , -342.377462466277 Z "
       id="path4198"
       inkscape:connector-curvature="0"
       sodipodi:nodetypes="zzzzzzzzzzzzzzzzzzzzzzzzzzzzzzzzzzz" />
  </g>
</svg>
