<?xml version="1.0" encoding="UTF-8" standalone="no"?>
<!-- Created with Inkscape (http://www.inkscape.org/) -->

<svg
   xmlns:dc="http://purl.org/dc/elements/1.1/"
   xmlns:cc="http://creativecommons.org/ns#"
   xmlns:rdf="http://www.w3.org/1999/02/22-rdf-syntax-ns#"
   xmlns:svg="http://www.w3.org/2000/svg"
   xmlns="http://www.w3.org/2000/svg"
   xmlns:sodipodi="http://sodipodi.sourceforge.net/DTD/sodipodi-0.dtd"
   xmlns:inkscape="http://www.inkscape.org/namespaces/inkscape"
   width="210mm"
   height="297mm"
   viewBox="0 0 744.09448819 1052.3622047"
   id="svg2"
   version="1.1"
   inkscape:version="0.92.2 5c3e80d, 2017-08-06"
   sodipodi:docname="9_46.svg">
  <defs
     id="defs4" />
  <sodipodi:namedview
     id="base"
     pagecolor="#ffffff"
     bordercolor="#666666"
     borderopacity="1.0"
     inkscape:pageopacity="0.0"
     inkscape:pageshadow="2"
     inkscape:zoom="1.6445549"
     inkscape:cx="-182.0673"
     inkscape:cy="1221.8849"
     inkscape:document-units="px"
     inkscape:current-layer="layer1"
     showgrid="false"
     inkscape:window-width="2560"
     inkscape:window-height="1315"
     inkscape:window-x="-46"
     inkscape:window-y="165"
     inkscape:window-maximized="0" />
  <metadata
     id="metadata7">
    <rdf:RDF>
      <cc:Work
         rdf:about="">
        <dc:format>image/svg+xml</dc:format>
        <dc:type
           rdf:resource="http://purl.org/dc/dcmitype/StillImage" />
        <dc:title />
      </cc:Work>
    </rdf:RDF>
  </metadata>
  <g
     inkscape:label="Layer 1"
     inkscape:groupmode="layer"
     id="layer1">
    <path
       style="fill:none;fill-rule:evenodd;stroke:#000000;stroke-width:3.23745823px;stroke-linecap:butt;stroke-linejoin:miter;stroke-opacity:1"
       d="M  98.4753819708735 , -339.557799878086 C  187.658482110532 , -354.590010981553 252.126135792403 , -296.356318685361 271.143700943282 , -235.588891507135 290.161266094161 , -174.82146432891 272.595588152321 , -124.831453800882 236.265288032845 , -59.6120675322299 199.93498791337 , 5.60731873642195 150.588273738919 , 24.6048163770792 133.449714341244 , 29.4475733415833 116.311154943569 , 34.2903303060873 87.7782046460983 , 39.0532425873791 48.4585613475066 , 24.6106806868728 9.13891804891496 , 10.1681187863665 -9.13891804891496 , -10.1681187863665 -48.4585613475066 , -24.6106806868728 -87.7782046460983 , -39.0532425873791 -116.311154943569 , -34.2903303060873 -133.449714341244 , -29.4475733415833 -150.588273738919 , -24.6048163770792 -199.93498791337 , -5.60731873642195 -236.265288032845 , 59.6120675322299 -272.595588152321 , 124.831453800882 -290.161266094161 , 174.82146432891 -271.143700943282 , 235.588891507135 -252.126135792403 , 296.356318685361 -187.658482110532 , 354.590010981553 -98.4753819708735 , 339.557799878086 -9.29228183121512 , 324.52558877462 6.40321899189601 , 288.717842080035 88.3722972360001 , 237.1989028807 170.341375480104 , 185.679963681366 98.4799454356091 , 230.844374049893 174.35114467127 , 183.167417969263 250.222343906931 , 135.490461888632 285.640957739353 , 128.827563599961 319.611564609227 , 88.7466118805447 353.582171479102 , 48.6656601611284 354.481058810865 , 9.70265441915476 354.481058810865 , 0 354.481058810865 , -9.70265441915476 353.582171479102 , -48.6656601611284 319.611564609227 , -88.7466118805447 285.640957739353 , -128.827563599961 250.222343906931 , -135.490461888632 174.35114467127 , -183.167417969263 98.4799454356091 , -230.844374049893 170.341375480104 , -185.679963681366 88.3722972360001 , -237.1989028807 6.40321899189601 , -288.717842080035 -9.29228183121514 , -324.52558877462 -98.4753819708735 , -339.557799878086 -187.658482110532 , -354.590010981553 -252.126135792403 , -296.356318685361 -271.143700943282 , -235.588891507135 -290.161266094161 , -174.82146432891 -272.595588152321 , -124.831453800882 -236.265288032845 , -59.6120675322299 -199.93498791337 , 5.60731873642195 -150.588273738919 , 24.6048163770792 -133.449714341244 , 29.4475733415833 -116.311154943569 , 34.2903303060873 -87.7782046460983 , 39.0532425873791 -48.4585613475066 , 24.6106806868728 -9.13891804891496 , 10.1681187863665 9.13891804891496 , -10.1681187863665 48.4585613475066 , -24.6106806868728 87.7782046460983 , -39.0532425873791 116.311154943569 , -34.2903303060873 133.449714341244 , -29.4475733415833 150.588273738919 , -24.6048163770792 199.93498791337 , -5.60731873642195 236.265288032845 , 59.6120675322299 272.595588152321 , 124.831453800882 290.161266094161 , 174.82146432891 271.143700943282 , 235.588891507135 252.126135792403 , 296.356318685361 187.658482110532 , 354.590010981553 98.4753819708735 , 339.557799878086 9.29228183121512 , 324.52558877462 -6.40321899189601 , 288.717842080035 -88.3722972360001 , 237.1989028807 -170.341375480104 , 185.679963681366 -98.4799454356091 , 230.844374049893 -174.35114467127 , 183.167417969263 -250.222343906931 , 135.490461888632 -285.640957739353 , 128.827563599961 -319.611564609227 , 88.7466118805447 -353.582171479102 , 48.6656601611284 -354.481058810865 , 9.70265441915476 -354.481058810865 , 0 -354.481058810865 , -9.70265441915476 -353.582171479102 , -48.6656601611284 -319.611564609227 , -88.7466118805447 -285.640957739353 , -128.827563599961 -250.222343906931 , -135.490461888632 -174.35114467127 , -183.167417969263 -98.4799454356091 , -230.844374049893 -170.341375480104 , -185.679963681366 -88.3722972360001 , -237.1989028807 -6.40321899189601 , -288.717842080035 9.29228183121513 , -324.52558877462 98.4753819708735 , -339.557799878086 Z "
       id="path4198"
       inkscape:connector-curvature="0"
       sodipodi:nodetypes="zzzzzzzzzzzzzzzzzzzzzzzzzzzzzzzzzzz" />
  </g>
</svg>
