<?xml version="1.0" encoding="UTF-8" standalone="no"?>
<!-- Created with Inkscape (http://www.inkscape.org/) -->

<svg
   xmlns:dc="http://purl.org/dc/elements/1.1/"
   xmlns:cc="http://creativecommons.org/ns#"
   xmlns:rdf="http://www.w3.org/1999/02/22-rdf-syntax-ns#"
   xmlns:svg="http://www.w3.org/2000/svg"
   xmlns="http://www.w3.org/2000/svg"
   xmlns:sodipodi="http://sodipodi.sourceforge.net/DTD/sodipodi-0.dtd"
   xmlns:inkscape="http://www.inkscape.org/namespaces/inkscape"
   width="210mm"
   height="297mm"
   viewBox="0 0 744.09448819 1052.3622047"
   id="svg2"
   version="1.1"
   inkscape:version="0.92.2 5c3e80d, 2017-08-06"
   sodipodi:docname="9_46.svg">
  <defs
     id="defs4" />
  <sodipodi:namedview
     id="base"
     pagecolor="#ffffff"
     bordercolor="#666666"
     borderopacity="1.0"
     inkscape:pageopacity="0.0"
     inkscape:pageshadow="2"
     inkscape:zoom="1.6445549"
     inkscape:cx="-182.0673"
     inkscape:cy="1221.8849"
     inkscape:document-units="px"
     inkscape:current-layer="layer1"
     showgrid="false"
     inkscape:window-width="2560"
     inkscape:window-height="1315"
     inkscape:window-x="-46"
     inkscape:window-y="165"
     inkscape:window-maximized="0" />
  <metadata
     id="metadata7">
    <rdf:RDF>
      <cc:Work
         rdf:about="">
        <dc:format>image/svg+xml</dc:format>
        <dc:type
           rdf:resource="http://purl.org/dc/dcmitype/StillImage" />
        <dc:title />
      </cc:Work>
    </rdf:RDF>
  </metadata>
  <g
     inkscape:label="Layer 1"
     inkscape:groupmode="layer"
     id="layer1">
    <path
       style="fill:none;fill-rule:evenodd;stroke:#000000;stroke-width:3.23745823px;stroke-linecap:butt;stroke-linejoin:miter;stroke-opacity:1"
       d="M  95.4049534626104 , -342.945745044916 C  185.895827359808 , -357.93521220261 255.760595150793 , -298.359230419838 274.518281896852 , -234.097581435032 293.275968642912 , -169.835932450226 269.251949964172 , -129.785594238064 230.032838678047 , -60.1676221451767 190.813727391922 , 9.45034994771024 150.537094478517 , 28.0214959870401 133.790581096076 , 34.1921180267707 117.044067713635 , 40.3627400665012 83.983977018736 , 48.8525432639308 43.3635560255021 , 30.2722720392257 2.74313503226819 , 11.6920008145206 -2.74313503226818 , -11.6920008145206 -43.3635560255021 , -30.2722720392257 -83.983977018736 , -48.8525432639308 -117.044067713635 , -40.3627400665012 -133.790581096076 , -34.1921180267707 -150.537094478517 , -28.0214959870401 -190.813727391922 , -9.45034994771024 -230.032838678047 , 60.1676221451767 -269.251949964172 , 129.785594238064 -293.275968642912 , 169.835932450226 -274.518281896852 , 234.097581435032 -255.760595150793 , 298.359230419838 -185.895827359808 , 357.93521220261 -95.4049534626104 , 342.945745044916 -4.91407956541235 , 327.956277887222 -10.0229633807142 , 285.384686869813 78.9792708261318 , 232.642110370372 167.981505032978 , 179.89953387093 87.9635661954643 , 227.314609207941 168.422814632758 , 179.642370094829 248.882063070053 , 131.970130981717 286.351465958692 , 130.928752757072 320.878162519168 , 90.9461839614854 355.404859079644 , 50.9636151658992 355.713669375681 , 8.65960342742887 355.713669375681 , 0 355.713669375681 , -8.65960342742887 355.404859079644 , -50.9636151658992 320.878162519168 , -90.9461839614854 286.351465958692 , -130.928752757072 248.882063070053 , -131.970130981717 168.422814632758 , -179.642370094829 87.9635661954643 , -227.314609207941 167.981505032978 , -179.89953387093 78.9792708261318 , -232.642110370372 -10.0229633807142 , -285.384686869813 -4.91407956541235 , -327.956277887222 -95.4049534626104 , -342.945745044916 -185.895827359808 , -357.93521220261 -255.760595150793 , -298.359230419838 -274.518281896852 , -234.097581435032 -293.275968642912 , -169.835932450226 -269.251949964172 , -129.785594238064 -230.032838678047 , -60.1676221451767 -190.813727391922 , 9.45034994771024 -150.537094478517 , 28.0214959870401 -133.790581096076 , 34.1921180267707 -117.044067713635 , 40.3627400665012 -83.983977018736 , 48.8525432639308 -43.3635560255021 , 30.2722720392257 -2.74313503226819 , 11.6920008145206 2.74313503226818 , -11.6920008145206 43.3635560255021 , -30.2722720392257 83.983977018736 , -48.8525432639308 117.044067713635 , -40.3627400665012 133.790581096076 , -34.1921180267707 150.537094478517 , -28.0214959870401 190.813727391922 , -9.45034994771024 230.032838678047 , 60.1676221451767 269.251949964172 , 129.785594238064 293.275968642912 , 169.835932450226 274.518281896852 , 234.097581435032 255.760595150793 , 298.359230419838 185.895827359808 , 357.93521220261 95.4049534626104 , 342.945745044916 4.91407956541235 , 327.956277887222 10.0229633807142 , 285.384686869813 -78.9792708261318 , 232.642110370372 -167.981505032978 , 179.89953387093 -87.9635661954643 , 227.314609207941 -168.422814632758 , 179.642370094829 -248.882063070053 , 131.970130981717 -286.351465958692 , 130.928752757072 -320.878162519168 , 90.9461839614854 -355.404859079644 , 50.9636151658992 -355.713669375681 , 8.65960342742887 -355.713669375681 , 0 -355.713669375681 , -8.65960342742887 -355.404859079644 , -50.9636151658992 -320.878162519168 , -90.9461839614854 -286.351465958692 , -130.928752757072 -248.882063070053 , -131.970130981717 -168.422814632758 , -179.642370094829 -87.9635661954643 , -227.314609207941 -167.981505032978 , -179.89953387093 -78.9792708261318 , -232.642110370372 10.0229633807142 , -285.384686869813 4.91407956541235 , -327.956277887222 95.4049534626104 , -342.945745044916 Z "
       id="path4198"
       inkscape:connector-curvature="0"
       sodipodi:nodetypes="zzzzzzzzzzzzzzzzzzzzzzzzzzzzzzzzzzz" />
  </g>
</svg>
