<?xml version="1.0" encoding="UTF-8" standalone="no"?>
<!-- Created with Inkscape (http://www.inkscape.org/) -->

<svg
   xmlns:dc="http://purl.org/dc/elements/1.1/"
   xmlns:cc="http://creativecommons.org/ns#"
   xmlns:rdf="http://www.w3.org/1999/02/22-rdf-syntax-ns#"
   xmlns:svg="http://www.w3.org/2000/svg"
   xmlns="http://www.w3.org/2000/svg"
   xmlns:sodipodi="http://sodipodi.sourceforge.net/DTD/sodipodi-0.dtd"
   xmlns:inkscape="http://www.inkscape.org/namespaces/inkscape"
   width="210mm"
   height="297mm"
   viewBox="0 0 744.09448819 1052.3622047"
   id="svg4219"
   version="1.1"
   inkscape:version="0.91 r13725"
   sodipodi:docname="9_47.svg">
  <defs
     id="defs4221" />
  <sodipodi:namedview
     id="base"
     pagecolor="#ffffff"
     bordercolor="#666666"
     borderopacity="1.0"
     inkscape:pageopacity="0.0"
     inkscape:pageshadow="2"
     inkscape:zoom="1.5982422"
     inkscape:cx="231.0919"
     inkscape:cy="520"
     inkscape:document-units="px"
     inkscape:current-layer="layer1"
     showgrid="false"
     inkscape:window-width="2560"
     inkscape:window-height="1315"
     inkscape:window-x="393"
     inkscape:window-y="135"
     inkscape:window-maximized="0" />
  <metadata
     id="metadata4224">
    <rdf:RDF>
      <cc:Work
         rdf:about="">
        <dc:format>image/svg+xml</dc:format>
        <dc:type
           rdf:resource="http://purl.org/dc/dcmitype/StillImage" />
        <dc:title></dc:title>
      </cc:Work>
    </rdf:RDF>
  </metadata>
  <g
     inkscape:label="Layer 1"
     inkscape:groupmode="layer"
     id="layer1">
    <path
       style="fill:none;fill-rule:evenodd;stroke:#000000;stroke-width:2.95808434px;stroke-linecap:butt;stroke-linejoin:miter;stroke-opacity:1"
       d="M  0 , -28.1750082966362 C  13.7468225773711 , -28.1750082966362 73.5307303559812 , -26.8940589115977 122.118162227578 , 25.0699500607684 170.705594099174 , 77.0339590331344 174.806871572791 , 137.317414654527 160.054775290394 , 273.481271024411 145.302679007997 , 409.645127394296 85.1692992129084 , 460.427423376207 43.1595485827607 , 504.177511416549 1.14979795261311 , 547.927599456892 -20.3411534765168 , 579.44420690768 -83.0823044578641 , 597.112464965677 -145.823455439211 , 614.780723023674 -234.08428063792 , 611.891102779151 -300.066047679488 , 541.024751818621 -366.047814721056 , 470.158400858092 -369.350518563513 , 385.642766810834 -367.685430876872 , 349.859660943203 -366.02034319023 , 314.076555075573 -354.788167047712 , 236.192255199712 -292.34803589032 , 179.687162018894 -229.907904732927 , 123.182068838076 -160.345396048992 , 124.907657322896 -74.6612384451236 , 151.935774596186 11.0229191587451 , 178.963891869475 30.275251898161 , 239.150078022494 33.5049347731755 , 249.70848827775 36.7346176481901 , 260.266898533006 43.5109920888407 , 286.598891233902 32.9245927339755 , 319.924279786649 22.3381933791103 , 353.249668339395 0.797424298254052 , 374.217846454606 -44.5245735722186 , 412.233074271366 -89.8465714426913 , 450.248302088126 -118.459064744674 , 464.361052847856 -149.256177372627 , 521.00100700148 -180.053290000581 , 577.640961155104 -194.561195346931 , 659.132819143545 -141.253400388419 , 726.839392067126 -87.9456054299063 , 794.545964990706 -12.0853658355527 , 794.992222942661 0 , 794.992222942661 12.0853658355527 , 794.992222942661 87.9456054299063 , 794.545964990706 141.253400388419 , 726.839392067126 194.561195346931 , 659.132819143545 180.053290000581 , 577.640961155104 149.256177372627 , 521.00100700148 118.459064744674 , 464.361052847855 89.8465714426913 , 450.248302088126 44.5245735722186 , 412.233074271366 -0.797424298254057 , 374.217846454606 -22.3381933791103 , 353.249668339395 -32.9245927339755 , 319.924279786649 -43.5109920888407 , 286.598891233902 -36.7346176481901 , 260.266898533006 -33.5049347731755 , 249.70848827775 -30.275251898161 , 239.150078022494 -11.0229191587451 , 178.963891869475 74.6612384451236 , 151.935774596186 160.345396048992 , 124.907657322896 229.907904732927 , 123.182068838076 292.34803589032 , 179.687162018894 354.788167047712 , 236.192255199712 366.02034319023 , 314.076555075573 367.685430876872 , 349.859660943203 369.350518563513 , 385.642766810834 366.047814721056 , 470.158400858092 300.066047679488 , 541.024751818621 234.08428063792 , 611.891102779151 145.823455439211 , 614.780723023674 83.0823044578641 , 597.112464965677 20.3411534765168 , 579.44420690768 -1.14979795261311 , 547.927599456892 -43.1595485827607 , 504.177511416549 -85.1692992129084 , 460.427423376207 -145.302679007997 , 409.645127394296 -160.054775290394 , 273.481271024411 -174.806871572791 , 137.317414654527 -170.705594099174 , 77.0339590331344 -122.118162227578 , 25.0699500607684 -73.5307303559812 , -26.8940589115977 -13.7468225773711 , -28.1750082966362 0 , -28.1750082966362 Z "
       id="path4829"
       inkscape:connector-curvature="0"
       sodipodi:nodetypes="zzzzzzzzzzzzzzzzzzzzzzzzzzzzz" />
  </g>
</svg>
