<?xml version="1.0" encoding="UTF-8" standalone="no"?>
<!-- Created with Inkscape (http://www.inkscape.org/) -->

<svg
   xmlns:dc="http://purl.org/dc/elements/1.1/"
   xmlns:cc="http://creativecommons.org/ns#"
   xmlns:rdf="http://www.w3.org/1999/02/22-rdf-syntax-ns#"
   xmlns:svg="http://www.w3.org/2000/svg"
   xmlns="http://www.w3.org/2000/svg"
   xmlns:sodipodi="http://sodipodi.sourceforge.net/DTD/sodipodi-0.dtd"
   xmlns:inkscape="http://www.inkscape.org/namespaces/inkscape"
   width="210mm"
   height="297mm"
   viewBox="0 0 744.09448819 1052.3622047"
   id="svg2"
   version="1.1"
   inkscape:version="0.91 r13725"
   sodipodi:docname="9_48.svg">
  <defs
     id="defs4" />
  <sodipodi:namedview
     id="base"
     pagecolor="#ffffff"
     bordercolor="#666666"
     borderopacity="1.0"
     inkscape:pageopacity="0.0"
     inkscape:pageshadow="2"
     inkscape:zoom="1.5982422"
     inkscape:cx="231.0919"
     inkscape:cy="520"
     inkscape:document-units="px"
     inkscape:current-layer="layer1"
     showgrid="false"
     inkscape:window-width="2560"
     inkscape:window-height="1315"
     inkscape:window-x="247"
     inkscape:window-y="81"
     inkscape:window-maximized="0" />
  <metadata
     id="metadata7">
    <rdf:RDF>
      <cc:Work
         rdf:about="">
        <dc:format>image/svg+xml</dc:format>
        <dc:type
           rdf:resource="http://purl.org/dc/dcmitype/StillImage" />
        <dc:title></dc:title>
      </cc:Work>
    </rdf:RDF>
  </metadata>
  <g
     inkscape:label="Layer 1"
     inkscape:groupmode="layer"
     id="layer1">
    <path
       style="fill:none;fill-rule:evenodd;stroke:#000000;stroke-width:3.04909515px;stroke-linecap:butt;stroke-linejoin:miter;stroke-opacity:1"
       d="M  0 , 85.0580866863664 C  9.41616621189404 , 85.0580866863664 41.798179254204 , 85.604134916914 77.8502089923455 , 104.433011228593 113.902238730487 , 123.261887540272 148.515122292376 , 153.917060464733 208.943586375997 , 273.613701285736 269.372050459618 , 393.310342106739 293.528416064254 , 445.693874862888 302.279366671585 , 523.797075976082 311.030317278916 , 601.900277089276 294.195432453783 , 658.529426870791 288.95643903138 , 675.042949176449 283.717445608977 , 691.556471482107 242.522488067795 , 819.596625509417 120.684451620527 , 837.369929628997 -1.15358482674083 , 855.143233748577 -32.9943994902594 , 754.298819540376 -35.9946631639081 , 744.613741951513 -38.9949268375568 , 734.92866436265 -48.84687420794 , 700.735315183552 -32.8086306253666 , 653.683294434449 -16.7703870427932 , 606.631273685346 12.4636342768664 , 586.610052771164 43.561982034844 , 523.286317127695 74.6603297928216 , 459.962581484226 70.6546931257351 , 397.124875669762 50.3797366261277 , 343.994557861797 30.1047801265203 , 290.864240053832 -6.39059940911921 , 248.662943231217 -67.0402531313083 , 205.117717678123 -127.689906853497 , 161.572492125029 -188.895375736285 , 129.352384312708 -255.415026111124 , 153.311945680718 -321.934676485963 , 177.271507048728 -355.078776045805 , 247.473606239521 -333.020356693871 , 313.664445277368 -310.961937341937 , 379.855284315215 -244.984491813982 , 411.356860926376 -178.306712081628 , 426.242815190334 -111.628932349274 , 441.128769454292 -45.8718839698375 , 439.049229005257 0 , 439.049229005257 45.8718839698375 , 439.049229005257 111.628932349274 , 441.128769454292 178.306712081628 , 426.242815190334 244.984491813982 , 411.356860926376 310.961937341937 , 379.855284315215 333.020356693871 , 313.664445277368 355.078776045805 , 247.473606239521 321.934676485963 , 177.271507048728 255.415026111124 , 153.311945680718 188.895375736285 , 129.352384312708 127.689906853497 , 161.572492125029 67.0402531313083 , 205.117717678123 6.3905994091192 , 248.662943231217 -30.1047801265203 , 290.864240053832 -50.3797366261277 , 343.994557861797 -70.6546931257351 , 397.124875669762 -74.6603297928216 , 459.962581484226 -43.561982034844 , 523.286317127695 -12.4636342768664 , 586.610052771164 16.7703870427932 , 606.631273685346 32.8086306253666 , 653.683294434449 48.84687420794 , 700.735315183552 38.9949268375568 , 734.92866436265 35.9946631639081 , 744.613741951513 32.9943994902594 , 754.298819540376 1.15358482674083 , 855.143233748577 -120.684451620527 , 837.369929628997 -242.522488067795 , 819.596625509417 -283.717445608977 , 691.556471482107 -288.95643903138 , 675.042949176449 -294.195432453783 , 658.529426870791 -311.030317278916 , 601.900277089276 -302.279366671585 , 523.797075976082 -293.528416064254 , 445.693874862888 -269.372050459618 , 393.310342106739 -208.943586375997 , 273.613701285736 -148.515122292376 , 153.917060464733 -113.902238730487 , 123.261887540272 -77.8502089923455 , 104.433011228593 -41.798179254204 , 85.604134916914 -9.41616621189404 , 85.0580866863664 0 , 85.0580866863664 Z "
       id="path4198"
       inkscape:connector-curvature="0"
       sodipodi:nodetypes="zzzzzzzzzzzzzzzzzzzzzzzzzzzzz" />
  </g>
</svg>
