<?xml version="1.0" encoding="UTF-8" standalone="no"?>
<!-- Created with Inkscape (http://www.inkscape.org/) -->

<svg
   xmlns:dc="http://purl.org/dc/elements/1.1/"
   xmlns:cc="http://creativecommons.org/ns#"
   xmlns:rdf="http://www.w3.org/1999/02/22-rdf-syntax-ns#"
   xmlns:svg="http://www.w3.org/2000/svg"
   xmlns="http://www.w3.org/2000/svg"
   xmlns:sodipodi="http://sodipodi.sourceforge.net/DTD/sodipodi-0.dtd"
   xmlns:inkscape="http://www.inkscape.org/namespaces/inkscape"
   width="210mm"
   height="297mm"
   viewBox="0 0 744.09448819 1052.3622047"
   id="svg2"
   version="1.1"
   inkscape:version="0.91 r13725"
   sodipodi:docname="9_48.svg">
  <defs
     id="defs4" />
  <sodipodi:namedview
     id="base"
     pagecolor="#ffffff"
     bordercolor="#666666"
     borderopacity="1.0"
     inkscape:pageopacity="0.0"
     inkscape:pageshadow="2"
     inkscape:zoom="1.5982422"
     inkscape:cx="231.0919"
     inkscape:cy="520"
     inkscape:document-units="px"
     inkscape:current-layer="layer1"
     showgrid="false"
     inkscape:window-width="2560"
     inkscape:window-height="1315"
     inkscape:window-x="247"
     inkscape:window-y="81"
     inkscape:window-maximized="0" />
  <metadata
     id="metadata7">
    <rdf:RDF>
      <cc:Work
         rdf:about="">
        <dc:format>image/svg+xml</dc:format>
        <dc:type
           rdf:resource="http://purl.org/dc/dcmitype/StillImage" />
        <dc:title></dc:title>
      </cc:Work>
    </rdf:RDF>
  </metadata>
  <g
     inkscape:label="Layer 1"
     inkscape:groupmode="layer"
     id="layer1">
    <path
       style="fill:none;fill-rule:evenodd;stroke:#000000;stroke-width:3.04909515px;stroke-linecap:butt;stroke-linejoin:miter;stroke-opacity:1"
       d="M  0 , 81.4844476872836 C  10.6231335319424 , 81.4844476872836 47.7764787342116 , 82.282551496409 86.4067828277026 , 108.42269628837 125.037086921194 , 134.562841080331 141.593475145627 , 164.868439052185 193.727215949714 , 273.897261856436 245.860956753801 , 382.926084660687 275.287070259558 , 432.752802753557 287.891968100332 , 502.126304958825 300.496865941106 , 571.499807164094 290.730279015362 , 630.423294712112 282.420491172327 , 662.212263442999 274.110703329293 , 694.001232173886 236.464050179218 , 819.121039710243 118.644889591861 , 839.253201517514 0.825729004505092 , 859.385363324785 -36.4909941739802 , 750.480212833306 -39.2439167028552 , 742.390489959366 -41.9968392317302 , 734.300767085426 -55.6055234199043 , 693.886188505518 -35.871939102232 , 643.746979644391 -16.1383547845597 , 593.607770783264 13.3467541462615 , 588.839328824851 46.6475915569871 , 529.166520492821 79.9484289677127 , 469.493712160791 75.1102673598742 , 403.686620696275 51.4856895008883 , 349.933398939378 27.8611116419025 , 296.180177182481 -5.1689808398312 , 265.055829945224 -66.6583019571288 , 218.002622679202 -128.147623074426 , 170.94941541318 -184.839930702535 , 128.344849374024 -257.341793092151 , 150.861261861894 -329.843655481768 , 173.377674349764 -364.980347081613 , 250.874756625721 -335.602204152509 , 321.045966408503 -306.224061223405 , 391.217176191285 -232.557516869701 , 414.022593713357 -172.631150723381 , 425.711442251398 -112.704784577061 , 437.40029078944 -59.82899254048 , 435.554864082593 0 , 435.554864082593 59.82899254048 , 435.554864082593 112.704784577061 , 437.40029078944 172.631150723381 , 425.711442251398 232.557516869701 , 414.022593713357 306.224061223405 , 391.217176191285 335.602204152509 , 321.045966408503 364.980347081613 , 250.874756625721 329.843655481768 , 173.377674349764 257.341793092151 , 150.861261861894 184.839930702535 , 128.344849374024 128.147623074426 , 170.94941541318 66.6583019571288 , 218.002622679202 5.16898083983119 , 265.055829945224 -27.8611116419025 , 296.180177182481 -51.4856895008883 , 349.933398939378 -75.1102673598742 , 403.686620696275 -79.9484289677127 , 469.493712160791 -46.6475915569871 , 529.166520492821 -13.3467541462615 , 588.839328824851 16.1383547845597 , 593.607770783264 35.871939102232 , 643.746979644391 55.6055234199043 , 693.886188505518 41.9968392317302 , 734.300767085426 39.2439167028552 , 742.390489959366 36.4909941739802 , 750.480212833306 -0.825729004505098 , 859.385363324785 -118.644889591861 , 839.253201517514 -236.464050179218 , 819.121039710243 -274.110703329293 , 694.001232173886 -282.420491172327 , 662.212263442999 -290.730279015362 , 630.423294712112 -300.496865941106 , 571.499807164094 -287.891968100332 , 502.126304958825 -275.287070259558 , 432.752802753557 -245.860956753801 , 382.926084660687 -193.727215949714 , 273.897261856436 -141.593475145627 , 164.868439052185 -125.037086921194 , 134.562841080331 -86.4067828277026 , 108.42269628837 -47.7764787342116 , 82.282551496409 -10.6231335319424 , 81.4844476872836 0 , 81.4844476872836 Z "
       id="path4198"
       inkscape:connector-curvature="0"
       sodipodi:nodetypes="zzzzzzzzzzzzzzzzzzzzzzzzzzzzz" />
  </g>
</svg>
