<?xml version="1.0" encoding="UTF-8" standalone="no"?>
<!-- Created with Inkscape (http://www.inkscape.org/) -->

<svg
   xmlns:dc="http://purl.org/dc/elements/1.1/"
   xmlns:cc="http://creativecommons.org/ns#"
   xmlns:rdf="http://www.w3.org/1999/02/22-rdf-syntax-ns#"
   xmlns:svg="http://www.w3.org/2000/svg"
   xmlns="http://www.w3.org/2000/svg"
   xmlns:sodipodi="http://sodipodi.sourceforge.net/DTD/sodipodi-0.dtd"
   xmlns:inkscape="http://www.inkscape.org/namespaces/inkscape"
   width="210mm"
   height="297mm"
   viewBox="0 0 744.09448819 1052.3622047"
   id="svg2"
   version="1.1"
   inkscape:version="0.91 r13725"
   sodipodi:docname="9_48.svg">
  <defs
     id="defs4" />
  <sodipodi:namedview
     id="base"
     pagecolor="#ffffff"
     bordercolor="#666666"
     borderopacity="1.0"
     inkscape:pageopacity="0.0"
     inkscape:pageshadow="2"
     inkscape:zoom="1.5982422"
     inkscape:cx="231.0919"
     inkscape:cy="520"
     inkscape:document-units="px"
     inkscape:current-layer="layer1"
     showgrid="false"
     inkscape:window-width="2560"
     inkscape:window-height="1315"
     inkscape:window-x="247"
     inkscape:window-y="81"
     inkscape:window-maximized="0" />
  <metadata
     id="metadata7">
    <rdf:RDF>
      <cc:Work
         rdf:about="">
        <dc:format>image/svg+xml</dc:format>
        <dc:type
           rdf:resource="http://purl.org/dc/dcmitype/StillImage" />
        <dc:title></dc:title>
      </cc:Work>
    </rdf:RDF>
  </metadata>
  <g
     inkscape:label="Layer 1"
     inkscape:groupmode="layer"
     id="layer1">
    <path
       style="fill:none;fill-rule:evenodd;stroke:#000000;stroke-width:3.04909515px;stroke-linecap:butt;stroke-linejoin:miter;stroke-opacity:1"
       d="M  0 , 85.0559905528402 C  9.41581498683239 , 85.0559905528402 41.7984184732511 , 85.6048406629251 77.8496847869005 , 104.434755241921 113.90095110055 , 123.264669820917 148.513698309421 , 153.918154148436 208.943078831663 , 273.615059449264 269.372459353906 , 393.311964750092 293.528555516147 , 445.68892005751 302.279388681316 , 523.793881282648 311.030221846485 , 601.898842507785 294.205911064223 , 658.532242222366 288.960470183515 , 675.0436811564 283.715029302807 , 691.555120090433 242.527848884728 , 819.592973873673 120.685692707415 , 837.368543325422 -1.15646346989834 , 855.144112777171 -32.992288384126 , 754.300508979812 -35.9935558479398 , 744.610662893087 -38.9948233117537 , 734.920816806362 -48.8522180183652 , 700.734271839818 -32.8036408639387 , 653.687776853685 -16.7550637095122 , 606.641281867552 12.4540857513028 , 586.606794577771 43.5575796323103 , 523.28474946556 74.6610735133177 , 459.962704353349 70.6609698137214 , 397.122826221979 50.3832122289967 , 343.99389545287 30.105454644272 , 290.864964683761 -6.39646778820825 , 248.663077841425 -67.0414354006009 , 205.11822017372 -127.686403012994 , 161.573362506015 -188.895253788753 , 129.354032274659 -255.418363605317 , 153.306506284125 -321.941473421881 , 177.258980293591 -355.076491906741 , 247.475731253613 -333.018732488577 , 313.66447310081 -310.960973070413 , 379.853214948007 -244.983632801967 , 411.355526629967 -178.306969600105 , 426.244517305598 -111.630306398242 , 441.133507981228 -45.8711511799593 , 439.048457239179 0 , 439.048457239179 45.8711511799593 , 439.048457239179 111.630306398242 , 441.133507981228 178.306969600105 , 426.244517305598 244.983632801967 , 411.355526629967 310.960973070413 , 379.853214948007 333.018732488577 , 313.66447310081 355.076491906741 , 247.475731253613 321.941473421881 , 177.258980293591 255.418363605317 , 153.306506284125 188.895253788753 , 129.354032274659 127.686403012994 , 161.573362506015 67.0414354006009 , 205.11822017372 6.39646778820824 , 248.663077841425 -30.105454644272 , 290.864964683761 -50.3832122289967 , 343.99389545287 -70.6609698137214 , 397.122826221979 -74.6610735133177 , 459.962704353349 -43.5575796323103 , 523.28474946556 -12.4540857513028 , 586.606794577771 16.7550637095122 , 606.641281867552 32.8036408639387 , 653.687776853685 48.8522180183652 , 700.734271839818 38.9948233117537 , 734.920816806362 35.9935558479398 , 744.610662893087 32.992288384126 , 754.300508979812 1.15646346989836 , 855.144112777171 -120.685692707415 , 837.368543325422 -242.527848884728 , 819.592973873673 -283.715029302807 , 691.555120090433 -288.960470183515 , 675.0436811564 -294.205911064223 , 658.532242222366 -311.030221846485 , 601.898842507785 -302.279388681316 , 523.793881282648 -293.528555516147 , 445.68892005751 -269.372459353906 , 393.311964750092 -208.943078831663 , 273.615059449264 -148.513698309421 , 153.918154148436 -113.90095110055 , 123.264669820917 -77.8496847869005 , 104.434755241921 -41.7984184732511 , 85.6048406629251 -9.41581498683239 , 85.0559905528402 0 , 85.0559905528402 Z "
       id="path4198"
       inkscape:connector-curvature="0"
       sodipodi:nodetypes="zzzzzzzzzzzzzzzzzzzzzzzzzzzzz" />
  </g>
</svg>
