<?xml version="1.0" encoding="UTF-8" standalone="no"?>
<!-- Created with Inkscape (http://www.inkscape.org/) -->

<svg
   xmlns:dc="http://purl.org/dc/elements/1.1/"
   xmlns:cc="http://creativecommons.org/ns#"
   xmlns:rdf="http://www.w3.org/1999/02/22-rdf-syntax-ns#"
   xmlns:svg="http://www.w3.org/2000/svg"
   xmlns="http://www.w3.org/2000/svg"
   xmlns:sodipodi="http://sodipodi.sourceforge.net/DTD/sodipodi-0.dtd"
   xmlns:inkscape="http://www.inkscape.org/namespaces/inkscape"
   width="210mm"
   height="297mm"
   viewBox="0 0 744.09448819 1052.3622047"
   id="svg4263"
   version="1.1"
   inkscape:version="0.91 r13725"
   sodipodi:docname="9_49.svg">
  <defs
     id="defs4265" />
  <sodipodi:namedview
     id="base"
     pagecolor="#ffffff"
     bordercolor="#666666"
     borderopacity="1.0"
     inkscape:pageopacity="0.0"
     inkscape:pageshadow="2"
     inkscape:zoom="1.5982422"
     inkscape:cx="231.0919"
     inkscape:cy="520"
     inkscape:document-units="px"
     inkscape:current-layer="layer1"
     showgrid="false"
     inkscape:window-width="2560"
     inkscape:window-height="1315"
     inkscape:window-x="165"
     inkscape:window-y="130"
     inkscape:window-maximized="0" />
  <metadata
     id="metadata4268">
    <rdf:RDF>
      <cc:Work
         rdf:about="">
        <dc:format>image/svg+xml</dc:format>
        <dc:type
           rdf:resource="http://purl.org/dc/dcmitype/StillImage" />
        <dc:title></dc:title>
      </cc:Work>
    </rdf:RDF>
  </metadata>
  <g
     inkscape:label="Layer 1"
     inkscape:groupmode="layer"
     id="layer1">
    <path
       style="fill:none;fill-rule:evenodd;stroke:#000000;stroke-width:3.43682933px;stroke-linecap:butt;stroke-linejoin:miter;stroke-opacity:1"
       d="M  0 , -21.5587766606973 C  10.6721097154164 , -21.5587766606973 52.6278920972541 , -20.8866188078247 94.8323752831758 , 9.66444916073464 137.036858469097 , 40.215517129294 160.057932155048 , 80.108001107574 211.408517325776 , 239.928654064601 262.759102496504 , 399.749307021629 291.572978085205 , 434.72207526652 282.951785745002 , 519.362271186002 274.330593404798 , 604.002467105483 217.430026582725 , 695.51013654149 115.531938585152 , 708.306672164936 13.63385058758 , 721.103207788383 -37.9101557919563 , 631.654500433102 -45.1105444603401 , 618.898878796252 -52.310933128724 , 606.143257159401 -62.1761003485701 , 585.726921907282 -67.3562936965128 , 557.378017810763 -72.5364870444555 , 529.029113714245 -75.1811594164481 , 477.26011510327 -41.9973962320394 , 416.729730306691 -8.81363304763077 , 356.199345510113 15.1523623694032 , 338.956870499541 29.0018771274274 , 297.537750907963 42.8513918854516 , 256.118631316384 35.8174563048887 , 226.064977173685 32.1018347159388 , 213.17545486955 28.3862131269889 , 200.285932565415 11.3393094656701 , 146.078029537207 -66.488513189834 , 108.70332363821 -144.316335845338 , 71.3286177392133 -210.653829899375 , 63.0479230961886 -271.913496264872 , 102.467624274648 -333.173162630369 , 141.887325453108 -365.690642050034 , 219.998056236214 -343.35629508849 , 298.006019076331 -321.021948126947 , 376.013981916448 -261.030439799542 , 410.460323115444 -180.281750522677 , 448.266530047264 -99.5330612458107 , 486.072736979085 -39.4570687598598 , 492.013541682195 0 , 492.013541682195 39.4570687598598 , 492.013541682195 99.5330612458107 , 486.072736979085 180.281750522677 , 448.266530047264 261.030439799542 , 410.460323115444 321.021948126947 , 376.013981916448 343.35629508849 , 298.006019076331 365.690642050034 , 219.998056236214 333.173162630369 , 141.887325453108 271.913496264872 , 102.467624274648 210.653829899375 , 63.0479230961886 144.316335845338 , 71.3286177392133 66.488513189834 , 108.70332363821 -11.3393094656701 , 146.078029537207 -28.3862131269889 , 200.285932565415 -32.1018347159388 , 213.17545486955 -35.8174563048887 , 226.064977173685 -42.8513918854516 , 256.118631316384 -29.0018771274274 , 297.537750907963 -15.1523623694032 , 338.956870499541 8.81363304763077 , 356.199345510113 41.9973962320394 , 416.729730306691 75.1811594164481 , 477.26011510327 72.5364870444555 , 529.029113714245 67.3562936965128 , 557.378017810763 62.1761003485701 , 585.726921907282 52.310933128724 , 606.143257159401 45.1105444603401 , 618.898878796252 37.9101557919563 , 631.654500433102 -13.63385058758 , 721.103207788383 -115.531938585152 , 708.306672164936 -217.430026582725 , 695.51013654149 -274.330593404798 , 604.002467105483 -282.951785745002 , 519.362271186002 -291.572978085205 , 434.72207526652 -262.759102496504 , 399.749307021629 -211.408517325776 , 239.928654064601 -160.057932155048 , 80.108001107574 -137.036858469097 , 40.215517129294 -94.8323752831758 , 9.66444916073464 -52.6278920972541 , -20.8866188078247 -10.6721097154164 , -21.5587766606973 0 , -21.5587766606973 Z "
       id="path4873"
       inkscape:connector-curvature="0"
       sodipodi:nodetypes="zzzzzzzzzzzzzzzzzzzzzzzzzzzzz" />
  </g>
</svg>
