<?xml version="1.0" encoding="UTF-8" standalone="no"?>
<!-- Created with Inkscape (http://www.inkscape.org/) -->

<svg
   xmlns:dc="http://purl.org/dc/elements/1.1/"
   xmlns:cc="http://creativecommons.org/ns#"
   xmlns:rdf="http://www.w3.org/1999/02/22-rdf-syntax-ns#"
   xmlns:svg="http://www.w3.org/2000/svg"
   xmlns="http://www.w3.org/2000/svg"
   xmlns:sodipodi="http://sodipodi.sourceforge.net/DTD/sodipodi-0.dtd"
   xmlns:inkscape="http://www.inkscape.org/namespaces/inkscape"
   width="210mm"
   height="297mm"
   viewBox="0 0 744.09448819 1052.3622047"
   id="svg4263"
   version="1.1"
   inkscape:version="0.91 r13725"
   sodipodi:docname="9_49.svg">
  <defs
     id="defs4265" />
  <sodipodi:namedview
     id="base"
     pagecolor="#ffffff"
     bordercolor="#666666"
     borderopacity="1.0"
     inkscape:pageopacity="0.0"
     inkscape:pageshadow="2"
     inkscape:zoom="1.5982422"
     inkscape:cx="231.0919"
     inkscape:cy="520"
     inkscape:document-units="px"
     inkscape:current-layer="layer1"
     showgrid="false"
     inkscape:window-width="2560"
     inkscape:window-height="1315"
     inkscape:window-x="165"
     inkscape:window-y="130"
     inkscape:window-maximized="0" />
  <metadata
     id="metadata4268">
    <rdf:RDF>
      <cc:Work
         rdf:about="">
        <dc:format>image/svg+xml</dc:format>
        <dc:type
           rdf:resource="http://purl.org/dc/dcmitype/StillImage" />
        <dc:title></dc:title>
      </cc:Work>
    </rdf:RDF>
  </metadata>
  <g
     inkscape:label="Layer 1"
     inkscape:groupmode="layer"
     id="layer1">
    <path
       style="fill:none;fill-rule:evenodd;stroke:#000000;stroke-width:3.43682933px;stroke-linecap:butt;stroke-linejoin:miter;stroke-opacity:1"
       d="M  0 , -29.7295765675136 C  10.8631097735618 , -29.7295765675136 60.7799490618016 , -29.0351013898785 104.168067890454 , 14.2048321347574 147.556186719107 , 57.4447656593933 144.639168598094 , 94.893831724605 192.70623503638 , 251.108434604044 240.773301474666 , 407.323037483484 277.839119025528 , 417.899858727664 280.334172720194 , 506.681655055801 282.829226414861 , 595.463451383939 228.899648243168 , 695.205302643366 123.445716107567 , 709.045091490193 17.9917839719665 , 722.884880337019 -36.3159595871159 , 620.185234833978 -43.9975912485559 , 605.510227391596 -51.6792229099959 , 590.835219949214 -60.5911528096851 , 570.848592388043 -65.9401592107473 , 543.872710025179 -71.2891656118094 , 516.896827662316 -75.84901221827 , 463.298220575914 -42.9266126924217 , 408.901620476133 -10.0042131665735 , 354.505020376352 13.7824121579273 , 350.685128274093 31.6650195931666 , 307.725080485639 49.5476270284059 , 264.765032697185 39.8477622568726 , 231.002590751962 34.7099414983418 , 216.667648462284 29.5721207398111 , 202.332706172605 10.3962569672515 , 155.35902570741 -64.5646728608904 , 118.17500633078 -139.525602689032 , 80.9909869541507 -201.177236051617 , 57.8808082770985 -272.771054117039 , 99.6517824272687 -344.364872182461 , 141.422756577439 -376.263331717046 , 232.912692459664 -344.438244253133 , 313.504781528322 -312.61315678922 , 394.096870596981 -248.877001551273 , 413.122732787292 -172.075179084214 , 442.642621533387 -95.2733566171541 , 472.162510279482 -44.5343195256858 , 478.699669229084 0 , 478.699669229084 44.5343195256858 , 478.699669229084 95.2733566171541 , 472.162510279482 172.075179084214 , 442.642621533387 248.877001551273 , 413.122732787292 312.61315678922 , 394.096870596981 344.438244253133 , 313.504781528322 376.263331717046 , 232.912692459664 344.364872182461 , 141.422756577439 272.771054117039 , 99.6517824272687 201.177236051617 , 57.8808082770985 139.525602689032 , 80.9909869541507 64.5646728608904 , 118.17500633078 -10.3962569672514 , 155.35902570741 -29.5721207398111 , 202.332706172605 -34.7099414983418 , 216.667648462284 -39.8477622568726 , 231.002590751962 -49.5476270284059 , 264.765032697185 -31.6650195931666 , 307.725080485639 -13.7824121579273 , 350.685128274093 10.0042131665735 , 354.505020376352 42.9266126924217 , 408.901620476133 75.84901221827 , 463.298220575914 71.2891656118094 , 516.896827662316 65.9401592107473 , 543.872710025179 60.5911528096851 , 570.848592388043 51.6792229099959 , 590.835219949214 43.9975912485559 , 605.510227391596 36.3159595871159 , 620.185234833978 -17.9917839719665 , 722.884880337019 -123.445716107567 , 709.045091490193 -228.899648243168 , 695.205302643366 -282.829226414861 , 595.463451383939 -280.334172720194 , 506.681655055801 -277.839119025528 , 417.899858727664 -240.773301474666 , 407.323037483484 -192.70623503638 , 251.108434604044 -144.639168598094 , 94.893831724605 -147.556186719107 , 57.4447656593933 -104.168067890454 , 14.2048321347574 -60.7799490618016 , -29.0351013898785 -10.8631097735618 , -29.7295765675136 0 , -29.7295765675136 Z "
       id="path4873"
       inkscape:connector-curvature="0"
       sodipodi:nodetypes="zzzzzzzzzzzzzzzzzzzzzzzzzzzzz" />
  </g>
</svg>
