<?xml version="1.0" encoding="UTF-8" standalone="no"?>
<!-- Created with Inkscape (http://www.inkscape.org/) -->

<svg
   xmlns:dc="http://purl.org/dc/elements/1.1/"
   xmlns:cc="http://creativecommons.org/ns#"
   xmlns:rdf="http://www.w3.org/1999/02/22-rdf-syntax-ns#"
   xmlns:svg="http://www.w3.org/2000/svg"
   xmlns="http://www.w3.org/2000/svg"
   xmlns:sodipodi="http://sodipodi.sourceforge.net/DTD/sodipodi-0.dtd"
   xmlns:inkscape="http://www.inkscape.org/namespaces/inkscape"
   width="210mm"
   height="297mm"
   viewBox="0 0 744.09448819 1052.3622047"
   id="svg2"
   version="1.1"
   inkscape:version="0.91 r13725"
   sodipodi:docname="9_5svg">
  <defs
     id="defs4" />
  <sodipodi:namedview
     id="base"
     pagecolor="#ffffff"
     bordercolor="#666666"
     borderopacity="1.0"
     inkscape:pageopacity="0.0"
     inkscape:pageshadow="2"
     inkscape:zoom="0.49497475"
     inkscape:cx="-21.405756"
     inkscape:cy="546.24855"
     inkscape:document-units="px"
     inkscape:current-layer="layer1"
     showgrid="false"
     inkscape:window-width="1600"
     inkscape:window-height="835"
     inkscape:window-x="0"
     inkscape:window-y="0"
     inkscape:window-maximized="1" />
  <metadata
     id="metadata7">
    <rdf:RDF>
      <cc:Work
         rdf:about="">
        <dc:format>image/svg+xml</dc:format>
        <dc:type
           rdf:resource="http://purl.org/dc/dcmitype/StillImage" />
        <dc:title />
      </cc:Work>
    </rdf:RDF>
  </metadata>
  <g
     inkscape:label="Layer 1"
     inkscape:groupmode="layer"
     id="layer1">
    <path
       style="fill:none;fill-rule:evenodd;stroke:#ffb4ec;stroke-width:17.54727745;stroke-linecap:butt;stroke-linejoin:miter;stroke-miterlimit:4;stroke-dasharray:none;stroke-opacity:1"
       d="M  103.326998616706 , -189.244562391148 C  114.158861008392 , -128.301260494291 81.3787637571218 , -113.636337639582 106.194568847374 , -20.0445311832927 131.010373937627 , 73.5472752729969 176.070560168748 , 48.6406383063395 219.015764014974 , 134.778641921015 261.960967861199 , 220.916645535691 230.460917406732 , 317.438390825817 174.709356844928 , 381.829124390137 118.957796283124 , 446.219857954457 51.8487742532822 , 470.123403303455 0 , 470.123403303455 -51.8487742532822 , 470.123403303455 -105.657664916591 , 432.058254970794 -116.383776160165 , 361.376860419968 -127.109887403739 , 290.695465869142 -79.0850478573773 , 282.642983589306 -93.0891779884419 , 196.907551666333 -107.093308119506 , 111.17211974336 -168.89598607628 , 112.629968483087 -158.811253729999 , 33.4240224432736 -148.726521383719 , -45.78192359654 -95.3452395030145 , -33.2059548866567 -46.6405260286591 , -92.7648982773606 2.06418744569625 , -152.323841668064 -6.65414745307063 , -175.260931505827 30.2781107783976 , -216.971656765203 67.2103690098659 , -258.682382024578 110.281864669951 , -288.028828583132 173.9969655248 , -278.948271200577 237.712066379649 , -269.867713818021 287.221424831554 , -227.632892705801 320.245604852656 , -184.121302295432 353.269784873759 , -140.609711885064 436.386808302901 , 5.03215454250468 370.093519375048 , 139.024075569729 303.800230447194 , 273.015996596953 207.380781929481 , 232.851757907219 183.818324554173 , 218.095182427369 160.255867178865 , 203.338606947519 132.552433738585 , 170.927113228129 138.912914086511 , 121.160271563506 145.273394434437 , 71.393429898883 171.91577616081 , 64.6820502523243 186.673149223612 , 14.6875676224236 201.430522286414 , -35.3069150074771 184.256750003012 , -77.3732262964648 153.132579458007 , -103.775733284653 122.008408913003 , -130.178240272841 100.912331445714 , -125.388898473469 49.3069823049747 , -143.992342904685 -2.29836683576428 , -162.595787335901 -29.3146713390205 , -183.373937990939 -70.6738186889722 , -171.177726498627 -112.032966038924 , -158.981515006315 -131.362139659375 , -122.012987619771 -124.59627896926 , -84.127110904606 -117.830418279145 , -46.2412341894411 -99.7204533032232 , -32.8050940791978 -93.1002607988273 , -0.0239862881189315 -86.4800682944313 , 32.7571215029599 -90.9502941473944 , 58.0969168435088 -106.468068427139 , 84.6568109608551 -121.985842706883 , 111.216705078201 -142.540906152273 , 118.197076373113 -160.711022985589 , 151.584296976191 -178.881139818905 , 184.971517579269 -176.117398209857 , 226.938595502545 -145.040369843406 , 258.941488264095 -113.963341476955 , 290.944381025646 -89.8671311123418 , 287.160699641535 -64.3805718485781 , 319.837112714475 -38.8940125848143 , 352.513525787414 -45.627913405201 , 385.362589393692 -47.540176062973 , 393.637072668182 -49.4524387207451 , 401.911555942672 -74.0400156888814 , 503.112186428191 -192.073365966459 , 465.712126651843 -310.106716244036 , 428.312066875495 -337.272829241485 , 246.04659949619 -328.568818047867 , 125.410020565064 -319.86480685425 , 4.77344163393798 -277.68344671087 , -88.8855765942503 -272.040066042603 , -101.396073772741 -266.396685374335 , -113.906570951232 -198.595120636476 , -264.27646487562 -76.8064977851502 , -299.239180059047 44.9821250661757 , -334.201895242474 92.495136225019 , -250.187864288005 103.326998616706 , -189.244562391148 Z "
       id="path4065"
       inkscape:connector-curvature="0"
       sodipodi:nodetypes="zzzzzzzzzzzzzzzzzzzzzzzzzzzzzzz" />
  </g>
</svg>
