<?xml version="1.0" encoding="UTF-8" standalone="no"?>
<!-- Created with Inkscape (http://www.inkscape.org/) -->

<svg
   xmlns:dc="http://purl.org/dc/elements/1.1/"
   xmlns:cc="http://creativecommons.org/ns#"
   xmlns:rdf="http://www.w3.org/1999/02/22-rdf-syntax-ns#"
   xmlns:svg="http://www.w3.org/2000/svg"
   xmlns="http://www.w3.org/2000/svg"
   xmlns:sodipodi="http://sodipodi.sourceforge.net/DTD/sodipodi-0.dtd"
   xmlns:inkscape="http://www.inkscape.org/namespaces/inkscape"
   width="210mm"
   height="297mm"
   viewBox="0 0 744.09448819 1052.3622047"
   id="svg2"
   version="1.1"
   inkscape:version="0.91 r13725"
   sodipodi:docname="9_5svg">
  <defs
     id="defs4" />
  <sodipodi:namedview
     id="base"
     pagecolor="#ffffff"
     bordercolor="#666666"
     borderopacity="1.0"
     inkscape:pageopacity="0.0"
     inkscape:pageshadow="2"
     inkscape:zoom="0.49497475"
     inkscape:cx="-21.405756"
     inkscape:cy="546.24855"
     inkscape:document-units="px"
     inkscape:current-layer="layer1"
     showgrid="false"
     inkscape:window-width="1600"
     inkscape:window-height="835"
     inkscape:window-x="0"
     inkscape:window-y="0"
     inkscape:window-maximized="1" />
  <metadata
     id="metadata7">
    <rdf:RDF>
      <cc:Work
         rdf:about="">
        <dc:format>image/svg+xml</dc:format>
        <dc:type
           rdf:resource="http://purl.org/dc/dcmitype/StillImage" />
        <dc:title />
      </cc:Work>
    </rdf:RDF>
  </metadata>
  <g
     inkscape:label="Layer 1"
     inkscape:groupmode="layer"
     id="layer1">
    <path
       style="fill:none;fill-rule:evenodd;stroke:#ffb4ec;stroke-width:17.54727745;stroke-linecap:butt;stroke-linejoin:miter;stroke-miterlimit:4;stroke-dasharray:none;stroke-opacity:1"
       d="M  101.547761097074 , -195.475603007576 C  112.742063203783 , -143.508134079838 95.2002468589174 , -108.762125868516 119.477118056611 , -29.3657081078013 143.753989254305 , 50.0307096529134 173.704103399239 , 54.1139500095173 214.375314323673 , 139.621716167565 255.046525248107 , 225.129482325613 230.663143249879 , 317.111880150149 175.771793439255 , 382.772610027116 120.880443628631 , 448.433339904083 53.3445077089741 , 471.393934232571 0 , 471.393934232571 -53.3445077089741 , 471.393934232571 -101.489368623412 , 432.063190344563 -112.027087429041 , 365.872548482875 -122.56480623467 , 299.681906621187 -94.2430661911046 , 277.103502072008 -106.762948288491 , 202.879371624415 -119.282830385877 , 128.655241176822 -157.283601949715 , 103.561921728008 -149.419918761944 , 37.5287443898738 -141.556235574173 , -28.5044329482604 -102.630388497058 , -41.4986069534524 -53.4924772647614 , -102.682011819475 -4.3545660324648 , -163.865416685498 -9.74816818013483 , -179.33427812212 25.6899542857813 , -217.328407302919 61.1280767516974 , -255.322536483718 110.945965588278 , -285.769614773147 174.586921891549 , -277.151477374418 238.22787819482 , -268.533339975689 287.410251046753 , -227.803482761963 321.187153316756 , -184.244028919726 354.964055586759 , -140.684575077489 437.515250500217 , 2.65654873989833 369.33614954745 , 139.55689127622 301.157048594683 , 276.457233812542 206.465686461607 , 236.497922312713 182.721018725937 , 219.096991713958 158.976350990267 , 201.696061115203 140.275983090021 , 170.99967891202 145.730331997802 , 123.356051962303 151.184680905583 , 75.712425012586 170.624945382032 , 59.4415230573358 180.006040822269 , 11.3350300698873 189.387136262506 , -36.7714629175612 174.534285018008 , -71.3866871947038 151.722518547585 , -97.4515006240712 128.910752077162 , -123.516314053439 103.068674259171 , -135.045140400786 53.0088228350789 , -153.592648765012 2.9489714109868 , -172.140157129238 -32.9200234448141 , -182.536405776175 -66.5381982560987 , -169.216833947775 -100.156373067383 , -155.897262119375 -118.448791551024 , -123.109543350758 -117.76329267766 , -84.8946787344946 -117.077793804296 , -46.6798141182312 -106.290393035834 , -25.7562450681042 -104.828259122548 , 4.45204448489583 -103.366125209262 , 34.6603340378959 -105.462570288166 , 50.7017312745017 -115.522834894831 , 79.1721502783041 -125.583099501496 , 107.642569282107 -142.03858207214 , 126.893543497071 -153.156864598975 , 158.433357160009 -164.27514712581 , 189.973170822947 -163.357681222797 , 219.88508562362 -139.529773098427 , 252.549056053622 -115.701864974057 , 285.213026483624 -92.20919448611 , 296.246231998638 -69.0534719276649 , 326.974604591516 -45.8977493692198 , 357.702977184394 -45.8272316550757 , 384.12976906922 -47.9751630583534 , 398.038042629701 -50.1230944616311 , 411.946316190182 -71.791558784261 , 502.859701954247 -193.397540507737 , 466.549841466626 -315.003522231213 , 430.239980979005 -339.511561879739 , 246.207925462096 -326.88993773981 , 125.9981818808 -314.268313599881 , 5.78843829950401 -279.352309723268 , -83.3721647427752 -268.972508636775 , -107.915756860179 -258.592707550282 , -132.459348977583 -198.008462674134 , -265.889397466341 -78.7344580517833 , -295.88723988274 40.5395465705674 , -325.885082299139 90.3534589903654 , -247.443071935314 101.547761097074 , -195.475603007576 Z "
       id="path4065"
       inkscape:connector-curvature="0"
       sodipodi:nodetypes="zzzzzzzzzzzzzzzzzzzzzzzzzzzzzzz" />
  </g>
</svg>
