<?xml version="1.0" encoding="UTF-8" standalone="no"?>
<!-- Created with Inkscape (http://www.inkscape.org/) -->

<svg
   xmlns:dc="http://purl.org/dc/elements/1.1/"
   xmlns:cc="http://creativecommons.org/ns#"
   xmlns:rdf="http://www.w3.org/1999/02/22-rdf-syntax-ns#"
   xmlns:svg="http://www.w3.org/2000/svg"
   xmlns="http://www.w3.org/2000/svg"
   xmlns:sodipodi="http://sodipodi.sourceforge.net/DTD/sodipodi-0.dtd"
   xmlns:inkscape="http://www.inkscape.org/namespaces/inkscape"
   width="210mm"
   height="297mm"
   viewBox="0 0 744.09448819 1052.3622047"
   id="svg4173"
   version="1.1"
   inkscape:version="0.91 r13725"
   sodipodi:docname="9_6.svg">
  <defs
     id="defs4175" />
  <sodipodi:namedview
     id="base"
     pagecolor="#ffffff"
     bordercolor="#666666"
     borderopacity="1.0"
     inkscape:pageopacity="0.0"
     inkscape:pageshadow="2"
     inkscape:zoom="0.79912109"
     inkscape:cx="233.59465"
     inkscape:cy="920.43997"
     inkscape:document-units="px"
     inkscape:current-layer="layer1"
     showgrid="false"
     inkscape:window-width="2560"
     inkscape:window-height="1315"
     inkscape:window-x="366"
     inkscape:window-y="119"
     inkscape:window-maximized="0" />
  <metadata
     id="metadata4178">
    <rdf:RDF>
      <cc:Work
         rdf:about="">
        <dc:format>image/svg+xml</dc:format>
        <dc:type
           rdf:resource="http://purl.org/dc/dcmitype/StillImage" />
        <dc:title />
      </cc:Work>
    </rdf:RDF>
  </metadata>
  <g
     inkscape:label="Layer 1"
     inkscape:groupmode="layer"
     id="layer1">
    <path
       style="fill:none;fill-rule:evenodd;stroke:#ff0000;stroke-width:15.93716812;stroke-linecap:butt;stroke-linejoin:miter;stroke-miterlimit:4;stroke-dasharray:none;stroke-opacity:1"
       d="M  0 , -379.120814489581 C  91.0230416113006 , -379.120814489581 148.11083869313 , -321.811459605063 176.630123454368 , -270.792740945826 205.149408215607 , -219.774022286589 220.262073945208 , -160.102471616491 218.84263189053 , -59.6029551604957 217.423189835852 , 40.8965612954998 178.90144298288 , 90.2913880538205 179.575100692446 , 206.806078008605 180.248758402013 , 323.32076796339 206.297935677757 , 356.42960797614 186.136702874031 , 412.218508535308 165.975470070305 , 468.007409094476 116.716928334427 , 494.178763510624 67.1930938603715 , 490.552227055928 17.6692593863161 , 486.925690601232 -6.00735155066393 , 460.050156113514 -95.0041064791531 , 400.558159012863 -184.000861407642 , 341.066161912213 -219.032679692831 , 335.433583211139 -249.868961629736 , 287.597530805151 -280.705243566641 , 239.761478399163 -281.283528555263 , 180.414945753142 -246.12473236232 , 133.16284792535 -210.965936169377 , 85.9107500975591 -163.719437091715 , 76.4025208341859 -81.9082690015719 , 25.1732057547648 -0.0971009114284982 , -26.0561093246563 38.1922894696272 , -76.0085780456895 31.9996806883279 , -140.433188555524 25.8070719070285 , -204.857799065359 -13.5093540090438 , -235.575919081534 -51.5913611027409 , -289.311826334571 -89.673368196438 , -343.047733587609 -125.480972886148 , -405.681295313255 -112.114565348125 , -474.707343317167 -98.748157810103 , -543.733391321078 -45.5965277573092 , -574.934759127256 0 , -574.934759127256 45.5965277573092 , -574.934759127256 98.748157810103 , -543.733391321078 112.114565348125 , -474.707343317167 125.480972886148 , -405.681295313255 89.673368196438 , -343.047733587609 51.5913611027409 , -289.311826334571 13.5093540090438 , -235.575919081534 -25.8070719070285 , -204.857799065359 -31.9996806883279 , -140.433188555524 -38.1922894696272 , -76.0085780456895 0.0971009114284982 , -26.0561093246563 81.9082690015719 , 25.1732057547648 163.719437091715 , 76.4025208341859 210.965936169377 , 85.9107500975591 246.12473236232 , 133.16284792535 281.283528555263 , 180.414945753142 280.705243566641 , 239.761478399163 249.868961629736 , 287.597530805151 219.032679692831 , 335.433583211139 184.000861407642 , 341.066161912213 95.0041064791531 , 400.558159012863 6.00735155066394 , 460.050156113514 -17.6692593863161 , 486.925690601232 -67.1930938603715 , 490.552227055928 -116.716928334427 , 494.178763510624 -165.975470070305 , 468.007409094476 -186.136702874031 , 412.218508535308 -206.297935677757 , 356.42960797614 -180.248758402013 , 323.32076796339 -179.575100692446 , 206.806078008605 -178.90144298288 , 90.2913880538205 -217.423189835852 , 40.8965612954998 -218.84263189053 , -59.6029551604957 -220.262073945208 , -160.102471616491 -205.149408215607 , -219.774022286589 -176.630123454368 , -270.792740945826 -148.11083869313 , -321.811459605063 -91.0230416113006 , -379.120814489581 0 , -379.120814489581 Z "
       id="path4786"
       inkscape:connector-curvature="0"
       sodipodi:nodetypes="zzzzzzzzzzzzzzzzzzzzzzzzzzz" />
  </g>
</svg>
