<?xml version="1.0" encoding="UTF-8" standalone="no"?>
<!-- Created with Inkscape (http://www.inkscape.org/) -->

<svg
   xmlns:dc="http://purl.org/dc/elements/1.1/"
   xmlns:cc="http://creativecommons.org/ns#"
   xmlns:rdf="http://www.w3.org/1999/02/22-rdf-syntax-ns#"
   xmlns:svg="http://www.w3.org/2000/svg"
   xmlns="http://www.w3.org/2000/svg"
   xmlns:sodipodi="http://sodipodi.sourceforge.net/DTD/sodipodi-0.dtd"
   xmlns:inkscape="http://www.inkscape.org/namespaces/inkscape"
   width="210mm"
   height="297mm"
   viewBox="0 0 744.09448819 1052.3622047"
   id="svg4173"
   version="1.1"
   inkscape:version="0.91 r13725"
   sodipodi:docname="9_6.svg">
  <defs
     id="defs4175" />
  <sodipodi:namedview
     id="base"
     pagecolor="#ffffff"
     bordercolor="#666666"
     borderopacity="1.0"
     inkscape:pageopacity="0.0"
     inkscape:pageshadow="2"
     inkscape:zoom="0.79912109"
     inkscape:cx="233.59465"
     inkscape:cy="920.43997"
     inkscape:document-units="px"
     inkscape:current-layer="layer1"
     showgrid="false"
     inkscape:window-width="2560"
     inkscape:window-height="1315"
     inkscape:window-x="366"
     inkscape:window-y="119"
     inkscape:window-maximized="0" />
  <metadata
     id="metadata4178">
    <rdf:RDF>
      <cc:Work
         rdf:about="">
        <dc:format>image/svg+xml</dc:format>
        <dc:type
           rdf:resource="http://purl.org/dc/dcmitype/StillImage" />
        <dc:title />
      </cc:Work>
    </rdf:RDF>
  </metadata>
  <g
     inkscape:label="Layer 1"
     inkscape:groupmode="layer"
     id="layer1">
    <path
       style="fill:none;fill-rule:evenodd;stroke:#ff0000;stroke-width:15.93716812;stroke-linecap:butt;stroke-linejoin:miter;stroke-miterlimit:4;stroke-dasharray:none;stroke-opacity:1"
       d="M  0 , -350.179003267634 C  94.5049471042873 , -350.179003267634 147.08778404884 , -293.898673668777 170.976841073336 , -257.255680034663 194.865898097831 , -220.612686400549 219.328707525428 , -165.08643113756 218.755311196512 , -60.669043275669 218.181914867596 , 43.7483445862225 174.656733885204 , 71.2590587740964 176.350369912101 , 189.631584919653 178.044005938999 , 308.00411106521 220.830375889971 , 327.57098236332 206.384642651691 , 396.380927968295 191.938909413411 , 465.19087357327 127.8944851804 , 501.484516151799 64.7372128405877 , 485.587375432366 1.57994050077514 , 469.690234712933 -0.00623496635518 , 430.828275831425 -93.4442364729069 , 371.177517539056 -186.882237979459 , 311.526759246688 -222.021504238116 , 329.296598387918 -266.529854259575 , 275.702250490612 -311.038204281035 , 222.107902593306 -303.227867584986 , 149.740819356577 -256.626513831599 , 106.187621434223 -210.025160078212 , 62.6344235118685 -165.375412583742 , 69.7802572100437 -81.2405465571834 , 29.6185622589785 2.89431946937552 , -10.5431326920867 48.5930078193456 , -65.7761989935089 39.087216019217 , -132.786385784139 29.5814242190885 , -199.796572574769 -9.38420308202567 , -213.480815238766 -51.6087400479812 , -266.041792168486 -93.8332770139367 , -318.602769098206 -124.6426874636 , -377.015047095453 -110.167580188753 , -441.222124404158 -95.6924729139058 , -505.429201712863 -44.5165058632376 , -535.1303607369 0 , -535.1303607369 44.5165058632376 , -535.1303607369 95.6924729139058 , -505.429201712863 110.167580188753 , -441.222124404158 124.6426874636 , -377.015047095453 93.8332770139367 , -318.602769098206 51.6087400479812 , -266.041792168486 9.38420308202566 , -213.480815238766 -29.5814242190885 , -199.796572574769 -39.087216019217 , -132.786385784139 -48.5930078193456 , -65.7761989935089 -2.89431946937552 , -10.5431326920867 81.2405465571834 , 29.6185622589785 165.375412583742 , 69.7802572100437 210.025160078212 , 62.6344235118685 256.626513831599 , 106.187621434223 303.227867584986 , 149.740819356577 311.038204281035 , 222.107902593306 266.529854259575 , 275.702250490612 222.021504238116 , 329.296598387918 186.882237979459 , 311.526759246688 93.4442364729069 , 371.177517539056 0.00623496635517995 , 430.828275831425 -1.57994050077513 , 469.690234712933 -64.7372128405877 , 485.587375432366 -127.8944851804 , 501.484516151799 -191.938909413411 , 465.19087357327 -206.384642651691 , 396.380927968295 -220.830375889971 , 327.57098236332 -178.044005938999 , 308.00411106521 -176.350369912101 , 189.631584919653 -174.656733885204 , 71.2590587740964 -218.181914867596 , 43.7483445862225 -218.755311196512 , -60.669043275669 -219.328707525428 , -165.08643113756 -194.865898097831 , -220.612686400549 -170.976841073336 , -257.255680034663 -147.08778404884 , -293.898673668777 -94.5049471042873 , -350.179003267634 0 , -350.179003267634 Z "
       id="path4786"
       inkscape:connector-curvature="0"
       sodipodi:nodetypes="zzzzzzzzzzzzzzzzzzzzzzzzzzz" />
  </g>
</svg>
