<?xml version="1.0" encoding="UTF-8" standalone="no"?>
<!-- Created with Inkscape (http://www.inkscape.org/) -->

<svg
   xmlns:dc="http://purl.org/dc/elements/1.1/"
   xmlns:cc="http://creativecommons.org/ns#"
   xmlns:rdf="http://www.w3.org/1999/02/22-rdf-syntax-ns#"
   xmlns:svg="http://www.w3.org/2000/svg"
   xmlns="http://www.w3.org/2000/svg"
   xmlns:sodipodi="http://sodipodi.sourceforge.net/DTD/sodipodi-0.dtd"
   xmlns:inkscape="http://www.inkscape.org/namespaces/inkscape"
   width="210mm"
   height="297mm"
   viewBox="0 0 744.09448819 1052.3622047"
   id="svg4142"
   version="1.1"
   inkscape:version="0.91 r13725"
   sodipodi:docname="9_7.svg">
  <defs
     id="defs4144" />
  <sodipodi:namedview
     id="base"
     pagecolor="#ffffff"
     bordercolor="#666666"
     borderopacity="1.0"
     inkscape:pageopacity="0.0"
     inkscape:pageshadow="2"
     inkscape:zoom="1.5982422"
     inkscape:cx="283.64964"
     inkscape:cy="520"
     inkscape:document-units="px"
     inkscape:current-layer="layer1"
     showgrid="false"
     inkscape:window-width="2560"
     inkscape:window-height="1315"
     inkscape:window-x="0"
     inkscape:window-y="1"
     inkscape:window-maximized="1" />
  <metadata
     id="metadata4147">
    <rdf:RDF>
      <cc:Work
         rdf:about="">
        <dc:format>image/svg+xml</dc:format>
        <dc:type
           rdf:resource="http://purl.org/dc/dcmitype/StillImage" />
        <dc:title></dc:title>
      </cc:Work>
    </rdf:RDF>
  </metadata>
  <g
     inkscape:label="Layer 1"
     inkscape:groupmode="layer"
     id="layer1">
    <path
       style="fill:none;fill-rule:evenodd;stroke:#000000;stroke-width:2.722826px;stroke-linecap:butt;stroke-linejoin:miter;stroke-opacity:1"
       d="M  0 , -34.2880187484501 C  61.3228593885976 , -34.2880187484501 155.590453037446 , -6.4201002270779 211.22593853685 , 124.920042971024 266.861424036254 , 256.260186169125 254.243470661006 , 423.517640797374 218.631738974309 , 543.863861279789 183.020007287613 , 664.210081762204 128.216457689659 , 729.301330589857 73.4886790186567 , 802.25766133045 18.7609003476545 , 875.213992071044 -32.4585990494612 , 925.842798207146 -100.437971103461 , 915.289857485223 -168.41734315746 , 904.7369167633 -200.596453319911 , 838.504774744868 -181.132681448689 , 779.931351228752 -161.668909577467 , 721.357927712636 -111.427654126369 , 691.181439444627 -60.9483875023803 , 644.360419612964 -10.4691208783917 , 597.5393997813 23.9945004481124 , 565.89154508808 21.944158749406 , 505.966204857085 19.8938170506997 , 446.04086462609 -17.314172022072 , 422.348594079872 -17.5114883046219 , 353.014400761156 -17.7088045871719 , 283.680207442439 21.1036232211658 , 259.8726366027 20.851187202257 , 198.02060780924 20.5987511833482 , 136.16857901578 -14.522955478671 , 107.648306741915 -48.881898484152 , 55.0138229859559 -83.240841489633 , 2.37933922999677 -127.848419004214 , -76.3906465889128 -88.565876942803 , -149.959324609019 -49.2833348813922 , -223.528002629126 49.2833348813922 , -223.528002629126 88.565876942803 , -149.959324609019 127.848419004214 , -76.3906465889128 83.240841489633 , 2.37933922999677 48.881898484152 , 55.0138229859559 14.522955478671 , 107.648306741915 -20.5987511833482 , 136.16857901578 -20.851187202257 , 198.02060780924 -21.1036232211658 , 259.8726366027 17.7088045871719 , 283.680207442439 17.5114883046219 , 353.014400761156 17.314172022072 , 422.348594079872 -19.8938170506997 , 446.04086462609 -21.944158749406 , 505.966204857085 -23.9945004481124 , 565.89154508808 10.4691208783917 , 597.5393997813 60.9483875023803 , 644.360419612964 111.427654126369 , 691.181439444627 161.668909577467 , 721.357927712636 181.132681448689 , 779.931351228752 200.596453319911 , 838.504774744868 168.41734315746 , 904.7369167633 100.437971103461 , 915.289857485223 32.4585990494612 , 925.842798207146 -18.7609003476544 , 875.213992071044 -73.4886790186567 , 802.25766133045 -128.216457689659 , 729.301330589857 -183.020007287613 , 664.210081762204 -218.631738974309 , 543.863861279789 -254.243470661006 , 423.517640797374 -266.861424036254 , 256.260186169125 -211.22593853685 , 124.920042971024 -155.590453037446 , -6.4201002270779 -61.3228593885976 , -34.2880187484501 0 , -34.2880187484501 Z "
       id="path4755"
       inkscape:connector-curvature="0"
       sodipodi:nodetypes="zzzzzzzzzzzzzzzzzzzzzzzz" />
  </g>
</svg>
