<?xml version="1.0" encoding="UTF-8" standalone="no"?>
<!-- Created with Inkscape (http://www.inkscape.org/) -->

<svg
   xmlns:dc="http://purl.org/dc/elements/1.1/"
   xmlns:cc="http://creativecommons.org/ns#"
   xmlns:rdf="http://www.w3.org/1999/02/22-rdf-syntax-ns#"
   xmlns:svg="http://www.w3.org/2000/svg"
   xmlns="http://www.w3.org/2000/svg"
   xmlns:sodipodi="http://sodipodi.sourceforge.net/DTD/sodipodi-0.dtd"
   xmlns:inkscape="http://www.inkscape.org/namespaces/inkscape"
   width="210mm"
   height="297mm"
   viewBox="0 0 744.09448819 1052.3622047"
   id="svg4142"
   version="1.1"
   inkscape:version="0.91 r13725"
   sodipodi:docname="9_7.svg">
  <defs
     id="defs4144" />
  <sodipodi:namedview
     id="base"
     pagecolor="#ffffff"
     bordercolor="#666666"
     borderopacity="1.0"
     inkscape:pageopacity="0.0"
     inkscape:pageshadow="2"
     inkscape:zoom="1.5982422"
     inkscape:cx="283.64964"
     inkscape:cy="520"
     inkscape:document-units="px"
     inkscape:current-layer="layer1"
     showgrid="false"
     inkscape:window-width="2560"
     inkscape:window-height="1315"
     inkscape:window-x="0"
     inkscape:window-y="1"
     inkscape:window-maximized="1" />
  <metadata
     id="metadata4147">
    <rdf:RDF>
      <cc:Work
         rdf:about="">
        <dc:format>image/svg+xml</dc:format>
        <dc:type
           rdf:resource="http://purl.org/dc/dcmitype/StillImage" />
        <dc:title></dc:title>
      </cc:Work>
    </rdf:RDF>
  </metadata>
  <g
     inkscape:label="Layer 1"
     inkscape:groupmode="layer"
     id="layer1">
    <path
       style="fill:none;fill-rule:evenodd;stroke:#000000;stroke-width:2.722826px;stroke-linecap:butt;stroke-linejoin:miter;stroke-opacity:1"
       d="M  0 , -30.7404260759634 C  61.4641198408639 , -30.7404260759634 155.945331975558 , -5.19264630955264 208.446365107469 , 125.404067055946 260.947398239381 , 256.000780421444 249.295079944623 , 416.620331128677 211.533257085475 , 541.151062050669 173.771434226328 , 665.68179297266 120.568509435003 , 713.772151811998 65.3873413061571 , 787.079743770404 10.2061731773115 , 860.38733572881 -31.4775469281543 , 914.881956678632 -102.22668546505 , 906.639914813411 -172.975824001945 , 898.397872948189 -203.995454155744 , 828.346906923272 -180.619432295531 , 772.027238002286 -157.243410435319 , 715.7075690813 -107.010253524935 , 693.164489678535 -59.1702451372029 , 658.344770052316 -11.330236749471 , 623.525050426096 41.0065147440091 , 589.225560270298 34.2961999761501 , 518.211724205201 27.585885208291 , 447.197888140103 -36.3338859583822 , 451.114321512281 -37.8058568017734 , 359.489642558953 -39.2778276451646 , 267.864963605625 33.2020572214554 , 269.217372890617 35.8550469795458 , 193.09912172105 38.5080367376362 , 116.980870551484 -9.67184851538796 , 98.3266009498394 -49.2534818968213 , 49.486418168684 -88.8351152782546 , 0.646235387528549 -125.52148738987 , -70.0932038515385 -86.1149754618032 , -137.741028350786 -46.7084635337362 , -205.388852850033 46.7084635337362 , -205.388852850033 86.1149754618032 , -137.741028350786 125.52148738987 , -70.0932038515385 88.8351152782546 , 0.646235387528549 49.2534818968213 , 49.486418168684 9.67184851538795 , 98.3266009498394 -38.5080367376362 , 116.980870551484 -35.8550469795458 , 193.09912172105 -33.2020572214554 , 269.217372890617 39.2778276451646 , 267.864963605625 37.8058568017734 , 359.489642558953 36.3338859583822 , 451.114321512281 -27.585885208291 , 447.197888140103 -34.2961999761501 , 518.211724205201 -41.0065147440091 , 589.225560270298 11.330236749471 , 623.525050426096 59.1702451372029 , 658.344770052316 107.010253524935 , 693.164489678535 157.243410435319 , 715.7075690813 180.619432295531 , 772.027238002286 203.995454155744 , 828.346906923272 172.975824001945 , 898.397872948189 102.22668546505 , 906.639914813411 31.4775469281543 , 914.881956678632 -10.2061731773115 , 860.38733572881 -65.3873413061571 , 787.079743770404 -120.568509435003 , 713.772151811998 -173.771434226328 , 665.68179297266 -211.533257085475 , 541.151062050669 -249.295079944623 , 416.620331128677 -260.947398239381 , 256.000780421444 -208.446365107469 , 125.404067055946 -155.945331975558 , -5.19264630955264 -61.4641198408639 , -30.7404260759634 0 , -30.7404260759634 Z "
       id="path4755"
       inkscape:connector-curvature="0"
       sodipodi:nodetypes="zzzzzzzzzzzzzzzzzzzzzzzz" />
  </g>
</svg>
