<?xml version="1.0" encoding="UTF-8" standalone="no"?>
<!-- Created with Inkscape (http://www.inkscape.org/) -->

<svg
   xmlns:dc="http://purl.org/dc/elements/1.1/"
   xmlns:cc="http://creativecommons.org/ns#"
   xmlns:rdf="http://www.w3.org/1999/02/22-rdf-syntax-ns#"
   xmlns:svg="http://www.w3.org/2000/svg"
   xmlns="http://www.w3.org/2000/svg"
   xmlns:sodipodi="http://sodipodi.sourceforge.net/DTD/sodipodi-0.dtd"
   xmlns:inkscape="http://www.inkscape.org/namespaces/inkscape"
   width="210mm"
   height="297mm"
   viewBox="0 0 744.09448819 1052.3622047"
   id="svg2"
   version="1.1"
   inkscape:version="0.91 r13725"
   sodipodi:docname="9_8.svg">
  <defs
     id="defs4" />
  <sodipodi:namedview
     id="base"
     pagecolor="#ffffff"
     bordercolor="#666666"
     borderopacity="1.0"
     inkscape:pageopacity="0.0"
     inkscape:pageshadow="2"
     inkscape:zoom="1.1301279"
     inkscape:cx="379.46558"
     inkscape:cy="736.06985"
     inkscape:document-units="px"
     inkscape:current-layer="layer1"
     showgrid="false"
     inkscape:window-width="2560"
     inkscape:window-height="1315"
     inkscape:window-x="237"
     inkscape:window-y="10"
     inkscape:window-maximized="0" />
  <metadata
     id="metadata7">
    <rdf:RDF>
      <cc:Work
         rdf:about="">
        <dc:format>image/svg+xml</dc:format>
        <dc:type
           rdf:resource="http://purl.org/dc/dcmitype/StillImage" />
        <dc:title></dc:title>
      </cc:Work>
    </rdf:RDF>
  </metadata>
  <g
     inkscape:label="Layer 1"
     inkscape:groupmode="layer"
     id="layer1">
    <path
       style="fill:none;fill-rule:evenodd;stroke:#00ff5f;stroke-width:15.64287186;stroke-linecap:butt;stroke-linejoin:miter;stroke-miterlimit:4;stroke-dasharray:none;stroke-opacity:1"
       d="M  260.797402195424 , 104.802659837036 C  340.581901368091 , 121.90669150218 392.266484850115 , 200.645336471989 396.841401975741 , 299.609695870495 401.416319101367 , 398.574055269001 369.223637837003 , 434.586473880456 360.72189171548 , 545.421454506271 352.220145593956 , 656.256435132086 367.133118488998 , 689.387764769049 338.774174584517 , 739.051538972777 310.415230680036 , 788.715313176504 253.666301388279 , 815.347442656293 192.947176393666 , 798.114044570091 132.228051399053 , 780.880646483889 118.108314159315 , 738.161766010097 26.2305490300619 , 663.005917374619 -65.6472160991917 , 587.850068739141 -98.1095956781491 , 599.734874028623 -159.60597931646 , 528.445722237746 -221.10236295477 , 457.156570446868 -232.097755213836 , 379.415407257114 -190.63805039759 , 245.699058758551 -149.178345581345 , 111.982710259989 -53.0070370408037 , 73.3694969061379 0 , 73.3694969061379 53.0070370408037 , 73.3694969061379 82.119829757878 , 85.6266153962292 90.973639253628 , 89.4076249225099 99.8274487493779 , 93.1886344487906 183.305656772139 , 128.843101329268 187.806137860576 , 220.85666090296 192.306618949013 , 312.870220476651 110.819837212392 , 363.239715147978 58.0455570304238 , 381.465034294262 5.27127684845611 , 399.690353440547 -49.2189785914387 , 401.686538973626 -124.917549584814 , 394.290543839234 -200.616120578189 , 386.894548704843 -285.507723876443 , 377.593142117076 -331.21363612563 , 300.876600190359 -376.919548374817 , 224.160058263643 -342.237008165317 , 130.544360494811 -261.720103066179 , 105.983938334247 -181.203197967041 , 81.4235161736836 -97.6987406327567 , 135.92721114302 -64.2527281400188 , 236.447928998074 -30.8067156472809 , 336.968646853127 -42.0453578847822 , 434.157195915387 -55.8422457022841 , 511.984720467944 -69.639133519786 , 589.812245020501 -83.4198570345388 , 626.412989794798 -67.1438555360498 , 675.004108965983 -50.8678540375608 , 723.595228137168 -10.7320232179824 , 760.788931610732 46.1843371390005 , 768.05774927509 103.100697495983 , 775.326566939449 132.018350243704 , 750.359487524011 238.515553068789 , 712.153665198592 345.012755893873 , 673.947842873172 380.765944829603 , 672.679832715688 417.079744535573 , 635.522803947489 453.393544241543 , 598.365775179291 466.973976394986 , 540.806738826547 436.430152742639 , 488.983834824805 405.886329090293 , 437.160930823063 352.390792620469 , 423.389798206093 269.612574251465 , 387.704927810665 186.834355882461 , 352.020057415236 116.00559068609 , 306.200954226092 112.180182450803 , 226.776251807361 108.354774215516 , 147.35154938863 181.012903022758 , 87.6986281718915 260.797402195424 , 104.802659837036 Z "
       id="path4205"
       inkscape:connector-curvature="0"
       sodipodi:nodetypes="zzzzzzzzzzzzzzzzzzzzzzzzz" />
  </g>
</svg>
