<?xml version="1.0" encoding="UTF-8" standalone="no"?>
<!-- Created with Inkscape (http://www.inkscape.org/) -->

<svg
   xmlns:dc="http://purl.org/dc/elements/1.1/"
   xmlns:cc="http://creativecommons.org/ns#"
   xmlns:rdf="http://www.w3.org/1999/02/22-rdf-syntax-ns#"
   xmlns:svg="http://www.w3.org/2000/svg"
   xmlns="http://www.w3.org/2000/svg"
   xmlns:sodipodi="http://sodipodi.sourceforge.net/DTD/sodipodi-0.dtd"
   xmlns:inkscape="http://www.inkscape.org/namespaces/inkscape"
   width="210mm"
   height="297mm"
   viewBox="0 0 744.09448819 1052.3622047"
   id="svg2"
   version="1.1"
   inkscape:version="0.91 r13725"
   sodipodi:docname="9_8.svg">
  <defs
     id="defs4" />
  <sodipodi:namedview
     id="base"
     pagecolor="#ffffff"
     bordercolor="#666666"
     borderopacity="1.0"
     inkscape:pageopacity="0.0"
     inkscape:pageshadow="2"
     inkscape:zoom="1.1301279"
     inkscape:cx="379.46558"
     inkscape:cy="736.06985"
     inkscape:document-units="px"
     inkscape:current-layer="layer1"
     showgrid="false"
     inkscape:window-width="2560"
     inkscape:window-height="1315"
     inkscape:window-x="237"
     inkscape:window-y="10"
     inkscape:window-maximized="0" />
  <metadata
     id="metadata7">
    <rdf:RDF>
      <cc:Work
         rdf:about="">
        <dc:format>image/svg+xml</dc:format>
        <dc:type
           rdf:resource="http://purl.org/dc/dcmitype/StillImage" />
        <dc:title></dc:title>
      </cc:Work>
    </rdf:RDF>
  </metadata>
  <g
     inkscape:label="Layer 1"
     inkscape:groupmode="layer"
     id="layer1">
    <path
       style="fill:none;fill-rule:evenodd;stroke:#00ff5f;stroke-width:15.64287186;stroke-linecap:butt;stroke-linejoin:miter;stroke-miterlimit:4;stroke-dasharray:none;stroke-opacity:1"
       d="M  259.554898757209 , 109.70833812196 C  332.77280896092 , 124.978710241541 386.501991260338 , 196.982614281678 387.169015713254 , 296.788207987559 387.836040166169 , 396.59380169344 347.15972033749 , 422.37700616583 341.36099933712 , 536.685986449366 335.56227833675 , 650.994966732901 369.199116436798 , 675.810788998086 345.072597607533 , 739.220230543954 320.946078778268 , 802.629672089823 251.076763205689 , 834.243303599089 185.229913642218 , 803.523067612255 119.383064078746 , 772.802831625422 131.931407040275 , 729.63330642234 37.5890617991175 , 650.083247749682 -56.7532834420395 , 570.533189077024 -100.225944875332 , 597.416297153646 -164.943372151373 , 522.527220496815 -229.660799427415 , 447.638143839984 -219.649951917169 , 378.53990665784 -179.5480942179 , 252.062348404063 -139.446236518631 , 125.584790150285 -53.9743104801336 , 84.0415546253891 0 , 84.0415546253891 53.9743104801336 , 84.0415546253891 81.9643852686935 , 95.4384452611981 91.4005851304763 , 99.3533868174 100.836784992259 , 103.268328373602 182.308386338651 , 137.314272215439 188.556592556349 , 225.234383370029 194.804798774047 , 313.154494524619 117.644560314965 , 357.354309215342 63.8057487441686 , 373.745037171059 9.96693717337237 , 390.135765126776 -44.4696426286906 , 388.650577990752 -121.80979397351 , 383.664768151151 -199.14994531833 , 378.67895831155 -275.399264476787 , 382.960572750845 -325.380669867276 , 310.99057296814 -375.362075257766 , 239.020573185435 -344.07457677767 , 137.980919147172 -256.254688562082 , 113.540972265989 -168.434800346494 , 89.1010253848065 -91.7928282374332 , 154.508880985551 -59.8388247907759 , 240.050865880795 -27.8848213441186 , 325.592850776039 -27.4426133410217 , 417.336744568932 -47.0478535009689 , 499.631816687379 -66.6530936609161 , 581.926888805826 -95.2932222944265 , 605.770246480778 -82.6712564799046 , 669.505934035448 -70.0492906653828 , 733.241621590118 -14.7887994530706 , 778.820514885716 52.5443626669657 , 775.198182388322 119.877524787002 , 771.575849890929 128.46125319247 , 734.487669188378 233.406228399136 , 693.859690866399 338.351203605802 , 653.231712544421 373.730353014648 , 672.868211983098 422.851771367559 , 627.55922364178 471.97318972047 , 582.250235300461 473.844041272619 , 511.361353133725 432.443146547734 , 463.054642924554 391.042251822849 , 414.747932715382 342.482590783503 , 416.489661973392 257.197102685155 , 382.690387294703 171.911614586807 , 348.891112616013 110.465642207231 , 300.431120452349 112.987539576931 , 224.035987119791 115.509436946631 , 147.640853787233 186.336988553497 , 94.4379660023778 259.554898757209 , 109.70833812196 Z "
       id="path4205"
       inkscape:connector-curvature="0"
       sodipodi:nodetypes="zzzzzzzzzzzzzzzzzzzzzzzzz" />
  </g>
</svg>
