<?xml version="1.0" encoding="UTF-8" standalone="no"?>
<!-- Created with Inkscape (http://www.inkscape.org/) -->

<svg
   xmlns:dc="http://purl.org/dc/elements/1.1/"
   xmlns:cc="http://creativecommons.org/ns#"
   xmlns:rdf="http://www.w3.org/1999/02/22-rdf-syntax-ns#"
   xmlns:svg="http://www.w3.org/2000/svg"
   xmlns="http://www.w3.org/2000/svg"
   xmlns:sodipodi="http://sodipodi.sourceforge.net/DTD/sodipodi-0.dtd"
   xmlns:inkscape="http://www.inkscape.org/namespaces/inkscape"
   width="210mm"
   height="297mm"
   viewBox="0 0 744.09448819 1052.3622047"
   id="svg2"
   version="1.1"
   inkscape:version="0.91 r13725"
   sodipodi:docname="9_9.svg">
  <defs
     id="defs4" />
  <sodipodi:namedview
     id="base"
     pagecolor="#ffffff"
     bordercolor="#666666"
     borderopacity="1.0"
     inkscape:pageopacity="0.0"
     inkscape:pageshadow="2"
     inkscape:zoom="1.5982422"
     inkscape:cx="358.73213"
     inkscape:cy="494.9725"
     inkscape:document-units="px"
     inkscape:current-layer="layer1"
     showgrid="false"
     inkscape:window-width="2560"
     inkscape:window-height="1315"
     inkscape:window-x="894"
     inkscape:window-y="71"
     inkscape:window-maximized="0" />
  <metadata
     id="metadata7">
    <rdf:RDF>
      <cc:Work
         rdf:about="">
        <dc:format>image/svg+xml</dc:format>
        <dc:type
           rdf:resource="http://purl.org/dc/dcmitype/StillImage" />
        <dc:title></dc:title>
      </cc:Work>
    </rdf:RDF>
  </metadata>
  <g
     inkscape:label="Layer 1"
     inkscape:groupmode="layer"
     id="layer1">
    <path
       style="fill:none;fill-rule:evenodd;stroke:#0000ff;stroke-width:19.61462784;stroke-linecap:butt;stroke-linejoin:miter;stroke-miterlimit:4;stroke-dasharray:none;stroke-opacity:1"
       d="M  125.42959540402 , -71.8919881786992 C  209.47898041696 , -54.085848562423 228.782729999365 , 31.172581687916 198.556717678283 , 87.859309277686 168.3307053572 , 144.546036867456 121.439225401837 , 159.813596583745 64.4501325814161 , 200.36900439511 7.46103976099539 , 240.924412206476 -37.1900299190356 , 274.371930261517 -39.2532061393622 , 340.51991726656 -41.3163823596887 , 406.667904271604 1.70031248196659 , 448.695945211019 70.2383259069614 , 488.340178383186 138.776339331956 , 527.984411555354 179.965331545695 , 526.117204864601 222.86332198058 , 576.393173226038 265.761312415465 , 626.669141587475 264.316580398008 , 701.643769874589 211.635221412893 , 747.867838746081 158.953862427778 , 794.091907617572 108.345176216084 , 779.082989089146 0 , 779.082989089146 -108.345176216084 , 779.082989089146 -158.953862427778 , 794.091907617572 -211.635221412893 , 747.867838746081 -264.316580398008 , 701.643769874589 -265.761312415465 , 626.669141587475 -222.86332198058 , 576.393173226038 -179.965331545695 , 526.117204864601 -138.776339331956 , 527.984411555354 -70.2383259069614 , 488.340178383186 -1.70031248196659 , 448.695945211019 41.3163823596887 , 406.667904271604 39.2532061393622 , 340.51991726656 37.1900299190356 , 274.371930261517 -7.46103976099539 , 240.924412206476 -64.4501325814161 , 200.36900439511 -121.439225401837 , 159.813596583745 -168.3307053572 , 144.546036867456 -198.556717678283 , 87.859309277686 -228.782729999365 , 31.172581687916 -209.47898041696 , -54.085848562423 -125.42959540402 , -71.8919881786992 -41.38021039108 , -89.6981277949754 13.05568207306 , -21.6725867829324 71.2909023516612 , 61.2390055443648 129.526122630262 , 144.150597871662 192.491051399705 , 202.964992876441 193.965747033182 , 347.985386854664 195.440442666659 , 493.005780832886 140.184947487708 , 523.545433153855 122.666778631183 , 643.846533569292 105.148609774658 , 764.14763398473 135.173911735667 , 810.66093620242 89.5533873306185 , 871.476510608699 43.9328629255702 , 932.292085014977 -43.9328629255702 , 932.292085014977 -89.5533873306185 , 871.476510608699 -135.173911735667 , 810.66093620242 -105.148609774658 , 764.14763398473 -122.666778631183 , 643.846533569292 -140.184947487708 , 523.545433153855 -195.440442666659 , 493.005780832886 -193.965747033182 , 347.985386854664 -192.491051399705 , 202.964992876441 -129.526122630262 , 144.150597871662 -71.2909023516612 , 61.2390055443648 -13.05568207306 , -21.6725867829324 41.38021039108 , -89.6981277949754 125.42959540402 , -71.8919881786992 Z "
       id="path4201"
       inkscape:connector-curvature="0"
       sodipodi:nodetypes="zzzzzzzzzzzzzzzzzzzzzzzz" />
  </g>
</svg>
