<?xml version="1.0" encoding="UTF-8" standalone="no"?>
<!-- Created with Inkscape (http://www.inkscape.org/) -->

<svg
   xmlns:dc="http://purl.org/dc/elements/1.1/"
   xmlns:cc="http://creativecommons.org/ns#"
   xmlns:rdf="http://www.w3.org/1999/02/22-rdf-syntax-ns#"
   xmlns:svg="http://www.w3.org/2000/svg"
   xmlns="http://www.w3.org/2000/svg"
   xmlns:sodipodi="http://sodipodi.sourceforge.net/DTD/sodipodi-0.dtd"
   xmlns:inkscape="http://www.inkscape.org/namespaces/inkscape"
   width="210mm"
   height="297mm"
   viewBox="0 0 744.09448819 1052.3622047"
   id="svg2"
   version="1.1"
   inkscape:version="0.91 r13725"
   sodipodi:docname="9_9.svg">
  <defs
     id="defs4" />
  <sodipodi:namedview
     id="base"
     pagecolor="#ffffff"
     bordercolor="#666666"
     borderopacity="1.0"
     inkscape:pageopacity="0.0"
     inkscape:pageshadow="2"
     inkscape:zoom="1.5982422"
     inkscape:cx="358.73213"
     inkscape:cy="494.9725"
     inkscape:document-units="px"
     inkscape:current-layer="layer1"
     showgrid="false"
     inkscape:window-width="2560"
     inkscape:window-height="1315"
     inkscape:window-x="894"
     inkscape:window-y="71"
     inkscape:window-maximized="0" />
  <metadata
     id="metadata7">
    <rdf:RDF>
      <cc:Work
         rdf:about="">
        <dc:format>image/svg+xml</dc:format>
        <dc:type
           rdf:resource="http://purl.org/dc/dcmitype/StillImage" />
        <dc:title></dc:title>
      </cc:Work>
    </rdf:RDF>
  </metadata>
  <g
     inkscape:label="Layer 1"
     inkscape:groupmode="layer"
     id="layer1">
    <path
       style="fill:none;fill-rule:evenodd;stroke:#0000ff;stroke-width:19.61462784;stroke-linecap:butt;stroke-linejoin:miter;stroke-miterlimit:4;stroke-dasharray:none;stroke-opacity:1"
       d="M  113.010548159651 , -98.6552145336943 C  185.689434258931 , -85.6303438050277 219.769327235198 , -12.9260728387842 196.600848155342 , 51.0693319627092 173.432369075485 , 115.064736764203 120.169274469585 , 141.449878949424 63.0488248528564 , 189.616461459136 5.92837523612745 , 237.783043968849 -33.0566562243398 , 276.249425723973 -33.2851971230814 , 339.890833938442 -33.5137380218229 , 403.532242152911 5.91592474160484 , 445.060965261975 70.2124591217058 , 493.265856506694 134.508993501807 , 541.470747751413 180.061375435477 , 556.007849897603 211.358025314944 , 607.462036760411 242.654675194411 , 658.91622362322 234.238603091875 , 718.403031254327 198.389073188619 , 758.128813964327 162.539543285362 , 797.854596674328 114.828740464929 , 809.308514732733 0 , 809.308514732733 -114.828740464929 , 809.308514732733 -162.539543285362 , 797.854596674328 -198.389073188619 , 758.128813964327 -234.238603091875 , 718.403031254327 -242.654675194411 , 658.91622362322 -211.358025314944 , 607.462036760411 -180.061375435477 , 556.007849897603 -134.508993501807 , 541.470747751413 -70.2124591217058 , 493.265856506694 -5.91592474160484 , 445.060965261975 33.5137380218229 , 403.532242152911 33.2851971230814 , 339.890833938442 33.0566562243398 , 276.249425723973 -5.92837523612746 , 237.783043968849 -63.0488248528564 , 189.616461459136 -120.169274469585 , 141.449878949424 -173.432369075485 , 115.064736764203 -196.600848155342 , 51.0693319627092 -219.769327235198 , -12.9260728387842 -185.689434258931 , -85.6303438050277 -113.010548159651 , -98.6552145336943 -40.3316620603704 , -111.680085262361 17.7793215019178 , -59.9680198019963 74.6648319091831 , 23.0193470576815 131.550342316448 , 106.006713917359 199.338060797287 , 196.422092935323 195.186776411695 , 353.952267630424 191.035492026104 , 511.482442325525 142.688057900315 , 552.074143347304 128.374627614627 , 670.83594565981 114.06119732894 , 789.597747972316 121.780409010817 , 837.962538802862 78.0336115018272 , 883.09038884182 34.2868139928378 , 928.218238880778 -34.2868139928378 , 928.218238880778 -78.0336115018272 , 883.09038884182 -121.780409010817 , 837.962538802862 -114.06119732894 , 789.597747972316 -128.374627614627 , 670.83594565981 -142.688057900315 , 552.074143347304 -191.035492026104 , 511.482442325525 -195.186776411695 , 353.952267630424 -199.338060797287 , 196.422092935323 -131.550342316448 , 106.006713917359 -74.6648319091831 , 23.0193470576815 -17.7793215019178 , -59.9680198019963 40.3316620603704 , -111.680085262361 113.010548159651 , -98.6552145336943 Z "
       id="path4201"
       inkscape:connector-curvature="0"
       sodipodi:nodetypes="zzzzzzzzzzzzzzzzzzzzzzzz" />
  </g>
</svg>
