<?xml version="1.0" encoding="UTF-8" standalone="no"?>
<!-- Created with Inkscape (http://www.inkscape.org/) -->

<svg
   xmlns:dc="http://purl.org/dc/elements/1.1/"
   xmlns:cc="http://creativecommons.org/ns#"
   xmlns:rdf="http://www.w3.org/1999/02/22-rdf-syntax-ns#"
   xmlns:svg="http://www.w3.org/2000/svg"
   xmlns="http://www.w3.org/2000/svg"
   xmlns:sodipodi="http://sodipodi.sourceforge.net/DTD/sodipodi-0.dtd"
   xmlns:inkscape="http://www.inkscape.org/namespaces/inkscape"
   width="744.09448819"
   height="1052.3622047"
   id="svg2"
   version="1.1"
   inkscape:version="0.91 r13725"
   sodipodi:docname="amphichiral15.svg">
  <defs
     id="defs4" />
  <sodipodi:namedview
     id="base"
     pagecolor="#ffffff"
     bordercolor="#666666"
     borderopacity="1.0"
     inkscape:pageopacity="0.0"
     inkscape:pageshadow="2"
     inkscape:zoom="1.7642893"
     inkscape:cx="-66.36417"
     inkscape:cy="625.14086"
     inkscape:document-units="px"
     inkscape:current-layer="layer1"
     showgrid="false"
     inkscape:window-width="2560"
     inkscape:window-height="1315"
     inkscape:window-x="655"
     inkscape:window-y="53"
     inkscape:window-maximized="0" />
  <metadata
     id="metadata7">
    <rdf:RDF>
      <cc:Work
         rdf:about="">
        <dc:format>image/svg+xml</dc:format>
        <dc:type
           rdf:resource="http://purl.org/dc/dcmitype/StillImage" />
        <dc:title />
      </cc:Work>
    </rdf:RDF>
  </metadata>
  <g
     inkscape:label="Layer 1"
     inkscape:groupmode="layer"
     id="layer1">
    <path
       style="fill:none;stroke:#ff0000;stroke-width:3.5670054;stroke-linecap:butt;stroke-linejoin:miter;stroke-miterlimit:4;stroke-dasharray:none;stroke-opacity:1"
       d="M  194.018481791336 , 277.059686552075 C  178.072294624828 , 336.217048647006 127.968672263957 , 334.650618239024 91.7377541184876 , 334.621221286976 55.506835973018 , 334.591824334927 33.9280223247005 , 331.535292614336 0 , 331.535292614336 -33.9280223247005 , 331.535292614336 -55.506835973018 , 334.591824334927 -91.7377541184876 , 334.621221286976 -127.968672263957 , 334.650618239024 -178.072294624828 , 336.217048647006 -194.018481791336 , 277.059686552075 -209.964668957844 , 217.902324457143 -170.712330725709 , 177.220301223151 -154.742374657791 , 164.888397066363 -138.772418589874 , 152.556492909575 -111.949844350472 , 138.616393298088 -72.8478181182621 , 144.254272418988 -33.7457918860521 , 149.892151539889 15.7969823761236 , 181.564744307799 34.4507773831633 , 238.995809641729 53.104572390203 , 296.426874975659 53.1134291508718 , 344.297042577476 48.5612847775204 , 381.558740841337 44.0091404041691 , 418.820439105198 30.8759633298007 , 454.472513266822 26.8550470771055 , 481.583826114993 22.8341308244102 , 508.695138963165 25.5881852348133 , 525.011657819152 26.4813606296929 , 529.761022030565 27.3745360245725 , 534.510386241978 41.00585253251 , 606.708682479298 103.32807280767 , 592.391127697847 165.650293082829 , 578.073572916396 176.642613143663 , 496.2668083326 164.122382137901 , 423.39654850009 151.602151132139 , 350.526288667579 131.456959938227 , 316.770683613914 140.37324972876 , 273.090573183518 149.289539519294 , 229.410462753122 206.042026844581 , 180.0424761211 263.063337876116 , 231.487195361593 320.084648907651 , 282.931914602087 289.354107872612 , 383.197286270452 265.762907723697 , 445.450742153551 242.171707574783 , 507.704198036649 225.832678029666 , 538.700091800731 196.457344500468 , 578.707299239633 167.08201097127 , 618.714506678536 129.366875593458 , 646.607497846888 104.792875877559 , 659.95155277724 80.2188761616597 , 673.295607707591 61.0463390277364 , 684.319207542375 -32.2920278778223 , 695.355534671901 -125.630394783381 , 706.391861801426 -175.211904840501 , 648.860085928384 -193.054346476542 , 610.920022947571 -210.896788112583 , 572.979959966757 -196.691484071487 , 534.292966380696 -187.066739389891 , 502.835724978694 -177.441994708294 , 471.378483576692 -128.527423111535 , 323.278317093214 -137.572932203371 , 277.859641269653 -146.618441295207 , 232.440965446092 -204.629984248968 , 190.94921343489 -258.798539442374 , 230.906459005425 -312.967094635779 , 270.863704575959 -312.470911244903 , 356.573403602643 -314.88502902851 , 410.593432017668 -317.299146812118 , 464.613460432693 -317.267892543865 , 491.211139212795 -310.325237263856 , 538.086921171669 -303.382581983847 , 584.962703130544 -280.33711413123 , 647.322606266164 -229.466686884155 , 667.265205626898 -178.596259637081 , 687.207804987632 -144.850557669953 , 643.768436864954 -132.905004893308 , 610.897338243995 -120.959452116663 , 578.026239623035 -120.65666245066 , 558.491313354452 -117.398907275698 , 511.39809189487 -114.141152100736 , 464.304870435288 -97.2801379814488 , 447.148690110694 -87.3092829777075 , 438.888930944373 -77.3384279739661 , 430.629171778051 -67.8419267717054 , 426.342147448803 -58.9101134762232 , 423.386846236749 -49.978300180741 , 420.431545024694 -25.2919060108088 , 414.184885095968 7.11571747617183 , 418.286811440858 39.5233409631525 , 422.388737785748 70.0409831713731 , 429.658454654163 83.6256841127821 , 463.549477659514 97.2103850541911 , 497.440500664866 82.6204560402181 , 524.750419967769 73.1032202556181 , 537.871045664458 63.5859844710182 , 550.991671361146 29.7020984475056 , 589.043905418312 -35.2772173138772 , 583.041274803179 -100.25653307526 , 577.038644188047 -122.736648635266 , 570.165110334674 -161.567718986793 , 565.232160532105 -200.398789338321 , 560.299210729537 -236.474970406127 , 562.131506691054 -258.589372460297 , 523.155624027588 -280.703774514468 , 484.179741364122 -252.285623203337 , 444.294897223406 -217.003246817776 , 442.33450052393 -181.720870432214 , 440.374103824455 -91.8713057967617 , 475.190145820441 -84.2751207736649 , 478.112695034866 -76.678935750568 , 481.035244249292 -55.6637510149233 , 486.057087553542 -38.1779754710742 , 464.88227851576 -20.6921999272251 , 443.707469477977 -25.621101799078 , 410.321073120328 -32.3849328376776 , 380.307700223828 -39.1487638762773 , 350.294327327328 -53.104572390203 , 296.426874975659 -34.4507773831633 , 238.995809641729 -15.7969823761236 , 181.564744307799 33.7457918860521 , 149.892151539889 72.8478181182621 , 144.254272418988 111.949844350472 , 138.616393298088 138.772418589874 , 152.556492909575 154.742374657791 , 164.888397066363 170.712330725709 , 177.220301223151 209.964668957844 , 217.902324457143 194.018481791336 , 277.059686552075 Z "
       id="path3050"
       inkscape:connector-curvature="0"
       sodipodi:nodetypes="zzzzzzzzzzzzzzzzzzzzzzzzzzzzzzzzzzzzzzzzzzzz" />
  </g>
</svg>
