<?xml version="1.0" encoding="UTF-8" standalone="no"?>
<!-- Created with Inkscape (http://www.inkscape.org/) -->

<svg
   xmlns:dc="http://purl.org/dc/elements/1.1/"
   xmlns:cc="http://creativecommons.org/ns#"
   xmlns:rdf="http://www.w3.org/1999/02/22-rdf-syntax-ns#"
   xmlns:svg="http://www.w3.org/2000/svg"
   xmlns="http://www.w3.org/2000/svg"
   xmlns:sodipodi="http://sodipodi.sourceforge.net/DTD/sodipodi-0.dtd"
   xmlns:inkscape="http://www.inkscape.org/namespaces/inkscape"
   width="210mm"
   height="297mm"
   viewBox="0 0 744.09448819 1052.3622047"
   id="svg4741"
   version="1.1"
   inkscape:version="0.91 r13725"
   sodipodi:docname="celtic2.svg">
  <defs
     id="defs4743" />
  <sodipodi:namedview
     id="base"
     pagecolor="#ffffff"
     bordercolor="#666666"
     borderopacity="1.0"
     inkscape:pageopacity="0.0"
     inkscape:pageshadow="2"
     inkscape:zoom="2.0038842"
     inkscape:cx="87.596236"
     inkscape:cy="1021.1218"
     inkscape:document-units="px"
     inkscape:current-layer="layer1"
     showgrid="false"
     inkscape:window-width="2560"
     inkscape:window-height="1315"
     inkscape:window-x="45"
     inkscape:window-y="1"
     inkscape:window-maximized="0" />
  <metadata
     id="metadata4746">
    <rdf:RDF>
      <cc:Work
         rdf:about="">
        <dc:format>image/svg+xml</dc:format>
        <dc:type
           rdf:resource="http://purl.org/dc/dcmitype/StillImage" />
        <dc:title />
      </cc:Work>
    </rdf:RDF>
  </metadata>
  <g
     inkscape:label="Layer 1"
     inkscape:groupmode="layer"
     id="layer1">
    <path
       style="fill:none;fill-rule:evenodd;stroke:#000000;stroke-width:1.30961168px;stroke-linecap:butt;stroke-linejoin:miter;stroke-opacity:1"
       d="M  -200.862393694606 , 207.324569549702 C  -168.7075825897 , 199.278558145147 -75.2871569136728 , 139.121571022126 -37.140892112676 , 68.4006454950368 1.00537268832079 , -2.32028003205198 -1.0053726883208 , 2.320280032052 37.140892112676 , -68.4006454950368 75.2871569136728 , -139.121571022126 168.7075825897 , -199.278558145147 200.862393694606 , -207.324569549702 233.017204799511 , -215.370580954256 251.678275115669 , -205.856737575806 255.226007447563 , -204.053682442228 258.773739779457 , -202.250627308651 291.525139699517 , -185.397138572331 293.51360890665 , -143.329138576568 295.502078113782 , -101.261138580805 242.150013905233 , 1.40082523654644 176.462575950605 , 70.3111120490141 110.775137995977 , 139.221398861482 -13.4054892411679 , 196.742188484571 -84.7777660097732 , 199.661687289511 -156.150042778379 , 202.58118609445 -311.141591049123 , 138.233519644277 -311.141591049123 , 0 -311.141591049123 , -138.233519644277 -156.150042778379 , -202.58118609445 -84.7777660097732 , -199.661687289511 -13.4054892411679 , -196.742188484571 110.775137995977 , -139.221398861482 176.462575950605 , -70.3111120490141 242.150013905233 , -1.40082523654644 295.502078113782 , 101.261138580805 293.51360890665 , 143.329138576568 291.525139699517 , 185.397138572331 258.773739779457 , 202.250627308651 255.226007447563 , 204.053682442228 251.67827511567 , 205.856737575806 233.017204799511 , 215.370580954256 200.862393694606 , 207.324569549702 168.7075825897 , 199.278558145147 75.2871569136728 , 139.121571022126 37.140892112676 , 68.4006454950368 -1.00537268832079 , -2.32028003205198 1.0053726883208 , 2.32028003205199 -37.140892112676 , -68.4006454950368 -75.2871569136728 , -139.121571022126 -168.7075825897 , -199.278558145147 -200.862393694606 , -207.324569549702 -233.017204799511 , -215.370580954256 -251.678275115669 , -205.856737575806 -255.226007447563 , -204.053682442228 -258.773739779457 , -202.250627308651 -291.525139699517 , -185.397138572331 -293.51360890665 , -143.329138576568 -295.502078113782 , -101.261138580805 -242.150013905233 , 1.40082523654644 -176.462575950605 , 70.3111120490141 -110.775137995977 , 139.221398861482 13.4054892411679 , 196.742188484571 84.7777660097732 , 199.661687289511 156.150042778379 , 202.58118609445 311.141591049123 , 138.233519644277 311.141591049123 , 0 311.141591049123 , -138.233519644277 156.150042778379 , -202.58118609445 84.7777660097732 , -199.661687289511 13.4054892411679 , -196.742188484571 -110.775137995977 , -139.221398861482 -176.462575950605 , -70.3111120490141 -242.150013905233 , -1.40082523654644 -295.502078113782 , 101.261138580805 -293.51360890665 , 143.329138576568 -291.525139699517 , 185.397138572331 -258.773739779457 , 202.250627308651 -255.226007447563 , 204.053682442228 -251.67827511567 , 205.856737575806 -233.017204799511 , 215.370580954256 -200.862393694606 , 207.324569549702 Z "
       id="path5289"
       inkscape:connector-curvature="0"
       sodipodi:nodetypes="zzzzzzzzzzzzzzzzzzzzzzzzzzz" />
  </g>
</svg>
