<?xml version="1.0" encoding="UTF-8" standalone="no"?>
<!-- Created with Inkscape (http://www.inkscape.org/) -->

<svg
   xmlns:dc="http://purl.org/dc/elements/1.1/"
   xmlns:cc="http://creativecommons.org/ns#"
   xmlns:rdf="http://www.w3.org/1999/02/22-rdf-syntax-ns#"
   xmlns:svg="http://www.w3.org/2000/svg"
   xmlns="http://www.w3.org/2000/svg"
   xmlns:sodipodi="http://sodipodi.sourceforge.net/DTD/sodipodi-0.dtd"
   xmlns:inkscape="http://www.inkscape.org/namespaces/inkscape"
   width="210mm"
   height="297mm"
   viewBox="0 0 744.09448819 1052.3622047"
   id="svg2"
   version="1.1"
   inkscape:version="0.91 r13725"
   sodipodi:docname="celtic3.svg">
  <defs
     id="defs4" />
  <sodipodi:namedview
     id="base"
     pagecolor="#ffffff"
     bordercolor="#666666"
     borderopacity="1.0"
     inkscape:pageopacity="0.0"
     inkscape:pageshadow="2"
     inkscape:zoom="0.99274691"
     inkscape:cx="1.4285714"
     inkscape:cy="941.12131"
     inkscape:document-units="px"
     inkscape:current-layer="layer1"
     showgrid="false"
     inkscape:window-width="1855"
     inkscape:window-height="1056"
     inkscape:window-x="65"
     inkscape:window-y="24"
     inkscape:window-maximized="1" />
  <metadata
     id="metadata7">
    <rdf:RDF>
      <cc:Work
         rdf:about="">
        <dc:format>image/svg+xml</dc:format>
        <dc:type
           rdf:resource="http://purl.org/dc/dcmitype/StillImage" />
        <dc:title></dc:title>
      </cc:Work>
    </rdf:RDF>
  </metadata>
  <g
     inkscape:label="Layer 1"
     inkscape:groupmode="layer"
     id="layer1">
    <path
       style="fill:none;fill-rule:evenodd;stroke:#f50000;stroke-width:4.98723698;stroke-linecap:butt;stroke-linejoin:miter;stroke-miterlimit:4;stroke-dasharray:none;stroke-opacity:1"
       d="M  0 , -463.395856012853 C  39.3548352490109 , -463.395856012853 73.1340293933524 , -423.711082055986 59.8162527737307 , -369.076310895653 46.4984761541089 , -314.441539735319 -11.6885821458558 , -265.032064540301 -40.7610885680426 , -239.13189138114 -69.8335949902294 , -213.23171822198 -126.537325464593 , -160.235418960561 -185.134942038992 , -156.322139354294 -243.732558613392 , -152.408859748028 -275.738221090271 , -195.43513027173 -267.008565327187 , -233.796027149045 -258.278909564103 , -272.156924026361 -212.984027692579 , -295.243803168167 -163.340587877844 , -272.992755022653 -113.69714806311 , -250.74170687714 -79.2201886617963 , -193.017270439337 -43.3621986204496 , -148.738906117984 -7.50420857910299 , -104.460541796631 11.1192582275782 , -90.8634093887808 45.7195710000308 , -52.4847747415555 80.3198837724834 , -14.1061400943301 132.347419813542 , 49.6347826608518 190.544255154888 , 60.9180645059307 248.741090496235 , 72.2013463510097 282.28165416765 , 35.1176962950346 282.28165416765 , 0 282.28165416765 , -35.1176962950346 248.741090496235 , -72.2013463510097 190.544255154888 , -60.9180645059307 132.347419813542 , -49.6347826608518 80.3198837724834 , 14.1061400943301 45.7195710000308 , 52.4847747415555 11.1192582275782 , 90.8634093887808 -7.50420857910299 , 104.460541796631 -43.3621986204496 , 148.738906117984 -79.2201886617963 , 193.017270439337 -113.69714806311 , 250.74170687714 -163.340587877844 , 272.992755022653 -212.984027692579 , 295.243803168167 -258.278909564103 , 272.156924026361 -267.008565327187 , 233.796027149045 -275.738221090271 , 195.43513027173 -243.732558613392 , 152.408859748028 -185.134942038992 , 156.322139354294 -126.537325464593 , 160.235418960561 -69.8335949902294 , 213.23171822198 -40.7610885680426 , 239.13189138114 -11.6885821458558 , 265.032064540301 46.4984761541089 , 314.441539735319 59.8162527737307 , 369.076310895653 73.1340293933524 , 423.711082055986 39.3548352490109 , 463.395856012853 0 , 463.395856012853 -39.3548352490109 , 463.395856012853 -73.1340293933524 , 423.711082055986 -59.8162527737307 , 369.076310895653 -46.4984761541089 , 314.441539735319 11.6885821458558 , 265.032064540301 40.7610885680426 , 239.13189138114 69.8335949902294 , 213.23171822198 126.537325464593 , 160.235418960561 185.134942038992 , 156.322139354294 243.732558613392 , 152.408859748028 275.738221090271 , 195.43513027173 267.008565327187 , 233.796027149045 258.278909564103 , 272.156924026361 212.984027692579 , 295.243803168167 163.340587877844 , 272.992755022653 113.69714806311 , 250.74170687714 79.2201886617963 , 193.017270439337 43.3621986204496 , 148.738906117984 7.50420857910299 , 104.460541796631 -11.1192582275782 , 90.8634093887808 -45.7195710000308 , 52.4847747415555 -80.3198837724834 , 14.1061400943301 -132.347419813542 , -49.6347826608518 -190.544255154888 , -60.9180645059307 -248.741090496235 , -72.2013463510097 -282.28165416765 , -35.1176962950346 -282.28165416765 , 0 -282.28165416765 , 35.1176962950346 -248.741090496235 , 72.2013463510097 -190.544255154888 , 60.9180645059307 -132.347419813542 , 49.6347826608518 -80.3198837724834 , -14.1061400943301 -45.7195710000308 , -52.4847747415555 -11.1192582275782 , -90.8634093887808 7.50420857910299 , -104.460541796631 43.3621986204496 , -148.738906117984 79.2201886617963 , -193.017270439337 113.69714806311 , -250.74170687714 163.340587877844 , -272.992755022653 212.984027692579 , -295.243803168167 258.278909564103 , -272.156924026361 267.008565327187 , -233.796027149045 275.738221090271 , -195.43513027173 243.732558613392 , -152.408859748028 185.134942038992 , -156.322139354294 126.537325464593 , -160.235418960561 69.8335949902294 , -213.23171822198 40.7610885680426 , -239.13189138114 11.6885821458558 , -265.032064540301 -46.4984761541089 , -314.441539735319 -59.8162527737307 , -369.076310895653 -73.1340293933524 , -423.711082055986 -39.3548352490109 , -463.395856012853 0 , -463.395856012853 Z "
       id="path4233"
       inkscape:connector-curvature="0"
       sodipodi:nodetypes="zzzzzzzzzzzzzzzzzzzzzzzzzzzzzzzzzzzzz" />
  </g>
</svg>
