<?xml version="1.0" encoding="UTF-8" standalone="no"?>
<!-- Created with Inkscape (http://www.inkscape.org/) -->

<svg
   xmlns:dc="http://purl.org/dc/elements/1.1/"
   xmlns:cc="http://creativecommons.org/ns#"
   xmlns:rdf="http://www.w3.org/1999/02/22-rdf-syntax-ns#"
   xmlns:svg="http://www.w3.org/2000/svg"
   xmlns="http://www.w3.org/2000/svg"
   xmlns:sodipodi="http://sodipodi.sourceforge.net/DTD/sodipodi-0.dtd"
   xmlns:inkscape="http://www.inkscape.org/namespaces/inkscape"
   width="210mm"
   height="297mm"
   viewBox="0 0 744.09448819 1052.3622047"
   id="svg2"
   version="1.1"
   inkscape:version="0.48.4 r9939"
   sodipodi:docname="D16.svg">
  <defs
     id="defs4" />
  <sodipodi:namedview
     id="base"
     pagecolor="#ffffff"
     bordercolor="#666666"
     borderopacity="1.0"
     inkscape:pageopacity="0.0"
     inkscape:pageshadow="2"
     inkscape:zoom="0.7991211"
     inkscape:cx="266.13039"
     inkscape:cy="1118.0354"
     inkscape:document-units="px"
     inkscape:current-layer="layer1"
     showgrid="false"
     inkscape:window-width="1600"
     inkscape:window-height="824"
     inkscape:window-x="-3"
     inkscape:window-y="-3"
     inkscape:window-maximized="1" />
  <metadata
     id="metadata7">
    <rdf:RDF>
      <cc:Work
         rdf:about="">
        <dc:format>image/svg+xml</dc:format>
        <dc:type
           rdf:resource="http://purl.org/dc/dcmitype/StillImage" />
        <dc:title />
      </cc:Work>
    </rdf:RDF>
  </metadata>
  <g
     inkscape:label="Layer 1"
     inkscape:groupmode="layer"
     id="layer1">
    <path
       style="fill:none;stroke:#0000ff;stroke-width:8.93804932;stroke-linecap:butt;stroke-linejoin:miter;stroke-miterlimit:4;stroke-opacity:1;stroke-dasharray:none"
       d="M  0 , -323.461017169155 C  92.3404885020078 , -323.461017169155 113.038751534065 , -242.973690040471 122.798237462454 , -194.467305547118 132.557723390844 , -145.960921053766 127.884076804769 , -115.093324492246 132.45554875186 , -89.7935783971351 137.027020698951 , -64.4938323020246 142.496761707487 , -51.2887093765479 157.153864919846 , -30.1665685366054 171.810968132204 , -9.0444276966629 196.942422173668 , 9.47749195703544 224.340616898901 , 50.6776840439863 251.738811624134 , 91.8778761309371 294.016064287656 , 163.426893091959 228.721478689807 , 228.721478689807 163.426893091959 , 294.016064287656 91.8778761309371 , 251.738811624134 50.6776840439863 , 224.340616898901 9.47749195703548 , 196.942422173668 -9.04442769666287 , 171.810968132204 -30.1665685366054 , 157.153864919846 -51.2887093765479 , 142.496761707487 -64.4938323020246 , 137.027020698951 -89.7935783971351 , 132.45554875186 -115.093324492246 , 127.884076804769 -145.960921053765 , 132.557723390844 -194.467305547118 , 122.798237462454 -242.973690040471 , 113.038751534065 -323.461017169155 , 92.3404885020079 -323.461017169155 , 0 -323.461017169155 , -92.3404885020077 -242.973690040471 , -113.038751534065 -194.467305547118 , -122.798237462454 -145.960921053766 , -132.557723390844 -115.093324492246 , -127.884076804769 -89.7935783971351 , -132.45554875186 -64.4938323020246 , -137.027020698951 -51.2887093765479 , -142.496761707487 -30.1665685366054 , -157.153864919846 -9.04442769666289 , -171.810968132204 9.47749195703545 , -196.942422173668 50.6776840439863 , -224.340616898901 91.8778761309371 , -251.738811624134 163.426893091959 , -294.016064287656 228.721478689807 , -228.721478689807 294.016064287656 , -163.426893091959 251.738811624134 , -91.8778761309371 224.340616898901 , -50.6776840439863 196.942422173668 , -9.47749195703547 171.810968132204 , 9.04442769666288 157.153864919846 , 30.1665685366054 142.496761707487 , 51.2887093765479 137.027020698951 , 64.4938323020246 132.45554875186 , 89.7935783971351 127.884076804769 , 115.093324492246 132.557723390844 , 145.960921053765 122.798237462454 , 194.467305547118 113.038751534065 , 242.973690040471 92.3404885020078 , 323.461017169155 0 , 323.461017169155 -92.3404885020078 , 323.461017169155 -113.038751534065 , 242.973690040471 -122.798237462454 , 194.467305547118 -132.557723390844 , 145.960921053766 -127.884076804769 , 115.093324492246 -132.45554875186 , 89.7935783971351 -137.027020698951 , 64.4938323020246 -142.496761707487 , 51.2887093765479 -157.153864919846 , 30.1665685366054 -171.810968132204 , 9.04442769666292 -196.942422173668 , -9.47749195703542 -224.340616898901 , -50.6776840439862 -251.738811624134 , -91.8778761309371 -294.016064287656 , -163.426893091959 -228.721478689807 , -228.721478689807 -163.426893091959 , -294.016064287656 -91.8778761309371 , -251.738811624134 -50.6776840439863 , -224.340616898901 -9.47749195703545 , -196.942422173668 9.04442769666289 , -171.810968132204 30.1665685366054 , -157.153864919846 51.2887093765479 , -142.496761707487 64.4938323020246 , -137.027020698951 89.7935783971351 , -132.45554875186 115.093324492246 , -127.884076804769 145.960921053765 , -132.557723390844 194.467305547118 , -122.798237462454 242.973690040471 , -113.038751534065 323.461017169155 , -92.3404885020078 323.461017169155 , 0 323.461017169155 , 92.3404885020078 242.973690040471 , 113.038751534065 194.467305547118 , 122.798237462454 145.960921053766 , 132.557723390844 115.093324492246 , 127.884076804769 89.7935783971351 , 132.45554875186 64.4938323020246 , 137.027020698951 51.2887093765479 , 142.496761707487 30.1665685366054 , 157.153864919846 9.04442769666291 , 171.810968132204 -9.47749195703543 , 196.942422173668 -50.6776840439863 , 224.340616898901 -91.8778761309371 , 251.738811624134 -163.426893091959 , 294.016064287656 -228.721478689807 , 228.721478689807 -294.016064287656 , 163.426893091959 -251.738811624134 , 91.8778761309372 -224.340616898901 , 50.6776840439863 -196.942422173668 , 9.4774919570355 -171.810968132204 , -9.04442769666286 -157.153864919846 , -30.1665685366054 -142.496761707487 , -51.2887093765479 -137.027020698951 , -64.4938323020245 -132.45554875186 , -89.7935783971351 -127.884076804769 , -115.093324492246 -132.557723390844 , -145.960921053765 -122.798237462454 , -194.467305547118 -113.038751534065 , -242.973690040471 -92.3404885020078 , -323.461017169155 0 , -323.461017169155 Z "
       id="path4198"
       inkscape:connector-curvature="0"
       sodipodi:nodetypes="zzzzzzzzzzzzzzzzzzzzzzzzzzzzzzzzzzzzzzzzz" />
  </g>
</svg>
