<?xml version="1.0" encoding="UTF-8" standalone="no"?>
<!-- Created with Inkscape (http://www.inkscape.org/) -->

<svg
   xmlns:dc="http://purl.org/dc/elements/1.1/"
   xmlns:cc="http://creativecommons.org/ns#"
   xmlns:rdf="http://www.w3.org/1999/02/22-rdf-syntax-ns#"
   xmlns:svg="http://www.w3.org/2000/svg"
   xmlns="http://www.w3.org/2000/svg"
   xmlns:sodipodi="http://sodipodi.sourceforge.net/DTD/sodipodi-0.dtd"
   xmlns:inkscape="http://www.inkscape.org/namespaces/inkscape"
   width="210mm"
   height="297mm"
   viewBox="0 0 744.09448819 1052.3622047"
   id="svg6267"
   version="1.1"
   inkscape:version="0.91 r13725"
   sodipodi:docname="fiveloops.svg">
  <defs
     id="defs6269" />
  <sodipodi:namedview
     id="base"
     pagecolor="#ffffff"
     bordercolor="#666666"
     borderopacity="1.0"
     inkscape:pageopacity="0.0"
     inkscape:pageshadow="2"
     inkscape:zoom="2.6761447"
     inkscape:cx="224.17271"
     inkscape:cy="680.59926"
     inkscape:document-units="px"
     inkscape:current-layer="layer1"
     showgrid="false"
     inkscape:window-width="2560"
     inkscape:window-height="1315"
     inkscape:window-x="336"
     inkscape:window-y="0"
     inkscape:window-maximized="0" />
  <metadata
     id="metadata6272">
    <rdf:RDF>
      <cc:Work
         rdf:about="">
        <dc:format>image/svg+xml</dc:format>
        <dc:type
           rdf:resource="http://purl.org/dc/dcmitype/StillImage" />
        <dc:title></dc:title>
      </cc:Work>
    </rdf:RDF>
  </metadata>
  <g
     inkscape:label="Layer 1"
     inkscape:groupmode="layer"
     id="layer1">
    <path
       sodipodi:nodetypes="zzzzzzzzzzzzzzzzzzzzz"
       inkscape:connector-curvature="0"
       id="path6903"
       d="M  455.640139834311 , -148.046455826483 C  434.659038402437 , -212.619646295166 349.552754963878 , -251.02358098418 260.649431623449 , -193.50172883577 171.74610828302 , -135.97987668736 119.811985403469 , -1.17074758750325 108.026884779293 , 35.1000625874751 96.2417841551178 , 71.3708727624534 59.0185541933439 , 210.959860720469 97.1323572547785 , 309.752078995749 135.246160316213 , 408.544297271029 226.671856386304 , 427.49907973936 281.601093056359 , 387.590653267693 336.530329726414 , 347.682226796027 346.755354153168 , 254.873872884352 264.576184069453 , 188.097017762924 182.397013985738 , 121.320162641495 38.1373867415067 , 113.586188547567 0 , 113.586188547567 -38.1373867415067 , 113.586188547567 -182.397013985738 , 121.320162641495 -264.576184069453 , 188.097017762924 -346.755354153168 , 254.873872884352 -336.530329726414 , 347.682226796027 -281.601093056359 , 387.590653267693 -226.671856386304 , 427.49907973936 -135.246160316213 , 408.54429727103 -97.1323572547784 , 309.752078995749 -59.0185541933439 , 210.959860720469 -96.2417841551178 , 71.3708727624534 -108.026884779293 , 35.1000625874751 -119.811985403469 , -1.17074758750323 -171.74610828302 , -135.97987668736 -260.649431623449 , -193.50172883577 -349.552754963878 , -251.02358098418 -434.659038402437 , -212.619646295166 -455.640139834311 , -148.046455826483 -476.621241266185 , -83.4732653578009 -430.342078076505 , -2.37961126091473 -324.607282260304 , 3.34029514239191 -218.872486444102 , 9.06020154569855 -97.6180804873006 , -69.4765633736262 -66.7642864923719 , -91.8931568612584 -35.9104924974432 , -114.309750348891 76.2520816313119 , -205.360348220303 103.48597617782 , -307.687663065295 130.719870724328 , -410.014977910287 67.8962704763621 , -479.08839488242 0 , -479.08839488242 -67.8962704763621 , -479.08839488242 -130.719870724328 , -410.014977910287 -103.48597617782 , -307.687663065295 -76.2520816313119 , -205.360348220303 35.9104924974431 , -114.309750348891 66.7642864923718 , -91.8931568612584 97.6180804873005 , -69.4765633736263 218.872486444102 , 9.06020154569849 324.607282260304 , 3.34029514239182 430.342078076505 , -2.37961126091484 476.621241266185 , -83.473265357801 455.640139834311 , -148.046455826483 Z "
       style="fill:none;fill-rule:evenodd;stroke:#000000;stroke-width:2.22195101px;stroke-linecap:butt;stroke-linejoin:miter;stroke-opacity:1" />
  </g>
</svg>
