<?xml version="1.0" encoding="UTF-8" standalone="no"?>
<!-- Created with Inkscape (http://www.inkscape.org/) -->

<svg
   xmlns:dc="http://purl.org/dc/elements/1.1/"
   xmlns:cc="http://creativecommons.org/ns#"
   xmlns:rdf="http://www.w3.org/1999/02/22-rdf-syntax-ns#"
   xmlns:svg="http://www.w3.org/2000/svg"
   xmlns="http://www.w3.org/2000/svg"
   xmlns:sodipodi="http://sodipodi.sourceforge.net/DTD/sodipodi-0.dtd"
   xmlns:inkscape="http://www.inkscape.org/namespaces/inkscape"
   width="210mm"
   height="297mm"
   viewBox="0 0 744.09448819 1052.3622047"
   id="svg6267"
   version="1.1"
   inkscape:version="0.91 r13725"
   sodipodi:docname="flower.svg">
  <defs
     id="defs6269" />
  <sodipodi:namedview
     id="base"
     pagecolor="#ffffff"
     bordercolor="#666666"
     borderopacity="1.0"
     inkscape:pageopacity="0.0"
     inkscape:pageshadow="2"
     inkscape:zoom="0.54006889"
     inkscape:cx="-59.429366"
     inkscape:cy="976.85777"
     inkscape:document-units="px"
     inkscape:current-layer="layer1"
     showgrid="false"
     inkscape:window-width="1600"
     inkscape:window-height="835"
     inkscape:window-x="0"
     inkscape:window-y="0"
     inkscape:window-maximized="1" />
  <metadata
     id="metadata6272">
    <rdf:RDF>
      <cc:Work
         rdf:about="">
        <dc:format>image/svg+xml</dc:format>
        <dc:type
           rdf:resource="http://purl.org/dc/dcmitype/StillImage" />
        <dc:title />
      </cc:Work>
    </rdf:RDF>
  </metadata>
  <g
     inkscape:label="Layer 1"
     inkscape:groupmode="layer"
     id="layer1">
    <path
       sodipodi:nodetypes="zzzzzzzzzzzzzzzzzzzzzzzzzzzzzzzzzzzz"
       inkscape:connector-curvature="0"
       id="path6903"
       d="M  351.515935522571 , 8.03752768277934 C  375.728690926846 , -69.7850410100608 344.98951417041 , -164.390499259665 279.658025394538 , -213.118379334087 214.326536618667 , -261.846259408509 152.808909421065 , -245.831222528414 125.574052001691 , -207.95314286324 98.3391945823166 , -170.075063198065 107.546012507308 , -138.742681742752 97.1410486664502 , -85.5465789484032 86.7360848255923 , -32.3504761540541 79.5441983185367 , -25.2575922045502 64.6369412391142 , 20.6267779010532 49.7296841596916 , 66.5111480066566 51.1558338614588 , 77.1542764868234 28.3057417326169 , 126.306711978261 5.455649603775 , 175.459147469699 -20.4095343002943 , 195.395944744434 -20.6402484209908 , 242.048202447244 -20.8709625416873 , 288.700460150055 19.4844408217553 , 337.81605117437 100.980254792473 , 336.795253707066 182.47606876319 , 335.774456239763 262.952278297732 , 277.305067520249 289.106705868199 , 200.113386357832 315.261133438666 , 122.921705195415 281.019935997463 , 69.3638835436104 236.579707725187 , 55.1669652553721 192.139479452911 , 40.9700469671338 165.185677101728 , 59.4084894929703 111.377866244974 , 65.9512806282774 57.5700553882191 , 72.4940717635845 48.6019067364221 , 67.8460029161202 0.356681774331641 , 67.8474090694695 -47.8885431877588 , 67.8488152228189 -57.5700553882191 , 72.4940717635845 -111.377866244974 , 65.9512806282774 -165.185677101728 , 59.4084894929704 -192.139479452911 , 40.9700469671339 -236.579707725187 , 55.1669652553722 -281.019935997463 , 69.3638835436104 -315.261133438666 , 122.921705195415 -289.106705868199 , 200.113386357832 -262.952278297731 , 277.305067520249 -182.47606876319 , 335.774456239763 -100.980254792473 , 336.795253707067 -19.4844408217552 , 337.81605117437 20.8709625416874 , 288.700460150055 20.6402484209909 , 242.048202447244 20.4095343002944 , 195.395944744434 -5.45564960377495 , 175.459147469699 -28.3057417326169 , 126.306711978261 -51.1558338614588 , 77.1542764868234 -49.5065680373754 , 67.188728007537 -64.4164997794096 , 21.3052269524969 -79.3264315214438 , -24.5782741025432 -86.7360848255923 , -32.3504761540541 -97.1410486664503 , -85.5465789484032 -107.546012507308 , -138.742681742752 -98.3391945823166 , -170.075063198065 -125.574052001691 , -207.95314286324 -152.808909421065 , -245.831222528414 -214.326536618667 , -261.846259408509 -279.658025394538 , -213.118379334087 -344.98951417041 , -164.390499259665 -375.728690926846 , -69.7850410100607 -351.515935522571 , 8.03752768277943 -327.303180118297 , 85.8600963756196 -268.120971768775 , 109.062813396858 -223.823332664773 , 94.4270507728404 -179.525693560772 , 79.7912881488227 -168.557453987571 , 49.0312272803838 -128.871776712507 , 12.1105603815315 -89.1860994374435 , -24.8101065173208 -79.1986484498793 , -26.3210853465903 -40.1682680743069 , -54.6800546747961 -1.13788769873446 , -83.039024003002 3.96420691490911 , -92.4877655790329 51.3413964662998 , -118.821974039667 98.7185860176904 , -145.156182500301 131.36251477475 , -146.082216662325 158.970675483095 , -183.689075612217 186.578836191441 , -221.295934562109 182.800049117281 , -284.751593336895 116.268540947693 , -331.827788413591 49.7370327781047 , -378.903983490286 -49.7370327781047 , -378.903983490286 -116.268540947693 , -331.827788413591 -182.800049117281 , -284.751593336895 -186.578836191441 , -221.295934562109 -158.970675483095 , -183.689075612217 -131.36251477475 , -146.082216662325 -98.7185860176904 , -145.156182500301 -51.3413964662998 , -118.821974039667 -3.96420691490911 , -92.4877655790329 0.559111432295815 , -83.4560533725166 39.5911448402707 , -55.0993592482234 78.6231782482455 , -26.7426651239303 89.1860994374435 , -24.8101065173208 128.871776712507 , 12.1105603815315 168.557453987571 , 49.0312272803838 179.525693560772 , 79.7912881488226 223.823332664773 , 94.4270507728403 268.120971768775 , 109.062813396858 327.303180118297 , 85.8600963756195 351.515935522571 , 8.03752768277934 Z "
       style="fill:none;fill-rule:evenodd;stroke:#000000;stroke-width:1.57155395px;stroke-linecap:butt;stroke-linejoin:miter;stroke-opacity:1" />
  </g>
</svg>
