<?xml version="1.0" encoding="UTF-8" standalone="no"?>
<!-- Created with Inkscape (http://www.inkscape.org/) -->

<svg
   xmlns:dc="http://purl.org/dc/elements/1.1/"
   xmlns:cc="http://creativecommons.org/ns#"
   xmlns:rdf="http://www.w3.org/1999/02/22-rdf-syntax-ns#"
   xmlns:svg="http://www.w3.org/2000/svg"
   xmlns="http://www.w3.org/2000/svg"
   xmlns:sodipodi="http://sodipodi.sourceforge.net/DTD/sodipodi-0.dtd"
   xmlns:inkscape="http://www.inkscape.org/namespaces/inkscape"
   width="210mm"
   height="297mm"
   viewBox="0 0 744.09448819 1052.3622047"
   id="svg2"
   version="1.1"
   inkscape:version="0.91 r13725"
   sodipodi:docname="fourloops.svg">
  <defs
     id="defs4" />
  <sodipodi:namedview
     id="base"
     pagecolor="#ffffff"
     bordercolor="#666666"
     borderopacity="1.0"
     inkscape:pageopacity="0.0"
     inkscape:pageshadow="2"
     inkscape:zoom="1.2901558"
     inkscape:cx="263.64477"
     inkscape:cy="927.93435"
     inkscape:document-units="px"
     inkscape:current-layer="layer1"
     showgrid="false"
     inkscape:window-width="2560"
     inkscape:window-height="1315"
     inkscape:window-x="0"
     inkscape:window-y="1"
     inkscape:window-maximized="1" />
  <metadata
     id="metadata7">
    <rdf:RDF>
      <cc:Work
         rdf:about="">
        <dc:format>image/svg+xml</dc:format>
        <dc:type
           rdf:resource="http://purl.org/dc/dcmitype/StillImage" />
        <dc:title />
      </cc:Work>
    </rdf:RDF>
  </metadata>
  <g
     inkscape:label="Layer 1"
     inkscape:groupmode="layer"
     id="layer1">
    <path
       style="fill:none;fill-rule:evenodd;stroke:#000000;stroke-width:1px;stroke-linecap:butt;stroke-linejoin:miter;stroke-opacity:1"
       d="M  0 , -559.459012822972 C  -102.487143138789 , -559.459012822972 -166.816448709994 , -447.531735931669 -125.257029963624 , -330.867556867662 -83.6976112172543 , -214.203377803655 22.5001609939312 , -128.488798696421 75.7643218799669 , -75.3119986437167 129.028482766003 , -22.1351985910121 214.203377803655 , 83.6976112172543 330.867556867662 , 125.257029963624 447.531735931669 , 166.816448709994 559.459012822972 , 102.487143138789 559.459012822972 , 0 559.459012822972 , -102.487143138789 447.531735931669 , -166.816448709994 330.867556867662 , -125.257029963624 214.203377803655 , -83.6976112172543 128.488798696421 , 22.5001609939311 75.3119986437167 , 75.7643218799669 22.1351985910121 , 129.028482766003 -83.6976112172543 , 214.203377803655 -125.257029963624 , 330.867556867662 -166.816448709994 , 447.531735931669 -102.487143138789 , 559.459012822972 0 , 559.459012822972 102.487143138789 , 559.459012822972 166.816448709994 , 447.531735931669 125.257029963624 , 330.867556867662 83.6976112172543 , 214.203377803655 -22.5001609939311 , 128.488798696421 -75.7643218799669 , 75.3119986437167 -129.028482766003 , 22.1351985910121 -214.203377803655 , -83.6976112172543 -330.867556867662 , -125.257029963624 -447.531735931669 , -166.816448709994 -559.459012822972 , -102.487143138789 -559.459012822972 , 0 -559.459012822972 , 102.487143138789 -447.531735931669 , 166.816448709994 -330.867556867662 , 125.257029963624 -214.203377803655 , 83.6976112172543 -128.488798696421 , -22.5001609939312 -75.3119986437167 , -75.7643218799669 -22.1351985910121 , -129.028482766003 83.6976112172543 , -214.203377803655 125.257029963624 , -330.867556867662 166.816448709994 , -447.531735931669 102.487143138789 , -559.459012822972 0 , -559.459012822972 Z "
       id="path4136"
       inkscape:connector-curvature="0"
       sodipodi:nodetypes="zzzzzzzzzzzzzzzzz" />
  </g>
</svg>
