<?xml version="1.0" encoding="UTF-8" standalone="no"?>
<svg
   xmlns:dc="http://purl.org/dc/elements/1.1/"
   xmlns:cc="http://creativecommons.org/ns#"
   xmlns:rdf="http://www.w3.org/1999/02/22-rdf-syntax-ns#"
   xmlns:svg="http://www.w3.org/2000/svg"
   xmlns="http://www.w3.org/2000/svg"
   xmlns:sodipodi="http://sodipodi.sourceforge.net/DTD/sodipodi-0.dtd"
   xmlns:inkscape="http://www.inkscape.org/namespaces/inkscape"
   width="618"
   height="600"
   viewBox="0 0 618 600"
   id="svg2"
   version="1.1"
   inkscape:version="0.92.2 5c3e80d, 2017-08-06"
   sodipodi:docname="hexknot.svg">
  <metadata
     id="metadata28">
    <rdf:RDF>
      <cc:Work
         rdf:about="">
        <dc:format>image/svg+xml</dc:format>
        <dc:type
           rdf:resource="http://purl.org/dc/dcmitype/StillImage" />
        <dc:title>20 crossings ornamental knot (five-fold symmetry)</dc:title>
      </cc:Work>
    </rdf:RDF>
  </metadata>
  <defs
     id="defs26" />
  <sodipodi:namedview
     pagecolor="#ffffff"
     bordercolor="#666666"
     borderopacity="1"
     objecttolerance="10"
     gridtolerance="10"
     guidetolerance="10"
     inkscape:pageopacity="0"
     inkscape:pageshadow="2"
     inkscape:window-width="2084"
     inkscape:window-height="1049"
     id="namedview24"
     showgrid="false"
     inkscape:zoom="2.0085039"
     inkscape:cx="-70.038405"
     inkscape:cy="758.40459"
     inkscape:window-x="610"
     inkscape:window-y="6"
     inkscape:window-maximized="0"
     inkscape:current-layer="svg2" />
  <title
     id="title4">20 crossings ornamental knot (five-fold symmetry)</title>
  <path
     sodipodi:nodetypes="zzzzzzzzzzzzzzzzzzzzzzzzzzzzzzzzzzzzzzzzzzzzzzzzzzzzzzzzzzzzz"
     inkscape:connector-curvature="0"
       d="M  -206.372663050669 , -212.470878688496 C  -174.800089346576 , -232.292532445738 -136.633773170586 , -241.542310220623 -65.2108998907253 , -227.269962582742 6.21197338913589 , -212.99761494486 18.3561568906531 , -168.439784095068 20.5825862027499 , -159.341476125652 22.8090155148467 , -150.243168156236 24.0843108361214 , -137.658159845832 20.3156087010213 , -122.649066002861 16.5469065659213 , -107.63997215989 4.55947788404586 , -79.9705202582665 -33.488381577747 , -58.0035783559113 -71.5362410395398 , -36.0366364535561 -101.492403636075 , -39.4899446398097 -116.375011259423 , -43.7306997730019 -131.25761888277 , -47.9714549061941 -141.518908125781 , -55.3683972069476 -148.285059302701 , -61.8456955356615 -155.051210479621 , -68.3229938643755 -187.567332182313 , -101.119080709805 -164.21611116843 , -170.109277200383 -140.864890154548 , -239.09947369096 -113.771189534142 , -267.527584180793 -80.8188469833045 , -284.959408192773 -47.8665044324674 , -302.391232204753 -16.211525099653 , -304.440295471428 0 , -304.440295471428 16.211525099653 , -304.440295471428 47.8665044324674 , -302.391232204753 80.8188469833045 , -284.959408192773 113.771189534142 , -267.527584180793 140.864890154548 , -239.09947369096 164.21611116843 , -170.109277200383 187.567332182313 , -101.119080709806 155.051210479621 , -68.3229938643755 148.285059302701 , -61.8456955356615 141.518908125781 , -55.3683972069476 131.25761888277 , -47.9714549061941 116.375011259423 , -43.7306997730019 101.492403636075 , -39.4899446398097 71.5362410395398 , -36.0366364535562 33.488381577747 , -58.0035783559113 -4.5594778840459 , -79.9705202582665 -16.5469065659213 , -107.63997215989 -20.3156087010213 , -122.649066002861 -24.0843108361214 , -137.658159845832 -22.8090155148467 , -150.243168156236 -20.5825862027499 , -159.341476125652 -18.3561568906531 , -168.439784095068 -6.21197338913589 , -212.99761494486 65.2108998907253 , -227.269962582742 136.633773170586 , -241.542310220623 174.800089346576 , -232.292532445738 206.372663050669 , -212.470878688496 237.945236754761 , -192.649224931254 255.547267264071 , -166.259740306103 263.653029813897 , -152.220147735714 271.758792363724 , -138.180555165326 285.811741187229 , -109.742007273499 287.191510033973 , -72.4885295042776 288.571278880718 , -35.2350517350558 277.498663325135 , 2.44283652966298 229.427011059156 , 57.1606853823588 181.355358793177 , 111.878534235055 136.695053588968 , 100.116790230692 127.702473099951 , 97.4957805899904 118.709892610935 , 94.8747709492888 107.173308046649 , 89.686704939638 96.0594025584014 , 78.9183662298592 84.9454970701539 , 68.1500275200804 66.9767631554939 , 43.9338838047103 66.9767631554939 , 0 66.9767631554939 , -43.9338838047103 84.9454970701538 , -68.1500275200804 96.0594025584013 , -78.9183662298592 107.173308046649 , -89.686704939638 118.709892610935 , -94.8747709492889 127.702473099951 , -97.4957805899905 136.695053588968 , -100.116790230692 181.355358793177 , -111.878534235055 229.427011059156 , -57.1606853823589 277.498663325135 , -2.4428365296631 288.571278880718 , 35.2350517350557 287.191510033973 , 72.4885295042775 285.811741187229 , 109.742007273499 271.758792363724 , 138.180555165325 263.653029813897 , 152.220147735714 255.547267264071 , 166.259740306103 237.945236754762 , 192.649224931254 206.372663050669 , 212.470878688496 174.800089346576 , 232.292532445738 136.633773170586 , 241.542310220623 65.2108998907253 , 227.269962582742 -6.21197338913586 , 212.99761494486 -18.356156890653 , 168.439784095068 -20.5825862027498 , 159.341476125652 -22.8090155148467 , 150.243168156236 -24.0843108361214 , 137.658159845832 -20.3156087010213 , 122.649066002861 -16.5469065659213 , 107.63997215989 -4.55947788404589 , 79.9705202582665 33.488381577747 , 58.0035783559113 71.5362410395398 , 36.0366364535562 101.492403636075 , 39.4899446398096 116.375011259423 , 43.7306997730019 131.25761888277 , 47.9714549061941 141.518908125781 , 55.3683972069476 148.285059302701 , 61.8456955356615 155.051210479621 , 68.3229938643754 187.567332182313 , 101.119080709805 164.216111168431 , 170.109277200383 140.864890154548 , 239.09947369096 113.771189534142 , 267.527584180793 80.8188469833045 , 284.959408192773 47.8665044324674 , 302.391232204753 16.211525099653 , 304.440295471428 0 , 304.440295471428 -16.2115250996529 , 304.440295471428 -47.8665044324674 , 302.391232204753 -80.8188469833045 , 284.959408192773 -113.771189534142 , 267.527584180793 -140.864890154548 , 239.09947369096 -164.21611116843 , 170.109277200383 -187.567332182313 , 101.119080709806 -155.051210479621 , 68.3229938643755 -148.285059302701 , 61.8456955356616 -141.518908125781 , 55.3683972069477 -131.25761888277 , 47.9714549061942 -116.375011259423 , 43.7306997730019 -101.492403636075 , 39.4899446398097 -71.5362410395398 , 36.0366364535562 -33.4883815777469 , 58.0035783559113 4.55947788404593 , 79.9705202582665 16.5469065659213 , 107.63997215989 20.3156087010213 , 122.649066002861 24.0843108361214 , 137.658159845832 22.8090155148467 , 150.243168156236 20.5825862027499 , 159.341476125652 18.3561568906531 , 168.439784095068 6.21197338913592 , 212.99761494486 -65.2108998907253 , 227.269962582742 -136.633773170586 , 241.542310220623 -174.800089346576 , 232.292532445738 -206.372663050669 , 212.470878688496 -237.945236754761 , 192.649224931254 -255.547267264071 , 166.259740306103 -263.653029813897 , 152.220147735714 -271.758792363724 , 138.180555165326 -285.811741187229 , 109.742007273499 -287.191510033973 , 72.4885295042777 -288.571278880718 , 35.2350517350559 -277.498663325135 , -2.44283652966307 -229.427011059156 , -57.1606853823589 -181.355358793177 , -111.878534235055 -136.695053588968 , -100.116790230692 -127.702473099951 , -97.4957805899905 -118.709892610935 , -94.8747709492889 -107.173308046649 , -89.686704939638 -96.0594025584014 , -78.9183662298592 -84.9454970701538 , -68.1500275200804 -66.9767631554939 , -43.9338838047103 -66.9767631554939 , 0 -66.9767631554939 , 43.9338838047103 -84.9454970701538 , 68.1500275200804 -96.0594025584013 , 78.9183662298592 -107.173308046649 , 89.6867049396381 -118.709892610935 , 94.8747709492889 -127.702473099951 , 97.4957805899905 -136.695053588968 , 100.116790230692 -181.355358793177 , 111.878534235055 -229.427011059156 , 57.160685382359 -277.498663325135 , 2.44283652966321 -288.571278880718 , -35.2350517350558 -287.191510033973 , -72.4885295042776 -285.811741187229 , -109.742007273499 -271.758792363724 , -138.180555165326 -263.653029813897 , -152.220147735714 -255.547267264071 , -166.259740306103 -237.945236754761 , -192.649224931254 -206.372663050669 , -212.470878688496 Z "
     style="fill:none;fill-rule:evenodd;stroke:#000000;stroke-width:0.89626217;stroke-linecap:butt;stroke-linejoin:miter;stroke-miterlimit:4;stroke-dasharray:none;stroke-opacity:1"
     id="use4244" />
</svg>
