<?xml version="1.0" encoding="UTF-8" standalone="no"?>
<svg
   xmlns:dc="http://purl.org/dc/elements/1.1/"
   xmlns:cc="http://creativecommons.org/ns#"
   xmlns:rdf="http://www.w3.org/1999/02/22-rdf-syntax-ns#"
   xmlns:svg="http://www.w3.org/2000/svg"
   xmlns="http://www.w3.org/2000/svg"
   xmlns:sodipodi="http://sodipodi.sourceforge.net/DTD/sodipodi-0.dtd"
   xmlns:inkscape="http://www.inkscape.org/namespaces/inkscape"
   width="618"
   height="600"
   viewBox="0 0 618 600"
   id="svg2"
   version="1.1"
   inkscape:version="0.91 r13725"
   sodipodi:docname="hexknot.svg">
  <metadata
     id="metadata28">
    <rdf:RDF>
      <cc:Work
         rdf:about="">
        <dc:format>image/svg+xml</dc:format>
        <dc:type
           rdf:resource="http://purl.org/dc/dcmitype/StillImage" />
        <dc:title>20 crossings ornamental knot (five-fold symmetry)</dc:title>
      </cc:Work>
    </rdf:RDF>
  </metadata>
  <defs
     id="defs26" />
  <sodipodi:namedview
     pagecolor="#ffffff"
     bordercolor="#666666"
     borderopacity="1"
     objecttolerance="10"
     gridtolerance="10"
     guidetolerance="10"
     inkscape:pageopacity="0"
     inkscape:pageshadow="2"
     inkscape:window-width="2084"
     inkscape:window-height="1049"
     id="namedview24"
     showgrid="false"
     inkscape:zoom="0.52506775"
     inkscape:cx="122.58316"
     inkscape:cy="331.35761"
     inkscape:window-x="538"
     inkscape:window-y="146"
     inkscape:window-maximized="0"
     inkscape:current-layer="svg2" />
  <title
     id="title4">20 crossings ornamental knot (five-fold symmetry)</title>
  <path
     sodipodi:nodetypes="zzzzzzzzzzzzzzzzzzzzzzzzzzzzzzzzzzzzzzzzzzzzzzzzzzzzzzz"
     inkscape:connector-curvature="0"
       d="M  -242.373567716707 , -172.682426003549 C  -212.321076890188 , -197.732336508475 -175.705176622173 , -205.431231301121 -126.894448571859 , -200.772881123087 -78.0837205215446 , -196.114530945054 -47.9604740831841 , -173.589257452424 -36.1162940361278 , -141.381490670951 -24.2721139890715 , -109.173723889479 -33.0423791182097 , -71.5359068481641 -56.7375706161014 , -39.4243561936309 -80.432762113993 , -7.31280553909777 -105.693597934855 , 2.08097620859047 -122.698617829643 , 3.91625814292216 -139.703637724431 , 5.75154007725385 -152.731817879509 , 1.18472764251586 -160.755368158298 , -2.87581807837851 -168.778918437086 , -6.93636379927289 -215.112228373029 , -31.668376868415 -201.615474365298 , -119.85791618648 -188.118720357567 , -208.047455504545 -157.347970046673 , -249.379697622933 -123.123223490522 , -273.179341458741 -88.8984769343714 , -296.97898529455 -56.7185366687141 , -302.157411752078 -49.7806171329667 , -303.260361638224 -42.8426975972193 , -304.36331152437 -8.35952042520597 , -309.744145100611 28.3605838478463 , -296.24287985031 65.0806881208985 , -282.741614600009 90.0560767264006 , -254.880762181794 110.427191157657 , -210.280256623992 130.798305588914 , -165.679751066189 126.352469736284 , -128.329617659795 104.381815527893 , -101.968373461311 82.4111613195009 , -75.607129262827 45.4307230541624 , -64.3834931419281 5.77370868348007 , -68.8483555993727 -33.8833056872023 , -73.3132180568174 -54.648977228738 , -90.492852724668 -64.7408879543697 , -104.301990978248 -74.8327986800015 , -118.111129231828 -77.391913174739 , -131.677270428576 -77.8871525666103 , -140.656141658995 -78.3823919584816 , -149.635012889414 -80.1304953218475 , -202.12684286993 2.99226307950889 , -234.533080689638 86.1150214808653 , -266.939318509346 137.295168306205 , -260.957188105798 175.018637747112 , -243.217510067992 212.74210718802 , -225.477832030186 233.316726184697 , -200.198399496625 237.740868573075 , -194.741459872328 242.165010961452 , -189.284520248031 264.06653811802 , -162.111629601989 270.734151564553 , -123.560453846762 277.401765011086 , -85.0092780915343 265.761253348574 , -49.4495308806736 237.321639729516 , -9.50737550090435 208.882026110458 , 30.434779878865 174.312943819468 , 45.2596397926293 140.49810956402 , 39.4131172096405 106.683275308572 , 33.5665946266518 78.4731021723721 , 7.15241370623598 62.5112792995814 , -29.4239994057418 46.5494564267907 , -66.0004125177196 51.0446207061173 , -92.5738289332584 57.9577298752733 , -108.21824912117 64.8708390444293 , -123.862669309082 75.3399047047704 , -132.861998071091 82.8682155916872 , -137.780323580616 90.3965264786039 , -142.698649090141 134.981733051181 , -170.458466001515 204.607737444807 , -114.675164503158 274.233741838432 , -58.8918630048011 294.643138352878 , -11.5774904828655 298.141861237634 , 29.9618313907494 301.640584122391 , 71.5011532643643 290.035262853412 , 101.959012255454 287.521485706041 , 108.518901765896 285.007708558671 , 115.078791276339 272.426058543226 , 147.632515498622 242.373567716707 , 172.682426003548 212.321076890188 , 197.732336508475 175.705176622173 , 205.431231301121 126.894448571859 , 200.772881123087 78.0837205215446 , 196.114530945054 47.9604740831841 , 173.589257452424 36.1162940361278 , 141.381490670951 24.2721139890715 , 109.173723889479 33.0423791182097 , 71.5359068481641 56.7375706161014 , 39.4243561936309 80.432762113993 , 7.31280553909772 105.693597934855 , -2.08097620859043 122.698617829643 , -3.91625814292211 139.703637724431 , -5.75154007725379 152.731817879509 , -1.18472764251581 160.755368158298 , 2.87581807837857 168.778918437086 , 6.93636379927295 215.112228373029 , 31.668376868415 201.615474365298 , 119.85791618648 188.118720357567 , 208.047455504545 157.347970046673 , 249.379697622933 123.123223490522 , 273.179341458741 88.8984769343714 , 296.97898529455 56.7185366687141 , 302.157411752078 49.7806171329667 , 303.260361638224 42.8426975972193 , 304.36331152437 8.359520425206 , 309.744145100611 -28.3605838478462 , 296.24287985031 -65.0806881208984 , 282.741614600009 -90.0560767264005 , 254.880762181794 -110.427191157657 , 210.280256623992 -130.798305588914 , 165.679751066189 -126.352469736284 , 128.329617659795 -104.381815527893 , 101.968373461311 -82.4111613195009 , 75.607129262827 -45.4307230541624 , 64.3834931419281 -5.77370868348006 , 68.8483555993727 33.8833056872023 , 73.3132180568174 54.648977228738 , 90.492852724668 64.7408879543698 , 104.301990978248 74.8327986800015 , 118.111129231828 77.3919131747391 , 131.677270428576 77.8871525666104 , 140.656141658995 78.3823919584817 , 149.635012889414 80.1304953218476 , 202.12684286993 -2.99226307950886 , 234.533080689638 -86.1150214808653 , 266.939318509346 -137.295168306205 , 260.957188105798 -175.018637747112 , 243.217510067992 -212.74210718802 , 225.477832030186 -233.316726184697 , 200.198399496625 -237.740868573075 , 194.741459872328 -242.165010961452 , 189.284520248032 -264.066538118019 , 162.111629601989 -270.734151564553 , 123.560453846762 -277.401765011086 , 85.0092780915344 -265.761253348574 , 49.4495308806736 -237.321639729516 , 9.50737550090426 -208.882026110458 , -30.434779878865 -174.312943819468 , -45.2596397926294 -140.49810956402 , -39.4131172096406 -106.683275308572 , -33.5665946266518 -78.4731021723721 , -7.15241370623595 -62.5112792995814 , 29.4239994057419 -46.5494564267907 , 66.0004125177197 -51.0446207061173 , 92.5738289332584 -57.9577298752733 , 108.21824912117 -64.8708390444293 , 123.862669309082 -75.3399047047704 , 132.861998071091 -82.8682155916871 , 137.780323580616 -90.3965264786039 , 142.698649090141 -134.981733051181 , 170.458466001515 -204.607737444807 , 114.675164503158 -274.233741838432 , 58.8918630048012 -294.643138352878 , 11.5774904828654 -298.141861237634 , -29.9618313907495 -301.640584122391 , -71.5011532643644 -290.035262853412 , -101.959012255454 -287.521485706041 , -108.518901765896 -285.007708558671 , -115.078791276339 -272.426058543226 , -147.632515498622 -242.373567716707 , -172.682426003549 Z "
     style="fill:none;fill-rule:evenodd;stroke:#000000;stroke-width:0.89626217;stroke-linecap:butt;stroke-linejoin:miter;stroke-miterlimit:4;stroke-dasharray:none;stroke-opacity:1"
     id="use4244" />
</svg>
