<?xml version="1.0" encoding="UTF-8" standalone="no"?>
<svg
   xmlns:dc="http://purl.org/dc/elements/1.1/"
   xmlns:cc="http://creativecommons.org/ns#"
   xmlns:rdf="http://www.w3.org/1999/02/22-rdf-syntax-ns#"
   xmlns:svg="http://www.w3.org/2000/svg"
   xmlns="http://www.w3.org/2000/svg"
   xmlns:sodipodi="http://sodipodi.sourceforge.net/DTD/sodipodi-0.dtd"
   xmlns:inkscape="http://www.inkscape.org/namespaces/inkscape"
   width="618"
   height="600"
   viewBox="0 0 618 600"
   id="svg2"
   version="1.1"
   inkscape:version="0.92.2 5c3e80d, 2017-08-06"
   sodipodi:docname="hexknot3.svg">
  <metadata
     id="metadata28">
    <rdf:RDF>
      <cc:Work
         rdf:about="">
        <dc:format>image/svg+xml</dc:format>
        <dc:type
           rdf:resource="http://purl.org/dc/dcmitype/StillImage" />
        <dc:title>20 crossings ornamental knot (five-fold symmetry)</dc:title>
      </cc:Work>
    </rdf:RDF>
  </metadata>
  <defs
     id="defs26" />
  <sodipodi:namedview
     pagecolor="#ffffff"
     bordercolor="#666666"
     borderopacity="1"
     objecttolerance="10"
     gridtolerance="10"
     guidetolerance="10"
     inkscape:pageopacity="0"
     inkscape:pageshadow="2"
     inkscape:window-width="2560"
     inkscape:window-height="1315"
     id="namedview24"
     showgrid="false"
     inkscape:zoom="4"
     inkscape:cx="-88.491636"
     inkscape:cy="547.50362"
     inkscape:window-x="963"
     inkscape:window-y="913"
     inkscape:window-maximized="0"
     inkscape:current-layer="svg2" />
  <title
     id="title4">20 crossings ornamental knot (five-fold symmetry)</title>
  <path
     sodipodi:nodetypes="zzzzzzzzzzzzzzzzzzzzzzzzzzzzzzzzzzzzzzzzzzzzzzzzzzzzzzzzzzzzz"
     inkscape:connector-curvature="0"
     id="path838"
       d="M  278.186496521939 , 61.7332786045692 C  275.965703873399 , 43.162535329001 261.949099992146 , -11.7569538449865 212.540344385498 , -57.1986642235961 163.13158877885 , -102.640374602206 120.609237116176 , -98.3006418510734 90.908094050257 , -85.8581097178717 61.2069509843377 , -73.41557758467 46.5981194186571 , -46.934049911303 43.1384378533203 , -40.1350488174712 39.6787562879835 , -33.3360477236394 33.869154286366 , -18.440878699957 33.869154286366 , 0 33.869154286366 , 18.440878699957 39.6787562879835 , 33.3360477236394 43.1384378533203 , 40.1350488174712 46.5981194186571 , 46.934049911303 61.2069509843377 , 73.41557758467 90.9080940502571 , 85.8581097178717 120.609237116176 , 98.3006418510734 163.13158877885 , 102.640374602206 212.540344385498 , 57.198664223596 261.949099992146 , 11.7569538449864 275.965703873399 , -43.1625353290011 278.186496521939 , -61.7332786045693 280.407289170479 , -80.3040218801374 280.744744259246 , -111.387120372188 258.790596142789 , -149.412820346783 236.836448026333 , -187.438520321379 209.7489675595 , -202.687824887896 192.555835791429 , -210.049933675506 175.362704023358 , -217.412042463117 120.792729295194 , -232.733052014162 56.7346759125787 , -212.664669678733 -7.32337747003623 , -192.596287343304 -24.8262344932571 , -153.600984199206 -28.90125711146 , -121.657773716083 -32.9762797296628 , -89.7145632329604 -17.3470198163466 , -63.8221801407895 -13.1887529313985 , -57.4265074692872 -9.0304860464504 , -51.0308347977849 0.964307720912929 , -38.5519873666661 16.934577143183 , -29.3315480166876 32.9048465654531 , -20.1111086667091 48.7092423344339 , -17.6947870741455 56.3271907847188 , -17.291458651816 63.9451392350037 , -16.8881302294865 94.1832307140004 , -16.2989856482904 119.809351161717 , -35.7996639982117 145.435471609434 , -55.3003423481331 170.454966248886 , -89.9559127410978 155.805668472919 , -155.466005455137 141.156370696952 , -220.976098169175 100.602999850041 , -260.574577792118 85.6306607305102 , -271.783212280075 70.6583216109793 , -282.991846768033 43.9082962329132 , -298.825640693566 0 , -298.825640693566 -43.9082962329132 , -298.825640693566 -70.6583216109793 , -282.991846768033 -85.6306607305102 , -271.783212280075 -100.602999850041 , -260.574577792118 -141.156370696952 , -220.976098169175 -155.805668472919 , -155.466005455137 -170.454966248886 , -89.9559127410978 -145.435471609434 , -55.3003423481331 -119.809351161717 , -35.7996639982117 -94.1832307140004 , -16.2989856482904 -63.9451392350037 , -16.8881302294865 -56.3271907847188 , -17.291458651816 -48.7092423344339 , -17.6947870741455 -32.9048465654531 , -20.1111086667091 -16.934577143183 , -29.3315480166876 -0.964307720912949 , -38.5519873666661 9.0304860464504 , -51.0308347977849 13.1887529313985 , -57.4265074692872 17.3470198163466 , -63.8221801407895 32.9762797296628 , -89.7145632329604 28.90125711146 , -121.657773716083 24.8262344932571 , -153.600984199206 7.32337747003623 , -192.596287343304 -56.7346759125787 , -212.664669678733 -120.792729295194 , -232.733052014162 -175.362704023358 , -217.412042463117 -192.555835791429 , -210.049933675506 -209.7489675595 , -202.687824887896 -236.836448026333 , -187.438520321379 -258.790596142789 , -149.412820346783 -280.744744259246 , -111.387120372188 -280.407289170479 , -80.3040218801374 -278.186496521939 , -61.7332786045693 -275.965703873399 , -43.1625353290011 -261.949099992146 , 11.7569538449866 -212.540344385498 , 57.1986642235962 -163.13158877885 , 102.640374602206 -120.609237116176 , 98.3006418510735 -90.908094050257 , 85.8581097178717 -61.2069509843376 , 73.41557758467 -46.598119418657 , 46.934049911303 -43.1384378533202 , 40.1350488174712 -39.6787562879835 , 33.3360477236394 -33.869154286366 , 18.440878699957 -33.869154286366 , 0 -33.869154286366 , -18.440878699957 -39.6787562879835 , -33.3360477236394 -43.1384378533203 , -40.1350488174712 -46.5981194186571 , -46.934049911303 -61.2069509843376 , -73.41557758467 -90.908094050257 , -85.8581097178717 -120.609237116176 , -98.3006418510734 -163.13158877885 , -102.640374602206 -212.540344385498 , -57.1986642235961 -261.949099992146 , -11.7569538449864 -275.965703873399 , 43.1625353290012 -278.186496521939 , 61.7332786045694 -280.407289170479 , 80.3040218801376 -280.744744259246 , 111.387120372188 -258.790596142789 , 149.412820346783 -236.836448026333 , 187.438520321379 -209.7489675595 , 202.687824887896 -192.555835791429 , 210.049933675506 -175.362704023358 , 217.412042463117 -120.792729295194 , 232.733052014162 -56.7346759125787 , 212.664669678733 7.32337747003626 , 192.596287343304 24.8262344932571 , 153.600984199206 28.90125711146 , 121.657773716083 32.9762797296628 , 89.7145632329604 17.3470198163466 , 63.8221801407895 13.1887529313985 , 57.4265074692872 9.03048604645041 , 51.0308347977849 -0.964307720912917 , 38.5519873666661 -16.934577143183 , 29.3315480166876 -32.9048465654531 , 20.1111086667091 -48.7092423344339 , 17.6947870741455 -56.3271907847188 , 17.291458651816 -63.9451392350037 , 16.8881302294865 -94.1832307140004 , 16.2989856482904 -119.809351161717 , 35.7996639982118 -145.435471609434 , 55.3003423481332 -170.454966248886 , 89.9559127410979 -155.805668472919 , 155.466005455137 -141.156370696952 , 220.976098169175 -100.602999850041 , 260.574577792118 -85.6306607305102 , 271.783212280075 -70.6583216109792 , 282.991846768033 -43.9082962329132 , 298.825640693566 0 , 298.825640693566 43.9082962329133 , 298.825640693566 70.6583216109793 , 282.991846768033 85.6306607305103 , 271.783212280075 100.602999850041 , 260.574577792118 141.156370696952 , 220.976098169175 155.805668472919 , 155.466005455137 170.454966248886 , 89.9559127410977 145.435471609434 , 55.3003423481331 119.809351161717 , 35.7996639982117 94.1832307140004 , 16.2989856482903 63.9451392350037 , 16.8881302294865 56.3271907847188 , 17.291458651816 48.7092423344339 , 17.6947870741455 32.9048465654531 , 20.1111086667091 16.934577143183 , 29.3315480166876 0.964307720912934 , 38.5519873666661 -9.03048604645039 , 51.0308347977849 -13.1887529313985 , 57.4265074692872 -17.3470198163466 , 63.8221801407895 -32.9762797296628 , 89.7145632329604 -28.9012571114599 , 121.657773716083 -24.8262344932571 , 153.600984199206 -7.32337747003621 , 192.596287343304 56.7346759125787 , 212.664669678733 120.792729295194 , 232.733052014162 175.362704023358 , 217.412042463117 192.555835791429 , 210.049933675506 209.7489675595 , 202.687824887895 236.836448026333 , 187.438520321379 258.790596142789 , 149.412820346783 280.744744259246 , 111.387120372188 280.407289170479 , 80.3040218801374 278.186496521939 , 61.7332786045692 Z "
     style="fill:none;fill-rule:evenodd;stroke:#000000;stroke-width:1px;stroke-linecap:butt;stroke-linejoin:miter;stroke-opacity:1" />
</svg>
