<?xml version="1.0" encoding="UTF-8" standalone="no"?>
<svg
   xmlns:dc="http://purl.org/dc/elements/1.1/"
   xmlns:cc="http://creativecommons.org/ns#"
   xmlns:rdf="http://www.w3.org/1999/02/22-rdf-syntax-ns#"
   xmlns:svg="http://www.w3.org/2000/svg"
   xmlns="http://www.w3.org/2000/svg"
   xmlns:sodipodi="http://sodipodi.sourceforge.net/DTD/sodipodi-0.dtd"
   xmlns:inkscape="http://www.inkscape.org/namespaces/inkscape"
   width="618"
   height="600"
   viewBox="0 0 618 600"
   id="svg2"
   version="1.1"
   inkscape:version="0.91 r13725"
   sodipodi:docname="hexknot2.svg">
  <metadata
     id="metadata28">
    <rdf:RDF>
      <cc:Work
         rdf:about="">
        <dc:format>image/svg+xml</dc:format>
        <dc:type
           rdf:resource="http://purl.org/dc/dcmitype/StillImage" />
        <dc:title>20 crossings ornamental knot (five-fold symmetry)</dc:title>
      </cc:Work>
    </rdf:RDF>
  </metadata>
  <defs
     id="defs26" />
  <sodipodi:namedview
     pagecolor="#ffffff"
     bordercolor="#666666"
     borderopacity="1"
     objecttolerance="10"
     gridtolerance="10"
     guidetolerance="10"
     inkscape:pageopacity="0"
     inkscape:pageshadow="2"
     inkscape:window-width="1301"
     inkscape:window-height="744"
     id="namedview24"
     showgrid="false"
     inkscape:zoom="0.52506775"
     inkscape:cx="-159.28523"
     inkscape:cy="331.35761"
     inkscape:window-x="65"
     inkscape:window-y="24"
     inkscape:window-maximized="1"
     inkscape:current-layer="svg2" />
  <title
     id="title4">20 crossings ornamental knot (five-fold symmetry)</title>
  <path
     sodipodi:nodetypes="zzzzzzzzzzzzzzzzzzzzzzzzzzzzzzzzzzzzzzzzzzzzzzzzzzzzzzzzzzzzz"
     inkscape:connector-curvature="0"
       d="M  -221.063817558197 , -190.274607759501 C  -181.319205100616 , -212.949950341417 -137.675898606693 , -206.904229240248 -106.390180100127 , -193.780910995228 -75.1044615935601 , -180.657592750207 -51.553241602868 , -158.80907834447 -40.8132509529102 , -126.273991020785 -30.0732603029524 , -93.7389036970986 -35.1433324116216 , -59.8338073467125 -52.4575833744918 , -28.7294729864991 -69.771834337362 , 2.37486137371425 -92.4776691158265 , 13.5536704604851 -106.545937329073 , 16.6708221578376 -120.61420554232 , 19.7879738551902 -138.698023706977 , 18.5696840886185 -155.336710548206 , 4.84430427973475 -171.975397389435 , -8.88107552914904 -184.927181187077 , -37.1618430598039 -178.270060244933 , -76.7272667155195 -171.612939302788 , -116.292690371235 -178.947897577933 , -72.7518950637988 -170.072278200661 , -125.3719828547 -161.196658823388 , -177.992070645602 -148.342301497601 , -230.842219290119 -113.846214136461 , -263.540896672924 -79.3501267753204 , -296.239574055729 -45.0094755941478 , -302.014388797497 -33.9890116614635 , -303.614836603608 -22.9685477287792 , -305.215284409719 14.7410062915056 , -309.666358503592 54.2507352357495 , -286.584185742718 93.7604641799935 , -263.502012981843 110.346369369147 , -222.682940302371 114.624101640295 , -189.027054177525 118.901833911443 , -155.37116805268 111.756075396471 , -124.050956047756 88.9498585847924 , -98.4823076466419 66.1436417731142 , -72.9136592455282 34.2459309615862 , -60.3519223154616 -1.34833824359885 , -59.7943363166997 -36.9426074487839 , -59.2367503179377 -57.9766574912161 , -73.3111755068349 -67.7103241551965 , -83.9360773180834 -77.443990819177 , -94.5609791293319 -85.4308300144838 , -110.831169940629 -81.8636458440149 , -132.103385335189 -78.2964616735461 , -153.375600729749 -60.2804904522981 , -178.732558288159 -22.6872679838823 , -192.750034264054 14.9059544845335 , -206.767510239949 -26.4689594902572 , -191.349372788206 23.5391829746672 , -209.972904828617 73.5473254395916 , -228.596436869028 125.744075422421 , -243.889311197833 171.310004386652 , -230.36416190332 216.875933350883 , -216.839012608808 239.047395209989 , -189.986543674296 245.943655633854 , -181.242765850157 252.83991605772 , -172.498988026018 275.549436307283 , -142.067093326006 275.314552793946 , -96.3095779832161 275.07966928061 , -50.5520626404264 248.02226797584 , -15.7787110621232 221.014281740422 , 4.75385681770237 194.006295505003 , 25.2864246975279 163.309316999339 , 34.7581222967147 129.763109537703 , 27.7916833741426 96.2169020760666 , 20.8252444515704 69.3892633732078 , -0.518114968749067 51.1092451308929 , -31.0648633302005 32.829226888578 , -61.611611691652 34.5010116246105 , -86.8648459673199 38.8356131738767 , -100.606899475921 43.170214723143 , -114.348952984522 53.2671936924931 , -129.400854029248 73.4730647041909 , -136.947689614924 93.6789357158888 , -144.4945252006 124.646690734779 , -141.570715228355 155.582792261051 , -116.022767548534 186.518893787322 , -90.474819868714 152.478938087676 , -118.597477724407 193.611461175328 , -84.6009219739166 234.74398426298 , -50.6043662234264 274.086376920022 , -13.0470919077133 285.156218523112 , 33.1767347696039 296.226060126203 , 79.4005614469212 284.056870804137 , 112.027845123201 279.932667295318 , 122.372070753451 275.808463786499 , 132.716296383701 260.808430015777 , 167.599265177586 221.063817558197 , 190.274607759501 181.319205100616 , 212.949950341417 137.675898606693 , 206.904229240248 106.390180100127 , 193.780910995228 75.1044615935601 , 180.657592750207 51.553241602868 , 158.80907834447 40.8132509529102 , 126.273991020785 30.0732603029524 , 93.7389036970986 35.1433324116216 , 59.8338073467125 52.4575833744918 , 28.7294729864991 69.771834337362 , -2.37486137371426 92.4776691158265 , -13.5536704604851 106.545937329073 , -16.6708221578376 120.61420554232 , -19.7879738551902 138.698023706977 , -18.5696840886186 155.336710548206 , -4.84430427973477 171.975397389435 , 8.88107552914902 184.927181187077 , 37.1618430598039 178.270060244933 , 76.7272667155195 171.612939302788 , 116.292690371235 178.947897577933 , 72.7518950637988 170.072278200661 , 125.3719828547 161.196658823388 , 177.992070645602 148.342301497601 , 230.842219290119 113.846214136461 , 263.540896672924 79.3501267753204 , 296.239574055729 45.0094755941478 , 302.014388797497 33.9890116614635 , 303.614836603608 22.9685477287792 , 305.215284409719 -14.7410062915055 , 309.666358503592 -54.2507352357495 , 286.584185742718 -93.7604641799934 , 263.502012981843 -110.346369369147 , 222.682940302371 -114.624101640295 , 189.027054177525 -118.901833911443 , 155.37116805268 -111.756075396471 , 124.050956047756 -88.9498585847924 , 98.482307646642 -66.1436417731142 , 72.9136592455282 -34.2459309615862 , 60.3519223154616 1.34833824359887 , 59.7943363166997 36.942607448784 , 59.2367503179377 57.9766574912161 , 73.3111755068348 67.7103241551966 , 83.9360773180833 77.443990819177 , 94.5609791293318 85.4308300144838 , 110.831169940629 81.863645844015 , 132.103385335189 78.2964616735461 , 153.375600729749 60.2804904522982 , 178.732558288159 22.6872679838824 , 192.750034264054 -14.9059544845334 , 206.767510239949 26.4689594902573 , 191.349372788206 -23.5391829746671 , 209.972904828617 -73.5473254395915 , 228.596436869028 -125.744075422421 , 243.889311197833 -171.310004386652 , 230.36416190332 -216.875933350882 , 216.839012608808 -239.047395209989 , 189.986543674296 -245.943655633854 , 181.242765850157 -252.83991605772 , 172.498988026018 -275.549436307283 , 142.067093326006 -275.314552793946 , 96.3095779832162 -275.07966928061 , 50.5520626404264 -248.02226797584 , 15.7787110621231 -221.014281740422 , -4.75385681770246 -194.006295505003 , -25.286424697528 -163.309316999339 , -34.7581222967148 -129.763109537703 , -27.7916833741426 -96.2169020760666 , -20.8252444515704 -69.3892633732078 , 0.518114968749053 -51.1092451308929 , 31.0648633302005 -32.829226888578 , 61.611611691652 -34.5010116246105 , 86.8648459673199 -38.8356131738768 , 100.606899475921 -43.170214723143 , 114.348952984522 -53.2671936924931 , 129.400854029248 -73.473064704191 , 136.947689614924 -93.6789357158888 , 144.4945252006 -124.646690734779 , 141.570715228355 -155.582792261051 , 116.022767548534 -186.518893787322 , 90.474819868714 -152.478938087676 , 118.597477724407 -193.611461175328 , 84.6009219739165 -234.74398426298 , 50.6043662234263 -274.086376920022 , 13.0470919077132 -285.156218523112 , -33.176734769604 -296.226060126203 , -79.4005614469213 -284.056870804137 , -112.027845123201 -279.932667295318 , -122.372070753451 -275.808463786499 , -132.716296383702 -260.808430015777 , -167.599265177586 -221.063817558197 , -190.274607759501 Z "
     style="fill:none;fill-rule:evenodd;stroke:#000000;stroke-width:0.89626217;stroke-linecap:butt;stroke-linejoin:miter;stroke-miterlimit:4;stroke-dasharray:none;stroke-opacity:1"
     id="use4244" />
</svg>
