<?xml version="1.0" encoding="UTF-8" standalone="no"?>
<svg
   xmlns:dc="http://purl.org/dc/elements/1.1/"
   xmlns:cc="http://creativecommons.org/ns#"
   xmlns:rdf="http://www.w3.org/1999/02/22-rdf-syntax-ns#"
   xmlns:svg="http://www.w3.org/2000/svg"
   xmlns="http://www.w3.org/2000/svg"
   xmlns:sodipodi="http://sodipodi.sourceforge.net/DTD/sodipodi-0.dtd"
   xmlns:inkscape="http://www.inkscape.org/namespaces/inkscape"
   width="618"
   height="600"
   viewBox="0 0 618 600"
   id="svg2"
   version="1.1"
   inkscape:version="0.92.2 5c3e80d, 2017-08-06"
   sodipodi:docname="hexknot.svg">
  <metadata
     id="metadata28">
    <rdf:RDF>
      <cc:Work
         rdf:about="">
        <dc:format>image/svg+xml</dc:format>
        <dc:type
           rdf:resource="http://purl.org/dc/dcmitype/StillImage" />
        <dc:title>20 crossings ornamental knot (five-fold symmetry)</dc:title>
      </cc:Work>
    </rdf:RDF>
  </metadata>
  <defs
     id="defs26" />
  <sodipodi:namedview
     pagecolor="#ffffff"
     bordercolor="#666666"
     borderopacity="1"
     objecttolerance="10"
     gridtolerance="10"
     guidetolerance="10"
     inkscape:pageopacity="0"
     inkscape:pageshadow="2"
     inkscape:window-width="2084"
     inkscape:window-height="1049"
     id="namedview24"
     showgrid="false"
     inkscape:zoom="2.0085039"
     inkscape:cx="-70.038405"
     inkscape:cy="758.40459"
     inkscape:window-x="610"
     inkscape:window-y="6"
     inkscape:window-maximized="0"
     inkscape:current-layer="svg2" />
  <title
     id="title4">20 crossings ornamental knot (five-fold symmetry)</title>
  <path
     sodipodi:nodetypes="zzzzzzzzzzzzzzzzzzzzzzzzzzzzzzzzzzzzzzzzzzzzzzzzzzzzzzzzzzzzz"
     inkscape:connector-curvature="0"
       d="M  -209.992750263365 , -209.504145675139 C  -181.200833190162 , -227.337356349271 -125.712615266506 , -240.611958061823 -58.8709486840235 , -225.773822878781 7.97071789845927 , -210.935687695739 18.906805858132 , -162.556122506083 20.1154850209694 , -157.1402184471 21.3241641838069 , -151.724314388117 23.7488640629721 , -138.345588380147 19.3068314303365 , -121.584082856034 14.8647987977009 , -104.822577331921 1.32516156813759 , -79.0626139090054 -33.9038256753654 , -58.7231486406911 -69.1328129188684 , -38.3836833723767 -98.2114142584526 , -39.537995285007 -114.948320164326 , -44.0718349427616 -131.685226070198 , -48.6056746005163 -142.05919272379 , -57.3948892964116 -146.14516364191 , -61.1495881859452 -150.231134560029 , -64.9042870754789 -186.661023058481 , -98.5649996614046 -166.090391780541 , -163.870648544645 -145.519760502601 , -229.176297427885 -106.279509232584 , -270.593202904222 -76.4395372211437 , -286.611129176205 -46.5995652097035 , -302.629055448188 -25.9893978347444 , -305.603913845406 0 , -305.603913845406 25.9893978347444 , -305.603913845406 46.5995652097035 , -302.629055448188 76.4395372211437 , -286.611129176205 106.279509232584 , -270.593202904222 145.519760502601 , -229.176297427885 166.090391780541 , -163.870648544645 186.661023058481 , -98.5649996614047 150.231134560029 , -64.9042870754789 146.14516364191 , -61.1495881859453 142.05919272379 , -57.3948892964116 131.685226070198 , -48.6056746005163 114.948320164326 , -44.0718349427616 98.2114142584526 , -39.537995285007 69.1328129188684 , -38.3836833723767 33.9038256753654 , -58.7231486406911 -1.32516156813762 , -79.0626139090054 -14.8647987977009 , -104.822577331921 -19.3068314303365 , -121.584082856034 -23.7488640629721 , -138.345588380147 -21.3241641838069 , -151.724314388117 -20.1154850209694 , -157.1402184471 -18.906805858132 , -162.556122506083 -7.97071789845927 , -210.935687695739 58.8709486840235 , -225.773822878781 125.712615266506 , -240.611958061823 181.200833190161 , -227.337356349271 209.992750263365 , -209.504145675139 238.784667336569 , -191.670935001007 251.6660539687 , -175.309435676652 264.660752886072 , -152.801956922703 277.655451803445 , -130.294478168754 285.384232546272 , -110.958120447181 286.432287484509 , -77.1069835010661 287.480342422745 , -43.2558465549507 271.232375769108 , 11.4356606339374 224.961340464565 , 61.9031743341361 178.690305160021 , 112.370688034335 131.324328701897 , 97.6518354306044 126.02967862094 , 95.990630261155 120.735028539983 , 94.3294250917056 107.936362007226 , 89.7399137796305 95.6414887339891 , 77.5122479132721 83.3466154607517 , 65.2845820469137 67.8076513507308 , 40.6789305366287 67.8076513507308 , 0 67.8076513507308 , -40.6789305366287 83.3466154607517 , -65.2845820469137 95.641488733989 , -77.5122479132721 107.936362007226 , -89.7399137796306 120.735028539983 , -94.3294250917056 126.02967862094 , -95.990630261155 131.324328701897 , -97.6518354306045 178.690305160021 , -112.370688034335 224.961340464565 , -61.9031743341362 271.232375769108 , -11.4356606339375 287.480342422745 , 43.2558465549505 286.432287484509 , 77.106983501066 285.384232546272 , 110.958120447181 277.655451803445 , 130.294478168754 264.660752886072 , 152.801956922703 251.6660539687 , 175.309435676652 238.784667336569 , 191.670935001007 209.992750263365 , 209.504145675139 181.200833190162 , 227.337356349271 125.712615266506 , 240.611958061823 58.8709486840236 , 225.773822878781 -7.97071789845924 , 210.935687695739 -18.906805858132 , 162.556122506083 -20.1154850209694 , 157.1402184471 -21.3241641838068 , 151.724314388117 -23.7488640629721 , 138.345588380147 -19.3068314303365 , 121.584082856034 -14.8647987977009 , 104.822577331921 -1.32516156813762 , 79.0626139090054 33.9038256753654 , 58.7231486406911 69.1328129188684 , 38.3836833723767 98.2114142584526 , 39.5379952850069 114.948320164326 , 44.0718349427616 131.685226070198 , 48.6056746005163 142.05919272379 , 57.3948892964116 146.14516364191 , 61.1495881859452 150.23113456003 , 64.9042870754788 186.661023058481 , 98.5649996614046 166.090391780541 , 163.870648544645 145.519760502601 , 229.176297427885 106.279509232584 , 270.593202904222 76.4395372211437 , 286.611129176205 46.5995652097035 , 302.629055448188 25.9893978347445 , 305.603913845406 0 , 305.603913845406 -25.9893978347444 , 305.603913845406 -46.5995652097035 , 302.629055448188 -76.4395372211437 , 286.611129176205 -106.279509232584 , 270.593202904222 -145.519760502601 , 229.176297427885 -166.090391780541 , 163.870648544645 -186.661023058481 , 98.5649996614048 -150.231134560029 , 64.9042870754789 -146.14516364191 , 61.1495881859453 -142.05919272379 , 57.3948892964117 -131.685226070198 , 48.6056746005164 -114.948320164325 , 44.0718349427617 -98.2114142584525 , 39.537995285007 -69.1328129188684 , 38.3836833723767 -33.9038256753654 , 58.7231486406911 1.32516156813764 , 79.0626139090054 14.8647987977009 , 104.822577331921 19.3068314303365 , 121.584082856034 23.7488640629721 , 138.345588380147 21.3241641838069 , 151.724314388117 20.1154850209695 , 157.1402184471 18.9068058581321 , 162.556122506083 7.9707178984593 , 210.935687695739 -58.8709486840235 , 225.773822878781 -125.712615266506 , 240.611958061823 -181.200833190161 , 227.337356349272 -209.992750263365 , 209.504145675139 -238.784667336569 , 191.670935001007 -251.6660539687 , 175.309435676652 -264.660752886072 , 152.801956922703 -277.655451803445 , 130.294478168754 -285.384232546272 , 110.958120447182 -286.432287484509 , 77.1069835010662 -287.480342422745 , 43.2558465549508 -271.232375769108 , -11.4356606339375 -224.961340464565 , -61.9031743341361 -178.690305160021 , -112.370688034335 -131.324328701897 , -97.6518354306045 -126.02967862094 , -95.990630261155 -120.735028539983 , -94.3294250917056 -107.936362007226 , -89.7399137796306 -95.641488733989 , -77.5122479132721 -83.3466154607517 , -65.2845820469137 -67.8076513507308 , -40.6789305366287 -67.8076513507308 , 0 -67.8076513507308 , 40.6789305366287 -83.3466154607516 , 65.2845820469137 -95.641488733989 , 77.5122479132722 -107.936362007226 , 89.7399137796306 -120.735028539983 , 94.3294250917057 -126.02967862094 , 95.9906302611551 -131.324328701897 , 97.6518354306045 -178.690305160021 , 112.370688034335 -224.961340464565 , 61.9031743341362 -271.232375769108 , 11.4356606339377 -287.480342422745 , -43.2558465549506 -286.432287484509 , -77.1069835010661 -285.384232546272 , -110.958120447181 -277.655451803445 , -130.294478168754 -264.660752886072 , -152.801956922703 -251.6660539687 , -175.309435676652 -238.784667336569 , -191.670935001007 -209.992750263365 , -209.504145675139 Z "
     style="fill:none;fill-rule:evenodd;stroke:#000000;stroke-width:0.89626217;stroke-linecap:butt;stroke-linejoin:miter;stroke-miterlimit:4;stroke-dasharray:none;stroke-opacity:1"
     id="use4244" />
</svg>
