<?xml version="1.0" encoding="UTF-8" standalone="no"?>
<svg
   xmlns:dc="http://purl.org/dc/elements/1.1/"
   xmlns:cc="http://creativecommons.org/ns#"
   xmlns:rdf="http://www.w3.org/1999/02/22-rdf-syntax-ns#"
   xmlns:svg="http://www.w3.org/2000/svg"
   xmlns="http://www.w3.org/2000/svg"
   xmlns:sodipodi="http://sodipodi.sourceforge.net/DTD/sodipodi-0.dtd"
   xmlns:inkscape="http://www.inkscape.org/namespaces/inkscape"
   width="618"
   height="600"
   viewBox="0 0 618 600"
   id="svg2"
   version="1.1"
   inkscape:version="0.92.2 5c3e80d, 2017-08-06"
   sodipodi:docname="hexknot3.svg">
  <metadata
     id="metadata28">
    <rdf:RDF>
      <cc:Work
         rdf:about="">
        <dc:format>image/svg+xml</dc:format>
        <dc:type
           rdf:resource="http://purl.org/dc/dcmitype/StillImage" />
        <dc:title>20 crossings ornamental knot (five-fold symmetry)</dc:title>
      </cc:Work>
    </rdf:RDF>
  </metadata>
  <defs
     id="defs26" />
  <sodipodi:namedview
     pagecolor="#ffffff"
     bordercolor="#666666"
     borderopacity="1"
     objecttolerance="10"
     gridtolerance="10"
     guidetolerance="10"
     inkscape:pageopacity="0"
     inkscape:pageshadow="2"
     inkscape:window-width="2560"
     inkscape:window-height="1315"
     id="namedview24"
     showgrid="false"
     inkscape:zoom="4"
     inkscape:cx="-88.491636"
     inkscape:cy="547.50362"
     inkscape:window-x="963"
     inkscape:window-y="913"
     inkscape:window-maximized="0"
     inkscape:current-layer="svg2" />
  <title
     id="title4">20 crossings ornamental knot (five-fold symmetry)</title>
  <path
     sodipodi:nodetypes="zzzzzzzzzzzzzzzzzzzzzzzzzzzzzzzzzzzzzzzzzzzzzzzzzzzzzzzzzzzzz"
     inkscape:connector-curvature="0"
     id="path838"
       d="M  272.478822148492 , 64.0051288202144 C  271.235272373466 , 37.9509928832965 260.654734618781 , -1.63512698744538 214.856217506789 , -47.3363713029557 169.057700394797 , -93.0376156184659 124.437791280633 , -97.6559762978132 92.0492940124915 , -86.0478673423072 59.6607967443499 , -74.4397583868011 45.6648786762758 , -42.9823005793763 44.9054789754976 , -41.2755275892793 44.1460792747195 , -39.5687545991822 36.7275828711288 , -22.4967012074845 36.7275828711288 , 0 36.7275828711288 , 22.4967012074845 44.1460792747195 , 39.5687545991821 44.9054789754977 , 41.2755275892792 45.6648786762758 , 42.9823005793763 59.6607967443499 , 74.4397583868011 92.0492940124915 , 86.0478673423071 124.437791280633 , 97.6559762978132 169.057700394797 , 93.0376156184658 214.856217506789 , 47.3363713029556 260.654734618781 , 1.63512698744529 271.235272373465 , -37.9509928832967 272.478822148491 , -64.0051288202145 273.722371923517 , -90.0592647571324 269.139289143615 , -117.265077413968 252.631734866333 , -145.85700013092 236.124180589052 , -174.448922847872 214.854797087584 , -192.020895291332 191.669478605047 , -203.971017563748 168.48416012251 , -215.921139836164 128.911305799849 , -226.551185290278 66.4336086820622 , -209.739128173392 3.95591156427517 , -192.927071056506 -22.3536606649607 , -156.594276588761 -28.4949920536656 , -122.740960686394 -34.6363234423705 , -88.8876447840275 -14.3913248767006 , -61.0380952840773 -13.2929159591725 , -59.5270493565286 -12.1945070416443 , -58.0160034289799 -1.11892331146522 , -43.055370389738 18.3637914355644 , -31.8070197859958 37.846506182594 , -20.5586691822535 56.3405863163638 , -18.4472488297977 58.1983949346701 , -18.2515217672494 60.0562035529764 , -18.055794704701 94.2971201867204 , -14.4478863972264 120.544286066157 , -36.6930933440869 146.791451945594 , -58.9383002909473 165.101788830522 , -99.8894554380398 148.422608824727 , -162.402756870436 131.743428818932 , -224.916058302833 102.751112250955 , -253.872132719461 80.8093435434445 , -267.976146383963 58.8675748359336 , -282.080160048465 33.0151085545626 , -291.714000261839 0 , -291.714000261839 -33.0151085545626 , -291.714000261839 -58.8675748359336 , -282.080160048465 -80.8093435434445 , -267.976146383963 -102.751112250955 , -253.872132719461 -131.743428818932 , -224.916058302833 -148.422608824727 , -162.402756870436 -165.101788830522 , -99.8894554380398 -146.791451945594 , -58.9383002909473 -120.544286066157 , -36.6930933440869 -94.2971201867204 , -14.4478863972264 -60.0562035529764 , -18.055794704701 -58.1983949346701 , -18.2515217672493 -56.3405863163638 , -18.4472488297977 -37.846506182594 , -20.5586691822535 -18.3637914355644 , -31.8070197859957 1.1189233114652 , -43.055370389738 12.1945070416443 , -58.0160034289799 13.2929159591725 , -59.5270493565286 14.3913248767006 , -61.0380952840773 34.6363234423705 , -88.8876447840275 28.4949920536656 , -122.740960686394 22.3536606649607 , -156.594276588761 -3.95591156427518 , -192.927071056506 -66.4336086820622 , -209.739128173392 -128.911305799849 , -226.551185290278 -168.48416012251 , -215.921139836164 -191.669478605047 , -203.971017563748 -214.854797087584 , -192.020895291332 -236.124180589052 , -174.448922847872 -252.631734866333 , -145.85700013092 -269.139289143615 , -117.265077413968 -273.722371923517 , -90.0592647571323 -272.478822148491 , -64.0051288202145 -271.235272373465 , -37.9509928832966 -260.654734618781 , 1.63512698744549 -214.856217506789 , 47.3363713029557 -169.057700394797 , 93.037615618466 -124.437791280633 , 97.6559762978133 -92.0492940124914 , 86.0478673423072 -59.6607967443499 , 74.4397583868011 -45.6648786762758 , 42.9823005793764 -44.9054789754976 , 41.2755275892793 -44.1460792747195 , 39.5687545991822 -36.7275828711288 , 22.4967012074845 -36.7275828711288 , 0 -36.7275828711288 , -22.4967012074845 -44.1460792747195 , -39.5687545991822 -44.9054789754976 , -41.2755275892792 -45.6648786762758 , -42.9823005793763 -59.6607967443499 , -74.4397583868011 -92.0492940124915 , -86.0478673423071 -124.437791280633 , -97.6559762978132 -169.057700394797 , -93.0376156184659 -214.856217506789 , -47.3363713029556 -260.654734618781 , -1.63512698744536 -271.235272373465 , 37.9509928832968 -272.478822148491 , 64.0051288202146 -273.722371923517 , 90.0592647571325 -269.139289143615 , 117.265077413968 -252.631734866333 , 145.85700013092 -236.124180589052 , 174.448922847872 -214.854797087584 , 192.020895291332 -191.669478605047 , 203.971017563748 -168.48416012251 , 215.921139836164 -128.911305799849 , 226.551185290278 -66.4336086820621 , 209.739128173392 -3.95591156427514 , 192.927071056506 22.3536606649608 , 156.594276588761 28.4949920536656 , 122.740960686394 34.6363234423705 , 88.8876447840275 14.3913248767006 , 61.0380952840773 13.2929159591725 , 59.5270493565286 12.1945070416444 , 58.0160034289799 1.11892331146523 , 43.055370389738 -18.3637914355644 , 31.8070197859958 -37.846506182594 , 20.5586691822535 -56.3405863163638 , 18.4472488297977 -58.1983949346701 , 18.2515217672494 -60.0562035529764 , 18.055794704701 -94.2971201867204 , 14.4478863972265 -120.544286066157 , 36.6930933440869 -146.791451945594 , 58.9383002909474 -165.101788830522 , 99.8894554380399 -148.422608824727 , 162.402756870436 -131.743428818931 , 224.916058302833 -102.751112250955 , 253.872132719461 -80.8093435434445 , 267.976146383963 -58.8675748359335 , 282.080160048465 -33.0151085545626 , 291.714000261839 0 , 291.714000261839 33.0151085545627 , 291.714000261839 58.8675748359336 , 282.080160048465 80.8093435434445 , 267.976146383963 102.751112250955 , 253.872132719461 131.743428818932 , 224.916058302833 148.422608824727 , 162.402756870436 165.101788830522 , 99.8894554380397 146.791451945594 , 58.9383002909473 120.544286066157 , 36.6930933440868 94.2971201867204 , 14.4478863972264 60.0562035529764 , 18.055794704701 58.1983949346701 , 18.2515217672493 56.3405863163639 , 18.4472488297977 37.846506182594 , 20.5586691822535 18.3637914355644 , 31.8070197859958 -1.11892331146522 , 43.055370389738 -12.1945070416443 , 58.0160034289799 -13.2929159591725 , 59.5270493565286 -14.3913248767006 , 61.0380952840773 -34.6363234423705 , 88.8876447840275 -28.4949920536656 , 122.740960686394 -22.3536606649607 , 156.594276588761 3.9559115642752 , 192.927071056506 66.4336086820622 , 209.739128173392 128.911305799849 , 226.551185290278 168.48416012251 , 215.921139836164 191.669478605047 , 203.971017563748 214.854797087584 , 192.020895291332 236.124180589052 , 174.448922847872 252.631734866333 , 145.85700013092 269.139289143615 , 117.265077413968 273.722371923518 , 90.0592647571322 272.478822148492 , 64.0051288202144 Z "
     style="fill:none;fill-rule:evenodd;stroke:#000000;stroke-width:1px;stroke-linecap:butt;stroke-linejoin:miter;stroke-opacity:1" />
</svg>
