<?xml version="1.0" encoding="UTF-8" standalone="no"?>
<svg
   xmlns:dc="http://purl.org/dc/elements/1.1/"
   xmlns:cc="http://creativecommons.org/ns#"
   xmlns:rdf="http://www.w3.org/1999/02/22-rdf-syntax-ns#"
   xmlns:svg="http://www.w3.org/2000/svg"
   xmlns="http://www.w3.org/2000/svg"
   xmlns:sodipodi="http://sodipodi.sourceforge.net/DTD/sodipodi-0.dtd"
   xmlns:inkscape="http://www.inkscape.org/namespaces/inkscape"
   width="618"
   height="600"
   viewBox="0 0 618 600"
   id="svg2"
   version="1.1"
   inkscape:version="0.92.2 5c3e80d, 2017-08-06"
   sodipodi:docname="hexknot.svg">
  <metadata
     id="metadata28">
    <rdf:RDF>
      <cc:Work
         rdf:about="">
        <dc:format>image/svg+xml</dc:format>
        <dc:type
           rdf:resource="http://purl.org/dc/dcmitype/StillImage" />
        <dc:title>20 crossings ornamental knot (five-fold symmetry)</dc:title>
      </cc:Work>
    </rdf:RDF>
  </metadata>
  <defs
     id="defs26" />
  <sodipodi:namedview
     pagecolor="#ffffff"
     bordercolor="#666666"
     borderopacity="1"
     objecttolerance="10"
     gridtolerance="10"
     guidetolerance="10"
     inkscape:pageopacity="0"
     inkscape:pageshadow="2"
     inkscape:window-width="2084"
     inkscape:window-height="1049"
     id="namedview24"
     showgrid="false"
     inkscape:zoom="2.0085039"
     inkscape:cx="-70.038405"
     inkscape:cy="758.40459"
     inkscape:window-x="610"
     inkscape:window-y="6"
     inkscape:window-maximized="0"
     inkscape:current-layer="svg2" />
  <title
     id="title4">20 crossings ornamental knot (five-fold symmetry)</title>
  <path
     sodipodi:nodetypes="zzzzzzzzzzzzzzzzzzzzzzzzzzzzzzzzzzzzzzzzzzzzzzzzzzzzzzzzzzzzz"
     inkscape:connector-curvature="0"
       d="M  -211.480548638048 , -207.478807863382 C  -192.648383529418 , -217.396350591408 -112.071161034942 , -248.508017403433 -50.7717326865205 , -230.17138443373 10.5276956619013 , -211.834751464026 19.5992525335509 , -173.054412890662 21.9730664142432 , -162.495153223468 24.3468802949354 , -151.935893556273 25.6776724786538 , -135.381263378763 20.1078213956507 , -117.642742274689 14.5379703126476 , -99.9042211706154 -0.483773021375971 , -73.2218556357212 -31.8269368017297 , -55.1258715898794 -63.1701005820834 , -37.0298875440377 -93.7885786353759 , -37.3618589750909 -111.935514078572 , -41.4074869939509 -130.082449521768 , -45.4531150128109 -143.753783713889 , -54.8829299398238 -151.711463890489 , -62.2183428979566 -159.66914406709 , -69.5537558560895 -188.71812400316 , -96.8001238454954 -173.948399800584 , -159.055302517544 -159.178675598007 , -221.310481189593 -91.9465705374791 , -275.536569430188 -73.9416440375748 , -286.886931458511 -55.9367175376706 , -298.237293486835 -32.8878204336878 , -308.012962254009 0 , -308.012962254009 32.8878204336878 , -308.012962254009 55.9367175376706 , -298.237293486835 73.9416440375748 , -286.886931458511 91.9465705374791 , -275.536569430188 159.178675598007 , -221.310481189593 173.948399800584 , -159.055302517544 188.71812400316 , -96.8001238454954 159.66914406709 , -69.5537558560895 151.711463890489 , -62.2183428979566 143.753783713889 , -54.8829299398238 130.082449521768 , -45.4531150128109 111.935514078572 , -41.4074869939509 93.7885786353759 , -37.3618589750909 63.1701005820834 , -37.0298875440377 31.8269368017296 , -55.1258715898795 0.483773021375931 , -73.2218556357212 -14.5379703126476 , -99.9042211706154 -20.1078213956507 , -117.642742274689 -25.6776724786538 , -135.381263378763 -24.3468802949354 , -151.935893556273 -21.9730664142432 , -162.495153223468 -19.5992525335509 , -173.054412890662 -10.5276956619013 , -211.834751464026 50.7717326865205 , -230.17138443373 112.071161034942 , -248.508017403433 192.648383529418 , -217.396350591408 211.480548638048 , -207.478807863382 230.312713746679 , -197.561265135355 250.303139790025 , -182.488169097679 266.747050006869 , -154.006481127005 283.190960223713 , -125.52479315633 286.249431284349 , -100.67602835148 285.422192675623 , -79.4081235951296 284.594954066897 , -58.1402188387791 271.249836632949 , 27.1975362138396 224.720132487104 , 71.1160819161852 178.190428341259 , 115.034627618531 140.069891533539 , 103.500657034573 129.738397476246 , 100.276810325511 119.406903418953 , 97.0529636164494 104.404777043114 , 89.9281483659523 91.8276926829212 , 76.2352552807384 79.2506083227283 , 62.5423621955245 63.6538736034593 , 36.1919680916835 63.6538736034593 , 0 63.6538736034593 , -36.1919680916835 79.2506083227283 , -62.5423621955245 91.8276926829211 , -76.2352552807384 104.404777043114 , -89.9281483659523 119.406903418953 , -97.0529636164494 129.738397476246 , -100.276810325511 140.069891533539 , -103.500657034573 178.190428341259 , -115.034627618531 224.720132487104 , -71.1160819161853 271.249836632949 , -27.1975362138397 284.594954066897 , 58.140218838779 285.422192675623 , 79.4081235951295 286.249431284349 , 100.67602835148 283.190960223713 , 125.52479315633 266.747050006869 , 154.006481127005 250.303139790026 , 182.488169097679 230.312713746679 , 197.561265135355 211.480548638048 , 207.478807863381 192.648383529418 , 217.396350591408 112.071161034942 , 248.508017403433 50.7717326865205 , 230.17138443373 -10.5276956619013 , 211.834751464026 -19.5992525335509 , 173.054412890662 -21.9730664142431 , 162.495153223468 -24.3468802949354 , 151.935893556273 -25.6776724786538 , 135.381263378763 -20.1078213956507 , 117.642742274689 -14.5379703126476 , 99.9042211706154 0.483773021375942 , 73.2218556357212 31.8269368017297 , 55.1258715898795 63.1701005820834 , 37.0298875440377 93.7885786353759 , 37.3618589750909 111.935514078572 , 41.4074869939509 130.082449521768 , 45.4531150128109 143.753783713889 , 54.8829299398237 151.711463890489 , 62.2183428979566 159.66914406709 , 69.5537558560895 188.71812400316 , 96.8001238454953 173.948399800584 , 159.055302517544 159.178675598007 , 221.310481189593 91.9465705374791 , 275.536569430188 73.9416440375749 , 286.886931458511 55.9367175376706 , 298.237293486835 32.8878204336878 , 308.012962254009 0 , 308.012962254009 -32.8878204336877 , 308.012962254009 -55.9367175376706 , 298.237293486835 -73.9416440375748 , 286.886931458511 -91.946570537479 , 275.536569430188 -159.178675598007 , 221.310481189593 -173.948399800584 , 159.055302517544 -188.71812400316 , 96.8001238454955 -159.66914406709 , 69.5537558560896 -151.711463890489 , 62.2183428979567 -143.753783713889 , 54.8829299398238 -130.082449521768 , 45.453115012811 -111.935514078572 , 41.407486993951 -93.7885786353759 , 37.361858975091 -63.1701005820834 , 37.0298875440377 -31.8269368017296 , 55.1258715898795 -0.48377302137591 , 73.2218556357212 14.5379703126476 , 99.9042211706154 20.1078213956507 , 117.642742274689 25.6776724786538 , 135.381263378763 24.3468802949354 , 151.935893556273 21.9730664142432 , 162.495153223468 19.5992525335509 , 173.054412890662 10.5276956619014 , 211.834751464026 -50.7717326865204 , 230.17138443373 -112.071161034942 , 248.508017403433 -192.648383529418 , 217.396350591409 -211.480548638048 , 207.478807863382 -230.312713746679 , 197.561265135355 -250.303139790025 , 182.488169097679 -266.747050006869 , 154.006481127005 -283.190960223713 , 125.52479315633 -286.249431284349 , 100.67602835148 -285.422192675623 , 79.4081235951297 -284.594954066897 , 58.1402188387792 -271.249836632949 , -27.1975362138396 -224.720132487104 , -71.1160819161853 -178.190428341259 , -115.034627618531 -140.069891533539 , -103.500657034573 -129.738397476246 , -100.276810325511 -119.406903418953 , -97.0529636164494 -104.404777043114 , -89.9281483659523 -91.8276926829211 , -76.2352552807384 -79.2506083227283 , -62.5423621955245 -63.6538736034593 , -36.1919680916835 -63.6538736034593 , 0 -63.6538736034593 , 36.1919680916835 -79.2506083227283 , 62.5423621955245 -91.8276926829211 , 76.2352552807385 -104.404777043114 , 89.9281483659524 -119.406903418953 , 97.0529636164495 -129.738397476246 , 100.276810325511 -140.069891533539 , 103.500657034573 -178.190428341259 , 115.034627618531 -224.720132487104 , 71.1160819161854 -271.249836632949 , 27.1975362138398 -284.594954066897 , -58.1402188387791 -285.422192675623 , -79.4081235951296 -286.249431284349 , -100.67602835148 -283.190960223713 , -125.52479315633 -266.747050006869 , -154.006481127005 -250.303139790025 , -182.488169097679 -230.312713746679 , -197.561265135355 -211.480548638048 , -207.478807863382 Z "
     style="fill:none;fill-rule:evenodd;stroke:#000000;stroke-width:0.89626217;stroke-linecap:butt;stroke-linejoin:miter;stroke-miterlimit:4;stroke-dasharray:none;stroke-opacity:1"
     id="use4244" />
</svg>
