<?xml version="1.0" encoding="UTF-8" standalone="no"?>
<svg
   xmlns:dc="http://purl.org/dc/elements/1.1/"
   xmlns:cc="http://creativecommons.org/ns#"
   xmlns:rdf="http://www.w3.org/1999/02/22-rdf-syntax-ns#"
   xmlns:svg="http://www.w3.org/2000/svg"
   xmlns="http://www.w3.org/2000/svg"
   xmlns:sodipodi="http://sodipodi.sourceforge.net/DTD/sodipodi-0.dtd"
   xmlns:inkscape="http://www.inkscape.org/namespaces/inkscape"
   width="618"
   height="600"
   viewBox="0 0 618 600"
   id="svg2"
   version="1.1"
   inkscape:version="0.92.2 5c3e80d, 2017-08-06"
   sodipodi:docname="hexknot.svg">
  <metadata
     id="metadata28">
    <rdf:RDF>
      <cc:Work
         rdf:about="">
        <dc:format>image/svg+xml</dc:format>
        <dc:type
           rdf:resource="http://purl.org/dc/dcmitype/StillImage" />
        <dc:title>hexagonal knot (six-fold symmetry)</dc:title>
      </cc:Work>
    </rdf:RDF>
  </metadata>
  <defs
     id="defs26" />
  <sodipodi:namedview
     pagecolor="#ffffff"
     bordercolor="#666666"
     borderopacity="1"
     objecttolerance="10"
     gridtolerance="10"
     guidetolerance="10"
     inkscape:pageopacity="0"
     inkscape:pageshadow="2"
     inkscape:window-width="2084"
     inkscape:window-height="1049"
     id="namedview24"
     showgrid="false"
     inkscape:zoom="2.0085039"
     inkscape:cx="-70.038405"
     inkscape:cy="758.40459"
     inkscape:window-x="610"
     inkscape:window-y="6"
     inkscape:window-maximized="0"
     inkscape:current-layer="svg2" />
  <title
     id="title4">hexagonal knot (six-fold symmetry)</title>
  <path
     sodipodi:nodetypes="zzzzzzzzzzzzzzzzzzzzzzzzzzzzzzzzzzzzzzzzzzzzzzzzzzzzzzzzzzzzz"
     inkscape:connector-curvature="0"
       d="M  -206.693227958963 , -212.506782620955 C  -174.841490219754 , -232.421956928775 -136.205219258524 , -241.272488603885 -65.0422235761165 , -227.030135022984 6.12077210629104 , -212.787781442082 18.3425803770169 , -168.480739671474 20.5855537620954 , -159.474650804919 22.828527147174 , -150.468561938365 24.2005965243674 , -137.732454479355 20.4465968649865 , -122.636259282059 16.6925972056055 , -107.540064084764 4.71680258798549 , -79.8399605499432 -33.3925163897027 , -57.8375349795416 -71.501835367391 , -35.8351094091399 -101.478726024815 , -39.3138188071865 -116.429414395852 , -43.6108573350122 -131.380102766889 , -47.9078958628379 -141.723860683123 , -55.464196528747 -148.40187573776 , -61.9097128935148 -155.079890792398 , -68.3552292582825 -187.34001039692 , -101.093146586218 -164.092752566457 , -169.843285447036 -140.845494735994 , -238.593424307854 -113.862573987735 , -267.628150630223 -80.6896582467626 , -285.254977513148 -47.5167425057904 , -302.881804396072 -16.0624050747018 , -304.893811533414 0 , -304.893811533414 16.0624050747018 , -304.893811533414 47.5167425057904 , -302.881804396072 80.6896582467626 , -285.254977513148 113.862573987735 , -267.628150630223 140.845494735994 , -238.593424307854 164.092752566457 , -169.843285447036 187.34001039692 , -101.093146586218 155.079890792398 , -68.3552292582825 148.40187573776 , -61.9097128935148 141.723860683123 , -55.464196528747 131.380102766889 , -47.907895862838 116.429414395852 , -43.6108573350122 101.478726024815 , -39.3138188071865 71.501835367391 , -35.8351094091399 33.3925163897027 , -57.8375349795416 -4.71680258798554 , -79.8399605499432 -16.6925972056055 , -107.540064084764 -20.4465968649865 , -122.636259282059 -24.2005965243674 , -137.732454479355 -22.828527147174 , -150.468561938365 -20.5855537620954 , -159.474650804919 -18.3425803770169 , -168.480739671474 -6.12077210629104 , -212.787781442082 65.0422235761165 , -227.030135022984 136.205219258524 , -241.272488603885 174.841490219754 , -232.421956928775 206.693227958963 , -212.506782620955 238.544965698173 , -192.591608313134 256.01458370725 , -166.357356607275 264.045786244601 , -152.446905766707 272.076988781952 , -138.536454926139 286.061708203963 , -110.290196082938 287.382886205726 , -72.7481948921929 288.704064207489 , -35.206193701448 277.050713994518 , 2.67906429603126 229.134976142573 , 57.1868495759478 181.219238290629 , 111.694634855864 136.737310415381 , 100.125510413192 127.816321975665 , 97.5649379114047 118.895333535949 , 95.0043654096177 107.179506242522 , 89.824558616517 95.9828175308654 , 79.0254019470472 84.7861288192094 , 68.2262452775775 66.7850327794054 , 44.0048511408033 66.7850327794054 , 0 66.7850327794054 , -44.0048511408033 84.7861288192094 , -68.2262452775775 95.9828175308654 , -79.0254019470473 107.179506242521 , -89.824558616517 118.895333535949 , -95.0043654096177 127.816321975665 , -97.5649379114047 136.737310415381 , -100.125510413192 181.219238290629 , -111.694634855864 229.134976142573 , -57.1868495759479 277.050713994518 , -2.67906429603138 288.704064207489 , 35.2061937014479 287.382886205726 , 72.7481948921928 286.061708203963 , 110.290196082938 272.076988781952 , 138.536454926139 264.045786244601 , 152.446905766707 256.014583707251 , 166.357356607275 238.544965698173 , 192.591608313134 206.693227958963 , 212.506782620955 174.841490219754 , 232.421956928775 136.205219258524 , 241.272488603885 65.0422235761166 , 227.030135022984 -6.12077210629101 , 212.787781442082 -18.3425803770169 , 168.480739671474 -20.5855537620954 , 159.474650804919 -22.828527147174 , 150.468561938365 -24.2005965243673 , 137.732454479355 -20.4465968649864 , 122.636259282059 -16.6925972056055 , 107.540064084764 -4.71680258798553 , 79.8399605499432 33.3925163897027 , 57.8375349795416 71.501835367391 , 35.8351094091399 101.478726024815 , 39.3138188071864 116.429414395852 , 43.6108573350122 131.380102766889 , 47.9078958628379 141.723860683123 , 55.464196528747 148.40187573776 , 61.9097128935147 155.079890792398 , 68.3552292582825 187.34001039692 , 101.093146586218 164.092752566457 , 169.843285447036 140.845494735994 , 238.593424307854 113.862573987735 , 267.628150630223 80.6896582467626 , 285.254977513148 47.5167425057904 , 302.881804396072 16.0624050747019 , 304.893811533414 0 , 304.893811533414 -16.0624050747018 , 304.893811533414 -47.5167425057904 , 302.881804396072 -80.6896582467626 , 285.254977513148 -113.862573987735 , 267.628150630223 -140.845494735994 , 238.593424307854 -164.092752566457 , 169.843285447036 -187.34001039692 , 101.093146586218 -155.079890792398 , 68.3552292582826 -148.40187573776 , 61.9097128935148 -141.723860683123 , 55.4641965287471 -131.380102766889 , 47.907895862838 -116.429414395852 , 43.6108573350123 -101.478726024815 , 39.3138188071865 -71.501835367391 , 35.83510940914 -33.3925163897027 , 57.8375349795416 4.71680258798555 , 79.8399605499432 16.6925972056056 , 107.540064084764 20.4465968649865 , 122.636259282059 24.2005965243674 , 137.732454479355 22.828527147174 , 150.468561938365 20.5855537620955 , 159.474650804919 18.3425803770169 , 168.480739671474 6.12077210629107 , 212.787781442082 -65.0422235761165 , 227.030135022984 -136.205219258524 , 241.272488603885 -174.841490219754 , 232.421956928775 -206.693227958963 , 212.506782620955 -238.544965698173 , 192.591608313135 -256.01458370725 , 166.357356607275 -264.045786244601 , 152.446905766707 -272.076988781952 , 138.536454926139 -286.061708203963 , 110.290196082938 -287.382886205726 , 72.748194892193 -288.704064207489 , 35.2061937014481 -277.050713994518 , -2.67906429603135 -229.134976142573 , -57.1868495759478 -181.219238290629 , -111.694634855864 -136.737310415381 , -100.125510413192 -127.816321975665 , -97.5649379114047 -118.895333535949 , -95.0043654096177 -107.179506242521 , -89.824558616517 -95.9828175308654 , -79.0254019470473 -84.7861288192094 , -68.2262452775775 -66.7850327794054 , -44.0048511408032 -66.7850327794054 , 0 -66.7850327794054 , 44.0048511408033 -84.7861288192093 , 68.2262452775776 -95.9828175308654 , 79.0254019470473 -107.179506242521 , 89.8245586165171 -118.895333535949 , 95.0043654096178 -127.816321975665 , 97.5649379114048 -136.737310415381 , 100.125510413192 -181.219238290629 , 111.694634855864 -229.134976142573 , 57.1868495759479 -277.050713994518 , 2.67906429603148 -288.704064207489 , -35.2061937014479 -287.382886205726 , -72.7481948921929 -286.061708203963 , -110.290196082938 -272.076988781952 , -138.536454926139 -264.045786244601 , -152.446905766707 -256.01458370725 , -166.357356607275 -238.544965698173 , -192.591608313134 -206.693227958963 , -212.506782620955 Z "
     style="fill:none;fill-rule:evenodd;stroke:#000000;stroke-width:0.89626217;stroke-linecap:butt;stroke-linejoin:miter;stroke-miterlimit:4;stroke-dasharray:none;stroke-opacity:1"
     id="use4244" />
</svg>
