<?xml version="1.0" encoding="UTF-8" standalone="no"?>
<svg
   xmlns:dc="http://purl.org/dc/elements/1.1/"
   xmlns:cc="http://creativecommons.org/ns#"
   xmlns:rdf="http://www.w3.org/1999/02/22-rdf-syntax-ns#"
   xmlns:svg="http://www.w3.org/2000/svg"
   xmlns="http://www.w3.org/2000/svg"
   xmlns:sodipodi="http://sodipodi.sourceforge.net/DTD/sodipodi-0.dtd"
   xmlns:inkscape="http://www.inkscape.org/namespaces/inkscape"
   width="618"
   height="600"
   viewBox="0 0 618 600"
   id="svg2"
   version="1.1"
   inkscape:version="0.92.2 5c3e80d, 2017-08-06"
   sodipodi:docname="hexknot.svg">
  <metadata
     id="metadata28">
    <rdf:RDF>
      <cc:Work
         rdf:about="">
        <dc:format>image/svg+xml</dc:format>
        <dc:type
           rdf:resource="http://purl.org/dc/dcmitype/StillImage" />
        <dc:title>20 crossings ornamental knot (five-fold symmetry)</dc:title>
      </cc:Work>
    </rdf:RDF>
  </metadata>
  <defs
     id="defs26" />
  <sodipodi:namedview
     pagecolor="#ffffff"
     bordercolor="#666666"
     borderopacity="1"
     objecttolerance="10"
     gridtolerance="10"
     guidetolerance="10"
     inkscape:pageopacity="0"
     inkscape:pageshadow="2"
     inkscape:window-width="2084"
     inkscape:window-height="1049"
     id="namedview24"
     showgrid="false"
     inkscape:zoom="2.0085039"
     inkscape:cx="-70.038405"
     inkscape:cy="758.40459"
     inkscape:window-x="610"
     inkscape:window-y="6"
     inkscape:window-maximized="0"
     inkscape:current-layer="svg2" />
  <title
     id="title4">20 crossings ornamental knot (five-fold symmetry)</title>
  <path
     sodipodi:nodetypes="zzzzzzzzzzzzzzzzzzzzzzzzzzzzzzzzzzzzzzzzzzzzzzzzzzzzzzzzzzzzz"
     inkscape:connector-curvature="0"
     d="M -175.76507,-240.14747 C -139.35925,-254.47459 -102.18005,-250.26694 -57.311254,-230.49375 -12.442459,-210.72056 12.07534,-179.37097 12.803995,-156.92984 13.53265,-134.48871 10.982002,-130.77643 5.3946492,-114.44722 -0.19270365,-98.118012 -13.89589,-74.74461 -41.45932,-55.268043 -69.02275,-35.791476 -100.98474,-31.26577 -117.70407,-34.87178 -134.4234,-38.47779 -145.35417,-46.910287 -151.69351,-53.28823 -158.03285,-59.666173 -194.2367,-97.71523 -153.68878,-177.18487 -113.14086,-256.65451 -90.927466,-278.59917 -63.401396,-292.41881 -35.875327,-306.23846 -43.574736,-303.09313 8.785799,-305.27621 61.146334,-307.45929 89.480702,-296.65556 120.09127,-272.29075 150.70184,-247.92594 165.64749,-213.62399 170.95782,-164.87988 176.26815,-116.13577 149.75739,-75.526573 131.15459,-63.965489 112.55179,-52.404405 121.79486,-57.154304 105.05251,-53.247635 88.310158,-49.340966 58.36402,-49.138488 27.133869,-63.538846 -4.0962817,-77.939204 -23.41542,-103.08825 -28.652185,-119.37061 -33.88895,-135.65296 -32.051587,-149.33554 -29.697796,-158.01455 -27.344005,-166.69356 -12.494469,-217.07152 76.602216,-221.69082 165.6989,-226.31012 212.40055,-204.53515 242.63056,-175.83144 272.86057,-147.12773 284.44064,-116.66026 286.92405,-110.08882 289.40746,-103.51738 301.65161,-70.835207 295.85634,-32.143281 290.06107,6.5486451 267.82755,36.64295 228.26907,65.613877 188.71059,94.584804 139.55344,91.538273 120.97304,81.60047 102.39264,71.662667 114.50916,79.73051 102.14634,67.898944 89.783519,56.067378 71.825588,26.938373 68.593189,-8.2708031 65.36079,-43.47998 77.569321,-71.822468 89.05188,-84.49882 100.53444,-97.175172 113.30259,-102.42525 121.99572,-104.72632 130.68885,-107.02739 181.74221,-119.35628 230.29099,-44.505946 278.83977,30.34439 283.33292,81.6767 273.58977,122.20851 263.84662,162.74032 243.25107,188.00269 238.80173,193.43911 234.35239,198.87553 212.17089,225.82035 175.76507,240.14747 139.35925,254.47459 102.18005,250.26694 57.311254,230.49375 12.442459,210.72056 -8.5836704,184.46467 -9.3074162,162.17471 -10.031162,139.88475 -11.109356,131.67579 -5.6858275,115.31178 -0.26229885,98.947769 13.752244,74.84611 41.45932,55.268043 69.166396,35.689976 100.98474,31.26577 117.70407,34.87178 134.4234,38.47779 145.35417,46.910287 151.69351,53.28823 158.03285,59.666173 194.2367,97.71523 153.68878,177.18487 113.14086,256.65451 92.452923,284.34048 52.479778,296.16859 12.506633,307.9967 22.204672,304.28954 0.33543804,304.39922 -21.533796,304.50889 -84.999755,297.52686 -115.61032,273.16205 -146.22089,248.79724 -165.64749,213.62399 -170.95782,164.87988 -176.26815,116.13577 -150.92226,76.250505 -131.15459,63.965489 -111.38692,51.680473 -114.11033,54.18608 -96.910175,51.720433 -79.71002,49.254786 -56.915631,49.806347 -27.133869,63.538846 2.6478929,77.271345 23.41542,103.08825 28.652185,119.37061 33.88895,135.65297 32.051587,149.33554 29.697796,158.01455 27.344005,166.69356 12.494469,217.07152 -76.602216,221.69082 -165.6989,226.31012 -212.40055,204.53515 -242.63056,175.83144 -272.86057,147.12773 -284.44064,116.66026 -286.92405,110.08882 -289.40746,103.51738 -301.65161,70.835207 -295.85634,32.143281 -290.06107,-6.5486451 -267.82755,-36.64295 -228.26907,-65.613877 -188.71059,-94.584804 -141.12604,-92.379384 -120.97304,-81.60047 -100.82004,-70.821556 -105.8936,-73.376017 -94.844397,-60.046655 -83.795195,-46.717293 -71.635983,-24.873091 -68.593189,8.2708031 -65.550394,41.414698 -77.569321,71.822468 -89.05188,84.49882 -100.53444,97.175172 -113.30259,102.42525 -121.99572,104.72632 -130.68885,107.02739 -181.74221,119.35628 -230.29099,44.505946 -278.83977,-30.34439 -283.33292,-81.6767 -273.58977,-122.20851 -263.84662,-162.74032 -243.25107,-188.00269 -238.80173,-193.43911 -234.35239,-198.87553 -212.17089,-225.82035 -175.76507,-240.14747 Z"
     style="fill:none;fill-rule:evenodd;stroke:#000000;stroke-width:0.89626217;stroke-linecap:butt;stroke-linejoin:miter;stroke-miterlimit:4;stroke-dasharray:none;stroke-opacity:1"
     id="use4244" />
</svg>
