<?xml version="1.0" encoding="UTF-8" standalone="no"?>
<svg
   xmlns:dc="http://purl.org/dc/elements/1.1/"
   xmlns:cc="http://creativecommons.org/ns#"
   xmlns:rdf="http://www.w3.org/1999/02/22-rdf-syntax-ns#"
   xmlns:svg="http://www.w3.org/2000/svg"
   xmlns="http://www.w3.org/2000/svg"
   xmlns:sodipodi="http://sodipodi.sourceforge.net/DTD/sodipodi-0.dtd"
   xmlns:inkscape="http://www.inkscape.org/namespaces/inkscape"
   width="618"
   height="600"
   viewBox="0 0 618 600"
   id="svg2"
   version="1.1"
   inkscape:version="0.91 r13725"
   sodipodi:docname="hexknot2.svg">
  <metadata
     id="metadata28">
    <rdf:RDF>
      <cc:Work
         rdf:about="">
        <dc:format>image/svg+xml</dc:format>
        <dc:type
           rdf:resource="http://purl.org/dc/dcmitype/StillImage" />
        <dc:title>20 crossings ornamental knot (five-fold symmetry)</dc:title>
      </cc:Work>
    </rdf:RDF>
  </metadata>
  <defs
     id="defs26" />
  <sodipodi:namedview
     pagecolor="#ffffff"
     bordercolor="#666666"
     borderopacity="1"
     objecttolerance="10"
     gridtolerance="10"
     guidetolerance="10"
     inkscape:pageopacity="0"
     inkscape:pageshadow="2"
     inkscape:window-width="1301"
     inkscape:window-height="744"
     id="namedview24"
     showgrid="false"
     inkscape:zoom="0.52506775"
     inkscape:cx="-159.28523"
     inkscape:cy="331.35761"
     inkscape:window-x="65"
     inkscape:window-y="24"
     inkscape:window-maximized="1"
     inkscape:current-layer="svg2" />
  <title
     id="title4">20 crossings ornamental knot (five-fold symmetry)</title>
  <path
     sodipodi:nodetypes="zzzzzzzzzzzzzzzzzzzzzzzzzzzzzzzzzzzzzzzzzzzzzzzzzzzzzzzzzzzzz"
     inkscape:connector-curvature="0"
       d="M  -209.863888256143 , -204.164725386241 C  -167.585237924794 , -218.703106761688 -120.929120474026 , -193.208575718524 -105.319243049293 , -184.265862846069 -89.7093656245591 , -175.323149973615 -53.811699701476 , -150.787991745409 -43.6670582922134 , -116.513788199927 -33.5224168829508 , -82.2395846544464 -38.9074809055718 , -59.3264723943087 -55.3171818607615 , -25.4611229019291 -71.7268828159511 , 8.40422659045051 -94.6484631400828 , 19.7820891090059 -106.016144126512 , 23.2101828624518 -117.383825112941 , 26.6382766158977 -137.61246879261 , 29.2754665477727 -157.059414792343 , 12.679082315287 -176.506360792077 , -3.91730191719874 -185.033476514052 , -36.7207392955333 -178.219238449073 , -76.6697628867316 -171.405000384094 , -116.61878647793 -178.951549217172 , -72.4721201062172 -170.061968564687 , -124.361358572641 -161.172387912203 , -176.250597039066 -153.895615937104 , -224.340232840716 -120.41796327967 , -260.138645705993 -86.9403106222372 , -295.93705857127 -45.8821079863306 , -304.630429148278 -27.0013794153501 , -307.470718733263 -8.12065084436961 , -310.311008318248 38.149961846369 , -313.175015796862 71.8798946130871 , -283.829821259919 105.609827379805 , -254.484626722975 106.858974564238 , -201.331978247077 106.919296750309 , -183.34207141107 106.97961893638 , -165.352164575062 103.680381586424 , -121.996294835002 79.07037132619 , -96.0736758895565 54.460361065956 , -70.1510569441109 31.9244917576016 , -63.3581030586375 -5.60861168843238 , -60.6366462081477 -43.1417151344664 , -57.915189357658 -64.456023278368 , -72.0769289539638 -73.1086800486216 , -80.2075825936059 -81.7613368188751 , -88.3382362332481 -94.1595321343179 , -104.538160578008 -89.5101147778843 , -129.677901956043 -84.8606974214507 , -154.817643334079 -60.7156451813487 , -178.604060859487 -22.7116568624977 , -192.677269383379 15.2923314563532 , -206.750477907272 -26.7130775304847 , -191.21264772176 22.6691114907094 , -209.458664280931 72.0513005119035 , -227.704680840101 117.336532762424 , -245.447629352943 165.077694047635 , -234.354338125173 212.818855332845 , -223.261046897403 240.876636414999 , -192.050285669482 252.776763635191 , -177.119239877547 264.676890855382 , -162.188194085612 290.29250043386 , -123.548671786068 281.74378286923 , -79.6650958736777 273.195065304599 , -35.7815199612869 227.788095038264 , -8.1234025285534 212.238539799601 , 0.923791434999572 196.688984560939 , 9.97098539855254 157.4920812879 , 28.7916969104065 122.737429618403 , 20.440112310371 87.9827779489068 , 12.0885277103354 70.8319726631734 , -4.03163066432882 49.7085701723291 , -35.1755233062186 28.5851676814847 , -66.3194159481085 30.1924398617148 , -91.8590180629697 32.9074640778905 , -103.417765456058 35.6224882940662 , -114.976512849146 43.4529366582925 , -133.81362712578 67.5493000144592 , -142.35698427133 91.6456633706259 , -150.900341416881 124.317831332703 , -141.883321563954 155.507581586575 , -116.007506496648 186.697331840448 , -90.1316914293423 152.238471686687 , -118.740527615543 192.731080055397 , -85.0973057082892 233.223688424107 , -51.4540838010353 271.232148699528 , -21.107396512227 285.495657327305 , 25.7843075808203 299.759165955082 , 72.6760116738676 286.75874440133 , 112.580143478796 279.778143050541 , 130.351478855716 272.797541699752 , 148.122814232636 252.142538587491 , 189.626344010794 209.863888256143 , 204.164725386241 167.585237924794 , 218.703106761688 120.929120474026 , 193.208575718524 105.319243049293 , 184.265862846069 89.7093656245592 , 175.323149973615 53.8116997014761 , 150.787991745409 43.6670582922134 , 116.513788199927 33.5224168829508 , 82.2395846544464 38.9074809055718 , 59.3264723943087 55.3171818607615 , 25.4611229019291 71.7268828159511 , -8.40422659045051 94.6484631400828 , -19.7820891090059 106.016144126512 , -23.2101828624518 117.383825112941 , -26.6382766158978 137.61246879261 , -29.2754665477727 157.059414792343 , -12.679082315287 176.506360792077 , 3.91730191719872 185.033476514052 , 36.7207392955332 178.219238449073 , 76.6697628867315 171.405000384094 , 116.61878647793 178.951549217172 , 72.4721201062172 170.061968564687 , 124.361358572641 161.172387912203 , 176.250597039066 153.895615937104 , 224.340232840716 120.41796327967 , 260.138645705993 86.9403106222372 , 295.93705857127 45.8821079863307 , 304.630429148278 27.0013794153502 , 307.470718733263 8.12065084436965 , 310.311008318248 -38.1499618463689 , 313.175015796862 -71.8798946130871 , 283.829821259919 -105.609827379805 , 254.484626722975 -106.858974564238 , 201.331978247077 -106.919296750309 , 183.34207141107 -106.97961893638 , 165.352164575062 -103.680381586424 , 121.996294835002 -79.07037132619 , 96.0736758895565 -54.460361065956 , 70.1510569441109 -31.9244917576016 , 63.3581030586375 5.6086116884324 , 60.6366462081477 43.1417151344664 , 57.9151893576579 64.456023278368 , 72.0769289539638 73.1086800486216 , 80.2075825936059 81.7613368188752 , 88.3382362332481 94.159532134318 , 104.538160578007 89.5101147778844 , 129.677901956043 84.8606974214508 , 154.817643334079 60.7156451813487 , 178.604060859487 22.7116568624978 , 192.677269383379 -15.2923314563531 , 206.750477907272 26.7130775304847 , 191.21264772176 -22.6691114907093 , 209.458664280931 -72.0513005119034 , 227.704680840101 -117.336532762424 , 245.447629352943 -165.077694047635 , 234.354338125173 -212.818855332845 , 223.261046897403 -240.876636414999 , 192.050285669483 -252.776763635191 , 177.119239877547 -264.676890855382 , 162.188194085612 -290.29250043386 , 123.548671786069 -281.74378286923 , 79.6650958736778 -273.195065304599 , 35.781519961287 -227.788095038264 , 8.12340252855333 -212.238539799601 , -0.923791434999643 -196.688984560939 , -9.97098539855261 -157.4920812879 , -28.7916969104066 -122.737429618403 , -20.440112310371 -87.9827779489068 , -12.0885277103355 -70.8319726631734 , 4.03163066432879 -49.7085701723291 , 35.1755233062186 -28.5851676814848 , 66.3194159481085 -30.1924398617148 , 91.8590180629697 -32.9074640778906 , 103.417765456058 -35.6224882940663 , 114.976512849146 -43.4529366582925 , 133.81362712578 -67.5493000144592 , 142.35698427133 -91.6456633706259 , 150.900341416881 -124.317831332703 , 141.883321563954 -155.507581586575 , 116.007506496648 -186.697331840448 , 90.1316914293423 -152.238471686687 , 118.740527615543 -192.731080055397 , 85.0973057082892 -233.223688424107 , 51.4540838010352 -271.232148699528 , 21.1073965122269 -285.495657327305 , -25.7843075808204 -299.759165955082 , -72.6760116738677 -286.75874440133 , -112.580143478796 -279.778143050541 , -130.351478855716 -272.797541699752 , -148.122814232636 -252.142538587491 , -189.626344010794 -209.863888256143 , -204.164725386241 Z "
     style="fill:none;fill-rule:evenodd;stroke:#000000;stroke-width:0.89626217;stroke-linecap:butt;stroke-linejoin:miter;stroke-miterlimit:4;stroke-dasharray:none;stroke-opacity:1"
     id="use4244" />
</svg>
