<?xml version="1.0" encoding="UTF-8" standalone="no"?>
<svg
   xmlns:dc="http://purl.org/dc/elements/1.1/"
   xmlns:cc="http://creativecommons.org/ns#"
   xmlns:rdf="http://www.w3.org/1999/02/22-rdf-syntax-ns#"
   xmlns:svg="http://www.w3.org/2000/svg"
   xmlns="http://www.w3.org/2000/svg"
   xmlns:sodipodi="http://sodipodi.sourceforge.net/DTD/sodipodi-0.dtd"
   xmlns:inkscape="http://www.inkscape.org/namespaces/inkscape"
   width="618"
   height="600"
   viewBox="0 0 618 600"
   id="svg2"
   version="1.1"
   inkscape:version="0.92.2 5c3e80d, 2017-08-06"
   sodipodi:docname="hexknot.svg">
  <metadata
     id="metadata28">
    <rdf:RDF>
      <cc:Work
         rdf:about="">
        <dc:format>image/svg+xml</dc:format>
        <dc:type
           rdf:resource="http://purl.org/dc/dcmitype/StillImage" />
        <dc:title>hexagonal knot (six-fold symmetry)</dc:title>
      </cc:Work>
    </rdf:RDF>
  </metadata>
  <defs
     id="defs26" />
  <sodipodi:namedview
     pagecolor="#ffffff"
     bordercolor="#666666"
     borderopacity="1"
     objecttolerance="10"
     gridtolerance="10"
     guidetolerance="10"
     inkscape:pageopacity="0"
     inkscape:pageshadow="2"
     inkscape:window-width="2084"
     inkscape:window-height="1049"
     id="namedview24"
     showgrid="false"
     inkscape:zoom="2.0085039"
     inkscape:cx="-70.038405"
     inkscape:cy="758.40459"
     inkscape:window-x="610"
     inkscape:window-y="6"
     inkscape:window-maximized="0"
     inkscape:current-layer="svg2" />
  <title
     id="title4">20 crossings ornamental knot (five-fold symmetry)</title>
  <path
     sodipodi:nodetypes="zzzzzzzzzzzzzzzzzzzzzzzzzzzzzzzzzzzzzzzzzzzzzzzzzzzzzzzzzzzzz"
     inkscape:connector-curvature="0"
       d="M  -206.596915080015 , -212.447514106556 C  -174.769086048338 , -232.26062983519 -136.190662982355 , -241.1138138101 -64.9779597416458 , -226.958189755802 6.23474349906334 , -212.802565701503 18.3880230815355 , -168.311734091295 20.5920848790842 , -159.377370490112 22.7961466766329 , -150.44300688893 24.1786956658714 , -137.796424075953 20.4075043439585 , -122.629411247129 16.6363130220456 , -107.462398418304 4.67567526030976 , -79.8150070023821 -33.3919930185705 , -57.8366284741492 -71.4596612974507 , -35.8582499459163 -101.383323492879 , -39.3237295067508 -116.403937563122 , -43.641288433855 -131.424551633365 , -47.9588473609593 -141.685539125847 , -55.4794613141046 -148.320894072344 , -61.8554166228838 -154.95624901884 , -68.231371931663 -187.40979963754 , -101.001836594483 -164.06257805463 , -169.751658700249 -140.71535647172 , -238.501480806015 -113.759062712079 , -267.484783231644 -80.6864866471227 , -285.141933856068 -47.6139105821659 , -302.799084480492 -16.1171783540354 , -304.818457203293 0 , -304.818457203293 16.1171783540354 , -304.818457203293 47.6139105821659 , -302.799084480492 80.6864866471227 , -285.141933856068 113.759062712079 , -267.484783231644 140.71535647172 , -238.501480806015 164.06257805463 , -169.751658700249 187.40979963754 , -101.001836594483 154.95624901884 , -68.231371931663 148.320894072344 , -61.8554166228838 141.685539125847 , -55.4794613141046 131.424551633365 , -47.9588473609593 116.403937563122 , -43.6412884338551 101.383323492879 , -39.3237295067508 71.4596612974507 , -35.8582499459163 33.3919930185704 , -57.8366284741492 -4.6756752603098 , -79.8150070023821 -16.6363130220456 , -107.462398418304 -20.4075043439585 , -122.629411247129 -24.1786956658714 , -137.796424075953 -22.7961466766329 , -150.44300688893 -20.5920848790842 , -159.377370490112 -18.3880230815355 , -168.311734091295 -6.23474349906334 , -212.802565701503 64.9779597416458 , -226.958189755802 136.190662982355 , -241.1138138101 174.769086048338 , -232.26062983519 206.596915080015 , -212.447514106556 238.424744111693 , -192.634398377922 255.921938303414 , -166.367114493566 263.980527480431 , -152.409228601647 272.039116657449 , -138.451342709727 286.038654693859 , -110.164686102569 287.283401727138 , -72.6944197495118 288.528148760417 , -35.2241533964542 276.906019454075 , 2.61233300408559 229.040537796276 , 57.2065310555529 181.175056138477 , 111.80072910702 136.568225937305 , 100.080362159632 127.728809193259 , 97.5219538672284 118.889392449214 , 94.9635455748252 107.245855967493 , 89.8375767149939 95.9964332191634 , 78.9881228132737 84.7470104708334 , 68.1386689115535 66.7839860371408 , 43.9567570564657 66.7839860371408 , 0 66.7839860371408 , -43.9567570564657 84.7470104708334 , -68.1386689115535 95.9964332191634 , -78.9881228132737 107.245855967493 , -89.8375767149939 118.889392449214 , -94.9635455748252 127.728809193259 , -97.5219538672285 136.568225937305 , -100.080362159632 181.175056138477 , -111.80072910702 229.040537796276 , -57.206531055553 276.906019454075 , -2.61233300408571 288.528148760417 , 35.2241533964541 287.283401727138 , 72.6944197495117 286.038654693859 , 110.164686102569 272.039116657449 , 138.451342709727 263.980527480431 , 152.409228601646 255.921938303414 , 166.367114493566 238.424744111693 , 192.634398377922 206.596915080016 , 212.447514106556 174.769086048338 , 232.26062983519 136.190662982355 , 241.1138138101 64.9779597416459 , 226.958189755802 -6.23474349906331 , 212.802565701503 -18.3880230815355 , 168.311734091295 -20.5920848790842 , 159.377370490112 -22.7961466766329 , 150.44300688893 -24.1786956658714 , 137.796424075953 -20.4075043439585 , 122.629411247129 -16.6363130220456 , 107.462398418304 -4.67567526030979 , 79.8150070023821 33.3919930185704 , 57.8366284741492 71.4596612974507 , 35.8582499459163 101.383323492879 , 39.3237295067508 116.403937563122 , 43.641288433855 131.424551633365 , 47.9588473609592 141.685539125847 , 55.4794613141045 148.320894072344 , 61.8554166228838 154.95624901884 , 68.231371931663 187.40979963754 , 101.001836594483 164.06257805463 , 169.751658700249 140.715356471721 , 238.501480806014 113.759062712079 , 267.484783231644 80.6864866471227 , 285.141933856068 47.613910582166 , 302.799084480492 16.1171783540354 , 304.818457203293 0 , 304.818457203293 -16.1171783540353 , 304.818457203293 -47.6139105821659 , 302.799084480492 -80.6864866471227 , 285.141933856068 -113.759062712079 , 267.484783231644 -140.71535647172 , 238.501480806015 -164.06257805463 , 169.751658700249 -187.40979963754 , 101.001836594483 -154.95624901884 , 68.2313719316631 -148.320894072344 , 61.8554166228839 -141.685539125847 , 55.4794613141046 -131.424551633365 , 47.9588473609593 -116.403937563122 , 43.6412884338551 -101.383323492879 , 39.3237295067509 -71.4596612974506 , 35.8582499459164 -33.3919930185704 , 57.8366284741492 4.67567526030982 , 79.8150070023821 16.6363130220456 , 107.462398418304 20.4075043439585 , 122.629411247129 24.1786956658714 , 137.796424075953 22.796146676633 , 150.44300688893 20.5920848790842 , 159.377370490112 18.3880230815355 , 168.311734091295 6.23474349906337 , 212.802565701503 -64.9779597416458 , 226.958189755802 -136.190662982355 , 241.1138138101 -174.769086048338 , 232.26062983519 -206.596915080015 , 212.447514106556 -238.424744111693 , 192.634398377922 -255.921938303414 , 166.367114493566 -263.980527480431 , 152.409228601647 -272.039116657449 , 138.451342709727 -286.038654693859 , 110.164686102569 -287.283401727138 , 72.6944197495119 -288.528148760417 , 35.2241533964543 -276.906019454075 , -2.61233300408568 -229.040537796276 , -57.206531055553 -181.175056138477 , -111.80072910702 -136.568225937305 , -100.080362159632 -127.728809193259 , -97.5219538672285 -118.889392449214 , -94.9635455748252 -107.245855967493 , -89.8375767149939 -95.9964332191634 , -78.9881228132737 -84.7470104708334 , -68.1386689115535 -66.7839860371408 , -43.9567570564657 -66.7839860371408 , 0 -66.7839860371408 , 43.9567570564658 -84.7470104708334 , 68.1386689115535 -95.9964332191634 , 78.9881228132737 -107.245855967493 , 89.837576714994 -118.889392449214 , 94.9635455748253 -127.728809193259 , 97.5219538672285 -136.568225937305 , 100.080362159632 -181.175056138477 , 111.80072910702 -229.040537796276 , 57.2065310555531 -276.906019454075 , 2.61233300408581 -288.528148760417 , -35.2241533964542 -287.283401727138 , -72.6944197495118 -286.038654693859 , -110.164686102569 -272.039116657449 , -138.451342709727 -263.980527480431 , -152.409228601646 -255.921938303414 , -166.367114493566 -238.424744111693 , -192.634398377922 -206.596915080015 , -212.447514106556 Z "
     style="fill:none;fill-rule:evenodd;stroke:#000000;stroke-width:0.89626217;stroke-linecap:butt;stroke-linejoin:miter;stroke-miterlimit:4;stroke-dasharray:none;stroke-opacity:1"
     id="use4244" />
</svg>
