<?xml version="1.0" encoding="UTF-8" standalone="no"?>
<svg
   xmlns:dc="http://purl.org/dc/elements/1.1/"
   xmlns:cc="http://creativecommons.org/ns#"
   xmlns:rdf="http://www.w3.org/1999/02/22-rdf-syntax-ns#"
   xmlns:svg="http://www.w3.org/2000/svg"
   xmlns="http://www.w3.org/2000/svg"
   xmlns:sodipodi="http://sodipodi.sourceforge.net/DTD/sodipodi-0.dtd"
   xmlns:inkscape="http://www.inkscape.org/namespaces/inkscape"
   width="618"
   height="600"
   viewBox="0 0 618 600"
   id="svg2"
   version="1.1"
   inkscape:version="0.92.2 5c3e80d, 2017-08-06"
   sodipodi:docname="hexknot3.svg">
  <metadata
     id="metadata28">
    <rdf:RDF>
      <cc:Work
         rdf:about="">
        <dc:format>image/svg+xml</dc:format>
        <dc:type
           rdf:resource="http://purl.org/dc/dcmitype/StillImage" />
        <dc:title>20 crossings ornamental knot (five-fold symmetry)</dc:title>
      </cc:Work>
    </rdf:RDF>
  </metadata>
  <defs
     id="defs26" />
  <sodipodi:namedview
     pagecolor="#ffffff"
     bordercolor="#666666"
     borderopacity="1"
     objecttolerance="10"
     gridtolerance="10"
     guidetolerance="10"
     inkscape:pageopacity="0"
     inkscape:pageshadow="2"
     inkscape:window-width="2560"
     inkscape:window-height="1315"
     id="namedview24"
     showgrid="false"
     inkscape:zoom="4"
     inkscape:cx="-88.491636"
     inkscape:cy="547.50362"
     inkscape:window-x="963"
     inkscape:window-y="913"
     inkscape:window-maximized="0"
     inkscape:current-layer="svg2" />
  <title
     id="title4">20 crossings ornamental knot (five-fold symmetry)</title>
  <path
     sodipodi:nodetypes="zzzzzzzzzzzzzzzzzzzzzzzzzzzzzzzzzzzzzzzzzzzzzzzzzzzzzzzzzzzzz"
     inkscape:connector-curvature="0"
     id="path838"
     d="M 258.1577,16.704516 C 256.24446,-15.700784 230.17089,-73.514771 195.43744,-90.387467 160.70399,-107.26016 118.72454,-89.068072 88.857492,-75.740275 58.990443,-62.412478 29.257403,-32.939166 21.215819,-18.434104 13.174235,-3.9290418 11.507066,-3.1951803 11.046717,1.4799827 10.586369,6.1551458 9.5801243,4.3135681 15.764961,19.025418 21.949798,33.737268 60.730462,67.184719 93.612119,75.828359 126.49378,84.471999 167.07392,90.851229 200.51047,63.344814 233.94702,35.838399 254.26817,-39.809755 246.96372,-81.546135 239.65927,-123.28252 236.92212,-148.81506 220.17579,-171.43647 203.42946,-194.05788 174.27059,-202.33211 145.95173,-216.83922 117.63287,-231.34634 53.82611,-237.71158 21.847201,-216.06787 -10.131708,-194.42416 -13.562562,-149.62319 -18.757932,-116.44334 -23.953302,-83.263493 -21.883421,-42.326293 -11.590762,-27.74385 -1.298103,-13.161407 0.71208458,-11.030597 6.2590229,-8.5199355 11.805961,-6.0092737 10.351388,-5.7695143 26.765291,-5.7605186 43.179194,-5.7515229 90.955233,-20.622127 114.88168,-44.776658 138.80813,-68.931189 164.62276,-100.88501 157.51977,-143.59512 150.41678,-186.30523 95.064147,-241.72794 55.267158,-256.2703 15.470169,-270.81266 13.85061,-281.74051 -13.363382,-278.7529 -40.577373,-275.76529 -90.745704,-261.52751 -108.99258,-244.97052 -127.23946,-228.41353 -172.00551,-168.05837 -169.25097,-129.54197 -166.49642,-91.025567 -128.01707,-66.645034 -103.27616,-44.564627 -78.535252,-22.48422 -45.17603,0.80286515 -27.958811,-0.8102626 -10.741592,-2.4233904 -9.7330905,-3.4620315 -5.3911724,-7.3136757 -1.0492544,-11.16532 -1.3901407,-10.986891 7.1716759,-26.242279 15.733493,-41.497667 33.39956,-90.761164 25.608812,-124.46657 17.818064,-158.17198 1.8880892,-195.59779 -38.651442,-210.80148 -79.190973,-226.00517 -154.86477,-205.77973 -187.35731,-178.58571 -219.84985,-151.39169 -232.99353,-125.68959 -246.14368,-98.281798 -259.29383,-70.874005 -265.34616,-47.419612 -265.015,-13.870187 -264.68383,19.679238 -238.69678,74.131605 -204.48044,90.875697 -170.2641,107.61979 -129.62486,88.755088 -97.900513,76.228512 -66.176163,63.701936 -25.328279,34.033548 -18.650946,20.181522 -11.973613,6.3294964 -12.374857,7.8538986 -11.724966,2.8840395 -11.075075,-2.0858196 -11.177712,-3.3580152 -19.474975,-19.1045 -27.772238,-34.850985 -68.693975,-65.913594 -102.65514,-75.340129 -136.6163,-84.766664 -176.11694,-90.362991 -209.55349,-62.856575 -242.99004,-35.350159 -263.31118,40.297987 -256.00673,82.034362 -248.70228,123.77074 -237.48551,155.6196 -217.32936,179.87084 -197.17321,204.12208 -167.7589,213.52684 -135.57223,227.79392 -103.38556,242.061 -43.446626,248.66627 -11.467719,227.02256 20.511188,205.37885 25.948552,162.40054 29.137411,127.39803 32.32627,92.395521 18.895551,40.236253 8.0760131,26.264754 -2.7435245,12.293255 -2.3131012,12.561248 -6.4645317,10.441043 -10.615962,8.3208383 -10.406205,8.477483 -26.64881,9.1362373 -42.891415,9.7949916 -82.717888,30.8643 -104.50219,55.731341 -126.28649,80.598382 -154.24327,111.83971 -147.14029,154.54981 -140.03731,197.25991 -84.684671,252.68262 -44.887684,267.22498 -5.0906973,281.76734 33.099696,273.67976 59.131963,267.52324 85.16423,261.36672 88.115054,254.08701 111.53339,234.66638 134.95173,215.24575 175.67219,165.31945 172.91764,126.80305 170.16309,88.286646 133.27824,61.393585 106.94283,41.825701 80.607418,22.257817 39.159981,9.2780931 23.626695,9.7573683 8.0934094,10.236644 8.8580612,9.5259563 4.1342825,10.831213 -0.58949614,12.13647 -1.5058147,11.793581 -11.672931,25.908559 -21.840047,40.023537 -30.897352,88.929469 -21.942135,121.72765 -12.986918,154.52583 1.7785725,192.85887 42.318102,208.06256 82.857632,223.26625 158.53142,203.04081 191.02396,175.84678 223.5165,148.65275 234.65146,130.36196 245.89273,103.85864 257.134,77.355321 260.07094,49.109816 258.1577,16.704516 Z"
     style="fill:none;fill-rule:evenodd;stroke:#000000;stroke-width:1px;stroke-linecap:butt;stroke-linejoin:miter;stroke-opacity:1" />
</svg>
