<?xml version="1.0" encoding="UTF-8" standalone="no"?>
<svg
   xmlns:dc="http://purl.org/dc/elements/1.1/"
   xmlns:cc="http://creativecommons.org/ns#"
   xmlns:rdf="http://www.w3.org/1999/02/22-rdf-syntax-ns#"
   xmlns:svg="http://www.w3.org/2000/svg"
   xmlns="http://www.w3.org/2000/svg"
   xmlns:sodipodi="http://sodipodi.sourceforge.net/DTD/sodipodi-0.dtd"
   xmlns:inkscape="http://www.inkscape.org/namespaces/inkscape"
   width="618"
   height="600"
   viewBox="0 0 618 600"
   id="svg2"
   version="1.1"
   inkscape:version="0.91 r13725"
   sodipodi:docname="hexknot.svg">
  <metadata
     id="metadata28">
    <rdf:RDF>
      <cc:Work
         rdf:about="">
        <dc:format>image/svg+xml</dc:format>
        <dc:type
           rdf:resource="http://purl.org/dc/dcmitype/StillImage" />
        <dc:title>20 crossings ornamental knot (five-fold symmetry)</dc:title>
      </cc:Work>
    </rdf:RDF>
  </metadata>
  <defs
     id="defs26" />
  <sodipodi:namedview
     pagecolor="#ffffff"
     bordercolor="#666666"
     borderopacity="1"
     objecttolerance="10"
     gridtolerance="10"
     guidetolerance="10"
     inkscape:pageopacity="0"
     inkscape:pageshadow="2"
     inkscape:window-width="2084"
     inkscape:window-height="1049"
     id="namedview24"
     showgrid="false"
     inkscape:zoom="0.52506775"
     inkscape:cx="122.58316"
     inkscape:cy="331.35761"
     inkscape:window-x="538"
     inkscape:window-y="146"
     inkscape:window-maximized="0"
     inkscape:current-layer="svg2" />
  <title
     id="title4">20 crossings ornamental knot (five-fold symmetry)</title>
  <path
     sodipodi:nodetypes="zzzzzzzzzzzzzzzzzzzzzzzzzzzzzzzzzzzzzzzzzzzzzzzzzzzzzzz"
     inkscape:connector-curvature="0"
       d="M  -210.703204933816 , -201.517892040405 C  -172.619576506791 , -214.213835483358 -121.774028857935 , -191.792990308238 -111.780059816712 , -187.326845137047 -101.786090775488 , -182.860699965855 -63.8281963788574 , -165.915905873145 -47.4024174089067 , -128.68950515838 -30.9766384389561 , -91.4631044436153 -43.960532557091 , -56.7782240430323 -58.5119395450475 , -28.866131961938 -73.063346533004 , -0.954039880843631 -90.2781517883618 , 14.3938204591885 -109.104288719425 , 20.0078331712953 -127.930425650489 , 25.6218458834022 -142.755343803383 , 20.9264648689889 -150.531943101359 , 17.3487398232468 -158.308542399335 , 13.7710147775047 -206.348899942317 , -9.09827820545988 -181.309567131715 , -111.800144156153 -156.270234321112 , -214.502010106847 -156.014978878262 , -226.491841633578 -132.754618424783 , -254.35622001773 -109.494257971304 , -282.220598401882 -78.6326682516358 , -298.80470938977 -43.5626809166257 , -306.446945971333 -8.49269358161567 , -314.089182552896 39.1311875970516 , -309.866692116299 69.1680113571725 , -283.233274151685 99.2048351172934 , -256.599856187072 105.210587445749 , -201.355897666271 106.33977679112 , -190.46779400634 107.468966136491 , -179.579690346409 111.773291188623 , -138.234792478405 87.7471719631524 , -105.396450256097 63.7210527376821 , -72.5581080337892 27.1911181244849 , -66.4600499798499 -4.25716618449153 , -65.1058920516794 -35.7054504934679 , -63.751734123509 -57.6044900693502 , -70.9862626258347 -71.8794361607353 , -84.4831691072067 -86.1543822521204 , -97.9800755885788 -89.5005220896383 , -113.166521825217 -90.2904209612578 , -121.690116895187 -91.0803198328773 , -130.213711965158 -95.2951099145322 , -183.25252849575 6.16698142013359 , -212.918763163302 107.629072754799 , -242.584997830854 118.140199165469 , -248.358855896256 153.901638933546 , -242.146982034437 189.663078701624 , -235.935108172617 219.45613497615 , -217.500242968156 243.609499665019 , -190.94986131642 267.762864353888 , -164.399479664684 287.918020957892 , -121.044743518848 279.871216290988 , -81.7153821112807 271.824411624084 , -42.3860207037132 226.984616303685 , -9.56290735803233 218.119836607832 , -3.14094886929304 209.255056911979 , 3.28100961944624 175.60148756748 , 27.6811133947401 135.149589372059 , 23.2930549022831 94.6976911766383 , 18.9049964098261 71.1516506815759 , -9.68182593681757 54.254773360556 , -36.2397600897415 37.357896039536 , -62.7976942426653 32.6736617190115 , -85.380083085023 37.22485255869 , -104.491002278502 41.7760433983685 , -123.601921471981 53.2548217137444 , -134.092986694205 60.241522140101 , -139.038856718434 67.2282225664575 , -143.984726742662 111.053790027785 , -174.15425029029 187.476548551849 , -101.118619007149 263.899307075912 , -28.082987724007 274.155178043731 , -21.8670142626786 286.656257358329 , 12.2092379832931 299.157336672928 , 46.2854902292649 298.088803227785 , 81.3044664216143 287.172180581644 , 115.497084654913 276.255557935503 , 149.689702888211 248.78683336084 , 188.821948597451 210.703204933816 , 201.517892040404 172.619576506791 , 214.213835483358 121.774028857935 , 191.792990308238 111.780059816712 , 187.326845137047 101.786090775488 , 182.860699965855 63.8281963788574 , 165.915905873145 47.4024174089068 , 128.68950515838 30.9766384389561 , 91.4631044436153 43.960532557091 , 56.7782240430323 58.5119395450475 , 28.866131961938 73.063346533004 , 0.954039880843602 90.2781517883618 , -14.3938204591884 109.104288719425 , -20.0078331712953 127.930425650489 , -25.6218458834021 142.755343803383 , -20.9264648689888 150.531943101359 , -17.3487398232467 158.308542399335 , -13.7710147775046 206.348899942317 , 9.09827820545981 181.309567131715 , 111.800144156153 156.270234321112 , 214.502010106847 156.014978878262 , 226.491841633577 132.754618424783 , 254.35622001773 109.494257971304 , 282.220598401882 78.6326682516358 , 298.80470938977 43.5626809166258 , 306.446945971333 8.49269358161571 , 314.089182552896 -39.1311875970516 , 309.866692116299 -69.1680113571725 , 283.233274151685 -99.2048351172933 , 256.599856187072 -105.210587445749 , 201.355897666271 -106.33977679112 , 190.46779400634 -107.468966136491 , 179.579690346409 -111.773291188623 , 138.234792478405 -87.7471719631524 , 105.396450256097 -63.7210527376821 , 72.5581080337892 -27.1911181244849 , 66.4600499798499 4.25716618449154 , 65.1058920516794 35.7054504934679 , 63.751734123509 57.6044900693503 , 70.9862626258346 71.8794361607354 , 84.4831691072067 86.1543822521205 , 97.9800755885787 89.5005220896383 , 113.166521825216 90.2904209612578 , 121.690116895187 91.0803198328773 , 130.213711965158 95.2951099145322 , 183.25252849575 -6.16698142013356 , 212.918763163302 -107.629072754799 , 242.584997830854 -118.140199165469 , 248.358855896256 -153.901638933546 , 242.146982034437 -189.663078701624 , 235.935108172617 -219.45613497615 , 217.500242968156 -243.609499665019 , 190.94986131642 -267.762864353888 , 164.399479664684 -287.918020957892 , 121.044743518848 -279.871216290988 , 81.7153821112808 -271.824411624084 , 42.3860207037133 -226.984616303685 , 9.56290735803225 -218.119836607832 , 3.14094886929297 -209.255056911979 , -3.28100961944631 -175.60148756748 , -27.6811133947402 -135.149589372059 , -23.2930549022831 -94.6976911766383 , -18.9049964098261 -71.1516506815759 , 9.6818259368176 -54.254773360556 , 36.2397600897415 -37.357896039536 , 62.7976942426653 -32.6736617190115 , 85.380083085023 -37.22485255869 , 104.491002278502 -41.7760433983685 , 123.601921471981 -53.2548217137444 , 134.092986694205 -60.241522140101 , 139.038856718434 -67.2282225664575 , 143.984726742662 -111.053790027785 , 174.15425029029 -187.476548551848 , 101.118619007149 -263.899307075912 , 28.0829877240071 -274.155178043731 , 21.8670142626785 -286.656257358329 , -12.2092379832932 -299.157336672928 , -46.285490229265 -298.088803227785 , -81.3044664216144 -287.172180581644 , -115.497084654913 -276.255557935503 , -149.689702888212 -248.78683336084 , -188.821948597451 -210.703204933816 , -201.517892040405 Z "
     style="fill:none;fill-rule:evenodd;stroke:#000000;stroke-width:0.89626217;stroke-linecap:butt;stroke-linejoin:miter;stroke-miterlimit:4;stroke-dasharray:none;stroke-opacity:1"
     id="use4244" />
</svg>
