<?xml version="1.0" encoding="UTF-8" standalone="no"?>
<svg
   xmlns:dc="http://purl.org/dc/elements/1.1/"
   xmlns:cc="http://creativecommons.org/ns#"
   xmlns:rdf="http://www.w3.org/1999/02/22-rdf-syntax-ns#"
   xmlns:svg="http://www.w3.org/2000/svg"
   xmlns="http://www.w3.org/2000/svg"
   xmlns:sodipodi="http://sodipodi.sourceforge.net/DTD/sodipodi-0.dtd"
   xmlns:inkscape="http://www.inkscape.org/namespaces/inkscape"
   width="618"
   height="600"
   viewBox="0 0 618 600"
   id="svg2"
   version="1.1"
   inkscape:version="0.92.2 5c3e80d, 2017-08-06"
   sodipodi:docname="hexknot3.svg">
  <metadata
     id="metadata28">
    <rdf:RDF>
      <cc:Work
         rdf:about="">
        <dc:format>image/svg+xml</dc:format>
        <dc:type
           rdf:resource="http://purl.org/dc/dcmitype/StillImage" />
        <dc:title>20 crossings ornamental knot (five-fold symmetry)</dc:title>
      </cc:Work>
    </rdf:RDF>
  </metadata>
  <defs
     id="defs26" />
  <sodipodi:namedview
     pagecolor="#ffffff"
     bordercolor="#666666"
     borderopacity="1"
     objecttolerance="10"
     gridtolerance="10"
     guidetolerance="10"
     inkscape:pageopacity="0"
     inkscape:pageshadow="2"
     inkscape:window-width="2560"
     inkscape:window-height="1315"
     id="namedview24"
     showgrid="false"
     inkscape:zoom="4"
     inkscape:cx="-88.491636"
     inkscape:cy="547.50362"
     inkscape:window-x="963"
     inkscape:window-y="913"
     inkscape:window-maximized="0"
     inkscape:current-layer="svg2" />
  <title
     id="title4">20 crossings ornamental knot (five-fold symmetry)</title>
  <path
     sodipodi:nodetypes="zzzzzzzzzzzzzzzzzzzzzzzzzzzzzzzzzzzzzzzzzzzzzzzzzzzzzzzzzzzzz"
     inkscape:connector-curvature="0"
     id="path838"
       d="M  275.094998855138 , 64.4654065312174 C  273.384263093836 , 31.1509582680544 261.142258693781 , -0.977307587440897 215.161078724512 , -46.9415149312727 169.179898755244 , -92.9057222751044 124.82761465181 , -97.9739378947163 92.0867596190774 , -85.9948146917976 59.3459045863447 , -74.0156914888789 45.6735105550731 , -42.9835226594064 44.9333778561618 , -41.3037163206561 44.1932451572506 , -39.6239099819057 36.6364871255708 , -22.4672811888615 36.6364871255708 , 0 36.6364871255708 , 22.4672811888615 44.1932451572506 , 39.6239099819057 44.9333778561619 , 41.303716320656 45.6735105550731 , 42.9835226594064 59.3459045863447 , 74.0156914888789 92.0867596190775 , 85.9948146917976 124.82761465181 , 97.9739378947162 169.179898755244 , 92.9057222751044 215.161078724512 , 46.9415149312726 261.142258693781 , 0.977307587440791 273.384263093836 , -31.1509582680546 275.094998855138 , -64.4654065312175 276.80573461644 , -97.7798547943805 265.39391073114 , -128.220159485582 254.566390744258 , -146.973974222829 243.738870757376 , -165.727788960076 223.082705538507 , -190.83087069386 193.376179148894 , -206.006554196992 163.669652759282 , -221.182237700123 129.724756148855 , -226.644483824182 66.9279949396475 , -209.805717546727 4.13123373043982 , -192.966951269273 -22.4341117997181 , -157.09085432964 -28.4303143072933 , -122.746880528211 -34.4265168148684 , -88.4029067267814 -14.3880672896535 , -61.0461817504132 -13.3033786763131 , -59.5653048616093 -12.2186900629728 , -58.0844279728055 -1.1389927007369 , -42.9617691505966 18.3182435627854 , -31.7281285561658 37.7754798263077 , -20.4944879617351 56.4119352202234 , -18.4605179908998 58.236756532475 , -18.2615885409533 60.0615778447266 , -18.0626590910068 93.7724214012131 , -14.3872152379025 120.517073926371 , -36.7520658364133 147.261726451528 , -59.1169164349241 165.048665024804 , -100.061228994168 148.233083784865 , -162.864202615455 131.417502544925 , -225.667176236741 109.714610334554 , -252.333195968178 81.7188197062433 , -270.471960728209 53.7230290779327 , -288.610725488241 21.6550399737641 , -293.947948445658 0 , -293.947948445658 -21.6550399737641 , -293.947948445658 -53.7230290779327 , -288.610725488241 -81.7188197062433 , -270.471960728209 -109.714610334554 , -252.333195968178 -131.417502544925 , -225.667176236741 -148.233083784865 , -162.864202615455 -165.048665024804 , -100.061228994168 -147.261726451528 , -59.1169164349241 -120.517073926371 , -36.7520658364133 -93.7724214012131 , -14.3872152379025 -60.0615778447266 , -18.0626590910068 -58.236756532475 , -18.2615885409533 -56.4119352202234 , -18.4605179908998 -37.7754798263077 , -20.4944879617351 -18.3182435627854 , -31.7281285561658 1.13899270073687 , -42.9617691505966 12.2186900629728 , -58.0844279728055 13.3033786763131 , -59.5653048616093 14.3880672896535 , -61.0461817504132 34.4265168148684 , -88.4029067267814 28.4303143072933 , -122.746880528211 22.4341117997181 , -157.09085432964 -4.13123373043981 , -192.966951269273 -66.9279949396475 , -209.805717546727 -129.724756148855 , -226.644483824182 -163.669652759282 , -221.182237700123 -193.376179148894 , -206.006554196992 -223.082705538507 , -190.83087069386 -243.738870757376 , -165.727788960076 -254.566390744258 , -146.973974222829 -265.39391073114 , -128.220159485582 -276.80573461644 , -97.7798547943804 -275.094998855138 , -64.4654065312175 -273.384263093836 , -31.1509582680545 -261.142258693781 , 0.977307587441004 -215.161078724512 , 46.9415149312727 -169.179898755244 , 92.9057222751045 -124.82761465181 , 97.9739378947163 -92.0867596190774 , 85.9948146917976 -59.3459045863447 , 74.0156914888789 -45.6735105550731 , 42.9835226594064 -44.9333778561618 , 41.3037163206561 -44.1932451572506 , 39.6239099819057 -36.6364871255708 , 22.4672811888615 -36.6364871255708 , 0 -36.6364871255708 , -22.4672811888615 -44.1932451572506 , -39.6239099819057 -44.9333778561618 , -41.3037163206561 -45.6735105550731 , -42.9835226594064 -59.3459045863447 , -74.0156914888789 -92.0867596190774 , -85.9948146917976 -124.82761465181 , -97.9739378947163 -169.179898755244 , -92.9057222751044 -215.161078724512 , -46.9415149312726 -261.142258693781 , -0.977307587440876 -273.384263093836 , 31.1509582680547 -275.094998855138 , 64.4654065312176 -276.80573461644 , 97.7798547943806 -265.39391073114 , 128.220159485582 -254.566390744258 , 146.973974222829 -243.738870757376 , 165.727788960076 -223.082705538507 , 190.83087069386 -193.376179148894 , 206.006554196992 -163.669652759282 , 221.182237700123 -129.724756148855 , 226.644483824182 -66.9279949396475 , 209.805717546727 -4.13123373043979 , 192.966951269273 22.4341117997181 , 157.09085432964 28.4303143072933 , 122.746880528211 34.4265168148684 , 88.4029067267814 14.3880672896535 , 61.0461817504132 13.3033786763131 , 59.5653048616093 12.2186900629728 , 58.0844279728055 1.13899270073691 , 42.9617691505966 -18.3182435627854 , 31.7281285561659 -37.7754798263077 , 20.4944879617351 -56.4119352202234 , 18.4605179908998 -58.236756532475 , 18.2615885409533 -60.0615778447266 , 18.0626590910068 -93.7724214012131 , 14.3872152379026 -120.517073926371 , 36.7520658364134 -147.261726451528 , 59.1169164349241 -165.048665024804 , 100.061228994169 -148.233083784865 , 162.864202615455 -131.417502544925 , 225.667176236741 -109.714610334554 , 252.333195968178 -81.7188197062433 , 270.471960728209 -53.7230290779327 , 288.610725488241 -21.6550399737641 , 293.947948445658 0 , 293.947948445658 21.6550399737641 , 293.947948445658 53.7230290779328 , 288.610725488241 81.7188197062433 , 270.471960728209 109.714610334554 , 252.333195968178 131.417502544925 , 225.667176236741 148.233083784865 , 162.864202615455 165.048665024804 , 100.061228994168 147.261726451528 , 59.116916434924 120.517073926371 , 36.7520658364133 93.7724214012131 , 14.3872152379025 60.0615778447266 , 18.0626590910068 58.236756532475 , 18.2615885409533 56.4119352202234 , 18.4605179908998 37.7754798263077 , 20.4944879617351 18.3182435627854 , 31.7281285561658 -1.13899270073689 , 42.9617691505966 -12.2186900629728 , 58.0844279728055 -13.3033786763131 , 59.5653048616093 -14.3880672896535 , 61.0461817504132 -34.4265168148684 , 88.4029067267814 -28.4303143072932 , 122.746880528211 -22.4341117997181 , 157.09085432964 4.13123373043984 , 192.966951269273 66.9279949396476 , 209.805717546727 129.724756148855 , 226.644483824182 163.669652759282 , 221.182237700123 193.376179148895 , 206.006554196992 223.082705538507 , 190.83087069386 243.738870757376 , 165.727788960076 254.566390744258 , 146.973974222829 265.393910731141 , 128.220159485582 276.80573461644 , 97.7798547943804 275.094998855138 , 64.4654065312174 Z "
     style="fill:none;fill-rule:evenodd;stroke:#000000;stroke-width:1px;stroke-linecap:butt;stroke-linejoin:miter;stroke-opacity:1" />
</svg>
