<?xml version="1.0" encoding="UTF-8" standalone="no"?>
<svg
   xmlns:dc="http://purl.org/dc/elements/1.1/"
   xmlns:cc="http://creativecommons.org/ns#"
   xmlns:rdf="http://www.w3.org/1999/02/22-rdf-syntax-ns#"
   xmlns:svg="http://www.w3.org/2000/svg"
   xmlns="http://www.w3.org/2000/svg"
   xmlns:sodipodi="http://sodipodi.sourceforge.net/DTD/sodipodi-0.dtd"
   xmlns:inkscape="http://www.inkscape.org/namespaces/inkscape"
   width="618"
   height="600"
   viewBox="0 0 618 600"
   id="svg2"
   version="1.1"
   inkscape:version="0.92.2 5c3e80d, 2017-08-06"
   sodipodi:docname="hexknot.svg">
  <metadata
     id="metadata28">
    <rdf:RDF>
      <cc:Work
         rdf:about="">
        <dc:format>image/svg+xml</dc:format>
        <dc:type
           rdf:resource="http://purl.org/dc/dcmitype/StillImage" />
        <dc:title>hexagonal knot (six-fold symmetry)</dc:title>
      </cc:Work>
    </rdf:RDF>
  </metadata>
  <defs
     id="defs26" />
  <sodipodi:namedview
     pagecolor="#ffffff"
     bordercolor="#666666"
     borderopacity="1"
     objecttolerance="10"
     gridtolerance="10"
     guidetolerance="10"
     inkscape:pageopacity="0"
     inkscape:pageshadow="2"
     inkscape:window-width="2084"
     inkscape:window-height="1049"
     id="namedview24"
     showgrid="false"
     inkscape:zoom="2.0085039"
     inkscape:cx="-70.038405"
     inkscape:cy="758.40459"
     inkscape:window-x="610"
     inkscape:window-y="6"
     inkscape:window-maximized="0"
     inkscape:current-layer="svg2" />
  <title
     id="title4">hexagonal knot (six-fold symmetry)</title>
  <path
     sodipodi:nodetypes="zzzzzzzzzzzzzzzzzzzzzzzzzzzzzzzzzzzzzzzzzzzzzzzzzzzzzzzzzzzzz"
     inkscape:connector-curvature="0"
       d="M  -206.597100736371 , -212.447264128686 C  -174.769271915659 , -232.260945341695 -136.190731136757 , -241.113656547972 -64.978185531973 , -226.958235995999 6.23436007281123 , -212.802815444025 18.3834075315401 , -168.310274938432 20.5905270701724 , -159.376985774562 22.7976466088047 , -150.443696610691 24.1785817677812 , -137.796748787245 20.4075113458644 , -122.629504795745 16.6364409239476 , -107.462260804245 4.67593485877853 , -79.8143684832448 -33.3916516320564 , -57.8360371753618 -71.4592381228913 , -35.8577058674789 -101.383268266559 , -39.3235499334248 -116.404022079553 , -43.6413291443347 -131.424775892547 , -47.9591083552446 -141.6868864085 , -55.4785071956206 -148.319781994448 , -61.8565733672004 -154.952677580396 , -68.2346395387802 -187.409824207783 , -101.002293522619 -164.062505204652 , -169.751877360506 -140.715186201521 , -238.501461198394 -113.759243015067 , -267.485101950718 -80.6861773317596 , -285.141969650253 -47.613111648452 , -302.798837349788 -16.1166810779864 , -304.818481233881 0 , -304.818481233881 16.1166810779864 , -304.818481233881 47.613111648452 , -302.798837349788 80.6861773317596 , -285.141969650253 113.759243015067 , -267.485101950718 140.715186201521 , -238.501461198394 164.062505204652 , -169.751877360506 187.409824207783 , -101.002293522619 154.952677580396 , -68.2346395387802 148.319781994448 , -61.8565733672004 141.6868864085 , -55.4785071956206 131.424775892547 , -47.9591083552446 116.404022079553 , -43.6413291443347 101.383268266559 , -39.3235499334248 71.4592381228913 , -35.8577058674789 33.3916516320564 , -57.8360371753619 -4.67593485877858 , -79.8143684832448 -16.6364409239476 , -107.462260804245 -20.4075113458644 , -122.629504795745 -24.1785817677812 , -137.796748787245 -22.7976466088047 , -150.443696610691 -20.5905270701724 , -159.376985774562 -18.3834075315401 , -168.310274938432 -6.23436007281123 , -212.802815444025 64.978185531973 , -226.958235995999 136.190731136757 , -241.113656547972 174.769271915659 , -232.260945341695 206.597100736371 , -212.447264128687 238.424929557083 , -192.633582915678 255.922207752538 , -166.366695855169 263.980548291531 , -152.409240616941 272.038888830525 , -138.451785378712 286.038041205535 , -110.16525443411 287.28327806813 , -72.6947055215666 288.528514930726 , -35.2241566090233 276.905917338278 , 2.61219534957782 229.040690736625 , 57.2063586354922 181.175464134972 , 111.800521921407 136.569270048856 , 100.075635399652 127.729254924275 , 97.5204124073613 118.889239799695 , 94.9651894150707 107.246194124766 , 89.8376404320001 95.9965107336885 , 78.9881756514101 84.746827342611 , 68.1387108708201 66.7833032641127 , 43.9566626157658 66.7833032641127 , 0 66.7833032641127 , -43.9566626157658 84.746827342611 , -68.1387108708201 95.9965107336884 , -78.9881756514101 107.246194124766 , -89.8376404320001 118.889239799695 , -94.9651894150707 127.729254924275 , -97.5204124073613 136.569270048856 , -100.075635399652 181.175464134972 , -111.800521921407 229.040690736625 , -57.2063586354923 276.905917338278 , -2.61219534957795 288.528514930726 , 35.2241566090232 287.28327806813 , 72.6947055215665 286.038041205535 , 110.16525443411 272.038888830525 , 138.451785378712 263.980548291531 , 152.409240616941 255.922207752538 , 166.366695855169 238.424929557083 , 192.633582915678 206.597100736371 , 212.447264128686 174.769271915659 , 232.260945341695 136.190731136757 , 241.113656547972 64.978185531973 , 226.958235995999 -6.2343600728112 , 212.802815444025 -18.3834075315401 , 168.310274938432 -20.5905270701724 , 159.376985774562 -22.7976466088047 , 150.443696610691 -24.1785817677812 , 137.796748787245 -20.4075113458644 , 122.629504795745 -16.6364409239476 , 107.462260804245 -4.67593485877857 , 79.8143684832448 33.3916516320564 , 57.8360371753619 71.4592381228913 , 35.8577058674789 101.383268266559 , 39.3235499334247 116.404022079553 , 43.6413291443346 131.424775892547 , 47.9591083552445 141.6868864085 , 55.4785071956206 148.319781994448 , 61.8565733672003 154.952677580396 , 68.2346395387801 187.409824207783 , 101.002293522619 164.062505204652 , 169.751877360506 140.715186201521 , 238.501461198394 113.759243015067 , 267.485101950718 80.6861773317597 , 285.141969650253 47.613111648452 , 302.798837349788 16.1166810779864 , 304.818481233881 0 , 304.818481233881 -16.1166810779864 , 304.818481233881 -47.613111648452 , 302.798837349788 -80.6861773317596 , 285.141969650253 -113.759243015067 , 267.485101950718 -140.715186201521 , 238.501461198394 -164.062505204652 , 169.751877360506 -187.409824207783 , 101.002293522619 -154.952677580396 , 68.2346395387803 -148.319781994448 , 61.8565733672005 -141.6868864085 , 55.4785071956207 -131.424775892547 , 47.9591083552447 -116.404022079553 , 43.6413291443347 -101.383268266559 , 39.3235499334248 -71.4592381228913 , 35.857705867479 -33.3916516320564 , 57.8360371753619 4.6759348587786 , 79.8143684832448 16.6364409239476 , 107.462260804245 20.4075113458644 , 122.629504795745 24.1785817677812 , 137.796748787245 22.7976466088048 , 150.443696610691 20.5905270701724 , 159.376985774562 18.3834075315401 , 168.310274938432 6.23436007281126 , 212.802815444025 -64.9781855319729 , 226.958235995999 -136.190731136757 , 241.113656547972 -174.769271915658 , 232.260945341695 -206.597100736371 , 212.447264128687 -238.424929557083 , 192.633582915678 -255.922207752538 , 166.366695855169 -263.980548291531 , 152.409240616941 -272.038888830525 , 138.451785378713 -286.038041205535 , 110.16525443411 -287.28327806813 , 72.6947055215667 -288.528514930726 , 35.2241566090234 -276.905917338278 , -2.61219534957792 -229.040690736625 , -57.2063586354923 -181.175464134972 , -111.800521921407 -136.569270048856 , -100.075635399652 -127.729254924275 , -97.5204124073613 -118.889239799695 , -94.9651894150707 -107.246194124766 , -89.8376404320001 -95.9965107336884 , -78.9881756514101 -84.746827342611 , -68.1387108708201 -66.7833032641127 , -43.9566626157658 -66.7833032641127 , 0 -66.7833032641127 , 43.9566626157658 -84.746827342611 , 68.1387108708202 -95.9965107336884 , 78.9881756514102 -107.246194124766 , 89.8376404320002 -118.889239799695 , 94.9651894150708 -127.729254924275 , 97.5204124073614 -136.569270048855 , 100.075635399652 -181.175464134972 , 111.800521921407 -229.040690736625 , 57.2063586354924 -276.905917338278 , 2.61219534957806 -288.528514930726 , -35.2241566090233 -287.28327806813 , -72.6947055215666 -286.038041205535 , -110.16525443411 -272.038888830525 , -138.451785378712 -263.980548291531 , -152.409240616941 -255.922207752538 , -166.366695855169 -238.424929557083 , -192.633582915678 -206.597100736371 , -212.447264128686 Z "
     style="fill:none;fill-rule:evenodd;stroke:#000000;stroke-width:0.89626217;stroke-linecap:butt;stroke-linejoin:miter;stroke-miterlimit:4;stroke-dasharray:none;stroke-opacity:1"
     id="use4244" />
</svg>
