<?xml version="1.0" encoding="UTF-8" standalone="no"?>
<svg
   xmlns:dc="http://purl.org/dc/elements/1.1/"
   xmlns:cc="http://creativecommons.org/ns#"
   xmlns:rdf="http://www.w3.org/1999/02/22-rdf-syntax-ns#"
   xmlns:svg="http://www.w3.org/2000/svg"
   xmlns="http://www.w3.org/2000/svg"
   xmlns:sodipodi="http://sodipodi.sourceforge.net/DTD/sodipodi-0.dtd"
   xmlns:inkscape="http://www.inkscape.org/namespaces/inkscape"
   width="618"
   height="600"
   viewBox="0 0 618 600"
   id="svg2"
   version="1.1"
   inkscape:version="0.91 r13725"
   sodipodi:docname="hexknot.svg">
  <metadata
     id="metadata28">
    <rdf:RDF>
      <cc:Work
         rdf:about="">
        <dc:format>image/svg+xml</dc:format>
        <dc:type
           rdf:resource="http://purl.org/dc/dcmitype/StillImage" />
        <dc:title>20 crossings ornamental knot (five-fold symmetry)</dc:title>
      </cc:Work>
    </rdf:RDF>
  </metadata>
  <defs
     id="defs26" />
  <sodipodi:namedview
     pagecolor="#ffffff"
     bordercolor="#666666"
     borderopacity="1"
     objecttolerance="10"
     gridtolerance="10"
     guidetolerance="10"
     inkscape:pageopacity="0"
     inkscape:pageshadow="2"
     inkscape:window-width="2084"
     inkscape:window-height="1049"
     id="namedview24"
     showgrid="false"
     inkscape:zoom="0.52506775"
     inkscape:cx="122.58316"
     inkscape:cy="331.35761"
     inkscape:window-x="538"
     inkscape:window-y="146"
     inkscape:window-maximized="0"
     inkscape:current-layer="svg2" />
  <title
     id="title4">20 crossings ornamental knot (five-fold symmetry)</title>
  <path
     sodipodi:nodetypes="zzzzzzzzzzzzzzzzzzzzzzzzzzzzzzzzzzzzzzzzzzzzzzzzzzzzzzz"
     inkscape:connector-curvature="0"
       d="M  -241.8834112809 , -173.19068825886 C  -211.184185933434 , -198.631687580145 -171.44432004053 , -205.710458133945 -124.917030075617 , -200.981571383096 -78.3897401107043 , -196.252684632247 -48.0671759308921 , -173.611384817793 -36.3770804209578 , -141.272823325898 -24.6869849110236 , -108.934261834002 -33.5280156870011 , -71.6063041258096 -56.8247802294449 , -39.7448038725562 -80.1215447718888 , -7.88330361930286 -105.296126990319 , 1.90671755286004 -122.154590455379 , 4.08459616862942 -139.013053920439 , 6.2624747843988 -152.558838541001 , 2.03556054753575 -161.388963649514 , -2.41588276611245 -170.219088758026 , -6.86732607976065 -215.23996900087 , -31.3355657729889 -201.322168240221 , -119.391439349069 -187.404367479572 , -207.44731292515 -156.025609311859 , -249.151358038644 -122.86755954198 , -272.891993653761 -89.7095097721013 , -296.632629268879 -56.6857258508827 , -302.238842799522 -49.7063386320284 , -303.374910620349 -42.7269514131741 , -304.510978441176 -8.33633429299504 , -309.938332419494 29.0458300906339 , -296.072523052728 66.4279944742629 , -282.206713685962 92.428322547867 , -251.330365556621 111.596631472468 , -208.672107102337 130.76494039707 , -166.013848648054 126.318281672959 , -128.433087853225 104.157313654099 , -102.139887423008 81.9963456352397 , -75.8466869927907 45.248870600565 , -64.839265386331 6.00761970734137 , -69.0841051794452 -33.2336311858823 , -73.3289449725594 -54.2993293337778 , -90.2357621172983 -64.614659273923 , -103.746680438928 -74.9299892140683 , -117.257598760557 -78.0422664156077 , -131.102049474587 -78.6022659767383 , -140.974883793978 -79.162265537869 , -150.847718113369 -80.4825884990685 , -202.071063951023 2.73493535057258 , -234.045831715531 85.9524592002136 , -266.020599480038 137.758600792928 , -259.697820324338 174.897619222549 , -242.852424691233 212.03663765217 , -226.007029058128 233.403652949356 , -200.210700018586 237.877210152042 , -194.734407294623 242.350767354727 , -189.25811457066 264.246302335371 , -162.18864348192 270.929241371534 , -122.881834793869 277.612180407697 , -83.5750261058173 263.872642588397 , -45.6199074226757 236.513661548086 , -7.69053571924098 209.154680507774 , 30.2388359841938 174.385457603851 , 45.178296964568 140.534394075057 , 39.1329359028898 106.683330546263 , 33.0875748412115 78.7768862875662 , 6.76703873947866 62.8323999367863 , -29.3393013068889 46.8879135860064 , -65.4456413532565 50.9967976565409 , -92.1424796701582 57.5399311814558 , -107.831276607557 64.0830647063708 , -123.520073544956 74.5165721253932 , -133.137610022123 82.7866976727753 , -138.559001027866 91.0568232201574 , -143.980392033609 134.757380501802 , -170.735498178034 204.057103590793 , -114.654392366461 273.356826679785 , -58.5732865548887 293.784210104787 , -10.5464622856938 297.765178764529 , 30.0395689625287 301.746147424271 , 70.6256002107513 290.089378800239 , 102.028142780936 287.58354878407 , 108.640503325726 285.077718767901 , 115.252863870516 272.582636628366 , 147.749688937574 241.8834112809 , 173.19068825886 211.184185933434 , 198.631687580145 171.44432004053 , 205.710458133945 124.917030075617 , 200.981571383096 78.3897401107044 , 196.252684632247 48.0671759308921 , 173.611384817793 36.3770804209578 , 141.272823325898 24.6869849110236 , 108.934261834002 33.5280156870011 , 71.6063041258096 56.8247802294449 , 39.7448038725562 80.1215447718888 , 7.88330361930285 105.296126990319 , -1.90671755286 122.154590455379 , -4.08459616862937 139.013053920439 , -6.26247478439875 152.558838541001 , -2.0355605475357 161.388963649514 , 2.4158827661125 170.219088758026 , 6.86732607976071 215.23996900087 , 31.3355657729888 201.322168240221 , 119.391439349069 187.404367479572 , 207.44731292515 156.025609311859 , 249.151358038644 122.86755954198 , 272.891993653761 89.7095097721013 , 296.632629268879 56.6857258508827 , 302.238842799522 49.7063386320284 , 303.374910620349 42.7269514131741 , 304.510978441176 8.33633429299507 , 309.938332419494 -29.0458300906339 , 296.072523052728 -66.4279944742628 , 282.206713685962 -92.4283225478669 , 251.330365556621 -111.596631472468 , 208.672107102337 -130.76494039707 , 166.013848648054 -126.318281672959 , 128.433087853225 -104.157313654099 , 102.139887423008 -81.9963456352397 , 75.8466869927907 -45.248870600565 , 64.839265386331 -6.00761970734136 , 69.0841051794452 33.2336311858823 , 73.3289449725594 54.2993293337778 , 90.2357621172982 64.6146592739231 , 103.746680438928 74.9299892140683 , 117.257598760557 78.0422664156077 , 131.102049474587 78.6022659767384 , 140.974883793978 79.162265537869 , 150.847718113369 80.4825884990685 , 202.071063951023 -2.73493535057255 , 234.045831715531 -85.9524592002136 , 266.020599480038 -137.758600792928 , 259.697820324338 -174.897619222549 , 242.852424691233 -212.03663765217 , 226.007029058128 -233.403652949356 , 200.210700018586 -237.877210152042 , 194.734407294623 -242.350767354727 , 189.25811457066 -264.24630233537 , 162.18864348192 -270.929241371533 , 122.881834793869 -277.612180407696 , 83.5750261058174 -263.872642588397 , 45.6199074226756 -236.513661548086 , 7.6905357192409 -209.154680507774 , -30.2388359841938 -174.385457603851 , -45.178296964568 -140.534394075057 , -39.1329359028898 -106.683330546263 , -33.0875748412116 -78.7768862875662 , -6.76703873947863 -62.8323999367863 , 29.339301306889 -46.8879135860064 , 65.4456413532565 -50.9967976565409 , 92.1424796701582 -57.5399311814558 , 107.831276607557 -64.0830647063707 , 123.520073544956 -74.5165721253932 , 133.137610022123 -82.7866976727753 , 138.559001027866 -91.0568232201574 , 143.980392033609 -134.757380501801 , 170.735498178034 -204.057103590793 , 114.654392366461 -273.356826679785 , 58.5732865548888 -293.784210104787 , 10.5464622856937 -297.765178764529 , -30.0395689625288 -301.746147424271 , -70.6256002107514 -290.089378800239 , -102.028142780936 -287.58354878407 , -108.640503325726 -285.077718767901 , -115.252863870516 -272.582636628366 , -147.749688937574 -241.8834112809 , -173.19068825886 Z "
     style="fill:none;fill-rule:evenodd;stroke:#000000;stroke-width:0.89626217;stroke-linecap:butt;stroke-linejoin:miter;stroke-miterlimit:4;stroke-dasharray:none;stroke-opacity:1"
     id="use4244" />
</svg>
