<?xml version="1.0" encoding="UTF-8" standalone="no"?>
<svg
   xmlns:dc="http://purl.org/dc/elements/1.1/"
   xmlns:cc="http://creativecommons.org/ns#"
   xmlns:rdf="http://www.w3.org/1999/02/22-rdf-syntax-ns#"
   xmlns:svg="http://www.w3.org/2000/svg"
   xmlns="http://www.w3.org/2000/svg"
   xmlns:sodipodi="http://sodipodi.sourceforge.net/DTD/sodipodi-0.dtd"
   xmlns:inkscape="http://www.inkscape.org/namespaces/inkscape"
   width="618"
   height="600"
   viewBox="0 0 618 600"
   id="svg2"
   version="1.1"
   inkscape:version="0.92.2 5c3e80d, 2017-08-06"
   sodipodi:docname="hexknot3.svg">
  <metadata
     id="metadata28">
    <rdf:RDF>
      <cc:Work
         rdf:about="">
        <dc:format>image/svg+xml</dc:format>
        <dc:type
           rdf:resource="http://purl.org/dc/dcmitype/StillImage" />
        <dc:title>20 crossings ornamental knot (five-fold symmetry)</dc:title>
      </cc:Work>
    </rdf:RDF>
  </metadata>
  <defs
     id="defs26" />
  <sodipodi:namedview
     pagecolor="#ffffff"
     bordercolor="#666666"
     borderopacity="1"
     objecttolerance="10"
     gridtolerance="10"
     guidetolerance="10"
     inkscape:pageopacity="0"
     inkscape:pageshadow="2"
     inkscape:window-width="2560"
     inkscape:window-height="1315"
     id="namedview24"
     showgrid="false"
     inkscape:zoom="4"
     inkscape:cx="-88.491636"
     inkscape:cy="547.50362"
     inkscape:window-x="963"
     inkscape:window-y="913"
     inkscape:window-maximized="0"
     inkscape:current-layer="svg2" />
  <title
     id="title4">20 crossings ornamental knot (five-fold symmetry)</title>
  <path
     sodipodi:nodetypes="zzzzzzzzzzzzzzzzzzzzzzzzzzzzzzzzzzzzzzzzzzzzzzzzzzzzzzzzzzzzz"
     inkscape:connector-curvature="0"
     id="path838"
       d="M  278.945391849556 , 58.2478670595834 C  277.451980048031 , 36.8363656040477 270.540050487195 , 0.709034963345836 221.003018348791 , -49.8552888612641 171.465986210387 , -100.419612685874 123.456839278626 , -98.3614174296032 90.9231565369556 , -85.1689271866175 58.3894737952851 , -71.9764369436318 45.5318961746297 , -42.8651807598573 44.8301953774916 , -41.2765551258194 44.1284945803535 , -39.6879294917815 36.6848790986686 , -22.8371775153013 36.6848790986686 , 0 36.6848790986686 , 22.8371775153013 44.1284945803535 , 39.6879294917815 44.8301953774916 , 41.2765551258194 45.5318961746297 , 42.8651807598573 58.3894737952851 , 71.9764369436318 90.9231565369557 , 85.1689271866175 123.456839278626 , 98.3614174296032 171.465986210387 , 100.419612685874 221.003018348791 , 49.855288861264 270.540050487195 , -0.709034963345928 277.451980048031 , -36.8363656040478 278.945391849556 , -58.2478670595835 280.43880365108 , -79.6593685151192 280.655958478473 , -105.186718292387 256.039153949817 , -147.824274456011 231.422349421161 , -190.461830619634 209.20643860906 , -203.037443911192 189.916828514636 , -212.449862080528 170.627218420212 , -221.862280249864 135.884067534026 , -233.940038981363 67.3255625075296 , -216.321872633724 -1.23294251896732 , -198.703706286085 -23.4550666069687 , -156.097467801024 -28.2968762882 , -121.326226946581 -33.1386859694313 , -86.5549860921386 -14.3563873885335 , -60.8643691496335 -13.3314476309226 , -59.4623656164371 -12.3065078733117 , -58.0603620832408 -1.43513632965136 , -43.1886259918584 18.3424395493343 , -31.7700372342078 38.12001542832 , -20.3514484765572 56.4350024536652 , -18.3724325914593 58.1616430084142 , -18.1858104906177 59.8882835631632 , -17.9991883897762 91.5281597647164 , -14.5785491485068 119.220032825156 , -36.157299759964 146.911905885595 , -57.7360503714212 172.698928729354 , -98.2840936002106 153.677455841262 , -166.46658377246 134.655982953169 , -234.649073944709 106.824761627819 , -258.698645853912 89.0285633349197 , -270.697729140112 71.2323650420207 , -282.696812426311 49.233609057312 , -295.648548912021 0 , -295.648548912021 -49.233609057312 , -295.648548912021 -71.2323650420207 , -282.696812426311 -89.0285633349197 , -270.697729140112 -106.824761627819 , -258.698645853912 -134.655982953169 , -234.649073944708 -153.677455841262 , -166.46658377246 -172.698928729355 , -98.2840936002106 -146.911905885595 , -57.7360503714212 -119.220032825156 , -36.157299759964 -91.5281597647164 , -14.5785491485068 -59.8882835631632 , -17.9991883897762 -58.1616430084142 , -18.1858104906177 -56.4350024536652 , -18.3724325914593 -38.12001542832 , -20.3514484765572 -18.3424395493343 , -31.7700372342078 1.43513632965134 , -43.1886259918584 12.3065078733117 , -58.0603620832408 13.3314476309226 , -59.4623656164371 14.3563873885335 , -60.8643691496335 33.1386859694313 , -86.5549860921386 28.2968762882 , -121.326226946581 23.4550666069687 , -156.097467801024 1.23294251896731 , -198.703706286085 -67.3255625075296 , -216.321872633724 -135.884067534026 , -233.940038981363 -170.627218420212 , -221.862280249864 -189.916828514636 , -212.449862080528 -209.20643860906 , -203.037443911192 -231.422349421161 , -190.461830619634 -256.039153949817 , -147.824274456011 -280.655958478473 , -105.186718292387 -280.43880365108 , -79.6593685151192 -278.945391849556 , -58.2478670595835 -277.451980048031 , -36.8363656040478 -270.540050487195 , -0.709034963345729 -221.003018348791 , 49.8552888612641 -171.465986210387 , 100.419612685874 -123.456839278626 , 98.3614174296033 -90.9231565369556 , 85.1689271866175 -58.3894737952851 , 71.9764369436318 -45.5318961746297 , 42.8651807598573 -44.8301953774916 , 41.2765551258194 -44.1284945803535 , 39.6879294917815 -36.6848790986686 , 22.8371775153013 -36.6848790986686 , 0 -36.6848790986686 , -22.8371775153013 -44.1284945803535 , -39.6879294917815 -44.8301953774916 , -41.2765551258194 -45.5318961746297 , -42.8651807598573 -58.3894737952851 , -71.9764369436318 -90.9231565369556 , -85.1689271866175 -123.456839278626 , -98.3614174296032 -171.465986210387 , -100.419612685874 -221.003018348791 , -49.855288861264 -270.540050487195 , 0.709034963345857 -277.451980048031 , 36.8363656040479 -278.945391849556 , 58.2478670595836 -280.43880365108 , 79.6593685151193 -280.655958478473 , 105.186718292387 -256.039153949817 , 147.824274456011 -231.422349421161 , 190.461830619635 -209.20643860906 , 203.037443911192 -189.916828514636 , 212.449862080528 -170.627218420212 , 221.862280249864 -135.884067534026 , 233.940038981363 -67.3255625075295 , 216.321872633724 1.23294251896735 , 198.703706286085 23.4550666069688 , 156.097467801024 28.2968762882001 , 121.326226946581 33.1386859694314 , 86.5549860921386 14.3563873885335 , 60.8643691496335 13.3314476309226 , 59.4623656164371 12.3065078733117 , 58.0603620832408 1.43513632965137 , 43.1886259918584 -18.3424395493343 , 31.7700372342078 -38.12001542832 , 20.3514484765572 -56.4350024536651 , 18.3724325914593 -58.1616430084142 , 18.1858104906178 -59.8882835631632 , 17.9991883897762 -91.5281597647164 , 14.5785491485068 -119.220032825156 , 36.1572997599641 -146.911905885595 , 57.7360503714213 -172.698928729354 , 98.2840936002107 -153.677455841261 , 166.46658377246 -134.655982953168 , 234.649073944709 -106.824761627819 , 258.698645853912 -89.0285633349197 , 270.697729140112 -71.2323650420207 , 282.696812426311 -49.2336090573119 , 295.648548912021 0 , 295.648548912021 49.233609057312 , 295.648548912021 71.2323650420207 , 282.696812426311 89.0285633349197 , 270.697729140112 106.824761627819 , 258.698645853912 134.655982953169 , 234.649073944708 153.677455841262 , 166.46658377246 172.698928729355 , 98.2840936002106 146.911905885595 , 57.7360503714211 119.220032825156 , 36.157299759964 91.5281597647165 , 14.5785491485068 59.8882835631632 , 17.9991883897761 58.1616430084142 , 18.1858104906177 56.4350024536652 , 18.3724325914593 38.12001542832 , 20.3514484765572 18.3424395493343 , 31.7700372342078 -1.43513632965136 , 43.1886259918584 -12.3065078733117 , 58.0603620832408 -13.3314476309226 , 59.4623656164371 -14.3563873885335 , 60.8643691496335 -33.1386859694313 , 86.5549860921386 -28.2968762882 , 121.326226946581 -23.4550666069687 , 156.097467801024 -1.23294251896728 , 198.703706286085 67.3255625075296 , 216.321872633724 135.884067534026 , 233.940038981363 170.627218420212 , 221.862280249864 189.916828514636 , 212.449862080528 209.20643860906 , 203.037443911192 231.422349421161 , 190.461830619634 256.039153949817 , 147.824274456011 280.655958478473 , 105.186718292387 280.43880365108 , 79.6593685151191 278.945391849556 , 58.2478670595834 Z "
     style="fill:none;fill-rule:evenodd;stroke:#000000;stroke-width:1px;stroke-linecap:butt;stroke-linejoin:miter;stroke-opacity:1" />
</svg>
