<?xml version="1.0" encoding="UTF-8" standalone="no"?>
<svg
   xmlns:dc="http://purl.org/dc/elements/1.1/"
   xmlns:cc="http://creativecommons.org/ns#"
   xmlns:rdf="http://www.w3.org/1999/02/22-rdf-syntax-ns#"
   xmlns:svg="http://www.w3.org/2000/svg"
   xmlns="http://www.w3.org/2000/svg"
   xmlns:sodipodi="http://sodipodi.sourceforge.net/DTD/sodipodi-0.dtd"
   xmlns:inkscape="http://www.inkscape.org/namespaces/inkscape"
   width="618"
   height="600"
   viewBox="0 0 618 600"
   id="svg2"
   version="1.1"
   inkscape:version="0.91 r13725"
   sodipodi:docname="hexknot.svg">
  <metadata
     id="metadata28">
    <rdf:RDF>
      <cc:Work
         rdf:about="">
        <dc:format>image/svg+xml</dc:format>
        <dc:type
           rdf:resource="http://purl.org/dc/dcmitype/StillImage" />
        <dc:title>20 crossings ornamental knot (five-fold symmetry)</dc:title>
      </cc:Work>
    </rdf:RDF>
  </metadata>
  <defs
     id="defs26" />
  <sodipodi:namedview
     pagecolor="#ffffff"
     bordercolor="#666666"
     borderopacity="1"
     objecttolerance="10"
     gridtolerance="10"
     guidetolerance="10"
     inkscape:pageopacity="0"
     inkscape:pageshadow="2"
     inkscape:window-width="2084"
     inkscape:window-height="1049"
     id="namedview24"
     showgrid="false"
     inkscape:zoom="0.52506775"
     inkscape:cx="122.58316"
     inkscape:cy="331.35761"
     inkscape:window-x="538"
     inkscape:window-y="146"
     inkscape:window-maximized="0"
     inkscape:current-layer="svg2" />
  <title
     id="title4">20 crossings ornamental knot (five-fold symmetry)</title>
  <path
     sodipodi:nodetypes="zzzzzzzzzzzzzzzzzzzzzzzzzzzzzzzzzzzzzzzzzzzzzzzzzzzzzzz"
     inkscape:connector-curvature="0"
       d="M  -238.294731293874 , -179.886392180734 C  -202.584990650033 , -205.717460307539 -156.461534551 , -204.486590428744 -129.088327074477 , -200.580490158778 -101.715119597953 , -196.674389888812 -60.076514511275 , -185.240809066662 -42.3266730531728 , -146.582572321782 -24.5768315950705 , -107.924335576901 -38.2803938219837 , -67.8809614574165 -60.2562154611055 , -37.7932917880239 -82.2320371002273 , -7.70562211863134 -105.366930269614 , 2.44493619509856 -122.322663622374 , 5.34885907771786 -139.278396975134 , 8.25278196033717 -152.360104057894 , 4.5137429770671 -159.550072882035 , 1.64785206549004 -166.740041706176 , -1.21803884608702 -219.48774966124 , -22.9384845459755 -205.561212739558 , -114.269084199035 -191.634675817876 , -205.599683852095 -158.880862719553 , -250.563197991521 -123.609222745699 , -275.427203613503 -88.3375827718463 , -300.291209235484 -57.1940422833369 , -305.54472581141 -49.960680342178 , -306.754778703867 -42.7273184010192 , -307.964831596323 -3.58641174991019 , -314.322495475566 36.6388197767093 , -296.312486978849 76.8640513033289 , -278.302478482131 98.8598147690563 , -237.742958850635 109.163636443798 , -212.08401565792 119.46745811854 , -186.425072465206 130.384989213675 , -144.64819227092 105.780894856146 , -109.947260282617 81.1768004986181 , -75.2463282943138 39.6464401444432 , -67.092274245419 2.60184305051379 , -71.080059219238 -34.4427540434157 , -75.067844193057 -54.8008419903941 , -90.0279702347196 -65.7935796537535 , -103.260104616696 -76.786317317113 , -116.492238998671 -80.0890681132405 , -129.690849148843 -81.2021181914104 , -137.350490258756 -82.3151682695803 , -145.010131368669 -89.8785644894886 , -201.551209299101 -3.82067658623165 , -235.155774364712 82.2372113170253 , -268.760339430323 137.553663354351 , -262.876462286081 176.722343849753 , -244.762328846576 215.891024345154 , -226.648195407072 236.012473403364 , -202.303856468196 240.677090918733 , -196.644607718613 245.341708434103 , -190.98535896903 270.418060187805 , -160.267171421636 274.933551070584 , -116.426094798114 279.449041953362 , -72.5850181745925 255.321349320056 , -33.2563684218906 238.251963518275 , -11.5035254991422 221.182577716493 , 10.2493174236061 190.46150372495 , 40.5926167957424 148.107567909319 , 36.635312039165 105.753632093689 , 32.6780072825876 77.9268339664269 , 0.788687211997527 62.8580585116193 , -33.2867674312141 47.7892830568117 , -67.3622220744257 50.5660882792194 , -92.4729064298181 56.5290839686203 , -108.608963694413 62.4920796580213 , -124.745020959009 72.2710359446532 , -134.20459212591 78.3479546906245 , -138.998342324246 84.4248734365957 , -143.792092522582 129.609185171752 , -178.612724753126 201.740536153326 , -120.886690165677 273.871887134901 , -63.1606555782287 296.434526073903 , -12.3132642945601 300.331566595452 , 30.6648747669262 304.228607117001 , 73.6430138284125 293.206515686701 , 103.240869343214 290.637771260911 , 110.110170985253 288.069026835122 , 116.979472627293 274.004471937715 , 154.05532405393 238.294731293874 , 179.886392180734 202.584990650033 , 205.717460307539 156.461534551 , 204.486590428744 129.088327074477 , 200.580490158778 101.715119597953 , 196.674389888812 60.0765145112751 , 185.240809066662 42.3266730531728 , 146.582572321782 24.5768315950705 , 107.924335576901 38.2803938219837 , 67.8809614574165 60.2562154611055 , 37.7932917880239 82.2320371002273 , 7.70562211863131 105.366930269614 , -2.44493619509852 122.322663622374 , -5.34885907771781 139.278396975134 , -8.25278196033711 152.360104057894 , -4.51374297706705 159.550072882035 , -1.64785206548999 166.740041706176 , 1.21803884608708 219.48774966124 , 22.9384845459754 205.561212739558 , 114.269084199035 191.634675817876 , 205.599683852095 158.880862719553 , 250.563197991521 123.609222745699 , 275.427203613503 88.3375827718463 , 300.291209235484 57.1940422833369 , 305.54472581141 49.9606803421781 , 306.754778703867 42.7273184010192 , 307.964831596323 3.58641174991022 , 314.322495475566 -36.6388197767093 , 296.312486978849 -76.8640513033288 , 278.302478482131 -98.8598147690562 , 237.742958850635 -109.163636443798 , 212.08401565792 -119.46745811854 , 186.425072465206 -130.384989213675 , 144.64819227092 -105.780894856146 , 109.947260282617 -81.176800498618 , 75.2463282943139 -39.6464401444432 , 67.092274245419 -2.60184305051378 , 71.080059219238 34.4427540434157 , 75.067844193057 54.8008419903941 , 90.0279702347196 65.7935796537536 , 103.260104616695 76.786317317113 , 116.492238998671 80.0890681132405 , 129.690849148843 81.2021181914104 , 137.350490258756 82.3151682695803 , 145.010131368669 89.8785644894887 , 201.551209299101 3.82067658623168 , 235.155774364712 -82.2372113170253 , 268.760339430323 -137.553663354351 , 262.876462286081 -176.722343849752 , 244.762328846576 -215.891024345154 , 226.648195407072 -236.012473403364 , 202.303856468196 -240.677090918733 , 196.644607718613 -245.341708434103 , 190.985358969031 -270.418060187805 , 160.267171421637 -274.933551070583 , 116.426094798115 -279.449041953362 , 72.5850181745926 -255.321349320056 , 33.2563684218905 -238.251963518275 , 11.5035254991422 -221.182577716493 , -10.2493174236062 -190.46150372495 , -40.5926167957425 -148.107567909319 , -36.6353120391651 -105.753632093689 , -32.6780072825877 -77.9268339664269 , -0.788687211997498 -62.8580585116193 , 33.2867674312141 -47.7892830568116 , 67.3622220744257 -50.5660882792194 , 92.4729064298181 -56.5290839686203 , 108.608963694413 -62.4920796580213 , 124.745020959009 -72.2710359446532 , 134.20459212591 -78.3479546906244 , 138.998342324246 -84.4248734365957 , 143.792092522582 -129.609185171752 , 178.612724753126 -201.740536153326 , 120.886690165677 -273.871887134901 , 63.1606555782288 -296.434526073903 , 12.31326429456 -300.331566595452 , -30.6648747669263 -304.228607117001 , -73.6430138284126 -293.206515686701 , -103.240869343214 -290.637771260911 , -110.110170985253 -288.069026835122 , -116.979472627293 -274.004471937715 , -154.05532405393 -238.294731293874 , -179.886392180734 Z "
     style="fill:none;fill-rule:evenodd;stroke:#000000;stroke-width:0.89626217;stroke-linecap:butt;stroke-linejoin:miter;stroke-miterlimit:4;stroke-dasharray:none;stroke-opacity:1"
     id="use4244" />
</svg>
