<?xml version="1.0" encoding="UTF-8" standalone="no"?>
<svg
   xmlns:dc="http://purl.org/dc/elements/1.1/"
   xmlns:cc="http://creativecommons.org/ns#"
   xmlns:rdf="http://www.w3.org/1999/02/22-rdf-syntax-ns#"
   xmlns:svg="http://www.w3.org/2000/svg"
   xmlns="http://www.w3.org/2000/svg"
   xmlns:sodipodi="http://sodipodi.sourceforge.net/DTD/sodipodi-0.dtd"
   xmlns:inkscape="http://www.inkscape.org/namespaces/inkscape"
   width="618"
   height="600"
   viewBox="0 0 618 600"
   id="svg2"
   version="1.1"
   inkscape:version="0.92.2 5c3e80d, 2017-08-06"
   sodipodi:docname="hexknot3.svg">
  <metadata
     id="metadata28">
    <rdf:RDF>
      <cc:Work
         rdf:about="">
        <dc:format>image/svg+xml</dc:format>
        <dc:type
           rdf:resource="http://purl.org/dc/dcmitype/StillImage" />
        <dc:title>20 crossings ornamental knot (five-fold symmetry)</dc:title>
      </cc:Work>
    </rdf:RDF>
  </metadata>
  <defs
     id="defs26" />
  <sodipodi:namedview
     pagecolor="#ffffff"
     bordercolor="#666666"
     borderopacity="1"
     objecttolerance="10"
     gridtolerance="10"
     guidetolerance="10"
     inkscape:pageopacity="0"
     inkscape:pageshadow="2"
     inkscape:window-width="2560"
     inkscape:window-height="1315"
     id="namedview24"
     showgrid="false"
     inkscape:zoom="4"
     inkscape:cx="-88.491636"
     inkscape:cy="547.50362"
     inkscape:window-x="963"
     inkscape:window-y="913"
     inkscape:window-maximized="0"
     inkscape:current-layer="svg2" />
  <title
     id="title4">20 crossings ornamental knot (five-fold symmetry)</title>
  <path
     sodipodi:nodetypes="zzzzzzzzzzzzzzzzzzzzzzzzzzzzzzzzzzzzzzzzzzzzzzzzzzzzzzzzzzzzz"
     inkscape:connector-curvature="0"
     id="path838"
       d="M  275.633264857095 , 39.7794669163502 C  263.249348897683 , 0.13243770271788 220.231809467683 , -39.0584972126047 188.941976272437 , -60.3835480453773 157.65214307719 , -81.7085988781499 122.288439677933 , -90.7406249243834 90.3646361419446 , -77.5790211460363 58.4408326059565 , -64.4174173676893 43.4992192797546 , -38.4716007782961 42.9364508551834 , -37.4943530110448 42.3736824306123 , -36.5171052437936 33.5166111626712 , -21.1368712960166 33.5166111626712 , 0 33.5166111626712 , 21.1368712960166 42.3736824306123 , 36.5171052437936 42.9364508551835 , 37.4943530110448 43.4992192797546 , 38.4716007782961 58.4408326059566 , 64.4174173676892 90.3646361419447 , 77.5790211460363 122.288439677933 , 90.7406249243833 157.65214307719 , 81.7085988781498 188.941976272437 , 60.3835480453772 220.231809467683 , 39.0584972126046 263.249348897683 , -0.132437702717986 275.633264857095 , -39.7794669163503 288.017180816507 , -79.4264961299827 286.553071659486 , -115.316772743509 264.848431083773 , -152.910312980666 243.143790508059 , -190.503853217823 212.793953790405 , -209.71694724848 172.266661327109 , -218.815676036114 131.739368863814 , -227.914404823747 76.2902539140823 , -210.25559032673 42.1773015582835 , -193.820325315856 8.06434920248469 , -177.385060304981 -17.439466500825 , -151.275207812442 -22.0030850422253 , -117.04758107568 -26.5667035836255 , -82.8199543389169 -11.5677739583803 , -56.9072293302053 -11.0028367784347 , -55.9312336944534 -10.4378995984891 , -54.9552380587014 -1.54676191753689 , -39.5946723636467 16.7583055813356 , -29.0262367156383 35.0633730802081 , -18.45780106763 52.8115820291013 , -18.4381328149078 53.9392876336181 , -18.4368806834085 55.0669932381349 , -18.4356285519093 85.0075361895821 , -18.4025369712277 112.36772118417 , -39.4685599296433 139.727906178758 , -60.534582888059 149.587793874706 , -95.676461426831 146.764674714153 , -133.436777270478 143.941555553601 , -171.197093114126 131.509980033869 , -228.046842526465 103.366603529985 , -258.595142952464 75.223227026102 , -289.143443378462 43.409281151427 , -305.820625961332 0 , -305.820625961332 -43.409281151427 , -305.820625961332 -75.223227026102 , -289.143443378462 -103.366603529985 , -258.595142952464 -131.509980033869 , -228.046842526465 -143.941555553601 , -171.197093114126 -146.764674714153 , -133.436777270478 -149.587793874706 , -95.6764614268309 -139.727906178758 , -60.534582888059 -112.36772118417 , -39.4685599296433 -85.0075361895821 , -18.4025369712277 -55.0669932381349 , -18.4356285519093 -53.9392876336181 , -18.4368806834085 -52.8115820291013 , -18.4381328149078 -35.0633730802081 , -18.45780106763 -16.7583055813356 , -29.0262367156383 1.54676191753688 , -39.5946723636467 10.4378995984891 , -54.9552380587014 11.0028367784347 , -55.9312336944534 11.5677739583803 , -56.9072293302053 26.5667035836255 , -82.8199543389169 22.0030850422253 , -117.04758107568 17.439466500825 , -151.275207812442 -8.06434920248469 , -177.385060304981 -42.1773015582835 , -193.820325315856 -76.2902539140823 , -210.25559032673 -131.739368863814 , -227.914404823747 -172.266661327109 , -218.815676036113 -212.793953790405 , -209.71694724848 -243.143790508059 , -190.503853217823 -264.848431083773 , -152.910312980666 -286.553071659486 , -115.316772743509 -288.017180816507 , -79.4264961299826 -275.633264857095 , -39.7794669163503 -263.249348897683 , -0.132437702717965 -220.231809467683 , 39.0584972126048 -188.941976272437 , 60.3835480453774 -157.65214307719 , 81.70859887815 -122.288439677933 , 90.7406249243834 -90.3646361419446 , 77.5790211460363 -58.4408326059565 , 64.4174173676893 -43.4992192797546 , 38.4716007782961 -42.9364508551834 , 37.4943530110449 -42.3736824306123 , 36.5171052437936 -33.5166111626712 , 21.1368712960166 -33.5166111626712 , 0 -33.5166111626712 , -21.1368712960166 -42.3736824306123 , -36.5171052437936 -42.9364508551834 , -37.4943530110448 -43.4992192797546 , -38.4716007782961 -58.4408326059565 , -64.4174173676893 -90.3646361419446 , -77.5790211460363 -122.288439677933 , -90.7406249243833 -157.65214307719 , -81.7085988781499 -188.941976272437 , -60.3835480453773 -220.231809467683 , -39.0584972126047 -263.249348897683 , 0.132437702718093 -275.633264857095 , 39.7794669163504 -288.017180816507 , 79.4264961299828 -286.553071659486 , 115.31677274351 -264.848431083773 , 152.910312980666 -243.143790508059 , 190.503853217823 -212.793953790405 , 209.71694724848 -172.266661327109 , 218.815676036114 -131.739368863814 , 227.914404823747 -76.2902539140823 , 210.25559032673 -42.1773015582835 , 193.820325315856 -8.06434920248468 , 177.385060304981 17.439466500825 , 151.275207812442 22.0030850422253 , 117.04758107568 26.5667035836255 , 82.8199543389169 11.5677739583803 , 56.9072293302053 11.0028367784347 , 55.9312336944534 10.4378995984891 , 54.9552380587014 1.54676191753691 , 39.5946723636467 -16.7583055813356 , 29.0262367156384 -35.0633730802081 , 18.4578010676301 -52.8115820291013 , 18.4381328149078 -53.9392876336181 , 18.4368806834086 -55.0669932381349 , 18.4356285519093 -85.0075361895821 , 18.4025369712277 -112.36772118417 , 39.4685599296434 -139.727906178758 , 60.5345828880591 -149.587793874706 , 95.676461426831 -146.764674714153 , 133.436777270478 -143.941555553601 , 171.197093114126 -131.509980033869 , 228.046842526465 -103.366603529985 , 258.595142952464 -75.223227026102 , 289.143443378462 -43.4092811514269 , 305.820625961332 0 , 305.820625961332 43.409281151427 , 305.820625961332 75.2232270261021 , 289.143443378462 103.366603529985 , 258.595142952464 131.509980033869 , 228.046842526465 143.941555553601 , 171.197093114126 146.764674714153 , 133.436777270478 149.587793874706 , 95.6764614268309 139.727906178758 , 60.534582888059 112.36772118417 , 39.4685599296433 85.0075361895821 , 18.4025369712276 55.0669932381349 , 18.4356285519093 53.9392876336181 , 18.4368806834085 52.8115820291014 , 18.4381328149078 35.0633730802081 , 18.45780106763 16.7583055813356 , 29.0262367156383 -1.54676191753689 , 39.5946723636467 -10.437899598489 , 54.9552380587014 -11.0028367784347 , 55.9312336944534 -11.5677739583803 , 56.9072293302053 -26.5667035836255 , 82.8199543389169 -22.0030850422253 , 117.04758107568 -17.439466500825 , 151.275207812442 8.06434920248471 , 177.385060304981 42.1773015582835 , 193.820325315856 76.2902539140823 , 210.25559032673 131.739368863814 , 227.914404823747 172.266661327109 , 218.815676036113 212.793953790405 , 209.71694724848 243.143790508059 , 190.503853217823 264.848431083773 , 152.910312980666 286.553071659486 , 115.316772743509 288.017180816507 , 79.4264961299826 275.633264857095 , 39.7794669163502 Z "
     style="fill:none;fill-rule:evenodd;stroke:#000000;stroke-width:1px;stroke-linecap:butt;stroke-linejoin:miter;stroke-opacity:1" />
</svg>
