<?xml version="1.0" encoding="UTF-8" standalone="no"?>
<!-- Created with Inkscape (http://www.inkscape.org/) -->

<svg
   xmlns:dc="http://purl.org/dc/elements/1.1/"
   xmlns:cc="http://creativecommons.org/ns#"
   xmlns:rdf="http://www.w3.org/1999/02/22-rdf-syntax-ns#"
   xmlns:svg="http://www.w3.org/2000/svg"
   xmlns="http://www.w3.org/2000/svg"
   xmlns:sodipodi="http://sodipodi.sourceforge.net/DTD/sodipodi-0.dtd"
   xmlns:inkscape="http://www.inkscape.org/namespaces/inkscape"
   width="744.09448819"
   height="1052.3622047"
   id="svg2"
   version="1.1"
   inkscape:version="0.91 r13725"
   sodipodi:docname="k11a179.svg">
  <defs
     id="defs4" />
  <sodipodi:namedview
     id="base"
     pagecolor="#ffffff"
     bordercolor="#666666"
     borderopacity="1.0"
     inkscape:pageopacity="0.0"
     inkscape:pageshadow="2"
     inkscape:zoom="1.1039128"
     inkscape:cx="102.54323"
     inkscape:cy="315.97206"
     inkscape:document-units="px"
     inkscape:current-layer="layer1"
     showgrid="false"
     inkscape:window-width="1215"
     inkscape:window-height="776"
     inkscape:window-x="65"
     inkscape:window-y="24"
     inkscape:window-maximized="1" />
  <metadata
     id="metadata7">
    <rdf:RDF>
      <cc:Work
         rdf:about="">
        <dc:format>image/svg+xml</dc:format>
        <dc:type
           rdf:resource="http://purl.org/dc/dcmitype/StillImage" />
        <dc:title />
      </cc:Work>
    </rdf:RDF>
  </metadata>
  <g
     inkscape:label="Layer 1"
     inkscape:groupmode="layer"
     id="layer1">
    <path
       style="fill:none;stroke:#000000;stroke-width:2.84591985px;stroke-linecap:butt;stroke-linejoin:miter;stroke-opacity:1"
       d="M  0 , 509.588046290483 C  -60.4581563228422 , 509.588046290483 -106.079419889705 , 490.575500311746 -161.227261205499 , 468.103244501854 -216.375102521292 , 445.630988691962 -284.138419236048 , 416.752455654974 -295.96308388386 , 346.089291879226 -307.787748531673 , 275.426128103479 -246.215137537325 , 218.326147581271 -176.275056202438 , 236.763798450243 -106.334974867551 , 255.201449319216 -74.865735573394 , 332.09881616347 -77.6972668576945 , 402.139654179833 -80.5287981419951 , 472.180492196196 -100.180549852955 , 534.938800376254 -153.557143188423 , 587.532590762332 -206.93373652389 , 640.126381148409 -238.840731446424 , 638.918400287988 -267.562603283478 , 685.271484906827 -296.284475120531 , 731.624569525667 -291.644195428907 , 792.036474694992 -247.007689320158 , 832.643175002477 -202.371183211408 , 873.249875309962 -173.452704721204 , 852.836646762241 -86.9129883674128 , 901.540801541839 -0.373272013621403 , 950.244956321438 -0.255698356659281 , 985.808099056086 55.4583970597522 , 1001.1116162532 111.172492476164 , 1016.41513345032 167.870390993501 , 987.861468335749 186.083248026163 , 928.873884408238 204.296105058825 , 869.886300480726 168.4053891872 , 850.152554777531 182.845988555122 , 746.030219652757 197.286587923044 , 641.907884527983 242.576777915019 , 637.657918359423 253.499771447086 , 551.11199838669 264.422764979154 , 464.566078413957 211.908320228213 , 403.40266026108 170.86852148485 , 366.511234265561 129.828722741487 , 329.619808270042 72.9679750753269 , 298.778620779039 0 , 298.778620779039 -72.9679750753269 , 298.778620779039 -129.828722741487 , 329.619808270042 -170.86852148485 , 366.511234265561 -211.908320228213 , 403.40266026108 -264.422764979154 , 464.566078413957 -253.499771447086 , 551.11199838669 -242.576777915019 , 637.657918359423 -197.286587923044 , 641.907884527983 -182.845988555122 , 746.030219652757 -168.4053891872 , 850.152554777531 -204.296105058825 , 869.886300480726 -186.083248026163 , 928.873884408238 -167.870390993501 , 987.861468335749 -111.172492476164 , 1016.41513345032 -55.4583970597522 , 1001.1116162532 0.255698356659281 , 985.808099056086 0.373272013621403 , 950.244956321438 86.9129883674128 , 901.540801541839 173.452704721204 , 852.836646762241 202.371183211408 , 873.249875309962 247.007689320158 , 832.643175002477 291.644195428907 , 792.036474694992 296.284475120531 , 731.624569525667 267.562603283478 , 685.271484906827 238.840731446424 , 638.918400287988 206.93373652389 , 640.126381148409 153.557143188423 , 587.532590762332 100.180549852955 , 534.938800376254 80.5287981419951 , 472.180492196196 77.6972668576945 , 402.139654179833 74.865735573394 , 332.09881616347 106.334974867551 , 255.201449319216 176.275056202438 , 236.763798450243 246.215137537325 , 218.326147581271 307.787748531673 , 275.426128103479 295.96308388386 , 346.089291879226 284.138419236048 , 416.752455654974 216.375102521292 , 445.630988691962 161.227261205499 , 468.103244501854 106.079419889705 , 490.575500311746 60.4581563228422 , 509.588046290483 0 , 509.588046290483 Z "
       id="path3050"
       inkscape:connector-curvature="0"
       sodipodi:nodetypes="zzzzzzzzzzzzzzzzzzzzzzzzzzzzz" />
  </g>
</svg>
