<?xml version="1.0" encoding="UTF-8" standalone="no"?>
<!-- Created with Inkscape (http://www.inkscape.org/) -->

<svg
   xmlns:dc="http://purl.org/dc/elements/1.1/"
   xmlns:cc="http://creativecommons.org/ns#"
   xmlns:rdf="http://www.w3.org/1999/02/22-rdf-syntax-ns#"
   xmlns:svg="http://www.w3.org/2000/svg"
   xmlns="http://www.w3.org/2000/svg"
   xmlns:sodipodi="http://sodipodi.sourceforge.net/DTD/sodipodi-0.dtd"
   xmlns:inkscape="http://www.inkscape.org/namespaces/inkscape"
   width="744.09448819"
   height="1052.3622047"
   id="svg2"
   version="1.1"
   inkscape:version="0.48.4 r9939"
   sodipodi:docname="k11a203.svg">
  <defs
     id="defs4" />
  <sodipodi:namedview
     id="base"
     pagecolor="#ffffff"
     bordercolor="#666666"
     borderopacity="1.0"
     inkscape:pageopacity="0.0"
     inkscape:pageshadow="2"
     inkscape:zoom="1.0404226"
     inkscape:cx="-128.63486"
     inkscape:cy="813.72403"
     inkscape:document-units="px"
     inkscape:current-layer="layer1"
     showgrid="false"
     inkscape:window-width="1600"
     inkscape:window-height="824"
     inkscape:window-x="-3"
     inkscape:window-y="-3"
     inkscape:window-maximized="1" />
  <metadata
     id="metadata7">
    <rdf:RDF>
      <cc:Work
         rdf:about="">
        <dc:format>image/svg+xml</dc:format>
        <dc:type
           rdf:resource="http://purl.org/dc/dcmitype/StillImage" />
      </cc:Work>
    </rdf:RDF>
  </metadata>
  <g
     inkscape:label="Layer 1"
     inkscape:groupmode="layer"
     id="layer1">
    <path
       style="fill:none;stroke:#ff00d7;stroke-width:13.60849762;stroke-linecap:butt;stroke-linejoin:miter;stroke-miterlimit:4;stroke-opacity:1;stroke-dasharray:none"
       d="M 100.32092,-365.58489 C 162.26999,-347.98083 155.46952,-238.08622 193.24093,-173.81379 231.01234,-109.54137 307.84598,-53.03246 327.6784,17.957291 347.51082,88.947041 355.91489,122.59768 325.37302,184.2152 294.83115,245.8327 217.68305,358.00705 159.63156,359.98201 101.58004,361.95698 34.023173,319.16223 44.964304,272.99307 55.905433,226.82388 140.68858,209.27325 183.35582,247.29179 226.02304,285.31032 243.46264,404.03492 169.51666,448.94798 95.57067,493.86103 -98.594231,343.76681 -121.1055,322.41858 -143.61678,301.07036 -223.81116,256.08166 -245.76138,197.17716 -267.71161,138.27266 -260.04755,96.307156 -255.16644,29.724921 -250.28535,-36.857317 -172.09538,-96.954225 -142.85273,-161.95167 -113.61007,-226.94913 -154.73203,-331.0228 -95.40423,-359.65382 -36.076416,-388.28484 14.337908,-304.58561 78.573687,-278.59593 142.80947,-252.60626 246.08169,-330.95506 298.02306,-219.2853 349.96445,-107.61556 191.4222,-59.155585 129.97624,2.1410861 68.530284,63.437756 -5.9003459,83.473415 -55.863774,154.37177 -105.8272,225.27013 -214.20829,369.09886 -154.71486,427.20072 -95.221429,485.30259 10.050275,386.06193 54.849415,356.02797 99.648557,325.99402 118.46921,321.70373 122.06815,278.92414 125.66707,236.14452 79.481544,196.57145 41.010253,146.46366 2.5389622,96.355871 -66.144415,46.458689 -113.1974,-15.652093 -160.25037,-77.762874 -266.12258,-157.35251 -237.74976,-225.21636 -209.37692,-293.0802 -102.80895,-248.35535 -45.978666,-272.66487 10.851611,-296.97438 38.371839,-383.18894 100.32092,-365.58489 z"
       id="path3149"
       inkscape:connector-curvature="0"
       sodipodi:nodetypes="zzzzzzzzzzzzzzzzzzzzzzzzz" />
  </g>
</svg>
