<?xml version="1.0" encoding="UTF-8" standalone="no"?>
<!-- Created with Inkscape (http://www.inkscape.org/) -->

<svg
   xmlns:dc="http://purl.org/dc/elements/1.1/"
   xmlns:cc="http://creativecommons.org/ns#"
   xmlns:rdf="http://www.w3.org/1999/02/22-rdf-syntax-ns#"
   xmlns:svg="http://www.w3.org/2000/svg"
   xmlns="http://www.w3.org/2000/svg"
   xmlns:sodipodi="http://sodipodi.sourceforge.net/DTD/sodipodi-0.dtd"
   xmlns:inkscape="http://www.inkscape.org/namespaces/inkscape"
   width="210mm"
   height="297mm"
   viewBox="0 0 744.09448819 1052.3622047"
   id="svg2"
   version="1.1"
   inkscape:version="0.91 r13725"
   sodipodi:docname="k11a361.svg">
  <defs
     id="defs4" />
  <sodipodi:namedview
     id="base"
     pagecolor="#ffffff"
     bordercolor="#666666"
     borderopacity="1.0"
     inkscape:pageopacity="0.0"
     inkscape:pageshadow="2"
     inkscape:zoom="1.5982422"
     inkscape:cx="-50.46743"
     inkscape:cy="845.35748"
     inkscape:document-units="px"
     inkscape:current-layer="layer1"
     showgrid="false"
     inkscape:window-width="2560"
     inkscape:window-height="1315"
     inkscape:window-x="918"
     inkscape:window-y="682"
     inkscape:window-maximized="0" />
  <metadata
     id="metadata7">
    <rdf:RDF>
      <cc:Work
         rdf:about="">
        <dc:format>image/svg+xml</dc:format>
        <dc:type
           rdf:resource="http://purl.org/dc/dcmitype/StillImage" />
        <dc:title />
      </cc:Work>
    </rdf:RDF>
  </metadata>
  <g
     inkscape:label="Layer 1"
     inkscape:groupmode="layer"
     id="layer1">
    <path
       style="fill:none;fill-rule:evenodd;stroke:#000000;stroke-width:2.01371908px;stroke-linecap:butt;stroke-linejoin:miter;stroke-opacity:1"
       d="M  66.9481476335606 , -277.825227841621 C  135.740559952124 , -294.386823336223 197.07572858941 , -255.78174880204 216.902864831995 , -199.447718385076 236.73000107458 , -143.113687968112 210.213226624218 , -100.7883659362 183.698710973335 , -55.623727391197 157.184195322452 , -10.4590888461937 120.44380041928 , 39.1497063650824 58.286285328218 , 27.5419175588477 -3.87122976284449 , 15.934128752613 1.29416758654918 , -23.5923137589101 -59.3533145160913 , -31.1380476684687 -120.000796618732 , -38.6837815780273 -156.228379055275 , 11.4765423640331 -180.745176970038 , 50.7532977953797 -205.261974884801 , 90.0300532267264 -242.390965517963 , 148.371554837626 -251.414585974969 , 229.599822991067 -260.438206431974 , 310.828091144507 -242.766631231016 , 453.322136315544 -140.826891068068 , 510.924542217724 -38.8871509051193 , 568.526948119904 38.0534535453627 , 488.858966704765 29.9882693991781 , 421.318577112594 21.9230852529936 , 353.778187520424 -20.4847016884199 , 359.289384421936 -29.4075399479161 , 298.906357439816 -38.3303782074124 , 238.523330457697 7.2990255779489 , 193.192316105711 98.0483047182613 , 155.989874803181 188.797583858574 , 118.787433500651 232.81372493685 , 105.628234042786 261.932903807011 , 65.6144251551466 291.052082677172 , 25.6006162675071 292.57687746792 , -26.0216370908006 262.006910412718 , -68.274632255476 231.436943357515 , -110.527627420151 200.440805585681 , -106.35652392756 97.4805790312593 , -165.766327435807 -5.4796475231625 , -225.176130944055 1.84426468500294 , -261.263632347019 -66.9481476335606 , -277.825227841621 -135.740559952124 , -294.386823336223 -197.07572858941 , -255.78174880204 -216.902864831995 , -199.447718385076 -236.73000107458 , -143.113687968112 -210.213226624218 , -100.7883659362 -183.698710973335 , -55.623727391197 -157.184195322452 , -10.4590888461937 -120.44380041928 , 39.1497063650824 -58.286285328218 , 27.5419175588477 3.87122976284449 , 15.934128752613 -1.6609457496702 , -23.1706436321294 59.0495442267362 , -31.0576985841228 119.760034203143 , -38.9447535361162 156.228379055275 , 11.4765423640331 180.745176970038 , 50.7532977953797 205.261974884801 , 90.0300532267264 242.390965517963 , 148.371554837626 251.414585974969 , 229.599822991067 260.438206431974 , 310.828091144507 242.766631231016 , 453.322136315544 140.826891068068 , 510.924542217724 38.8871509051193 , 568.526948119904 -38.0534535453627 , 488.858966704765 -29.9882693991781 , 421.318577112594 -21.9230852529936 , 353.778187520424 20.4847016884199 , 359.289384421936 29.4075399479161 , 298.906357439816 38.3303782074124 , 238.523330457697 -7.2990255779489 , 193.192316105711 -98.0483047182613 , 155.989874803181 -188.797583858574 , 118.787433500651 -232.81372493685 , 105.628234042786 -261.932903807011 , 65.6144251551466 -291.052082677172 , 25.6006162675071 -292.57687746792 , -26.0216370908006 -262.006910412718 , -68.274632255476 -231.436943357515 , -110.527627420151 -200.440805585681 , -106.35652392756 -97.4805790312593 , -165.766327435807 5.4796475231625 , -225.176130944055 -1.84426468500294 , -261.263632347019 66.9481476335606 , -277.825227841621 Z "
       id="path3401"
       inkscape:connector-curvature="0"
       sodipodi:nodetypes="zzzzzzzzzzzzzzzzzzzzzzzzzzzzz" />
  </g>
</svg>
