<?xml version="1.0" encoding="UTF-8" standalone="no"?>
<!-- Created with Inkscape (http://www.inkscape.org/) -->

<svg
   xmlns:dc="http://purl.org/dc/elements/1.1/"
   xmlns:cc="http://creativecommons.org/ns#"
   xmlns:rdf="http://www.w3.org/1999/02/22-rdf-syntax-ns#"
   xmlns:svg="http://www.w3.org/2000/svg"
   xmlns="http://www.w3.org/2000/svg"
   xmlns:sodipodi="http://sodipodi.sourceforge.net/DTD/sodipodi-0.dtd"
   xmlns:inkscape="http://www.inkscape.org/namespaces/inkscape"
   width="210mm"
   height="297mm"
   viewBox="0 0 744.09448819 1052.3622047"
   id="svg2"
   version="1.1"
   inkscape:version="0.91 r13725"
   sodipodi:docname="k11a1.svg">
  <defs
     id="defs4" />
  <sodipodi:namedview
     id="base"
     pagecolor="#ffffff"
     bordercolor="#666666"
     borderopacity="1.0"
     inkscape:pageopacity="0.0"
     inkscape:pageshadow="2"
     inkscape:zoom="0.67708333"
     inkscape:cx="127.51751"
     inkscape:cy="1014.3109"
     inkscape:document-units="px"
     inkscape:current-layer="layer1"
     showgrid="false"
     inkscape:window-width="1600"
     inkscape:window-height="835"
     inkscape:window-x="0"
     inkscape:window-y="0"
     inkscape:window-maximized="1" />
  <metadata
     id="metadata7">
    <rdf:RDF>
      <cc:Work
         rdf:about="">
        <dc:format>image/svg+xml</dc:format>
        <dc:type
           rdf:resource="http://purl.org/dc/dcmitype/StillImage" />
        <dc:title></dc:title>
      </cc:Work>
    </rdf:RDF>
  </metadata>
  <g
     inkscape:label="Layer 1"
     inkscape:groupmode="layer"
     id="layer1">
    <path
       style="fill:none;fill-rule:evenodd;stroke:#000000;stroke-width:2.9789145px;stroke-linecap:butt;stroke-linejoin:miter;stroke-opacity:1"
       d="M  127.1328761472 , -301.749837720721 C  137.507432449702 , -300.213566230075 172.297001196249 , -294.396300627409 207.928028728832 , -266.772008212471 243.559056261415 , -239.147715797533 279.230281833923 , -185.032397047554 273.580238048205 , -116.569673560141 267.930194262487 , -48.106950072728 229.984134263909 , -5.32941719542777 163.845415709538 , 43.221626423479 97.706697155167 , 91.7726700423858 42.8826153981216 , 103.783146522963 0 , 103.783146522963 -42.8826153981216 , 103.783146522963 -60.251722917878 , 95.8120805755794 -120.281620971574 , 84.4754208791686 -180.31151902527 , 73.1387611827578 -225.005671532452 , 75.0216678601215 -274.052635679528 , 28.4350212504002 -323.099599826604 , -18.1516253593211 -332.244814105154 , -93.167804567359 -298.083516692661 , -154.89877269717 -263.922219280168 , -216.629740826981 -196.81155694826 , -255.959636919547 -120.184432349695 , -250.22940483689 -43.55730775113 , -244.499172754233 -8.27377011406526 , -200.208604969625 3.51874459525223 , -181.066854124548 15.3112593045697 , -161.925103279471 26.6307522421754 , -133.173791675924 22.4235371319731 , -92.3174669085137 18.2163220217708 , -51.4611421411034 1.6555358532452 , -29.238413932096 -27.5134380936614 , 32.0022904190269 -56.682412040568 , 93.2429947701498 -59.4912809569899 , 115.021648577048 -88.5100476289088 , 153.804459258437 -117.528814300828 , 192.587269939826 -178.737184274369 , 246.446390057739 -274.292263349553 , 228.302688662635 -369.847342424737 , 210.158987267531 -445.320404049023 , 109.885520284027 -397.479283739067 , 14.0754530248045 -349.638163429111 , -81.734614234418 -266.796538288732 , -48.5356902516435 -256.890893088365 , -44.276070992037 -246.985247887998 , -40.0164517324305 -219.25748289515 , -26.3504286221432 -200.920438231401 , 13.5506022556062 -182.583393567652 , 53.4516331333556 -187.815111336386 , 85.2783583169382 -168.693772538164 , 140.936733733227 -149.572433739942 , 196.595109149516 -113.347793449224 , 237.410862006139 -60.0480417359233 , 259.310882357117 -6.7482900226226 , 281.210902708095 48.4641280489356 , 280.179030961351 102.201781463778 , 261.94276686211 155.93943487862 , 243.706502762869 204.822664105697 , 202.186495448628 262.773884384665 , 153.986849877075 320.725104663633 , 105.787204305522 378.152883009788 , 63.6805198124148 404.80938501827 , -11.7085225062424 431.465887026752 , -87.0975648248996 410.053112160257 , -173.48369277922 339.302638093851 , -203.566964140871 268.552164027445 , -233.650235502522 221.964776401382 , -185.268808646721 208.008366905542 , -160.386173456315 194.051957409702 , -135.503538265909 189.973904347136 , -104.965424926046 201.280543531452 , -71.8381012842816 212.587182715768 , -38.7107776425172 234.128191900562 , -14.3310075743576 280.747525088152 , 33.7370849567753 327.366858275742 , 81.8051774879082 354.822119458446 , 116.434521759868 354.261734309329 , 163.119201646163 353.701349160212 , 209.803881532458 319.65229476966 , 255.012609402949 262.954385109253 , 256.882572859166 206.256475448846 , 258.752536315383 166.67058351567 , 216.899983419296 129.312887342859 , 161.66300590697 91.955191170048 , 106.426028394644 90.2964817445231 , 89.0553153875077 48.7074945472942 , 28.2226785316767 7.1185073500653 , -32.6099583241543 -27.681286622668 , -43.4195611907492 -47.9509193788391 , -120.488247616641 -68.2205521350102 , -197.556934042533 -20.3327373018068 , -259.135880070546 26.6700670738035 , -284.164164109787 73.6728714494138 , -309.192448149028 116.758319844698 , -303.286109211367 127.1328761472 , -301.749837720721 Z "
       id="path4201"
       inkscape:connector-curvature="0"
       sodipodi:nodetypes="zzzzzzzzzzzzzzzzzzzzzzzzzzzzzzzzz" />
  </g>
</svg>
