<?xml version="1.0" encoding="UTF-8" standalone="no"?>
<!-- Created with Inkscape (http://www.inkscape.org/) -->

<svg
   xmlns:dc="http://purl.org/dc/elements/1.1/"
   xmlns:cc="http://creativecommons.org/ns#"
   xmlns:rdf="http://www.w3.org/1999/02/22-rdf-syntax-ns#"
   xmlns:svg="http://www.w3.org/2000/svg"
   xmlns="http://www.w3.org/2000/svg"
   xmlns:sodipodi="http://sodipodi.sourceforge.net/DTD/sodipodi-0.dtd"
   xmlns:inkscape="http://www.inkscape.org/namespaces/inkscape"
   width="210mm"
   height="297mm"
   viewBox="0 0 744.09448819 1052.3622047"
   id="svg2"
   version="1.1"
   inkscape:version="0.91 r13725"
   sodipodi:docname="k11a1.svg">
  <defs
     id="defs4" />
  <sodipodi:namedview
     id="base"
     pagecolor="#ffffff"
     bordercolor="#666666"
     borderopacity="1.0"
     inkscape:pageopacity="0.0"
     inkscape:pageshadow="2"
     inkscape:zoom="0.67708333"
     inkscape:cx="127.51751"
     inkscape:cy="1014.3109"
     inkscape:document-units="px"
     inkscape:current-layer="layer1"
     showgrid="false"
     inkscape:window-width="1600"
     inkscape:window-height="835"
     inkscape:window-x="0"
     inkscape:window-y="0"
     inkscape:window-maximized="1" />
  <metadata
     id="metadata7">
    <rdf:RDF>
      <cc:Work
         rdf:about="">
        <dc:format>image/svg+xml</dc:format>
        <dc:type
           rdf:resource="http://purl.org/dc/dcmitype/StillImage" />
        <dc:title></dc:title>
      </cc:Work>
    </rdf:RDF>
  </metadata>
  <g
     inkscape:label="Layer 1"
     inkscape:groupmode="layer"
     id="layer1">
    <path
       style="fill:none;fill-rule:evenodd;stroke:#000000;stroke-width:2.9789145px;stroke-linecap:butt;stroke-linejoin:miter;stroke-opacity:1"
       d="M  126.420534806025 , -299.81806346867 C  134.379317404208 , -298.681049809238 170.765785551996 , -293.191379577989 207.419463028757 , -264.75338258935 244.073140505518 , -236.315385600711 280.229649423713 , -181.060846491053 273.33130544369 , -108.391310431612 266.432961463667 , -35.721774372171 223.345699942271 , -5.913798016641 159.367765761831 , 39.4941045498521 95.389831581391 , 84.9020071163452 52.3170992819306 , 103.913649704981 0 , 103.913649704981 -52.3170992819306 , 103.913649704981 -58.5130120912264 , 90.9032953434934 -122.886687045161 , 78.4108829773615 -187.260361999096 , 65.9184706112296 -213.874161970058 , 85.747861848724 -269.841844843256 , 35.2129026594965 -325.809527716454 , -15.322056529731 -328.630661641401 , -99.7476646706256 -294.429744718504 , -156.907865373045 -260.228827795607 , -214.068066075464 -196.575112608328 , -251.884189505968 -121.066252585904 , -248.11350934277 -45.55739256348 , -244.342829179572 -7.17613848337861 , -198.725483381076 4.26872930186152 , -182.322538841898 15.7135970871017 , -165.91959430272 33.538526189701 , -132.839872602617 25.1217574379165 , -85.7622806465943 16.704988686132 , -38.6846886905716 -3.45028856722905 , -33.4684602133092 -35.1730792058263 , 26.5759854377399 -66.8958698444235 , 86.620431088789 -61.525265304095 , 107.241281637499 -92.9638799796646 , 152.465155079752 -124.402494655234 , 197.689028522005 -182.822430617187 , 248.735907618734 -273.42071806306 , 229.504244171303 -364.019005508933 , 210.272580723872 -438.491743168004 , 112.892581459118 -396.442307434701 , 16.5507351763973 -354.392871701398 , -79.7911111063234 -264.496064015634 , -48.6730739259949 -256.511719393901 , -45.8360206054164 -248.527374772168 , -42.9989672848379 -212.091464936984 , -29.3556098713084 -193.402898963947 , 15.3340305498257 -174.71433299091 , 60.0236709709598 -191.380055733256 , 82.7008119327938 -174.049332808177 , 141.574176861801 -156.718609883098 , 200.447541790808 -122.400541866362 , 241.686079216091 -66.3882152308286 , 264.50917331327 -10.3758885952952 , 287.332267410449 52.6604384333003 , 284.542934132964 106.861777099338 , 262.130246050682 161.063115765376 , 239.7175579684 202.176285714215 , 192.511967047565 258.461781850202 , 145.575650794462 314.747277986189 , 98.639334541359 375.930001958259 , 62.7224014636084 403.918920323581 , -14.2886236836277 431.907838688903 , -91.2996488308638 405.474005154958 , -171.229657772872 338.845741036615 , -198.156539213359 272.217476918272 , -225.083420653846 223.236120897847 , -178.628993203757 208.07461340599 , -156.074295498655 192.913105914133 , -133.519597793553 184.312608756936 , -102.807585929739 194.969191776715 , -66.9245336524625 205.625774796494 , -31.041481375186 227.016396898241 , -11.6267602642144 275.199603154899 , 35.8324750603989 323.382809411557 , 83.2917103850122 353.470235656058 , 109.339669157588 356.843551740783 , 160.390396581834 360.216867825508 , 211.44112400608 324.296915099465 , 261.982232576698 263.164053485972 , 262.223054587607 202.031191872479 , 262.463876598516 170.204416641419 , 217.786940596403 131.594907273141 , 158.000676004074 92.985397904863 , 98.214411411745 98.8394858046391 , 86.71252079995 53.8519836067437 , 24.1898149122143 8.86448140884831 , -38.3328909755214 -31.9171702911696 , -29.921282300467 -55.3369779285872 , -114.942351515612 -78.7567855660048 , -199.963420730757 -22.1313041288013 , -261.628702660498 25.7797332188818 , -284.320506129591 73.6907705665649 , -307.012309598684 118.461752207842 , -300.955077128102 126.420534806025 , -299.81806346867 Z "
       id="path4201"
       inkscape:connector-curvature="0"
       sodipodi:nodetypes="zzzzzzzzzzzzzzzzzzzzzzzzzzzzzzzzz" />
  </g>
</svg>
