<?xml version="1.0" encoding="UTF-8" standalone="no"?>
<!-- Created with Inkscape (http://www.inkscape.org/) -->

<svg
   xmlns:dc="http://purl.org/dc/elements/1.1/"
   xmlns:cc="http://creativecommons.org/ns#"
   xmlns:rdf="http://www.w3.org/1999/02/22-rdf-syntax-ns#"
   xmlns:svg="http://www.w3.org/2000/svg"
   xmlns="http://www.w3.org/2000/svg"
   xmlns:sodipodi="http://sodipodi.sourceforge.net/DTD/sodipodi-0.dtd"
   xmlns:inkscape="http://www.inkscape.org/namespaces/inkscape"
   width="744.09448819"
   height="1052.3622047"
   id="svg2"
   version="1.1"
   inkscape:version="0.48.4 r9939"
   sodipodi:docname="k11a43.svg">
  <defs
     id="defs4" />
  <sodipodi:namedview
     id="base"
     pagecolor="#ffffff"
     bordercolor="#666666"
     borderopacity="1.0"
     inkscape:pageopacity="0.0"
     inkscape:pageshadow="2"
     inkscape:zoom="1.2122212"
     inkscape:cx="251.54338"
     inkscape:cy="468.7682"
     inkscape:document-units="px"
     inkscape:current-layer="layer1"
     showgrid="false"
     inkscape:window-width="1600"
     inkscape:window-height="824"
     inkscape:window-x="-3"
     inkscape:window-y="-3"
     inkscape:window-maximized="1" />
  <metadata
     id="metadata7">
    <rdf:RDF>
      <cc:Work
         rdf:about="">
        <dc:format>image/svg+xml</dc:format>
        <dc:type
           rdf:resource="http://purl.org/dc/dcmitype/StillImage" />
        <dc:title />
      </cc:Work>
    </rdf:RDF>
  </metadata>
  <g
     inkscape:label="Layer 1"
     inkscape:groupmode="layer"
     id="layer1">
    <path
       style="fill:none;stroke:#ff0000;stroke-width:17.11122322;stroke-linecap:butt;stroke-linejoin:miter;stroke-miterlimit:4;stroke-opacity:1;stroke-dasharray:none"
       d="M  166.055770496044 , 156.037326629452 C  286.078590729348 , 216.626405730561 278.885276281196 , 352.304217665902 273.228241717097 , 431.024594980697 267.571207152999 , 509.744972295492 264.565322646594 , 578.115431782511 207.518230779704 , 638.033504062299 150.471138912814 , 697.951576342087 83.2561709052611 , 705.005640135314 0 , 705.005640135314 -83.2561709052611 , 705.005640135314 -150.471138912814 , 697.951576342087 -207.518230779704 , 638.033504062299 -264.565322646594 , 578.115431782511 -267.571207152999 , 509.744972295492 -273.228241717097 , 431.024594980697 -278.885276281196 , 352.304217665902 -286.078590729348 , 216.626405730561 -166.055770496044 , 156.037326629452 -46.0329502627398 , 95.4482475283431 34.7574794116684 , 183.371257159684 37.8409624864643 , 253.712899033856 40.9244455612601 , 324.054540908028 -5.45787609993883 , 354.388148167283 -51.6541349789004 , 395.126082007416 -97.8503938578619 , 435.864015847549 -120.824884162132 , 463.417392603907 -175.320631226237 , 493.873995678519 -229.816378290342 , 524.330598753131 -368.41156825206 , 567.999328509101 -398.050367655035 , 445.394713214742 -427.68916705801 , 322.790097920383 -263.141731602028 , 268.37406230165 -159.186668494878 , 379.344313015723 -55.2316053877294 , 490.314563729797 -141.022032372642 , 399.017790497167 -53.9120280402638 , 491.60880831647 33.1979762921144 , 584.199826135772 -30.1127672696993 , 515.33569059729 48.0408204870706 , 599.944631801096 126.194408243841 , 684.553573004901 118.037299919247 , 831.531304036212 0 , 831.531304036212 -118.037299919247 , 831.531304036212 -126.194408243841 , 684.553573004901 -48.0408204870706 , 599.944631801096 30.1127672696993 , 515.33569059729 -33.1979762921144 , 584.199826135772 53.9120280402638 , 491.60880831647 141.022032372642 , 399.017790497167 55.2316053877294 , 490.314563729797 159.186668494878 , 379.344313015723 263.141731602028 , 268.37406230165 427.68916705801 , 322.790097920383 398.050367655035 , 445.394713214742 368.41156825206 , 567.999328509101 229.816378290342 , 524.330598753131 175.320631226237 , 493.873995678519 120.824884162132 , 463.417392603907 97.8503938578619 , 435.864015847549 51.6541349789004 , 395.126082007416 5.45787609993882 , 354.388148167283 -40.9244455612601 , 324.054540908028 -37.8409624864643 , 253.712899033856 -34.7574794116684 , 183.371257159684 46.0329502627398 , 95.4482475283431 166.055770496044 , 156.037326629452 Z "
       id="path3050"
       inkscape:connector-curvature="0"
       sodipodi:nodetypes="zzzzzzzzzzzzzzzzzzzzzzz" />
  </g>
</svg>
