<?xml version="1.0" encoding="UTF-8" standalone="no"?>
<!-- Created with Inkscape (http://www.inkscape.org/) -->

<svg
   xmlns:dc="http://purl.org/dc/elements/1.1/"
   xmlns:cc="http://creativecommons.org/ns#"
   xmlns:rdf="http://www.w3.org/1999/02/22-rdf-syntax-ns#"
   xmlns:svg="http://www.w3.org/2000/svg"
   xmlns="http://www.w3.org/2000/svg"
   xmlns:sodipodi="http://sodipodi.sourceforge.net/DTD/sodipodi-0.dtd"
   xmlns:inkscape="http://www.inkscape.org/namespaces/inkscape"
   width="210mm"
   height="297mm"
   viewBox="0 0 744.09448819 1052.3622047"
   id="svg3435"
   version="1.1"
   inkscape:version="0.91 r13725"
   sodipodi:docname="k11n157_morenodes.svg">
  <defs
     id="defs3437" />
  <sodipodi:namedview
     id="base"
     pagecolor="#ffffff"
     bordercolor="#666666"
     borderopacity="1.0"
     inkscape:pageopacity="0.0"
     inkscape:pageshadow="2"
     inkscape:zoom="1.5982422"
     inkscape:cx="224.83503"
     inkscape:cy="702.78846"
     inkscape:document-units="px"
     inkscape:current-layer="layer1"
     showgrid="false"
     inkscape:window-width="2560"
     inkscape:window-height="1315"
     inkscape:window-x="1218"
     inkscape:window-y="259"
     inkscape:window-maximized="0" />
  <metadata
     id="metadata3440">
    <rdf:RDF>
      <cc:Work
         rdf:about="">
        <dc:format>image/svg+xml</dc:format>
        <dc:type
           rdf:resource="http://purl.org/dc/dcmitype/StillImage" />
        <dc:title />
      </cc:Work>
    </rdf:RDF>
  </metadata>
  <g
     inkscape:label="Layer 1"
     inkscape:groupmode="layer"
     id="layer1">
    <path
       style="fill:none;fill-rule:evenodd;stroke:#000000;stroke-width:2.92032433px;stroke-linecap:butt;stroke-linejoin:miter;stroke-opacity:1"
       d="M  216.505273686593 , -175.404915306416 C  262.468999755565 , -100.034050283551 234.819422405017 , 16.7422619079509 164.297523810987 , 109.33001849016 93.7756252169563 , 201.917775072369 99.9103865060154 , 183.633186418719 47.9353048929146 , 235.97268046108 -4.03977672018615 , 288.31217450344 -17.309748998458 , 310.431359632016 -76.8811936948561 , 331.377731835655 -136.452638391254 , 352.324104039294 -243.115865402964 , 353.326605812784 -301.55366489326 , 264.367102616006 -359.991464383556 , 175.407599419229 -322.503785597639 , 87.9753989387452 -288.80998357143 , 50.779542230436 -255.116181545222 , 13.5836855221267 -219.495972597015 , 2.57380182496438 -147.309698745062 , -17.1597687550029 -75.1234248931091 , -36.8933393349703 -29.8292065754553 , -36.9009980321012 0 , -36.9009980321012 29.8292065754553 , -36.9009980321012 75.1234248931091 , -36.8933393349703 147.309698745062 , -17.1597687550029 219.495972597015 , 2.57380182496438 255.116181545222 , 13.5836855221267 288.80998357143 , 50.779542230436 322.503785597639 , 87.9753989387452 359.991464383556 , 175.407599419229 301.55366489326 , 264.367102616006 243.115865402964 , 353.326605812784 136.452638391254 , 352.324104039294 76.8811936948561 , 331.377731835655 17.309748998458 , 310.431359632016 4.03977672018615 , 288.31217450344 -47.9353048929146 , 235.97268046108 -99.9103865060154 , 183.633186418719 -93.7756252169563 , 201.917775072369 -164.297523810987 , 109.33001849016 -234.819422405017 , 16.7422619079509 -262.468999755565 , -100.034050283551 -216.505273686593 , -175.404915306416 -170.541547617621 , -250.77578032928 -105.989312064642 , -251.288044942956 -70.78651677242 , -243.592580413326 -35.5837214801982 , -235.897115883696 13.3789635264881 , -209.093149573552 46.6595027020839 , -134.651309526344 79.9400418776796 , -60.2094694791367 61.4265752873537 , 4.49043937563171 37.5890005663225 , 46.0587626329736 13.7514258452913 , 87.6270858903156 2.79408061928017 , 93.428359907759 -44.5908950555554 , 140.688146961789 -91.9758707303911 , 187.947934015818 -123.821527695676 , 218.079544011873 -142.139998363289 , 266.691076277196 -160.458469030903 , 315.302608542518 -169.436178850656 , 382.32482541805 -130.893947134962 , 437.072929964557 -92.3517154192683 , 491.821034511065 -32.647015655441 , 504.811479404681 0 , 504.811479404681 32.647015655441 , 504.811479404681 92.3517154192683 , 491.821034511065 130.893947134962 , 437.072929964557 169.436178850656 , 382.32482541805 160.458469030903 , 315.302608542518 142.139998363289 , 266.691076277196 123.821527695676 , 218.079544011873 91.9758707303911 , 187.947934015818 44.5908950555554 , 140.688146961789 -2.79408061928018 , 93.428359907759 -13.7514258452913 , 87.6270858903156 -37.5890005663225 , 46.0587626329736 -61.4265752873537 , 4.49043937563171 -79.9400418776796 , -60.2094694791367 -46.6595027020839 , -134.651309526344 -13.3789635264881 , -209.093149573552 35.5837214801982 , -235.897115883696 70.78651677242 , -243.592580413326 105.989312064642 , -251.288044942956 170.541547617621 , -250.77578032928 216.505273686593 , -175.404915306416 Z "
       id="path3509"
       inkscape:connector-curvature="0"
       sodipodi:nodetypes="zzzzzzzzzzzzzzzzzzzzzzzzzzzzz" />
  </g>
</svg>
