<?xml version="1.0" encoding="UTF-8" standalone="no"?>
<!-- Created with Inkscape (http://www.inkscape.org/) -->

<svg
   xmlns:dc="http://purl.org/dc/elements/1.1/"
   xmlns:cc="http://creativecommons.org/ns#"
   xmlns:rdf="http://www.w3.org/1999/02/22-rdf-syntax-ns#"
   xmlns:svg="http://www.w3.org/2000/svg"
   xmlns="http://www.w3.org/2000/svg"
   xmlns:sodipodi="http://sodipodi.sourceforge.net/DTD/sodipodi-0.dtd"
   xmlns:inkscape="http://www.inkscape.org/namespaces/inkscape"
   width="210mm"
   height="297mm"
   viewBox="0 0 744.09448819 1052.3622047"
   id="svg2"
   version="1.1"
   inkscape:version="0.91 r13725"
   sodipodi:docname="k11n22.svg">
  <defs
     id="defs4" />
  <sodipodi:namedview
     id="base"
     pagecolor="#ffffff"
     bordercolor="#666666"
     borderopacity="1.0"
     inkscape:pageopacity="0.0"
     inkscape:pageshadow="2"
     inkscape:zoom="1.5982422"
     inkscape:cx="-9.1720603"
     inkscape:cy="1070.6049"
     inkscape:document-units="px"
     inkscape:current-layer="layer1"
     showgrid="false"
     inkscape:window-width="1855"
     inkscape:window-height="1028"
     inkscape:window-x="267"
     inkscape:window-y="545"
     inkscape:window-maximized="0" />
  <metadata
     id="metadata7">
    <rdf:RDF>
      <cc:Work
         rdf:about="">
        <dc:format>image/svg+xml</dc:format>
        <dc:type
           rdf:resource="http://purl.org/dc/dcmitype/StillImage" />
        <dc:title />
      </cc:Work>
    </rdf:RDF>
  </metadata>
  <g
     inkscape:label="Layer 1"
     inkscape:groupmode="layer"
     id="layer1">
    <path
       style="fill:none;fill-rule:evenodd;stroke:#000000;stroke-width:15.64130878;stroke-linecap:butt;stroke-linejoin:miter;stroke-miterlimit:4;stroke-dasharray:none;stroke-opacity:1"
       d="M  241.955608290464 , -214.639197896325 C  273.115429580481 , -201.738529096062 300.916776971274 , -179.635320404293 317.112688114777 , -148.611854626702 333.308599258281 , -117.588388849111 348.381200370447 , -45.2893633727713 275.974348571663 , 4.25296980730537 203.567496772879 , 53.795302987382 114.63924810319 , -5.75027651737216 65.433043889585 , 71.4813082062866 16.2268396759803 , 148.712892929945 99.9580224332434 , 214.26770746072 107.691055283723 , 220.309632506911 115.424088134202 , 226.351557553102 185.38208706679 , 281.017151439478 269.821965738104 , 257.155535280605 354.261844409418 , 233.293919121732 434.476710712241 , 140.607173714835 414.378645681636 , 35.8851715443313 394.28058065103 , -68.8368306261728 286.527381919582 , -92.2200670831152 232.111185914845 , -45.2708784504748 177.694989910109 , 1.67831018216549 210.781408713837 , 40.7766826122992 191.480725856224 , 137.581403156774 172.180042998611 , 234.386123701249 152.913872415279 , 285.210990343398 106.981451928225 , 324.044851119144 61.0490314411713 , 362.878711894891 10.2738369980927 , 363.219510946732 0 , 363.219510946732 -10.2738369980927 , 363.219510946732 -61.0490314411713 , 362.878711894891 -106.981451928225 , 324.044851119144 -152.913872415279 , 285.210990343398 -170.676330205361 , 237.381349984988 -191.399093159963 , 139.24786131992 -212.121856114565 , 41.1143726548522 -177.694989910109 , 1.67831018216549 -232.111185914845 , -45.2708784504748 -286.527381919582 , -92.2200670831152 -394.28058065103 , -68.8368306261728 -414.378645681636 , 35.8851715443313 -434.476710712241 , 140.607173714835 -354.261844409418 , 233.293919121732 -269.821965738104 , 257.155535280605 -185.38208706679 , 281.017151439478 -115.424088134202 , 226.351557553102 -107.691055283723 , 220.309632506911 -99.9580224332434 , 214.26770746072 -16.2268396759803 , 148.712892929945 -65.433043889585 , 71.4813082062866 -114.63924810319 , -5.75027651737216 -203.567496772879 , 53.795302987382 -275.974348571663 , 4.25296980730537 -348.381200370447 , -45.2893633727713 -333.308599258281 , -117.588388849111 -317.112688114777 , -148.611854626702 -300.916776971274 , -179.635320404293 -273.115429580481 , -201.738529096062 -241.955608290464 , -214.639197896325 -210.795787000447 , -227.539866696587 -160.367437112618 , -237.778675516689 -96.698574278639 , -217.942117781388 -33.0297114446598 , -198.105560046087 9.53799396234717 , -155.376181116059 63.1642740490418 , -83.9440308446143 116.790554135736 , -12.51188057317 141.082860089083 , 55.1402325916985 113.447966481511 , 113.697892142426 85.8130728739393 , 172.255551693154 29.6065332092613 , 184.135786631156 0 , 184.135786631156 -29.6065332092613 , 184.135786631156 -85.8130728739393 , 172.255551693154 -113.447966481511 , 113.697892142426 -141.082860089083 , 55.1402325916985 -116.790554135736 , -12.51188057317 -63.1642740490418 , -83.9440308446143 -9.53799396234717 , -155.376181116059 33.0297114446598 , -198.105560046087 96.698574278639 , -217.942117781388 160.367437112618 , -237.778675516689 210.795787000447 , -227.539866696587 241.955608290464 , -214.639197896325 Z "
       id="path3401"
       inkscape:connector-curvature="0"
       sodipodi:nodetypes="zzzzzzzzzzzzzzzzzzzzzzzzzzzzz" />
  </g>
</svg>
