<?xml version="1.0" encoding="UTF-8" standalone="no"?>
<!-- Created with Inkscape (http://www.inkscape.org/) -->

<svg
   xmlns:dc="http://purl.org/dc/elements/1.1/"
   xmlns:cc="http://creativecommons.org/ns#"
   xmlns:rdf="http://www.w3.org/1999/02/22-rdf-syntax-ns#"
   xmlns:svg="http://www.w3.org/2000/svg"
   xmlns="http://www.w3.org/2000/svg"
   xmlns:sodipodi="http://sodipodi.sourceforge.net/DTD/sodipodi-0.dtd"
   xmlns:inkscape="http://www.inkscape.org/namespaces/inkscape"
   width="210mm"
   height="297mm"
   viewBox="0 0 744.09448819 1052.3622047"
   id="svg3435"
   version="1.1"
   inkscape:version="0.91 r13725"
   sodipodi:docname="k11n157.svg">
  <defs
     id="defs3437" />
  <sodipodi:namedview
     id="base"
     pagecolor="#ffffff"
     bordercolor="#666666"
     borderopacity="1.0"
     inkscape:pageopacity="0.0"
     inkscape:pageshadow="2"
     inkscape:zoom="1.5982422"
     inkscape:cx="375"
     inkscape:cy="1028.1459"
     inkscape:document-units="px"
     inkscape:current-layer="layer1"
     showgrid="false"
     inkscape:window-width="2560"
     inkscape:window-height="1315"
     inkscape:window-x="1218"
     inkscape:window-y="259"
     inkscape:window-maximized="0" />
  <metadata
     id="metadata3440">
    <rdf:RDF>
      <cc:Work
         rdf:about="">
        <dc:format>image/svg+xml</dc:format>
        <dc:type
           rdf:resource="http://purl.org/dc/dcmitype/StillImage" />
        <dc:title />
      </cc:Work>
    </rdf:RDF>
  </metadata>
  <g
     inkscape:label="Layer 1"
     inkscape:groupmode="layer"
     id="layer1">
    <path
       style="fill:none;fill-rule:evenodd;stroke:#000000;stroke-width:2.92032433px;stroke-linecap:butt;stroke-linejoin:miter;stroke-opacity:1"
       d="M  200.63592540946 , -185.25468046062 C  338.972238167945 , -70.1376071532269 215.927124810819 , 74.195479024717 168.387180239717 , 131.317628819259 120.847235668615 , 188.439778613801 99.823831466207 , 199.915023116465 49.3773395320425 , 247.999646057894 -1.06915240212197 , 296.084268999323 -15.4712693494739 , 319.171712728339 -64.2176804721593 , 342.331556871613 -112.964091594845 , 365.491401014887 -265.510018254583 , 410.017739243021 -316.79355211885 , 240.448491155184 -368.077085983117 , 70.879243067347 -197.402032039092 , 16.1349565433134 -148.518983382315 , 0.0632205135170606 -99.635934725538 , -16.0085155162793 -53.7628624183369 , -24.3383842993996 0 , -24.3383842993996 53.7628624183369 , -24.3383842993996 99.635934725538 , -16.0085155162793 148.518983382315 , 0.0632205135170606 197.402032039092 , 16.1349565433134 368.077085983117 , 70.879243067347 316.79355211885 , 240.448491155184 265.510018254583 , 410.017739243021 112.964091594845 , 365.491401014887 64.2176804721593 , 342.331556871613 15.4712693494739 , 319.171712728339 1.06915240212197 , 296.084268999323 -49.3773395320425 , 247.999646057894 -99.823831466207 , 199.915023116465 -120.847235668615 , 188.439778613801 -168.387180239717 , 131.317628819259 -215.927124810819 , 74.195479024717 -338.972238167945 , -70.1376071532269 -200.63592540946 , -185.25468046062 -62.299612650975 , -300.371753768013 31.5573618649228 , -164.009055779159 53.2779509808588 , -108.206902635525 74.9985400967948 , -52.4047494918908 66.7767281943384 , 1.0002634167009 42.5203749838325 , 44.9868794049892 18.2640217733266 , 88.9734953932775 -9.44406539788601 , 109.134037380887 -53.0035491244437 , 152.136947610032 -96.5630328510014 , 195.139857839177 -125.398636833345 , 222.283513860196 -142.829710484163 , 274.599622363622 -160.260784134981 , 326.915730867048 -178.356725213389 , 497.015770915989 0 , 497.015770915989 178.356725213389 , 497.015770915989 160.260784134981 , 326.915730867048 142.829710484163 , 274.599622363622 125.398636833345 , 222.283513860196 96.5630328510014 , 195.139857839177 53.0035491244437 , 152.136947610032 9.44406539788601 , 109.134037380887 -18.2640217733266 , 88.9734953932775 -42.5203749838325 , 44.9868794049892 -66.7767281943384 , 1.0002634167009 -74.9985400967948 , -52.4047494918908 -53.2779509808588 , -108.206902635525 -31.5573618649228 , -164.009055779159 62.299612650975 , -300.371753768013 200.63592540946 , -185.25468046062 Z "
       id="path3509"
       inkscape:connector-curvature="0"
       sodipodi:nodetypes="zzzzzzzzzzzzzzzzzzzzzzz" />
  </g>
</svg>
