<?xml version="1.0" encoding="UTF-8" standalone="no"?>
<!-- Created with Inkscape (http://www.inkscape.org/) -->

<svg
   xmlns:dc="http://purl.org/dc/elements/1.1/"
   xmlns:cc="http://creativecommons.org/ns#"
   xmlns:rdf="http://www.w3.org/1999/02/22-rdf-syntax-ns#"
   xmlns:svg="http://www.w3.org/2000/svg"
   xmlns="http://www.w3.org/2000/svg"
   xmlns:sodipodi="http://sodipodi.sourceforge.net/DTD/sodipodi-0.dtd"
   xmlns:inkscape="http://www.inkscape.org/namespaces/inkscape"
   width="744.09448819"
   height="1052.3622047"
   id="svg2"
   version="1.1"
   inkscape:version="0.48.4 r9939"
   sodipodi:docname="k12a_0614.svg">
  <defs
     id="defs4" />
  <sodipodi:namedview
     id="base"
     pagecolor="#ffffff"
     bordercolor="#666666"
     borderopacity="1.0"
     inkscape:pageopacity="0.0"
     inkscape:pageshadow="2"
     inkscape:zoom="0.50509216"
     inkscape:cx="335.4503"
     inkscape:cy="354.4661"
     inkscape:document-units="px"
     inkscape:current-layer="layer1"
     showgrid="false"
     inkscape:window-width="1600"
     inkscape:window-height="824"
     inkscape:window-x="-3"
     inkscape:window-y="-3"
     inkscape:window-maximized="1" />
  <metadata
     id="metadata7">
    <rdf:RDF>
      <cc:Work
         rdf:about="">
        <dc:format>image/svg+xml</dc:format>
        <dc:type
           rdf:resource="http://purl.org/dc/dcmitype/StillImage" />
        <dc:title></dc:title>
      </cc:Work>
    </rdf:RDF>
  </metadata>
  <g
     inkscape:label="Layer 1"
     inkscape:groupmode="layer"
     id="layer1">
    <path
       style="fill:none;stroke:#ff0000;stroke-width:10.9236021;stroke-linecap:butt;stroke-linejoin:miter;stroke-miterlimit:4;stroke-opacity:1;stroke-dasharray:none"
       d="M -18.750379,462.01726 C 56.015269,457.53605 127.69409,510.05032 141.82152,570.59445 155.94896,631.13858 87.488492,653.35822 56.183175,695.99344 24.877858,738.62867 -31.395098,783.06016 -46.276976,825.98023 -61.158855,868.90026 -55.194939,896.18839 -46.276976,933.02815 -37.359014,969.86792 36.716922,990.87421 8.7762282,1040.0761 -19.164465,1089.278 -86.35069,1147.9722 -209.9074,1053.8393 -333.46409,959.70649 -259.65476,795.31448 -217.55367,747.98817 -175.45259,700.66187 -107.43737,634.95606 -151.79564,595.06256 -196.15393,555.16907 -347.89006,537.41185 -350.59893,676.11313 -353.30781,814.8144 -103.28208,871.33437 -17.221117,879.50419 68.839845,887.67399 59.801836,894.04719 170.87742,891.73825 281.95301,889.42931 374.08637,883.64205 386.50251,790.80734 398.91869,697.9726 285.04054,703.15682 202.99179,677.64238 120.94302,652.12795 51.962514,624.00227 68.417237,566.00667 84.871961,508.01107 196.09959,490.14688 253.45723,540.00933 310.81485,589.87176 287.70971,706.26544 271.80831,798.45359 255.90692,890.64176 225.79057,1042.2005 155.58482,1084.4245 85.379099,1126.6486 -52.459998,1096.2477 -50.864759,1029.3712 -49.269541,962.49498 9.2613244,976.34041 21.01029,931.49889 32.759257,886.65736 46.729693,834.85783 27.127311,792.3366 7.5249302,749.81536 -42.977547,737.30223 -84.508382,705.16898 -126.03921,673.03574 -221.39341,665.17124 -222.14144,599.6503 -222.88947,534.12939 -93.516027,466.49847 -18.750379,462.01726 z"
       id="path3066"
       inkscape:connector-curvature="0"
       sodipodi:nodetypes="zzzzzzzzzzzzzzzzzzzzzzzz" />
  </g>
</svg>
