<?xml version="1.0" encoding="UTF-8" standalone="no"?>
<!-- Created with Inkscape (http://www.inkscape.org/) -->

<svg
   xmlns:dc="http://purl.org/dc/elements/1.1/"
   xmlns:cc="http://creativecommons.org/ns#"
   xmlns:rdf="http://www.w3.org/1999/02/22-rdf-syntax-ns#"
   xmlns:svg="http://www.w3.org/2000/svg"
   xmlns="http://www.w3.org/2000/svg"
   xmlns:sodipodi="http://sodipodi.sourceforge.net/DTD/sodipodi-0.dtd"
   xmlns:inkscape="http://www.inkscape.org/namespaces/inkscape"
   width="210mm"
   height="297mm"
   viewBox="0 0 744.09448819 1052.3622047"
   id="svg2"
   version="1.1"
   inkscape:version="0.91 r13725"
   sodipodi:docname="k12n_0242.svg">
  <defs
     id="defs4" />
  <sodipodi:namedview
     id="base"
     pagecolor="#ffffff"
     bordercolor="#666666"
     borderopacity="1.0"
     inkscape:pageopacity="0.0"
     inkscape:pageshadow="2"
     inkscape:zoom="0.76969757"
     inkscape:cx="177.12663"
     inkscape:cy="697.29581"
     inkscape:document-units="px"
     inkscape:current-layer="layer1"
     showgrid="false"
     inkscape:window-width="1600"
     inkscape:window-height="835"
     inkscape:window-x="0"
     inkscape:window-y="0"
     inkscape:window-maximized="1" />
  <metadata
     id="metadata7">
    <rdf:RDF>
      <cc:Work
         rdf:about="">
        <dc:format>image/svg+xml</dc:format>
        <dc:type
           rdf:resource="http://purl.org/dc/dcmitype/StillImage" />
        <dc:title />
      </cc:Work>
    </rdf:RDF>
  </metadata>
  <g
     inkscape:label="Layer 1"
     inkscape:groupmode="layer"
     id="layer1">
    <path
       style="fill:none;fill-rule:evenodd;stroke:#ff0000;stroke-width:3.28817677;stroke-linecap:butt;stroke-linejoin:miter;stroke-miterlimit:4;stroke-dasharray:none;stroke-opacity:1"
       d="M  60.7793222086336 , -28.3008279665352 C  116.994525602942 , -39.1565563131199 164.45388174516 , -3.75263317243005 175.908931075383 , 45.8790000292739 187.363980405605 , 95.5106332309778 163.368916623067 , 126.168694467628 133.483669494589 , 183.78527811741 103.598422366112 , 241.401861767191 79.5975750784636 , 305.075792498855 0 , 305.075792498855 -79.5975750784636 , 305.075792498855 -103.598422366112 , 241.401861767191 -133.483669494589 , 183.78527811741 -163.368916623067 , 126.168694467628 -187.363980405605 , 95.5106332309778 -175.908931075383 , 45.8790000292739 -164.45388174516 , -3.75263317243005 -116.994525602942 , -39.1565563131199 -60.7793222086336 , -28.3008279665352 -4.56411881432535 , -17.4450996199505 0.617061934731737 , 18.3567440340729 77.5888603984755 , 71.1059271346315 154.560658862219 , 123.85511023519 179.811547120653 , 124.384659237903 208.757784528298 , 153.016403146153 237.704021935943 , 181.648147054402 254.050729018295 , 213.182153181035 254.626188633054 , 262.079208895305 255.201648247813 , 310.976264609574 223.465226191388 , 332.002491669094 236.609201668986 , 422.004921808434 249.753177146585 , 512.007351947773 329.10689053544 , 536.320773661287 278.33062849628 , 625.688158493731 227.554366457119 , 715.055543326176 170.249320461063 , 658.347386976182 81.7293332930394 , 692.604742563568 -6.79065387498468 , 726.862098150953 -15.5897017130042 , 811.890645491933 -112.870258719999 , 773.636469878885 -210.150815726994 , 735.382294265836 -157.281423005516 , 666.187547923083 -204.568536594661 , 581.594513810995 -251.855650183805 , 497.001479698908 -323.235956798404 , 515.154638277986 -322.80402651612 , 417.119291186409 -322.372096233835 , 319.083944094831 -237.047703239601 , 315.91716686634 -165.865940675679 , 285.120198550115 -94.6841781117562 , 254.323230233889 -79.3721596670285 , 221.126010481258 0 , 221.126010481258 79.3721596670285 , 221.126010481258 94.6841781117562 , 254.323230233889 165.865940675679 , 285.120198550115 237.047703239601 , 315.91716686634 322.372096233835 , 319.083944094831 322.80402651612 , 417.119291186409 323.235956798404 , 515.154638277986 251.855650183805 , 497.001479698908 204.568536594661 , 581.594513810995 157.281423005516 , 666.187547923083 210.150815726994 , 735.382294265836 112.870258719999 , 773.636469878885 15.5897017130042 , 811.890645491933 6.79065387498467 , 726.862098150953 -81.7293332930394 , 692.604742563568 -170.249320461063 , 658.347386976182 -227.554366457119 , 715.055543326176 -278.33062849628 , 625.688158493731 -329.10689053544 , 536.320773661287 -249.753177146585 , 512.007351947773 -236.609201668986 , 422.004921808434 -223.465226191388 , 332.002491669094 -255.201648247813 , 310.976264609574 -254.626188633054 , 262.079208895305 -254.050729018295 , 213.182153181035 -237.704021935943 , 181.648147054402 -208.757784528298 , 153.016403146153 -179.811547120653 , 124.384659237903 -154.560658862219 , 123.85511023519 -77.5888603984755 , 71.1059271346315 -0.617061934731737 , 18.3567440340729 4.56411881432535 , -17.4450996199505 60.7793222086336 , -28.3008279665352 Z "
       id="path4201"
       inkscape:connector-curvature="0"
       sodipodi:nodetypes="zzzzzzzzzzzzzzzzzzzzzzzzzzzzz" />
  </g>
</svg>
