<?xml version="1.0" encoding="UTF-8" standalone="no"?>
<!-- Created with Inkscape (http://www.inkscape.org/) -->

<svg
   xmlns:dc="http://purl.org/dc/elements/1.1/"
   xmlns:cc="http://creativecommons.org/ns#"
   xmlns:rdf="http://www.w3.org/1999/02/22-rdf-syntax-ns#"
   xmlns:svg="http://www.w3.org/2000/svg"
   xmlns="http://www.w3.org/2000/svg"
   xmlns:sodipodi="http://sodipodi.sourceforge.net/DTD/sodipodi-0.dtd"
   xmlns:inkscape="http://www.inkscape.org/namespaces/inkscape"
   width="744.09448819"
   height="1052.3622047"
   id="svg2"
   version="1.1"
   inkscape:version="0.48.4 r9939"
   sodipodi:docname="k12n_0411.svg">
  <defs
     id="defs4" />
  <sodipodi:namedview
     id="base"
     pagecolor="#ffffff"
     bordercolor="#666666"
     borderopacity="1.0"
     inkscape:pageopacity="0.0"
     inkscape:pageshadow="2"
     inkscape:zoom="0.5255401"
     inkscape:cx="-36.528348"
     inkscape:cy="686.76676"
     inkscape:document-units="px"
     inkscape:current-layer="layer1"
     showgrid="false"
     inkscape:window-width="1600"
     inkscape:window-height="824"
     inkscape:window-x="-3"
     inkscape:window-y="-3"
     inkscape:window-maximized="1" />
  <metadata
     id="metadata7">
    <rdf:RDF>
      <cc:Work
         rdf:about="">
        <dc:format>image/svg+xml</dc:format>
        <dc:type
           rdf:resource="http://purl.org/dc/dcmitype/StillImage" />
        <dc:title></dc:title>
      </cc:Work>
    </rdf:RDF>
  </metadata>
  <g
     inkscape:label="Layer 1"
     inkscape:groupmode="layer"
     id="layer1">
    <path
       style="fill:none;stroke:#ff0000;stroke-width:13.5431757;stroke-linecap:butt;stroke-linejoin:miter;stroke-miterlimit:4;stroke-opacity:1;stroke-dasharray:none"
       d="M  0 , -19.4639621516959 C  135.74872789885 , -19.4639621516959 95.9719647545819 , 130.023262674144 89.2733948537927 , 152.225243820582 82.5748249530035 , 174.427224967019 68.0274936239251 , 222.338848005598 35.6454877957316 , 262.165858299754 3.26348196753816 , 301.992868593911 -33.6486522819552 , 319.625077320954 -26.1533796416768 , 374.099190834917 -18.6581070013985 , 428.57330434888 18.4716981088968 , 424.655125625491 26.6461446700253 , 482.860673255734 34.8205912311537 , 541.066220885977 -14.7356596176135 , 577.037660365542 -58.2891803820023 , 595.915021360672 -101.842701146391 , 614.792382355802 -150.389613252328 , 630.81831052442 -202.801883179736 , 617.908852760023 -255.214153107143 , 604.999394995625 -338.095924077986 , 557.32558782453 -347.692699443558 , 450.677075040782 -357.28947480913 , 344.028562257034 -306.51416616578 , 306.08142450997 -264.121508921399 , 303.035891883545 -221.728851677018 , 299.990359257121 -176.896734762752 , 326.526840915452 -147.561840353036 , 464.293244940696 -118.226945943321 , 602.059648965939 -117.257875777211 , 637.494795382957 -83.3607985141024 , 674.354189095175 -49.4637212509944 , 711.213582807393 -8.41834136686525 , 711.734715583748 0 , 711.734715583748 8.41834136686525 , 711.734715583748 49.4637212509944 , 711.213582807393 83.3607985141024 , 674.354189095175 117.257875777211 , 637.494795382957 118.226945943321 , 602.059648965939 147.561840353036 , 464.293244940696 176.896734762752 , 326.526840915452 265.295202078182 , 280.520799776096 221.066620383456 , 174.709723765976 176.83803868873 , 68.8986477558557 86.7270998152947 , 86.7166147467148 0 , 86.7166147467148 -86.7270998152947 , 86.7166147467148 -212.200052987141 , 63.2497248202503 -309.196885875306 , 173.240580289076 -406.193718763472 , 283.231435757901 -319.602470758713 , 363.359840368807 -258.232228123809 , 352.863336830001 -196.861985488906 , 342.366833291195 -188.318440961628 , 294.025431222797 -125.618595040845 , 251.137400789458 -62.9187491200623 , 208.249370356119 -34.0716816116265 , 199.968354588535 0 , 199.968354588535 34.0716816116265 , 199.968354588535 62.9187491200623 , 208.249370356119 125.618595040845 , 251.137400789458 188.318440961628 , 294.025431222797 357.28947480913 , 344.028562257034 347.692699443558 , 450.677075040782 338.095924077986 , 557.32558782453 255.214153107143 , 604.999394995625 202.801883179736 , 617.908852760023 150.389613252328 , 630.81831052442 101.842701146391 , 614.792382355802 58.2891803820023 , 595.915021360672 14.7356596176135 , 577.037660365542 -34.8205912311537 , 541.066220885977 -26.6461446700253 , 482.860673255734 -18.4716981088968 , 424.655125625491 18.6581070013985 , 428.57330434888 26.1533796416768 , 374.099190834917 33.6486522819552 , 319.625077320954 -3.26348196753816 , 301.992868593911 -35.6454877957316 , 262.165858299754 -68.0274936239251 , 222.338848005598 -82.5748249530035 , 174.427224967019 -89.2733948537927 , 152.225243820582 -95.9719647545819 , 130.023262674144 -135.74872789885 , -19.4639621516959 0 , -19.4639621516959 Z "
       id="path3104"
       inkscape:connector-curvature="0"
       sodipodi:nodetypes="zzzzzzzzzzzzzzzzzzzzzzzzzzzzz" />
  </g>
</svg>
