<?xml version="1.0" encoding="UTF-8" standalone="no"?>
<!-- Created with Inkscape (http://www.inkscape.org/) -->

<svg
   version="1.1"
   id="svg24"
   width="672"
   height="672"
   viewBox="0 0 672 672"
   sodipodi:docname="k3_1a_circles_post_inkscape.svg"
   inkscape:version="1.2.2 (b0a8486, 2022-12-01)"
   xmlns:inkscape="http://www.inkscape.org/namespaces/inkscape"
   xmlns:sodipodi="http://sodipodi.sourceforge.net/DTD/sodipodi-0.dtd"
   xmlns="http://www.w3.org/2000/svg"
   xmlns:svg="http://www.w3.org/2000/svg">
  <defs
     id="defs28">
    <clipPath
       clipPathUnits="userSpaceOnUse"
       id="clipPath2391">
      <g
         id="g2395">
        <path
           d="M 80.64,73.44 H 452.16 V 444.96 H 80.64 Z"
           id="path2393" />
      </g>
    </clipPath>
    <clipPath
       clipPathUnits="userSpaceOnUse"
       id="clipPath2397">
      <g
         id="g2401">
        <path
           d="M 80.64,73.44 H 452.16 V 444.96 H 80.64 Z"
           id="path2399" />
      </g>
    </clipPath>
    <clipPath
       clipPathUnits="userSpaceOnUse"
       id="clipPath2403">
      <g
         id="g2407">
        <path
           d="M 80.64,73.44 H 452.16 V 444.96 H 80.64 Z"
           id="path2405" />
      </g>
    </clipPath>
    <clipPath
       clipPathUnits="userSpaceOnUse"
       id="clipPath2409">
      <g
         id="g2413">
        <path
           d="M 80.64,73.44 H 452.16 V 444.96 H 80.64 Z"
           id="path2411" />
      </g>
    </clipPath>
    <clipPath
       clipPathUnits="userSpaceOnUse"
       id="clipPath2415">
      <g
         id="g2419">
        <path
           d="M 80.64,73.44 H 452.16 V 444.96 H 80.64 Z"
           id="path2417" />
      </g>
    </clipPath>
    <clipPath
       clipPathUnits="userSpaceOnUse"
       id="clipPath2421">
      <g
         id="g2425">
        <path
           d="M 80.64,73.44 H 452.16 V 444.96 H 80.64 Z"
           id="path2423" />
      </g>
    </clipPath>
  </defs>
  <sodipodi:namedview
     id="namedview26"
     pagecolor="#ffffff"
     bordercolor="#000000"
     borderopacity="0.25"
     inkscape:showpageshadow="2"
     inkscape:pageopacity="0.0"
     inkscape:pagecheckerboard="0"
     inkscape:deskcolor="#d1d1d1"
     showgrid="false"
     showguides="false"
     inkscape:zoom="1.5282738"
     inkscape:cx="335.67283"
     inkscape:cy="309.82668"
     inkscape:window-width="1841"
     inkscape:window-height="1205"
     inkscape:window-x="0"
     inkscape:window-y="25"
     inkscape:window-maximized="0"
     inkscape:current-layer="g32">
    <inkscape:page
       x="0"
       y="0"
       id="page30"
       width="672"
       height="672" />
  </sodipodi:namedview>
  <g
     id="g32"
     inkscape:groupmode="layer"
     inkscape:label="Page 1"
     transform="matrix(1.3333333,0,0,-1.3333333,0,672)">
    <path
       d="m 266.4,190.4 3.35,-3.2 3.5,-3.03 3.64,-2.86 3.77,-2.69 3.9,-2.5 4.01,-2.32 4.12,-2.12 4.21,-1.92 4.3,-1.72 4.37,-1.52 4.45,-1.3 4.5,-1.09 4.55,-0.88 4.58,-0.66 4.61,-0.44 4.62,-0.22 h 4.64 l 4.62,0.22 4.61,0.44 4.58,0.66 4.55,0.88 4.5,1.09 4.45,1.3 4.37,1.52 4.3,1.72 4.21,1.92 4.12,2.12 4.01,2.32 3.9,2.5 3.77,2.69 3.64,2.86 3.5,3.03 3.35,3.2 3.2,3.35 3.03,3.5 2.86,3.64 2.69,3.77 2.5,3.9 2.32,4.01 2.12,4.12 1.92,4.21 1.72,4.3 1.52,4.37 1.3,4.45 1.09,4.5 0.88,4.55 0.66,4.58 0.44,4.61 0.22,4.62 v 4.64 l -0.22,4.62 -0.44,4.61 -0.66,4.58 -0.88,4.55 -1.09,4.5 -1.3,4.45 -1.52,4.37 -1.72,4.3 -1.92,4.21 -2.12,4.12 -2.32,4.01 -2.5,3.9 -2.69,3.77 -2.86,3.64 -3.03,3.5 -3.2,3.35 -3.35,3.2 -3.5,3.03 -3.64,2.86 -3.77,2.69 -3.9,2.5 -4.01,2.32 -4.12,2.12 -4.21,1.92 -4.3,1.72 -4.37,1.52 -4.45,1.3 -4.5,1.09 -4.55,0.88 -4.58,0.66 -4.61,0.44 -4.62,0.22 h -4.64 l -4.62,-0.22 -4.61,-0.44 -4.58,-0.66 -4.55,-0.88 -4.5,-1.09 -4.45,-1.3 -4.37,-1.52 -4.3,-1.72 -4.21,-1.92 -4.12,-2.12 -4.01,-2.32 -3.9,-2.5 -3.77,-2.69 -3.64,-2.86 -3.5,-3.03 -3.35,-3.2"
       style="fill:none;stroke:#000000;stroke-width:8.25;stroke-linecap:round;stroke-linejoin:round;stroke-miterlimit:10;stroke-dasharray:none;stroke-opacity:1"
       id="path56"
       clip-path="url(#clipPath2391)" />
    <g
       id="g34" />
    <g
       id="g36" />
    <rect
       style="fill:#ffffff;stroke-width:0.75"
       id="rect1310"
       width="36.315483"
       height="16.194742"
       x="101.09445"
       y="-459.34177"
       transform="scale(1,-1)" />
    <path
       style="fill:#ff9cff;fill-opacity:1;stroke-width:0.75"
       d="m -104.5297,328 h 54.963973"
       id="path2644"
       sodipodi:nodetypes="cc" />
    <path
       d="m 266.4,328 -0.54,-0.55 -0.53,-0.56 -0.53,-0.57 -0.51,-0.57 -0.51,-0.58 -0.49,-0.6 -0.49,-0.59 -0.48,-0.61 -0.47,-0.62 -0.45,-0.62 -0.45,-0.63 -0.44,-0.63 -0.43,-0.64 -0.41,-0.65 -0.41,-0.66 -0.4,-0.66 -0.38,-0.67 -0.38,-0.68 -0.36,-0.68 -0.36,-0.68 -0.34,-0.69 -0.33,-0.7 -0.32,-0.7 -0.31,-0.71 -0.3,-0.71 -0.29,-0.72 -0.27,-0.72 -0.27,-0.72 -0.25,-0.73 -0.24,-0.74 -0.23,-0.73 -0.22,-0.74 -0.2,-0.75 -0.2,-0.75 -0.18,-0.75 -0.17,-0.75 -0.16,-0.75 -0.14,-0.76 -0.14,-0.76 -0.12,-0.76 -0.11,-0.77 -0.09,-0.76 -0.09,-0.77 -0.07,-0.77 -0.06,-0.77 -0.05,-0.77 -0.04,-0.77 -0.03,-0.77 -0.01,-0.77 v -0.78 l 0.01,-0.77 0.03,-0.77 0.04,-0.77 0.05,-0.77 0.06,-0.77 0.07,-0.77 0.09,-0.77 0.09,-0.76 0.11,-0.77 0.12,-0.76 0.14,-0.76 0.14,-0.76 0.16,-0.75 0.17,-0.75 0.18,-0.75 0.2,-0.75 0.2,-0.75 0.22,-0.74 0.23,-0.73 0.24,-0.74 0.25,-0.73 0.27,-0.72 0.27,-0.72 0.29,-0.72 0.3,-0.71 0.31,-0.71 0.32,-0.7 0.33,-0.7 0.34,-0.69 0.36,-0.68 0.36,-0.68 0.38,-0.68 0.38,-0.67 0.4,-0.66 0.41,-0.66 0.41,-0.65 0.43,-0.64 0.44,-0.63 0.45,-0.63 0.45,-0.62 0.47,-0.62 0.48,-0.61 0.49,-0.59 0.49,-0.6 0.51,-0.58 0.51,-0.57 0.53,-0.57 0.53,-0.56 0.54,-0.55"
       style="fill:none;stroke:#000000;stroke-width:8.25;stroke-linecap:round;stroke-linejoin:round;stroke-miterlimit:10;stroke-dasharray:none;stroke-opacity:1"
       id="path46"
       clip-path="url(#clipPath2421)" />
    <g
       id="g5773"
       transform="translate(0,-178.5)"
       style="stroke:#ffbaff;stroke-opacity:1" />
    <path
       d="m 266.4,259.2 -0.54,-0.55 -0.53,-0.56 -0.53,-0.57 -0.51,-0.57 -0.51,-0.58 -0.49,-0.6 -0.49,-0.59 -0.48,-0.61 -0.47,-0.62 -0.45,-0.62 -0.45,-0.63 -0.44,-0.63 -0.43,-0.64 -0.41,-0.65 -0.41,-0.66 -0.4,-0.66 -0.38,-0.67 -0.38,-0.68 -0.36,-0.68 -0.36,-0.68 -0.34,-0.69 -0.33,-0.7 -0.32,-0.7 -0.31,-0.71 -0.3,-0.71 -0.29,-0.72 -0.27,-0.72 -0.27,-0.72 -0.25,-0.73 -0.24,-0.74 -0.23,-0.73 -0.22,-0.74 -0.2,-0.75 -0.2,-0.75 -0.18,-0.75 -0.17,-0.75 -0.16,-0.75 -0.14,-0.76 -0.14,-0.76 -0.12,-0.76 -0.11,-0.77 -0.09,-0.76 -0.09,-0.77 -0.07,-0.77 -0.06,-0.77 -0.05,-0.77 -0.04,-0.77 -0.03,-0.77 -0.01,-0.77 v -0.78 l 0.01,-0.77 0.03,-0.77 0.04,-0.77 0.05,-0.77 0.06,-0.77 0.07,-0.77 0.09,-0.77 0.09,-0.76 0.11,-0.77 0.12,-0.76 0.14,-0.76 0.14,-0.76 0.16,-0.75 0.17,-0.75 0.18,-0.75 0.2,-0.75 0.2,-0.75 0.22,-0.74 0.23,-0.73 0.24,-0.74 0.25,-0.73 0.27,-0.72 0.27,-0.72 0.29,-0.72 0.3,-0.71 0.31,-0.71 0.32,-0.7 0.33,-0.7 0.34,-0.69 0.36,-0.68 0.36,-0.68 0.38,-0.68 0.38,-0.67 0.4,-0.66 0.41,-0.66 0.41,-0.65 0.43,-0.64 0.44,-0.63 0.45,-0.63 0.45,-0.62 0.47,-0.62 0.48,-0.61 0.49,-0.59 0.49,-0.6 0.51,-0.58 0.51,-0.57 0.53,-0.57 0.53,-0.56 0.54,-0.55"
       style="fill:none;stroke:#000000;stroke-width:8.25;stroke-linecap:round;stroke-linejoin:round;stroke-miterlimit:10;stroke-dasharray:none;stroke-opacity:1"
       id="path50"
       clip-path="url(#clipPath2409)" />
    <g
       id="g10182"
       transform="translate(-6.2499999e-8,-178.5)"
       style="stroke:#ffffff;stroke-opacity:1">
      <path
         id="path10180"
         clip-path="url(#clipPath2415)"
         style="fill:none;stroke:#ffffff;stroke-width:18.75;stroke-linecap:round;stroke-linejoin:round;stroke-miterlimit:10;stroke-dasharray:none;stroke-opacity:1"
         d="m 280.39,298.61 -0.09,0.77 -0.09,0.76 -0.11,0.77 -0.12,0.76 -0.14,0.76 -0.14,0.76 -0.16,0.75 -0.17,0.75 -0.18,0.75 -0.2,0.75 -0.2,0.75 -0.22,0.74 -0.23,0.73 -0.24,0.74 -0.25,0.73 -0.27,0.72 -0.27,0.72 -0.29,0.72 -0.3,0.71 -0.31,0.71 -0.32,0.7 -0.33,0.7 -0.34,0.69 -0.36,0.68 -0.36,0.68 -0.38,0.68 -0.38,0.67 -0.4,0.66 -0.41,0.66 -0.41,0.65 -0.43,0.64 -0.44,0.63 -0.45,0.63 -0.45,0.62 -0.47,0.62 -0.48,0.61 -0.49,0.59 -0.49,0.6 -0.51,0.58 -0.51,0.57 -0.53,0.57 -0.53,0.56 -0.54,0.55 m -10.49,9.09 3.64,-2.86 3.5,-3.03 3.35,-3.2"
         transform="translate(0,178.5)"
         sodipodi:nodetypes="cccccccccccccccccccccccccccccccccccccccccccccccc" />
    </g>
    <g
       id="g5767">
      <path
         d="m 266.4,190.4 -3.35,-3.2 -3.5,-3.03 -3.64,-2.86 -3.77,-2.69 -3.9,-2.5 -4.01,-2.32 -4.12,-2.12 -4.21,-1.92 -4.3,-1.72 -4.37,-1.52 -4.45,-1.3 -4.5,-1.09 -4.55,-0.88 -4.58,-0.66 -4.61,-0.44 -4.62,-0.22 h -4.64 l -4.62,0.22 -4.61,0.44 -4.58,0.66 -4.55,0.88 -4.5,1.09 -4.45,1.3 -4.37,1.52 -4.3,1.72 -4.21,1.92 -4.12,2.12 -4.01,2.32 -3.9,2.5 -3.77,2.69 -3.64,2.86 -3.5,3.03 -3.35,3.2 -3.2,3.35 -3.03,3.5 -2.86,3.64 -2.69,3.77 -2.5,3.9 -2.32,4.01 -2.12,4.12 -1.92,4.21 -1.72,4.3 -1.52,4.37 -1.3,4.45 -1.09,4.5 -0.88,4.55 -0.66,4.58 -0.44,4.61 -0.22,4.62 v 4.64 l 0.22,4.62 0.44,4.61 0.66,4.58 0.88,4.55 1.09,4.5 1.3,4.45 1.52,4.37 1.72,4.3 1.92,4.21 2.12,4.12 2.32,4.01 2.5,3.9 2.69,3.77 2.86,3.64 3.03,3.5 3.2,3.35 3.35,3.2 3.5,3.03 3.64,2.86 3.77,2.69 3.9,2.5 4.01,2.32 4.12,2.12 4.21,1.92 4.3,1.72 4.37,1.52 4.45,1.3 4.5,1.09 4.55,0.88 4.58,0.66 4.61,0.44 4.62,0.22 h 4.64 l 4.62,-0.22 4.61,-0.44 4.58,-0.66 4.55,-0.88 4.5,-1.09 4.45,-1.3 4.37,-1.52 4.3,-1.72 4.21,-1.92 4.12,-2.12 4.01,-2.32 3.9,-2.5 3.77,-2.69 3.64,-2.86 3.5,-3.03 3.35,-3.2"
         style="fill:none;stroke:#000000;stroke-width:8.25;stroke-linecap:round;stroke-linejoin:round;stroke-miterlimit:10;stroke-dasharray:none;stroke-opacity:1"
         id="path54"
         clip-path="url(#clipPath2397)" />
      <path
         d="m 266.4,259.2 0.54,0.55 0.53,0.56 0.53,0.57 0.51,0.57 0.51,0.58 0.49,0.6 0.49,0.59 0.48,0.61 0.47,0.62 0.45,0.62 0.45,0.63 0.44,0.63 0.43,0.64 0.41,0.65 0.41,0.66 0.4,0.66 0.38,0.67 0.38,0.68 0.36,0.68 0.36,0.68 0.34,0.69 0.33,0.7 0.32,0.7 0.31,0.71 0.3,0.71 0.29,0.72 0.27,0.72 0.27,0.72 0.25,0.73 0.24,0.74 0.23,0.73 0.22,0.74 0.2,0.75 0.2,0.75 0.18,0.75 0.17,0.75 0.16,0.75 0.14,0.76 0.14,0.76 0.12,0.76 0.11,0.77 0.09,0.76 0.09,0.77 0.07,0.77 0.06,0.77 0.05,0.77 0.04,0.77 0.03,0.77 0.01,0.77 v 0.78 l -0.01,0.77 -0.03,0.77 -0.04,0.77 -0.05,0.77 -0.06,0.77 -0.07,0.77 -0.09,0.77 -0.09,0.76 -0.11,0.77 -0.12,0.76 -0.14,0.76 -0.14,0.76 -0.16,0.75 -0.17,0.75 -0.18,0.75 -0.2,0.75 -0.2,0.75 -0.22,0.74 -0.23,0.73 -0.24,0.74 -0.25,0.73 -0.27,0.72 -0.27,0.72 -0.29,0.72 -0.3,0.71 -0.31,0.71 -0.32,0.7 -0.33,0.7 -0.34,0.69 -0.36,0.68 -0.36,0.68 -0.38,0.68 -0.38,0.67 -0.4,0.66 -0.41,0.66 -0.41,0.65 -0.43,0.64 -0.44,0.63 -0.45,0.63 -0.45,0.62 -0.47,0.62 -0.48,0.61 -0.49,0.59 -0.49,0.6 -0.51,0.58 -0.51,0.57 -0.53,0.57 -0.53,0.56 -0.54,0.55"
         style="fill:none;stroke:#000000;stroke-width:8.25;stroke-linecap:round;stroke-linejoin:round;stroke-miterlimit:10;stroke-dasharray:none;stroke-opacity:1"
         id="path48"
         clip-path="url(#clipPath2415)" />
    </g>
    <path
       id="path5036"
       clip-path="url(#clipPath2403)"
       style="fill:none;stroke:#ffffff;stroke-width:18.75000047;stroke-linecap:round;stroke-linejoin:round;stroke-miterlimit:10;stroke-dasharray:none;stroke-opacity:1"
       d="m 278.57,238.88 -0.23,0.73 -0.24,0.74 -0.25,0.73 -0.27,0.72 -0.27,0.72 -0.29,0.72 -0.3,0.71 -0.31,0.71 -0.32,0.7 -0.33,0.7 -0.34,0.69 -0.36,0.68 -0.36,0.68 -0.38,0.68 -0.38,0.67 -0.4,0.66 -0.41,0.66 -0.41,0.65 -0.43,0.64 -0.44,0.63 -0.45,0.63 -0.45,0.62 -0.47,0.62 -0.48,0.61 -0.49,0.59 -0.49,0.6 -0.51,0.58 -0.51,0.57 -0.53,0.57 -0.53,0.56 -0.54,0.55 m -11.18,17.4 0.27,-0.72 0.29,-0.72 0.3,-0.71 0.31,-0.71 0.32,-0.7 0.33,-0.7 0.34,-0.69 0.36,-0.68 0.36,-0.68 0.38,-0.68 0.38,-0.67 0.4,-0.66 0.41,-0.66 0.41,-0.65 0.43,-0.64 0.44,-0.63 0.45,-0.63 0.45,-0.62 0.47,-0.62 0.48,-0.61 0.49,-0.59 0.49,-0.6 0.51,-0.58 0.51,-0.57 0.53,-0.57 0.53,-0.56 0.54,-0.55"
       sodipodi:nodetypes="cccccccccccccccccccccccccccccccccccccccccccccccccccccccccccc" />
    <path
       d="m 266.4,190.4 0.54,0.55 0.53,0.56 0.53,0.57 0.51,0.57 0.51,0.58 0.49,0.6 0.49,0.59 0.48,0.61 0.47,0.62 0.45,0.62 0.45,0.63 0.44,0.63 0.43,0.64 0.41,0.65 0.41,0.66 0.4,0.66 0.38,0.67 0.38,0.68 0.36,0.68 0.36,0.68 0.34,0.69 0.33,0.7 0.32,0.7 0.31,0.71 0.3,0.71 0.29,0.72 0.27,0.72 0.27,0.72 0.25,0.73 0.24,0.74 0.23,0.73 0.22,0.74 0.2,0.75 0.2,0.75 0.18,0.75 0.17,0.75 0.16,0.75 0.14,0.76 0.14,0.76 0.12,0.76 0.11,0.77 0.09,0.76 0.09,0.77 0.07,0.77 0.06,0.77 0.05,0.77 0.04,0.77 0.03,0.77 0.01,0.77 v 0.78 l -0.01,0.77 -0.03,0.77 -0.04,0.77 -0.05,0.77 -0.06,0.77 -0.07,0.77 -0.09,0.77 -0.09,0.76 -0.11,0.77 -0.12,0.76 -0.14,0.76 -0.14,0.76 -0.16,0.75 -0.17,0.75 -0.18,0.75 -0.2,0.75 -0.2,0.75 -0.22,0.74 -0.23,0.73 -0.24,0.74 -0.25,0.73 -0.27,0.72 -0.27,0.72 -0.29,0.72 -0.3,0.71 -0.31,0.71 -0.32,0.7 -0.33,0.7 -0.34,0.69 -0.36,0.68 -0.36,0.68 -0.38,0.68 -0.38,0.67 -0.4,0.66 -0.41,0.66 -0.41,0.65 -0.43,0.64 -0.44,0.63 -0.45,0.63 -0.45,0.62 -0.47,0.62 -0.48,0.61 -0.49,0.59 -0.49,0.6 -0.51,0.58 -0.51,0.57 -0.53,0.57 -0.53,0.56 -0.54,0.55"
       style="fill:none;stroke:#000000;stroke-width:8.25;stroke-linecap:round;stroke-linejoin:round;stroke-miterlimit:10;stroke-dasharray:none;stroke-opacity:1"
       id="path52"
       clip-path="url(#clipPath2403)" />
    <path
       d="m 252.5,287.82 0.09,-0.76 0.11,-0.77 0.12,-0.76 0.14,-0.76 0.14,-0.76 0.16,-0.75 0.17,-0.75 0.18,-0.75 0.2,-0.75 0.2,-0.75 0.22,-0.74 0.23,-0.73 0.24,-0.74 0.25,-0.73 0.27,-0.72 0.27,-0.72 0.29,-0.72 0.3,-0.71 0.31,-0.71 0.32,-0.7 0.33,-0.7 0.34,-0.69 0.36,-0.68 0.36,-0.68 0.38,-0.68 0.38,-0.67 0.4,-0.66 0.41,-0.66 0.41,-0.65 0.43,-0.64 0.44,-0.63 0.45,-0.63 0.45,-0.62 0.47,-0.62 0.48,-0.61 0.49,-0.59 0.49,-0.6 0.51,-0.58 0.51,-0.57 0.53,-0.57 0.53,-0.56 0.54,-0.55"
       style="fill:none;stroke:#000000;stroke-width:8.25;stroke-linecap:round;stroke-linejoin:round;stroke-miterlimit:10;stroke-dasharray:none;stroke-opacity:1"
       id="path6502"
       clip-path="url(#clipPath2421)"
       sodipodi:nodetypes="ccccccccccccccccccccccccccccccccccccccccccc" />
    <path
       id="path4188"
       clip-path="url(#clipPath2391)"
       style="fill:none;stroke:#ffffff;stroke-width:18.75000047;stroke-linecap:round;stroke-linejoin:round;stroke-miterlimit:10;stroke-dasharray:none;stroke-opacity:1"
       d="m 266.4,190.4 3.35,-3.2 3.5,-3.03 3.64,-2.86 3.77,-2.69 m -24.27,26.32 0.32,-0.7 0.33,-0.7 0.34,-0.69 0.36,-0.68 0.36,-0.68 0.38,-0.68 0.38,-0.67 0.4,-0.66 0.41,-0.66 0.41,-0.65 0.43,-0.64 0.44,-0.63 0.45,-0.63 0.45,-0.62 0.47,-0.62 0.48,-0.61 0.49,-0.59 0.49,-0.6 0.51,-0.58 0.51,-0.57 0.53,-0.57 0.53,-0.56 0.54,-0.55"
       sodipodi:nodetypes="ccccccccccccccccccccccccccccc" />
    <path
       d="m 266.4,190.4 3.35,-3.2 3.5,-3.03 3.64,-2.86 3.77,-2.69 3.9,-2.5 4.01,-2.32 4.12,-2.12 4.21,-1.92 4.3,-1.72 4.37,-1.52 4.45,-1.3 4.5,-1.09 4.55,-0.88 4.58,-0.66"
       style="fill:none;stroke:#000000;stroke-width:8.25;stroke-linecap:round;stroke-linejoin:round;stroke-miterlimit:10;stroke-dasharray:none;stroke-opacity:1"
       id="path6506"
       clip-path="url(#clipPath2391)"
       sodipodi:nodetypes="ccccccccccccccc" />
    <path
       d="m 252.82,216.73 0.14,-0.76 0.14,-0.76 0.16,-0.75 0.17,-0.75 0.18,-0.75 0.2,-0.75 0.2,-0.75 0.22,-0.74 0.23,-0.73 0.24,-0.74 0.25,-0.73 0.27,-0.72 0.27,-0.72 0.29,-0.72 0.3,-0.71 0.31,-0.71 0.32,-0.7 0.33,-0.7 0.34,-0.69 0.36,-0.68 0.36,-0.68 0.38,-0.68 0.38,-0.67 0.4,-0.66 0.41,-0.66 0.41,-0.65 0.43,-0.64 0.44,-0.63 0.45,-0.63 0.45,-0.62 0.47,-0.62 0.48,-0.61 0.49,-0.59 0.49,-0.6 0.51,-0.58 0.51,-0.57 0.53,-0.57 0.53,-0.56 0.54,-0.55"
       style="fill:none;stroke:#000000;stroke-width:8.25;stroke-linecap:round;stroke-linejoin:round;stroke-miterlimit:10;stroke-dasharray:none;stroke-opacity:1"
       id="path6504"
       clip-path="url(#clipPath2409)"
       sodipodi:nodetypes="cccccccccccccccccccccccccccccccccccccccc" />
  </g>
</svg>
