<?xml version="1.0" encoding="UTF-8" standalone="no"?>
<!-- Created with Inkscape (http://www.inkscape.org/) -->

<svg
   width="697.55603"
   height="394.793"
   id="svg2"
   version="1.1"
   inkscape:version="1.2 (dc2aeda, 2022-05-15)"
   sodipodi:docname="L4a1_L7a1.svg"
   xml:space="preserve"
   inkscape:export-filename="L4a1_L7a1.pdf"
   inkscape:export-xdpi="1000"
   inkscape:export-ydpi="1000"
   xmlns:inkscape="http://www.inkscape.org/namespaces/inkscape"
   xmlns:sodipodi="http://sodipodi.sourceforge.net/DTD/sodipodi-0.dtd"
   xmlns="http://www.w3.org/2000/svg"
   xmlns:svg="http://www.w3.org/2000/svg"
   xmlns:rdf="http://www.w3.org/1999/02/22-rdf-syntax-ns#"
   xmlns:cc="http://creativecommons.org/ns#"
   xmlns:dc="http://purl.org/dc/elements/1.1/"><defs
     id="defs4"><inkscape:path-effect
       effect="knot"
       id="path-effect2145"
       is_visible="true"
       lpeversion="1"
       switcher_size="15"
       interruption_width="3"
       prop_to_stroke_width="true"
       add_stroke_width="inkscape_1.0_and_up"
       both="false"
       inverse_width="false"
       add_other_stroke_width="inkscape_1.0_and_up"
       crossing_points_vector="-23.350705 | 929.19919 | 0 | 1 | 0 | 1 | 1.3128638 | 2.6871361 | 1 | -23.350701 | 478.5532 | 0 | 1 | 1 | 2 | 2.6871361 | 5.312864 | 1 | 427.29525 | 478.5532 | 0 | 1 | 2 | 3 | 5.3128639 | 6.6871361 | 1 | 427.29526 | 929.1992 | 0 | 1 | 3 | 0 | 6.6871362 | 1.3128638 | 1" /><inkscape:path-effect
       effect="knot"
       id="path-effect2139"
       is_visible="true"
       lpeversion="1"
       switcher_size="15"
       interruption_width="3"
       prop_to_stroke_width="true"
       add_stroke_width="inkscape_1.0_and_up"
       both="false"
       inverse_width="false"
       add_other_stroke_width="inkscape_1.0_and_up"
       crossing_points_vector="104.663 | -154.38627 | 0 | 0 | 0 | 3 | 2.5734305 | 11.427179 | 1 | 639.44178 | -154.36843 | 0 | 0 | 1 | 4 | 5.4271793 | 14.57343 | 1 | 372.03693 | 308.75468 | 0 | 0 | 2 | 5 | 8.5734305 | 17.427179 | 1" /><inkscape:path-effect
       effect="knot"
       id="path-effect2083"
       is_visible="true"
       lpeversion="1"
       switcher_size="15"
       interruption_width="3"
       prop_to_stroke_width="true"
       add_stroke_width="inkscape_1.0_and_up"
       both="false"
       inverse_width="false"
       add_other_stroke_width="inkscape_1.0_and_up"
       crossing_points_vector="" /><inkscape:path-effect
       effect="knot"
       id="path-effect1312"
       is_visible="true"
       lpeversion="1"
       switcher_size="15"
       interruption_width="3"
       prop_to_stroke_width="true"
       add_stroke_width="inkscape_1.0_and_up"
       both="false"
       inverse_width="false"
       add_other_stroke_width="inkscape_1.0_and_up"
       crossing_points_vector="104.663 | -154.38627 | 0 | 0 | 0 | 3 | 2.5734305 | 11.427179 | 1 | 639.44178 | -154.36843 | 0 | 0 | 1 | 4 | 5.4271793 | 14.57343 | 1 | 372.03693 | 308.75468 | 0 | 0 | 2 | 5 | 8.5734305 | 17.427179 | 1" /><inkscape:path-effect
       effect="knot"
       id="path-effect2083-8"
       is_visible="true"
       lpeversion="1"
       switcher_size="15"
       interruption_width="3"
       prop_to_stroke_width="true"
       add_stroke_width="inkscape_1.0_and_up"
       both="false"
       inverse_width="false"
       add_other_stroke_width="inkscape_1.0_and_up"
       crossing_points_vector="1502.1448 | 1125.686 | 0 | 1 | 0 | 3 | 0.31117183 | 7.987848 | 1 | 1030.4783 | 1125.686 | 0 | 1 | 1 | 0 | 1.6888281 | 0.012152084 | 1 | 1103.7072 | 791.87525 | 0 | 1 | 2 | 5 | 2.5867157 | 10.151308 | 1 | 1428.9157 | 791.87513 | 0 | 1 | 3 | 8 | 3.4132839 | 15.848676 | 1 | 998.9273 | 552.10046 | 1 | 1 | 1 | 6 | 2.5734305 | 11.427179 | 1 | 1533.7061 | 552.11829 | 1 | 1 | 2 | 7 | 5.4271794 | 14.573431 | 1 | 1266.3012 | 1015.2414 | 1 | 1 | 4 | 9 | 8.5734306 | 17.427179 | 1" /><inkscape:path-effect
       effect="knot"
       id="path-effect1312-0"
       is_visible="true"
       lpeversion="1"
       switcher_size="15"
       interruption_width="3"
       prop_to_stroke_width="true"
       add_stroke_width="inkscape_1.0_and_up"
       both="false"
       inverse_width="false"
       add_other_stroke_width="inkscape_1.0_and_up"
       crossing_points_vector="" /></defs><sodipodi:namedview
     id="base"
     pagecolor="#ffffff"
     bordercolor="#666666"
     borderopacity="1.0"
     inkscape:pageopacity="0.0"
     inkscape:pageshadow="2"
     inkscape:zoom="0.60095796"
     inkscape:cx="292.03374"
     inkscape:cy="520.0031"
     inkscape:document-units="px"
     inkscape:current-layer="layer1"
     showgrid="false"
     inkscape:window-width="2560"
     inkscape:window-height="1315"
     inkscape:window-x="156"
     inkscape:window-y="143"
     inkscape:window-maximized="0"
     inkscape:showpageshadow="2"
     inkscape:pagecheckerboard="0"
     inkscape:deskcolor="#d1d1d1"
     inkscape:lockguides="true" /><metadata
     id="metadata7"><rdf:RDF><cc:Work
         rdf:about=""><dc:format>image/svg+xml</dc:format><dc:type
           rdf:resource="http://purl.org/dc/dcmitype/StillImage" /></cc:Work></rdf:RDF></metadata><g
     inkscape:label="Layer 1"
     inkscape:groupmode="layer"
     id="layer1"
     transform="translate(-27.769241,-142.30799)"><g
       id="g2302"
       transform="matrix(0.33794256,0,0,0.33794256,114.08529,101.83476)"><path
         id="path2141"
         style="fill:none;fill-opacity:0;stroke:#000000;stroke-width:10;stroke-dasharray:none;stroke-opacity:1"
         inkscape:path-effect="#path-effect2145"
         inkscape:original-d="M 201.97227,1142.9489 A 262.52703,439.07272 0 0 1 -60.554747,703.87618 262.52703,439.07272 0 0 1 201.97227,264.80351 262.52703,439.07272 0 0 1 464.4993,703.87618 262.52703,439.07272 0 0 1 201.97227,1142.9489 Z M 641.04496,703.87622 A 439.07272,262.52703 0 0 1 201.97225,966.40323 439.07272,262.52703 0 0 1 -237.1004,703.87622 439.07272,262.52703 0 0 1 201.97225,441.34917 439.07272,262.52703 0 0 1 641.04496,703.87622 Z"
         d="m 433.42958,496.67571 c 20.21446,63.16791 31.06972,134.24826 31.06972,207.20047 0,116.44933 -27.65902,228.12919 -76.89239,310.47132 -49.23337,82.3421 -116.00814,128.6014 -185.63464,128.6014 -69.6265,0 -136.401269,-46.2593 -185.634635,-128.6014 C 4.0539015,993.8031 -6.8868216,971.43244 -16.39003,947.61708 M -29.485029,911.07669 C -49.699496,847.90877 -60.554747,776.8284 -60.554747,703.87618 c 8e-6,-116.44931 27.659028,-228.12916 76.892393,-310.47126 49.233365,-82.34209 116.008134,-128.6014 185.634624,-128.60141 69.62649,0 136.40126,46.25931 185.63463,128.6014 12.28374,20.54438 23.22447,42.91504 32.72768,66.7304 M -5.2282073,472.4189 C 57.939694,452.20443 129.02004,441.34918 201.97225,441.34917 c 116.44933,0 228.1292,27.65902 310.4713,76.8924 82.34211,49.23337 128.60142,116.00815 128.60141,185.63465 -10e-6,69.62649 -46.25933,136.40126 -128.60143,185.63463 -20.54437,12.28373 -42.91502,23.22445 -66.73037,32.72766 m -36.5404,13.095 c -63.16791,20.21447 -134.24828,31.06972 -207.20051,31.06972 -116.449308,-10e-6 -228.129149,-27.65903 -310.47124,-76.89239 -82.34209,-49.23337 -128.6014,-116.00813 -128.60141,-185.63462 -1e-5,-69.62649 46.25929,-136.40127 128.60139,-185.63464 20.544372,-12.28374 42.915035,-23.22447 66.730403,-32.72768" /><path
         id="path1345"
         style="fill:none;fill-opacity:0;stroke:#000000;stroke-width:10;stroke-dasharray:none;stroke-opacity:1"
         d="m 1116.0126,783.1683 c 42.8579,-28.55561 94.5929,-45.24075 150.2989,-45.24076 147.9602,10e-6 267.9056,117.71041 267.9056,262.91356 0,145.2032 -119.9454,262.9136 -267.9056,262.9136 -95.6746,0 -179.6355,-49.2174 -227.0278,-123.2601 m -16.3693,-29.6446 c -15.7325,-33.4678 -24.50844,-70.7326 -24.50844,-110.0089 0,-79.79885 36.22634,-151.29424 93.42024,-199.51163 m 329.5327,3.62886 c -9.1423,15.56197 -30.1921,50.28083 -65.9605,101.13839 -42.4609,60.3734 -147.9513,212.55528 -318.7369,219.39678 -170.78569,6.8416 -244.69879,-115.625 -257.47974,-137.76227 -12.78095,-22.13725 -81.88357,-147.38117 9.4342,-291.86512 49.03321,-77.58088 124.81352,-117.87932 195.89831,-139.59187 m 28.93233,-7.94056 c 50.1767,-12.29817 95.6153,-16.17481 124.3303,-18.7568 73.7556,-6.63193 117.1745,-6.62636 128.5346,-6.62636 11.3602,0 54.8086,-0.006 128.3239,6.57972 73.5154,6.5855 258.054,21.8519 349.3717,166.33587 91.3178,144.48395 22.2152,269.72787 9.4342,291.86512 -12.1829,21.10147 -79.9112,133.36327 -234.1395,137.89687 m -33.8413,-0.7422 c -86.7765,-6.5733 -156.0832,-50.4953 -208.3382,-99.2494 m -21.3429,-21.0859 c -35.7388,-37.30513 -61.8153,-74.71775 -78.4089,-98.29467 -42.6213,-60.55827 -64.3259,-98.16296 -70.006,-108.00111 -5.68,-9.83815 -27.4093,-47.46272 -58.4637,-114.42162 -31.0545,-66.9589 -110.10267,-234.4072 -30.6348,-385.73268 79.4679,-151.32549 222.4836,-154.10282 248.0455,-154.10282 25.5619,0 168.5777,2.77733 248.0456,154.10282 42.6704,81.25445 39.6797,167.03135 22.9409,239.44886 m -7.5894,29.02645 c -14.4378,49.60334 -33.7999,90.89261 -45.9213,117.05152 -20.595,44.44541 -37.0681,75.94282 -47.5049,95.02194"
         inkscape:path-effect="#path-effect2083-8"
         inkscape:original-d="m 1534.2171,1000.8411 a 267.90561,262.91357 0 0 1 -267.9056,262.9136 267.90561,262.91357 0 0 1 -267.90554,-262.9136 267.90561,262.91357 0 0 1 267.90554,-262.91356 267.90561,262.91357 0 0 1 267.9056,262.91356 z m -497.5556,124.6524 c -170.78569,6.8416 -244.69879,-115.625 -257.47974,-137.76227 -12.78095,-22.13725 -81.88357,-147.38117 9.4342,-291.86512 91.31776,-144.48397 275.40534,-159.6573 349.16094,-166.28923 73.7556,-6.63193 117.1745,-6.62636 128.5346,-6.62636 11.3602,0 54.8086,-0.006 128.3239,6.57972 73.5154,6.5855 258.054,21.8519 349.3717,166.33587 91.3178,144.48395 22.2152,269.72787 9.4342,291.86512 -12.7809,22.13727 -86.694,144.60387 -257.4797,137.76227 -170.7857,-6.8415 -275.9699,-158.67931 -318.5911,-219.23757 -42.6213,-60.55827 -64.3259,-98.16296 -70.006,-108.00111 -5.68,-9.83815 -27.4093,-47.46272 -58.4637,-114.42162 -31.0545,-66.9589 -110.10267,-234.4072 -30.6348,-385.73268 79.4679,-151.32549 222.4836,-154.10282 248.0455,-154.10282 25.5619,0 168.5777,2.77733 248.0456,154.10282 79.4679,151.32548 0.5646,318.33663 -30.5698,385.52683 -31.1344,67.19019 -52.8487,104.78932 -58.5288,114.62747 -5.68,9.83815 -27.3992,47.4685 -69.8601,107.8419 -42.4609,60.3734 -147.9513,212.55528 -318.7369,219.39678 z" /></g><text
       xml:space="preserve"
       style="font-style:normal;font-weight:normal;font-size:40px;line-height:1.25;font-family:sans-serif;fill:#000000;fill-opacity:1;stroke:none"
       x="49.401371"
       y="185.63342"
       id="text2474"><tspan
         sodipodi:role="line"
         id="tspan2472"
         x="49.401371"
         y="185.63342">L4a1</tspan></text><text
       xml:space="preserve"
       style="font-style:normal;font-weight:normal;font-size:40px;line-height:1.25;font-family:sans-serif;fill:#000000;fill-opacity:1;stroke:none"
       x="352.54724"
       y="183.34631"
       id="text2528"><tspan
         sodipodi:role="line"
         id="tspan2526"
         x="352.54724"
         y="183.34631">L7a1</tspan></text></g></svg>
