<?xml version="1.0" encoding="UTF-8" standalone="no"?>
<!-- Created with Inkscape (http://www.inkscape.org/) -->

<svg
   xmlns:dc="http://purl.org/dc/elements/1.1/"
   xmlns:cc="http://creativecommons.org/ns#"
   xmlns:rdf="http://www.w3.org/1999/02/22-rdf-syntax-ns#"
   xmlns:svg="http://www.w3.org/2000/svg"
   xmlns="http://www.w3.org/2000/svg"
   xmlns:sodipodi="http://sodipodi.sourceforge.net/DTD/sodipodi-0.dtd"
   xmlns:inkscape="http://www.inkscape.org/namespaces/inkscape"
   width="210mm"
   height="297mm"
   viewBox="0 0 744.09448819 1052.3622047"
   id="svg2"
   version="1.1"
   inkscape:version="0.91 r13725"
   sodipodi:docname="longthin.svg">
  <defs
     id="defs4" />
  <sodipodi:namedview
     id="base"
     pagecolor="#ffffff"
     bordercolor="#666666"
     borderopacity="1.0"
     inkscape:pageopacity="0.0"
     inkscape:pageshadow="2"
     inkscape:zoom="1.5982422"
     inkscape:cx="525.16498"
     inkscape:cy="945.46744"
     inkscape:document-units="px"
     inkscape:current-layer="layer1"
     showgrid="false"
     inkscape:window-width="2560"
     inkscape:window-height="1315"
     inkscape:window-x="0"
     inkscape:window-y="1"
     inkscape:window-maximized="1" />
  <metadata
     id="metadata7">
    <rdf:RDF>
      <cc:Work
         rdf:about="">
        <dc:format>image/svg+xml</dc:format>
        <dc:type
           rdf:resource="http://purl.org/dc/dcmitype/StillImage" />
        <dc:title />
      </cc:Work>
    </rdf:RDF>
  </metadata>
  <g
     inkscape:label="Layer 1"
     inkscape:groupmode="layer"
     id="layer1">
    <path
       style="fill:none;fill-rule:evenodd;stroke:#000000;stroke-width:1px;stroke-linecap:butt;stroke-linejoin:miter;stroke-opacity:1"
       d="M  138.970553825386 , 771.828591644233 C  44.1271090946195 , 839.675864269374 -28.5035329158461 , 771.929754713053 -26.3040487237808 , 711.508693169178 -24.1045645317156 , 651.087631625304 28.8860768732236 , 654.607968891021 28.8243698620585 , 581.652497540376 28.7626628508933 , 508.697026189732 -30.6427305021048 , 511.808029168039 -27.101723239265 , 444.996177414323 -23.5607159764251 , 378.184325660608 23.5092839432137 , 384.45903974046 26.0770858783953 , 321.479556608727 28.6448878135769 , 258.500073476994 -28.9035709343773 , 261.122920597492 -29.0455086411953 , 187.772055004132 -29.1874463480133 , 114.421189410771 28.7949044168798 , 116.43808647926 26.3514840378754 , 53.8862181498383 23.9080636588711 , -8.66565017958345 -21.6308687829837 , -4.44558502219131 -27.7612150202702 , -66.4438538042949 -33.8915612575567 , -128.442122586398 7.33150366367715 , -146.001365671781 41.2155060527248 , -186.893835603822 75.0995084417725 , -227.786305535864 92.5145381659672 , -273.262969328765 77.2243665811211 , -317.154941904633 61.9341949962751 , -361.0469144805 25.1745791478077 , -374.735281942228 0 , -374.735281942228 -25.1745791478077 , -374.735281942228 -61.9341949962751 , -361.0469144805 -77.2243665811211 , -317.154941904633 -92.5145381659672 , -273.262969328765 -75.0995084417725 , -227.786305535864 -41.2155060527248 , -186.893835603822 -7.33150366367715 , -146.001365671781 33.8915612575567 , -128.442122586398 27.7612150202702 , -66.4438538042949 21.6308687829837 , -4.4455850221913 -23.9080636588711 , -8.66565017958346 -26.3514840378754 , 53.8862181498383 -28.7949044168798 , 116.43808647926 29.1874463480133 , 114.421189410771 29.0455086411953 , 187.772055004132 28.9035709343773 , 261.122920597492 -28.6448878135769 , 258.500073476994 -26.0770858783953 , 321.479556608727 -23.5092839432137 , 384.45903974046 23.5607159764251 , 378.184325660608 27.101723239265 , 444.996177414323 30.6427305021048 , 511.808029168039 -28.7626628508933 , 508.697026189732 -28.8243698620585 , 581.652497540376 -28.8860768732236 , 654.607968891021 24.1045645317156 , 651.087631625304 26.3040487237808 , 711.508693169178 28.5035329158461 , 771.929754713053 -44.1271090946195 , 839.675864269374 -138.970553825386 , 771.828591644233 -233.813998556152 , 703.981319019092 -247.416747588595 , 528.565377459585 -250.222376074292 , 489.292760269357 -253.02800455999 , 450.020143079129 -268.383683896461 , 181.243896088559 -211.463525323319 , -32.118926721989 -154.543366750176 , -245.481749532537 -28.7342881221848 , -249.44483988629 0 , -249.44483988629 28.7342881221848 , -249.44483988629 154.543366750176 , -245.481749532537 211.463525323319 , -32.118926721989 268.383683896461 , 181.243896088559 253.02800455999 , 450.020143079129 250.222376074292 , 489.292760269357 247.416747588595 , 528.565377459585 233.813998556152 , 703.981319019092 138.970553825386 , 771.828591644233 Z "
       id="path3336"
       inkscape:connector-curvature="0"
       sodipodi:nodetypes="zzzzzzzzzzzzzzzzzzzzzzzzzzz" />
  </g>
</svg>
