<?xml version="1.0" encoding="UTF-8" standalone="no"?>
<!-- Created with Inkscape (http://www.inkscape.org/) -->

<svg
   xmlns:dc="http://purl.org/dc/elements/1.1/"
   xmlns:cc="http://creativecommons.org/ns#"
   xmlns:rdf="http://www.w3.org/1999/02/22-rdf-syntax-ns#"
   xmlns:svg="http://www.w3.org/2000/svg"
   xmlns="http://www.w3.org/2000/svg"
   xmlns:sodipodi="http://sodipodi.sourceforge.net/DTD/sodipodi-0.dtd"
   xmlns:inkscape="http://www.inkscape.org/namespaces/inkscape"
   width="744.09448819"
   height="1052.3622047"
   id="svg2"
   version="1.1"
   inkscape:version="0.48.4 r9939"
   sodipodi:docname="ochiai.svg">
  <defs
     id="defs4" />
  <sodipodi:namedview
     id="base"
     pagecolor="#ffffff"
     bordercolor="#666666"
     borderopacity="1.0"
     inkscape:pageopacity="0.0"
     inkscape:pageshadow="2"
     inkscape:zoom="1.4376582"
     inkscape:cx="-41.656618"
     inkscape:cy="1059.1834"
     inkscape:document-units="px"
     inkscape:current-layer="layer1"
     showgrid="false"
     inkscape:window-width="1600"
     inkscape:window-height="824"
     inkscape:window-x="-3"
     inkscape:window-y="-3"
     inkscape:window-maximized="1" />
  <metadata
     id="metadata7">
    <rdf:RDF>
      <cc:Work
         rdf:about="">
        <dc:format>image/svg+xml</dc:format>
        <dc:type
           rdf:resource="http://purl.org/dc/dcmitype/StillImage" />
        <dc:title />
      </cc:Work>
    </rdf:RDF>
  </metadata>
  <g
     inkscape:label="Layer 1"
     inkscape:groupmode="layer"
     id="layer1">
    <path
       style="fill:none;stroke:#000000;stroke-width:1px;stroke-linecap:butt;stroke-linejoin:miter;stroke-opacity:1"
       d="M  108.898041823714 , -281.736177820559 C  185.519360293216 , -204.987199117315 116.591400634423 , -8.88067151086998 100.96401538639 , 50.5189148954886 85.3366301383561 , 109.918501301847 89.5699500098961 , 124.30438717144 67.0734808533997 , 180.189123600999 44.5770116969033 , 236.073860030558 11.7521349671538 , 319.36107890072 -91.0425592758998 , 301.66102795854 -193.837253518953 , 283.960977016361 -204.145763945291 , 197.422144154339 -241.75587756498 , 103.565107562099 -279.365991184668 , 9.70807096985905 -328.961025517847 , -57.8075361338242 -266.259669568258 , -137.439554469323 -203.558313618669 , -217.071572804822 -139.86527638915 , -175.940684395166 0 , -175.940684395166 139.86527638915 , -175.940684395166 247.536027933009 , -201.377986897391 295.576614489979 , -79.9099554876877 343.617201046948 , 41.5580759220159 231.893537071955 , 86.0934172307482 171.788102607599 , 103.713221681518 111.682668143244 , 121.333026132289 62.7233692130158 , 104.20817928474 39.3868523393457 , 94.6708456428539 16.0503354656756 , 85.1335120009682 -23.2541295818173 , 64.4296668553584 -58.3526510979003 , 16.5082252122534 -93.4511726139832 , -31.4132164308515 -91.3045281053949 , -82.8143255265257 -64.551993217576 , -110.98848265338 -37.7994583297571 , -139.162639780235 3.98235597546881 , -136.516310032404 28.1487470181751 , -110.42264273938 52.3151380608814 , -84.3289754463562 56.0855674071505 , -40.2063297612985 28.1878100677272 , 11.7163147888453 0.290052728303955 , 63.6389593389891 -34.5055036232336 , 97.862892767919 -45.4855172537498 , 108.279703460962 -56.465530884266 , 118.696514154004 -91.6918732369622 , 150.960631521267 -143.556830321028 , 179.575171133557 -195.421787405093 , 208.189710745847 -242.398916433628 , 235.88178992462 -300.673181644195 , 206.405251543127 -358.947446854761 , 176.928713161633 -376.375666288441 , 109.023662736968 -351.103860662671 , 57.2725378282286 -325.832055036902 , 5.52141291948963 -279.459306565178 , -4.30031862869257 -230.142074661066 , -17.7358576150288 -180.824842756954 , -31.1713966013651 -60.7328225180289 , -48.668887253274 -16.3285926100573 , -50.5589837567381 28.0756372979142 , -52.4490802602023 138.351261194012 , -51.4905259322595 194.061684731979 , 0.161865643816299 249.772108269947 , 51.8142572198921 322.252234472424 , 146.077407081692 216.947253433754 , 236.271923545665 111.642272395083 , 326.466440009637 7.90414257815721 , 232.399723207495 -30.5734162777623 , 198.8506721152 -69.0509751336818 , 165.301621022905 -104.927589209602 , 125.328397348597 -132.671719868855 , 57.7469448234596 -160.415850528108 , -9.8345077016773 -166.374316342067 , -52.4667360480502 -161.903489627669 , -119.494188408116 -157.432662913271 , -186.521640768181 -165.892706020292 , -226.423676201988 -119.715733204558 , -276.319791521763 -73.5387603888248 , -326.215906841538 32.2767233542132 , -358.485156523803 108.898041823714 , -281.736177820559 Z "
       id="path3089"
       inkscape:connector-curvature="0"
       sodipodi:nodetypes="zzzzzzzzzzzzzzzzzzzzzzzzzzz" />
  </g>
</svg>
