<?xml version="1.0" encoding="UTF-8" standalone="no"?>
<svg
   xmlns:dc="http://purl.org/dc/elements/1.1/"
   xmlns:cc="http://creativecommons.org/ns#"
   xmlns:rdf="http://www.w3.org/1999/02/22-rdf-syntax-ns#"
   xmlns:svg="http://www.w3.org/2000/svg"
   xmlns="http://www.w3.org/2000/svg"
   xmlns:sodipodi="http://sodipodi.sourceforge.net/DTD/sodipodi-0.dtd"
   xmlns:inkscape="http://www.inkscape.org/namespaces/inkscape"
   width="618"
   height="600"
   viewBox="0 0 618 600"
   id="svg2"
   version="1.1"
   inkscape:version="0.91 r13725"
   sodipodi:docname="ornamental20.svg">
  <metadata
     id="metadata28">
    <rdf:RDF>
      <cc:Work
         rdf:about="">
        <dc:format>image/svg+xml</dc:format>
        <dc:type
           rdf:resource="http://purl.org/dc/dcmitype/StillImage" />
        <dc:title>20 crossings ornamental knot (five-fold symmetry)</dc:title>
      </cc:Work>
    </rdf:RDF>
  </metadata>
  <defs
     id="defs26" />
  <sodipodi:namedview
     pagecolor="#ffffff"
     bordercolor="#666666"
     borderopacity="1"
     objecttolerance="10"
     gridtolerance="10"
     guidetolerance="10"
     inkscape:pageopacity="0"
     inkscape:pageshadow="2"
     inkscape:window-width="2084"
     inkscape:window-height="1049"
     id="namedview24"
     showgrid="false"
     inkscape:zoom="1.3716813"
     inkscape:cx="-29.584687"
     inkscape:cy="582.23899"
     inkscape:window-x="1067"
     inkscape:window-y="93"
     inkscape:window-maximized="0"
     inkscape:current-layer="svg2" />
  <title
     id="title4">20 crossings ornamental knot (five-fold symmetry)</title>
  <path
     style="fill:none;stroke:#000000;stroke-width:2;stroke-linejoin:round;stroke-miterlimit:4;stroke-dasharray:none"
     inkscape:connector-curvature="0"
       d="M  -198.652501441772 , -97.1946753615815 C  -224.290338372449 , -75.4172746774173 -252.735837184135 , -48.3057948886199 -264.044514408738 , -6.04587379974542 -275.35319163334 , 36.214047289129 -261.566290751986 , 75.8171075393188 -228.731923531772 , 96.7527605447358 -195.897556311557 , 117.688413550153 -164.819924346666 , 111.476428083387 -124.198828018038 , 107.532708703249 -83.5777316894108 , 103.588989323112 -60.0200262021329 , 100.742111913984 -11.6347709069448 , 97.4176105636273 36.7504843882434 , 94.0931092132703 88.7132301912338 , 100.774120034071 123.444673940269 , 139.893639560486 158.176117689304 , 179.013159086902 156.869352472458 , 229.844018669958 140.545924594594 , 264.985810464406 124.22249671673 , 300.127602258855 97.3555812853117 , 315.032869940837 92.0301985028633 , 317.934773546851 86.7048157204149 , 320.836677152865 38.8262722929412 , 346.801950440193 -2.65574888907238 , 311.809223888364 -44.137770071086 , 276.816497336534 -21.0272655540239 , 235.60249283873 -18.4358501992869 , 231.113910835268 -15.8444348445499 , 226.625328831806 -6.12951962724284 , 210.80490476923 17.520918993728 , 203.216099893368 41.1713576146988 , 195.627295017506 70.0417721312473 , 197.945899607028 103.583652862595 , 195.397154808758 137.125533593942 , 192.848410010488 176.074153533749 , 187.63460681431 210.062823971438 , 160.092686168024 244.051494409126 , 132.550765521737 256.17575205706 , 92.4074797372008 241.917859060055 , 56.1706238470839 227.65996606305 , 19.933767956967 198.866320213703 , 6.69239602325502 163.685102862877 , -13.9935493310872 128.50388551205 , -34.6794946854294 107.771948868193 , -46.2231943438146 66.6733621922491 , -71.9737557444712 25.5747755163052 , -97.7243171451278 -12.5369692818264 , -133.672304090379 -17.641420859579 , -185.73529062554 -22.7458724373316 , -237.798277160701 8.18895245502503 , -278.153209079409 42.0507099705801 , -296.988845680436 75.9124674861352 , -315.824482281463 106.409355181528 , -312.091120476717 112.42337649727 , -311.308628347685 118.437397813012 , -310.526136218653 172.433957821792 , -303.390181843777 185.425409314394 , -250.69795109776 198.416860806996 , -198.005720351743 155.495085872389 , -178.246904034942 150.760264505582 , -176.138760641574 146.025443138775 , -174.030617248206 128.866899680067 , -166.941909215369 105.272705322723 , -174.703816135456 81.678510965379 , -182.465723055543 59.6846965704609 , -201.3111174521 31.050630431223 , -218.964562424014 2.4165642919851 , -236.618007395928 -32.1581277738385 , -255.293376402657 -75.8442745498345 , -252.989533770387 -119.53042132583 , -250.685691138117 -152.934783169902 , -225.335550568827 -162.699394913004 , -187.638739098603 -172.464006656106 , -149.941927628379 -156.952540976726 , -122.304952315188 -140.649231866119 , -84.8906702623018 -124.345922755512 , -47.4763882094156 -114.358650100419 , -25.9514123971004 -96.2449952643465 , 19.0383725289101 -78.1313404282738 , 64.0281574549206 -68.4279877773253 , 115.512211338674 -94.9002553796287 , 160.632373581977 -121.372522981932 , 205.75253582528 -170.119355876945 , 220.217327700382 -208.585402578057 , 215.552236126136 -247.051449279168 , 210.887144551891 -269.529534689984 , 189.941170577529 -273.935042805472 , 185.773168110812 -278.340550920961 , 181.605165644095 -317.830276863266 , 144.09367563605 -297.368865759478 , 93.8285818977712 -276.90745465569 , 43.5634881594929 -230.569068471085 , 52.8070562792465 -225.499381923669 , 53.884590619081 -220.429695376253 , 54.9621249589155 -202.381504079928 , 59.3127784880362 -187.855734293546 , 79.4606125781122 -173.329964507163 , 99.6084466681882 -166.613639790477 , 127.782330743692 -153.824628272425 , 158.894949525045 -141.035616754373 , 190.007568306397 -124.041209781117 , 225.438753307909 -87.3442098977266 , 249.252978270452 -50.6472100143366 , 273.067203232995 -8.72207482606285 , 272.193099956832 21.3352918582272 , 247.43523362063 51.3926585425173 , 222.677367284427 55.0882257073 , 191.201173815154 63.8901347880685 , 151.349539143251 72.692043868837 , 111.497904471349 77.2642339018417 , 88.2134616583884 89.0543113925362 , 41.1690219022123 100.844388883231 , -5.87541785396373 123.255779287301 , -53.2303799712561 171.193259604863 , -74.1733495236696 219.130739922425 , -95.1163190760831 267.069947498111 , -78.1659120514826 295.447560957796 , -51.7819987226956 323.82517441748 , -25.3980853939087 329.69859291881 , 4.75985061933296 330.812833471641 , 10.7213281466429 331.927074024473 , 16.6828056739528 341.826232796762 , 70.2417171007462 295.727522680447 , 98.8801164709631 249.628812564131 , 127.51851584118 217.573503668228 , 92.8032921292926 214.105399889008 , 88.9516615500272 210.637296109788 , 85.1000309707618 198.593252615583 , 70.9718176545329 198.684257745803 , 46.1338442171831 198.775262876024 , 21.2958707798334 209.901835599863 , -5.44503685287413 217.842846420379 , -38.1328665482071 225.783857240895 , -70.8206962435401 232.861021205341 , -109.474188830942 217.170174884861 , -150.310256868343 201.479328564381 , -191.146324905744 167.047396690892 , -215.082136664525 128.178167526493 , -212.719878913846 89.3089383620954 , -210.357621163168 67.8179194023889 , -187.065045606608 37.2728222332122 , -159.998028253112 6.72772506403538 , -132.931010899615 -10.6575064674827 , -116.780966831458 -47.847907413494 , -85.6512492502785 -85.0383083595054 , -54.5215316690993 -131.004052419383 , -29.3836473111097 -182.096257305925 , -40.6173729932538 -233.188462192466 , -51.8510986753979 -262.008896548649 , -93.742225239448 -269.458792944913 , -131.767202187411 -276.908689341177 , -169.792179135374 -263.933994695666 , -197.642770660982 -261.331365666303 , -203.120641456621 -258.72873663694 , -208.59851225226 -235.256186048229 , -257.747161333212 -181.12831734629 , -253.819971159338 -127.000448644351 , -249.892780985464 -121.472255515509 , -202.965937212328 -120.930432271634 , -197.811402362802 -120.38860902776 , -192.656867513277 -118.949128588479 , -174.14759169643 -133.622147768708 , -154.106740553207 -148.295166948938 , -134.065889409984 -173.014664511094 , -118.972076045746 -198.652501441772 , -97.1946753615815 Z "
     id="Main"
     sodipodi:nodetypes="zzzzzzzzzzzzzzzzzzzzzzzzzzzzzzzzzzzzzzzzzzzzzzzzzzzzzzzz" />
</svg>
