<?xml version="1.0" encoding="UTF-8" standalone="no"?>
<svg
   xmlns:dc="http://purl.org/dc/elements/1.1/"
   xmlns:cc="http://creativecommons.org/ns#"
   xmlns:rdf="http://www.w3.org/1999/02/22-rdf-syntax-ns#"
   xmlns:svg="http://www.w3.org/2000/svg"
   xmlns="http://www.w3.org/2000/svg"
   xmlns:sodipodi="http://sodipodi.sourceforge.net/DTD/sodipodi-0.dtd"
   xmlns:inkscape="http://www.inkscape.org/namespaces/inkscape"
   width="618"
   height="600"
   viewBox="0 0 618 600"
   id="svg2"
   version="1.1"
   inkscape:version="0.91 r13725"
   sodipodi:docname="ornamental20.svg">
  <metadata
     id="metadata28">
    <rdf:RDF>
      <cc:Work
         rdf:about="">
        <dc:format>image/svg+xml</dc:format>
        <dc:type
           rdf:resource="http://purl.org/dc/dcmitype/StillImage" />
        <dc:title>20 crossings ornamental knot (five-fold symmetry)</dc:title>
      </cc:Work>
    </rdf:RDF>
  </metadata>
  <defs
     id="defs26" />
  <sodipodi:namedview
     pagecolor="#ffffff"
     bordercolor="#666666"
     borderopacity="1"
     objecttolerance="10"
     gridtolerance="10"
     guidetolerance="10"
     inkscape:pageopacity="0"
     inkscape:pageshadow="2"
     inkscape:window-width="2084"
     inkscape:window-height="1049"
     id="namedview24"
     showgrid="false"
     inkscape:zoom="1.3716813"
     inkscape:cx="-29.584687"
     inkscape:cy="582.23899"
     inkscape:window-x="1067"
     inkscape:window-y="93"
     inkscape:window-maximized="0"
     inkscape:current-layer="svg2" />
  <title
     id="title4">20 crossings ornamental knot (five-fold symmetry)</title>
  <path
     style="fill:none;stroke:#000000;stroke-width:2;stroke-linejoin:round;stroke-miterlimit:4;stroke-dasharray:none"
     inkscape:connector-curvature="0"
       d="M  -198.654215142816 , -97.1805438061767 C  -224.292960023665 , -75.393941904453 -252.693265849972 , -48.3323753026546 -264.009957887428 , -6.06572704236646 -275.326649924883 , 36.2009212179217 -261.547210925781 , 75.7635749025895 -228.715296058628 , 96.7142031268656 -195.883381191474 , 117.664831351142 -164.776453282447 , 111.45130865616 -124.161171640874 , 107.510639453146 -83.5458899993009 , 103.569970250132 -59.8563536415973 , 100.709115211195 -11.5355306972037 , 97.4124700807725 36.78529224719 , 94.1158249503499 88.6980714626106 , 100.788984713461 123.419861566561 , 139.875780791738 158.141651670512 , 178.962576870015 156.88726750857 , 229.774241715363 140.544247535718 , 264.964051203911 124.201227562867 , 300.15386069246 97.3301544985572 , 315.052819589173 92.0141561366378 , 317.949443132925 86.6981577747183 , 320.846066676677 38.8024492985818 , 346.823984030421 -2.69650836108443 , 311.80723571962 -44.1954660207506 , 276.790487408819 -21.0342191804184 , 235.566722103826 -18.444204389052 , 231.089069736671 -15.8541895976857 , 226.611417369516 -6.1293237290002 , 210.79463257821 17.5247029793973 , 203.206909081868 41.1787296877947 , 195.619185585527 70.045321977271 , 197.942384488403 103.593345595722 , 195.386729428479 137.141369214172 , 192.831074368555 176.024089025569 , 187.631088018591 210.023197715208 , 160.088435965101 244.022306404848 , 132.545783911611 256.128850459024 , 92.439573709609 241.881743670117 , 56.1920440699032 227.634636881211 , 19.9445144301975 198.816386555116 , 6.68716641632091 163.641666234064 , -13.9978287958526 128.466945913012 , -34.6828240080261 107.620140009933 , -46.2927037677875 66.5900536760315 , -72.0279289382026 25.55996734213 , -97.7631541086177 -12.5159683734317 , -133.675419791493 -17.6318443484732 , -185.706258230784 -22.7477203235147 , -237.737096670075 8.13344502149481 , -278.107288531347 42.0392769672912 , -296.970256318436 75.9451089130876 , -315.833224105525 106.441651993205 , -312.092314590985 112.444977610528 , -311.31106682584 118.448303227851 , -310.529819060695 172.466182048477 , -303.394004587969 185.457215803667 , -250.672384818919 198.448249558857 , -197.950765049869 155.479685963874 , -178.213877663458 150.75242195567 , -176.113753301111 146.025157947466 , -174.013628938764 128.860703352669 , -166.933713984362 105.264241790554 , -174.698604783732 81.667780228439 , -182.463495583102 59.6797585498126 , -201.310360208536 31.0366609606239 , -218.961825359782 2.39356337143521 , -236.613290511028 -32.1196930321353 , -255.261102457548 -75.8147144417189 , -252.962803554978 -119.509735851303 , -250.664504652408 -152.877974616359 , -225.333947070288 -162.657586457712 , -187.634840329301 -172.437198299065 , -149.935733588314 -156.915217684169 , -122.271371206194 -140.616606301508 , -84.8616766927544 -124.317994918847 , -47.4519821793148 -114.276690768497 , -25.8059470837845 -96.2094394632952 , 19.1311670805015 -78.1421881580936 , 64.0682812447874 -68.4468092322793 , 115.502387969585 -94.8909381263838 , 160.603256949236 -121.335067020488 , 205.704125928886 -170.047457998977 , 220.21280364743 -208.565226531266 , 215.543917167086 -247.082995063555 , 210.875030686742 -269.556365242251 , 189.923153046666 -273.953951774693 , 185.762444065274 -278.351538307135 , 181.601735083882 -317.858593762944 , 144.077827375854 -297.379570268173 , 93.7892029583841 -276.900546773401 , 43.500578540914 -230.53719726929 , 52.7893892225652 -225.478338221588 , 53.868968990841 -220.419479173886 , 54.9485487591167 -202.371674109836 , 59.3097905167416 -187.845823996501 , 79.461371245395 -173.319973883166 , 99.6129519740485 -166.609199751255 , 127.784620616492 -153.811717927318 , 158.900946242367 -141.014236103381 , 190.017271868241 -124.053333991361 , 225.390051763491 -87.3524129011397 , 249.213978076316 -50.6514918109187 , 273.037904389141 -8.7670913985117 , 272.158411469287 21.3037597464853 , 247.407505056565 51.3746108914822 , 222.656598643844 55.0777690099576 , 191.152068046356 63.8807821444384 , 151.306906027034 72.6837952789191 , 111.461744007712 77.283429775356 , 88.047603261232 89.0800894141555 , 41.0730503574981 100.876749052955 , -5.90150254623578 123.26523213274 , -53.2113697250728 171.168607461326 , -74.155270217012 219.071982789911 , -95.0991707089512 267.00912172137 , -78.2045125281021 295.426348431619 , -51.7871277262018 323.843575141867 , -25.3697429243014 329.709708852638 , 4.79019771093189 330.821827713275 , 10.7411184949758 331.933946573912 , 16.6920392790197 341.839826276212 , 70.2711828685971 295.713036450074 , 98.9182666544915 249.586246623936 , 127.565350440386 217.537334888976 , 92.7988516560001 214.079193013704 , 88.9519305350162 210.621051138431 , 85.1050094140323 198.583543717262 , 70.9684570626379 198.676686080515 , 46.1274053160093 198.769828443767 , 21.2863535693807 209.899589486138 , -5.44949918845914 217.835926513788 , -38.1453065048872 225.772263541438 , -70.8411138213153 232.842203847899 , -109.427662021879 217.153887515078 , -150.273883444073 201.465571182256 , -191.120104866266 167.063426481628 , -215.027613011197 128.187379099737 , -212.678911924033 89.3113317178463 , -210.330210836869 67.7975154015419 , -187.019171912643 37.2553295638793 , -159.958039991573 6.71314372621674 , -132.896908070503 -10.770525375195 , -116.658067620855 -47.9251729296882 , -85.5887585805695 -85.0798204841814 , -54.5194495402839 -131.000525989639 , -29.4045831664802 -182.06568655303 , -40.6175092931774 -233.13084711642 , -51.8304354198745 -261.982376252458 , -93.6752443033441 -269.444646403362 , -131.75058432636 -276.906916554267 , -169.825924349376 -263.925150102149 , -197.673855755785 -261.327009685748 , -203.141938867335 -258.728869269346 , -208.610021978884 -235.249863860327 , -257.778989686903 -181.094173624484 , -253.842320513577 -126.938483388641 , -249.90565134025 -121.445604403142 , -202.941085318933 -120.909072358734 , -197.796215961417 -120.372540314326 , -192.651346603901 -118.943249231095 , -174.139166173227 -133.619806853965 , -154.097080859541 -148.296364476835 , -134.054995545854 -173.015470261967 , -118.9671457079 -198.654215142816 , -97.1805438061767 Z "
     id="Main"
     sodipodi:nodetypes="zzzzzzzzzzzzzzzzzzzzzzzzzzzzzzzzzzzzzzzzzzzzzzzzzzzzzzzz" />
</svg>
