<?xml version="1.0" encoding="UTF-8" standalone="no"?>
<svg
   xmlns:dc="http://purl.org/dc/elements/1.1/"
   xmlns:cc="http://creativecommons.org/ns#"
   xmlns:rdf="http://www.w3.org/1999/02/22-rdf-syntax-ns#"
   xmlns:svg="http://www.w3.org/2000/svg"
   xmlns="http://www.w3.org/2000/svg"
   xmlns:sodipodi="http://sodipodi.sourceforge.net/DTD/sodipodi-0.dtd"
   xmlns:inkscape="http://www.inkscape.org/namespaces/inkscape"
   width="618"
   height="600"
   viewBox="0 0 618 600"
   id="svg2"
   version="1.1"
   inkscape:version="0.91 r13725"
   sodipodi:docname="ornamental20.svg">
  <metadata
     id="metadata28">
    <rdf:RDF>
      <cc:Work
         rdf:about="">
        <dc:format>image/svg+xml</dc:format>
        <dc:type
           rdf:resource="http://purl.org/dc/dcmitype/StillImage" />
        <dc:title>20 crossings ornamental knot (five-fold symmetry)</dc:title>
      </cc:Work>
    </rdf:RDF>
  </metadata>
  <defs
     id="defs26" />
  <sodipodi:namedview
     pagecolor="#ffffff"
     bordercolor="#666666"
     borderopacity="1"
     objecttolerance="10"
     gridtolerance="10"
     guidetolerance="10"
     inkscape:pageopacity="0"
     inkscape:pageshadow="2"
     inkscape:window-width="2084"
     inkscape:window-height="1049"
     id="namedview24"
     showgrid="false"
     inkscape:zoom="1.3716813"
     inkscape:cx="-29.584687"
     inkscape:cy="582.23899"
     inkscape:window-x="1067"
     inkscape:window-y="93"
     inkscape:window-maximized="0"
     inkscape:current-layer="svg2" />
  <title
     id="title4">20 crossings ornamental knot (five-fold symmetry)</title>
  <path
     style="fill:none;stroke:#000000;stroke-width:2;stroke-linejoin:round;stroke-miterlimit:4;stroke-dasharray:none"
     inkscape:connector-curvature="0"
       d="M  -200.391706684625 , -98.7887186389201 C  -231.217753501176 , -74.8318671920213 -259.099209957303 , -48.4283199476499 -268.994899816302 , -5.34413990424675 -278.890589675302 , 37.7400401391564 -260.608118421714 , 80.8763964552613 -223.549533995155 , 101.334694205009 -186.490949568596 , 121.792991954758 -168.114247220968 , 108.795384806575 -122.533398240445 , 103.855874509997 -76.9525492599225 , 98.9163642134188 -63.6573432842162 , 101.210785144937 -13.3342299237194 , 98.4380465896126 36.9888834367775 , 95.6653080342881 90.6834358916163 , 99.4592414652318 125.917593143525 , 142.049022869873 161.151750395434 , 184.638804274515 156.040905633091 , 235.74431135198 138.910133721638 , 267.776541216139 121.779361810185 , 299.808771080297 95.7724703836205 , 313.297862842792 90.8652974415133 , 315.813016913054 85.9581244994061 , 318.328170983316 42.6426763230884 , 340.527580410802 2.56417386408648 , 312.215021803957 -37.5143285949154 , 283.902463197113 -24.7901068751567 , 242.098320720159 -20.6906711174489 , 232.059637472426 -16.591235359741 , 222.020954224693 -5.80344723018557 , 203.284627924777 20.4780981105025 , 196.701969394695 46.7596434511906 , 190.119310864613 65.0334646149968 , 198.971446349364 104.053744330833 , 197.709042102353 143.07402404667 , 196.446637855342 181.150211826051 , 191.47402834021 214.480238729671 , 162.434735056767 247.810265633292 , 133.395441773324 258.374349770208 , 87.7512294598619 240.418410885953 , 49.417629507566 222.462472001698 , 11.08402955527 199.955605705103 , 10.7977599986546 160.176552955947 , -11.9978430452453 120.397500206791 , -34.7934460891452 110.990079414827 , -44.464397613704 68.6480506650456 , -71.8003888842302 26.3060219152642 , -99.1363801547564 -14.9037654071693 , -133.766602837316 -18.3751519984346 , -188.932577790011 -21.8465385896999 , -244.098552742706 12.3272850497109 , -282.439697296463 45.0144429650323 , -298.285100534354 77.7016008803537 , -314.130503772245 106.670307220123 , -309.75694100828 112.118663994368 , -308.907379508774 117.567020768613 , -308.057818009268 165.6584399333 , -300.557335866713 181.440925127961 , -254.09444212017 197.223410322622 , -207.631548373627 162.357440278456 , -181.290396548274 153.140337117669 , -175.578519080812 143.923233956882 , -169.86664161335 124.182793747125 , -161.049537991972 99.0513873232133 , -171.171960131681 73.9199808993016 , -181.29438227139 64.339303714845 , -199.196992898178 32.0292117006447 , -221.111231365871 -0.280880313555599 , -243.025469833564 -34.0079898464901 , -261.38316586967 -78.041416363497 , -257.480782371186 -122.074842880504 , -253.578398872702 -157.450361327635 , -222.860868275909 -165.455626339554 , -181.294098391701 -173.460891351473 , -139.727328507493 -155.420719050962 , -126.266527486762 -136.637708643075 , -84.4429566711034 -117.854698235188 , -42.6193858554448 -115.928377623024 , -29.2658785166743 -97.7406493137492 , 17.737423030532 -79.5529210044746 , 64.7407245777383 -66.5686369024614 , 116.979668485154 -96.1859726616125 , 163.650309576498 -125.803308420764 , 210.320950667843 -175.986871832532 , 221.252718645929 -211.745032423704 , 214.858889786126 -247.503193014876 , 208.465060926322 -268.368653056173 , 187.899395959801 -272.27710655763 , 184.009622507805 -276.185560059087 , 180.119849055809 -310.683662658451 , 145.784404589658 -296.141757671352 , 98.9184218989207 -281.599852684254 , 52.0524392081839 -237.909749821816 , 51.2357027288946 -227.095599387557 , 52.0323740946994 -216.281448953297 , 52.8290454605043 -195.128533870581 , 57.2989984187011 -180.746609432292 , 80.2600800193065 -166.364684994004 , 103.221161619912 -169.136644838118 , 123.33605861666 -155.878097495342 , 160.056445541968 -142.619550152566 , 196.776832467277 -126.124128365368 , 231.452818123968 -88.2065745233507 , 254.177922269727 -50.2890206813333 , 276.903026415486 -3.61431360114206 , 272.845230172872 27.294416161348 , 243.922383649974 58.203145923838 , 214.999537127076 51.5204002753015 , 193.505773116349 60.9079037734535 , 148.629417049625 70.2954072716054 , 103.753060982901 76.5859758398584 , 91.8175837643084 89.4996420070847 , 43.1006355479943 102.413308174311 , -5.61631266831988 122.614082500102 , -55.5104767643574 174.007325005892 , -75.8591853742053 225.400567511681 , -96.2078939840532 272.425455149097 , -75.5547215759676 297.596216445469 , -49.3638859246646 322.766977741842 , -23.1730502733616 327.559294939793 , 5.72933187974734 328.434948774354 , 11.1735560341079 329.310602608915 , 16.6177801884685 337.03828599738 , 64.673214210981 297.726504272422 , 94.0410733742144 258.414722547464 , 123.408932537448 222.588621188227 , 98.3892880954368 214.308061386927 , 91.3883692802388 206.027501585628 , 84.3874504650407 191.541806230409 , 68.3378110291872 193.402770089538 , 41.3084227206568 195.263733948666 , 14.2790344121264 209.32953637635 , -0.364941982026401 220.186848148489 , -37.8655376395299 231.044159920628 , -75.3661332970335 238.081116343111 , -113.115360646858 220.762651973479 , -153.787735051061 203.444187603848 , -194.460109455264 163.298443580284 , -218.611987812086 121.292333287409 , -213.380608970848 79.2862229945333 , -208.14923012961 72.0589602915247 , -186.832390434817 38.0866501541194 , -156.044491843273 4.11434001671407 , -125.25659325173 -7.99033434744534 , -119.298092778867 -47.0728134346618 , -87.4757162839087 -86.1552925218782 , -55.6533397889501 -131.825116082088 , -27.161830348712 -185.36379348937 , -40.907569282155 -238.902470896652 , -54.6533082155979 -264.806773999367 , -99.0026111254783 -269.775760708436 , -134.986444543246 -274.744747417504 , -170.970277961013 -261.633419487364 , -197.16964967406 -259.141803652605 , -202.088815946193 -256.650187817847 , -207.007982218326 -234.655739595317 , -250.427863344727 -185.589845593117 , -251.080074956922 -136.523951590917 , -251.732286569117 -122.24620476971 , -210.432914996217 -119.662127999591 , -199.901861766553 -117.078051229472 , -189.370808536888 -114.792618876768 , -167.871899380693 -132.185646090961 , -147.098512002978 -149.578673305154 , -126.325124625262 -169.565659868073 , -122.745570085819 -200.391706684625 , -98.7887186389201 Z "
     id="Main"
     sodipodi:nodetypes="zzzzzzzzzzzzzzzzzzzzzzzzzzzzzzzzzzzzzzzzzzzzzzzzzzzzzzzz" />
</svg>
