<?xml version="1.0" encoding="UTF-8" standalone="no"?>
<!-- Created with Inkscape (http://www.inkscape.org/) -->

<svg
   xmlns:dc="http://purl.org/dc/elements/1.1/"
   xmlns:cc="http://creativecommons.org/ns#"
   xmlns:rdf="http://www.w3.org/1999/02/22-rdf-syntax-ns#"
   xmlns:svg="http://www.w3.org/2000/svg"
   xmlns="http://www.w3.org/2000/svg"
   xmlns:sodipodi="http://sodipodi.sourceforge.net/DTD/sodipodi-0.dtd"
   xmlns:inkscape="http://www.inkscape.org/namespaces/inkscape"
   width="210mm"
   height="297mm"
   viewBox="0 0 744.09448819 1052.3622047"
   id="svg4222"
   version="1.1"
   inkscape:version="0.91 r13725"
   sodipodi:docname="ornamental12.svg">
  <defs
     id="defs4224" />
  <sodipodi:namedview
     id="base"
     pagecolor="#ffffff"
     bordercolor="#666666"
     borderopacity="1.0"
     inkscape:pageopacity="0.0"
     inkscape:pageshadow="2"
     inkscape:zoom="1.1301279"
     inkscape:cx="284.27533"
     inkscape:cy="621.7799"
     inkscape:document-units="px"
     inkscape:current-layer="layer1"
     showgrid="false"
     inkscape:window-width="2560"
     inkscape:window-height="1315"
     inkscape:window-x="-148"
     inkscape:window-y="488"
     inkscape:window-maximized="0" />
  <metadata
     id="metadata4227">
    <rdf:RDF>
      <cc:Work
         rdf:about="">
        <dc:format>image/svg+xml</dc:format>
        <dc:type
           rdf:resource="http://purl.org/dc/dcmitype/StillImage" />
        <dc:title />
      </cc:Work>
    </rdf:RDF>
  </metadata>
  <g
     inkscape:label="Layer 1"
     inkscape:groupmode="layer"
     id="layer1">
    <path
       style="fill:none;fill-rule:evenodd;stroke:#f80000;stroke-width:7.81004333;stroke-linecap:butt;stroke-linejoin:miter;stroke-miterlimit:4;stroke-dasharray:none;stroke-opacity:1"
       d="M -66.71817,-75.371011 C 11.377936,-90.119826 26.419157,-22.549049 62.28928,16.497934 98.159408,55.54491 125.83273,187.74665 184.4554,169.93861 243.0781,152.13059 276.16831,57.385707 162.95417,-48.983109 49.74004,-155.35193 -7.9723218,-7.7701669 -25.670348,55.591098 -43.368375,118.95239 17.630687,140.842 63.266612,210.98645 108.90254,281.1309 126.0478,382.45983 74.017231,445.54544 21.98666,508.63102 -101.3983,489.19014 -179.11102,482.68395 -256.82375,476.17776 -253.875,348.33247 -211.36288,287.21811 -168.85076,226.10376 -101.30788,150.22014 -144.9045,111.29887 -188.50112,72.377584 -245.07287,64.008873 -297.36786,200.23583 -349.66283,336.46278 -241.56046,367.99907 -174.22437,363.44979 -106.8883,358.90051 -75.051721,259.19073 -37.3983,188.50788 0.25512135,117.82504 70.853414,49.975178 145.36225,58.523082 219.8711,67.070988 284.90283,166.64985 294.8936,227.60103 304.88438,288.55224 331.28538,375.12721 168.81814,388.86035 6.3509382,402.59348 -10.922722,362.25452 -26.647666,426.97617 -42.37261,491.69785 78.033219,530.94276 171.75014,499.29854 265.46706,467.65432 227.27647,340.4229 179.56878,291.12742 131.86109,241.83197 65.265327,301.02709 -23.715681,292.10476 -112.6967,283.18246 -182.02815,288.20105 -209.40822,204.14514 -236.7883,120.08925 -144.81428,-60.622181 -66.71817,-75.371011 Z"
       id="path4311"
       inkscape:connector-curvature="0"
       sodipodi:nodetypes="zzzzzzzzzzzzzzzzzzzzzz" />
  </g>
</svg>
