<?xml version="1.0" encoding="UTF-8" standalone="no"?>
<!-- Created with Inkscape (http://www.inkscape.org/) -->

<svg
   xmlns:dc="http://purl.org/dc/elements/1.1/"
   xmlns:cc="http://creativecommons.org/ns#"
   xmlns:rdf="http://www.w3.org/1999/02/22-rdf-syntax-ns#"
   xmlns:svg="http://www.w3.org/2000/svg"
   xmlns="http://www.w3.org/2000/svg"
   xmlns:sodipodi="http://sodipodi.sourceforge.net/DTD/sodipodi-0.dtd"
   xmlns:inkscape="http://www.inkscape.org/namespaces/inkscape"
   width="744.09448819"
   height="1052.3622047"
   id="svg2"
   version="1.1"
   inkscape:version="0.91 r13725"
   sodipodi:docname="perko_B.svg">
  <defs
     id="defs4" />
  <sodipodi:namedview
     id="base"
     pagecolor="#ffffff"
     bordercolor="#666666"
     borderopacity="1.0"
     inkscape:pageopacity="0.0"
     inkscape:pageshadow="2"
     inkscape:zoom="2.2965301"
     inkscape:cx="-306.96367"
     inkscape:cy="954.45237"
     inkscape:document-units="px"
     inkscape:current-layer="layer1"
     showgrid="false"
     inkscape:window-width="1215"
     inkscape:window-height="748"
     inkscape:window-x="232"
     inkscape:window-y="24"
     inkscape:window-maximized="0" />
  <metadata
     id="metadata7">
    <rdf:RDF>
      <cc:Work
         rdf:about="">
        <dc:format>image/svg+xml</dc:format>
        <dc:type
           rdf:resource="http://purl.org/dc/dcmitype/StillImage" />
        <dc:title></dc:title>
      </cc:Work>
    </rdf:RDF>
  </metadata>
  <g
     inkscape:label="Layer 1"
     inkscape:groupmode="layer"
     id="layer1">
    <path
       style="fill:none;stroke:#000000;stroke-width:0.86331469px;stroke-linecap:butt;stroke-linejoin:miter;stroke-opacity:1"
       d="M  0 , -244.966477151033 C  -66.0559215718052 , -244.966477151033 -110.676504994385 , -211.876561229876 -137.31463868129 , -179.978528554695 -163.952772368195 , -148.080495879514 -180.461595008215 , -111.547347372874 -198.076251833829 , 2.75099864466725 -215.690908659444 , 117.049344662209 -199.933987384623 , 14.7821766620188 -217.788082390167 , 130.735150891792 -235.642177395711 , 246.688125121565 -255.988873409934 , 288.614463508266 -223.214758605123 , 359.916325802622 -190.440643800312 , 431.218188096978 -103.677007230378 , 487.75507284901 -13.8394082542066 , 452.293569703631 75.9981907219644 , 416.832066558251 78.1944832605745 , 324.074506741915 65.8769496558019 , 269.080880442906 53.5594160510293 , 214.087254143897 26.5250932752938 , 181.004852881126 -14.9541790585213 , 149.100261525162 -56.4334513923364 , 117.195670169199 -90.5443981392827 , 113.020678733112 -101.548010624866 , 60.6022496701495 -112.55162311045 , 8.18382060718677 -70.9661228028478 , -49.1269602205044 16.1025559130983 , -57.3398247335546 103.171234629044 , -65.5526892466048 131.697180429931 , -52.1081060754447 199.75493160781 , -57.155056994602 267.812682785688 , -62.2020079137593 331.040089406029 , -94.8100404005492 353.366684073285 , -154.434797724632 375.693278740541 , -214.059555048715 342.940699833407 , -253.611286731335 336.381868377848 , -261.167607403687 329.823036922288 , -268.723928076039 290.452200265497 , -312.281405576594 222.665929187244 , -291.033042157506 154.87965810899 , -269.784678738418 127.875360881221 , -201.692808667849 117.039920625176 , -140.527221904186 106.204480369131 , -79.3616351405241 113.287205514314 , -26.006416237932 92.5073746833231 , 70.4642771992525 71.7275438523326 , 166.934970636437 10.8324115236491 , 202.946587029875 -23.1401814533363 , 220.525470661518 -57.1127744303217 , 238.104354293161 -101.211502039495 , 255.143599450092 -166.826334868556 , 254.215786579933 -232.441167697618 , 253.287973709774 -279.11359096251 , 248.359173991832 -320.710260626522 , 209.071165748553 -362.306930290533 , 169.783157505274 -371.734625311797 , 121.153370391757 -374.21238250936 , 106.46820912403 -376.690139706924 , 91.7830478563024 -391.827204773656 , -3.88525235611115 -312.731289170104 , -70.7230810113611 -233.635373566553 , -137.560909666611 -150.49206128297 , -97.3871702716832 -113.82010410717 , -73.7895234171634 -77.148146931369 , -50.1918765626435 -35.9268081382588 , -7.91588515893359 -39.1104195529629 , 52.8558117375521 -42.2940309676671 , 113.627508634038 -69.7661612971649 , 118.840017581816 -80.7006472441972 , 177.159318415049 -91.6351331912296 , 235.478619248281 -68.2421643638441 , 289.180853909622 -10.7654769294743 , 321.664151270303 46.7112105048955 , 354.147448630983 121.38164005558 , 367.556962941748 189.591019064417 , 321.391898296641 257.800398073254 , 275.226833651533 300.312689586319 , 189.866180184401 306.60836852607 , 88.9236001488486 312.90404746582 , -12.0189798867038 281.06886557585 , -99.2791166474371 217.600970471313 , -160.549344358738 154.133075366776 , -221.819572070039 66.0559215718052 , -244.966477151033 0 , -244.966477151033 Z "
       id="path2987"
       inkscape:connector-curvature="0"
       sodipodi:nodetypes="zzzzzzzzzzzzzzzzzzzzzzzzzzzzz" />
  </g>
</svg>
