<?xml version="1.0" encoding="UTF-8" standalone="no"?>
<!-- Created with Inkscape (http://www.inkscape.org/) -->

<svg
   xmlns:dc="http://purl.org/dc/elements/1.1/"
   xmlns:cc="http://creativecommons.org/ns#"
   xmlns:rdf="http://www.w3.org/1999/02/22-rdf-syntax-ns#"
   xmlns:svg="http://www.w3.org/2000/svg"
   xmlns="http://www.w3.org/2000/svg"
   xmlns:sodipodi="http://sodipodi.sourceforge.net/DTD/sodipodi-0.dtd"
   xmlns:inkscape="http://www.inkscape.org/namespaces/inkscape"
   width="744.09448819"
   height="1052.3622047"
   id="svg2"
   version="1.1"
   inkscape:version="0.91 r13725"
   sodipodi:docname="perko_A.svg">
  <defs
     id="defs4" />
  <sodipodi:namedview
     id="base"
     pagecolor="#ffffff"
     bordercolor="#666666"
     borderopacity="1.0"
     inkscape:pageopacity="0.0"
     inkscape:pageshadow="2"
     inkscape:zoom="1.1301279"
     inkscape:cx="191.42857"
     inkscape:cy="626.18267"
     inkscape:document-units="px"
     inkscape:current-layer="layer1"
     showgrid="false"
     inkscape:window-width="2560"
     inkscape:window-height="1315"
     inkscape:window-x="0"
     inkscape:window-y="1"
     inkscape:window-maximized="1" />
  <metadata
     id="metadata7">
    <rdf:RDF>
      <cc:Work
         rdf:about="">
        <dc:format>image/svg+xml</dc:format>
        <dc:type
           rdf:resource="http://purl.org/dc/dcmitype/StillImage" />
        <dc:title />
      </cc:Work>
    </rdf:RDF>
  </metadata>
  <g
     inkscape:label="Layer 1"
     inkscape:groupmode="layer"
     id="layer1">
    <path
       style="fill:none;stroke:#000000;stroke-width:1px;stroke-linecap:butt;stroke-linejoin:miter;stroke-opacity:1"
       d="M  -49.2571039247013 , 446.099601886652 C  -99.7659551154895 , 490.481925016362 -110.426182819002 , 498.772924986435 -149.070548256798 , 540.617718518012 -187.714913694593 , 582.46251204959 -216.09263202467 , 620.665541607841 -216.459858895384 , 670.72255869226 -216.827085766099 , 720.779575776678 -188.904159590391 , 750.518257897118 -182.782809868495 , 756.82714609225 -176.661460146599 , 763.136034287381 -139.320509507617 , 800.903469945514 -75.3475091528296 , 789.342976108158 -11.374508798042 , 777.782482270803 -0.802924967419074 , 739.617273785204 81.7851760659275 , 672.276291384057 164.373277099274 , 604.93530898291 234.133858393816 , 583.45696588217 296.085551663284 , 504.705597290042 358.037244932751 , 425.954228697914 387.06060464832 , 315.109139032502 331.090312552765 , 232.693003033753 275.120020457209 , 150.276867035004 166.815821580597 , 163.590043528168 133.166035562464 , 236.376145240361 99.5162495443324 , 309.162246952554 144.905596913069 , 329.082152051217 134.3871376293 , 410.167622776915 123.868678345531 , 491.253093502614 59.5504636432779 , 533.585880904845 0 , 533.585880904845 -59.5504636432779 , 533.585880904845 -123.868678345531 , 491.253093502614 -134.3871376293 , 410.167622776915 -144.905596913069 , 329.082152051217 -99.5162495443324 , 309.162246952554 -133.166035562464 , 236.376145240361 -166.815821580597 , 163.590043528168 -275.120020457209 , 150.276867035004 -331.090312552765 , 232.693003033753 -387.06060464832 , 315.109139032502 -358.037244932751 , 425.954228697914 -296.085551663284 , 504.705597290042 -234.133858393816 , 583.45696588217 -164.373277099274 , 604.93530898291 -81.7851760659275 , 672.276291384057 0.802924967419074 , 739.617273785204 11.374508798042 , 777.782482270803 75.3475091528296 , 789.342976108158 139.320509507617 , 800.903469945514 176.661460146599 , 763.136034287381 182.782809868495 , 756.82714609225 188.904159590391 , 750.518257897118 216.827085766099 , 720.779575776678 216.459858895384 , 670.72255869226 216.09263202467 , 620.665541607841 187.714913694593 , 582.46251204959 149.070548256798 , 540.617718518012 110.426182819002 , 498.772924986435 99.7659551154895 , 490.481925016362 49.2571039247013 , 446.099601886652 -1.25174726608687 , 401.717278756942 -3.39557623440621 , 387.238784276427 -63.4527932192714 , 351.943940870255 -123.510010204137 , 316.649097464082 -154.065459083903 , 332.78575852014 -194.266707950064 , 274.242498758249 -234.467956816226 , 215.699238996359 -223.376846381262 , 130.855541266713 -164.995789806881 , 75.2024417115269 -106.6147332325 , 19.5493421563403 -35.4094364611269 , 12.4556874136122 0 , 12.4556874136122 35.4094364611269 , 12.4556874136122 106.6147332325 , 19.5493421563403 164.995789806881 , 75.2024417115269 223.376846381262 , 130.855541266713 234.467956816226 , 215.699238996359 194.266707950064 , 274.242498758249 154.065459083903 , 332.78575852014 123.510010204137 , 316.649097464082 63.4527932192714 , 351.943940870255 3.39557623440621 , 387.238784276427 1.25174726608686 , 401.717278756942 -49.2571039247013 , 446.099601886652 Z "
       id="path2985"
       inkscape:connector-curvature="0"
       sodipodi:nodetypes="zzzzzzzzzzzzzzzzzzzzzzzzzzzzz" />
  </g>
</svg>
