<?xml version="1.0" encoding="UTF-8" standalone="no"?>
<!-- Created with Inkscape (http://www.inkscape.org/) -->

<svg
   xmlns:dc="http://purl.org/dc/elements/1.1/"
   xmlns:cc="http://creativecommons.org/ns#"
   xmlns:rdf="http://www.w3.org/1999/02/22-rdf-syntax-ns#"
   xmlns:svg="http://www.w3.org/2000/svg"
   xmlns="http://www.w3.org/2000/svg"
   xmlns:sodipodi="http://sodipodi.sourceforge.net/DTD/sodipodi-0.dtd"
   xmlns:inkscape="http://www.inkscape.org/namespaces/inkscape"
   width="744.09448819"
   height="1052.3622047"
   id="svg2"
   version="1.1"
   inkscape:version="0.91 r13725"
   sodipodi:docname="perko_B.svg">
  <defs
     id="defs4" />
  <sodipodi:namedview
     id="base"
     pagecolor="#ffffff"
     bordercolor="#666666"
     borderopacity="1.0"
     inkscape:pageopacity="0.0"
     inkscape:pageshadow="2"
     inkscape:zoom="2.2965301"
     inkscape:cx="-306.96367"
     inkscape:cy="954.45237"
     inkscape:document-units="px"
     inkscape:current-layer="layer1"
     showgrid="false"
     inkscape:window-width="1215"
     inkscape:window-height="748"
     inkscape:window-x="232"
     inkscape:window-y="24"
     inkscape:window-maximized="0" />
  <metadata
     id="metadata7">
    <rdf:RDF>
      <cc:Work
         rdf:about="">
        <dc:format>image/svg+xml</dc:format>
        <dc:type
           rdf:resource="http://purl.org/dc/dcmitype/StillImage" />
        <dc:title></dc:title>
      </cc:Work>
    </rdf:RDF>
  </metadata>
  <g
     inkscape:label="Layer 1"
     inkscape:groupmode="layer"
     id="layer1">
    <path
       style="fill:none;stroke:#000000;stroke-width:0.86331469px;stroke-linecap:butt;stroke-linejoin:miter;stroke-opacity:1"
       d="M  0 , -242.229428981153 C  -65.462308139511 , -242.229428981153 -110.070386746157 , -209.727927843656 -135.404455570359 , -183.812825471847 -160.738524394561 , -157.897723100037 -193.703140641817 , -111.842605530023 -210.522420142414 , 1.18029746096247 -227.341699643011 , 114.203200451948 -212.71812994784 , 15.9067845827121 -228.777995703294 , 123.962759998881 -244.837861458749 , 232.018735415049 -255.23654475815 , 295.7787402009 -218.880108428825 , 362.49257548163 -182.523672099501 , 429.206410762361 -100.267194367009 , 479.289569636596 -15.3925823173095 , 446.164739904222 69.4820297323901 , 413.039910171848 78.6821434106123 , 326.398586584117 65.0421532928535 , 272.991578561119 51.4021631750947 , 219.58457053812 20.4062531929717 , 187.139808012982 -17.5004178191598 , 153.664532029628 -55.4070888312914 , 120.189256046274 -92.6253048614154 , 96.6832704406841 -96.5218496938189 , 46.7434665385594 -100.418394526222 , -3.19633736356541 -61.9513333059919 , -49.6807074237528 16.8305753096842 , -58.2140952230733 95.6124839253602 , -66.7474830223937 136.843847787313 , -52.7374044513772 202.019508778074 , -58.5392142116784 267.195169768835 , -64.3410239719797 331.018212566636 , -95.058450742176 353.812408791826 , -155.200586635043 376.606605017016 , -215.342722527911 342.939327108051 , -255.867735989579 336.505917029121 , -263.282576107313 330.072506950191 , -270.697416225046 290.825182289983 , -314.279362630985 222.524279505869 , -293.560160672263 154.223376721756 , -272.84095871354 123.549136100737 , -203.793990484276 112.378783696532 , -140.096253198388 101.208431292326 , -76.3985159124994 108.179420458926 , -26.687730548679 87.2787566687967 , 73.0636388262047 66.3780928786676 , 172.815008201088 11.5646137129414 , 212.873198257853 -20.3784624506674 , 231.547670045746 -52.3215386142761 , 250.222141833639 -98.3982686071762 , 267.835867619497 -165.596574271369 , 263.596426433102 -232.794879935561 , 259.356985246707 -283.681863887823 , 245.001702076291 -323.277093978693 , 204.462394334301 -362.872324069563 , 163.923086592312 -372.136037544935 , 118.212098108663 -374.853770025565 , 100.47860405851 -377.571502506196 , 82.7451100083562 -389.249216151906 , -7.04306128403176 -312.849435905357 , -71.1555315162277 -236.449655658808 , -135.268001748424 -152.674887244718 , -101.564410797601 -114.374218065078 , -75.8512943398612 -76.0735488854383 , -50.1381778821214 -43.5977741848944 , -8.85946448307249 -45.7444857768809 , 47.0137398967307 -47.8911973688674 , 102.886944276534 -70.9634874754916 , 122.58427386059 -78.3055876796645 , 182.296084861596 -85.6476878838374 , 242.007895862603 -64.1248864043471 , 294.658947059988 -11.1681433074499 , 327.800599439687 41.7885997894472 , 360.942251819386 119.797060191909 , 369.724333291908 190.846024294392 , 318.321058732268 261.894988396875 , 266.917784172627 301.817530293283 , 179.276703932425 307.748552848781 , 83.7291319830612 313.679575404278 , -11.8184399663025 284.042433522875 , -99.1289665351723 217.680340817755 , -161.479175696163 151.318248112636 , -223.829384857154 65.462308139511 , -242.229428981153 0 , -242.229428981153 Z "
       id="path2987"
       inkscape:connector-curvature="0"
       sodipodi:nodetypes="zzzzzzzzzzzzzzzzzzzzzzzzzzzzz" />
  </g>
</svg>
