<?xml version="1.0" encoding="UTF-8" standalone="no"?>
<!-- Created with Inkscape (http://www.inkscape.org/) -->

<svg
   xmlns:dc="http://purl.org/dc/elements/1.1/"
   xmlns:cc="http://creativecommons.org/ns#"
   xmlns:rdf="http://www.w3.org/1999/02/22-rdf-syntax-ns#"
   xmlns:svg="http://www.w3.org/2000/svg"
   xmlns="http://www.w3.org/2000/svg"
   xmlns:sodipodi="http://sodipodi.sourceforge.net/DTD/sodipodi-0.dtd"
   xmlns:inkscape="http://www.inkscape.org/namespaces/inkscape"
   width="744.09448819"
   height="1052.3622047"
   id="svg2"
   version="1.1"
   inkscape:version="0.91 r13725"
   sodipodi:docname="perko_A.svg">
  <defs
     id="defs4" />
  <sodipodi:namedview
     id="base"
     pagecolor="#ffffff"
     bordercolor="#666666"
     borderopacity="1.0"
     inkscape:pageopacity="0.0"
     inkscape:pageshadow="2"
     inkscape:zoom="1.1301279"
     inkscape:cx="191.42857"
     inkscape:cy="626.18267"
     inkscape:document-units="px"
     inkscape:current-layer="layer1"
     showgrid="false"
     inkscape:window-width="2560"
     inkscape:window-height="1315"
     inkscape:window-x="0"
     inkscape:window-y="1"
     inkscape:window-maximized="1" />
  <metadata
     id="metadata7">
    <rdf:RDF>
      <cc:Work
         rdf:about="">
        <dc:format>image/svg+xml</dc:format>
        <dc:type
           rdf:resource="http://purl.org/dc/dcmitype/StillImage" />
        <dc:title />
      </cc:Work>
    </rdf:RDF>
  </metadata>
  <g
     inkscape:label="Layer 1"
     inkscape:groupmode="layer"
     id="layer1">
    <path
       style="fill:none;stroke:#000000;stroke-width:1px;stroke-linecap:butt;stroke-linejoin:miter;stroke-opacity:1"
       d="M  -46.7268384887787 , 441.967710202025 C  -94.5148697187607 , 481.357848283128 -119.470803439003 , 501.009204837126 -159.720371651512 , 550.417528799851 -199.96993986402 , 599.825852762575 -218.471499348544 , 644.634606552036 -211.906113028862 , 688.960785469578 -205.34072670918 , 733.286964387121 -178.305589092384 , 756.963763609518 -170.811404026903 , 763.204759234651 -163.317218961421 , 769.445754859785 -130.179742045392 , 795.943993146068 -76.9293457327405 , 790.318712452497 -23.6789494200893 , 784.693431758927 1.60673700745184 , 758.085567123342 94.0294508751953 , 686.447644477419 186.452164742939 , 614.809721831495 251.147584908619 , 588.146627521806 311.669253096069 , 501.016207159079 372.19092128352 , 413.885786796351 393.37106394282 , 299.709412189993 334.783275640338 , 224.108331944795 276.195487337856 , 148.507251699598 181.134895890352 , 162.525871152638 147.824893149922 , 227.750707805865 114.514890409492 , 292.975544459092 144.774802710193 , 331.113964024472 131.251401584929 , 407.814789753185 117.728000459666 , 484.515615481899 62.172652456508 , 527.924453821678 0 , 527.924453821678 -62.172652456508 , 527.924453821678 -117.728000459666 , 484.515615481899 -131.251401584929 , 407.814789753185 -144.774802710193 , 331.113964024472 -114.514890409492 , 292.975544459092 -147.824893149922 , 227.750707805865 -181.134895890352 , 162.525871152638 -276.195487337856 , 148.507251699598 -334.783275640338 , 224.108331944795 -393.37106394282 , 299.709412189993 -372.19092128352 , 413.885786796351 -311.669253096069 , 501.016207159079 -251.147584908619 , 588.146627521806 -186.452164742939 , 614.809721831495 -94.0294508751953 , 686.447644477419 -1.60673700745184 , 758.085567123342 23.6789494200893 , 784.693431758927 76.9293457327405 , 790.318712452497 130.179742045392 , 795.943993146068 163.317218961421 , 769.445754859785 170.811404026903 , 763.204759234651 178.305589092384 , 756.963763609518 205.34072670918 , 733.286964387121 211.906113028862 , 688.960785469578 218.471499348544 , 644.634606552036 199.96993986402 , 599.825852762575 159.720371651512 , 550.417528799851 119.470803439003 , 501.009204837126 94.5148697187607 , 481.357848283128 46.7268384887787 , 441.967710202025 -1.0611927412033 , 402.577572120922 -8.46841472410084 , 390.616618198308 -67.6174398591864 , 354.579635211476 -126.766464994272 , 318.542652224643 -169.094189709855 , 312.404274356563 -201.295450343764 , 256.752270367262 -233.496710977673 , 201.100266377961 -221.628136097348 , 125.179564182186 -159.63999632728 , 68.8748763327868 -97.6518565572118 , 12.5701884833876 -24.845881861209 , 9.35326867631747 0 , 9.35326867631747 24.845881861209 , 9.35326867631747 97.6518565572118 , 12.5701884833876 159.63999632728 , 68.8748763327868 221.628136097348 , 125.179564182186 233.496710977673 , 201.100266377961 201.295450343764 , 256.752270367262 169.094189709855 , 312.404274356563 126.766464994272 , 318.542652224643 67.6174398591864 , 354.579635211476 8.46841472410085 , 390.616618198308 1.0611927412033 , 402.577572120922 -46.7268384887787 , 441.967710202025 Z "
       id="path2985"
       inkscape:connector-curvature="0"
       sodipodi:nodetypes="zzzzzzzzzzzzzzzzzzzzzzzzzzzzz" />
  </g>
</svg>
