<?xml version="1.0" encoding="UTF-8" standalone="no"?>
<!-- Created with Inkscape (http://www.inkscape.org/) -->

<svg
   xmlns:dc="http://purl.org/dc/elements/1.1/"
   xmlns:cc="http://creativecommons.org/ns#"
   xmlns:rdf="http://www.w3.org/1999/02/22-rdf-syntax-ns#"
   xmlns:svg="http://www.w3.org/2000/svg"
   xmlns="http://www.w3.org/2000/svg"
   xmlns:sodipodi="http://sodipodi.sourceforge.net/DTD/sodipodi-0.dtd"
   xmlns:inkscape="http://www.inkscape.org/namespaces/inkscape"
   width="210mm"
   height="297mm"
   viewBox="0 0 744.09448819 1052.3622047"
   id="svg2"
   version="1.1"
   inkscape:version="0.91 r13725"
   sodipodi:docname="pretzel_7_3_7.svg">
  <defs
     id="defs4" />
  <sodipodi:namedview
     id="base"
     pagecolor="#ffffff"
     bordercolor="#666666"
     borderopacity="1.0"
     inkscape:pageopacity="0.0"
     inkscape:pageshadow="2"
     inkscape:zoom="1.0150177"
     inkscape:cx="267.86328"
     inkscape:cy="1090.2407"
     inkscape:document-units="px"
     inkscape:current-layer="layer1"
     showgrid="false"
     inkscape:window-width="2560"
     inkscape:window-height="1315"
     inkscape:window-x="293"
     inkscape:window-y="0"
     inkscape:window-maximized="0" />
  <metadata
     id="metadata7">
    <rdf:RDF>
      <cc:Work
         rdf:about="">
        <dc:format>image/svg+xml</dc:format>
        <dc:type
           rdf:resource="http://purl.org/dc/dcmitype/StillImage" />
        <dc:title />
      </cc:Work>
    </rdf:RDF>
  </metadata>
  <g
     inkscape:label="Layer 1"
     inkscape:groupmode="layer"
     id="layer1">
    <path
       sodipodi:nodetypes="zzzzzzzzzszzzzzzzzzzzzzzzzzzzzzzzzzzzzzzzzzzzzzzzzz"
       inkscape:connector-curvature="0"
       id="path4241"
       d="M  -326.500329786019 , -96.7221852095077 C  -305.527393774802 , -127.72612820558 -280.945036195543 , -126.135724119461 -253.545144598182 , -181.561552114596 -226.145253000822 , -236.987380109732 -266.378075809577 , -275.813664805905 -202.129277803972 , -311.223305812506 -137.880479798367 , -346.632946819108 -130.354144614222 , -289.79682395404 -60.3691750314188 , -301.460986934692 9.61579455138443 , -313.125149915345 -1.02887291158676 , -371.21291738788 70.0328258365324 , -358.593284412388 141.094524584652 , -345.973651436896 112.524945839901 , -295.23876508657 172.835762123115 , -259.299657879343 233.146578406329 , -223.360550672116 265.164705426562 , -267.72490285474 301.901939040689 , -213.846626364358 338.639172654816 , -159.968349873977 291.227780005234 , -125.084482185937 261.665752551858 , -91.9790902499831 232.103725098482 , -58.8736983140292 257.84844965779 , -87.4624105144711 223.160094354205 , -48.8478808043207 188.47173905062 , -10.2333510941704 169.810175013025 , 15.3733877089254 139.432635234692 , 28.1142971825969 109.055095456359 , 40.8552066562685 76.344640722381 , 44.0214618298813 38.7866224007121 , 27.786983822564 1.22860407904321 , 11.5525058152467 -1.2286040790432 , -11.5525058152467 -38.7866224007121 , -27.786983822564 -76.344640722381 , -44.0214618298813 -109.055095456359 , -40.8552066562685 -139.432635234692 , -28.1142971825969 -169.810175013025 , -15.3733877089254 -188.47173905062 , 10.2333510941704 -223.160094354205 , 48.8478808043207 -257.84844965779 , 87.4624105144711 -232.103725098482 , 58.8736983140292 -261.665752551858 , 91.9790902499831 -291.227780005234 , 125.084482185937 -338.639172654816 , 159.968349873977 -301.901939040689 , 213.846626364358 -265.164705426562 , 267.72490285474 -233.146578406329 , 223.360550672116 -172.835762123115 , 259.299657879343 -112.524945839901 , 295.23876508657 -141.094524584652 , 345.973651436896 -70.0328258365324 , 358.593284412388 1.02887291158677 , 371.21291738788 -9.61579455138443 , 313.125149915345 60.3691750314188 , 301.460986934692 130.354144614222 , 289.79682395404 137.880479798367 , 346.632946819108 202.129277803972 , 311.223305812506 266.378075809577 , 275.813664805905 226.145253000822 , 236.987380109732 253.545144598182 , 181.561552114596 280.945036195543 , 126.135724119461 305.527393774802 , 127.72612820558 326.500329786019 , 96.7221852095077 347.473265797237 , 65.7182422134349 352.000737057825 , 45.1725775992736 353.559851273779 , 38.0866491501604 355.118965489733 , 31.0007207010471 357.464419256253 , 19.051399640684 357.464419256253 , 0 357.464419256253 , -19.051399640684 355.118965489733 , -31.0007207010471 353.559851273779 , -38.0866491501604 352.000737057825 , -45.1725775992736 347.473265797237 , -65.7182422134349 326.500329786019 , -96.7221852095077 305.527393774802 , -127.72612820558 280.945036195543 , -126.135724119461 253.545144598182 , -181.561552114596 226.145253000822 , -236.987380109732 266.378075809577 , -275.813664805905 202.129277803972 , -311.223305812506 137.880479798367 , -346.632946819108 130.354144614222 , -289.79682395404 60.3691750314188 , -301.460986934692 -9.61579455138443 , -313.125149915345 1.02887291158676 , -371.21291738788 -70.0328258365324 , -358.593284412388 -141.094524584652 , -345.973651436896 -112.524945839901 , -295.23876508657 -172.835762123115 , -259.299657879343 -233.146578406329 , -223.360550672116 -265.164705426562 , -267.72490285474 -301.901939040689 , -213.846626364358 -338.639172654816 , -159.968349873977 -291.227780005234 , -125.084482185937 -261.665752551858 , -91.9790902499831 -232.103725098482 , -58.8736983140292 -257.84844965779 , -87.4624105144711 -223.160094354205 , -48.8478808043207 -188.47173905062 , -10.2333510941704 -169.810175013025 , 15.3733877089254 -139.432635234692 , 28.1142971825969 -109.055095456359 , 40.8552066562685 -76.344640722381 , 44.0214618298813 -38.7866224007121 , 27.786983822564 -1.22860407904321 , 11.5525058152467 1.2286040790432 , -11.5525058152467 38.7866224007121 , -27.786983822564 76.344640722381 , -44.0214618298813 109.055095456359 , -40.8552066562685 139.432635234692 , -28.1142971825969 169.810175013025 , -15.3733877089254 188.47173905062 , 10.2333510941704 223.160094354205 , 48.8478808043207 257.84844965779 , 87.4624105144711 232.103725098482 , 58.8736983140292 261.665752551858 , 91.9790902499831 291.227780005234 , 125.084482185937 338.639172654816 , 159.968349873977 301.901939040689 , 213.846626364358 265.164705426562 , 267.72490285474 233.146578406329 , 223.360550672116 172.835762123115 , 259.299657879343 112.524945839901 , 295.23876508657 141.094524584652 , 345.973651436896 70.0328258365324 , 358.593284412388 -1.02887291158677 , 371.21291738788 9.61579455138443 , 313.125149915345 -60.3691750314188 , 301.460986934692 -130.354144614222 , 289.79682395404 -137.880479798367 , 346.632946819108 -202.129277803972 , 311.223305812506 -266.378075809577 , 275.813664805905 -226.145253000822 , 236.987380109732 -253.545144598182 , 181.561552114596 -280.945036195543 , 126.135724119461 -305.527393774802 , 127.72612820558 -326.500329786019 , 96.7221852095077 -347.473265797237 , 65.7182422134349 -352.000737057825 , 45.1725775992736 -353.559851273779 , 38.0866491501604 -355.118965489733 , 31.0007207010471 -357.464419256253 , 19.051399640684 -357.464419256253 , 0 -357.464419256253 , -19.051399640684 -355.118965489733 , -31.0007207010471 -353.559851273779 , -38.0866491501604 -352.000737057825 , -45.1725775992736 -347.473265797237 , -65.7182422134349 -326.500329786019 , -96.7221852095077 Z "
       style="fill:none;fill-rule:evenodd;stroke:#03ff99;stroke-width:7.63288832;stroke-linecap:butt;stroke-linejoin:miter;stroke-miterlimit:4;stroke-dasharray:none;stroke-opacity:1" />
  </g>
</svg>
