<?xml version="1.0" encoding="UTF-8" standalone="no"?>
<!-- Created with Inkscape (http://www.inkscape.org/) -->

<svg
   xmlns:dc="http://purl.org/dc/elements/1.1/"
   xmlns:cc="http://creativecommons.org/ns#"
   xmlns:rdf="http://www.w3.org/1999/02/22-rdf-syntax-ns#"
   xmlns:svg="http://www.w3.org/2000/svg"
   xmlns="http://www.w3.org/2000/svg"
   xmlns:sodipodi="http://sodipodi.sourceforge.net/DTD/sodipodi-0.dtd"
   xmlns:inkscape="http://www.inkscape.org/namespaces/inkscape"
   width="210mm"
   height="297mm"
   viewBox="0 0 744.09448819 1052.3622047"
   id="svg2"
   version="1.1"
   inkscape:version="0.91 r13725"
   sodipodi:docname="pretzel_p3_p5_p7_m3_m5.svg">
  <defs
     id="defs4" />
  <sodipodi:namedview
     id="base"
     pagecolor="#ffffff"
     bordercolor="#666666"
     borderopacity="1.0"
     inkscape:pageopacity="0.0"
     inkscape:pageshadow="2"
     inkscape:zoom="1.5526025"
     inkscape:cx="18.58645"
     inkscape:cy="684.36739"
     inkscape:document-units="px"
     inkscape:current-layer="layer1"
     showgrid="false"
     inkscape:window-width="2560"
     inkscape:window-height="1315"
     inkscape:window-x="0"
     inkscape:window-y="1"
     inkscape:window-maximized="1" />
  <metadata
     id="metadata7">
    <rdf:RDF>
      <cc:Work
         rdf:about="">
        <dc:format>image/svg+xml</dc:format>
        <dc:type
           rdf:resource="http://purl.org/dc/dcmitype/StillImage" />
        <dc:title />
      </cc:Work>
    </rdf:RDF>
  </metadata>
  <g
     inkscape:label="Layer 1"
     inkscape:groupmode="layer"
     id="layer1">
    <path
       style="fill:none;fill-rule:evenodd;stroke:#000000;stroke-width:0.98947948;stroke-linecap:butt;stroke-linejoin:miter;stroke-miterlimit:4;stroke-dasharray:none;stroke-opacity:1"
       d="M  -259.978593096686 , 482.739207209104 C  -232.609036122816 , 579.791836346432 -188.713250437433 , 614.946493494532 -158.023061578748 , 622.773132012629 -127.332872720063 , 630.599770530725 -112.922279235586 , 618.303068034562 -56.7003859996704 , 639.344071614542 -0.478492763754318 , 660.385075194522 11.5462188338137 , 704.822941049379 67.5218052790432 , 682.451284113657 123.497391724273 , 660.079627177935 119.877729032504 , 631.177711256275 139.130824625609 , 587.565916924786 158.383920218714 , 543.954122593297 142.372259538208 , 580.358076962384 160.885321231592 , 538.1970445533 179.398382924977 , 496.036012144217 152.472348843332 , 463.81471124146 123.827750614573 , 462.208675262014 95.1831523858154 , 460.602639282568 86.0478592810373 , 484.186289425763 46.5493406626309 , 482.115166707548 7.05082204422442 , 480.044043989332 -3.59396799102573 , 451.961217340306 -42.5949041744866 , 460.642680477321 -81.5958403579475 , 469.324143614336 -85.1403189791537 , 482.998105429022 -127.215648736701 , 491.781703689855 -169.290978494249 , 500.565301950687 -198.219419001929 , 469.635070395387 -208.12545992499 , 458.141716366455 -218.03150084805 , 446.648362337522 -223.206607814318 , 429.012427475075 -224.525863927352 , 407.346522972162 -225.845120040385 , 385.68061846925 -210.801407305337 , 352.648155410382 -178.671152159568 , 348.434170419776 -146.540897013798 , 344.22018542917 -135.117414033363 , 354.386256637702 -108.718961867999 , 341.507227063517 -82.3205097026351 , 328.628197489333 -76.5640209125912 , 304.677617221716 -45.2272698193681 , 300.101219585928 -13.8905187261449 , 295.52482195014 -1.75962399957542 , 313.084295707206 35.1110748183699 , 314.308037239846 71.9817736363151 , 315.531778772485 83.8490864628051 , 309.37428621811 110.27467250911 , 321.820251197706 136.700258555414 , 334.266216177303 138.2572478642 , 354.922276337482 170.550864173673 , 372.746831452183 202.844480483145 , 390.571386566883 241.173657476957 , 359.281312395951 232.650183907047 , 316.682964967633 224.126710337137 , 274.084617539315 189.353804174899 , 249.655513944008 159.734400400884 , 226.940484015947 130.114996626869 , 204.225454087886 105.053290846568 , 176.937710306146 54.3472221049517 , 186.020456034703 3.64115336333501 , 195.10320176326 -2.0285800569667 , 223.926328878367 -54.5435504642716 , 226.871775926239 -107.058520871576 , 229.817222974112 -134.111236496668 , 190.881931140581 -142.207472236956 , 177.818669543111 -150.303707977244 , 164.755407945641 -139.993395097938 , 181.413175584546 -157.897585108299 , 152.429594887249 -175.80177511866 , 123.446014189951 -183.126505841209 , 69.6697374426143 -140.197183404178 , 60.4199109139455 -97.2678609671467 , 51.1700843852768 -78.9329003619032 , 83.1429023400282 -38.6287012401827 , 71.1350510063342 1.67549788153779 , 59.1271996726401 3.55903525964226 , 40.6133269316903 42.2410659123027 , 46.2663218196515 80.9230965649631 , 51.9193167076127 85.5929339204657 , 72.8521078205851 127.978056268045 , 92.8786149046189 170.363178615625 , 112.905121988653 181.775664317749 , 116.340077459646 204.490848670059 , 133.76058805554 227.206033022369 , 151.181098651433 243.07195383355 , 163.256765546472 263.866389809292 , 223.125759764515 284.660825785034 , 282.994753982559 287.348150070556 , 385.686578071776 259.978593096686 , 482.739207209104 232.609036122816 , 579.791836346432 188.713250437433 , 614.946493494532 158.023061578748 , 622.773132012629 127.332872720063 , 630.599770530725 112.922279235586 , 618.303068034562 56.7003859996704 , 639.344071614542 0.478492763754318 , 660.385075194522 -11.5462188338137 , 704.822941049379 -67.5218052790432 , 682.451284113657 -123.497391724273 , 660.079627177935 -119.877729032504 , 631.177711256275 -139.130824625609 , 587.565916924786 -158.383920218714 , 543.954122593297 -142.372259538208 , 580.358076962384 -160.885321231592 , 538.1970445533 -179.398382924977 , 496.036012144217 -152.472348843332 , 463.81471124146 -123.827750614573 , 462.208675262014 -95.1831523858154 , 460.602639282568 -86.0478592810373 , 484.186289425763 -46.5493406626309 , 482.115166707548 -7.05082204422442 , 480.044043989332 3.59396799102573 , 451.961217340306 42.5949041744866 , 460.642680477321 81.5958403579475 , 469.324143614336 85.1403189791537 , 482.998105429022 127.215648736701 , 491.781703689855 169.290978494249 , 500.565301950687 198.219419001929 , 469.635070395387 208.12545992499 , 458.141716366455 218.03150084805 , 446.648362337522 223.206607814318 , 429.012427475075 224.525863927352 , 407.346522972162 225.845120040385 , 385.68061846925 210.801407305337 , 352.648155410382 178.671152159568 , 348.434170419776 146.540897013798 , 344.22018542917 135.117414033363 , 354.386256637702 108.718961867999 , 341.507227063517 82.3205097026351 , 328.628197489333 76.5640209125912 , 304.677617221716 45.2272698193681 , 300.101219585928 13.8905187261449 , 295.52482195014 1.75962399957541 , 313.084295707206 -35.1110748183699 , 314.308037239846 -71.9817736363151 , 315.531778772485 -83.8490864628051 , 309.37428621811 -110.27467250911 , 321.820251197706 -136.700258555414 , 334.266216177303 -138.2572478642 , 354.922276337482 -170.550864173673 , 372.746831452183 -202.844480483145 , 390.571386566883 -241.173657476957 , 359.281312395951 -232.650183907047 , 316.682964967633 -224.126710337137 , 274.084617539315 -189.353804174899 , 249.655513944008 -159.734400400884 , 226.940484015947 -130.114996626869 , 204.225454087886 -105.053290846568 , 176.937710306146 -54.3472221049517 , 186.020456034703 -3.64115336333501 , 195.10320176326 2.0285800569667 , 223.926328878367 54.5435504642716 , 226.871775926239 107.058520871576 , 229.817222974112 134.111236496668 , 190.881931140581 142.207472236956 , 177.818669543111 150.303707977244 , 164.755407945641 139.993395097938 , 181.413175584546 157.897585108299 , 152.429594887249 175.80177511866 , 123.446014189951 183.126505841209 , 69.6697374426143 140.197183404178 , 60.4199109139455 97.2678609671467 , 51.1700843852768 78.9329003619032 , 83.1429023400282 38.6287012401827 , 71.1350510063342 -1.67549788153779 , 59.1271996726401 -3.55903525964226 , 40.6133269316903 -42.2410659123027 , 46.2663218196515 -80.9230965649631 , 51.9193167076127 -85.5929339204657 , 72.8521078205851 -127.978056268045 , 92.8786149046189 -170.363178615625 , 112.905121988653 -181.775664317749 , 116.340077459646 -204.490848670059 , 133.76058805554 -227.206033022369 , 151.181098651433 -243.07195383355 , 163.256765546472 -263.866389809292 , 223.125759764515 -284.660825785034 , 282.994753982559 -287.348150070556 , 385.686578071776 -259.978593096686 , 482.739207209104 Z "
       id="path3338"
       inkscape:connector-curvature="0"
       sodipodi:nodetypes="zzzzzzzzzzzzzzzzzzzzzzzzzzzzzzzzzzzzzzzzzzzzzzzzzzzzzzzzzzzzz" />
  </g>
</svg>
