<?xml version="1.0" encoding="UTF-8" standalone="no"?>
<!-- Created with Inkscape (http://www.inkscape.org/) -->

<svg
   xmlns:dc="http://purl.org/dc/elements/1.1/"
   xmlns:cc="http://creativecommons.org/ns#"
   xmlns:rdf="http://www.w3.org/1999/02/22-rdf-syntax-ns#"
   xmlns:svg="http://www.w3.org/2000/svg"
   xmlns="http://www.w3.org/2000/svg"
   xmlns:sodipodi="http://sodipodi.sourceforge.net/DTD/sodipodi-0.dtd"
   xmlns:inkscape="http://www.inkscape.org/namespaces/inkscape"
   width="210mm"
   height="297mm"
   viewBox="0 0 744.09448819 1052.3622047"
   id="svg2"
   version="1.1"
   inkscape:version="0.91 r13725"
   sodipodi:docname="pretzel_7_3_7.svg">
  <defs
     id="defs4" />
  <sodipodi:namedview
     id="base"
     pagecolor="#ffffff"
     bordercolor="#666666"
     borderopacity="1.0"
     inkscape:pageopacity="0.0"
     inkscape:pageshadow="2"
     inkscape:zoom="1.0150177"
     inkscape:cx="267.86328"
     inkscape:cy="1090.2407"
     inkscape:document-units="px"
     inkscape:current-layer="layer1"
     showgrid="false"
     inkscape:window-width="2560"
     inkscape:window-height="1315"
     inkscape:window-x="293"
     inkscape:window-y="0"
     inkscape:window-maximized="0" />
  <metadata
     id="metadata7">
    <rdf:RDF>
      <cc:Work
         rdf:about="">
        <dc:format>image/svg+xml</dc:format>
        <dc:type
           rdf:resource="http://purl.org/dc/dcmitype/StillImage" />
        <dc:title />
      </cc:Work>
    </rdf:RDF>
  </metadata>
  <g
     inkscape:label="Layer 1"
     inkscape:groupmode="layer"
     id="layer1">
    <path
       sodipodi:nodetypes="zzzzzzzzzszzzzzzzzzzzzzzzzzzzzzzzzzzzzzzzzzzzzzzzzz"
       inkscape:connector-curvature="0"
       id="path4241"
       d="M  -321.53526926165 , -154.116822528109 C  -301.083252579341 , -170.814445400068 -278.062953191495 , -171.748394943199 -241.20321026001 , -210.520174468161 -204.343467328525 , -249.291953993123 -217.305474266144 , -288.74270509737 -164.835383691063 , -303.538106533171 -112.365293115982 , -318.333507968972 -105.363238123238 , -276.72328259864 -52.5614910995963 , -277.221007154213 0.2402559240454 , -277.718731709786 -2.41790650374094 , -319.865088709783 52.4002121660757 , -321.015184563617 107.218330835892 , -322.165280417451 98.6338348107757 , -276.019205907775 153.514125352092 , -259.40644235387 208.394415893408 , -242.793678799965 222.280684692211 , -280.941443738958 268.182552973668 , -255.273235659755 314.084421255125 , -229.605027580552 310.95458083969 , -180.712680053028 251.039389190194 , -111.283418076709 191.124197540698 , -41.85415610039 221.127505074666 , -76.5295207331993 187.142345478377 , -37.1082932009539 153.157185882088 , 2.3129343312915 134.905076537715 , 19.4382496796269 110.314661729871 , 27.965261435395 85.7242469220266 , 36.4922731911631 61.906299583694 , 37.6523562913162 32.3733524204686 , 23.0794691300075 2.84040525724317 , 8.50658196869877 -2.84040525724317 , -8.50658196869877 -32.3733524204686 , -23.0794691300075 -61.906299583694 , -37.6523562913162 -85.7242469220266 , -36.4922731911631 -110.314661729871 , -27.965261435395 -134.905076537715 , -19.4382496796269 -153.157185882088 , -2.3129343312915 -187.142345478377 , 37.1082932009539 -221.127505074666 , 76.5295207331993 -191.124197540698 , 41.85415610039 -251.039389190194 , 111.283418076709 -310.95458083969 , 180.712680053028 -314.084421255125 , 229.605027580552 -268.182552973668 , 255.273235659755 -222.280684692211 , 280.941443738958 -208.394415893408 , 242.793678799965 -153.514125352092 , 259.40644235387 -98.6338348107757 , 276.019205907775 -107.218330835892 , 322.165280417451 -52.4002121660757 , 321.015184563617 2.41790650374094 , 319.865088709783 -0.2402559240454 , 277.718731709786 52.5614910995963 , 277.221007154213 105.363238123238 , 276.72328259864 112.365293115982 , 318.333507968972 164.835383691063 , 303.538106533171 217.305474266144 , 288.74270509737 204.343467328525 , 249.291953993123 241.20321026001 , 210.520174468161 278.062953191495 , 171.748394943199 301.083252579341 , 170.814445400068 321.53526926165 , 154.116822528109 341.987285943959 , 137.41919965615 350.557833506754 , 126.557862311893 352.841917779168 , 123.658120148569 355.126002051582 , 120.758377985245 395.653896335168 , 69.3078499402716 395.653896335168 , 0 395.653896335168 , -69.3078499402716 355.126002051582 , -120.758377985245 352.841917779168 , -123.658120148569 350.557833506754 , -126.557862311893 341.987285943959 , -137.41919965615 321.53526926165 , -154.116822528109 301.083252579341 , -170.814445400068 278.062953191495 , -171.748394943199 241.20321026001 , -210.520174468161 204.343467328525 , -249.291953993123 217.305474266144 , -288.74270509737 164.835383691063 , -303.538106533171 112.365293115982 , -318.333507968972 105.363238123238 , -276.72328259864 52.5614910995963 , -277.221007154213 -0.2402559240454 , -277.718731709786 2.41790650374094 , -319.865088709783 -52.4002121660757 , -321.015184563617 -107.218330835892 , -322.165280417451 -98.6338348107757 , -276.019205907775 -153.514125352092 , -259.40644235387 -208.394415893408 , -242.793678799965 -222.280684692211 , -280.941443738958 -268.182552973668 , -255.273235659755 -314.084421255125 , -229.605027580552 -310.95458083969 , -180.712680053028 -251.039389190194 , -111.283418076709 -191.124197540698 , -41.85415610039 -221.127505074666 , -76.5295207331993 -187.142345478377 , -37.1082932009539 -153.157185882088 , 2.3129343312915 -134.905076537715 , 19.4382496796269 -110.314661729871 , 27.965261435395 -85.7242469220266 , 36.4922731911631 -61.906299583694 , 37.6523562913162 -32.3733524204686 , 23.0794691300075 -2.84040525724317 , 8.50658196869877 2.84040525724317 , -8.50658196869877 32.3733524204686 , -23.0794691300075 61.906299583694 , -37.6523562913162 85.7242469220266 , -36.4922731911631 110.314661729871 , -27.965261435395 134.905076537715 , -19.4382496796269 153.157185882088 , -2.3129343312915 187.142345478377 , 37.1082932009539 221.127505074666 , 76.5295207331993 191.124197540698 , 41.85415610039 251.039389190194 , 111.283418076709 310.95458083969 , 180.712680053028 314.084421255125 , 229.605027580552 268.182552973668 , 255.273235659755 222.280684692211 , 280.941443738958 208.394415893408 , 242.793678799965 153.514125352092 , 259.40644235387 98.6338348107757 , 276.019205907775 107.218330835892 , 322.165280417451 52.4002121660757 , 321.015184563617 -2.41790650374094 , 319.865088709783 0.2402559240454 , 277.718731709786 -52.5614910995963 , 277.221007154213 -105.363238123238 , 276.72328259864 -112.365293115982 , 318.333507968972 -164.835383691063 , 303.538106533171 -217.305474266144 , 288.74270509737 -204.343467328525 , 249.291953993123 -241.20321026001 , 210.520174468161 -278.062953191495 , 171.748394943199 -301.083252579341 , 170.814445400068 -321.53526926165 , 154.116822528109 -341.987285943959 , 137.41919965615 -350.557833506754 , 126.557862311893 -352.841917779168 , 123.658120148569 -355.126002051582 , 120.758377985245 -395.653896335168 , 69.3078499402716 -395.653896335168 , 0 -395.653896335168 , -69.3078499402716 -355.126002051582 , -120.758377985245 -352.841917779168 , -123.658120148569 -350.557833506754 , -126.557862311893 -341.987285943959 , -137.41919965615 -321.53526926165 , -154.116822528109 Z "
       style="fill:none;fill-rule:evenodd;stroke:#03ff99;stroke-width:7.63288832;stroke-linecap:butt;stroke-linejoin:miter;stroke-miterlimit:4;stroke-dasharray:none;stroke-opacity:1" />
  </g>
</svg>
