<?xml version="1.0" encoding="UTF-8" standalone="no"?>
<!-- Created with Inkscape (http://www.inkscape.org/) -->

<svg
   xmlns:dc="http://purl.org/dc/elements/1.1/"
   xmlns:cc="http://creativecommons.org/ns#"
   xmlns:rdf="http://www.w3.org/1999/02/22-rdf-syntax-ns#"
   xmlns:svg="http://www.w3.org/2000/svg"
   xmlns="http://www.w3.org/2000/svg"
   xmlns:sodipodi="http://sodipodi.sourceforge.net/DTD/sodipodi-0.dtd"
   xmlns:inkscape="http://www.inkscape.org/namespaces/inkscape"
   width="210mm"
   height="297mm"
   viewBox="0 0 744.09448819 1052.3622047"
   id="svg2"
   version="1.1"
   inkscape:version="0.91 r13725"
   sodipodi:docname="pretzel_2_3_7.svg">
  <defs
     id="defs4" />
  <sodipodi:namedview
     id="base"
     pagecolor="#ffffff"
     bordercolor="#666666"
     borderopacity="1.0"
     inkscape:pageopacity="0.0"
     inkscape:pageshadow="2"
     inkscape:zoom="1.4354518"
     inkscape:cx="333.02755"
     inkscape:cy="942.28638"
     inkscape:document-units="px"
     inkscape:current-layer="layer1"
     showgrid="false"
     inkscape:window-width="2560"
     inkscape:window-height="1315"
     inkscape:window-x="0"
     inkscape:window-y="1"
     inkscape:window-maximized="1" />
  <metadata
     id="metadata7">
    <rdf:RDF>
      <cc:Work
         rdf:about="">
        <dc:format>image/svg+xml</dc:format>
        <dc:type
           rdf:resource="http://purl.org/dc/dcmitype/StillImage" />
        <dc:title></dc:title>
      </cc:Work>
    </rdf:RDF>
  </metadata>
  <g
     inkscape:label="Layer 1"
     inkscape:groupmode="layer"
     id="layer1">
    <path
       style="fill:none;fill-rule:evenodd;stroke:#03ff99;stroke-width:10.25803947;stroke-linecap:butt;stroke-linejoin:miter;stroke-miterlimit:4;stroke-dasharray:none;stroke-opacity:1"
       d="M  0 , -159.409110144439 C  131.062426165227 , -159.409110144439 118.33854328372 , -181.533640026044 187.245029265884 , -169.793981657047 256.151515248049 , -158.054323288049 297.813957930259 , -136.518193547853 370.222108585524 , -45.0499349496962 442.630259240789 , 46.4183236484603 421.397360914316 , 140.703244858188 417.902800195931 , 155.823926828251 414.408239477545 , 170.944608798314 408.120739533128 , 196.955977676142 384.145004884986 , 226.656996961286 360.169270236845 , 256.358016246429 344.758008201248 , 247.177367672645 307.444764500285 , 293.067198451293 270.131520799323 , 338.95702922994 254.082321946901 , 405.077531793864 183.678596939948 , 375.454837586812 113.274871932994 , 345.83214337976 147.64169252933 , 284.970399743831 76.2569198159852 , 265.218473050453 4.87214710264067 , 245.466546357076 10.3604017193662 , 298.079891941565 -55.8380097035267 , 325.146956345571 -122.036421126419 , 352.214020749578 -132.569960181383 , 299.287569556081 -202.407693601435 , 313.420710862029 -272.245427021487 , 327.553852167977 -285.42650137133 , 381.39535767221 -335.447748448183 , 358.653855707972 -385.468995525035 , 335.912353743734 -398.755219478036 , 283.348147541484 -292.86133913114 , 177.109131846969 -186.967458784244 , 70.8701161524546 -225.889473253177 , 109.917512272203 -208.813938175013 , 92.7886254512104 -191.738403096848 , 75.6597386302181 -127.964694475681 , 11.0460370714111 -59.509014424013 , 24.1251689877095 8.94666562765526 , 37.2043009040079 -2.29642803049552 , 90.5721765174021 68.1718052106521 , 80.998338322455 138.6400384518 , 71.424500127508 143.846994792147 , -10.9085420772231 139.390669236081 , -47.5179207857417 134.934343680015 , -84.1272994942602 138.077974784139 , -62.8269063995847 128.989800644756 , -116.299084299539 119.901626505372 , -169.771262199494 123.019175978893 , -207.917450866849 76.7003214145202 , -244.358540070333 30.3814668501476 , -280.799629273817 -30.3814668501476 , -280.799629273817 -76.7003214145202 , -244.358540070333 -123.019175978893 , -207.917450866849 -119.901626505372 , -169.771262199494 -128.989800644756 , -116.299084299539 -138.077974784139 , -62.8269063995847 -134.934343680015 , -84.1272994942602 -139.390669236081 , -47.5179207857417 -143.846994792147 , -10.9085420772231 -138.6400384518 , 71.424500127508 -68.1718052106521 , 80.998338322455 2.29642803049552 , 90.5721765174021 -8.94666562765526 , 37.2043009040079 59.509014424013 , 24.1251689877095 127.964694475681 , 11.0460370714111 191.738403096848 , 75.6597386302181 208.813938175013 , 92.7886254512104 225.889473253177 , 109.917512272203 186.967458784244 , 70.8701161524546 292.86133913114 , 177.109131846969 398.755219478036 , 283.348147541484 385.468995525035 , 335.912353743734 335.447748448183 , 358.653855707972 285.42650137133 , 381.39535767221 272.245427021487 , 327.553852167977 202.407693601435 , 313.420710862029 132.569960181383 , 299.287569556081 122.036421126419 , 352.214020749578 55.8380097035267 , 325.146956345571 -10.3604017193661 , 298.079891941565 -4.87214710264067 , 245.466546357076 -76.2569198159852 , 265.218473050453 -147.64169252933 , 284.970399743831 -113.274871932994 , 345.83214337976 -183.678596939948 , 375.454837586812 -254.082321946901 , 405.077531793864 -270.131520799323 , 338.95702922994 -307.444764500285 , 293.067198451293 -344.758008201248 , 247.177367672645 -360.169270236845 , 256.358016246429 -384.145004884986 , 226.656996961286 -408.120739533128 , 196.955977676142 -414.408239477545 , 170.944608798314 -417.902800195931 , 155.823926828251 -421.397360914316 , 140.703244858188 -442.630259240789 , 46.4183236484603 -370.222108585524 , -45.0499349496962 -297.813957930259 , -136.518193547853 -256.151515248049 , -158.054323288049 -187.245029265884 , -169.793981657047 -118.33854328372 , -181.533640026044 -131.062426165227 , -159.409110144439 0 , -159.409110144439 Z "
       id="path4201"
       inkscape:connector-curvature="0"
       sodipodi:nodetypes="zzzzzzzzzzzzzzzzzzzzzzzzzzzzzzzzzzzz" />
  </g>
</svg>
