<?xml version="1.0" encoding="UTF-8" standalone="no"?>
<!-- Created with Inkscape (http://www.inkscape.org/) -->

<svg
   xmlns:dc="http://purl.org/dc/elements/1.1/"
   xmlns:cc="http://creativecommons.org/ns#"
   xmlns:rdf="http://www.w3.org/1999/02/22-rdf-syntax-ns#"
   xmlns:svg="http://www.w3.org/2000/svg"
   xmlns="http://www.w3.org/2000/svg"
   xmlns:sodipodi="http://sodipodi.sourceforge.net/DTD/sodipodi-0.dtd"
   xmlns:inkscape="http://www.inkscape.org/namespaces/inkscape"
   width="210mm"
   height="297mm"
   viewBox="0 0 744.09448819 1052.3622047"
   id="svg2"
   version="1.1"
   inkscape:version="0.91 r13725"
   sodipodi:docname="pretzel_p3_p5_p7_m3_m5.svg">
  <defs
     id="defs4" />
  <sodipodi:namedview
     id="base"
     pagecolor="#ffffff"
     bordercolor="#666666"
     borderopacity="1.0"
     inkscape:pageopacity="0.0"
     inkscape:pageshadow="2"
     inkscape:zoom="1.5526025"
     inkscape:cx="18.58645"
     inkscape:cy="684.36739"
     inkscape:document-units="px"
     inkscape:current-layer="layer1"
     showgrid="false"
     inkscape:window-width="2560"
     inkscape:window-height="1315"
     inkscape:window-x="0"
     inkscape:window-y="1"
     inkscape:window-maximized="1" />
  <metadata
     id="metadata7">
    <rdf:RDF>
      <cc:Work
         rdf:about="">
        <dc:format>image/svg+xml</dc:format>
        <dc:type
           rdf:resource="http://purl.org/dc/dcmitype/StillImage" />
        <dc:title />
      </cc:Work>
    </rdf:RDF>
  </metadata>
  <g
     inkscape:label="Layer 1"
     inkscape:groupmode="layer"
     id="layer1">
    <path
       style="fill:none;fill-rule:evenodd;stroke:#000000;stroke-width:0.98947948;stroke-linecap:butt;stroke-linejoin:miter;stroke-miterlimit:4;stroke-dasharray:none;stroke-opacity:1"
       d="M  -259.807762467719 , 482.620736770606 C  -232.350973578167 , 579.544737716252 -188.502291767014 , 615.228026659241 -157.817836307825 , 625.297888448745 -127.133380848637 , 635.367750238248 -113.796027331774 , 616.634222185146 -54.2873906599613 , 636.126679537034 5.22124601185099 , 655.619136888921 9.24454873796056 , 705.903055701689 70.568182645832 , 684.578395817055 131.891816553703 , 663.25373593242 118.854091427553 , 631.157463711395 138.178605222744 , 588.112322188057 157.503119017934 , 545.067180664718 142.074333292815 , 579.726319316701 160.362753319864 , 538.411097366162 178.651173346913 , 497.095875415624 153.002663760209 , 461.062396458333 120.825865297152 , 460.882635450433 88.6490668340948 , 460.702874442534 88.5210755421545 , 486.239798430976 45.0339236457809 , 487.979402977681 1.54677174940736 , 489.719007524386 -0.924050345865145 , 451.999489519617 -45.476839971657 , 453.653498649892 -90.0296295974488 , 455.307507780166 -83.92788058312 , 483.290800138091 -126.410501181224 , 494.509258707031 -168.893121779329 , 505.727717275972 -198.600261211481 , 469.877109197058 -207.372753130826 , 457.341064824373 -216.145245050172 , 444.805020451687 -223.641022337899 , 428.70656331026 -223.991363422324 , 407.965475218653 -224.341704506749 , 387.224387127045 -211.137169981923 , 351.408308198231 -176.962467766833 , 344.65441378997 -142.787765551743 , 337.900519381708 -136.410866420322 , 356.915630547395 -105.484842470858 , 345.991933169376 -74.558818521394 , 335.068235791357 -80.5088365297592 , 304.272007473335 -42.753898081355 , 293.395312925887 -4.9989596329508 , 282.518618378438 -3.59546911324271 , 313.470081299393 35.3209785097589 , 322.263974185498 74.2374261327604 , 331.057867071602 82.1068191619793 , 305.7351862496 113.790040142187 , 319.127178429393 145.473261122395 , 332.519170609185 136.146422491121 , 356.777793429521 168.715003786759 , 373.179165810318 201.283585082397 , 389.580538191115 241.615218644581 , 359.276391100428 233.013943275746 , 316.743367459425 224.412667906911 , 274.210343818422 189.349170049009 , 250.052970106347 158.779385568551 , 226.617177315249 128.209601088094 , 203.18138452415 106.51900383638 , 176.888469265773 51.9433317561761 , 182.216680756232 -2.63234032402819 , 187.544892246691 -0.511752761230992 , 224.968181762343 -55.1038288556096 , 229.576463249149 -109.695904949988 , 234.184744735955 -132.852883535524 , 190.893705760818 -140.713685199214 , 176.585373612966 -148.574486862903 , 162.277041465115 -137.744251711299 , 182.019330944018 -155.056102193518 , 150.409247639544 -172.367952675736 , 118.79916433507 -185.155179506445 , 69.3105201557354 -138.633248961575 , 56.8806517338015 -92.1113184167057 , 44.4507833118675 -79.7073017687019 , 85.886078754826 -36.9632378156773 , 75.9520522250385 5.78082613734736 , 66.0180256952509 0.583362325028602 , 40.1686363111018 44.5375121791508 , 41.2407896475824 88.491662033273 , 42.312942984063 84.3837110429451 , 73.4376810948859 125.317798604188 , 96.6507016170021 166.251886165432 , 119.863722139118 181.863734309722 , 115.815179245865 204.989261837683 , 132.675441459411 228.114789365644 , 149.535703672957 243.3066155674 , 162.765238056454 263.933986430029 , 223.085977672309 284.561357292657 , 283.406717288164 287.264551357271 , 385.696735824959 259.807762467719 , 482.620736770606 232.350973578167 , 579.544737716252 188.502291767014 , 615.228026659241 157.817836307825 , 625.297888448745 127.133380848637 , 635.367750238248 113.796027331774 , 616.634222185146 54.2873906599613 , 636.126679537034 -5.22124601185099 , 655.619136888921 -9.24454873796056 , 705.903055701689 -70.568182645832 , 684.578395817055 -131.891816553703 , 663.25373593242 -118.854091427553 , 631.157463711395 -138.178605222744 , 588.112322188057 -157.503119017934 , 545.067180664718 -142.074333292815 , 579.726319316701 -160.362753319864 , 538.411097366162 -178.651173346913 , 497.095875415624 -153.002663760209 , 461.062396458333 -120.825865297152 , 460.882635450433 -88.6490668340948 , 460.702874442534 -88.5210755421545 , 486.239798430976 -45.0339236457809 , 487.979402977681 -1.54677174940736 , 489.719007524386 0.924050345865147 , 451.999489519617 45.476839971657 , 453.653498649892 90.0296295974488 , 455.307507780166 83.92788058312 , 483.290800138091 126.410501181224 , 494.509258707031 168.893121779329 , 505.727717275972 198.600261211481 , 469.877109197058 207.372753130826 , 457.341064824373 216.145245050172 , 444.805020451687 223.641022337899 , 428.70656331026 223.991363422324 , 407.965475218653 224.341704506749 , 387.224387127045 211.137169981923 , 351.408308198231 176.962467766833 , 344.65441378997 142.787765551743 , 337.900519381708 136.410866420322 , 356.915630547395 105.484842470858 , 345.991933169376 74.558818521394 , 335.068235791357 80.5088365297592 , 304.272007473335 42.753898081355 , 293.395312925887 4.9989596329508 , 282.518618378438 3.59546911324271 , 313.470081299393 -35.3209785097589 , 322.263974185498 -74.2374261327604 , 331.057867071602 -82.1068191619793 , 305.7351862496 -113.790040142187 , 319.127178429393 -145.473261122395 , 332.519170609185 -136.146422491121 , 356.777793429521 -168.715003786759 , 373.179165810318 -201.283585082397 , 389.580538191115 -241.615218644581 , 359.276391100428 -233.013943275746 , 316.743367459425 -224.412667906911 , 274.210343818422 -189.349170049009 , 250.052970106347 -158.779385568551 , 226.617177315249 -128.209601088094 , 203.18138452415 -106.51900383638 , 176.888469265773 -51.9433317561761 , 182.216680756232 2.63234032402819 , 187.544892246691 0.511752761230994 , 224.968181762343 55.1038288556096 , 229.576463249149 109.695904949988 , 234.184744735955 132.852883535524 , 190.893705760818 140.713685199214 , 176.585373612966 148.574486862903 , 162.277041465115 137.744251711299 , 182.019330944018 155.056102193518 , 150.409247639544 172.367952675736 , 118.79916433507 185.155179506445 , 69.3105201557354 138.633248961575 , 56.8806517338015 92.1113184167057 , 44.4507833118675 79.7073017687019 , 85.886078754826 36.9632378156773 , 75.9520522250385 -5.78082613734736 , 66.0180256952509 -0.583362325028599 , 40.1686363111018 -44.5375121791508 , 41.2407896475824 -88.491662033273 , 42.312942984063 -84.3837110429451 , 73.4376810948859 -125.317798604188 , 96.6507016170021 -166.251886165432 , 119.863722139118 -181.863734309722 , 115.815179245865 -204.989261837683 , 132.675441459411 -228.114789365644 , 149.535703672957 -243.3066155674 , 162.765238056454 -263.933986430029 , 223.085977672309 -284.561357292657 , 283.406717288164 -287.264551357271 , 385.696735824959 -259.807762467719 , 482.620736770606 Z "
       id="path3338"
       inkscape:connector-curvature="0"
       sodipodi:nodetypes="zzzzzzzzzzzzzzzzzzzzzzzzzzzzzzzzzzzzzzzzzzzzzzzzzzzzzzzzzzzzz" />
  </g>
</svg>
