<?xml version="1.0" encoding="UTF-8" standalone="no"?>
<!-- Created with Inkscape (http://www.inkscape.org/) -->

<svg
   xmlns:dc="http://purl.org/dc/elements/1.1/"
   xmlns:cc="http://creativecommons.org/ns#"
   xmlns:rdf="http://www.w3.org/1999/02/22-rdf-syntax-ns#"
   xmlns:svg="http://www.w3.org/2000/svg"
   xmlns="http://www.w3.org/2000/svg"
   xmlns:sodipodi="http://sodipodi.sourceforge.net/DTD/sodipodi-0.dtd"
   xmlns:inkscape="http://www.inkscape.org/namespaces/inkscape"
   width="210mm"
   height="297mm"
   viewBox="0 0 744.09448819 1052.3622047"
   id="svg2"
   version="1.1"
   inkscape:version="0.91 r13725"
   sodipodi:docname="pretzel_2_3_7.svg">
  <defs
     id="defs4" />
  <sodipodi:namedview
     id="base"
     pagecolor="#ffffff"
     bordercolor="#666666"
     borderopacity="1.0"
     inkscape:pageopacity="0.0"
     inkscape:pageshadow="2"
     inkscape:zoom="1.4354518"
     inkscape:cx="333.02755"
     inkscape:cy="942.28638"
     inkscape:document-units="px"
     inkscape:current-layer="layer1"
     showgrid="false"
     inkscape:window-width="2560"
     inkscape:window-height="1315"
     inkscape:window-x="0"
     inkscape:window-y="1"
     inkscape:window-maximized="1" />
  <metadata
     id="metadata7">
    <rdf:RDF>
      <cc:Work
         rdf:about="">
        <dc:format>image/svg+xml</dc:format>
        <dc:type
           rdf:resource="http://purl.org/dc/dcmitype/StillImage" />
        <dc:title></dc:title>
      </cc:Work>
    </rdf:RDF>
  </metadata>
  <g
     inkscape:label="Layer 1"
     inkscape:groupmode="layer"
     id="layer1">
    <path
       style="fill:none;fill-rule:evenodd;stroke:#03ff99;stroke-width:10.25803947;stroke-linecap:butt;stroke-linejoin:miter;stroke-miterlimit:4;stroke-dasharray:none;stroke-opacity:1"
       d="M  0 , -160.385392709793 C  130.958643327848 , -160.385392709793 118.397711713252 , -179.552827689373 187.286991957291 , -168.927883286663 256.17627220133 , -158.302938883953 297.761560325741 , -136.674952369571 370.2324017165 , -45.1203609483432 442.703243107258 , 46.4342304728847 421.444838716569 , 140.671031754129 417.904422436222 , 155.821234447045 414.364006155874 , 170.971437139961 407.40707342464 , 196.57023647472 383.702606176911 , 226.384203813201 359.998138929183 , 256.198171151681 348.215212590568 , 250.39790852962 309.253563839177 , 294.516785497628 270.291915087785 , 338.635662465635 251.800285882921 , 400.846923465049 183.102868797638 , 373.438401719612 114.405451712355 , 346.029879974175 142.513357309675 , 287.164680938158 74.8830755442114 , 267.116169030996 7.25279377874779 , 247.067657123835 9.05614617065971 , 297.865113489979 -57.0451482112663 , 320.71570439712 -123.146442593192 , 343.566295304262 -133.295147681859 , 299.522228209443 -201.211358341058 , 316.565155072215 -269.127569000256 , 333.608081934986 -286.047847161088 , 380.890977166657 -335.190316730899 , 358.239906487456 -384.33278630071 , 335.588835808254 -398.508745416465 , 283.359624039532 -291.904941263464 , 176.310031378638 -185.301137110464 , 69.2604387177437 -225.783398428254 , 109.898688676434 -208.66263595868 , 92.7144141398661 -191.541873489105 , 75.5301396032979 -127.754662793848 , 10.8569561631319 -60.3236544520844 , 25.2549049342739 7.10735388967915 , 39.6528537054159 -0.489434969824941 , 87.9810123901142 68.8887943441021 , 79.822702657049 138.267023658029 , 71.6643929239838 144.228067197996 , -11.0643847970678 139.652261667045 , -47.5991522972419 135.076456136095 , -84.1339197974161 137.971061720746 , -62.8213351716494 129.090773279705 , -116.276753133513 120.210484838664 , -169.732171095376 120.515523402383 , -207.017299221105 75.6568945020162 , -244.002956206702 30.7982656016498 , -280.9886131923 -30.7982656016498 , -280.9886131923 -75.6568945020162 , -244.002956206702 -120.515523402383 , -207.017299221105 -120.210484838664 , -169.732171095376 -129.090773279705 , -116.276753133513 -137.971061720746 , -62.8213351716494 -135.076456136095 , -84.1339197974161 -139.652261667045 , -47.5991522972419 -144.228067197996 , -11.0643847970678 -138.267023658029 , 71.6643929239838 -68.8887943441021 , 79.822702657049 0.489434969824941 , 87.9810123901142 -7.10735388967915 , 39.6528537054159 60.3236544520844 , 25.2549049342739 127.754662793848 , 10.8569561631319 191.541873489105 , 75.5301396032979 208.66263595868 , 92.7144141398661 225.783398428254 , 109.898688676434 185.301137110464 , 69.2604387177437 291.904941263464 , 176.310031378638 398.508745416465 , 283.359624039532 384.33278630071 , 335.588835808254 335.190316730899 , 358.239906487456 286.047847161088 , 380.890977166657 269.127569000256 , 333.608081934986 201.211358341058 , 316.565155072215 133.295147681859 , 299.522228209443 123.146442593192 , 343.566295304262 57.0451482112663 , 320.71570439712 -9.0561461706597 , 297.865113489979 -7.25279377874778 , 247.067657123835 -74.8830755442114 , 267.116169030996 -142.513357309675 , 287.164680938158 -114.405451712355 , 346.029879974175 -183.102868797638 , 373.438401719612 -251.800285882921 , 400.846923465049 -270.291915087785 , 338.635662465635 -309.253563839177 , 294.516785497628 -348.215212590568 , 250.39790852962 -359.998138929183 , 256.198171151681 -383.702606176911 , 226.384203813201 -407.40707342464 , 196.57023647472 -414.364006155874 , 170.971437139961 -417.904422436222 , 155.821234447045 -421.444838716569 , 140.671031754129 -442.703243107258 , 46.4342304728846 -370.2324017165 , -45.1203609483432 -297.761560325741 , -136.674952369571 -256.17627220133 , -158.302938883953 -187.286991957291 , -168.927883286663 -118.397711713252 , -179.552827689373 -130.958643327848 , -160.385392709793 0 , -160.385392709793 Z "
       id="path4201"
       inkscape:connector-curvature="0"
       sodipodi:nodetypes="zzzzzzzzzzzzzzzzzzzzzzzzzzzzzzzzzzzz" />
  </g>
</svg>
