<?xml version="1.0" encoding="UTF-8" standalone="no"?>
<!-- Created with Inkscape (http://www.inkscape.org/) -->

<svg
   xmlns:dc="http://purl.org/dc/elements/1.1/"
   xmlns:cc="http://creativecommons.org/ns#"
   xmlns:rdf="http://www.w3.org/1999/02/22-rdf-syntax-ns#"
   xmlns:svg="http://www.w3.org/2000/svg"
   xmlns="http://www.w3.org/2000/svg"
   xmlns:sodipodi="http://sodipodi.sourceforge.net/DTD/sodipodi-0.dtd"
   xmlns:inkscape="http://www.inkscape.org/namespaces/inkscape"
   width="210mm"
   height="297mm"
   viewBox="0 0 744.09448819 1052.3622047"
   id="svg2"
   version="1.1"
   inkscape:version="0.91 r13725"
   sodipodi:docname="reefknot.svg">
  <defs
     id="defs4" />
  <sodipodi:namedview
     id="base"
     pagecolor="#ffffff"
     bordercolor="#666666"
     borderopacity="1.0"
     inkscape:pageopacity="0.0"
     inkscape:pageshadow="2"
     inkscape:zoom="0.67897562"
     inkscape:cx="29.290268"
     inkscape:cy="1184.0087"
     inkscape:document-units="px"
     inkscape:current-layer="layer1"
     showgrid="false"
     inkscape:window-width="1600"
     inkscape:window-height="835"
     inkscape:window-x="0"
     inkscape:window-y="0"
     inkscape:window-maximized="1" />
  <metadata
     id="metadata7">
    <rdf:RDF>
      <cc:Work
         rdf:about="">
        <dc:format>image/svg+xml</dc:format>
        <dc:type
           rdf:resource="http://purl.org/dc/dcmitype/StillImage" />
        <dc:title></dc:title>
      </cc:Work>
    </rdf:RDF>
  </metadata>
  <g
     inkscape:label="Layer 1"
     inkscape:groupmode="layer"
     id="layer1">
    <path
       style="fill:none;fill-rule:evenodd;stroke:#000000;stroke-width:1.25689566px;stroke-linecap:butt;stroke-linejoin:miter;stroke-opacity:1"
       d="M  403.940652988283 , 159.935088732151 C  395.81547025153 , 281.481688554517 201.876518771671 , 315.469976876762 0 , 315.469976876762 -201.876518771671 , 315.469976876762 -395.81547025153 , 281.481688554517 -403.940652988283 , 159.935088732151 -412.065835725036 , 38.388488909786 -318.088733217496 , 34.1388147623255 -312.664757597358 , 33.8924385479409 -307.24078197722 , 33.6460623335563 -177.963709493427 , 28.3187388027126 -135.959558276808 , 29.952495029732 -93.9554070601889 , 31.5862512567514 -88.850434155606 , 29.7117462789262 -47.5529711788519 , 43.55542558182 -6.25550820209777 , 57.3991048847138 -1.19745384709185 , 79.0386245494233 38.0571206263711 , 102.444754618496 77.311695099834 , 125.850884687569 108.5617946709 , 129.572436630109 142.258534453044 , 123.242319812298 175.955274235188 , 116.912202994487 200.567030529392 , 96.3957094349099 213.697484285458 , 72.8384281665399 226.827938041524 , 49.2811468981699 226.289968643485 , 26.0354514035543 226.289968643485 , 0 226.289968643485 , -26.0354514035543 226.827938041524 , -49.2811468981699 213.697484285458 , -72.8384281665399 200.567030529392 , -96.3957094349099 175.955274235188 , -116.912202994487 142.258534453044 , -123.242319812298 108.5617946709 , -129.572436630109 77.311695099834 , -125.850884687569 38.0571206263711 , -102.444754618496 -1.19745384709185 , -79.0386245494233 -6.25550820209777 , -57.3991048847138 -47.5529711788519 , -43.55542558182 -88.850434155606 , -29.7117462789262 -93.9554070601888 , -31.5862512567514 -135.959558276808 , -29.952495029732 -177.963709493427 , -28.3187388027126 -307.24078197722 , -33.6460623335563 -312.664757597358 , -33.8924385479409 -318.088733217496 , -34.1388147623255 -412.065835725036 , -38.3884889097859 -403.940652988283 , -159.935088732151 -395.81547025153 , -281.481688554517 -201.876518771671 , -315.469976876762 0 , -315.469976876762 201.876518771671 , -315.469976876762 395.81547025153 , -281.481688554517 403.940652988283 , -159.935088732151 412.065835725036 , -38.388488909786 318.088733217496 , -34.1388147623255 312.664757597358 , -33.8924385479409 307.24078197722 , -33.6460623335563 177.963709493427 , -28.3187388027126 135.959558276808 , -29.952495029732 93.9554070601889 , -31.5862512567514 88.850434155606 , -29.7117462789262 47.5529711788519 , -43.55542558182 6.25550820209777 , -57.3991048847138 1.19745384709185 , -79.0386245494233 -38.0571206263711 , -102.444754618496 -77.311695099834 , -125.850884687569 -108.5617946709 , -129.572436630109 -142.258534453044 , -123.242319812298 -175.955274235188 , -116.912202994487 -200.567030529392 , -96.3957094349099 -213.697484285458 , -72.8384281665399 -226.827938041524 , -49.2811468981699 -226.289968643485 , -26.0354514035543 -226.289968643485 , 0 -226.289968643485 , 26.0354514035543 -226.827938041524 , 49.2811468981699 -213.697484285458 , 72.8384281665399 -200.567030529392 , 96.3957094349099 -175.955274235188 , 116.912202994487 -142.258534453044 , 123.242319812298 -108.5617946709 , 129.572436630109 -77.311695099834 , 125.850884687569 -38.0571206263711 , 102.444754618496 1.19745384709185 , 79.0386245494233 6.25550820209777 , 57.3991048847138 47.5529711788519 , 43.55542558182 88.850434155606 , 29.7117462789262 93.9554070601889 , 31.5862512567514 135.959558276808 , 29.952495029732 177.963709493427 , 28.3187388027126 307.24078197722 , 33.6460623335563 312.664757597358 , 33.8924385479409 318.088733217496 , 34.1388147623255 412.065835725036 , 38.388488909786 403.940652988283 , 159.935088732151 Z "
       id="path3350"
       inkscape:connector-curvature="0"
       sodipodi:nodetypes="zzzzzzzzzzzzzzzzzzzzzzzzzzzzzzzzz" />
  </g>
</svg>
