<?xml version="1.0" encoding="UTF-8" standalone="no"?>
<!-- Created with Inkscape (http://www.inkscape.org/) -->

<svg
   xmlns:dc="http://purl.org/dc/elements/1.1/"
   xmlns:cc="http://creativecommons.org/ns#"
   xmlns:rdf="http://www.w3.org/1999/02/22-rdf-syntax-ns#"
   xmlns:svg="http://www.w3.org/2000/svg"
   xmlns="http://www.w3.org/2000/svg"
   xmlns:sodipodi="http://sodipodi.sourceforge.net/DTD/sodipodi-0.dtd"
   xmlns:inkscape="http://www.inkscape.org/namespaces/inkscape"
   width="210mm"
   height="297mm"
   viewBox="0 0 744.09448819 1052.3622047"
   id="svg2"
   version="1.1"
   inkscape:version="0.91 r13725"
   sodipodi:docname="satellite.svg">
  <defs
     id="defs4" />
  <sodipodi:namedview
     id="base"
     pagecolor="#ffffff"
     bordercolor="#666666"
     borderopacity="1.0"
     inkscape:pageopacity="0.0"
     inkscape:pageshadow="2"
     inkscape:zoom="4.6463407"
     inkscape:cx="-75.561255"
     inkscape:cy="666.77083"
     inkscape:document-units="px"
     inkscape:current-layer="layer1"
     showgrid="false"
     inkscape:window-width="2560"
     inkscape:window-height="1315"
     inkscape:window-x="315"
     inkscape:window-y="0"
     inkscape:window-maximized="0" />
  <metadata
     id="metadata7">
    <rdf:RDF>
      <cc:Work
         rdf:about="">
        <dc:format>image/svg+xml</dc:format>
        <dc:type
           rdf:resource="http://purl.org/dc/dcmitype/StillImage" />
        <dc:title />
      </cc:Work>
    </rdf:RDF>
  </metadata>
  <g
     inkscape:label="Layer 1"
     inkscape:groupmode="layer"
     id="layer1">
    <path
       style="fill:none;fill-rule:evenodd;stroke:#000000;stroke-width:2.30789471px;stroke-linecap:butt;stroke-linejoin:miter;stroke-opacity:1"
       d="M  60.2163213021885 , 56.9930305310661 C  78.5534654395625 , 57.9992680045318 127.696314332712 , 63.5585444033098 169.691125896482 , 117.693796690579 211.685937460252 , 171.829048977847 186.941564842505 , 239.317106241397 172.76304851331 , 256.007663756329 158.584532184115 , 272.698221271262 141.998020972765 , 273.357624228459 132.179889338533 , 272.07138558914 122.361757704301 , 270.785146949822 100.807416752457 , 263.984522731491 85.7192299019899 , 232.402746520809 70.6310430515229 , 200.820970310127 75.0342292766513 , 202.55139009281 56.7640593731323 , 169.074115259463 38.4938894696133 , 135.596840426117 3.87578197626659 , 130.219259407081 -17.0413785825273 , 148.186176918551 -37.9585391413212 , 166.153094430021 -35.1884541054777 , 194.850857022244 -30.7627611821503 , 213.077654566329 -26.337068258823 , 231.304452110413 -12.105407836588 , 263.76796024875 -0.943188579051825 , 283.246262414654 10.2190306784844 , 302.724564580559 34.385172651212 , 339.186490344947 77.6389075665989 , 346.293665340811 120.892642481986 , 353.400840336676 152.651757902421 , 338.719954441441 159.608853875001 , 335.500132099828 166.565949847581 , 332.280309758214 183.482931951918 , 324.219592908387 206.226945357979 , 304.198034792955 228.97095876404 , 284.176476677524 319.22493181422 , 185.604542779178 268.180314520398 , 96.4705194344041 217.135697226576 , 7.33649608963063 153.71475876473 , -18.1157404475218 113.966377788217 , -27.4754994503812 74.2179968117052 , -36.8352584532406 33.5057802672966 , -31.8834780132321 4.30299209527217 , -16.3301235431995 -24.8997960767522 , -0.776769073166825 -163.183515157754 , 136.149734220521 -189.682073275289 , 162.739845365103 -216.180631392823 , 189.329956509685 -233.81725607925 , 205.297528852562 -250.802069327984 , 230.244538311064 -267.786882576717 , 255.191547769566 -279.236388447023 , 281.737615883524 -276.114529921461 , 308.837795871786 -272.992671395899 , 335.937975860048 -260.413179656809 , 364.833476664385 -216.137261335023 , 398.975852383041 -171.861343013238 , 433.118228101697 -78.0962807932361 , 464.89013430892 0 , 464.89013430892 78.0962807932361 , 464.89013430892 152.584596252002 , 450.630026623606 212.876690534746 , 416.689647838347 273.16878481749 , 382.749269053089 327.083873634209 , 309.073671258907 314.660735435729 , 247.664312601443 302.237597237249 , 186.254953943978 248.806133678334 , 172.644242654932 235.680444795169 , 169.660659123008 222.554755912005 , 166.677075591084 192.98700092137 , 160.357825011621 138.590168690877 , 178.40319335737 84.1933364603847 , 196.44856170312 -33.5971416312714 , 250.996587330361 -60.6592092472657 , 256.048649322018 -87.7212768632601 , 261.100711313675 -104.859136417634 , 258.173308597895 -110.832892586367 , 257.157881436325 -116.806648755099 , 256.142454274755 -158.163601551069 , 248.393322825085 -189.68460354913 , 227.837480540886 -221.205605547191 , 207.281638256688 -243.053827854279 , 176.998153319672 -237.332970817333 , 144.352307717868 -231.612113780386 , 111.706462116064 -201.720134846826 , 93.4403905343925 -170.785211315129 , 101.230716956031 -139.850287783432 , 109.02104337767 -103.725935400024 , 149.29697291292 -68.383726338712 , 167.997844507409 -33.0415172773994 , 186.698716101898 -7.44809846179209 , 175.797517696183 4.80333269572523 , 166.475701081225 17.0547638532426 , 157.153884466267 31.3178686196265 , 139.008739285642 25.5821330502568 , 103.862330408418 19.8463974808871 , 68.7159215311941 -26.014948845159 , 5.21945846973452 -97.932922545489 , -0.586890165820895 -169.850896245819 , -6.39323880137631 -211.64757476874 , 23.1827573102178 -225.466692770209 , 33.0930962105954 -239.285810771678 , 43.003435110973 -301.86929363925 , 88.0101557595635 -303.80486335546 , 164.662285636921 -305.740433071669 , 241.314415514279 -267.152805373283 , 270.205823505475 -222.055069066972 , 298.66859051194 -176.957332760661 , 327.131357518405 -132.792648012061 , 329.947368026288 -96.163993172862 , 332.494822247088 -59.5353383336628 , 335.042276467887 -43.3677799546586 , 333.942183211554 -24.0753737373461 , 330.431361094003 -4.78296752003352 , 326.920538976453 17.2211911374576 , 320.000644550959 60.4281045559702 , 291.261136281131 103.635017974483 , 262.521628011304 109.322739336356 , 252.754991947116 138.312398121951 , 238.558642772255 167.302056907546 , 224.362293597394 192.180997793873 , 226.238403617875 215.322598674387 , 238.805612129609 238.4641995549 , 251.372820641344 255.759182321909 , 274.889944412093 254.003656532215 , 302.891078936603 252.24813074252 , 330.892213461113 234.122842112439 , 375.916829989392 121.028116110348 , 408.319704707884 7.93339010825778 , 440.722579426376 -78.3157227190461 , 408.030710977421 -87.3621619526472 , 404.562771539684 -96.4086011862484 , 401.094832101946 -120.305888457763 , 391.593200602476 -136.608857912291 , 368.871139066674 -152.911827366818 , 346.149077530872 -155.385827154485 , 319.922796921118 -152.686667966384 , 289.474010829078 -149.987508778283 , 259.025224737038 -143.121037395764 , 236.448572838802 -129.983979772979 , 203.795729531603 -116.846922150195 , 171.142886224404 -104.279418453672 , 142.292970973392 -51.7955059440116 , 99.4644331016871 0.68840656564916 , 56.6358952299822 41.8791771648145 , 55.9867930576005 60.2163213021885 , 56.9930305310661 Z "
       id="path3430"
       inkscape:connector-curvature="0"
       sodipodi:nodetypes="zzzzzzzzzzzzzzzzzzzzzzzzzzzzzzzzzzzzzzzzzzzzzzzzz" />
  </g>
</svg>
