<?xml version="1.0" encoding="UTF-8" standalone="no"?>
<!-- Created with Inkscape (http://www.inkscape.org/) -->

<svg
   xmlns:dc="http://purl.org/dc/elements/1.1/"
   xmlns:cc="http://creativecommons.org/ns#"
   xmlns:rdf="http://www.w3.org/1999/02/22-rdf-syntax-ns#"
   xmlns:svg="http://www.w3.org/2000/svg"
   xmlns="http://www.w3.org/2000/svg"
   xmlns:sodipodi="http://sodipodi.sourceforge.net/DTD/sodipodi-0.dtd"
   xmlns:inkscape="http://www.inkscape.org/namespaces/inkscape"
   width="210mm"
   height="297mm"
   viewBox="0 0 744.09448819 1052.3622047"
   id="svg2"
   version="1.1"
   inkscape:version="0.91 r13725"
   sodipodi:docname="satellite.svg">
  <defs
     id="defs4" />
  <sodipodi:namedview
     id="base"
     pagecolor="#ffffff"
     bordercolor="#666666"
     borderopacity="1.0"
     inkscape:pageopacity="0.0"
     inkscape:pageshadow="2"
     inkscape:zoom="4.6463407"
     inkscape:cx="-75.561255"
     inkscape:cy="666.77083"
     inkscape:document-units="px"
     inkscape:current-layer="layer1"
     showgrid="false"
     inkscape:window-width="2560"
     inkscape:window-height="1315"
     inkscape:window-x="315"
     inkscape:window-y="0"
     inkscape:window-maximized="0" />
  <metadata
     id="metadata7">
    <rdf:RDF>
      <cc:Work
         rdf:about="">
        <dc:format>image/svg+xml</dc:format>
        <dc:type
           rdf:resource="http://purl.org/dc/dcmitype/StillImage" />
        <dc:title />
      </cc:Work>
    </rdf:RDF>
  </metadata>
  <g
     inkscape:label="Layer 1"
     inkscape:groupmode="layer"
     id="layer1">
    <path
       style="fill:none;fill-rule:evenodd;stroke:#000000;stroke-width:2.30789471px;stroke-linecap:butt;stroke-linejoin:miter;stroke-opacity:1"
       d="M  62.3508317418478 , 56.2802241021441 C  84.6285655609668 , 56.9373638448537 130.350998810762 , 62.6254560550792 168.438030675391 , 116.99066882516 206.52506254002 , 171.35588159524 187.249694444739 , 240.108954426006 173.396816900111 , 256.981796961027 159.543939355483 , 273.854639496048 142.999496096882 , 275.234776449328 131.588643570644 , 273.14803962359 120.177791044405 , 271.061302797851 102.338882623757 , 263.322536936094 86.8607331509878 , 231.878228115721 71.3825836782184 , 200.433919295349 75.8557770701129 , 201.833126518886 57.3769397157911 , 169.185523844475 38.8981023614694 , 136.537921170063 3.24263659991103 , 130.19259126223 -17.454381848735 , 148.93142686941 -38.1514002973809 , 167.67026247659 -33.5576485305345 , 196.287505232809 -28.5167738558139 , 213.820889836171 -23.4758991810934 , 231.354274439534 -8.6299038291221 , 262.333863133043 3.04830893452881 , 284.605684397083 14.7265216981797 , 306.877505661124 32.9598150313623 , 342.974167190768 76.6266922062872 , 350.786204373476 120.293569381212 , 358.598241556185 156.064009572904 , 335.281325010515 159.254423543803 , 333.1849858846 162.444837514701 , 331.088646758684 179.798610445321 , 319.872455487047 200.712718196922 , 300.140564637397 221.626825948523 , 280.408673787748 319.7199890715 , 178.589084212093 274.692009370796 , 95.7269037186853 229.664029670092 , 12.8647232252779 157.70377808848 , -17.4064451840047 109.370190213552 , -28.2291359268166 61.0366023386239 , -39.0518266696286 26.1445048302652 , -30.6441186468185 2.87236839344511 , -16.0016948260125 -20.399768043375 , -1.35927100520649 -160.752431852538 , 139.826929635107 -187.710899008799 , 167.687452882551 -214.669366165061 , 195.547976129994 -229.962772728461 , 207.605871195696 -250.286800134105 , 235.25854924349 -270.610827539748 , 262.911227291285 -282.717439690951 , 278.553598086819 -280.333851793128 , 307.575985117687 -277.950263895304 , 336.598372148554 -262.024911318892 , 363.531710696465 -218.256396168318 , 395.09923764974 -174.487881017744 , 426.666764603014 -80.5329938017515 , 461.11040202625 0 , 461.11040202625 80.5329938017515 , 461.11040202625 148.756311324962 , 448.339597224735 209.350344022084 , 415.589821654648 269.944376719206 , 382.84004608456 325.395946941481 , 306.478262588101 320.952274530942 , 244.926126378276 316.508602120404 , 183.373990168452 257.882069164889 , 173.844826893262 234.987597993736 , 170.277892943861 212.093126822582 , 166.710958994459 195.357251887133 , 163.921780150277 139.331531143508 , 179.590937717761 83.3058103998835 , 195.260095285246 -32.6212332781643 , 251.20924273325 -60.659575360615 , 256.310069139325 -88.6979174430658 , 261.4108955454 -106.539323105035 , 258.244662662104 -113.040987462285 , 256.696450246927 -119.542651819536 , 255.148237831751 -160.28022635884 , 246.969504101091 -190.907883151456 , 226.307416311265 -221.535539944072 , 205.645328521439 -244.822667692277 , 178.238229448194 -238.743054991605 , 144.338850709221 -232.663442290934 , 110.439471970248 -200.675378292889 , 89.7956775831406 -168.000742807188 , 99.1623400012645 -135.326107321486 , 108.529002419388 -107.383358645859 , 151.361890334481 -68.3815889250066 , 170.614848926292 -29.3798192041537 , 189.867807518103 -6.21606612974301 , 177.670183666795 4.65047837866277 , 168.467613424038 15.5170228870686 , 159.265043181281 29.1120489627158 , 138.784530687271 22.4180660717814 , 107.464731389781 15.7240831808471 , 76.1449320922912 -24.9959520838141 , 0.63206620091979 -89.8104651472078 , -8.00480304812164 -154.624978210602 , -16.6416722971631 -212.265358394189 , 24.1716889010676 -225.170620644105 , 33.6226728093647 -238.075882894021 , 43.0736567176617 -300.935752175307 , 89.6349052441552 -307.371251352099 , 168.876931548226 -313.806750528892 , 248.118957852297 -269.292047149396 , 265.463288958307 -222.602441523728 , 296.173294502577 -175.91283589806 , 326.883300046848 -132.144347781935 , 325.850526893256 -95.7217415189649 , 330.080838123976 -59.2991352559946 , 334.311149354697 -46.4887426374184 , 336.149492591787 -21.0192501499623 , 331.350303892627 4.45024233749388 , 326.551115193467 14.9028224413084 , 320.395627962336 60.0614229425397 , 289.642675529662 105.220023443771 , 258.889723096989 106.339065893516 , 249.702717895875 136.092985162179 , 236.097462412153 165.846904430842 , 222.492206928431 189.790031716223 , 227.653256594431 214.290025363817 , 240.323789513431 238.790019011412 , 252.994322432431 257.840320381975 , 271.234457929071 256.340851076771 , 301.539040253379 254.841381771567 , 331.843622577687 233.657297734116 , 375.849145970941 126.462815730809 , 405.729174805538 19.2683337275018 , 435.609203640135 -79.4455473576543 , 407.293577858665 -88.5489728060334 , 404.518564936303 -97.6523982544126 , 401.74355201394 -124.86419686757 , 393.599197226916 -142.296996559055 , 368.26725072356 -159.729796250541 , 342.935304220204 -156.475905199521 , 323.415977789174 -151.859709468425 , 288.858860594446 -147.243513737328 , 254.301743399717 -141.835853826748 , 240.052251205045 -128.870892886296 , 206.13872732765 -115.905931945844 , 172.225203450254 -104.368530645671 , 145.595974793445 -47.5324971489371 , 102.023846545046 9.30353634779713 , 58.4517182966476 40.0730979227287 , 55.6230843594344 62.3508317418478 , 56.2802241021441 Z "
       id="path3430"
       inkscape:connector-curvature="0"
       sodipodi:nodetypes="zzzzzzzzzzzzzzzzzzzzzzzzzzzzzzzzzzzzzzzzzzzzzzzzz" />
  </g>
</svg>
