<?xml version="1.0" encoding="UTF-8" standalone="no"?>
<!-- Created with Inkscape (http://www.inkscape.org/) -->

<svg
   xmlns:dc="http://purl.org/dc/elements/1.1/"
   xmlns:cc="http://creativecommons.org/ns#"
   xmlns:rdf="http://www.w3.org/1999/02/22-rdf-syntax-ns#"
   xmlns:svg="http://www.w3.org/2000/svg"
   xmlns="http://www.w3.org/2000/svg"
   xmlns:sodipodi="http://sodipodi.sourceforge.net/DTD/sodipodi-0.dtd"
   xmlns:inkscape="http://www.inkscape.org/namespaces/inkscape"
   width="210mm"
   height="297mm"
   viewBox="0 0 744.09448819 1052.3622047"
   id="svg2"
   version="1.1"
   inkscape:version="0.91 r13725"
   sodipodi:docname="satellite.svg">
  <defs
     id="defs4" />
  <sodipodi:namedview
     id="base"
     pagecolor="#ffffff"
     bordercolor="#666666"
     borderopacity="1.0"
     inkscape:pageopacity="0.0"
     inkscape:pageshadow="2"
     inkscape:zoom="4.6463407"
     inkscape:cx="-75.561255"
     inkscape:cy="666.77083"
     inkscape:document-units="px"
     inkscape:current-layer="layer1"
     showgrid="false"
     inkscape:window-width="2560"
     inkscape:window-height="1315"
     inkscape:window-x="315"
     inkscape:window-y="0"
     inkscape:window-maximized="0" />
  <metadata
     id="metadata7">
    <rdf:RDF>
      <cc:Work
         rdf:about="">
        <dc:format>image/svg+xml</dc:format>
        <dc:type
           rdf:resource="http://purl.org/dc/dcmitype/StillImage" />
        <dc:title />
      </cc:Work>
    </rdf:RDF>
  </metadata>
  <g
     inkscape:label="Layer 1"
     inkscape:groupmode="layer"
     id="layer1">
    <path
       style="fill:none;fill-rule:evenodd;stroke:#000000;stroke-width:2.30789471px;stroke-linecap:butt;stroke-linejoin:miter;stroke-opacity:1"
       d="M  62.36071283686 , 56.2425791477709 C  84.6727555550957 , 56.9131251510245 130.423115490222 , 62.6318627314864 168.353654704847 , 116.940934643649 206.284193919472 , 171.250006555812 187.266089286257 , 240.164533734205 173.503842451654 , 256.976012626936 159.741595617051 , 273.787491519667 143.076392015556 , 275.283201689105 131.50183747773 , 273.190203490711 119.927282939904 , 271.097205292317 102.379291015908 , 263.369228954028 86.9901525531899 , 231.825102019557 71.6010140904719 , 200.280975085086 75.8607750095131 , 201.839200971508 57.4241042674994 , 169.17778861282 38.9874335254857 , 136.516376254132 3.29957632293238 , 130.213635450592 -17.6618968381177 , 148.870957673185 -38.6233699991678 , 167.528279895778 -33.5305193050312 , 196.270002442653 -28.3459639860519 , 213.793718045495 -23.1614086670726 , 231.317433648337 -8.70541566853429 , 262.370564428669 3.44164493729608 , 284.495366493627 15.5887055431264 , 306.620168558585 32.9261727168846 , 343.274880535662 76.3863824834385 , 350.563605300431 119.846592249992 , 357.8523300652 156.718570746508 , 334.388004033469 159.157028366194 , 332.8362936482 161.59548598588 , 331.284583262931 179.752204603831 , 319.695837856608 200.2313236182 , 299.706081025402 220.710442632569 , 279.716324194196 319.68068978577 , 178.49765301543 274.770015638361 , 95.7132062325295 229.859341490952 , 12.928759449629 157.721716662734 , -17.4026699608871 109.356685022697 , -28.2538841161233 60.9916533826596 , -39.1050982713595 26.0803867785241 , -30.6529609792257 2.95465700530129 , -15.9628361833094 -20.1710727679215 , -1.2727113873932 -160.759082124555 , 139.839189165826 -187.389398837062 , 168.034978308951 -214.019715549569 , 196.230767452076 -230.114093154495 , 207.441011917665 -249.925708315306 , 235.684688002897 -269.737323476117 , 263.928364088129 -282.941090493937 , 278.45727379119 -280.494464945187 , 307.524861572581 -278.047839396437 , 336.592449353972 -262.026235782433 , 363.510660917927 -218.233824429618 , 395.056426099695 -174.441413076803 , 426.602191281463 -80.5264818457439 , 461.116554530544 0 , 461.116554530544 80.5264818457439 , 461.116554530544 148.75918709113 , 448.324457864451 209.337051374148 , 415.601425735472 269.914915657166 , 382.878393606493 325.24405643051 , 306.560327768628 321.271457588785 , 244.637208319786 317.29885874706 , 182.714088870944 257.907535451164 , 173.985837890424 234.921817087931 , 170.354148520543 211.936098724698 , 166.722459150662 195.410253723558 , 163.973466461605 139.334004951251 , 179.586594252426 83.2577561789439 , 195.199722043247 -32.6049511782818 , 251.150998071654 -60.6734772788018 , 256.412888829265 -88.7420033793218 , 261.674779586876 -106.511674846578 , 258.097190359634 -113.138850587834 , 256.765186015493 -119.76602632909 , 255.433181671352 -160.296938060519 , 247.006050970768 -190.885618353792 , 226.119064554488 -221.474298647065 , 205.232078138208 -244.941782038301 , 178.269429204457 -238.77855100947 , 144.357493157825 -232.615319980639 , 110.445557111193 -200.634231108326 , 89.8017743877758 -167.955990409346 , 98.9118692752795 -135.277749710366 , 108.021964162783 -107.5553553174 , 151.420583263488 -68.3239386660988 , 170.673513059124 -29.0925220147975 , 189.92644285476 -6.18731493712392 , 177.761620494568 4.64740114350695 , 168.495107718145 15.4821172241378 , 159.228594941722 29.2590860554296 , 138.729645237652 22.0669188592497 , 107.658214544884 14.8747516630698 , 76.5867838521161 -24.9786944737576 , 0.531547212342477 -89.7062362157697 , -8.15380209893293 -154.433777957782 , -16.8391514102083 -212.249990984113 , 24.1773290611655 -225.194826785347 , 33.6174480492401 -238.139662586581 , 43.0575670373147 -300.847427317252 , 89.5530834249054 -307.635982460905 , 169.037840521592 -314.424537604558 , 248.522597618279 -269.230705005716 , 265.272960618545 -222.618792365819 , 296.194705237466 -176.006879725922 , 327.116449856387 -132.122162056292 , 325.661236580416 -95.7079323684917 , 329.942984608416 -59.2937026806914 , 334.224732636416 -46.5367837307493 , 336.078325438268 -20.8702463531474 , 331.644496019378 4.79629102445448 , 327.210666600488 14.7881816789887 , 320.317600906851 60.0465040296848 , 289.57357256933 105.304826380381 , 258.829544231809 106.231209387242 , 249.690577273869 135.999387451027 , 235.749868147989 165.767565514812 , 221.809159022109 189.678153311216 , 227.582202198071 214.205948780963 , 240.844719229477 238.73374425071 , 254.107236260883 258.045855835389 , 271.109212542916 256.436746559903 , 301.49887992866 254.827637284417 , 331.888547314404 233.674646190399 , 375.851481984599 126.477388450175 , 405.718292119899 19.2801307099509 , 435.585102255199 -79.4212486861281 , 407.252899084149 -88.6041830599721 , 404.505080466977 -97.7871174338161 , 401.757261849805 -124.593208293825 , 393.60804303374 -143.003723884337 , 368.348248296875 -161.414239474849 , 343.08845356001 -156.345259028911 , 323.511337341056 -151.725511492272 , 288.893925133474 -147.105763955632 , 254.276512925892 -141.753724826613 , 240.096769457885 -128.863242991638 , 206.162047034972 -115.972761156663 , 172.227324612059 -104.425304190654 , 145.582564684822 -47.3423087988508 , 102.213870292324 9.74068659295247 , 58.8451758998261 40.0486701186243 , 55.5720331445173 62.36071283686 , 56.2425791477709 Z "
       id="path3430"
       inkscape:connector-curvature="0"
       sodipodi:nodetypes="zzzzzzzzzzzzzzzzzzzzzzzzzzzzzzzzzzzzzzzzzzzzzzzzz" />
  </g>
</svg>
