<?xml version="1.0" encoding="UTF-8" standalone="no"?>
<!-- Created with Inkscape (http://www.inkscape.org/) -->

<svg
   xmlns:dc="http://purl.org/dc/elements/1.1/"
   xmlns:cc="http://creativecommons.org/ns#"
   xmlns:rdf="http://www.w3.org/1999/02/22-rdf-syntax-ns#"
   xmlns:svg="http://www.w3.org/2000/svg"
   xmlns="http://www.w3.org/2000/svg"
   xmlns:sodipodi="http://sodipodi.sourceforge.net/DTD/sodipodi-0.dtd"
   xmlns:inkscape="http://www.inkscape.org/namespaces/inkscape"
   width="744.09448819"
   height="1052.3622047"
   id="svg2"
   version="1.1"
   inkscape:version="0.91 r13725"
   sodipodi:docname="sum_3_1_and_4_1.svg">
  <defs
     id="defs4" />
  <sodipodi:namedview
     id="base"
     pagecolor="#ffffff"
     bordercolor="#666666"
     borderopacity="1.0"
     inkscape:pageopacity="0.0"
     inkscape:pageshadow="2"
     inkscape:zoom="1.1301279"
     inkscape:cx="435.50749"
     inkscape:cy="517.01794"
     inkscape:document-units="px"
     inkscape:current-layer="layer1"
     showgrid="false"
     inkscape:window-width="2560"
     inkscape:window-height="1315"
     inkscape:window-x="0"
     inkscape:window-y="1"
     inkscape:window-maximized="1" />
  <metadata
     id="metadata7">
    <rdf:RDF>
      <cc:Work
         rdf:about="">
        <dc:format>image/svg+xml</dc:format>
        <dc:type
           rdf:resource="http://purl.org/dc/dcmitype/StillImage" />
        <dc:title />
      </cc:Work>
    </rdf:RDF>
  </metadata>
  <g
     inkscape:label="Layer 1"
     inkscape:groupmode="layer"
     id="layer1">
    <path
       style="fill:none;stroke:#000000;stroke-width:3.10213733px;stroke-linecap:butt;stroke-linejoin:miter;stroke-opacity:1"
       d="M  0 , -220.096888050872 C  86.0449574006676 , -220.096888050872 164.511636550305 , -156.281354394211 177.759695928131 , -69.0764178493786 191.007755305956 , 18.1285186954538 150.301160918955 , 42.9703489930319 125.389095481895 , 132.438892729684 100.477030044836 , 221.907436466336 107.6344149371 , 325.149730388434 187.634550792629 , 378.946104903629 267.634686648158 , 432.742479418825 372.158951705953 , 388.926063183308 389.002051317607 , 293.750181006706 405.845150929261 , 198.574298830104 334.29841670076 , 125.563010361571 255.114575937624 , 80.5544575897229 175.930735174489 , 35.5459048178745 110.153436468828 , 35.7850054120787 77.2614182375375 , -56.2975716723008 44.3694000062466 , -148.38014875668 115.296720120426 , -279.754872549602 249.904593363539 , -263.677748984354 384.512466606651 , -247.600625419106 444.641194822828 , -100.742269590732 416.489010239739 , 14.3659153533706 388.336825656649 , 129.474100297473 292.885380141118 , 187.354445702344 236.326318371667 , 211.936424364845 179.767256602216 , 236.518403027346 91.6581927459411 , 257.347089242082 -12.32822899132 , 230.607266774647 -116.314650728581 , 203.867444307212 -192.571349937277 , 146.355378631054 -279.281302295662 , 79.4624843502473 -365.991254654047 , 12.5695900694409 -428.902225064622 , -35.8246033627978 -435.09061875255 , -119.865969203461 -441.279012440478 , -203.907335044125 -375.281578628473 , -282.920288242242 -279.713522578274 , -276.11184818922 -184.145466528076 , -269.303408136199 -99.8791114586242 , -171.654053697057 -102.514994272994 , 4.53032765939997 -105.150877087363 , 180.714709015857 -204.519831353891 , 268.366650892055 -297.705520434633 , 267.218763085104 -390.891209515376 , 266.070875278153 -447.280820126926 , 188.207075820965 -440.890814446202 , 109.710226605604 -434.500808765478 , 31.2133773902444 -382.515488235167 , -14.7037035448815 -268.530723883744 , -96.9384386790696 -154.545959532321 , -179.173173813258 -86.0449574006676 , -220.096888050872 0 , -220.096888050872 Z "
       id="path2985"
       inkscape:connector-curvature="0"
       sodipodi:nodetypes="szzzzzzzzzzzzzzzzzzssssss" />
  </g>
</svg>
