<?xml version="1.0" encoding="UTF-8" standalone="no"?>
<!-- Created with Inkscape (http://www.inkscape.org/) -->

<svg
   xmlns:dc="http://purl.org/dc/elements/1.1/"
   xmlns:cc="http://creativecommons.org/ns#"
   xmlns:rdf="http://www.w3.org/1999/02/22-rdf-syntax-ns#"
   xmlns:svg="http://www.w3.org/2000/svg"
   xmlns="http://www.w3.org/2000/svg"
   xmlns:sodipodi="http://sodipodi.sourceforge.net/DTD/sodipodi-0.dtd"
   xmlns:inkscape="http://www.inkscape.org/namespaces/inkscape"
   width="210mm"
   height="297mm"
   viewBox="0 0 744.09448819 1052.3622047"
   id="svg2"
   version="1.1"
   inkscape:version="0.91 r13725"
   sodipodi:docname="T20.svg">
  <defs
     id="defs4" />
  <sodipodi:namedview
     id="base"
     pagecolor="#ffffff"
     bordercolor="#666666"
     borderopacity="1.0"
     inkscape:pageopacity="0.0"
     inkscape:pageshadow="2"
     inkscape:zoom="1.4728439"
     inkscape:cx="238.86278"
     inkscape:cy="520"
     inkscape:document-units="px"
     inkscape:current-layer="layer1"
     showgrid="false"
     inkscape:window-width="2560"
     inkscape:window-height="1315"
     inkscape:window-x="275"
     inkscape:window-y="0"
     inkscape:window-maximized="0" />
  <metadata
     id="metadata7">
    <rdf:RDF>
      <cc:Work
         rdf:about="">
        <dc:format>image/svg+xml</dc:format>
        <dc:type
           rdf:resource="http://purl.org/dc/dcmitype/StillImage" />
        <dc:title />
      </cc:Work>
    </rdf:RDF>
  </metadata>
  <g
     inkscape:label="Layer 1"
     inkscape:groupmode="layer"
     id="layer1">
    <path
       style="fill:none;fill-rule:evenodd;stroke:#000000;stroke-width:1.81919217px;stroke-linecap:butt;stroke-linejoin:miter;stroke-opacity:1"
       d="M  0 , 161.485980554194 C  52.9084507270266 , 161.485980554194 72.5943991583697 , 223.535097261731 71.9815322672818 , 274.530502909719 71.368665376194 , 325.525908557708 36.3318195951007 , 366.286839954968 45.4682417455403 , 440.648063436263 54.6046638959799 , 515.009286917559 135.543833829128 , 538.551114303129 180.822240544474 , 509.002481891721 226.10064725982 , 479.453849480312 213.393938805764 , 437.649575098949 209.847654335426 , 394.513715927344 206.301369865088 , 351.37785675574 205.865330610944 , 252.300038112206 145.155870376565 , 197.926946441825 84.4464101421866 , 143.553854771445 0.794099179831234 , 202.818595695954 9.88001883075596 , 272.763108633922 18.9659384816807 , 342.707621571891 99.7066928546073 , 342.465441191804 137.003120503439 , 341.136229030802 174.299548152271 , 339.8070168698 224.757828764498 , 332.834372895842 242.493665267522 , 332.510233079687 260.229501770547 , 332.186093263532 266.962021348104 , 331.945065898844 308.298859810395 , 342.569459139706 349.635698272687 , 353.193852380567 361.72273722868 , 379.324674256908 424.410368673571 , 365.596750047071 487.098000118462 , 351.868825837234 477.911106962155 , 295.31316705159 550.441969565631 , 282.778688195526 622.972832169106 , 270.244209339461 672.12825378153 , 362.70340831126 581.61971289289 , 474.052340964012 491.11117200425 , 585.401273616764 549.198191992879 , 514.33184821577 500.123764217456 , 574.051827141782 451.049336442032 , 633.771806067794 427.330953614856 , 711.639268904038 323.578057699162 , 730.424122627829 219.825161783467 , 749.208976351619 182.884150275511 , 693.696942262371 147.38218070967 , 650.292572486055 111.880211143828 , 606.888202709739 104.423155163988 , 577.75462591273 102.243888873395 , 559.257371990392 100.064622582801 , 540.760118068054 101.757325324118 , 490.80823358342 149.026761288703 , 463.189110978841 196.296197253288 , 435.569988374262 224.942017058419 , 445.251919568847 253.813066202221 , 435.595633637966 282.684115346023 , 425.939347707084 299.449773134207 , 415.598234829506 322.947797615956 , 392.114301040389 346.445822097705 , 368.630367251273 347.875508961655 , 330.416005548476 406.57935848995 , 308.847326432362 465.283208018245 , 287.278647316248 485.678124537302 , 337.933436859121 556.279247419931 , 362.210917528976 626.88037030256 , 386.488398198831 650.002672163148 , 380.958539837962 687.036574659509 , 405.620386652803 724.070477155871 , 430.282233467645 740.912493894959 , 461.619326425345 746.362288065943 , 494.740905851574 751.812082236927 , 527.862485277803 746.410967576648 , 593.302264064042 685.287229473959 , 638.146625624168 624.163491371269 , 682.990987184293 558.896833629542 , 684.491797961257 507.974555031278 , 668.964423488198 457.052276433015 , 653.437049015139 418.659094729832 , 591.095149078078 315.764307998823 , 617.183616254513 212.869521267814 , 643.272083430949 186.252805368978 , 706.405081587857 137.238435242069 , 728.099755699653 88.2240651151601 , 749.794429811449 62.5595718439438 , 752.821829860152 0 , 752.821829860152 -62.5595718439438 , 752.821829860152 -155.999257387214 , 706.357497523258 -203.676476066331 , 638.91444749242 -251.353694745449 , 571.471397461582 -266.467936868398 , 514.907026475596 -264.849129377293 , 453.888204556102 -263.230321886187 , 392.869382636607 -235.736547984954 , 300.008172649546 -176.534706214172 , 241.520225625651 -117.33286444339 , 183.032278601757 -52.9084507270266 , 161.485980554194 0 , 161.485980554194 Z "
       id="path4233"
       inkscape:connector-curvature="0"
       sodipodi:nodetypes="zzzzzzzzzzzzzzzzzzzzzzzzzzzzzzzzz" />
  </g>
</svg>
