<?xml version="1.0" encoding="UTF-8" standalone="no"?>
<!-- Created with Inkscape (http://www.inkscape.org/) -->

<svg
   xmlns:dc="http://purl.org/dc/elements/1.1/"
   xmlns:cc="http://creativecommons.org/ns#"
   xmlns:rdf="http://www.w3.org/1999/02/22-rdf-syntax-ns#"
   xmlns:svg="http://www.w3.org/2000/svg"
   xmlns="http://www.w3.org/2000/svg"
   xmlns:sodipodi="http://sodipodi.sourceforge.net/DTD/sodipodi-0.dtd"
   xmlns:inkscape="http://www.inkscape.org/namespaces/inkscape"
   width="744.09448819"
   height="1052.3622047"
   id="svg2"
   version="1.1"
   inkscape:version="0.91 r13725"
   sodipodi:docname="three_figure_eights.svg">
  <defs
     id="defs4" />
  <sodipodi:namedview
     id="base"
     pagecolor="#ffffff"
     bordercolor="#666666"
     borderopacity="1.0"
     inkscape:pageopacity="0.0"
     inkscape:pageshadow="2"
     inkscape:zoom="1.3869239"
     inkscape:cx="-43.9686"
     inkscape:cy="1074.499"
     inkscape:document-units="px"
     inkscape:current-layer="layer1"
     showgrid="false"
     inkscape:window-width="2560"
     inkscape:window-height="1315"
     inkscape:window-x="0"
     inkscape:window-y="1"
     inkscape:window-maximized="1"
     showguides="true"
     inkscape:guide-bbox="true" />
  <metadata
     id="metadata7">
    <rdf:RDF>
      <cc:Work
         rdf:about="">
        <dc:format>image/svg+xml</dc:format>
        <dc:type
           rdf:resource="http://purl.org/dc/dcmitype/StillImage" />
        <dc:title />
      </cc:Work>
    </rdf:RDF>
  </metadata>
  <g
     inkscape:label="Layer 1"
     inkscape:groupmode="layer"
     id="layer1">
    <path
       style="fill:none;stroke:#000000;stroke-width:5;stroke-linecap:butt;stroke-linejoin:miter;stroke-miterlimit:4;stroke-dasharray:none;stroke-opacity:1"
       d="M  -14.6117998761533 , 264.722870491768 C  1.02899812258489 , 260.622779586298 18.3988871283344 , 254.031963418203 33.5996833256339 , 245.793735672936 48.8004795229334 , 237.555507927669 91.022095700466 , 212.756301392342 141.837277366453 , 141.596326034363 192.652459032441 , 70.4363506763841 177.833427903153 , 46.9444425324604 214.754699633987 , -9.80159067991013 251.675971364821 , -66.5476238922807 320.394938845849 , -95.3531318245174 377.597712746717 , -72.86461589616 434.800486647585 , -50.3760999678027 465.876559739046 , 39.7784493069616 376.973922865843 , 82.6981859258194 288.071285992641 , 125.617922544677 179.16037999946 , 35.9632750291265 114.283212702545 , 57.4656298444109 49.4060454056292 , 78.9679846596953 48.9340265814684 , 135.561747757459 54.8515046133914 , 160.887286366088 60.7689826453145 , 186.212824974718 85.8160869154803 , 234.33326108354 142.908696931051 , 240.323235187205 200.001306946621 , 246.313209290871 238.959190679625 , 210.564399708041 260.728236201937 , 177.520414559247 282.497281724249 , 144.476429410454 301.01132475886 , 86.5823788582743 296.407083884306 , 12.420377867666 291.802843009751 , -61.7416231229422 247.933812628017 , -108.211962408487 236.562630746685 , -119.707245358121 225.191448865354 , -131.202528307754 210.798690129236 , -142.949885363602 196.063777521023 , -151.995047155579 181.32886491281 , -161.040208947557 138.741313970754 , -185.205597878473 51.7073767450757 , -193.63284842015 -35.3265604806025 , -202.060098961827 -48.2616341519668 , -177.480487472429 -115.865776343292 , -181.082230125174 -183.469918534618 , -184.68397277792 -242.775703913363 , -229.793590372209 -251.901464776429 , -290.576903701476 -261.027225639494 , -351.360217030744 -198.489132246543 , -423.350160415194 -116.868231574273 , -367.818086729006 -35.2473309020038 , -312.286013042818 -58.4350802212198 , -173.139077945769 -7.37491106153919 , -127.704980348709 43.6852580981414 , -82.27088275165 92.9329040486433 , -110.158984007744 111.906724832278 , -127.94643961404 130.880545615914 , -145.733895220337 160.030513592257 , -191.485541863949 136.671678326257 , -243.924179557624 113.312843060257 , -296.362817251299 62.8745239399715 , -312.226929450345 23.3730705976847 , -314.55748331441 -16.1283827446021 , -316.888037178476 -75.5231227680759 , -303.974643497118 -137.447179184152 , -262.906253439307 -199.371235600228 , -221.837863381496 -217.681214753125 , -160.61099898875 -221.950830870532 , -145.015625133647 -226.220446987939 , -129.420251278544 -229.19757725757 , -111.082078054602 -229.663460846657 , -93.7986885173568 -230.129344435744 , -76.515298980112 -229.76340967122 , -27.5507035138691 -193.544654111529 , 52.0365223857867 -157.325898551838 , 131.623748285442 -129.571793751186 , 130.536044939968 -98.8889232906944 , 190.883820805084 -68.2060528302031 , 251.2315966702 -77.6192349324861 , 325.146722196726 -125.696247970289 , 363.441519597636 -173.773261008091 , 401.736316998547 -267.387427492503 , 383.571711108232 -260.10569129157 , 285.119900803186 -252.823955090637 , 186.668090498141 -120.72529977824 , 137.175802916642 -106.908301641005 , 70.2393505042986 -93.0913035037706 , 3.30289809195472 -141.866930630112 , -25.4027637497147 -166.75822944567 , -32.9408467520477 -191.649528261228 , -40.4789297543807 -245.846600507737 , -42.8477192195904 -279.580375257308 , 3.6009443704186 -313.314150006878 , 50.0496079604276 -301.833714619596 , 101.662529742305 -284.101306799621 , 137.037068755163 -266.368898979646 , 172.411607768022 -225.488201990784 , 217.392264638844 -158.959904700154 , 250.485875571641 -92.4316074095229 , 283.579486504438 -30.2525978748916 , 268.822961397237 -14.6117998761533 , 264.722870491768 Z "
       id="path3032"
       inkscape:connector-curvature="0"
       sodipodi:nodetypes="zzzzzzzzzzzzzzzzzzzzzzzzzzzzzzzzzz" />
  </g>
</svg>
