<?xml version="1.0" encoding="UTF-8" standalone="no"?>
<!-- Created with Inkscape (http://www.inkscape.org/) -->

<svg
   xmlns:dc="http://purl.org/dc/elements/1.1/"
   xmlns:cc="http://creativecommons.org/ns#"
   xmlns:rdf="http://www.w3.org/1999/02/22-rdf-syntax-ns#"
   xmlns:svg="http://www.w3.org/2000/svg"
   xmlns="http://www.w3.org/2000/svg"
   xmlns:sodipodi="http://sodipodi.sourceforge.net/DTD/sodipodi-0.dtd"
   xmlns:inkscape="http://www.inkscape.org/namespaces/inkscape"
   width="210mm"
   height="297mm"
   viewBox="0 0 744.09448819 1052.3622047"
   id="svg2"
   version="1.1"
   inkscape:version="0.91 r13725"
   sodipodi:docname="trefoil_of_trefoils.svg">
  <defs
     id="defs4" />
  <sodipodi:namedview
     id="base"
     pagecolor="#ffffff"
     bordercolor="#666666"
     borderopacity="1.0"
     inkscape:pageopacity="0.0"
     inkscape:pageshadow="2"
     inkscape:zoom="0.98994949"
     inkscape:cx="150.99295"
     inkscape:cy="1093.2441"
     inkscape:document-units="px"
     inkscape:current-layer="layer1"
     showgrid="false"
     inkscape:window-width="1600"
     inkscape:window-height="835"
     inkscape:window-x="0"
     inkscape:window-y="0"
     inkscape:window-maximized="1" />
  <metadata
     id="metadata7">
    <rdf:RDF>
      <cc:Work
         rdf:about="">
        <dc:format>image/svg+xml</dc:format>
        <dc:type
           rdf:resource="http://purl.org/dc/dcmitype/StillImage" />
        <dc:title></dc:title>
      </cc:Work>
    </rdf:RDF>
  </metadata>
  <g
     inkscape:label="Layer 1"
     inkscape:groupmode="layer"
     id="layer1">
    <path
       style="fill:none;fill-rule:evenodd;stroke:#000000;stroke-width:1px;stroke-linecap:butt;stroke-linejoin:miter;stroke-opacity:1"
       d="M  89.5434501241197 , -392.42054546046 C  145.807990708936 , -385.808484548182 181.879109305324 , -330.072042342269 161.062064573608 , -273.756443515223 140.245019841892 , -217.440844688177 77.1072066975343 , -193.679027313954 0 , -193.679027313954 -77.1072066975343 , -193.679027313954 -140.245019841892 , -217.440844688177 -161.062064573608 , -273.756443515223 -181.879109305324 , -330.072042342269 -145.807990708936 , -385.808484548182 -89.5434501241197 , -392.42054546046 -33.2789095393034 , -399.032606372738 13.1238455422496 , -358.420463950585 50.0438148041004 , -286.230424314763 86.9637840659512 , -214.040384678941 95.7914383417897 , -169.944104072007 96.2314620444086 , -130.132290134906 96.6714857470275 , -90.3204761978045 88.2899258492365 , -31.7328276054 52.4767269668331 , 30.2974524404916 16.6635280844298 , 92.3277324863831 -29.8840839956926 , 128.880200577413 -64.5821380872713 , 148.405035841229 -99.28019217885 , 167.929871105044 -141.882518534781 , 182.333038549809 -222.860911390534 , 186.454427080016 -303.839304246286 , 190.575815610224 -362.211828826759 , 170.695922115088 -384.617886397764 , 118.663370180238 -407.02394396877 , 66.6308182453872 -376.79032840008 , 7.52409209503741 -317.611066820667 , -2.60561774910255 -258.431805241254 , -12.7353275932425 -206.284561182911 , 30.0627138420548 -167.730957834144 , 96.8395136569771 -129.177354485377 , 163.616313471899 -118.186785399362 , 230.17617228142 -156.549002247059 , 276.362061264326 -194.911219094756 , 322.547950247232 -261.215953259833 , 319.177666302795 -295.074436273645 , 273.757175280223 -328.932919287456 , 228.33668425765 -316.963149788536 , 167.844648340361 -272.904726194634 , 99.7759972347469 -228.846302600732 , 31.7073461291325 -195.07163052064 , 2.01423296696325 -160.81360013168 , -18.2727457063228 -126.55556974272 , -38.5597243796088 -71.6263977648067 , -60.5949048809832 0 , -60.5949048809832 71.6263977648067 , -60.5949048809832 126.55556974272 , -38.5597243796089 160.81360013168 , -18.2727457063229 195.07163052064 , 2.01423296696312 228.846302600732 , 31.7073461291323 272.904726194634 , 99.7759972347467 316.963149788536 , 167.844648340361 328.932919287456 , 228.33668425765 295.074436273645 , 273.757175280222 261.215953259834 , 319.177666302795 194.911219094756 , 322.547950247232 156.549002247059 , 276.362061264326 118.186785399362 , 230.17617228142 129.177354485377 , 163.616313471899 167.730957834144 , 96.839513656977 206.284561182911 , 30.0627138420546 258.431805241254 , -12.7353275932427 317.611066820667 , -2.60561774910278 376.79032840008 , 7.52409209503712 407.02394396877 , 66.6308182453869 384.617886397764 , 118.663370180237 362.211828826759 , 170.695922115088 303.839304246286 , 190.575815610224 222.860911390534 , 186.454427080016 141.882518534781 , 182.333038549809 99.2801921788501 , 167.929871105044 64.5821380872714 , 148.405035841229 29.8840839956927 , 128.880200577413 -16.6635280844297 , 92.3277324863831 -52.4767269668331 , 30.2974524404916 -88.2899258492365 , -31.7328276053999 -96.6714857470275 , -90.3204761978045 -96.2314620444086 , -130.132290134906 -95.7914383417897 , -169.944104072007 -86.9637840659512 , -214.040384678941 -50.0438148041004 , -286.230424314763 -13.1238455422496 , -358.420463950585 33.2789095393034 , -399.032606372738 89.5434501241197 , -392.42054546046 Z "
       id="path3401"
       inkscape:connector-curvature="0"
       sodipodi:nodetypes="zzzzzzzzzzzzzzzzzzzzzzzzzzzzzzz" />
  </g>
</svg>
