<?xml version="1.0" encoding="UTF-8" standalone="no"?>
<!-- Created with Inkscape (http://www.inkscape.org/) -->

<svg
   xmlns:dc="http://purl.org/dc/elements/1.1/"
   xmlns:cc="http://creativecommons.org/ns#"
   xmlns:rdf="http://www.w3.org/1999/02/22-rdf-syntax-ns#"
   xmlns:svg="http://www.w3.org/2000/svg"
   xmlns="http://www.w3.org/2000/svg"
   xmlns:sodipodi="http://sodipodi.sourceforge.net/DTD/sodipodi-0.dtd"
   xmlns:inkscape="http://www.inkscape.org/namespaces/inkscape"
   width="210mm"
   height="297mm"
   viewBox="0 0 744.09448819 1052.3622047"
   id="svg4175"
   version="1.1"
   inkscape:version="0.91 r13725"
   sodipodi:docname="9_40.svg">
  <defs
     id="defs4177" />
  <sodipodi:namedview
     id="base"
     pagecolor="#ffffff"
     bordercolor="#666666"
     borderopacity="1.0"
     inkscape:pageopacity="0.0"
     inkscape:pageshadow="2"
     inkscape:zoom="1.5982422"
     inkscape:cx="183.53966"
     inkscape:cy="970.49493"
     inkscape:document-units="px"
     inkscape:current-layer="layer1"
     showgrid="false"
     inkscape:window-width="2560"
     inkscape:window-height="1315"
     inkscape:window-x="78"
     inkscape:window-y="0"
     inkscape:window-maximized="0" />
  <metadata
     id="metadata4180">
    <rdf:RDF>
      <cc:Work
         rdf:about="">
        <dc:format>image/svg+xml</dc:format>
        <dc:type
           rdf:resource="http://purl.org/dc/dcmitype/StillImage" />
        <dc:title></dc:title>
      </cc:Work>
    </rdf:RDF>
  </metadata>
  <g
     inkscape:label="Layer 1"
     inkscape:groupmode="layer"
     id="layer1">
    <path
       style="fill:none;fill-rule:evenodd;stroke:#000000;stroke-width:1;stroke-linecap:butt;stroke-linejoin:miter;stroke-miterlimit:4;stroke-dasharray:none;stroke-opacity:1"
       d="M  143.410122650897 , -286.958941204323 C  230.766453247193 , -232.165189703313 276.419384357361 , -120.261038212534 245.621561418108 , -15.4636872869169 214.823738478856 , 89.3336636387004 134.26868867623 , 115.707036881463 83.3520060056967 , 115.274668339262 32.4353233351631 , 114.842299797062 -21.3799763406768 , 88.2707703568964 -54.257347025855 , 31.3254939108923 -87.1347177110331 , -25.6197825351117 -83.2386873857025 , -85.5109638867444 -58.1547881917785 , -129.822288826958 -33.0708889978545 , -174.133613767171 30.046647115179 , -230.709646677984 136.202726735703 , -204.982668261823 242.358806356226 , -179.255689845662 316.444178781099 , -83.7670160016467 320.218794251478 , 19.2826612266422 323.993409721856 , 122.332338454931 267.939617667254 , 219.420354250402 176.80867160058 , 267.676279977681 85.6777255339061 , 315.93220570496 -34.0605780011347 , 299.516728058197 -109.418834682406 , 220.44635554874 -184.777091363677 , 141.375983039283 -167.339577674085 , 58.4265768857082 -141.506794197475 , 14.5476204876954 -115.674010720866 , -29.3313359103174 -65.7547413703563 , -62.6509878217846 0 , -62.6509878217846 65.7547413703563 , -62.6509878217846 115.674010720866 , -29.3313359103175 141.506794197475 , 14.5476204876953 167.339577674085 , 58.426576885708 184.777091363677 , 141.375983039283 109.418834682406 , 220.44635554874 34.060578001135 , 299.516728058197 -85.6777255339059 , 315.93220570496 -176.80867160058 , 267.676279977681 -267.939617667254 , 219.420354250402 -323.993409721856 , 122.332338454931 -320.218794251478 , 19.2826612266424 -316.444178781099 , -83.7670160016464 -242.358806356226 , -179.255689845662 -136.202726735703 , -204.982668261823 -30.046647115179 , -230.709646677984 33.0708889978545 , -174.133613767171 58.1547881917785 , -129.822288826958 83.2386873857025 , -85.5109638867444 87.1347177110331 , -25.6197825351118 54.257347025855 , 31.3254939108923 21.3799763406769 , 88.2707703568964 -32.435323335163 , 114.842299797062 -83.3520060056966 , 115.274668339262 -134.26868867623 , 115.707036881463 -214.823738478856 , 89.3336636387006 -245.621561418108 , -15.4636872869167 -276.419384357361 , -120.261038212534 -230.766453247193 , -232.165189703313 -143.410122650897 , -286.958941204323 -56.0537920546017 , -341.752692705333 56.0537920546017 , -341.752692705333 143.410122650897 , -286.958941204323 Z "
       id="path4806"
       inkscape:connector-curvature="0"
       sodipodi:nodetypes="zzzzzzzzzzzzzzzzzzzzzz" />
  </g>
</svg>
